<?xml version="1.0" encoding="UTF-8"?>
<svg xmlns="http://www.w3.org/2000/svg" xmlns:xlink="http://www.w3.org/1999/xlink" version="1.2" >
<font id="Crossten Medium">
<font-face  font-family="Crossten" units-per-em="1000" ascent="750" descent="-250" font-style="normal" font-weight="500" font-stretch="normal" cap-height="700" x-height="500" underline-position="-75" underline-thickness="50" />
<missing-glyph  horiz-adv-x="325" d="" />
<glyph glyph-name="NULL" d="" />
<glyph glyph-name="&amp;#x0;" horiz-adv-x="325" d="" />
<glyph glyph-name="&amp;#xd;" unicode="&#xd;" horiz-adv-x="325" d="" />
<glyph glyph-name="space" unicode="&#x20;" horiz-adv-x="275" d="" />
<glyph glyph-name="exclam" unicode="&#x21;" horiz-adv-x="266" d="M169 196 C179 196 184 201 184 211 L190 685 C190 695 185 700 175 700 L91 700 C81 700 76 695 76 685 L82 211 C82 200 85 196 97 196 L169 196 L169 196 Z M65 57 C65 18 93 -10 132 -10 C171 -10 201 18 201 57 C201 96 171 126 132 126 C93 126 65 96 65 57 L65 57 Z " />
<glyph glyph-name="quotedbl" unicode="&#x22;" horiz-adv-x="382" d="M139 473 C149 473 154 478 154 488 L161 681 C161 691 156 696 146 696 L80 696 C70 696 65 691 65 681 L71 488 C71 478 76 473 86 473 L139 473 L139 473 Z M295 473 C305 473 310 478 310 488 L317 681 C317 691 312 696 302 696 L236 696 C226 696 221 691 221 681 L227 488 C227 478 232 473 242 473 L295 473 L295 473 Z " />
<glyph glyph-name="numbersign" unicode="&#x23;" horiz-adv-x="623" d="M169 0 C180 0 185 7 186 15 L212 201 L364 201 L338 15 C337 7 341 0 352 0 L409 0 C418 0 422 7 425 15 L451 201 L550 201 C561 201 566 206 566 217 L566 274 C566 284 561 289 550 289 L463 289 L478 409 L577 409 C588 409 593 414 593 424 L593 481 C593 492 588 497 577 497 L491 497 L518 679 C519 690 515 695 504 695 L449 695 C440 695 434 690 433 679 L406 497 L252 497 L277 679 C278 690 274 695 263 695 L208 695 C199 695 193 687 192 679 L166 497 L72 497 C62 497 57 492 57 482 L57 424 C57 415 64 409 72 409 L154 409 L137 289 L45 289 C35 289 30 284 30 274 L30 217 C30 206 35 201 45 201 L124 201 L98 15 C95 7 100 0 111 0 L169 0 L169 0 Z M376 289 L223 289 L240 409 L394 409 L376 289 Z " />
<glyph glyph-name="dollar" unicode="&#x24;" horiz-adv-x="542" d="M166 520 C166 569 215 600 274 600 C325 600 374 579 403 559 C407 557 411 556 414 556 C419 556 423 558 426 563 L471 632 C476 641 475 648 466 653 C413 685 383 699 319 707 L319 796 C319 806 314 811 304 811 L247 811 C237 811 232 806 232 796 L232 704 C123 685 51 613 51 519 C51 283 387 341 387 193 C387 140 347 100 268 100 C211 100 148 126 105 161 C101 164 97 165 93 165 C88 165 84 162 82 158 L38 93 C31 84 36 77 43 72 C100 28 161 -1 232 -8 L232 -96 C232 -106 237 -111 247 -111 L304 -111 C314 -111 319 -106 319 -96 L319 -4 C427 9 502 92 502 194 C502 436 166 382 166 520 L166 520 Z " />
<glyph glyph-name="percent" unicode="&#x25;" horiz-adv-x="1067" d="M608 204 C608 84 702 -10 822 -10 C941 -10 1037 84 1037 204 C1037 323 941 419 822 419 C702 419 608 323 608 204 L608 204 Z M699 203 C699 272 755 327 821 327 C890 327 945 272 945 203 C945 137 890 81 821 81 C755 81 699 137 699 203 L699 203 Z M296 14 C289 5 295 0 306 0 L368 0 C377 0 382 6 387 14 L773 685 C780 694 774 700 763 700 L701 700 C694 700 687 695 682 685 L296 14 L296 14 Z M30 497 C30 377 124 283 244 283 C363 283 459 377 459 497 C459 616 363 712 244 712 C124 712 30 616 30 497 L30 497 Z M121 497 C121 565 177 621 243 621 C312 621 367 565 367 497 C367 429 312 375 243 375 C177 375 121 429 121 497 L121 497 Z " />
<glyph glyph-name="ampersand" unicode="&#x26;" horiz-adv-x="709" d="M312 437 C277 476 256 510 259 541 C262 580 291 608 331 608 C362 608 383 595 404 572 C407 568 410 567 413 567 C417 567 420 568 423 571 L476 614 C483 619 484 626 479 634 C439 682 383 710 322 710 C244 710 166 655 153 567 C146 511 168 452 215 395 C107 332 40 278 40 174 C40 69 123 -10 232 -10 C336 -10 404 35 487 97 L592 -18 C598 -24 603 -26 608 -26 C613 -26 618 -24 623 -19 L665 20 C676 31 677 38 666 49 L563 161 L576 173 C584 180 593 188 604 199 L646 237 C655 246 654 255 645 265 L601 314 C597 319 593 321 588 321 C584 321 579 319 574 314 L561 303 C553 296 543 286 532 277 L491 240 L312 437 L312 437 Z M244 98 C193 98 153 135 153 184 C153 254 202 273 283 322 L413 178 C362 134 311 98 244 98 L244 98 Z " />
<glyph glyph-name="quotesingle" unicode="&#x27;" horiz-adv-x="226" d="M138 473 C149 473 154 481 154 490 L161 678 C161 690 156 696 145 696 L81 696 C69 696 65 689 65 678 L71 490 C71 479 74 473 87 473 L138 473 L138 473 Z " />
<glyph glyph-name="parenleft" unicode="&#x28;" horiz-adv-x="371" d="M257 779 C-31 478 -31 155 249 -133 C254 -138 257 -140 261 -140 C264 -140 267 -139 271 -136 L320 -99 C328 -93 329 -86 322 -78 C73 198 74 438 332 728 C338 735 337 742 329 748 L280 783 C276 785 273 787 270 787 C265 787 261 784 257 779 L257 779 Z " />
<glyph glyph-name="parenright" unicode="&#x29;" horiz-adv-x="371" d="M114 779 C109 784 105 787 101 787 C98 787 95 786 91 783 L42 748 C33 743 32 736 39 728 C297 438 298 198 49 -78 C42 -86 43 -93 51 -99 L99 -136 C103 -139 106 -140 109 -140 C113 -140 117 -138 122 -133 C401 154 402 478 114 779 L114 779 Z " />
<glyph glyph-name="asterisk" unicode="&#x2a;" horiz-adv-x="384" d="M72 441 C65 432 65 425 73 419 L114 389 C118 386 121 384 125 384 C129 384 133 387 136 393 L192 478 L247 392 C250 387 253 383 259 383 C261 383 264 384 268 386 L308 414 C317 419 318 427 310 436 L243 521 L340 543 C351 545 356 551 353 562 L342 608 C340 614 336 618 330 618 C328 618 325 617 322 616 L230 592 L234 681 C235 692 234 698 219 698 L168 698 C155 698 153 693 153 681 L156 592 L63 619 C59 621 56 621 54 621 C48 621 45 618 43 611 L31 562 C28 551 32 545 43 543 L139 523 L72 441 Z " />
<glyph glyph-name="plus" unicode="&#x2b;" horiz-adv-x="530" d="M475 241 C485 241 490 246 490 256 L490 324 C490 334 485 339 475 339 L315 339 L315 499 C315 508 310 513 300 513 L231 513 C221 513 216 508 216 499 L216 339 L54 339 C45 339 40 334 40 324 L40 256 C40 246 45 241 54 241 L216 241 L216 79 C216 69 221 64 231 64 L300 64 C310 64 315 69 315 79 L315 241 L475 241 Z " />
<glyph glyph-name="comma" unicode="&#x2c;" horiz-adv-x="225" d="M36 -159 C35 -168 39 -172 48 -172 L114 -172 C123 -172 129 -168 131 -160 L184 110 C186 118 183 122 174 122 L93 122 C85 122 80 118 79 109 L36 -159 L36 -159 Z " />
<glyph glyph-name="hyphen" unicode="&#x2d;" horiz-adv-x="435" d="M79 336 C70 336 65 331 65 321 L65 239 C65 229 70 224 79 224 L355 224 C365 224 370 229 370 239 L370 321 C370 331 365 336 355 336 L79 336 L79 336 Z " />
<glyph glyph-name="period" unicode="&#x2e;" horiz-adv-x="196" d="M30 57 C30 18 58 -10 97 -10 C136 -10 166 18 166 57 C166 96 136 126 97 126 C58 126 30 96 30 57 L30 57 Z " />
<glyph glyph-name="slash" unicode="&#x2f;" horiz-adv-x="553" d="M38 14 C31 5 37 0 48 0 L110 0 C119 0 124 6 129 14 L515 685 C522 694 516 700 505 700 L443 700 C436 700 429 695 424 685 L38 14 L38 14 Z " />
<glyph glyph-name="zero" unicode="0" horiz-adv-x="569" d="M40 349 C40 168 107 -10 284 -10 C460 -10 529 168 529 349 C529 530 461 710 284 710 C107 710 40 530 40 349 L40 349 Z M154 349 C154 479 185 598 284 598 C383 598 414 480 414 349 C414 219 383 101 284 101 C185 101 154 219 154 349 L154 349 Z " />
<glyph glyph-name="one" unicode="1" horiz-adv-x="315" d="M13 662 C4 661 0 655 2 646 L13 560 C14 553 17 549 22 549 C24 549 25 550 27 550 L120 574 L120 15 C120 5 125 0 135 0 L220 0 C230 0 235 5 235 15 L235 685 C235 695 230 700 220 700 L202 700 L13 662 L13 662 Z " />
<glyph glyph-name="two" unicode="2" horiz-adv-x="500" d="M77 557 C81 550 86 547 91 547 C94 547 98 549 102 552 C143 583 179 598 222 598 C296 598 329 542 329 489 C329 394 234 308 32 50 C27 43 25 37 25 31 L25 15 C25 5 30 0 40 0 L445 0 C455 0 460 5 460 15 L460 98 C460 107 455 112 445 112 L212 112 C386 324 443 397 443 505 C443 621 364 710 233 710 C161 710 101 686 41 643 C32 636 30 629 35 620 L77 557 L77 557 Z " />
<glyph glyph-name="three" unicode="3" horiz-adv-x="471" d="M183 312 C271 312 327 274 327 206 C327 142 280 101 205 101 C158 101 116 120 84 147 C80 150 77 152 73 152 C68 152 63 149 59 142 L18 79 C12 71 14 64 24 57 C83 14 136 -10 216 -10 C348 -10 441 71 441 196 C441 280 383 340 311 364 C375 391 423 448 423 528 C423 631 340 710 227 710 C159 710 99 690 35 643 C26 636 24 629 29 620 L69 559 C72 554 76 549 82 549 C85 549 89 550 94 554 C129 581 171 598 215 598 C270 598 310 562 310 509 C310 456 263 414 183 414 C176 414 171 411 171 402 L171 323 C171 316 175 312 183 312 L183 312 Z " />
<glyph glyph-name="four" unicode="4" horiz-adv-x="514" d="M305 15 C305 5 310 0 320 0 L397 0 C407 0 412 5 412 15 L412 138 L476 138 C486 138 491 143 491 153 L491 225 C491 235 486 240 476 240 L412 240 L412 372 C412 382 407 387 397 387 L322 387 C312 387 307 382 307 372 L307 247 L139 247 L336 684 C340 695 336 700 325 700 L250 700 C239 700 232 695 227 684 L17 217 L17 153 C17 143 22 138 32 138 L305 138 L305 15 Z " />
<glyph glyph-name="five" unicode="5" horiz-adv-x="508" d="M86 303 C125 322 186 337 237 337 C324 337 359 288 359 223 C359 159 318 101 228 101 C187 101 134 112 95 143 C90 145 86 147 83 147 C78 147 74 144 70 139 L28 75 C23 66 25 59 34 52 C98 8 172 -10 237 -10 C389 -10 473 97 473 228 C473 352 409 441 287 441 C247 441 201 432 172 417 L172 592 L420 592 C431 592 436 597 436 607 L436 684 C436 695 431 700 420 700 L77 700 C66 700 61 695 61 684 L61 318 L86 303 L86 303 Z " />
<glyph glyph-name="six" unicode="6" horiz-adv-x="533" d="M152 394 C160 511 194 601 294 601 C337 601 377 587 415 559 C419 556 423 555 427 555 C432 555 436 558 440 564 L479 623 C483 634 484 638 473 646 C410 693 345 710 285 710 C146 710 42 599 42 338 L42 307 C42 96 138 -10 271 -10 C404 -10 493 99 493 230 C493 371 411 447 307 447 C247 447 195 427 152 394 L152 394 Z M152 292 C189 329 234 346 273 346 C341 346 381 297 381 225 C381 153 337 94 269 94 C201 94 152 160 152 269 L152 292 Z " />
<glyph glyph-name="seven" unicode="7" horiz-adv-x="487" d="M457 685 C457 695 452 700 442 700 L52 700 C42 700 37 695 37 685 L37 603 C37 593 42 588 52 588 L332 588 L76 16 C73 5 77 0 89 0 L172 0 C183 0 191 5 195 16 L457 602 L457 685 Z " />
<glyph glyph-name="eight" unicode="8" horiz-adv-x="516" d="M50 528 C50 457 94 403 154 376 C67 341 30 272 30 196 C30 75 125 -10 257 -10 C390 -10 486 75 486 196 C486 272 448 341 361 376 C421 403 466 457 466 528 C466 627 382 710 257 710 C133 710 50 627 50 528 L50 528 Z M152 511 C152 570 193 611 257 611 C321 611 364 570 364 511 C364 449 311 412 257 412 C204 412 152 449 152 511 L152 511 Z M138 205 C138 272 189 316 257 316 C326 316 378 272 378 205 C378 137 328 94 257 94 C188 94 138 137 138 205 L138 205 Z " />
<glyph glyph-name="nine" unicode="9" horiz-adv-x="533" d="M60 54 C123 7 188 -10 247 -10 C386 -10 490 99 490 361 L490 400 C490 603 394 710 260 710 C127 710 40 608 40 476 C40 337 119 252 224 252 C287 252 337 273 380 305 C372 188 338 99 239 99 C196 99 156 113 118 141 C113 144 109 145 106 145 C101 145 97 142 93 136 L54 76 C49 68 51 61 60 54 L60 54 Z M380 405 C341 370 308 353 257 353 C188 353 151 404 151 476 C151 548 195 606 263 606 C331 606 380 541 380 430 L380 405 Z " />
<glyph glyph-name="colon" unicode="&#x3a;" horiz-adv-x="196" d="M30 57 C30 18 58 -10 97 -10 C136 -10 166 18 166 57 C166 96 136 126 97 126 C58 126 30 96 30 57 L30 57 Z M30 441 C30 402 58 373 97 373 C136 373 166 402 166 441 C166 480 136 510 97 510 C58 510 30 480 30 441 L30 441 Z " />
<glyph glyph-name="semicolon" unicode="&#x3b;" horiz-adv-x="225" d="M26 -159 C25 -168 28 -172 37 -172 L104 -172 C113 -172 119 -168 121 -160 L174 110 C175 118 172 122 164 122 L83 122 C74 122 69 118 68 109 L26 -159 L26 -159 Z M58 441 C58 402 87 373 126 373 C165 373 195 402 195 441 C195 480 165 510 126 510 C87 510 58 480 58 441 L58 441 Z " />
<glyph glyph-name="less" unicode="&#x3c;" horiz-adv-x="516" d="M456 433 C466 436 471 441 471 450 L471 516 C471 524 468 530 461 530 C459 530 458 529 456 529 L44 362 C35 358 30 355 30 344 L30 247 C30 236 35 233 44 229 L457 61 C466 61 471 61 471 74 L471 140 C471 149 467 152 456 156 L124 295 L456 433 Z " />
<glyph glyph-name="equal" unicode="&#x3d;" horiz-adv-x="612" d="M89 446 C80 446 75 441 75 431 L75 370 C75 360 80 355 89 355 L522 355 C532 355 537 360 537 370 L537 431 C537 441 532 446 522 446 L89 446 L89 446 Z M89 242 C80 242 75 237 75 227 L75 166 C75 156 80 151 89 151 L522 151 C532 151 537 156 537 166 L537 227 C537 237 532 242 522 242 L89 242 L89 242 Z " />
<glyph glyph-name="greater" unicode="&#x3e;" horiz-adv-x="516" d="M59 156 C50 152 45 149 45 140 L45 74 C45 61 50 61 59 61 L471 229 C480 233 486 236 486 247 L486 344 C486 355 480 358 471 362 L59 529 C57 529 56 530 54 530 C47 530 45 524 45 516 L45 450 C45 439 50 436 59 433 L391 295 L59 156 L59 156 Z " />
<glyph glyph-name="question" unicode="&#x3f;" horiz-adv-x="446" d="M77 559 C81 554 84 551 89 551 C92 551 95 552 98 555 C133 582 172 598 208 598 C257 598 291 568 291 524 C291 434 144 425 144 246 L144 214 C144 203 147 196 158 196 L240 196 C253 196 256 203 256 214 L256 246 C256 381 406 401 406 541 C406 640 332 710 216 710 C148 710 89 684 38 648 C30 641 29 634 34 627 L77 559 L77 559 Z M131 57 C131 18 160 -10 199 -10 C238 -10 267 18 267 57 C267 96 238 126 199 126 C160 126 131 96 131 57 L131 57 Z " />
<glyph glyph-name="at" unicode="&#x40;" horiz-adv-x="1014" d="M382 252 C382 313 428 366 493 366 C557 366 605 314 605 252 C605 189 557 139 493 139 C431 139 382 188 382 252 L382 252 Z M618 112 C627 37 698 -11 775 -11 C872 -11 978 66 978 265 C978 520 764 725 504 725 C243 725 35 514 35 253 C35 -8 228 -218 541 -218 L912 -218 C923 -218 929 -213 929 -203 L929 -160 C929 -151 923 -146 912 -146 L541 -146 C250 -146 107 56 107 254 C107 455 264 652 504 652 C736 652 905 472 905 263 C905 120 837 63 780 63 C738 63 702 94 702 144 L701 437 C701 441 699 451 688 451 L619 451 C616 451 606 449 606 437 L606 383 C560 448 501 457 468 457 C361 457 285 363 285 251 C285 143 360 46 469 46 C550 46 605 107 618 120 L618 112 L618 112 Z " />
<glyph glyph-name="A" unicode="A" horiz-adv-x="622" d="M116 0 C128 0 135 5 137 15 L184 161 L438 161 L485 16 C488 3 495 0 507 0 L596 0 C607 0 611 5 606 15 L386 685 C383 695 377 700 368 700 L254 700 C245 700 239 695 236 685 L16 15 C13 5 16 0 27 0 L116 0 L116 0 Z M211 269 L311 565 L411 269 L211 269 Z " />
<glyph glyph-name="B" unicode="B" horiz-adv-x="607" d="M349 0 C481 0 567 86 567 194 C567 286 514 350 433 371 C493 402 527 453 527 524 C527 623 449 700 323 700 L95 700 C85 700 80 695 80 685 L80 15 C80 5 85 0 95 0 L349 0 L349 0 Z M194 315 L317 315 C397 315 449 276 449 209 C449 150 403 105 324 105 L194 105 L194 315 Z M194 594 L299 594 C372 594 410 558 410 505 C410 453 369 417 309 417 L194 417 L194 594 Z " />
<glyph glyph-name="C" unicode="C" horiz-adv-x="646" d="M590 635 C595 644 593 651 584 656 C533 688 468 710 393 710 C186 710 35 551 35 349 C35 146 186 -10 393 -10 C465 -10 529 9 586 44 C595 50 597 58 591 67 L547 135 C543 140 539 143 534 143 C531 143 528 142 524 139 C485 112 436 101 393 101 C253 101 149 211 149 349 C149 487 253 598 393 598 C444 598 482 586 521 562 C525 560 528 559 531 559 C538 559 543 562 546 567 L590 635 Z " />
<glyph glyph-name="D" unicode="D" horiz-adv-x="725" d="M338 0 C538 0 690 157 690 349 C690 545 538 700 338 700 L95 700 C85 700 80 695 80 685 L80 15 C80 5 85 0 95 0 L338 0 L338 0 Z M194 588 L333 588 C467 588 576 488 576 348 C576 215 467 112 333 112 L194 112 L194 588 Z " />
<glyph glyph-name="E" unicode="E" horiz-adv-x="556" d="M95 700 C85 700 80 695 80 685 L80 15 C80 5 85 0 95 0 L493 0 C503 0 508 5 508 15 L508 97 C508 107 503 112 493 112 L194 112 L194 295 L457 295 C467 295 472 300 472 310 L472 389 C472 399 467 404 457 404 L194 404 L194 588 L492 588 C502 588 507 593 507 603 L507 685 C507 693 503 700 492 700 L95 700 L95 700 Z " />
<glyph glyph-name="F" unicode="F" horiz-adv-x="553" d="M179 0 C189 0 194 5 194 15 L194 281 L482 281 C493 281 497 288 497 296 L497 375 C497 385 492 390 482 390 L194 390 L194 588 L526 588 C536 588 541 593 541 603 L541 685 C541 695 536 700 526 700 L95 700 C85 700 80 695 80 685 L80 15 C80 5 85 0 95 0 L179 0 Z " />
<glyph glyph-name="G" unicode="G" horiz-adv-x="697" d="M515 128 C480 109 444 101 393 101 C254 101 149 209 149 349 C149 485 250 598 393 598 C441 598 484 587 529 558 C533 555 537 554 540 554 C546 554 551 558 554 563 L598 630 C604 639 602 647 591 652 C540 685 473 710 393 710 C186 710 35 554 35 349 C35 146 186 -10 393 -10 C473 -10 546 5 614 42 C623 47 627 53 627 62 L627 354 C627 364 622 369 612 369 L386 369 C376 369 371 364 371 354 L371 288 C371 278 376 273 386 273 L515 273 L515 128 L515 128 Z " />
<glyph glyph-name="H" unicode="H" horiz-adv-x="702" d="M179 0 C189 0 194 5 194 15 L194 296 L508 296 L508 15 C508 5 513 0 523 0 L607 0 C617 0 622 5 622 15 L622 685 C622 695 617 700 607 700 L523 700 C513 700 508 695 508 685 L508 411 L194 411 L194 685 C194 695 189 700 179 700 L95 700 C85 700 80 695 80 685 L80 15 C80 5 85 0 95 0 L179 0 L179 0 Z " />
<glyph glyph-name="I" unicode="I" horiz-adv-x="274" d="M179 0 C189 0 194 5 194 15 L194 685 C194 695 189 700 179 700 L95 700 C85 700 80 695 80 685 L80 15 C80 5 85 0 95 0 L179 0 L179 0 Z " />
<glyph glyph-name="J" unicode="J" horiz-adv-x="492" d="M412 685 C412 695 407 700 397 700 L312 700 C302 700 297 695 297 685 L297 219 C297 148 258 101 191 101 C150 101 122 113 91 132 C87 134 83 136 79 136 C75 136 72 134 69 130 L28 63 C21 52 25 47 32 42 C77 9 136 -10 200 -10 C330 -10 412 84 412 208 L412 685 L412 685 Z " />
<glyph glyph-name="K" unicode="K" horiz-adv-x="662" d="M631 0 C642 0 644 7 639 15 L369 413 L616 685 C623 693 622 700 611 700 L501 700 C486 700 479 694 471 685 L194 391 L194 685 C194 695 189 700 179 700 L95 700 C85 700 80 695 80 685 L80 15 C80 5 85 0 95 0 L179 0 C189 0 194 5 194 15 L194 236 L285 331 L500 15 C508 4 513 0 528 0 L631 0 Z " />
<glyph glyph-name="L" unicode="L" horiz-adv-x="508" d="M461 0 C471 0 476 5 476 15 L476 96 C476 106 471 111 461 111 L194 111 L194 685 C194 695 189 700 179 700 L95 700 C85 700 80 695 80 685 L80 15 C80 5 85 0 95 0 L461 0 L461 0 Z " />
<glyph glyph-name="M" unicode="M" horiz-adv-x="878" d="M464 94 C473 94 479 98 483 107 L683 517 L683 15 C683 5 688 0 698 0 L783 0 C793 0 798 5 798 15 L798 685 C798 695 793 700 783 700 L668 700 C659 700 651 695 646 686 L439 261 L231 686 C226 697 219 700 210 700 L95 700 C85 700 80 695 80 685 L80 15 C80 5 85 0 95 0 L179 0 C189 0 194 5 194 15 L194 517 L395 107 C399 98 403 94 414 94 L464 94 L464 94 Z " />
<glyph glyph-name="N" unicode="N" horiz-adv-x="742" d="M647 0 C657 0 662 5 662 15 L662 685 C662 695 657 700 647 700 L562 700 C552 700 547 695 547 685 L547 200 L206 685 C199 694 193 700 180 700 L95 700 C85 700 80 695 80 685 L80 15 C80 5 85 0 95 0 L179 0 C189 0 194 5 194 15 L194 500 L536 15 C543 4 548 0 561 0 L647 0 Z " />
<glyph glyph-name="O" unicode="O" horiz-adv-x="787" d="M393 710 C190 710 35 551 35 349 C35 146 190 -10 393 -10 C596 -10 752 149 752 349 C752 551 596 710 393 710 L393 710 Z M393 101 C253 101 149 211 149 349 C149 487 253 598 393 598 C533 598 637 487 637 349 C637 211 532 101 393 101 L393 101 Z " />
<glyph glyph-name="P" unicode="P" horiz-adv-x="578" d="M179 0 C189 0 194 5 194 15 L194 237 L325 237 C458 237 553 346 553 470 C553 598 464 700 325 700 L95 700 C85 700 80 695 80 685 L80 15 C80 5 85 0 95 0 L179 0 L179 0 Z M194 595 L300 595 C384 595 438 550 438 470 C438 391 384 341 300 341 L194 341 L194 595 Z " />
<glyph glyph-name="Q" unicode="Q" horiz-adv-x="787" d="M599 -142 C602 -146 606 -148 610 -148 C614 -148 617 -147 621 -145 L694 -106 C699 -103 701 -95 697 -87 L612 65 C703 134 752 234 752 349 C752 551 596 710 393 710 C190 710 35 551 35 349 C35 146 190 -10 393 -10 C440 -10 471 -3 512 12 L599 -142 L599 -142 Z M393 101 C253 101 149 211 149 349 C149 487 253 598 393 598 C533 598 637 487 637 349 C637 211 529 101 393 101 L393 101 Z " />
<glyph glyph-name="R" unicode="R" horiz-adv-x="599" d="M302 595 C393 595 442 539 442 470 C442 400 393 345 302 345 L194 345 L194 595 L302 595 L302 595 Z M401 258 C457 274 557 339 557 470 C557 598 465 700 328 700 L95 700 C85 700 80 695 80 685 L80 15 C80 5 85 0 95 0 L179 0 C189 0 194 5 194 15 L194 240 L282 240 L436 15 C443 5 452 0 463 0 L557 0 C570 0 572 5 565 16 L401 258 L401 258 Z " />
<glyph glyph-name="S" unicode="S" horiz-adv-x="542" d="M471 632 C476 641 475 648 466 653 C410 689 348 710 279 710 C154 710 51 635 51 519 C51 279 387 337 387 193 C387 140 347 100 268 100 C212 100 149 126 105 161 C101 164 97 166 94 166 C89 166 85 163 82 158 L38 93 C31 84 36 77 43 72 C104 24 178 -10 266 -10 C431 -10 502 99 502 194 C502 438 166 386 166 520 C166 569 215 600 274 600 C319 600 365 582 402 559 C406 556 410 555 413 555 C418 555 423 559 426 563 L471 632 L471 632 Z " />
<glyph glyph-name="T" unicode="T" horiz-adv-x="580" d="M332 0 C342 0 347 5 347 15 L347 588 L540 588 C550 588 555 593 555 603 L555 685 C555 695 550 700 540 700 L40 700 C30 700 25 695 25 685 L25 603 C25 593 30 588 40 588 L233 588 L233 15 C233 5 238 0 248 0 L332 0 L332 0 Z " />
<glyph glyph-name="U" unicode="U" horiz-adv-x="692" d="M87 700 C77 700 72 695 72 685 L72 269 C72 112 173 -10 346 -10 C517 -10 619 112 619 269 L619 685 C619 695 614 700 604 700 L520 700 C510 700 505 695 505 685 L505 289 C505 173 450 101 346 101 C242 101 187 173 187 289 L187 685 C187 695 182 700 172 700 L87 700 L87 700 Z " />
<glyph glyph-name="V" unicode="V" horiz-adv-x="617" d="M362 0 C373 0 381 6 385 17 L604 684 C607 692 604 700 593 700 L504 700 C492 700 485 695 483 684 L309 158 L135 684 C132 695 124 700 113 700 L24 700 C13 700 11 692 14 684 L233 17 C236 6 244 0 255 0 L362 0 L362 0 Z " />
<glyph glyph-name="W" unicode="W" horiz-adv-x="931" d="M729 0 C739 0 745 5 748 15 L915 684 C918 695 914 700 904 700 L810 700 C799 700 793 695 791 684 L669 181 L533 688 C530 696 524 700 516 700 L415 700 C407 700 402 696 399 688 L262 181 L141 684 C138 695 134 700 121 700 L27 700 C17 700 13 695 16 684 L184 15 C186 5 192 0 203 0 L309 0 C321 0 328 5 330 15 L466 524 L601 15 C604 5 611 0 623 0 L729 0 L729 0 Z " />
<glyph glyph-name="X" unicode="X" horiz-adv-x="632" d="M164 688 C159 696 153 700 140 700 L30 700 C19 700 19 692 24 685 L249 355 L13 15 C6 7 10 0 21 0 L130 0 C143 0 148 4 155 13 L316 256 L471 13 C478 4 483 0 496 0 L611 0 C622 0 626 7 619 15 L383 355 L608 685 C615 695 613 700 602 700 L491 700 C480 700 472 696 467 688 L316 455 L164 688 Z " />
<glyph glyph-name="Y" unicode="Y" horiz-adv-x="596" d="M142 691 C139 697 133 700 125 700 L26 700 C18 700 16 692 20 685 L241 341 L241 15 C241 5 246 0 256 0 L341 0 C351 0 356 5 356 15 L356 341 L576 685 C580 692 578 700 570 700 L472 700 C465 700 459 697 455 691 L298 441 L142 691 L142 691 Z " />
<glyph glyph-name="Z" unicode="Z" horiz-adv-x="605" d="M42 15 C42 5 47 0 57 0 L548 0 C558 0 563 5 563 15 L563 97 C563 107 558 112 548 112 L195 112 L547 593 C551 600 552 602 552 613 L552 685 C552 695 547 700 537 700 L71 700 C61 700 56 695 56 685 L56 603 C56 593 61 588 71 588 L402 588 L55 113 C47 102 42 94 42 79 L42 15 L42 15 Z " />
<glyph glyph-name="bracketleft" unicode="&#x5b;" horiz-adv-x="322" d="M263 -130 C272 -130 277 -125 277 -115 L277 -52 C277 -42 272 -37 263 -37 L170 -37 L170 657 L263 657 C272 657 277 662 277 672 L277 735 C277 745 272 750 263 750 L96 750 C83 750 75 741 75 729 L75 -109 C75 -122 84 -130 96 -130 L263 -130 L263 -130 Z " />
<glyph glyph-name="backslash" unicode="&#x5c;" horiz-adv-x="553" d="M129 685 C124 695 117 700 110 700 L48 700 C37 700 31 694 38 685 L424 14 C429 6 434 0 443 0 L505 0 C516 0 522 5 515 14 L129 685 L129 685 Z " />
<glyph glyph-name="bracketright" unicode="&#x5d;" horiz-adv-x="322" d="M226 -130 C238 -130 247 -122 247 -109 L247 729 C247 741 239 750 226 750 L59 750 C50 750 45 745 45 735 L45 672 C45 662 50 657 59 657 L152 657 L152 -37 L59 -37 C50 -37 45 -42 45 -52 L45 -115 C45 -125 50 -130 59 -130 L226 -130 L226 -130 Z " />
<glyph glyph-name="asciicircum" unicode="&#x5e;" horiz-adv-x="540" d="M404 316 C408 307 414 302 421 302 L490 302 C501 302 508 307 504 316 L332 685 C328 694 325 700 314 700 L227 700 C218 700 215 693 211 685 L36 316 C32 307 39 302 50 302 L119 302 C126 302 132 307 136 316 L270 604 L404 316 L404 316 Z " />
<glyph glyph-name="underscore" unicode="&#x5f;" horiz-adv-x="635" d="M79 -54 C70 -54 65 -59 65 -69 L65 -152 C65 -162 70 -167 79 -167 L556 -167 C565 -167 570 -162 570 -152 L570 -69 C570 -59 565 -54 556 -54 L79 -54 L79 -54 Z " />
<glyph glyph-name="grave" unicode="&#x60;" horiz-adv-x="240" d="M197 572 C206 576 206 584 203 591 L131 743 C128 750 123 753 117 753 C115 753 113 753 111 752 L44 729 C35 726 33 718 38 711 L132 558 C135 553 139 550 144 550 C146 550 149 551 152 552 L197 572 L197 572 Z " />
<glyph glyph-name="a" unicode="a" horiz-adv-x="620" d="M143 250 C143 334 205 402 289 402 C372 402 434 334 434 250 C434 166 372 98 289 98 C205 98 143 166 143 250 L143 250 Z M530 0 C540 0 545 5 545 15 L545 485 C545 495 540 500 530 500 L447 500 C437 500 432 495 432 485 L432 415 C395 468 340 510 260 510 C124 510 30 393 30 250 C30 107 124 -10 260 -10 C341 -10 397 35 432 84 L432 15 C432 5 437 0 447 0 L530 0 L530 0 Z " />
<glyph glyph-name="b" unicode="b" horiz-adv-x="620" d="M477 250 C477 166 415 98 331 98 C248 98 186 166 186 250 C186 334 248 402 331 402 C415 402 477 334 477 250 L477 250 Z M173 0 C183 0 188 5 188 15 L188 84 C223 32 281 -10 360 -10 C496 -10 590 106 590 250 C590 392 496 510 360 510 C284 510 223 471 188 415 L188 735 C188 745 183 750 173 750 L90 750 C80 750 75 745 75 735 L75 15 C75 5 80 0 90 0 L173 0 L173 0 Z " />
<glyph glyph-name="c" unicode="c" horiz-adv-x="483" d="M393 119 C390 123 387 125 383 125 C380 125 377 124 373 122 C348 107 319 98 286 98 C202 98 140 166 140 250 C140 334 202 402 286 402 C303 402 335 399 371 376 C375 374 378 373 381 373 C385 373 389 375 392 380 L438 443 C443 450 441 460 433 465 C398 488 349 510 286 510 C141 510 30 394 30 250 C30 106 141 -10 286 -10 C346 -10 398 10 434 34 C443 39 444 46 439 55 L393 119 L393 119 Z " />
<glyph glyph-name="d" unicode="d" horiz-adv-x="620" d="M143 250 C143 333 205 402 289 402 C372 402 434 334 434 250 C434 166 372 98 289 98 C205 98 143 166 143 250 L143 250 Z M530 0 C540 0 545 5 545 15 L545 735 C545 745 540 750 530 750 L447 750 C437 750 432 745 432 735 L432 415 C397 471 336 510 260 510 C124 510 30 392 30 250 C30 106 124 -10 260 -10 C339 -10 397 32 432 84 L432 15 C432 5 437 0 447 0 L530 0 L530 0 Z " />
<glyph glyph-name="e" unicode="e" horiz-adv-x="549" d="M289 86 C207 86 150 143 137 211 L502 211 C514 211 519 218 519 229 C519 382 429 510 273 510 C125 510 30 386 30 250 C30 107 144 -10 286 -10 C362 -10 422 10 471 41 C479 46 480 52 475 61 L438 114 C435 118 431 121 426 121 C423 121 419 120 416 118 C377 97 341 86 289 86 L289 86 Z M138 294 C151 371 201 421 273 421 C350 421 395 370 411 294 L138 294 Z " />
<glyph glyph-name="f" unicode="f" horiz-adv-x="382" d="M389 702 C392 709 394 713 385 720 C345 746 303 759 259 759 C168 759 108 705 108 602 L108 500 L47 500 C37 500 32 495 32 485 L32 411 C32 401 37 396 47 396 L108 396 L108 15 C108 5 113 0 123 0 L206 0 C216 0 221 5 221 15 L221 396 L321 396 C330 396 335 401 335 411 L335 485 C335 495 330 500 321 500 L221 500 L221 576 C221 636 250 651 282 651 C303 651 319 646 339 637 C342 636 344 635 346 635 C349 635 351 637 353 640 L389 702 Z " />
<glyph glyph-name="g" unicode="g" horiz-adv-x="620" d="M143 251 C143 334 205 402 289 402 C373 402 435 336 435 251 C435 166 373 103 289 103 C205 103 143 166 143 251 L143 251 Z M545 485 C545 495 540 500 530 500 L447 500 C437 500 432 495 432 485 L432 415 C395 468 339 510 259 510 C124 510 30 394 30 251 C30 108 124 -5 259 -5 C342 -5 397 40 432 89 L432 8 C432 -75 377 -147 271 -147 C215 -147 167 -127 134 -96 C131 -94 128 -92 125 -92 C122 -92 118 -94 115 -98 L71 -156 C66 -163 66 -170 72 -176 C116 -221 191 -255 274 -255 C433 -255 545 -139 545 18 L545 485 L545 485 Z " />
<glyph glyph-name="h" unicode="h" horiz-adv-x="609" d="M173 0 C183 0 188 5 188 15 L188 259 C188 327 242 402 315 402 C395 402 431 343 431 259 L431 15 C431 5 436 0 446 0 L529 0 C539 0 544 5 544 15 L544 280 C544 424 480 510 352 510 C272 510 215 460 188 415 L188 735 C188 745 183 750 173 750 L90 750 C80 750 75 745 75 735 L75 15 C75 5 80 0 90 0 L173 0 L173 0 Z " />
<glyph glyph-name="i" unicode="i" horiz-adv-x="276" d="M179 0 C189 0 194 5 194 15 L194 485 C194 495 189 500 179 500 L96 500 C86 500 81 495 81 485 L81 15 C81 5 86 0 96 0 L179 0 L179 0 Z M70 691 C70 652 98 624 137 624 C176 624 206 652 206 691 C206 730 176 760 137 760 C98 760 70 730 70 691 L70 691 Z " />
<glyph glyph-name="j" unicode="j" horiz-adv-x="282" d="M-65 -209 C-68 -218 -66 -224 -58 -229 C-27 -245 2 -255 43 -255 C136 -255 198 -190 198 -103 L198 485 C198 495 193 500 183 500 L100 500 C89 500 85 493 85 485 L85 -82 C85 -125 60 -147 29 -147 C9 -147 -4 -143 -17 -136 C-19 -135 -21 -135 -23 -135 C-27 -135 -31 -137 -34 -142 L-65 -209 L-65 -209 Z M73 691 C73 652 103 624 140 624 C179 624 209 652 209 691 C209 730 179 760 140 760 C103 760 73 730 73 691 L73 691 Z " />
<glyph glyph-name="k" unicode="k" horiz-adv-x="544" d="M391 14 C398 5 405 0 420 0 L514 0 C525 0 526 7 519 16 L334 293 L502 485 C509 492 507 500 498 500 L396 500 C384 500 378 497 370 489 L188 297 L188 735 C188 745 183 750 173 750 L90 750 C80 750 75 745 75 735 L75 15 C75 5 80 0 90 0 L173 0 C183 0 188 5 188 15 L188 154 L249 218 L391 14 L391 14 Z " />
<glyph glyph-name="l" unicode="l" horiz-adv-x="263" d="M173 0 C183 0 188 5 188 15 L188 735 C188 745 183 750 173 750 L90 750 C80 750 75 745 75 735 L75 15 C75 5 80 0 90 0 L173 0 L173 0 Z " />
<glyph glyph-name="m" unicode="m" horiz-adv-x="925" d="M90 500 C80 500 75 495 75 485 L75 15 C75 5 80 0 90 0 L173 0 C183 0 188 5 188 15 L188 265 C188 334 242 402 308 402 C380 402 411 339 411 259 L411 15 C411 5 416 0 426 0 L509 0 C519 0 524 5 524 15 L524 265 C524 337 581 402 644 402 C716 402 747 339 747 259 L747 15 C747 5 752 0 762 0 L845 0 C855 0 860 5 860 15 L860 280 C860 425 797 510 682 510 C592 510 536 457 496 404 C469 468 421 510 346 510 C266 510 215 460 188 414 L188 485 C188 495 183 500 173 500 L90 500 Z " />
<glyph glyph-name="n" unicode="n" horiz-adv-x="609" d="M529 0 C539 0 544 5 544 15 L544 280 C544 424 480 510 352 510 C271 510 215 456 188 411 L188 485 C188 495 183 500 173 500 L90 500 C80 500 75 495 75 485 L75 15 C75 5 80 0 90 0 L173 0 C183 0 188 5 188 15 L188 265 C188 334 242 402 315 402 C395 402 431 343 431 259 L431 15 C431 5 436 0 446 0 L529 0 L529 0 Z " />
<glyph glyph-name="o" unicode="o" horiz-adv-x="572" d="M30 250 C30 106 141 -10 286 -10 C429 -10 542 106 542 250 C542 394 429 510 286 510 C141 510 30 394 30 250 L30 250 Z M140 250 C140 334 202 402 286 402 C369 402 431 334 431 250 C431 166 369 98 286 98 C202 98 140 166 140 250 L140 250 Z " />
<glyph glyph-name="p" unicode="p" horiz-adv-x="620" d="M477 250 C477 166 415 98 331 98 C248 98 186 166 186 250 C186 334 248 402 331 402 C415 402 477 334 477 250 L477 250 Z M90 500 C80 500 75 495 75 485 L75 -235 C75 -245 80 -250 90 -250 L173 -250 C183 -250 188 -245 188 -235 L188 84 C223 35 279 -10 360 -10 C496 -10 590 107 590 250 C590 393 496 510 360 510 C280 510 225 468 188 415 L188 485 C188 495 183 500 173 500 L90 500 L90 500 Z " />
<glyph glyph-name="q" unicode="q" horiz-adv-x="620" d="M143 250 C143 334 205 402 289 402 C372 402 434 334 434 250 C434 166 372 98 289 98 C205 98 143 166 143 250 L143 250 Z M447 500 C437 500 432 495 432 485 L432 415 C393 468 340 510 260 510 C124 510 30 393 30 250 C30 107 124 -10 260 -10 C341 -10 397 35 432 88 L432 -235 C432 -245 437 -250 447 -250 L530 -250 C540 -250 545 -245 545 -235 L545 485 C545 495 540 500 530 500 L447 500 L447 500 Z " />
<glyph glyph-name="r" unicode="r" horiz-adv-x="408" d="M90 500 C80 500 75 495 75 485 L75 15 C75 5 80 0 90 0 L173 0 C183 0 188 5 188 15 L188 235 C188 328 242 399 312 399 C328 399 342 397 358 390 C361 389 363 389 365 389 C371 389 375 391 377 397 L400 473 C403 484 403 490 394 495 C373 506 346 510 323 510 C259 510 207 457 188 406 L188 485 C188 493 184 500 173 500 L90 500 L90 500 Z " />
<glyph glyph-name="s" unicode="s" horiz-adv-x="438" d="M102 132 C98 136 93 138 89 138 C85 138 81 136 77 132 L37 89 C28 80 28 72 35 65 C82 17 145 -10 217 -10 C331 -10 405 58 405 143 C405 319 149 297 149 369 C149 401 187 412 223 412 C258 412 291 402 316 383 C320 380 324 379 327 379 C331 379 335 380 339 384 L382 431 C389 438 389 445 382 452 C347 483 289 510 221 510 C120 510 44 449 44 367 C44 199 301 223 301 139 C301 103 263 87 219 87 C168 87 137 101 102 132 L102 132 Z " />
<glyph glyph-name="t" unicode="t" horiz-adv-x="409" d="M342 108 C339 113 336 115 333 115 C331 115 328 114 326 113 C307 102 293 98 270 98 C238 98 215 113 215 150 L215 396 L337 396 C346 396 351 401 351 411 L351 485 C351 495 346 500 336 500 L215 500 L215 633 C215 641 211 648 200 648 L117 648 C107 648 102 643 102 633 L102 500 L52 500 C44 500 37 496 37 485 L37 411 C37 400 44 396 52 396 L102 396 L102 136 C102 41 156 -10 251 -10 C291 -10 327 -3 367 20 C378 27 377 31 374 39 L342 108 L342 108 Z " />
<glyph glyph-name="u" unicode="u" horiz-adv-x="609" d="M80 500 C70 500 65 495 65 485 L65 219 C65 76 128 -10 256 -10 C338 -10 392 43 421 88 L421 15 C421 5 426 0 436 0 L519 0 C529 0 534 5 534 15 L534 485 C534 495 529 500 519 500 L436 500 C426 500 421 495 421 485 L421 234 C421 166 367 98 294 98 C213 98 178 156 178 240 L178 485 C178 495 173 500 163 500 L80 500 L80 500 Z " />
<glyph glyph-name="v" unicode="v" horiz-adv-x="502" d="M131 485 C127 493 124 500 113 500 L26 500 C15 500 13 493 16 485 L186 17 C191 2 201 0 205 0 L297 0 C301 0 309 2 316 17 L485 485 C489 493 485 500 476 500 L388 500 C380 500 374 495 371 485 L251 153 L131 485 Z " />
<glyph glyph-name="w" unicode="w" horiz-adv-x="720" d="M127 485 C125 495 119 500 110 500 L26 500 C17 500 14 495 17 485 C37 398 55 320 72 251 C85 191 99 134 110 90 L127 17 C130 6 137 0 147 0 L254 0 C266 0 271 8 274 17 L360 363 L445 17 C448 8 455 0 466 0 L573 0 C584 0 589 8 592 17 L703 485 C706 495 702 500 693 500 L610 500 C601 500 595 495 592 485 L512 145 L424 483 C421 494 414 500 405 500 L314 500 C304 500 298 494 296 483 L251 313 C229 227 207 144 207 145 L127 485 L127 485 Z " />
<glyph glyph-name="x" unicode="x" horiz-adv-x="499" d="M355 12 C360 4 367 0 378 0 L469 0 C478 0 481 8 476 15 L319 251 L474 485 C479 492 478 500 467 500 L376 500 C364 500 360 496 353 487 L249 326 L146 487 C141 496 134 500 123 500 L32 500 C21 500 20 492 25 485 L180 251 L23 15 C18 7 21 0 30 0 L121 0 C131 0 139 4 144 12 L250 174 L355 12 Z " />
<glyph glyph-name="y" unicode="y" horiz-adv-x="610" d="M535 485 C535 495 530 500 520 500 L437 500 C427 500 422 495 422 485 L422 244 C422 175 372 108 295 108 C215 108 179 166 179 250 L179 485 C179 495 174 500 164 500 L81 500 C71 500 66 495 66 485 L66 229 C66 86 130 0 258 0 C334 0 401 48 422 93 L422 10 C422 -73 381 -147 274 -147 C218 -147 171 -124 143 -88 C140 -86 137 -84 134 -84 C131 -84 127 -86 124 -90 L80 -148 C75 -155 75 -161 81 -168 C120 -217 193 -255 277 -255 C436 -255 535 -138 535 21 L535 485 L535 485 Z " />
<glyph glyph-name="z" unicode="z" horiz-adv-x="468" d="M35 15 C35 5 40 0 50 0 L418 0 C428 0 433 5 433 15 L433 87 C433 97 428 102 418 102 L183 102 L407 405 C415 416 420 426 420 443 L420 485 C420 495 415 500 405 500 L63 500 C53 500 48 495 48 485 L48 413 C48 403 53 398 63 398 L273 398 L48 93 C39 84 35 72 35 59 L35 15 L35 15 Z " />
<glyph glyph-name="braceleft" unicode="&#x7b;" horiz-adv-x="328" d="M42 258 C93 258 104 206 104 143 L104 6 C104 -57 138 -95 206 -95 L269 -95 C278 -95 283 -90 283 -80 L283 -42 C283 -32 278 -27 269 -27 L241 -27 C216 -27 202 -11 202 14 L202 143 C202 208 189 301 122 301 C182 301 202 387 202 453 L202 588 C202 615 213 632 241 632 L269 632 C278 632 283 637 283 647 L283 685 C283 695 278 700 269 700 L206 700 C146 700 104 671 104 607 L104 453 C104 398 93 344 42 344 C32 344 27 339 27 329 L27 273 C27 263 32 258 42 258 L42 258 Z " />
<glyph glyph-name="bar" unicode="&#x7c;" horiz-adv-x="262" d="M187 705 C187 715 182 720 172 720 L90 720 C80 720 75 715 75 705 L75 -170 C75 -179 80 -184 90 -184 L172 -184 C182 -184 187 -179 187 -170 L187 705 L187 705 Z " />
<glyph glyph-name="braceright" unicode="&#x7d;" horiz-adv-x="328" d="M286 258 C296 258 301 263 301 273 L301 329 C301 339 296 344 286 344 C235 344 224 398 224 453 L224 607 C224 671 182 700 122 700 L59 700 C50 700 45 695 45 685 L45 647 C45 637 50 632 59 632 L87 632 C115 632 126 615 126 588 L126 453 C126 387 146 301 206 301 C139 301 126 208 126 143 L126 14 C126 -11 112 -27 87 -27 L59 -27 C50 -27 45 -32 45 -42 L45 -80 C45 -90 50 -95 59 -95 L122 -95 C190 -95 224 -57 224 6 L224 143 C224 206 235 258 286 258 L286 258 Z " />
<glyph glyph-name="asciitilde" unicode="&#x7e;" horiz-adv-x="582" d="M111 218 C134 253 155 273 198 273 C262 273 331 207 400 207 C464 207 499 262 532 303 C538 310 537 317 529 323 L491 351 C488 354 485 355 482 355 C478 355 474 353 470 349 C453 326 436 298 404 298 C344 298 263 360 199 365 C125 365 85 324 49 264 C43 255 44 248 52 243 L90 215 C93 212 96 210 99 210 C103 210 107 213 111 218 L111 218 Z " />
<glyph glyph-name="exclamdown" unicode="&#xa1;" horiz-adv-x="266" d="M97 301 C85 301 82 297 82 286 L76 -188 C76 -198 81 -203 91 -203 L175 -203 C185 -203 190 -198 190 -188 L184 286 C184 296 179 301 169 301 L97 301 Z M65 440 C65 401 93 371 132 371 C171 371 201 401 201 440 C201 479 171 507 132 507 C93 507 65 479 65 440 L65 440 Z " />
<glyph glyph-name="cent" unicode="&#xa2;" horiz-adv-x="495" d="M324 -7 C373 -3 414 11 446 34 C455 39 456 46 451 55 L406 119 C403 123 399 125 395 125 C392 125 389 124 386 122 C361 107 331 98 298 98 C215 98 153 166 153 250 C153 334 215 402 298 402 C317 402 348 399 384 376 C387 374 390 373 393 373 C397 373 401 375 405 380 L450 443 C457 450 453 460 445 465 C414 486 375 502 324 507 L324 688 C324 698 319 703 309 703 L271 703 C261 703 256 698 256 688 L256 506 C130 485 42 376 42 250 C42 123 130 14 256 -7 L256 -187 C256 -196 261 -201 271 -201 L309 -201 C319 -201 324 -196 324 -187 L324 -7 L324 -7 Z " />
<glyph glyph-name="sterling" unicode="&#xa3;" horiz-adv-x="536" d="M500 91 C500 97 498 100 495 100 C492 100 489 99 485 96 C459 80 430 75 398 75 C336 75 266 96 202 96 C192 96 182 95 172 94 L172 289 L354 289 C363 289 368 294 368 304 L368 348 C368 358 363 363 354 363 L172 363 C172 449 169 534 242 585 C267 603 298 609 329 609 C375 609 422 595 459 579 C461 578 463 578 464 578 C473 578 476 585 477 588 L497 645 C498 648 500 657 488 662 C439 683 381 699 324 699 C274 699 225 687 185 657 C88 584 81 494 81 363 L34 363 C25 363 20 358 20 348 L20 304 C20 294 25 289 34 289 L81 289 L81 12 C81 4 84 0 89 0 C91 0 93 0 95 1 C116 9 139 12 163 12 C236 12 321 -14 395 -14 C429 -14 461 -9 488 7 C499 12 500 17 500 28 L500 91 L500 91 Z " />
<glyph glyph-name="currency" unicode="&#xa4;" horiz-adv-x="548" d="M157 320 C157 384 208 437 272 437 C336 437 389 384 389 320 C389 256 336 204 272 204 C208 204 157 256 157 320 L157 320 Z M447 89 C450 86 454 85 457 85 C461 85 464 86 468 90 L505 126 C512 133 512 140 505 147 L447 206 C471 241 482 288 482 320 C482 353 474 397 447 433 L507 494 C514 501 513 508 506 515 L469 552 C466 556 462 557 459 557 C455 557 452 556 448 552 L388 493 C348 520 306 529 273 529 C249 529 204 525 160 494 L99 554 C96 558 92 559 89 559 C85 559 82 558 78 554 L41 517 C34 510 33 503 40 496 L101 436 C86 411 64 375 64 320 C64 287 72 246 100 206 L41 146 C34 139 34 132 41 125 L79 88 C83 84 86 83 90 83 C93 83 97 84 100 87 L158 147 C193 118 247 111 273 111 C305 111 351 119 388 148 L447 89 L447 89 Z " />
<glyph glyph-name="yen" unicode="&#xa5;" horiz-adv-x="611" d="M249 15 C249 5 254 0 264 0 L348 0 C358 0 363 5 363 15 L363 155 L537 155 C546 155 551 160 551 170 L551 231 C551 241 546 246 537 246 L363 246 L363 341 L537 341 C546 341 551 346 551 356 L551 417 C551 427 546 432 537 432 L421 432 L583 685 C588 692 586 700 577 700 L479 700 C472 700 466 697 462 691 L306 441 L149 691 C146 697 140 700 132 700 L34 700 C25 700 23 692 28 685 L191 432 L74 432 C64 432 59 427 59 417 L59 356 C59 346 64 341 74 341 L249 341 L249 246 L74 246 C64 246 59 241 59 231 L59 170 C59 160 64 155 74 155 L249 155 L249 15 Z " />
<glyph glyph-name="brokenbar" unicode="&#xa6;" horiz-adv-x="262" d="M187 706 C187 716 182 721 172 721 L90 721 C80 721 75 716 75 706 L75 311 C75 302 80 297 90 297 L172 297 C182 297 187 302 187 311 L187 706 L187 706 Z M187 222 C187 232 182 237 172 237 L90 237 C80 237 75 232 75 222 L75 -173 C75 -182 80 -187 90 -187 L172 -187 C182 -187 187 -182 187 -173 L187 222 L187 222 Z " />
<glyph glyph-name="section" unicode="&#xa7;" horiz-adv-x="542" d="M454 66 C490 109 502 154 502 194 C502 435 166 382 166 520 C166 568 216 598 272 598 C319 598 361 584 402 559 C406 556 410 555 413 555 C418 555 423 559 426 563 L471 632 C476 641 475 648 466 653 C407 691 344 710 279 710 C155 710 51 635 51 519 C51 459 72 417 108 386 C70 350 51 307 51 258 C51 22 387 77 387 -68 C387 -121 347 -159 268 -159 C215 -159 152 -137 105 -100 C101 -97 97 -95 94 -95 C89 -95 85 -98 82 -103 L38 -168 C31 -177 36 -184 43 -189 C108 -240 181 -271 266 -271 C431 -271 502 -162 502 -67 C502 -7 485 35 454 66 L454 66 Z M357 128 C286 170 166 172 166 259 C165 288 189 310 216 323 C285 283 387 277 387 193 C387 166 377 145 357 128 L357 128 Z " />
<glyph glyph-name="dieresis" unicode="&#xa8;" horiz-adv-x="405" d="M30 567 C30 531 58 502 94 502 C131 502 160 531 160 567 C160 603 131 632 94 632 C58 632 30 603 30 567 L30 567 Z M245 567 C245 531 273 502 309 502 C346 502 375 531 375 567 C375 603 346 632 309 632 C273 632 245 603 245 567 L245 567 Z " />
<glyph glyph-name="copyright" unicode="&#xa9;" horiz-adv-x="841" d="M423 765 C206 765 35 588 35 372 C35 160 206 -17 423 -17 C639 -17 806 160 806 372 C806 588 635 765 423 765 L423 765 Z M423 25 C230 25 77 189 77 372 C77 568 239 722 423 722 C620 722 763 555 763 372 C763 164 599 25 423 25 L423 25 Z M529 213 C537 218 538 224 533 232 L515 256 C512 260 508 263 504 263 C501 263 499 262 496 260 C477 249 457 242 432 242 C355 242 302 306 302 370 C302 439 355 499 432 499 C445 499 471 496 494 483 C497 481 500 480 503 480 C507 480 511 483 514 487 L532 512 C536 519 535 524 528 529 C508 544 470 557 431 557 C329 557 246 474 246 371 C246 268 329 186 431 186 C472 186 505 198 529 213 L529 213 Z " />
<glyph glyph-name="guillemotleft" unicode="&#xab;" horiz-adv-x="526" d="M482 410 C489 418 485 425 474 425 L393 425 C384 425 376 418 371 410 L256 239 C253 234 252 229 253 224 L256 218 L371 48 C377 39 384 34 393 34 L473 34 C484 34 488 41 481 48 L359 229 L482 410 Z M255 410 C260 418 258 425 247 425 L165 425 C157 425 149 418 144 410 L29 239 C26 234 25 229 26 224 L29 218 L144 48 C150 39 157 34 165 34 L246 34 C257 34 259 41 254 48 L132 229 L255 410 Z " />
<glyph glyph-name="logicalnot" unicode="&#xac;" horiz-adv-x="615" d="M525 30 C535 30 540 35 540 45 L540 335 L74 335 C65 335 60 330 60 320 L60 251 C60 241 65 236 74 236 L441 236 L441 45 C441 35 446 30 456 30 L525 30 L525 30 Z " />
<glyph glyph-name="uni00AD" unicode="&#xad;" horiz-adv-x="437" d="M79 305 C70 305 65 300 65 290 L65 208 C65 198 70 193 79 193 L357 193 C367 193 372 198 372 208 L372 290 C372 300 367 305 357 305 L79 305 L79 305 Z " />
<glyph glyph-name="registered" unicode="&#xae;" horiz-adv-x="841" d="M423 765 C206 765 35 588 35 372 C35 160 206 -17 423 -17 C639 -17 806 160 806 372 C806 588 635 765 423 765 L423 765 Z M423 25 C230 25 77 189 77 372 C77 568 239 722 423 722 C620 722 763 555 763 372 C763 164 599 25 423 25 L423 25 Z M424 542 C476 542 508 503 508 462 C508 415 476 380 424 380 L338 380 L338 542 L424 542 L424 542 Z M461 330 C499 338 563 378 563 462 C563 538 501 597 424 597 L293 597 C286 597 283 593 283 586 L283 179 C283 171 286 167 293 167 L327 167 C334 167 337 171 337 179 L337 325 L401 325 L507 177 C511 172 517 167 524 167 L567 167 C574 167 573 173 570 177 L461 330 L461 330 Z " />
<glyph glyph-name="degree" unicode="&#xb0;" horiz-adv-x="412" d="M30 526 C30 430 110 350 206 350 C302 350 382 430 382 526 C382 622 302 702 206 702 C110 702 30 622 30 526 L30 526 Z M103 525 C103 585 145 630 205 630 C265 630 310 585 310 525 C310 465 265 423 205 423 C145 423 103 465 103 525 L103 525 Z " />
<glyph glyph-name="plusminus" unicode="&#xb1;" horiz-adv-x="544" d="M54 134 C45 134 40 129 40 119 L40 51 C40 41 45 36 54 36 L488 36 C498 36 503 41 503 51 L503 119 C503 129 498 134 488 134 L54 134 L54 134 Z M483 388 C493 388 498 393 498 403 L498 472 C498 482 493 487 483 487 L323 487 L323 646 C323 656 318 661 308 661 L239 661 C229 661 224 656 224 646 L224 487 L62 487 C53 487 48 482 48 472 L48 403 C48 393 53 388 62 388 L224 388 L224 226 C224 217 229 212 239 212 L308 212 C318 212 323 217 323 226 L323 388 L483 388 Z " />
<glyph glyph-name="twosuperior" unicode="&#xb2;" horiz-adv-x="293" d="M145 524 C184 563 224 605 224 666 C224 722 187 760 128 760 C97 760 73 751 46 734 C41 731 40 727 43 722 L66 686 C69 683 71 681 74 681 C76 681 78 682 80 683 C93 691 106 697 121 697 C146 697 158 679 158 655 C158 612 124 578 44 488 C41 485 40 482 40 478 L40 469 C40 463 43 460 49 460 L229 460 C235 460 238 463 238 469 L238 516 C238 521 235 524 229 524 L145 524 L145 524 Z " />
<glyph glyph-name="threesuperior" unicode="&#xb3;" horiz-adv-x="269" d="M105 588 C140 588 163 575 163 550 C163 527 150 515 123 515 C107 515 94 520 79 529 C77 531 74 531 72 531 C69 531 67 530 65 526 L42 491 C38 486 39 482 45 478 C69 463 92 453 125 453 C189 453 224 490 224 542 C224 579 201 602 169 613 C196 625 218 646 218 683 C218 727 183 760 132 760 C103 760 79 751 52 735 C47 732 45 727 48 722 L70 688 C72 686 74 683 78 683 C80 683 82 683 84 685 C95 690 109 697 125 697 C148 697 158 685 158 668 C158 644 136 634 105 634 C101 634 99 632 99 627 L99 594 C99 590 101 588 105 588 L105 588 Z " />
<glyph glyph-name="acute" unicode="&#xb4;" horiz-adv-x="240" d="M88 552 C90 551 93 551 95 551 C100 551 105 553 108 558 L202 711 C206 718 206 726 195 729 L128 752 C126 753 123 753 121 753 C115 753 111 750 109 743 L37 591 C33 582 35 576 43 572 L88 552 L88 552 Z " />
<glyph glyph-name="mu" unicode="&#xb5;" horiz-adv-x="609" d="M178 40 C203 12 237 -3 280 -3 C344 -3 390 30 421 85 L421 15 C421 5 426 0 436 0 L519 0 C529 0 534 5 534 15 L534 485 C534 495 529 500 519 500 L436 500 C426 500 421 495 421 485 L421 241 C421 172 367 98 294 98 C215 98 178 159 178 240 L178 485 C178 495 173 500 163 500 L80 500 C70 500 65 495 65 485 L65 -235 C65 -245 70 -250 80 -250 L163 -250 C173 -250 178 -245 178 -235 L178 40 L178 40 Z " />
<glyph glyph-name="paragraph" unicode="&#xb6;" horiz-adv-x="644" d="M436 -218 C436 -227 441 -232 451 -232 L512 -232 C522 -232 527 -227 527 -218 L527 591 L595 591 C604 591 609 596 609 606 L609 667 C609 677 604 682 595 682 L232 682 C121 682 30 591 30 480 C30 369 121 278 232 278 L232 -218 C232 -227 237 -232 247 -232 L308 -232 C318 -232 323 -227 323 -218 L323 591 L436 591 L436 -218 L436 -218 Z " />
<glyph glyph-name="periodcentered" unicode="&#xb7;" horiz-adv-x="196" d="M30 327 C30 288 58 260 97 260 C136 260 166 288 166 327 C166 366 136 396 97 396 C58 396 30 366 30 327 L30 327 Z " />
<glyph glyph-name="cedilla" unicode="&#xb8;" horiz-adv-x="195" d="M26 -163 C23 -170 29 -176 37 -176 L110 -176 C119 -176 125 -172 127 -164 L154 -3 C155 5 152 9 144 9 L85 9 C76 9 74 3 71 -4 L26 -163 L26 -163 Z " />
<glyph glyph-name="onesuperior" unicode="&#xb9;" horiz-adv-x="240" d="M50 741 C45 740 42 737 43 731 L49 683 C50 679 52 677 56 677 C56 677 57 677 58 677 L98 682 L98 469 C98 463 101 460 107 460 L156 460 C162 460 165 463 165 469 L165 746 C165 752 162 755 156 755 L147 755 L50 741 L50 741 Z " />
<glyph glyph-name="ordmasculine" unicode="&#xba;" horiz-adv-x="572" d="M30 250 C30 106 141 -10 286 -10 C429 -10 542 106 542 250 C542 394 429 510 286 510 C141 510 30 394 30 250 L30 250 Z M140 250 C140 334 202 402 286 402 C369 402 431 334 431 250 C431 166 369 98 286 98 C202 98 140 166 140 250 L140 250 Z " />
<glyph glyph-name="guillemotright" unicode="&#xbb;" horiz-adv-x="526" d="M44 48 C39 41 41 34 52 34 L133 34 C141 34 148 39 154 48 L269 218 L272 224 C273 228 272 233 269 239 L154 410 C149 418 141 425 133 425 L51 425 C40 425 38 418 43 410 L166 229 L44 48 L44 48 Z M272 48 C265 41 269 34 280 34 L360 34 C369 34 376 39 382 48 L497 218 L500 224 C501 228 500 233 497 239 L382 410 C377 418 369 425 360 425 L279 425 C268 425 264 418 271 410 L394 229 L272 48 L272 48 Z " />
<glyph glyph-name="onequarter" unicode="&#xbc;" horiz-adv-x="735" d="M137 14 C130 5 136 0 147 0 L209 0 C218 0 223 6 228 14 L614 685 C621 694 615 700 604 700 L542 700 C535 700 528 695 523 685 L137 14 L137 14 Z M601 9 C601 3 604 0 609 0 L649 0 C655 0 658 3 658 9 L658 59 L682 59 C687 59 690 62 690 68 L690 105 C690 111 687 114 682 114 L658 114 L658 154 C658 160 655 163 649 163 L611 163 C605 163 602 160 602 154 L602 114 L548 114 L612 285 C615 292 613 295 606 295 L565 295 C558 295 553 292 551 285 L481 99 L481 68 C481 62 484 59 490 59 L601 59 L601 9 Z M105 528 C140 528 163 515 163 490 C163 467 150 455 123 455 C107 455 94 460 79 469 C77 471 74 471 72 471 C69 471 67 470 65 466 L42 431 C38 426 39 422 45 418 C69 403 92 393 125 393 C189 393 224 430 224 482 C224 519 201 542 169 553 C196 565 218 586 218 623 C218 667 183 700 132 700 C103 700 79 691 52 675 C47 672 45 667 48 662 L70 628 C72 626 74 623 78 623 C80 623 82 623 84 625 C95 630 109 637 125 637 C148 637 158 625 158 608 C158 584 136 574 105 574 C101 574 99 572 99 567 L99 534 C99 530 101 528 105 528 L105 528 Z " />
<glyph glyph-name="onehalf" unicode="&#xbd;" horiz-adv-x="694" d="M50 687 C45 686 42 683 43 677 L49 629 C50 625 52 623 56 623 C56 623 57 623 58 623 L98 628 L98 415 C98 409 101 406 107 406 L156 406 C162 406 165 409 165 415 L165 692 C165 698 162 701 156 701 L147 701 L50 687 L50 687 Z M546 64 C586 103 625 146 625 206 C625 262 589 300 530 300 C499 300 475 291 448 274 C442 271 441 267 445 262 L468 226 C470 223 473 221 476 221 C478 221 480 222 482 223 C495 231 508 237 523 237 C548 237 559 219 559 195 C559 151 525 119 445 28 C443 25 442 21 442 18 L442 9 C442 3 445 0 450 0 L630 0 C636 0 639 3 639 9 L639 56 C639 61 636 64 630 64 L546 64 L546 64 Z M85 14 C78 5 84 0 95 0 L157 0 C166 0 171 6 176 14 L562 685 C569 694 563 700 552 700 L490 700 C483 700 476 695 471 685 L85 14 L85 14 Z " />
<glyph glyph-name="threequarters" unicode="&#xbe;" horiz-adv-x="682" d="M50 687 C45 686 42 683 43 677 L49 629 C50 625 52 623 56 623 C56 623 57 623 58 623 L98 628 L98 415 C98 409 101 406 107 406 L156 406 C162 406 165 409 165 415 L165 692 C165 698 162 701 156 701 L147 701 L50 687 L50 687 Z M85 14 C78 5 84 0 95 0 L157 0 C166 0 171 6 176 14 L562 685 C569 694 563 700 552 700 L490 700 C483 700 476 695 471 685 L85 14 L85 14 Z M547 9 C547 3 550 0 556 0 L595 0 C601 0 604 3 604 9 L604 59 L628 59 C634 59 637 62 637 68 L637 105 C637 111 634 114 628 114 L604 114 L604 154 C604 160 601 163 595 163 L557 163 C551 163 548 160 548 154 L548 114 L494 114 L559 285 C561 292 559 295 552 295 L512 295 C505 295 500 292 497 285 L427 99 L427 68 C427 62 430 59 436 59 L547 59 L547 9 Z " />
<glyph glyph-name="questiondown" unicode="&#xbf;" horiz-adv-x="446" d="M369 141 C365 146 362 149 357 149 C354 149 351 148 348 145 C313 118 274 102 238 102 C189 102 155 132 155 176 C155 266 302 275 302 454 L302 486 C302 497 299 504 288 504 L206 504 C193 504 190 497 190 486 L190 454 C190 319 40 299 40 159 C40 60 114 -10 230 -10 C298 -10 357 16 408 52 C416 59 417 66 412 73 L369 141 L369 141 Z M315 643 C315 682 286 710 247 710 C208 710 179 682 179 643 C179 604 208 574 247 574 C286 574 315 604 315 643 L315 643 Z " />
<glyph glyph-name="Agrave" unicode="&#xc0;" horiz-adv-x="623" d="M116 0 C128 0 135 5 137 15 L184 161 L438 161 L485 16 C488 3 495 0 507 0 L596 0 C607 0 611 5 606 15 L386 685 C383 695 377 700 368 700 L254 700 C245 700 239 695 236 685 L16 15 C13 5 16 0 27 0 L116 0 L116 0 Z M211 269 L311 565 L411 269 L211 269 Z M349 774 C358 778 358 786 355 793 L283 945 C280 952 275 955 269 955 C267 955 265 955 263 954 L196 931 C187 928 185 920 190 913 L284 760 C287 755 291 752 296 752 C298 752 301 753 304 754 L349 774 L349 774 Z " />
<glyph glyph-name="Aacute" unicode="&#xc1;" horiz-adv-x="623" d="M116 0 C128 0 135 5 137 15 L184 161 L438 161 L485 16 C488 3 495 0 507 0 L596 0 C607 0 611 5 606 15 L386 685 C383 695 377 700 368 700 L254 700 C245 700 239 695 236 685 L16 15 C13 5 16 0 27 0 L116 0 L116 0 Z M211 269 L311 565 L411 269 L211 269 Z M319 754 C321 753 324 753 326 753 C331 753 336 755 339 760 L433 913 C437 920 437 928 426 931 L359 954 C357 955 354 955 352 955 C346 955 342 952 340 945 L268 793 C264 784 266 778 274 774 L319 754 L319 754 Z " />
<glyph glyph-name="Acircumflex" unicode="&#xc2;" horiz-adv-x="623" d="M116 0 C128 0 135 5 137 15 L184 161 L438 161 L485 16 C488 3 495 0 507 0 L596 0 C607 0 611 5 606 15 L386 685 C383 695 377 700 368 700 L254 700 C245 700 239 695 236 685 L16 15 C13 5 16 0 27 0 L116 0 L116 0 Z M211 269 L311 565 L411 269 L211 269 Z M285 941 C273 941 264 934 257 926 L145 804 C138 797 140 789 147 782 L172 751 C175 748 178 746 182 746 C186 746 191 749 194 752 L311 861 L427 752 C431 748 435 746 439 746 C443 746 447 748 450 751 L475 782 C482 790 483 797 476 804 L365 926 C357 934 349 941 336 941 L285 941 L285 941 Z " />
<glyph glyph-name="Atilde" unicode="&#xc3;" horiz-adv-x="623" d="M116 0 C128 0 135 5 137 15 L184 161 L438 161 L485 16 C488 3 495 0 507 0 L596 0 C607 0 611 5 606 15 L386 685 C383 695 377 700 368 700 L254 700 C245 700 239 695 236 685 L16 15 C13 5 16 0 27 0 L116 0 L116 0 Z M211 269 L311 565 L411 269 L211 269 Z M381 869 C334 869 304 929 237 929 C202 929 163 905 135 874 C129 868 127 860 130 851 L144 799 C146 794 148 790 152 790 C154 790 156 791 159 794 C183 819 211 848 242 848 C289 848 319 788 386 788 C421 788 460 812 487 843 C493 849 495 857 492 866 L479 918 C477 924 474 927 471 927 C469 927 466 926 463 923 C440 898 410 869 381 869 L381 869 Z " />
<glyph glyph-name="Adieresis" unicode="&#xc4;" horiz-adv-x="623" d="M116 0 C128 0 135 5 137 15 L184 161 L438 161 L485 16 C488 3 495 0 507 0 L596 0 C607 0 611 5 606 15 L386 685 C383 695 377 700 368 700 L254 700 C245 700 239 695 236 685 L16 15 C13 5 16 0 27 0 L116 0 L116 0 Z M211 269 L311 565 L411 269 L211 269 Z M139 838 C139 802 167 773 203 773 C240 773 269 802 269 838 C269 874 240 903 203 903 C167 903 139 874 139 838 L139 838 Z M354 838 C354 802 382 773 418 773 C455 773 484 802 484 838 C484 874 455 903 418 903 C382 903 354 874 354 838 L354 838 Z " />
<glyph glyph-name="Aring" unicode="&#xc5;" horiz-adv-x="623" d="M116 0 C128 0 135 5 137 15 L184 161 L438 161 L485 16 C488 3 495 0 507 0 L596 0 C607 0 611 5 606 15 L386 685 C383 695 377 700 368 700 L254 700 C245 700 239 695 236 685 L16 15 C13 5 16 0 27 0 L116 0 L116 0 Z M211 269 L311 565 L411 269 L211 269 Z M192 861 C192 795 246 741 311 741 C377 741 430 795 430 861 C430 926 377 980 311 980 C246 980 192 926 192 861 L192 861 Z M263 861 C263 888 284 910 311 910 C338 910 360 888 360 861 C360 834 338 812 311 812 C284 812 263 834 263 861 L263 861 Z " />
<glyph glyph-name="AE" unicode="&#xc6;" horiz-adv-x="850" d="M258 268 L399 559 L400 559 L400 268 L258 268 Z M120 0 C129 0 134 7 138 15 L211 161 L400 161 L400 15 C400 12 402 0 415 0 L795 0 C805 0 810 5 810 15 L810 97 C810 105 806 112 795 112 L521 112 L521 295 L760 295 C770 295 775 300 775 310 L775 389 C775 399 770 404 760 404 L521 404 L521 588 L794 588 C804 588 809 593 809 603 L809 685 C809 693 805 700 794 700 L359 700 C348 700 342 694 339 687 L17 15 C12 5 16 0 29 0 L120 0 L120 0 Z " />
<glyph glyph-name="Ccedilla" unicode="&#xc7;" horiz-adv-x="646" d="M292 -163 C289 -170 296 -176 304 -176 L377 -176 C386 -176 392 -172 394 -164 L420 -9 C489 -2 535 14 587 45 C595 50 596 57 591 67 L547 134 C543 140 539 142 535 142 C532 142 529 141 526 139 C487 112 436 101 393 101 C253 101 149 211 149 349 C149 487 253 598 393 598 C444 598 483 585 522 562 C526 559 530 558 533 558 C538 558 543 562 546 566 L590 635 C595 642 596 649 585 656 C534 688 468 710 393 710 C186 710 35 551 35 349 C35 176 148 23 337 -4 L292 -163 L292 -163 Z " />
<glyph glyph-name="Egrave" unicode="&#xc8;" horiz-adv-x="548" d="M95 700 C85 700 80 695 80 685 L80 15 C80 5 85 0 95 0 L493 0 C503 0 508 5 508 15 L508 97 C508 107 503 112 493 112 L194 112 L194 295 L457 295 C467 295 472 300 472 310 L472 389 C472 399 467 404 457 404 L194 404 L194 588 L492 588 C502 588 507 593 507 603 L507 685 C507 693 503 700 492 700 L95 700 L95 700 Z M339 775 C348 779 348 787 345 794 L273 946 C270 953 265 956 259 956 C257 956 255 956 253 955 L186 932 C177 929 175 921 180 914 L274 761 C277 756 281 753 286 753 C288 753 291 754 294 755 L339 775 L339 775 Z " />
<glyph glyph-name="Eacute" unicode="&#xc9;" horiz-adv-x="548" d="M95 700 C85 700 80 695 80 685 L80 15 C80 5 85 0 95 0 L493 0 C503 0 508 5 508 15 L508 97 C508 107 503 112 493 112 L194 112 L194 295 L457 295 C467 295 472 300 472 310 L472 389 C472 399 467 404 457 404 L194 404 L194 588 L492 588 C502 588 507 593 507 603 L507 685 C507 693 503 700 492 700 L95 700 L95 700 Z M292 755 C294 754 297 754 299 754 C304 754 309 756 312 761 L406 914 C410 921 410 929 399 932 L332 955 C330 956 327 956 325 956 C319 956 315 953 313 946 L241 794 C237 785 239 779 247 775 L292 755 L292 755 Z " />
<glyph glyph-name="Ecircumflex" unicode="&#xca;" horiz-adv-x="548" d="M95 700 C85 700 80 695 80 685 L80 15 C80 5 85 0 95 0 L493 0 C503 0 508 5 508 15 L508 97 C508 107 503 112 493 112 L194 112 L194 295 L457 295 C467 295 472 300 472 310 L472 389 C472 399 467 404 457 404 L194 404 L194 588 L492 588 C502 588 507 593 507 603 L507 685 C507 693 503 700 492 700 L95 700 L95 700 Z M267 942 C255 942 246 935 239 927 L127 805 C120 798 122 790 129 783 L154 752 C157 749 160 747 164 747 C168 747 173 750 176 753 L293 862 L409 753 C413 749 417 747 421 747 C425 747 429 749 432 752 L457 783 C464 791 465 798 458 805 L347 927 C339 935 331 942 318 942 L267 942 L267 942 Z " />
<glyph glyph-name="Edieresis" unicode="&#xcb;" horiz-adv-x="549" d="M96 700 C86 700 81 695 81 685 L81 15 C81 5 86 0 96 0 L494 0 C504 0 509 5 509 15 L509 97 C509 107 504 112 494 112 L195 112 L195 295 L458 295 C468 295 473 300 473 310 L473 389 C473 399 468 404 458 404 L195 404 L195 588 L493 588 C503 588 508 593 508 603 L508 685 C508 693 504 700 493 700 L96 700 L96 700 Z M117 838 C117 802 145 773 181 773 C218 773 247 802 247 838 C247 874 218 903 181 903 C145 903 117 874 117 838 L117 838 Z M332 838 C332 802 360 773 396 773 C433 773 462 802 462 838 C462 874 433 903 396 903 C360 903 332 874 332 838 L332 838 Z " />
<glyph glyph-name="Igrave" unicode="&#xcc;" horiz-adv-x="274" d="M179 0 C189 0 194 5 194 15 L194 685 C194 695 189 700 179 700 L95 700 C85 700 80 695 80 685 L80 15 C80 5 85 0 95 0 L179 0 L179 0 Z M169 775 C178 779 178 787 175 794 L103 946 C100 953 95 956 89 956 C87 956 85 956 83 955 L16 932 C7 929 5 921 10 914 L104 761 C107 756 111 753 116 753 C118 753 121 754 124 755 L169 775 L169 775 Z " />
<glyph glyph-name="Iacute" unicode="&#xcd;" horiz-adv-x="283" d="M184 0 C194 0 199 5 199 15 L199 685 C199 695 194 700 184 700 L100 700 C90 700 85 695 85 685 L85 15 C85 5 90 0 100 0 L184 0 L184 0 Z M157 756 C159 755 162 755 164 755 C169 755 174 757 177 762 L271 915 C275 922 275 930 264 933 L197 956 C195 957 192 957 190 957 C184 957 180 954 178 947 L106 795 C102 786 104 780 112 776 L157 756 L157 756 Z " />
<glyph glyph-name="Icircumflex" unicode="&#xce;" horiz-adv-x="274" d="M179 0 C189 0 194 5 194 15 L194 685 C194 695 189 700 179 700 L95 700 C85 700 80 695 80 685 L80 15 C80 5 85 0 95 0 L179 0 L179 0 Z M111 942 C99 942 90 935 83 927 L-29 805 C-36 798 -34 790 -27 783 L-2 752 C1 749 4 747 8 747 C12 747 17 750 20 753 L137 862 L253 753 C257 749 261 747 265 747 C269 747 273 749 276 752 L301 783 C308 791 309 798 302 805 L191 927 C183 935 175 942 162 942 L111 942 L111 942 Z " />
<glyph glyph-name="Idieresis" unicode="&#xcf;" horiz-adv-x="274" d="M179 0 C189 0 194 5 194 15 L194 685 C194 695 189 700 179 700 L95 700 C85 700 80 695 80 685 L80 15 C80 5 85 0 95 0 L179 0 L179 0 Z M-36 838 C-36 802 -8 773 28 773 C65 773 94 802 94 838 C94 874 65 903 28 903 C-8 903 -36 874 -36 838 L-36 838 Z M179 838 C179 802 207 773 243 773 C280 773 309 802 309 838 C309 874 280 903 243 903 C207 903 179 874 179 838 L179 838 Z " />
<glyph glyph-name="Eth" unicode="&#xd0;" horiz-adv-x="725" d="M80 15 C80 5 85 0 94 0 L338 0 C538 0 690 157 690 349 C690 545 538 700 338 700 L94 700 C85 700 80 695 80 685 L80 395 L26 395 C16 395 11 390 11 379 L11 323 C11 313 16 308 26 308 L80 308 L80 15 Z M194 588 L333 588 C467 588 576 488 576 348 C576 215 467 112 333 112 L194 112 L194 308 L291 308 C301 308 306 313 306 323 L306 380 C306 390 301 395 291 395 L194 395 L194 588 Z " />
<glyph glyph-name="Ntilde" unicode="&#xd1;" horiz-adv-x="742" d="M647 0 C657 0 662 5 662 15 L662 685 C662 695 657 700 647 700 L562 700 C552 700 547 695 547 685 L547 200 L206 685 C199 694 193 700 180 700 L95 700 C85 700 80 695 80 685 L80 15 C80 5 85 0 95 0 L179 0 C189 0 194 5 194 15 L194 500 L536 15 C543 4 548 0 561 0 L647 0 Z M437 869 C390 869 360 929 293 929 C258 929 219 905 191 874 C185 868 183 860 186 851 L200 799 C202 794 204 790 208 790 C210 790 212 791 215 794 C239 819 267 848 298 848 C345 848 375 788 442 788 C477 788 516 812 543 843 C549 849 551 857 548 866 L535 918 C533 924 530 927 527 927 C525 927 522 926 519 923 C496 898 466 869 437 869 L437 869 Z " />
<glyph glyph-name="Ograve" unicode="&#xd2;" horiz-adv-x="787" d="M393 710 C190 710 35 551 35 349 C35 146 190 -10 393 -10 C596 -10 752 149 752 349 C752 551 596 710 393 710 L393 710 Z M393 101 C253 101 149 211 149 349 C149 487 253 598 393 598 C533 598 637 487 637 349 C637 211 532 101 393 101 L393 101 Z M422 775 C431 779 431 787 428 794 L356 946 C353 953 348 956 342 956 C340 956 338 956 336 955 L269 932 C260 929 258 921 263 914 L357 761 C360 756 364 753 369 753 C371 753 374 754 377 755 L422 775 L422 775 Z " />
<glyph glyph-name="Oacute" unicode="&#xd3;" horiz-adv-x="787" d="M393 710 C190 710 35 551 35 349 C35 146 190 -10 393 -10 C596 -10 752 149 752 349 C752 551 596 710 393 710 L393 710 Z M393 101 C253 101 149 211 149 349 C149 487 253 598 393 598 C533 598 637 487 637 349 C637 211 532 101 393 101 L393 101 Z M412 755 C414 754 417 754 419 754 C424 754 429 756 432 761 L526 914 C530 921 530 929 519 932 L452 955 C450 956 447 956 445 956 C439 956 435 953 433 946 L361 794 C357 785 359 779 367 775 L412 755 L412 755 Z " />
<glyph glyph-name="Ocircumflex" unicode="&#xd4;" horiz-adv-x="787" d="M393 710 C190 710 35 551 35 349 C35 146 190 -10 393 -10 C596 -10 752 149 752 349 C752 551 596 710 393 710 L393 710 Z M393 101 C253 101 149 211 149 349 C149 487 253 598 393 598 C533 598 637 487 637 349 C637 211 532 101 393 101 L393 101 Z M367 942 C355 942 346 935 339 927 L227 805 C220 798 222 790 229 783 L254 752 C257 749 260 747 264 747 C268 747 273 750 276 753 L393 862 L509 753 C513 749 517 747 521 747 C525 747 529 749 532 752 L557 783 C564 791 565 798 558 805 L447 927 C439 935 431 942 418 942 L367 942 L367 942 Z " />
<glyph glyph-name="Otilde" unicode="&#xd5;" horiz-adv-x="787" d="M393 710 C190 710 35 551 35 349 C35 146 190 -10 393 -10 C596 -10 752 149 752 349 C752 551 596 710 393 710 L393 710 Z M393 101 C253 101 149 211 149 349 C149 487 253 598 393 598 C533 598 637 487 637 349 C637 211 532 101 393 101 L393 101 Z M463 869 C416 869 386 929 319 929 C284 929 245 905 217 874 C211 868 209 860 212 851 L226 799 C228 794 230 790 234 790 C236 790 238 791 241 794 C265 819 293 848 324 848 C371 848 401 788 468 788 C503 788 542 812 569 843 C575 849 577 857 574 866 L561 918 C559 924 556 927 553 927 C551 927 548 926 545 923 C522 898 492 869 463 869 L463 869 Z " />
<glyph glyph-name="Odieresis" unicode="&#xd6;" horiz-adv-x="787" d="M393 710 C190 710 35 551 35 349 C35 146 190 -10 393 -10 C596 -10 752 149 752 349 C752 551 596 710 393 710 L393 710 Z M393 101 C253 101 149 211 149 349 C149 487 253 598 393 598 C533 598 637 487 637 349 C637 211 532 101 393 101 L393 101 Z M221 838 C221 802 249 773 285 773 C322 773 351 802 351 838 C351 874 322 903 285 903 C249 903 221 874 221 838 L221 838 Z M436 838 C436 802 464 773 500 773 C537 773 566 802 566 838 C566 874 537 903 500 903 C464 903 436 874 436 838 L436 838 Z " />
<glyph glyph-name="multiply" unicode="&#xd7;" horiz-adv-x="449" d="M408 403 C415 410 415 417 407 424 L359 473 C356 477 352 478 349 478 C345 478 342 477 338 473 L224 360 L112 472 C109 476 105 477 102 477 C98 477 95 476 91 472 L42 424 C35 417 35 410 42 403 L155 290 L40 175 C33 168 34 162 41 155 L89 106 C93 103 96 101 100 101 C103 101 107 103 110 106 L224 220 L339 106 C343 103 346 101 350 101 C353 101 357 103 360 106 L408 155 C415 162 416 168 409 175 L294 290 L408 403 Z " />
<glyph glyph-name="Oslash" unicode="&#xd8;" horiz-adv-x="785" d="M240 156 C180 204 149 265 149 349 C149 487 260 598 392 598 C432 598 472 588 507 569 L240 156 Z M664 726 C668 733 664 737 653 737 L626 737 C619 737 613 733 609 726 L569 664 C517 692 456 710 392 710 C192 710 35 547 35 349 C35 233 81 137 178 60 L127 -20 C122 -27 129 -30 137 -30 L166 -30 C172 -30 177 -27 182 -20 L217 35 C268 7 328 -10 392 -10 C595 -10 750 153 750 349 C750 472 697 570 608 639 L664 726 L664 726 Z M545 542 C601 499 637 430 637 349 C637 214 528 101 392 101 C353 101 311 111 278 130 L545 542 Z " />
<glyph glyph-name="Ugrave" unicode="&#xd9;" horiz-adv-x="692" d="M87 700 C77 700 72 695 72 685 L72 269 C72 112 173 -10 346 -10 C517 -10 619 112 619 269 L619 685 C619 695 614 700 604 700 L520 700 C510 700 505 695 505 685 L505 289 C505 173 450 101 346 101 C242 101 187 173 187 289 L187 685 C187 695 182 700 172 700 L87 700 L87 700 Z M370 775 C379 779 379 787 376 794 L304 946 C301 953 296 956 290 956 C288 956 286 956 284 955 L217 932 C208 929 206 921 211 914 L305 761 C308 756 312 753 317 753 C319 753 322 754 325 755 L370 775 L370 775 Z " />
<glyph glyph-name="Uacute" unicode="&#xda;" horiz-adv-x="692" d="M87 700 C77 700 72 695 72 685 L72 269 C72 112 173 -10 346 -10 C517 -10 619 112 619 269 L619 685 C619 695 614 700 604 700 L520 700 C510 700 505 695 505 685 L505 289 C505 173 450 101 346 101 C242 101 187 173 187 289 L187 685 C187 695 182 700 172 700 L87 700 L87 700 Z M350 755 C352 754 355 754 357 754 C362 754 367 756 370 761 L464 914 C468 921 468 929 457 932 L390 955 C388 956 385 956 383 956 C377 956 373 953 371 946 L299 794 C295 785 297 779 305 775 L350 755 L350 755 Z " />
<glyph glyph-name="Ucircumflex" unicode="&#xdb;" horiz-adv-x="692" d="M87 700 C77 700 72 695 72 685 L72 269 C72 112 173 -10 346 -10 C517 -10 619 112 619 269 L619 685 C619 695 614 700 604 700 L520 700 C510 700 505 695 505 685 L505 289 C505 173 450 101 346 101 C242 101 187 173 187 289 L187 685 C187 695 182 700 172 700 L87 700 L87 700 Z M320 942 C308 942 299 935 292 927 L180 805 C173 798 175 790 182 783 L207 752 C210 749 213 747 217 747 C221 747 226 750 229 753 L346 862 L462 753 C466 749 470 747 474 747 C478 747 482 749 485 752 L510 783 C517 791 518 798 511 805 L400 927 C392 935 384 942 371 942 L320 942 L320 942 Z " />
<glyph glyph-name="Udieresis" unicode="&#xdc;" horiz-adv-x="692" d="M87 700 C77 700 72 695 72 685 L72 269 C72 112 173 -10 346 -10 C517 -10 619 112 619 269 L619 685 C619 695 614 700 604 700 L520 700 C510 700 505 695 505 685 L505 289 C505 173 450 101 346 101 C242 101 187 173 187 289 L187 685 C187 695 182 700 172 700 L87 700 L87 700 Z M173 838 C173 802 201 773 237 773 C274 773 303 802 303 838 C303 874 274 903 237 903 C201 903 173 874 173 838 L173 838 Z M388 838 C388 802 416 773 452 773 C489 773 518 802 518 838 C518 874 489 903 452 903 C416 903 388 874 388 838 L388 838 Z " />
<glyph glyph-name="Yacute" unicode="&#xdd;" horiz-adv-x="596" d="M142 691 C139 697 133 700 125 700 L26 700 C18 700 16 692 20 685 L241 341 L241 15 C241 5 246 0 256 0 L341 0 C351 0 356 5 356 15 L356 341 L576 685 C580 692 578 700 570 700 L472 700 C465 700 459 697 455 691 L298 441 L142 691 L142 691 Z M308 754 C310 753 313 753 315 753 C320 753 325 755 328 760 L422 913 C426 920 426 928 415 931 L348 954 C346 955 343 955 341 955 C335 955 331 952 329 945 L257 793 C253 784 255 778 263 774 L308 754 L308 754 Z " />
<glyph glyph-name="Thorn" unicode="&#xde;" horiz-adv-x="578" d="M194 497 L301 497 C385 497 439 452 439 372 C439 293 385 243 301 243 L194 243 L194 497 Z M80 15 C80 5 85 0 94 0 L180 0 C189 0 194 5 194 15 L194 139 L325 139 C458 139 553 248 553 372 C553 500 464 602 325 602 L194 602 L194 735 C194 745 189 750 180 750 L94 750 C85 750 80 745 80 735 L80 15 L80 15 Z " />
<glyph glyph-name="germandbls" unicode="&#xdf;" horiz-adv-x="591" d="M242 2 C264 -2 285 -3 305 -3 C441 -3 551 73 551 216 C551 305 490 381 403 410 C475 437 502 503 502 565 C502 678 406 750 297 750 C160 750 80 657 80 530 L80 13 C80 4 84 0 92 0 L183 0 C192 0 196 4 196 13 L196 530 C196 588 225 639 289 639 C350 639 387 602 387 554 C387 490 335 461 263 461 C254 461 250 457 250 449 L250 361 C250 351 254 346 261 346 C346 341 436 302 436 221 C436 145 375 111 301 111 C282 111 263 113 244 117 C234 117 230 115 230 104 L230 18 C230 8 234 3 242 2 L242 2 Z " />
<glyph glyph-name="agrave" unicode="&#xe0;" horiz-adv-x="620" d="M150 250 C150 334 212 402 296 402 C379 402 441 334 441 250 C441 166 379 98 296 98 C212 98 150 166 150 250 L150 250 Z M537 0 C547 0 552 5 552 15 L552 485 C552 495 547 500 537 500 L454 500 C444 500 439 495 439 485 L439 415 C402 468 347 510 267 510 C131 510 37 393 37 250 C37 107 131 -10 267 -10 C348 -10 404 35 439 84 L439 15 C439 5 444 0 454 0 L537 0 L537 0 Z M343 572 C352 576 352 584 349 591 L277 743 C274 750 269 753 263 753 C261 753 259 753 257 752 L190 729 C181 726 179 718 184 711 L278 558 C281 553 285 550 290 550 C292 550 295 551 298 552 L343 572 L343 572 Z " />
<glyph glyph-name="aacute" unicode="&#xe1;" horiz-adv-x="620" d="M150 250 C150 334 212 402 296 402 C379 402 441 334 441 250 C441 166 379 98 296 98 C212 98 150 166 150 250 L150 250 Z M537 0 C547 0 552 5 552 15 L552 485 C552 495 547 500 537 500 L454 500 C444 500 439 495 439 485 L439 415 C402 468 347 510 267 510 C131 510 37 393 37 250 C37 107 131 -10 267 -10 C348 -10 404 35 439 84 L439 15 C439 5 444 0 454 0 L537 0 L537 0 Z M303 552 C305 551 308 551 310 551 C315 551 320 553 323 558 L417 711 C421 718 421 726 410 729 L343 752 C341 753 338 753 336 753 C330 753 326 750 324 743 L252 591 C248 582 250 576 258 572 L303 552 L303 552 Z " />
<glyph glyph-name="acircumflex" unicode="&#xe2;" horiz-adv-x="620" d="M150 250 C150 334 212 402 296 402 C379 402 441 334 441 250 C441 166 379 98 296 98 C212 98 150 166 150 250 L150 250 Z M537 0 C547 0 552 5 552 15 L552 485 C552 495 547 500 537 500 L454 500 C444 500 439 495 439 485 L439 415 C402 468 347 510 267 510 C131 510 37 393 37 250 C37 107 131 -10 267 -10 C348 -10 404 35 439 84 L439 15 C439 5 444 0 454 0 L537 0 L537 0 Z M277 746 C265 746 256 739 249 731 L137 609 C130 602 132 594 139 587 L164 556 C167 553 170 551 174 551 C178 551 183 554 186 557 L303 666 L419 557 C423 553 427 551 431 551 C435 551 439 553 442 556 L467 587 C474 595 475 602 468 609 L357 731 C349 739 341 746 328 746 L277 746 L277 746 Z " />
<glyph glyph-name="atilde" unicode="&#xe3;" horiz-adv-x="620" d="M150 250 C150 334 212 402 296 402 C379 402 441 334 441 250 C441 166 379 98 296 98 C212 98 150 166 150 250 L150 250 Z M537 0 C547 0 552 5 552 15 L552 485 C552 495 547 500 537 500 L454 500 C444 500 439 495 439 485 L439 415 C402 468 347 510 267 510 C131 510 37 393 37 250 C37 107 131 -10 267 -10 C348 -10 404 35 439 84 L439 15 C439 5 444 0 454 0 L537 0 L537 0 Z M369 677 C322 677 292 737 225 737 C190 737 151 713 123 682 C117 676 115 668 118 659 L132 607 C134 602 136 598 140 598 C142 598 144 599 147 602 C171 627 199 656 230 656 C277 656 307 596 374 596 C409 596 448 620 475 651 C481 657 483 665 480 674 L467 726 C465 732 462 735 459 735 C457 735 454 734 451 731 C428 706 398 677 369 677 L369 677 Z " />
<glyph glyph-name="adieresis" unicode="&#xe4;" horiz-adv-x="620" d="M150 250 C150 334 212 402 296 402 C379 402 441 334 441 250 C441 166 379 98 296 98 C212 98 150 166 150 250 L150 250 Z M537 0 C547 0 552 5 552 15 L552 485 C552 495 547 500 537 500 L454 500 C444 500 439 495 439 485 L439 415 C402 468 347 510 267 510 C131 510 37 393 37 250 C37 107 131 -10 267 -10 C348 -10 404 35 439 84 L439 15 C439 5 444 0 454 0 L537 0 L537 0 Z M129 644 C129 608 157 579 193 579 C230 579 259 608 259 644 C259 680 230 709 193 709 C157 709 129 680 129 644 L129 644 Z M344 644 C344 608 372 579 408 579 C445 579 474 608 474 644 C474 680 445 709 408 709 C372 709 344 680 344 644 L344 644 Z " />
<glyph glyph-name="aring" unicode="&#xe5;" horiz-adv-x="620" d="M150 250 C150 334 212 402 296 402 C379 402 441 334 441 250 C441 166 379 98 296 98 C212 98 150 166 150 250 L150 250 Z M537 0 C547 0 552 5 552 15 L552 485 C552 495 547 500 537 500 L454 500 C444 500 439 495 439 485 L439 415 C402 468 347 510 267 510 C131 510 37 393 37 250 C37 107 131 -10 267 -10 C348 -10 404 35 439 84 L439 15 C439 5 444 0 454 0 L537 0 L537 0 Z M181 670 C181 604 235 550 300 550 C366 550 419 604 419 670 C419 735 366 789 300 789 C235 789 181 735 181 670 L181 670 Z M252 670 C252 697 273 719 300 719 C327 719 349 697 349 670 C349 643 327 621 300 621 C273 621 252 643 252 670 L252 670 Z " />
<glyph glyph-name="ae" unicode="&#xe6;" horiz-adv-x="953" d="M517 294 C530 369 578 421 653 421 C730 421 777 370 790 294 L517 294 Z M450 119 C484 50 566 -10 666 -10 C733 -10 786 4 850 41 C857 44 862 52 855 61 L817 114 C814 119 810 121 806 121 C803 121 800 120 796 118 C751 94 718 86 669 86 C596 86 535 128 516 211 L881 211 C894 211 899 218 899 229 C899 372 811 510 653 510 C554 510 487 456 450 384 C411 460 351 509 255 509 C187 509 136 497 76 470 C68 466 66 459 69 449 L89 400 C93 393 97 389 103 389 C105 389 107 390 110 391 C158 411 200 421 247 421 C330 421 380 357 391 288 C344 317 297 329 246 329 C124 329 40 269 43 165 C43 80 113 -8 241 -8 C347 -8 418 52 450 119 L450 119 Z M391 216 C379 143 334 87 251 87 C187 87 146 124 146 175 C146 231 193 258 260 258 C313 258 350 247 391 216 L391 216 Z " />
<glyph glyph-name="ccedilla" unicode="&#xe7;" horiz-adv-x="483" d="M196 -163 C193 -170 200 -176 208 -176 L281 -176 C290 -176 296 -172 298 -164 L324 -7 C369 0 403 14 434 34 C443 39 444 46 439 55 L393 119 C390 123 387 125 383 125 C380 125 377 124 373 122 C348 107 319 98 286 98 C202 98 140 166 140 250 C140 334 202 402 286 402 C303 402 335 399 371 376 C375 374 378 373 381 373 C385 373 389 375 392 380 L438 443 C443 450 441 460 433 465 C398 488 349 510 286 510 C141 510 30 394 30 250 C30 133 106 19 241 -5 L196 -163 L196 -163 Z " />
<glyph glyph-name="egrave" unicode="&#xe8;" horiz-adv-x="549" d="M315 572 C324 576 324 584 321 591 L249 743 C246 750 241 753 235 753 C233 753 231 753 229 752 L162 729 C153 726 151 718 156 711 L250 558 C253 553 257 550 262 550 C264 550 267 551 270 552 L315 572 L315 572 Z M289 86 C207 86 150 143 137 211 L502 211 C514 211 519 218 519 229 C519 382 429 510 273 510 C125 510 30 386 30 250 C30 107 144 -10 286 -10 C362 -10 422 10 471 41 C479 46 480 52 475 61 L438 114 C435 118 431 121 426 121 C423 121 419 120 416 118 C377 97 341 86 289 86 L289 86 Z M138 294 C151 371 201 421 273 421 C350 421 395 370 411 294 L138 294 Z " />
<glyph glyph-name="eacute" unicode="&#xe9;" horiz-adv-x="549" d="M289 86 C207 86 150 143 137 211 L502 211 C514 211 519 218 519 229 C519 382 429 510 273 510 C125 510 30 386 30 250 C30 107 144 -10 286 -10 C362 -10 422 10 471 41 C479 46 480 52 475 61 L438 114 C435 118 431 121 426 121 C423 121 419 120 416 118 C377 97 341 86 289 86 L289 86 Z M138 294 C151 371 201 421 273 421 C350 421 395 370 411 294 L138 294 Z M290 552 C292 551 295 551 297 551 C302 551 307 553 310 558 L404 711 C408 718 408 726 397 729 L330 752 C328 753 325 753 323 753 C317 753 313 750 311 743 L239 591 C235 582 237 576 245 572 L290 552 L290 552 Z " />
<glyph glyph-name="ecircumflex" unicode="&#xea;" horiz-adv-x="549" d="M254 746 C242 746 233 739 226 731 L114 609 C107 602 109 594 116 587 L141 556 C144 553 147 551 151 551 C155 551 160 554 163 557 L280 666 L396 557 C400 553 404 551 408 551 C412 551 416 553 419 556 L444 587 C451 595 452 602 445 609 L334 731 C326 739 318 746 305 746 L254 746 L254 746 Z M289 86 C207 86 150 143 137 211 L502 211 C514 211 519 218 519 229 C519 382 429 510 273 510 C125 510 30 386 30 250 C30 107 144 -10 286 -10 C362 -10 422 10 471 41 C479 46 480 52 475 61 L438 114 C435 118 431 121 426 121 C423 121 419 120 416 118 C377 97 341 86 289 86 L289 86 Z M138 294 C151 371 201 421 273 421 C350 421 395 370 411 294 L138 294 Z " />
<glyph glyph-name="edieresis" unicode="&#xeb;" horiz-adv-x="549" d="M103 643 C103 607 131 578 167 578 C204 578 233 607 233 643 C233 679 204 708 167 708 C131 708 103 679 103 643 L103 643 Z M318 643 C318 607 346 578 382 578 C419 578 448 607 448 643 C448 679 419 708 382 708 C346 708 318 679 318 643 L318 643 Z M289 86 C207 86 150 143 137 211 L502 211 C514 211 519 218 519 229 C519 382 429 510 273 510 C125 510 30 386 30 250 C30 107 144 -10 286 -10 C362 -10 422 10 471 41 C479 46 480 52 475 61 L438 114 C435 118 431 121 426 121 C423 121 419 120 416 118 C377 97 341 86 289 86 L289 86 Z M138 294 C151 371 201 421 273 421 C350 421 395 370 411 294 L138 294 Z " />
<glyph glyph-name="igrave" unicode="&#xec;" horiz-adv-x="274" d="M178 0 C188 0 193 5 193 15 L193 485 C193 495 188 500 178 500 L95 500 C85 500 80 495 80 485 L80 15 C80 5 85 0 95 0 L178 0 L178 0 Z M167 572 C176 576 176 584 173 591 L101 743 C98 750 93 753 87 753 C85 753 83 753 81 752 L14 729 C5 726 3 718 8 711 L102 558 C105 553 109 550 114 550 C116 550 119 551 122 552 L167 572 L167 572 Z " />
<glyph glyph-name="iacute" unicode="&#xed;" horiz-adv-x="275" d="M178 0 C188 0 193 5 193 15 L193 485 C193 495 188 500 178 500 L95 500 C85 500 80 495 80 485 L80 15 C80 5 85 0 95 0 L178 0 L178 0 Z M153 552 C155 551 158 551 160 551 C165 551 170 553 173 558 L267 711 C271 718 271 726 260 729 L193 752 C191 753 188 753 186 753 C180 753 176 750 174 743 L102 591 C98 582 100 576 108 572 L153 552 L153 552 Z " />
<glyph glyph-name="icircumflex" unicode="&#xee;" horiz-adv-x="273" d="M110 746 C98 746 89 739 82 731 L-30 609 C-37 602 -35 594 -28 587 L-3 556 C0 553 3 551 7 551 C11 551 16 554 19 557 L136 666 L252 557 C256 553 260 551 264 551 C268 551 272 553 275 556 L300 587 C307 595 308 602 301 609 L190 731 C182 739 174 746 161 746 L110 746 L110 746 Z M178 0 C188 0 193 5 193 15 L193 485 C193 495 188 500 178 500 L95 500 C85 500 80 495 80 485 L80 15 C80 5 85 0 95 0 L178 0 L178 0 Z " />
<glyph glyph-name="idieresis" unicode="&#xef;" horiz-adv-x="273" d="M-36 643 C-36 607 -8 578 28 578 C65 578 94 607 94 643 C94 679 65 708 28 708 C-8 708 -36 679 -36 643 L-36 643 Z M179 643 C179 607 207 578 243 578 C280 578 309 607 309 643 C309 679 280 708 243 708 C207 708 179 679 179 643 L179 643 Z M178 0 C188 0 193 5 193 15 L193 485 C193 495 188 500 178 500 L95 500 C85 500 80 495 80 485 L80 15 C80 5 85 0 95 0 L178 0 L178 0 Z " />
<glyph glyph-name="eth" unicode="&#xf0;" horiz-adv-x="612" d="M349 497 C332 503 316 505 300 505 C158 505 50 392 50 250 C50 106 161 -10 306 -10 C449 -10 562 106 562 250 C562 287 554 322 541 354 L425 594 L567 620 C576 622 580 628 578 638 L570 679 C569 690 564 692 554 692 L392 662 L354 739 C351 746 344 750 333 750 L244 750 C233 750 229 745 233 736 L279 641 L140 615 C131 614 127 608 129 597 L137 556 C138 545 143 544 153 544 L312 573 L349 497 Z M439 311 C447 293 451 273 451 250 C451 166 389 98 306 98 C222 98 160 166 160 250 C160 334 222 402 306 402 C367 402 418 366 439 311 L439 311 Z " />
<glyph glyph-name="ntilde" unicode="&#xf1;" horiz-adv-x="609" d="M529 0 C539 0 544 5 544 15 L544 280 C544 424 480 510 352 510 C271 510 215 456 188 411 L188 485 C188 495 183 500 173 500 L90 500 C80 500 75 495 75 485 L75 15 C75 5 80 0 90 0 L173 0 C183 0 188 5 188 15 L188 265 C188 334 242 402 315 402 C395 402 431 343 431 259 L431 15 C431 5 436 0 446 0 L529 0 L529 0 Z M374 677 C327 677 297 737 230 737 C195 737 156 713 128 682 C122 676 120 668 123 659 L137 607 C139 602 141 598 145 598 C147 598 149 599 152 602 C176 627 204 656 235 656 C282 656 312 596 379 596 C414 596 453 620 480 651 C486 657 488 665 485 674 L472 726 C470 732 467 735 464 735 C462 735 459 734 456 731 C433 706 403 677 374 677 L374 677 Z " />
<glyph glyph-name="ograve" unicode="&#xf2;" horiz-adv-x="572" d="M30 250 C30 106 141 -10 286 -10 C429 -10 542 106 542 250 C542 394 429 510 286 510 C141 510 30 394 30 250 L30 250 Z M140 250 C140 334 202 402 286 402 C369 402 431 334 431 250 C431 166 369 98 286 98 C202 98 140 166 140 250 L140 250 Z M314 572 C323 576 323 584 320 591 L248 743 C245 750 240 753 234 753 C232 753 230 753 228 752 L161 729 C152 726 150 718 155 711 L249 558 C252 553 256 550 261 550 C263 550 266 551 269 552 L314 572 L314 572 Z " />
<glyph glyph-name="oacute" unicode="&#xf3;" horiz-adv-x="572" d="M30 250 C30 106 141 -10 286 -10 C429 -10 542 106 542 250 C542 394 429 510 286 510 C141 510 30 394 30 250 L30 250 Z M140 250 C140 334 202 402 286 402 C369 402 431 334 431 250 C431 166 369 98 286 98 C202 98 140 166 140 250 L140 250 Z M301 552 C303 551 306 551 308 551 C313 551 318 553 321 558 L415 711 C419 718 419 726 408 729 L341 752 C339 753 336 753 334 753 C328 753 324 750 322 743 L250 591 C246 582 248 576 256 572 L301 552 L301 552 Z " />
<glyph glyph-name="ocircumflex" unicode="&#xf4;" horiz-adv-x="572" d="M30 250 C30 106 141 -10 286 -10 C429 -10 542 106 542 250 C542 394 429 510 286 510 C141 510 30 394 30 250 L30 250 Z M140 250 C140 334 202 402 286 402 C369 402 431 334 431 250 C431 166 369 98 286 98 C202 98 140 166 140 250 L140 250 Z M260 746 C248 746 239 739 232 731 L120 609 C113 602 115 594 122 587 L147 556 C150 553 153 551 157 551 C161 551 166 554 169 557 L286 666 L402 557 C406 553 410 551 414 551 C418 551 422 553 425 556 L450 587 C457 595 458 602 451 609 L340 731 C332 739 324 746 311 746 L260 746 L260 746 Z " />
<glyph glyph-name="otilde" unicode="&#xf5;" horiz-adv-x="572" d="M30 250 C30 106 141 -10 286 -10 C429 -10 542 106 542 250 C542 394 429 510 286 510 C141 510 30 394 30 250 L30 250 Z M140 250 C140 334 202 402 286 402 C369 402 431 334 431 250 C431 166 369 98 286 98 C202 98 140 166 140 250 L140 250 Z M356 677 C309 677 279 737 212 737 C177 737 138 713 110 682 C104 676 102 668 105 659 L119 607 C121 602 123 598 127 598 C129 598 131 599 134 602 C158 627 186 656 217 656 C264 656 294 596 361 596 C396 596 435 620 462 651 C468 657 470 665 467 674 L454 726 C452 732 449 735 446 735 C444 735 441 734 438 731 C415 706 385 677 356 677 L356 677 Z " />
<glyph glyph-name="odieresis" unicode="&#xf6;" horiz-adv-x="572" d="M30 250 C30 106 141 -10 286 -10 C429 -10 542 106 542 250 C542 394 429 510 286 510 C141 510 30 394 30 250 L30 250 Z M140 250 C140 334 202 402 286 402 C369 402 431 334 431 250 C431 166 369 98 286 98 C202 98 140 166 140 250 L140 250 Z M113 643 C113 607 141 578 177 578 C214 578 243 607 243 643 C243 679 214 708 177 708 C141 708 113 679 113 643 L113 643 Z M328 643 C328 607 356 578 392 578 C429 578 458 607 458 643 C458 679 429 708 392 708 C356 708 328 679 328 643 L328 643 Z " />
<glyph glyph-name="divide" unicode="&#xf7;" horiz-adv-x="516" d="M54 344 C45 344 40 339 40 329 L40 268 C40 258 45 253 54 253 L462 253 C471 253 476 258 476 268 L476 329 C476 339 471 344 462 344 L54 344 L54 344 Z M195 477 C195 442 223 414 258 414 C294 414 322 442 322 477 C322 513 294 541 258 541 C223 541 195 513 195 477 L195 477 Z M195 122 C195 87 223 59 258 59 C294 59 322 87 322 122 C322 158 294 186 258 186 C223 186 195 158 195 122 L195 122 Z " />
<glyph glyph-name="oslash" unicode="&#xf8;" horiz-adv-x="572" d="M492 523 C496 530 492 535 481 535 L455 535 C448 535 442 531 437 523 L408 479 C369 500 325 510 286 510 C141 510 30 394 30 250 C30 170 62 97 127 44 L80 -27 C75 -35 82 -39 90 -39 L120 -39 C125 -39 131 -35 136 -27 L167 19 C204 0 243 -10 286 -10 C429 -10 542 106 542 250 C542 326 510 402 447 453 L492 523 L492 523 Z M385 357 C416 330 431 290 431 250 C431 166 369 98 286 98 C265 98 245 103 227 113 L385 357 Z M188 138 C157 167 140 205 140 250 C140 334 202 402 286 402 C309 402 333 395 348 386 L188 138 Z " />
<glyph glyph-name="ugrave" unicode="&#xf9;" horiz-adv-x="609" d="M80 500 C70 500 65 495 65 485 L65 219 C65 76 128 -10 256 -10 C338 -10 392 43 421 88 L421 15 C421 5 426 0 436 0 L519 0 C529 0 534 5 534 15 L534 485 C534 495 529 500 519 500 L436 500 C426 500 421 495 421 485 L421 234 C421 166 367 98 294 98 C213 98 178 156 178 240 L178 485 C178 495 173 500 163 500 L80 500 L80 500 Z M336 572 C345 576 345 584 342 591 L270 743 C267 750 262 753 256 753 C254 753 252 753 250 752 L183 729 C174 726 172 718 177 711 L271 558 C274 553 278 550 283 550 C285 550 288 551 291 552 L336 572 L336 572 Z " />
<glyph glyph-name="uacute" unicode="&#xfa;" horiz-adv-x="609" d="M80 500 C70 500 65 495 65 485 L65 219 C65 76 128 -10 256 -10 C338 -10 392 43 421 88 L421 15 C421 5 426 0 436 0 L519 0 C529 0 534 5 534 15 L534 485 C534 495 529 500 519 500 L436 500 C426 500 421 495 421 485 L421 234 C421 166 367 98 294 98 C213 98 178 156 178 240 L178 485 C178 495 173 500 163 500 L80 500 L80 500 Z M307 552 C309 551 312 551 314 551 C319 551 324 553 327 558 L421 711 C425 718 425 726 414 729 L347 752 C345 753 342 753 340 753 C334 753 330 750 328 743 L256 591 C252 582 254 576 262 572 L307 552 L307 552 Z " />
<glyph glyph-name="ucircumflex" unicode="&#xfb;" horiz-adv-x="609" d="M80 500 C70 500 65 495 65 485 L65 219 C65 76 128 -10 256 -10 C338 -10 392 43 421 88 L421 15 C421 5 426 0 436 0 L519 0 C529 0 534 5 534 15 L534 485 C534 495 529 500 519 500 L436 500 C426 500 421 495 421 485 L421 234 C421 166 367 98 294 98 C213 98 178 156 178 240 L178 485 C178 495 173 500 163 500 L80 500 L80 500 Z M275 746 C263 746 254 739 247 731 L135 609 C128 602 130 594 137 587 L162 556 C165 553 168 551 172 551 C176 551 181 554 184 557 L301 666 L417 557 C421 553 425 551 429 551 C433 551 437 553 440 556 L465 587 C472 595 473 602 466 609 L355 731 C347 739 339 746 326 746 L275 746 L275 746 Z " />
<glyph glyph-name="udieresis" unicode="&#xfc;" horiz-adv-x="609" d="M80 494 C70 494 65 489 65 479 L65 213 C65 70 128 -16 256 -16 C338 -16 392 37 421 82 L421 9 C421 -1 426 -6 436 -6 L519 -6 C529 -6 534 -1 534 9 L534 479 C534 489 529 494 519 494 L436 494 C426 494 421 489 421 479 L421 228 C421 160 367 92 294 92 C213 92 178 150 178 234 L178 479 C178 489 173 494 163 494 L80 494 L80 494 Z M129 643 C129 607 157 578 193 578 C230 578 259 607 259 643 C259 679 230 708 193 708 C157 708 129 679 129 643 L129 643 Z M344 643 C344 607 372 578 408 578 C445 578 474 607 474 643 C474 679 445 708 408 708 C372 708 344 679 344 643 L344 643 Z " />
<glyph glyph-name="yacute" unicode="&#xfd;" horiz-adv-x="610" d="M535 485 C535 495 530 500 520 500 L437 500 C427 500 422 495 422 485 L422 244 C422 175 372 108 295 108 C215 108 179 166 179 250 L179 485 C179 495 174 500 164 500 L81 500 C71 500 66 495 66 485 L66 229 C66 86 130 0 258 0 C334 0 401 48 422 93 L422 10 C422 -73 381 -147 274 -147 C218 -147 171 -124 143 -88 C140 -86 137 -84 134 -84 C131 -84 127 -86 124 -90 L80 -148 C75 -155 75 -161 81 -168 C120 -217 193 -255 277 -255 C436 -255 535 -138 535 21 L535 485 L535 485 Z M309 552 C311 551 314 551 316 551 C321 551 326 553 329 558 L423 711 C427 718 427 726 416 729 L349 752 C347 753 344 753 342 753 C336 753 332 750 330 743 L258 591 C254 582 256 576 264 572 L309 552 L309 552 Z " />
<glyph glyph-name="thorn" unicode="&#xfe;" horiz-adv-x="620" d="M477 250 C477 166 415 98 331 98 C248 98 186 166 186 250 C186 334 248 402 331 402 C415 402 477 333 477 250 L477 250 Z M173 -250 C183 -250 188 -245 188 -235 L188 84 C223 32 281 -10 360 -10 C496 -10 590 106 590 250 C590 392 496 510 360 510 C284 510 223 471 188 415 L188 735 C188 745 183 750 173 750 L89 750 C80 750 75 745 75 735 L75 -235 C75 -245 80 -250 89 -250 L173 -250 L173 -250 Z " />
<glyph glyph-name="ydieresis" unicode="&#xff;" horiz-adv-x="610" d="M535 485 C535 495 530 500 520 500 L437 500 C427 500 422 495 422 485 L422 244 C422 175 372 108 295 108 C215 108 179 166 179 250 L179 485 C179 495 174 500 164 500 L81 500 C71 500 66 495 66 485 L66 229 C66 86 130 0 258 0 C334 0 401 48 422 93 L422 10 C422 -73 381 -147 274 -147 C218 -147 171 -124 143 -88 C140 -86 137 -84 134 -84 C131 -84 127 -86 124 -90 L80 -148 C75 -155 75 -161 81 -168 C120 -217 193 -255 277 -255 C436 -255 535 -138 535 21 L535 485 L535 485 Z M131 643 C131 607 159 578 195 578 C232 578 261 607 261 643 C261 679 232 708 195 708 C159 708 131 679 131 643 L131 643 Z M346 643 C346 607 374 578 410 578 C447 578 476 607 476 643 C476 679 447 708 410 708 C374 708 346 679 346 643 L346 643 Z " />
<glyph glyph-name="Amacron" unicode="&#x100;" horiz-adv-x="623" d="M116 0 C128 0 135 5 137 15 L184 161 L438 161 L485 16 C488 3 495 0 507 0 L596 0 C607 0 611 5 606 15 L386 685 C383 695 377 700 368 700 L254 700 C245 700 239 695 236 685 L16 15 C13 5 16 0 27 0 L116 0 L116 0 Z M211 269 L311 565 L411 269 L211 269 Z M163 823 C163 813 168 808 178 808 L446 808 C456 808 461 813 461 823 L461 887 C461 897 456 902 446 902 L178 902 C168 902 163 897 163 887 L163 823 L163 823 Z " />
<glyph glyph-name="amacron" unicode="&#x101;" horiz-adv-x="620" d="M150 250 C150 334 212 402 296 402 C379 402 441 334 441 250 C441 166 379 98 296 98 C212 98 150 166 150 250 L150 250 Z M537 0 C547 0 552 5 552 15 L552 485 C552 495 547 500 537 500 L454 500 C444 500 439 495 439 485 L439 415 C402 468 347 510 267 510 C131 510 37 393 37 250 C37 107 131 -10 267 -10 C348 -10 404 35 439 84 L439 15 C439 5 444 0 454 0 L537 0 L537 0 Z M154 626 C154 616 159 611 169 611 L437 611 C447 611 452 616 452 626 L452 690 C452 700 447 705 437 705 L169 705 C159 705 154 700 154 690 L154 626 L154 626 Z " />
<glyph glyph-name="Abreve" unicode="&#x102;" horiz-adv-x="623" d="M116 0 C128 0 135 5 137 15 L184 161 L438 161 L485 16 C488 3 495 0 507 0 L596 0 C607 0 611 5 606 15 L386 685 C383 695 377 700 368 700 L254 700 C245 700 239 695 236 685 L16 15 C13 5 16 0 27 0 L116 0 L116 0 Z M211 269 L311 565 L411 269 L211 269 Z M473 904 C473 909 469 913 462 915 L408 925 C400 925 398 922 397 915 C394 874 367 842 311 842 C255 842 227 874 224 915 C223 922 221 925 213 925 L160 915 C153 914 149 911 149 904 C153 811 219 760 311 760 C403 760 469 811 473 904 L473 904 Z " />
<glyph glyph-name="abreve" unicode="&#x103;" horiz-adv-x="620" d="M150 250 C150 334 212 402 296 402 C379 402 441 334 441 250 C441 166 379 98 296 98 C212 98 150 166 150 250 L150 250 Z M537 0 C547 0 552 5 552 15 L552 485 C552 495 547 500 537 500 L454 500 C444 500 439 495 439 485 L439 415 C402 468 347 510 267 510 C131 510 37 393 37 250 C37 107 131 -10 267 -10 C348 -10 404 35 439 84 L439 15 C439 5 444 0 454 0 L537 0 L537 0 Z M468 716 C468 721 464 725 457 727 L403 737 C395 737 393 734 392 727 C389 686 362 654 306 654 C250 654 222 686 219 727 C218 734 216 737 208 737 L155 727 C148 726 144 723 144 716 C148 623 214 572 306 572 C398 572 464 623 468 716 L468 716 Z " />
<glyph glyph-name="Aogonek" unicode="&#x104;" horiz-adv-x="622" d="M597 0 C606 0 609 5 606 15 L386 685 C383 695 377 700 368 700 L254 700 C245 700 239 695 236 685 L16 15 C13 5 16 0 27 0 L116 0 C128 0 135 5 137 15 L184 161 L438 161 L485 16 C488 5 495 0 505 0 L527 0 C441 -74 482 -199 605 -199 C615 -199 626 -198 637 -196 C644 -195 647 -191 646 -184 L645 -129 C644 -122 641 -120 634 -120 C627 -121 621 -122 615 -122 C547 -122 541 -41 597 0 L597 0 Z M211 269 L311 565 L411 269 L211 269 Z " />
<glyph glyph-name="aogonek" unicode="&#x105;" horiz-adv-x="620" d="M143 250 C143 334 205 402 289 402 C372 402 434 334 434 250 C434 166 372 98 289 98 C205 98 143 166 143 250 L143 250 Z M433 15 C433 5 438 0 447 0 L467 0 C381 -73 421 -199 545 -199 C555 -199 566 -198 577 -196 C584 -195 586 -191 585 -184 L584 -129 C584 -121 580 -120 573 -120 C566 -121 560 -122 554 -122 C486 -122 481 -41 537 0 C545 0 545 7 545 15 L545 485 C545 495 540 500 530 500 L447 500 C437 500 432 495 432 485 L432 415 C395 468 340 510 260 510 C124 510 30 393 30 250 C30 107 124 -10 260 -10 C341 -10 397 35 432 84 L433 15 L433 15 Z " />
<glyph glyph-name="Cacute" unicode="&#x106;" horiz-adv-x="646" d="M590 635 C595 644 593 651 584 656 C533 688 468 710 393 710 C186 710 35 551 35 349 C35 146 186 -10 393 -10 C465 -10 529 9 586 44 C595 50 597 58 591 67 L547 135 C543 140 539 143 534 143 C531 143 528 142 524 139 C485 112 436 101 393 101 C253 101 149 211 149 349 C149 487 253 598 393 598 C444 598 482 586 521 562 C525 560 528 559 531 559 C538 559 543 562 546 567 L590 635 Z M389 755 C391 754 394 754 396 754 C401 754 406 756 409 761 L503 914 C507 921 507 929 496 932 L429 955 C427 956 424 956 422 956 C416 956 412 953 410 946 L338 794 C334 785 336 779 344 775 L389 755 L389 755 Z " />
<glyph glyph-name="cacute" unicode="&#x107;" horiz-adv-x="483" d="M393 119 C390 123 387 125 383 125 C380 125 377 124 373 122 C348 107 319 98 286 98 C202 98 140 166 140 250 C140 334 202 402 286 402 C303 402 335 399 371 376 C375 374 378 373 381 373 C385 373 389 375 392 380 L438 443 C443 450 441 460 433 465 C398 488 349 510 286 510 C141 510 30 394 30 250 C30 106 141 -10 286 -10 C346 -10 398 10 434 34 C443 39 444 46 439 55 L393 119 L393 119 Z M283 552 C285 551 288 551 290 551 C295 551 300 553 303 558 L397 711 C401 718 401 726 390 729 L323 752 C321 753 318 753 316 753 C310 753 306 750 304 743 L232 591 C228 582 230 576 238 572 L283 552 L283 552 Z " />
<glyph glyph-name="Ccircumflex" unicode="&#x108;" horiz-adv-x="646" d="M590 635 C595 644 593 651 584 656 C533 688 468 710 393 710 C186 710 35 551 35 349 C35 146 186 -10 393 -10 C465 -10 529 9 586 44 C595 50 597 58 591 67 L547 135 C543 140 539 143 534 143 C531 143 528 142 524 139 C485 112 436 101 393 101 C253 101 149 211 149 349 C149 487 253 598 393 598 C444 598 482 586 521 562 C525 560 528 559 531 559 C538 559 543 562 546 567 L590 635 Z M351 941 C339 941 330 934 323 926 L211 804 C204 797 206 789 213 782 L238 751 C241 748 244 746 248 746 C252 746 257 749 260 752 L377 861 L493 752 C497 748 501 746 505 746 C509 746 513 748 516 751 L541 782 C548 790 549 797 542 804 L431 926 C423 934 415 941 402 941 L351 941 L351 941 Z " />
<glyph glyph-name="ccircumflex" unicode="&#x109;" horiz-adv-x="483" d="M393 119 C390 123 387 125 383 125 C380 125 377 124 373 122 C348 107 319 98 286 98 C202 98 140 166 140 250 C140 334 202 402 286 402 C303 402 335 399 371 376 C375 374 378 373 381 373 C385 373 389 375 392 380 L438 443 C443 450 441 460 433 465 C398 488 349 510 286 510 C141 510 30 394 30 250 C30 106 141 -10 286 -10 C346 -10 398 10 434 34 C443 39 444 46 439 55 L393 119 L393 119 Z M247 746 C235 746 226 739 219 731 L107 609 C100 602 102 594 109 587 L134 556 C137 553 140 551 144 551 C148 551 153 554 156 557 L273 666 L389 557 C393 553 397 551 401 551 C405 551 409 553 412 556 L437 587 C444 595 445 602 438 609 L327 731 C319 739 311 746 298 746 L247 746 L247 746 Z " />
<glyph glyph-name="Cdotaccent" unicode="&#x10a;" horiz-adv-x="646" d="M590 635 C595 644 593 651 584 656 C533 688 468 710 393 710 C186 710 35 551 35 349 C35 146 186 -10 393 -10 C465 -10 529 9 586 44 C595 50 597 58 591 67 L547 135 C543 140 539 143 534 143 C531 143 528 142 524 139 C485 112 436 101 393 101 C253 101 149 211 149 349 C149 487 253 598 393 598 C444 598 482 586 521 562 C525 560 528 559 531 559 C538 559 543 562 546 567 L590 635 Z M310 850 C310 813 338 785 375 785 C412 785 441 813 441 850 C441 887 412 916 375 916 C338 916 310 887 310 850 L310 850 Z " />
<glyph glyph-name="cdotaccent" unicode="&#x10b;" horiz-adv-x="483" d="M393 119 C390 123 387 125 383 125 C380 125 377 124 373 122 C348 107 319 98 286 98 C202 98 140 166 140 250 C140 334 202 402 286 402 C303 402 335 399 371 376 C375 374 378 373 381 373 C385 373 389 375 392 380 L438 443 C443 450 441 460 433 465 C398 488 349 510 286 510 C141 510 30 394 30 250 C30 106 141 -10 286 -10 C346 -10 398 10 434 34 C443 39 444 46 439 55 L393 119 L393 119 Z M206 658 C206 621 234 593 271 593 C308 593 337 621 337 658 C337 695 308 724 271 724 C234 724 206 695 206 658 L206 658 Z " />
<glyph glyph-name="Ccaron" unicode="&#x10c;" horiz-adv-x="646" d="M590 635 C595 644 593 651 584 656 C533 688 468 710 393 710 C186 710 35 551 35 349 C35 146 186 -10 393 -10 C465 -10 529 9 586 44 C595 50 597 58 591 67 L547 135 C543 140 539 143 534 143 C531 143 528 142 524 139 C485 112 436 101 393 101 C253 101 149 211 149 349 C149 487 253 598 393 598 C444 598 482 586 521 562 C525 560 528 559 531 559 C538 559 543 562 546 567 L590 635 Z M401 761 C414 761 422 768 430 776 L541 898 C547 905 547 912 540 920 L515 951 C512 954 508 956 504 956 C500 956 496 954 492 950 L376 841 L259 950 C255 954 251 956 247 956 C244 956 240 954 237 951 L212 920 C205 913 204 905 210 898 L322 776 C330 768 338 761 350 761 L401 761 L401 761 Z " />
<glyph glyph-name="ccaron" unicode="&#x10d;" horiz-adv-x="483" d="M393 119 C390 123 387 125 383 125 C380 125 377 124 373 122 C348 107 319 98 286 98 C202 98 140 166 140 250 C140 334 202 402 286 402 C303 402 335 399 371 376 C375 374 378 373 381 373 C385 373 389 375 392 380 L438 443 C443 450 441 460 433 465 C398 488 349 510 286 510 C141 510 30 394 30 250 C30 106 141 -10 286 -10 C346 -10 398 10 434 34 C443 39 444 46 439 55 L393 119 L393 119 Z M306 548 C319 548 327 555 335 563 L446 685 C452 692 452 699 445 707 L420 738 C417 741 413 743 409 743 C405 743 401 741 397 737 L281 628 L164 737 C160 741 156 743 152 743 C149 743 145 741 142 738 L117 707 C110 700 109 692 115 685 L227 563 C235 555 243 548 255 548 L306 548 L306 548 Z " />
<glyph glyph-name="Dcaron" unicode="&#x10e;" horiz-adv-x="725" d="M338 0 C538 0 690 157 690 349 C690 545 538 700 338 700 L95 700 C85 700 80 695 80 685 L80 15 C80 5 85 0 95 0 L338 0 L338 0 Z M194 588 L333 588 C467 588 576 488 576 348 C576 215 467 112 333 112 L194 112 L194 588 Z M356 760 C369 760 377 767 385 775 L496 897 C502 904 502 911 495 919 L470 950 C467 953 463 955 459 955 C455 955 451 953 447 949 L331 840 L214 949 C210 953 206 955 202 955 C199 955 195 953 192 950 L167 919 C160 912 159 904 165 897 L277 775 C285 767 293 760 305 760 L356 760 L356 760 Z " />
<glyph glyph-name="dcaron" unicode="&#x10f;" horiz-adv-x="731" d="M613 549 C612 540 615 536 624 536 L691 536 C700 536 706 540 708 548 L747 737 C748 746 745 750 737 750 L656 750 C647 750 642 746 641 737 L613 549 L613 549 Z M143 250 C143 333 205 402 289 402 C372 402 434 334 434 250 C434 166 372 98 289 98 C205 98 143 166 143 250 L143 250 Z M530 0 C540 0 545 5 545 15 L545 735 C545 745 540 750 530 750 L447 750 C437 750 432 745 432 735 L432 415 C397 471 336 510 260 510 C124 510 30 392 30 250 C30 106 124 -10 260 -10 C339 -10 397 32 432 84 L432 15 C432 5 437 0 447 0 L530 0 L530 0 Z " />
<glyph glyph-name="Dcroat" unicode="&#x110;" horiz-adv-x="725" d="M80 15 C80 5 85 0 94 0 L338 0 C538 0 690 157 690 349 C690 545 538 700 338 700 L94 700 C85 700 80 695 80 685 L80 395 L26 395 C16 395 11 390 11 379 L11 323 C11 313 16 308 26 308 L80 308 L80 15 Z M194 588 L333 588 C467 588 576 488 576 348 C576 215 467 112 333 112 L194 112 L194 308 L291 308 C301 308 306 313 306 323 L306 380 C306 390 301 395 291 395 L194 395 L194 588 Z " />
<glyph glyph-name="dcroat" unicode="&#x111;" horiz-adv-x="620" d="M603 549 C613 549 618 554 618 565 L618 616 C618 627 611 632 603 632 L545 632 L545 735 C545 745 540 750 530 750 L447 750 C437 750 432 745 432 735 L432 632 L336 632 C328 632 321 627 321 616 L321 565 C321 554 326 549 336 549 L432 549 L432 415 C397 471 336 510 260 510 C124 510 30 392 30 250 C30 106 124 -10 260 -10 C339 -10 397 32 432 84 L432 15 C432 5 437 0 447 0 L530 0 C540 0 545 5 545 15 L545 549 L603 549 Z M143 250 C143 333 205 402 289 402 C372 402 434 334 434 250 C434 166 372 98 289 98 C205 98 143 166 143 250 L143 250 Z " />
<glyph glyph-name="Emacron" unicode="&#x112;" horiz-adv-x="548" d="M95 700 C85 700 80 695 80 685 L80 15 C80 5 85 0 95 0 L493 0 C503 0 508 5 508 15 L508 97 C508 107 503 112 493 112 L194 112 L194 295 L457 295 C467 295 472 300 472 310 L472 389 C472 399 467 404 457 404 L194 404 L194 588 L492 588 C502 588 507 593 507 603 L507 685 C507 693 503 700 492 700 L95 700 L95 700 Z M144 823 C144 813 149 808 159 808 L427 808 C437 808 442 813 442 823 L442 887 C442 897 437 902 427 902 L159 902 C149 902 144 897 144 887 L144 823 L144 823 Z " />
<glyph glyph-name="emacron" unicode="&#x113;" horiz-adv-x="549" d="M289 86 C207 86 150 143 137 211 L502 211 C514 211 519 218 519 229 C519 382 429 510 273 510 C125 510 30 386 30 250 C30 107 144 -10 286 -10 C362 -10 422 10 471 41 C479 46 480 52 475 61 L438 114 C435 118 431 121 426 121 C423 121 419 120 416 118 C377 97 341 86 289 86 L289 86 Z M138 294 C151 371 201 421 273 421 C350 421 395 370 411 294 L138 294 Z M131 626 C131 616 136 611 146 611 L414 611 C424 611 429 616 429 626 L429 690 C429 700 424 705 414 705 L146 705 C136 705 131 700 131 690 L131 626 L131 626 Z " />
<glyph glyph-name="Ebreve" unicode="&#x114;" horiz-adv-x="548" d="M95 700 C85 700 80 695 80 685 L80 15 C80 5 85 0 95 0 L493 0 C503 0 508 5 508 15 L508 97 C508 107 503 112 493 112 L194 112 L194 295 L457 295 C467 295 472 300 472 310 L472 389 C472 399 467 404 457 404 L194 404 L194 588 L492 588 C502 588 507 593 507 603 L507 685 C507 693 503 700 492 700 L95 700 L95 700 Z M457 904 C457 909 453 913 446 915 L392 925 C384 925 382 922 381 915 C378 874 351 842 295 842 C239 842 211 874 208 915 C207 922 205 925 197 925 L144 915 C137 914 133 911 133 904 C137 811 203 760 295 760 C387 760 453 811 457 904 L457 904 Z " />
<glyph glyph-name="ebreve" unicode="&#x115;" horiz-adv-x="549" d="M289 86 C207 86 150 143 137 211 L502 211 C514 211 519 218 519 229 C519 382 429 510 273 510 C125 510 30 386 30 250 C30 107 144 -10 286 -10 C362 -10 422 10 471 41 C479 46 480 52 475 61 L438 114 C435 118 431 121 426 121 C423 121 419 120 416 118 C377 97 341 86 289 86 L289 86 Z M138 294 C151 371 201 421 273 421 C350 421 395 370 411 294 L138 294 Z M440 716 C440 721 436 725 429 727 L375 737 C367 737 365 734 364 727 C361 686 334 654 278 654 C222 654 194 686 191 727 C190 734 188 737 180 737 L127 727 C120 726 116 723 116 716 C120 623 186 572 278 572 C370 572 436 623 440 716 L440 716 Z " />
<glyph glyph-name="Edotaccent" unicode="&#x116;" horiz-adv-x="548" d="M95 700 C85 700 80 695 80 685 L80 15 C80 5 85 0 95 0 L493 0 C503 0 508 5 508 15 L508 97 C508 107 503 112 493 112 L194 112 L194 295 L457 295 C467 295 472 300 472 310 L472 389 C472 399 467 404 457 404 L194 404 L194 588 L492 588 C502 588 507 593 507 603 L507 685 C507 693 503 700 492 700 L95 700 L95 700 Z M224 856 C224 819 252 791 289 791 C326 791 355 819 355 856 C355 893 326 922 289 922 C252 922 224 893 224 856 L224 856 Z " />
<glyph glyph-name="edotaccent" unicode="&#x117;" horiz-adv-x="549" d="M289 86 C207 86 150 143 137 211 L502 211 C514 211 519 218 519 229 C519 382 429 510 273 510 C125 510 30 386 30 250 C30 107 144 -10 286 -10 C362 -10 422 10 471 41 C479 46 480 52 475 61 L438 114 C435 118 431 121 426 121 C423 121 419 120 416 118 C377 97 341 86 289 86 L289 86 Z M138 294 C151 371 201 421 273 421 C350 421 395 370 411 294 L138 294 Z M206 671 C206 634 234 606 271 606 C308 606 337 634 337 671 C337 708 308 737 271 737 C234 737 206 708 206 671 L206 671 Z " />
<glyph glyph-name="Eogonek" unicode="&#x118;" horiz-adv-x="548" d="M496 0 C503 7 508 8 508 15 L508 97 C508 107 503 112 493 112 L194 112 L194 295 L457 295 C467 295 472 300 472 310 L472 389 C472 399 467 404 457 404 L194 404 L194 588 L492 588 C502 588 507 593 507 603 L507 685 C507 693 503 700 492 700 L95 700 C85 700 80 695 80 685 L80 15 C80 5 85 0 95 0 L421 0 C343 -80 383 -199 503 -199 C513 -199 524 -198 536 -196 C543 -195 546 -191 545 -183 L544 -129 C543 -122 540 -120 533 -120 C525 -122 518 -123 512 -123 C446 -123 445 -41 496 0 L496 0 Z " />
<glyph glyph-name="eogonek" unicode="&#x119;" horiz-adv-x="549" d="M138 294 C150 369 198 421 273 421 C353 421 396 367 411 294 L138 294 Z M240 -5 C165 -88 211 -198 329 -198 C339 -198 349 -198 360 -196 C366 -195 369 -191 369 -183 L368 -129 C368 -121 364 -120 357 -120 C350 -121 343 -122 337 -122 C274 -122 268 -53 309 -9 C376 -5 424 12 471 41 C479 46 480 52 475 61 L438 114 C435 118 431 121 426 121 C423 121 419 120 416 118 C377 97 341 86 289 86 C208 86 150 140 137 211 L502 211 C514 211 519 218 519 229 C519 377 436 510 273 510 C125 510 30 386 30 250 C30 116 127 14 240 -5 L240 -5 Z " />
<glyph glyph-name="Ecaron" unicode="&#x11a;" horiz-adv-x="548" d="M95 700 C85 700 80 695 80 685 L80 15 C80 5 85 0 95 0 L493 0 C503 0 508 5 508 15 L508 97 C508 107 503 112 493 112 L194 112 L194 295 L457 295 C467 295 472 300 472 310 L472 389 C472 399 467 404 457 404 L194 404 L194 588 L492 588 C502 588 507 593 507 603 L507 685 C507 693 503 700 492 700 L95 700 L95 700 Z M320 760 C333 760 341 767 349 775 L460 897 C466 904 466 911 459 919 L434 950 C431 953 427 955 423 955 C419 955 415 953 411 949 L295 840 L178 949 C174 953 170 955 166 955 C163 955 159 953 156 950 L131 919 C124 912 123 904 129 897 L241 775 C249 767 257 760 269 760 L320 760 L320 760 Z " />
<glyph glyph-name="ecaron" unicode="&#x11b;" horiz-adv-x="549" d="M302 555 C315 555 323 562 331 570 L442 692 C448 699 448 706 441 714 L416 745 C413 748 409 750 405 750 C401 750 397 748 393 744 L277 635 L160 744 C156 748 152 750 148 750 C145 750 141 748 138 745 L113 714 C106 707 105 699 111 692 L223 570 C231 562 239 555 251 555 L302 555 L302 555 Z M289 86 C207 86 150 143 137 211 L502 211 C514 211 519 218 519 229 C519 382 429 510 273 510 C125 510 30 386 30 250 C30 107 144 -10 286 -10 C362 -10 422 10 471 41 C479 46 480 52 475 61 L438 114 C435 118 431 121 426 121 C423 121 419 120 416 118 C377 97 341 86 289 86 L289 86 Z M138 294 C151 371 201 421 273 421 C350 421 395 370 411 294 L138 294 Z " />
<glyph glyph-name="Gcircumflex" unicode="&#x11c;" horiz-adv-x="697" d="M515 128 C480 109 444 101 393 101 C254 101 149 209 149 349 C149 485 250 598 393 598 C441 598 484 587 529 558 C533 555 537 554 540 554 C546 554 551 558 554 563 L598 630 C604 639 602 647 591 652 C540 685 473 710 393 710 C186 710 35 554 35 349 C35 146 186 -10 393 -10 C473 -10 546 5 614 42 C623 47 627 53 627 62 L627 354 C627 364 622 369 612 369 L386 369 C376 369 371 364 371 354 L371 288 C371 278 376 273 386 273 L515 273 L515 128 L515 128 Z M362 941 C350 941 341 934 334 926 L222 804 C215 797 217 789 224 782 L249 751 C252 748 255 746 259 746 C263 746 268 749 271 752 L388 861 L504 752 C508 748 512 746 516 746 C520 746 524 748 527 751 L552 782 C559 790 560 797 553 804 L442 926 C434 934 426 941 413 941 L362 941 L362 941 Z " />
<glyph glyph-name="gcircumflex" unicode="&#x11d;" horiz-adv-x="620" d="M143 251 C143 334 205 402 289 402 C373 402 435 336 435 251 C435 166 373 103 289 103 C205 103 143 166 143 251 L143 251 Z M545 485 C545 495 540 500 530 500 L447 500 C437 500 432 495 432 485 L432 415 C395 468 339 510 259 510 C124 510 30 394 30 251 C30 108 124 -5 259 -5 C342 -5 397 40 432 89 L432 8 C432 -75 377 -147 271 -147 C215 -147 167 -127 134 -96 C131 -94 128 -92 125 -92 C122 -92 118 -94 115 -98 L71 -156 C66 -163 66 -170 72 -176 C116 -221 191 -255 274 -255 C433 -255 545 -139 545 18 L545 485 L545 485 Z M280 746 C268 746 259 739 252 731 L140 609 C133 602 135 594 142 587 L167 556 C170 553 173 551 177 551 C181 551 186 554 189 557 L306 666 L422 557 C426 553 430 551 434 551 C438 551 442 553 445 556 L470 587 C477 595 478 602 471 609 L360 731 C352 739 344 746 331 746 L280 746 L280 746 Z " />
<glyph glyph-name="Gbreve" unicode="&#x11e;" horiz-adv-x="697" d="M515 128 C480 109 444 101 393 101 C254 101 149 209 149 349 C149 485 250 598 393 598 C441 598 484 587 529 558 C533 555 537 554 540 554 C546 554 551 558 554 563 L598 630 C604 639 602 647 591 652 C540 685 473 710 393 710 C186 710 35 554 35 349 C35 146 186 -10 393 -10 C473 -10 546 5 614 42 C623 47 627 53 627 62 L627 354 C627 364 622 369 612 369 L386 369 C376 369 371 364 371 354 L371 288 C371 278 376 273 386 273 L515 273 L515 128 L515 128 Z M548 904 C548 909 544 913 537 915 L483 925 C475 925 473 922 472 915 C469 874 442 842 386 842 C330 842 302 874 299 915 C298 922 296 925 288 925 L235 915 C228 914 224 911 224 904 C228 811 294 760 386 760 C478 760 544 811 548 904 L548 904 Z " />
<glyph glyph-name="gbreve" unicode="&#x11f;" horiz-adv-x="620" d="M143 251 C143 334 205 402 289 402 C373 402 435 336 435 251 C435 166 373 103 289 103 C205 103 143 166 143 251 L143 251 Z M545 485 C545 495 540 500 530 500 L447 500 C437 500 432 495 432 485 L432 415 C395 468 339 510 259 510 C124 510 30 394 30 251 C30 108 124 -5 259 -5 C342 -5 397 40 432 89 L432 8 C432 -75 377 -147 271 -147 C215 -147 167 -127 134 -96 C131 -94 128 -92 125 -92 C122 -92 118 -94 115 -98 L71 -156 C66 -163 66 -170 72 -176 C116 -221 191 -255 274 -255 C433 -255 545 -139 545 18 L545 485 L545 485 Z M466 716 C466 721 462 725 455 727 L401 737 C393 737 391 734 390 727 C387 686 360 654 304 654 C248 654 220 686 217 727 C216 734 214 737 206 737 L153 727 C146 726 142 723 142 716 C146 623 212 572 304 572 C396 572 462 623 466 716 L466 716 Z " />
<glyph glyph-name="Gdotaccent" unicode="&#x120;" horiz-adv-x="697" d="M515 128 C480 109 444 101 393 101 C254 101 149 209 149 349 C149 485 250 598 393 598 C441 598 484 587 529 558 C533 555 537 554 540 554 C546 554 551 558 554 563 L598 630 C604 639 602 647 591 652 C540 685 473 710 393 710 C186 710 35 554 35 349 C35 146 186 -10 393 -10 C473 -10 546 5 614 42 C623 47 627 53 627 62 L627 354 C627 364 622 369 612 369 L386 369 C376 369 371 364 371 354 L371 288 C371 278 376 273 386 273 L515 273 L515 128 L515 128 Z M314 850 C314 813 342 785 379 785 C416 785 445 813 445 850 C445 887 416 916 379 916 C342 916 314 887 314 850 L314 850 Z " />
<glyph glyph-name="gdotaccent" unicode="&#x121;" horiz-adv-x="620" d="M143 251 C143 334 205 402 289 402 C373 402 435 336 435 251 C435 166 373 103 289 103 C205 103 143 166 143 251 L143 251 Z M545 485 C545 495 540 500 530 500 L447 500 C437 500 432 495 432 485 L432 415 C395 468 339 510 259 510 C124 510 30 394 30 251 C30 108 124 -5 259 -5 C342 -5 397 40 432 89 L432 8 C432 -75 377 -147 271 -147 C215 -147 167 -127 134 -96 C131 -94 128 -92 125 -92 C122 -92 118 -94 115 -98 L71 -156 C66 -163 66 -170 72 -176 C116 -221 191 -255 274 -255 C433 -255 545 -139 545 18 L545 485 L545 485 Z M234 671 C234 634 262 606 299 606 C336 606 365 634 365 671 C365 708 336 737 299 737 C262 737 234 708 234 671 L234 671 Z " />
<glyph glyph-name="uni0122" unicode="&#x122;" horiz-adv-x="697" d="M515 128 C480 109 444 101 393 101 C254 101 149 209 149 349 C149 485 250 598 393 598 C441 598 483 585 528 556 C532 553 536 552 539 552 C545 552 550 556 553 561 L598 630 C604 639 602 647 591 652 C540 685 473 710 393 710 C186 710 35 554 35 349 C35 146 186 -10 393 -10 C473 -10 547 5 614 42 C623 47 627 53 627 62 L627 354 C627 364 622 369 612 369 L386 369 C376 369 371 364 371 354 L371 288 C371 278 376 273 386 273 L515 273 L515 128 L515 128 Z M315 -250 C314 -259 318 -263 327 -263 L393 -263 C402 -263 408 -259 410 -251 L449 -62 C451 -53 448 -49 439 -49 L358 -49 C350 -49 345 -53 344 -62 L315 -250 L315 -250 Z " />
<glyph glyph-name="uni0123" unicode="&#x123;" horiz-adv-x="620" d="M143 251 C143 334 205 402 289 402 C373 402 435 336 435 251 C435 166 373 103 289 103 C205 103 143 166 143 251 L143 251 Z M545 485 C545 495 540 500 530 500 L447 500 C437 500 432 495 432 485 L432 415 C395 468 339 510 259 510 C124 510 30 394 30 251 C30 108 124 -5 259 -5 C342 -5 397 40 432 89 L432 8 C432 -75 377 -147 271 -147 C215 -147 167 -127 134 -96 C131 -94 128 -92 125 -92 C122 -92 118 -94 115 -98 L71 -156 C66 -163 66 -170 72 -176 C116 -221 191 -255 274 -255 C433 -255 545 -139 545 18 L545 485 L545 485 Z M374 772 C375 779 370 784 362 784 L296 784 C287 784 281 780 279 772 L240 583 C238 575 241 571 250 571 L331 571 C339 571 344 575 345 584 L374 772 L374 772 Z " />
<glyph glyph-name="Hcircumflex" unicode="&#x124;" horiz-adv-x="702" d="M179 0 C189 0 194 5 194 15 L194 296 L508 296 L508 15 C508 5 513 0 523 0 L607 0 C617 0 622 5 622 15 L622 685 C622 695 617 700 607 700 L523 700 C513 700 508 695 508 685 L508 411 L194 411 L194 685 C194 695 189 700 179 700 L95 700 C85 700 80 695 80 685 L80 15 C80 5 85 0 95 0 L179 0 L179 0 Z M325 941 C313 941 304 934 297 926 L185 804 C178 797 180 789 187 782 L212 751 C215 748 218 746 222 746 C226 746 231 749 234 752 L351 861 L467 752 C471 748 475 746 479 746 C483 746 487 748 490 751 L515 782 C522 790 523 797 516 804 L405 926 C397 934 389 941 376 941 L325 941 L325 941 Z " />
<glyph glyph-name="hcircumflex" unicode="&#x125;" horiz-adv-x="609" d="M173 0 C183 0 188 5 188 15 L188 259 C188 327 242 402 315 402 C395 402 431 343 431 259 L431 15 C431 5 436 0 446 0 L529 0 C539 0 544 5 544 15 L544 280 C544 424 480 510 352 510 C272 510 215 460 188 415 L188 735 C188 745 183 750 173 750 L90 750 C80 750 75 745 75 735 L75 15 C75 5 80 0 90 0 L173 0 L173 0 Z M104 959 C92 959 83 952 76 944 L-36 822 C-43 815 -41 807 -34 800 L-9 769 C-6 766 -3 764 1 764 C5 764 10 767 13 770 L130 879 L246 770 C250 766 254 764 258 764 C262 764 266 766 269 769 L294 800 C301 808 302 815 295 822 L184 944 C176 952 168 959 155 959 L104 959 L104 959 Z " />
<glyph glyph-name="Hbar" unicode="&#x126;" horiz-adv-x="702" d="M509 409 L196 409 L196 500 L509 500 L509 409 Z M695 500 C707 500 710 505 710 516 L710 549 C710 560 705 565 695 565 L622 565 L622 685 C622 695 617 700 607 700 L523 700 C513 700 508 695 508 685 L508 565 L194 565 L194 685 C194 693 190 700 179 700 L96 700 C85 700 80 695 80 685 L80 565 L8 565 C-1 565 -6 560 -6 550 L-6 515 C-6 505 -1 500 8 500 L80 500 L80 15 C80 4 83 0 95 0 L179 0 C189 0 194 5 194 15 L194 294 L508 294 L508 15 C508 5 513 0 523 0 L607 0 C617 0 622 5 622 15 L622 500 L695 500 Z " />
<glyph glyph-name="hbar" unicode="&#x127;" horiz-adv-x="609" d="M188 735 C188 745 183 750 173 750 L90 750 C80 750 75 745 75 735 L75 642 L17 642 C7 642 2 637 2 627 L2 575 C2 565 7 560 17 560 L75 560 L75 15 C75 5 80 0 90 0 L173 0 C183 0 188 5 188 15 L188 259 C188 327 242 402 315 402 C395 402 431 343 431 259 L431 15 C431 5 436 0 446 0 L529 0 C539 0 544 5 544 15 L544 280 C544 424 480 510 352 510 C272 510 215 460 188 415 L188 560 L285 560 C295 560 300 565 300 575 L300 627 C300 637 295 642 285 642 L188 642 L188 735 Z " />
<glyph glyph-name="Itilde" unicode="&#x128;" horiz-adv-x="264" d="M174 -3 C184 -3 189 2 189 12 L189 682 C189 692 184 697 174 697 L90 697 C80 697 75 692 75 682 L75 12 C75 2 80 -3 90 -3 L174 -3 L174 -3 Z M204 869 C157 869 127 929 60 929 C25 929 -14 905 -42 874 C-48 868 -50 860 -47 851 L-33 799 C-31 794 -29 790 -25 790 C-23 790 -21 791 -18 794 C6 819 34 848 65 848 C112 848 142 788 209 788 C244 788 283 812 310 843 C316 849 318 857 315 866 L302 918 C300 924 297 927 294 927 C292 927 289 926 286 923 C263 898 233 869 204 869 L204 869 Z " />
<glyph glyph-name="itilde" unicode="&#x129;" horiz-adv-x="263" d="M201 677 C154 677 124 737 57 737 C22 737 -17 713 -45 682 C-51 676 -53 668 -50 659 L-36 607 C-34 602 -32 598 -28 598 C-26 598 -24 599 -21 602 C3 627 31 656 62 656 C109 656 139 596 206 596 C241 596 280 620 307 651 C313 657 315 665 312 674 L299 726 C297 732 294 735 291 735 C289 735 286 734 283 731 C260 706 230 677 201 677 L201 677 Z M173 0 C183 0 188 5 188 15 L188 485 C188 495 183 500 173 500 L90 500 C80 500 75 495 75 485 L75 15 C75 5 80 0 90 0 L173 0 L173 0 Z " />
<glyph glyph-name="Imacron" unicode="&#x12a;" horiz-adv-x="264" d="M174 0 C184 0 189 5 189 15 L189 685 C189 695 184 700 174 700 L90 700 C80 700 75 695 75 685 L75 15 C75 5 80 0 90 0 L174 0 L174 0 Z M-17 836 C-17 826 -12 821 -2 821 L266 821 C276 821 281 826 281 836 L281 900 C281 910 276 915 266 915 L-2 915 C-12 915 -17 910 -17 900 L-17 836 L-17 836 Z " />
<glyph glyph-name="imacron" unicode="&#x12b;" horiz-adv-x="263" d="M173 0 C183 0 188 5 188 15 L188 485 C188 495 183 500 173 500 L90 500 C80 500 75 495 75 485 L75 15 C75 5 80 0 90 0 L173 0 L173 0 Z M-17 626 C-17 616 -12 611 -2 611 L266 611 C276 611 281 616 281 626 L281 690 C281 700 276 705 266 705 L-2 705 C-12 705 -17 700 -17 690 L-17 626 L-17 626 Z " />
<glyph glyph-name="Iogonek" unicode="&#x12e;" horiz-adv-x="264" d="M91 0 C11 -77 49 -199 173 -199 C184 -199 195 -198 207 -196 C213 -195 216 -191 216 -183 L215 -129 C215 -121 211 -120 204 -120 C197 -122 190 -122 183 -122 C116 -122 108 -37 174 0 C184 0 189 5 189 15 L189 685 C189 695 184 700 174 700 L90 700 C80 700 75 695 75 685 L75 15 C75 8 80 0 91 0 L91 0 Z " />
<glyph glyph-name="iogonek" unicode="&#x12f;" horiz-adv-x="263" d="M91 0 C11 -77 49 -199 173 -199 C184 -199 195 -198 207 -196 C213 -195 216 -191 216 -183 L215 -129 C215 -121 211 -120 204 -120 C197 -122 190 -122 183 -122 C116 -122 108 -37 173 0 C183 0 188 5 188 15 L188 485 C188 495 183 500 173 500 L90 500 C80 500 75 495 75 485 L75 15 C75 8 80 0 91 0 L91 0 Z M63 691 C63 652 93 624 130 624 C169 624 199 652 199 691 C199 730 169 760 130 760 C93 760 63 730 63 691 L63 691 Z " />
<glyph glyph-name="Idotaccent" unicode="&#x130;" horiz-adv-x="264" d="M174 0 C184 0 189 5 189 15 L189 685 C189 695 184 700 174 700 L90 700 C80 700 75 695 75 685 L75 15 C75 5 80 0 90 0 L174 0 L174 0 Z M66 856 C66 819 94 791 131 791 C168 791 197 819 197 856 C197 893 168 922 131 922 C94 922 66 893 66 856 L66 856 Z " />
<glyph glyph-name="dotlessi" unicode="&#x131;" horiz-adv-x="263" d="M173 0 C183 0 188 5 188 15 L188 485 C188 495 183 500 173 500 L90 500 C80 500 75 495 75 485 L75 15 C75 5 80 0 90 0 L173 0 L173 0 Z " />
<glyph glyph-name="IJ" unicode="&#x132;" horiz-adv-x="768" d="M179 0 C189 0 194 5 194 15 L194 685 C194 695 189 700 179 700 L95 700 C85 700 80 695 80 685 L80 15 C80 5 85 0 95 0 L179 0 L179 0 Z M688 685 C688 695 683 700 673 700 L589 700 C579 700 574 695 574 685 L574 219 C574 148 535 101 468 101 C425 101 399 113 368 132 C364 135 360 136 356 136 C352 136 349 134 346 130 L305 63 C298 52 302 47 309 42 C354 9 413 -10 477 -10 C608 -10 688 84 688 208 L688 685 L688 685 Z " />
<glyph glyph-name="ij" unicode="&#x133;" horiz-adv-x="576" d="M191 0 C201 0 206 5 206 15 L206 485 C206 495 201 500 191 500 L108 500 C98 500 93 495 93 485 L93 15 C93 5 98 0 108 0 L191 0 L191 0 Z M81 691 C81 652 111 624 148 624 C187 624 217 652 217 691 C217 730 187 760 148 760 C111 760 81 730 81 691 L81 691 Z M224 -209 C221 -218 223 -224 231 -229 C262 -245 291 -255 332 -255 C425 -255 487 -190 487 -103 L487 485 C487 495 482 500 472 500 L389 500 C378 500 374 493 374 485 L374 -82 C374 -125 349 -147 318 -147 C298 -147 285 -143 272 -136 C270 -135 268 -135 266 -135 C262 -135 258 -137 255 -142 L224 -209 L224 -209 Z M362 691 C362 652 392 624 429 624 C468 624 498 652 498 691 C498 730 468 760 429 760 C392 760 362 730 362 691 L362 691 Z " />
<glyph glyph-name="Jcircumflex" unicode="&#x134;" horiz-adv-x="494" d="M414 685 C414 695 409 700 399 700 L314 700 C304 700 299 695 299 685 L299 219 C299 148 260 101 193 101 C152 101 124 113 93 132 C89 134 85 136 81 136 C77 136 74 134 71 130 L30 63 C23 52 27 47 34 42 C79 9 138 -10 202 -10 C332 -10 414 84 414 208 L414 685 L414 685 Z M330 941 C318 941 309 934 302 926 L190 804 C183 797 185 789 192 782 L217 751 C220 748 223 746 227 746 C231 746 236 749 239 752 L356 861 L472 752 C476 748 480 746 484 746 C488 746 492 748 495 751 L520 782 C527 790 528 797 521 804 L410 926 C402 934 394 941 381 941 L330 941 L330 941 Z " />
<glyph glyph-name="jcircumflex" unicode="&#x135;" horiz-adv-x="303" d="M-44 -209 C-47 -218 -45 -224 -37 -229 C-6 -245 24 -255 64 -255 C157 -255 219 -190 219 -103 L219 485 C219 495 214 500 204 500 L121 500 C110 500 106 493 106 485 L106 -82 C106 -125 81 -147 50 -147 C30 -147 17 -143 4 -136 C2 -135 0 -135 -2 -135 C-6 -135 -10 -137 -13 -142 L-44 -209 L-44 -209 Z M137 746 C125 746 116 739 109 731 L-3 609 C-10 602 -8 594 -1 587 L24 556 C27 553 30 551 34 551 C38 551 43 554 46 557 L163 666 L279 557 C283 553 287 551 291 551 C295 551 299 553 302 556 L327 587 C334 595 335 602 328 609 L217 731 C209 739 201 746 188 746 L137 746 L137 746 Z " />
<glyph glyph-name="uni0136" unicode="&#x136;" horiz-adv-x="662" d="M631 0 C642 0 644 7 639 15 L369 413 L616 685 C623 693 622 700 611 700 L501 700 C486 700 479 694 471 685 L194 391 L194 685 C194 695 189 700 179 700 L95 700 C85 700 80 695 80 685 L80 15 C80 5 85 0 95 0 L179 0 C189 0 194 5 194 15 L194 236 L285 331 L500 15 C508 4 513 0 528 0 L631 0 Z M261 -250 C260 -259 263 -263 272 -263 L339 -263 C348 -263 354 -259 356 -251 L395 -62 C396 -53 393 -49 385 -49 L304 -49 C295 -49 290 -53 289 -62 L261 -250 L261 -250 Z " />
<glyph glyph-name="uni0137" unicode="&#x137;" horiz-adv-x="544" d="M215 -250 C214 -259 218 -263 227 -263 L293 -263 C302 -263 308 -259 310 -251 L349 -62 C351 -53 348 -49 339 -49 L258 -49 C250 -49 245 -53 244 -62 L215 -250 L215 -250 Z M391 14 C398 5 405 0 420 0 L514 0 C525 0 526 7 519 16 L334 293 L502 485 C509 492 507 500 498 500 L396 500 C384 500 378 497 370 489 L188 297 L188 735 C188 745 183 750 173 750 L90 750 C80 750 75 745 75 735 L75 15 C75 5 80 0 90 0 L173 0 C183 0 188 5 188 15 L188 154 L249 218 L391 14 L391 14 Z " />
<glyph glyph-name="kgreenlandic" unicode="&#x138;" horiz-adv-x="544" d="M391 14 C398 5 405 0 420 0 L514 0 C525 0 526 7 519 16 L334 293 L502 485 C509 492 507 500 498 500 L396 500 C384 500 378 497 370 489 L188 297 L188 485 C188 495 183 500 173 500 L90 500 C80 500 75 495 75 485 L75 15 C75 5 80 0 90 0 L173 0 C183 0 188 5 188 15 L188 154 L249 218 L391 14 L391 14 Z " />
<glyph glyph-name="Lacute" unicode="&#x139;" horiz-adv-x="508" d="M461 0 C471 0 476 5 476 15 L476 96 C476 106 471 111 461 111 L194 111 L194 685 C194 695 189 700 179 700 L95 700 C85 700 80 695 80 685 L80 15 C80 5 85 0 95 0 L461 0 L461 0 Z M152 755 C154 754 157 754 159 754 C164 754 169 756 172 761 L266 914 C270 921 270 929 259 932 L192 955 C190 956 187 956 185 956 C179 956 175 953 173 946 L101 794 C97 785 99 779 107 775 L152 755 L152 755 Z " />
<glyph glyph-name="lacute" unicode="&#x13a;" horiz-adv-x="268" d="M178 0 C188 0 193 5 193 15 L193 735 C193 745 188 750 178 750 L95 750 C85 750 80 745 80 735 L80 15 C80 5 85 0 95 0 L178 0 L178 0 Z M152 775 C154 774 157 774 159 774 C164 774 169 776 172 781 L266 934 C270 941 270 949 259 952 L192 975 C190 976 187 976 185 976 C179 976 175 973 173 966 L101 814 C97 805 99 799 107 795 L152 775 L152 775 Z " />
<glyph glyph-name="uni013B" unicode="&#x13b;" horiz-adv-x="508" d="M461 0 C471 0 476 5 476 15 L476 96 C476 106 471 111 461 111 L194 111 L194 685 C194 695 189 700 179 700 L95 700 C85 700 80 695 80 685 L80 15 C80 5 85 0 95 0 L461 0 L461 0 Z M196 -250 C195 -259 198 -263 207 -263 L274 -263 C283 -263 289 -259 291 -251 L330 -62 C331 -53 328 -49 320 -49 L239 -49 C230 -49 225 -53 224 -62 L196 -250 L196 -250 Z " />
<glyph glyph-name="uni013C" unicode="&#x13c;" horiz-adv-x="263" d="M173 0 C183 0 188 5 188 15 L188 735 C188 745 183 750 173 750 L90 750 C80 750 75 745 75 735 L75 15 C75 5 80 0 90 0 L173 0 L173 0 Z M50 -250 C49 -259 52 -263 61 -263 L128 -263 C137 -263 143 -259 145 -251 L184 -62 C185 -53 182 -49 174 -49 L93 -49 C84 -49 79 -53 78 -62 L50 -250 L50 -250 Z " />
<glyph glyph-name="Lcaron" unicode="&#x13d;" horiz-adv-x="527" d="M461 0 C471 0 476 5 476 15 L476 96 C476 106 471 111 461 111 L194 111 L194 685 C194 695 189 700 179 700 L95 700 C85 700 80 695 80 685 L80 15 C80 5 85 0 95 0 L461 0 L461 0 Z M372 499 C371 490 374 486 383 486 L450 486 C459 486 465 490 467 498 L506 687 C508 696 505 700 496 700 L415 700 C407 700 402 696 401 687 L372 499 L372 499 Z " />
<glyph glyph-name="lcaron" unicode="&#x13e;" horiz-adv-x="362" d="M173 0 C183 0 188 5 188 15 L188 735 C188 745 183 750 173 750 L90 750 C80 750 75 745 75 735 L75 15 C75 5 80 0 90 0 L173 0 L173 0 Z M255 549 C254 540 257 536 266 536 L333 536 C342 536 348 540 350 548 L389 737 C390 746 387 750 379 750 L298 750 C289 750 284 746 283 737 L255 549 L255 549 Z " />
<glyph glyph-name="Ldot" unicode="&#x13f;" horiz-adv-x="526" d="M461 0 C471 0 476 5 476 15 L476 96 C476 106 471 111 461 111 L194 111 L194 685 C194 695 189 700 179 700 L95 700 C85 700 80 695 80 685 L80 15 C80 5 85 0 95 0 L461 0 L461 0 Z M361 413 C361 376 389 348 426 348 C463 348 492 376 492 413 C492 450 463 479 426 479 C389 479 361 450 361 413 L361 413 Z " />
<glyph glyph-name="ldot" unicode="&#x140;" horiz-adv-x="422" d="M184 0 C194 0 199 5 199 15 L199 735 C199 745 194 750 184 750 L101 750 C91 750 86 745 86 735 L86 15 C86 5 91 0 101 0 L184 0 L184 0 Z M309 381 C309 344 337 316 374 316 C411 316 440 344 440 381 C440 418 411 447 374 447 C337 447 309 418 309 381 L309 381 Z " />
<glyph glyph-name="Lslash" unicode="&#x141;" horiz-adv-x="508" d="M80 15 C80 5 85 0 95 0 L461 0 C471 0 476 5 476 15 L476 96 C476 106 471 111 461 111 L194 111 L194 332 L372 395 C381 399 385 405 382 414 L364 465 C362 471 358 474 352 474 C350 474 348 474 345 473 L194 420 L194 685 C194 695 189 700 179 700 L95 700 C85 700 80 695 80 685 L80 380 L3 353 C-6 350 -9 343 -6 334 L12 284 C14 276 18 272 24 272 C26 272 28 273 31 274 L80 292 L80 15 Z " />
<glyph glyph-name="lslash" unicode="&#x142;" horiz-adv-x="367" d="M123 15 C123 5 128 0 138 0 L221 0 C231 0 236 5 236 15 L236 358 L370 406 C373 407 382 413 378 425 L361 475 C358 483 353 485 348 485 C345 485 343 484 342 484 L236 446 L236 735 C236 745 231 750 221 750 L138 750 C128 750 123 745 123 735 L123 407 L-2 361 C-15 357 -12 345 -11 342 L7 292 C8 289 11 281 20 281 C22 281 24 281 26 282 L123 318 L123 15 Z " />
<glyph glyph-name="Nacute" unicode="&#x143;" horiz-adv-x="742" d="M647 0 C657 0 662 5 662 15 L662 685 C662 695 657 700 647 700 L562 700 C552 700 547 695 547 685 L547 200 L206 685 C199 694 193 700 180 700 L95 700 C85 700 80 695 80 685 L80 15 C80 5 85 0 95 0 L179 0 C189 0 194 5 194 15 L194 500 L536 15 C543 4 548 0 561 0 L647 0 Z M375 755 C377 754 380 754 382 754 C387 754 392 756 395 761 L489 914 C493 921 493 929 482 932 L415 955 C413 956 410 956 408 956 C402 956 398 953 396 946 L324 794 C320 785 322 779 330 775 L375 755 L375 755 Z " />
<glyph glyph-name="nacute" unicode="&#x144;" horiz-adv-x="609" d="M529 0 C539 0 544 5 544 15 L544 280 C544 424 480 510 352 510 C271 510 215 456 188 411 L188 485 C188 495 183 500 173 500 L90 500 C80 500 75 495 75 485 L75 15 C75 5 80 0 90 0 L173 0 C183 0 188 5 188 15 L188 265 C188 334 242 402 315 402 C395 402 431 343 431 259 L431 15 C431 5 436 0 446 0 L529 0 L529 0 Z M311 552 C313 551 316 551 318 551 C323 551 328 553 331 558 L425 711 C429 718 429 726 418 729 L351 752 C349 753 346 753 344 753 C338 753 334 750 332 743 L260 591 C256 582 258 576 266 572 L311 552 L311 552 Z " />
<glyph glyph-name="uni0145" unicode="&#x145;" horiz-adv-x="742" d="M647 0 C657 0 662 5 662 15 L662 685 C662 695 657 700 647 700 L562 700 C552 700 547 695 547 685 L547 200 L206 685 C199 694 193 700 180 700 L95 700 C85 700 80 695 80 685 L80 15 C80 5 85 0 95 0 L179 0 C189 0 194 5 194 15 L194 500 L536 15 C543 4 548 0 561 0 L647 0 Z M289 -250 C288 -259 291 -263 300 -263 L367 -263 C376 -263 382 -259 384 -251 L423 -62 C424 -53 421 -49 413 -49 L332 -49 C323 -49 318 -53 317 -62 L289 -250 L289 -250 Z " />
<glyph glyph-name="uni0146" unicode="&#x146;" horiz-adv-x="609" d="M529 0 C539 0 544 5 544 15 L544 280 C544 424 480 510 352 510 C271 510 215 456 188 411 L188 485 C188 495 183 500 173 500 L90 500 C80 500 75 495 75 485 L75 15 C75 5 80 0 90 0 L173 0 C183 0 188 5 188 15 L188 265 C188 334 242 402 315 402 C395 402 431 343 431 259 L431 15 C431 5 436 0 446 0 L529 0 L529 0 Z M227 -250 C226 -259 229 -263 238 -263 L305 -263 C314 -263 320 -259 322 -251 L361 -62 C363 -53 360 -49 351 -49 L270 -49 C262 -49 257 -53 256 -62 L227 -250 L227 -250 Z " />
<glyph glyph-name="Ncaron" unicode="&#x147;" horiz-adv-x="742" d="M647 0 C657 0 662 5 662 15 L662 685 C662 695 657 700 647 700 L562 700 C552 700 547 695 547 685 L547 200 L206 685 C199 694 193 700 180 700 L95 700 C85 700 80 695 80 685 L80 15 C80 5 85 0 95 0 L179 0 C189 0 194 5 194 15 L194 500 L536 15 C543 4 548 0 561 0 L647 0 Z M396 760 C409 760 417 767 425 775 L536 897 C542 904 542 911 535 919 L510 950 C507 953 503 955 499 955 C495 955 491 953 487 949 L371 840 L254 949 C250 953 246 955 242 955 C239 955 235 953 232 950 L207 919 C200 912 199 904 205 897 L317 775 C325 767 333 760 345 760 L396 760 L396 760 Z " />
<glyph glyph-name="ncaron" unicode="&#x148;" horiz-adv-x="609" d="M529 0 C539 0 544 5 544 15 L544 280 C544 424 480 510 352 510 C271 510 215 456 188 411 L188 485 C188 495 183 500 173 500 L90 500 C80 500 75 495 75 485 L75 15 C75 5 80 0 90 0 L173 0 C183 0 188 5 188 15 L188 265 C188 334 242 402 315 402 C395 402 431 343 431 259 L431 15 C431 5 436 0 446 0 L529 0 L529 0 Z M332 548 C345 548 353 555 361 563 L472 685 C478 692 478 699 471 707 L446 738 C443 741 439 743 435 743 C431 743 427 741 423 737 L307 628 L190 737 C186 741 182 743 178 743 C175 743 171 741 168 738 L143 707 C136 700 135 692 141 685 L253 563 C261 555 269 548 281 548 L332 548 L332 548 Z " />
<glyph glyph-name="napostrophe" unicode="&#x149;" horiz-adv-x="609" d="M529 0 C539 0 544 5 544 15 L544 280 C544 424 480 510 352 510 C271 510 215 456 188 411 L188 485 C188 495 183 500 173 500 L90 500 C80 500 75 495 75 485 L75 15 C75 5 80 0 90 0 L173 0 C183 0 188 5 188 15 L188 265 C188 334 242 402 315 402 C395 402 431 343 431 259 L431 15 C431 5 436 0 446 0 L529 0 L529 0 Z M49 569 C48 560 51 556 60 556 L127 556 C136 556 142 560 144 568 L179 737 C181 746 178 750 169 750 L88 750 C80 750 75 746 74 737 L49 569 L49 569 Z " />
<glyph glyph-name="Omacron" unicode="&#x14c;" horiz-adv-x="787" d="M393 710 C190 710 35 551 35 349 C35 146 190 -10 393 -10 C596 -10 752 149 752 349 C752 551 596 710 393 710 L393 710 Z M393 101 C253 101 149 211 149 349 C149 487 253 598 393 598 C533 598 637 487 637 349 C637 211 532 101 393 101 L393 101 Z M245 823 C245 813 250 808 260 808 L528 808 C538 808 543 813 543 823 L543 887 C543 897 538 902 528 902 L260 902 C250 902 245 897 245 887 L245 823 L245 823 Z " />
<glyph glyph-name="omacron" unicode="&#x14d;" horiz-adv-x="572" d="M30 250 C30 106 141 -10 286 -10 C429 -10 542 106 542 250 C542 394 429 510 286 510 C141 510 30 394 30 250 L30 250 Z M140 250 C140 334 202 402 286 402 C369 402 431 334 431 250 C431 166 369 98 286 98 C202 98 140 166 140 250 L140 250 Z M138 626 C138 616 143 611 153 611 L421 611 C431 611 436 616 436 626 L436 690 C436 700 431 705 421 705 L153 705 C143 705 138 700 138 690 L138 626 L138 626 Z " />
<glyph glyph-name="Obreve" unicode="&#x14e;" horiz-adv-x="787" d="M393 710 C190 710 35 551 35 349 C35 146 190 -10 393 -10 C596 -10 752 149 752 349 C752 551 596 710 393 710 L393 710 Z M393 101 C253 101 149 211 149 349 C149 487 253 598 393 598 C533 598 637 487 637 349 C637 211 532 101 393 101 L393 101 Z M555 904 C555 909 551 913 544 915 L490 925 C482 925 480 922 479 915 C476 874 449 842 393 842 C337 842 309 874 306 915 C305 922 303 925 295 925 L242 915 C235 914 231 911 231 904 C235 811 301 760 393 760 C485 760 551 811 555 904 L555 904 Z " />
<glyph glyph-name="obreve" unicode="&#x14f;" horiz-adv-x="572" d="M30 250 C30 106 141 -10 286 -10 C429 -10 542 106 542 250 C542 394 429 510 286 510 C141 510 30 394 30 250 L30 250 Z M140 250 C140 334 202 402 286 402 C369 402 431 334 431 250 C431 166 369 98 286 98 C202 98 140 166 140 250 L140 250 Z M448 716 C448 721 444 725 437 727 L383 737 C375 737 373 734 372 727 C369 686 342 654 286 654 C230 654 202 686 199 727 C198 734 196 737 188 737 L135 727 C128 726 124 723 124 716 C128 623 194 572 286 572 C378 572 444 623 448 716 L448 716 Z " />
<glyph glyph-name="Ohungarumlaut" unicode="&#x150;" horiz-adv-x="787" d="M393 710 C190 710 35 551 35 349 C35 146 190 -10 393 -10 C596 -10 752 149 752 349 C752 551 596 710 393 710 L393 710 Z M393 101 C253 101 149 211 149 349 C149 487 253 598 393 598 C533 598 637 487 637 349 C637 211 532 101 393 101 L393 101 Z M323 754 C326 753 329 753 331 753 C337 753 341 755 345 761 L436 913 C440 920 440 928 429 931 L364 954 C361 955 359 955 357 955 C350 955 345 952 343 945 L272 792 C269 785 271 776 280 772 L323 754 L323 754 Z M503 754 C506 753 509 753 511 753 C517 753 521 755 525 761 L619 912 C623 919 622 927 613 930 L544 954 C541 955 539 955 537 955 C530 955 525 952 523 945 L452 792 C449 785 451 776 460 772 L503 754 L503 754 Z " />
<glyph glyph-name="ohungarumlaut" unicode="&#x151;" horiz-adv-x="572" d="M30 250 C30 106 141 -10 286 -10 C429 -10 542 106 542 250 C542 394 429 510 286 510 C141 510 30 394 30 250 L30 250 Z M140 250 C140 334 202 402 286 402 C369 402 431 334 431 250 C431 166 369 98 286 98 C202 98 140 166 140 250 L140 250 Z M215 545 C218 544 221 544 223 544 C229 544 233 546 237 552 L328 704 C332 711 332 719 321 722 L256 745 C253 746 251 746 249 746 C242 746 237 743 235 736 L164 583 C161 576 163 567 172 563 L215 545 L215 545 Z M395 545 C398 544 401 544 403 544 C409 544 413 546 417 552 L511 703 C515 710 514 718 505 721 L436 745 C433 746 431 746 429 746 C422 746 417 743 415 736 L344 583 C341 576 343 567 352 563 L395 545 L395 545 Z " />
<glyph glyph-name="OE" unicode="&#x152;" horiz-adv-x="1136" d="M392 101 C256 101 149 214 149 349 C149 483 256 598 392 598 C529 598 637 483 637 349 C637 214 529 101 392 101 L392 101 Z M1080 -10 C1091 -10 1096 -5 1096 5 L1096 86 C1096 96 1091 101 1080 101 L624 101 C710 150 740 229 745 295 L1044 295 C1055 295 1061 300 1061 310 L1061 391 C1061 401 1055 406 1044 406 L745 406 C738 481 696 558 624 598 L1080 598 C1091 598 1096 603 1096 614 L1096 694 C1096 705 1091 710 1080 710 L394 710 C191 710 35 551 35 349 C35 150 190 -10 401 -10 L1080 -10 L1080 -10 Z " />
<glyph glyph-name="oe" unicode="&#x153;" horiz-adv-x="951" d="M431 250 C431 166 369 98 286 98 C202 98 140 166 140 250 C140 334 202 402 286 402 C369 402 431 334 431 250 L431 250 Z M489 107 C526 38 600 -10 688 -10 C764 -10 823 10 872 41 C880 45 882 52 877 61 L839 114 C836 118 832 121 827 121 C825 121 821 120 818 118 C779 97 742 86 691 86 C608 86 555 138 538 211 L903 211 C916 211 921 218 921 229 C921 377 835 510 675 510 C590 510 525 465 486 396 C445 467 370 510 286 510 C141 510 30 394 30 250 C30 106 141 -10 286 -10 C377 -10 448 38 489 107 L489 107 Z M539 294 C552 367 600 421 675 421 C755 421 799 366 812 294 L539 294 Z " />
<glyph glyph-name="Racute" unicode="&#x154;" horiz-adv-x="599" d="M302 595 C393 595 442 539 442 470 C442 400 393 345 302 345 L194 345 L194 595 L302 595 L302 595 Z M401 258 C457 274 557 339 557 470 C557 598 465 700 328 700 L95 700 C85 700 80 695 80 685 L80 15 C80 5 85 0 95 0 L179 0 C189 0 194 5 194 15 L194 240 L282 240 L436 15 C443 5 452 0 463 0 L557 0 C570 0 572 5 565 16 L401 258 L401 258 Z M300 755 C302 754 305 754 307 754 C312 754 317 756 320 761 L414 914 C418 921 418 929 407 932 L340 955 C338 956 335 956 333 956 C327 956 323 953 321 946 L249 794 C245 785 247 779 255 775 L300 755 L300 755 Z " />
<glyph glyph-name="racute" unicode="&#x155;" horiz-adv-x="408" d="M90 500 C80 500 75 495 75 485 L75 15 C75 5 80 0 90 0 L173 0 C183 0 188 5 188 15 L188 235 C188 328 242 399 312 399 C328 399 342 397 358 390 C361 389 363 389 365 389 C371 389 375 391 377 397 L400 473 C403 484 403 490 394 495 C373 506 346 510 323 510 C259 510 207 457 188 406 L188 485 C188 493 184 500 173 500 L90 500 L90 500 Z M248 552 C250 551 253 551 255 551 C260 551 265 553 268 558 L362 711 C366 718 366 726 355 729 L288 752 C286 753 283 753 281 753 C275 753 271 750 269 743 L197 591 C193 582 195 576 203 572 L248 552 L248 552 Z " />
<glyph glyph-name="uni0156" unicode="&#x156;" horiz-adv-x="599" d="M243 -250 C242 -259 245 -263 254 -263 L321 -263 C330 -263 336 -259 338 -251 L377 -62 C378 -53 375 -49 367 -49 L286 -49 C277 -49 272 -53 271 -62 L243 -250 L243 -250 Z M303 595 C394 595 443 539 443 470 C443 400 394 345 303 345 L194 345 L194 595 L303 595 L303 595 Z M401 258 C457 274 557 339 557 470 C557 598 465 700 328 700 L95 700 C85 700 80 695 80 685 L80 15 C80 5 85 0 95 0 L179 0 C189 0 194 5 194 15 L194 240 L282 240 L436 15 C443 5 452 0 463 0 L557 0 C570 0 572 5 565 16 L401 258 L401 258 Z " />
<glyph glyph-name="uni0157" unicode="&#x157;" horiz-adv-x="409" d="M49 -250 C48 -259 51 -263 60 -263 L127 -263 C136 -263 142 -259 144 -251 L183 -62 C185 -53 182 -49 173 -49 L92 -49 C84 -49 79 -53 78 -62 L49 -250 L49 -250 Z M90 500 C80 500 75 495 75 485 L75 15 C75 5 80 0 90 0 L173 0 C183 0 188 5 188 15 L188 235 C188 328 242 399 312 399 C328 399 342 397 358 390 C361 389 363 389 365 389 C371 389 375 391 377 397 L400 473 C403 484 403 490 394 495 C373 506 346 510 323 510 C259 510 207 457 188 406 L188 485 C188 493 184 500 173 500 L90 500 L90 500 Z " />
<glyph glyph-name="Rcaron" unicode="&#x158;" horiz-adv-x="599" d="M302 595 C393 595 442 539 442 470 C442 400 393 345 302 345 L194 345 L194 595 L302 595 L302 595 Z M401 258 C457 274 557 339 557 470 C557 598 465 700 328 700 L95 700 C85 700 80 695 80 685 L80 15 C80 5 85 0 95 0 L179 0 C189 0 194 5 194 15 L194 240 L282 240 L436 15 C443 5 452 0 463 0 L557 0 C570 0 572 5 565 16 L401 258 L401 258 Z M321 760 C334 760 342 767 350 775 L461 897 C467 904 467 911 460 919 L435 950 C432 953 428 955 424 955 C420 955 416 953 412 949 L296 840 L179 949 C175 953 171 955 167 955 C164 955 160 953 157 950 L132 919 C125 912 124 904 130 897 L242 775 C250 767 258 760 270 760 L321 760 L321 760 Z " />
<glyph glyph-name="rcaron" unicode="&#x159;" horiz-adv-x="409" d="M90 500 C80 500 75 495 75 485 L75 15 C75 5 80 0 90 0 L173 0 C183 0 188 5 188 15 L188 235 C188 328 242 399 312 399 C328 399 342 397 358 390 C361 389 363 389 365 389 C371 389 375 391 377 397 L400 473 C403 484 403 490 394 495 C373 506 346 510 323 510 C259 510 207 457 188 406 L188 485 C188 493 184 500 173 500 L90 500 L90 500 Z M267 554 C280 554 288 561 296 569 L407 691 C413 698 413 705 406 713 L381 744 C378 747 374 749 370 749 C366 749 362 747 358 743 L242 634 L125 743 C121 747 117 749 113 749 C110 749 106 747 103 744 L78 713 C71 706 70 698 76 691 L188 569 C196 561 204 554 216 554 L267 554 L267 554 Z " />
<glyph glyph-name="Sacute" unicode="&#x15a;" horiz-adv-x="542" d="M471 632 C476 641 475 648 466 653 C410 689 348 710 279 710 C154 710 51 635 51 519 C51 279 387 337 387 193 C387 140 347 100 268 100 C212 100 149 126 105 161 C101 164 97 166 94 166 C89 166 85 163 82 158 L38 93 C31 84 36 77 43 72 C104 24 178 -10 266 -10 C431 -10 502 99 502 194 C502 438 166 386 166 520 C166 569 215 600 274 600 C319 600 365 582 402 559 C406 556 410 555 413 555 C418 555 423 559 426 563 L471 632 L471 632 Z M288 755 C290 754 293 754 295 754 C300 754 305 756 308 761 L402 914 C406 921 406 929 395 932 L328 955 C326 956 323 956 321 956 C315 956 311 953 309 946 L237 794 C233 785 235 779 243 775 L288 755 L288 755 Z " />
<glyph glyph-name="sacute" unicode="&#x15b;" horiz-adv-x="438" d="M102 132 C98 136 93 138 89 138 C85 138 81 136 77 132 L37 89 C28 80 28 72 35 65 C82 17 145 -10 217 -10 C331 -10 405 58 405 143 C405 319 149 297 149 369 C149 401 187 412 223 412 C258 412 291 402 316 383 C320 380 324 379 327 379 C331 379 335 380 339 384 L382 431 C389 438 389 445 382 452 C347 483 289 510 221 510 C120 510 44 449 44 367 C44 199 301 223 301 139 C301 103 263 87 219 87 C168 87 137 101 102 132 L102 132 Z M236 552 C238 551 241 551 243 551 C248 551 253 553 256 558 L350 711 C354 718 354 726 343 729 L276 752 C274 753 271 753 269 753 C263 753 259 750 257 743 L185 591 C181 582 183 576 191 572 L236 552 L236 552 Z " />
<glyph glyph-name="Scircumflex" unicode="&#x15c;" horiz-adv-x="542" d="M471 632 C476 641 475 648 466 653 C410 689 348 710 279 710 C154 710 51 635 51 519 C51 279 387 337 387 193 C387 140 347 100 268 100 C212 100 149 126 105 161 C101 164 97 166 94 166 C89 166 85 163 82 158 L38 93 C31 84 36 77 43 72 C104 24 178 -10 266 -10 C431 -10 502 99 502 194 C502 438 166 386 166 520 C166 569 215 600 274 600 C319 600 365 582 402 559 C406 556 410 555 413 555 C418 555 423 559 426 563 L471 632 L471 632 Z M245 941 C233 941 224 934 217 926 L105 804 C98 797 100 789 107 782 L132 751 C135 748 138 746 142 746 C146 746 151 749 154 752 L271 861 L387 752 C391 748 395 746 399 746 C403 746 407 748 410 751 L435 782 C442 790 443 797 436 804 L325 926 C317 934 309 941 296 941 L245 941 L245 941 Z " />
<glyph glyph-name="scircumflex" unicode="&#x15d;" horiz-adv-x="438" d="M102 132 C98 136 93 138 89 138 C85 138 81 136 77 132 L37 89 C28 80 28 72 35 65 C82 17 145 -10 217 -10 C331 -10 405 58 405 143 C405 319 149 297 149 369 C149 401 187 412 223 412 C258 412 291 402 316 383 C320 380 324 379 327 379 C331 379 335 380 339 384 L382 431 C389 438 389 445 382 452 C347 483 289 510 221 510 C120 510 44 449 44 367 C44 199 301 223 301 139 C301 103 263 87 219 87 C168 87 137 101 102 132 L102 132 Z M195 746 C183 746 174 739 167 731 L55 609 C48 602 50 594 57 587 L82 556 C85 553 88 551 92 551 C96 551 101 554 104 557 L221 666 L337 557 C341 553 345 551 349 551 C353 551 357 553 360 556 L385 587 C392 595 393 602 386 609 L275 731 C267 739 259 746 246 746 L195 746 L195 746 Z " />
<glyph glyph-name="Scedilla" unicode="&#x15e;" horiz-adv-x="542" d="M194 -163 C191 -170 197 -176 205 -176 L278 -176 C287 -176 293 -172 295 -164 L325 -3 C433 15 502 97 502 194 C502 438 166 386 166 520 C166 570 218 600 274 600 C321 600 366 582 402 559 C406 556 410 555 413 555 C418 555 423 559 426 563 L471 632 C476 641 475 648 466 653 C410 689 348 710 279 710 C154 710 51 635 51 519 C51 279 387 338 387 193 C387 140 347 100 268 100 C212 100 149 126 105 161 C101 164 97 166 94 166 C89 166 85 163 82 158 L38 93 C31 84 36 77 43 72 C96 31 157 -2 240 -9 L194 -163 L194 -163 Z " />
<glyph glyph-name="scedilla" unicode="&#x15f;" horiz-adv-x="438" d="M271 -4 C359 15 405 75 405 143 C405 319 149 297 149 369 C149 401 187 412 223 412 C254 412 285 404 316 383 C321 380 325 378 328 378 C332 378 335 380 339 384 L382 431 C389 438 389 445 382 452 C347 483 289 510 221 510 C120 510 44 449 44 367 C44 199 301 223 301 139 C301 104 264 87 219 87 C171 87 138 100 102 132 C98 136 93 138 89 138 C85 138 81 136 77 132 L37 89 C28 80 28 72 35 65 C70 30 118 -1 187 -8 L140 -163 C137 -170 144 -176 152 -176 L225 -176 C234 -176 240 -172 242 -164 L271 -4 L271 -4 Z " />
<glyph glyph-name="Scaron" unicode="&#x160;" horiz-adv-x="542" d="M471 632 C476 641 475 648 466 653 C410 689 348 710 279 710 C154 710 51 635 51 519 C51 279 387 337 387 193 C387 140 347 100 268 100 C212 100 149 126 105 161 C101 164 97 166 94 166 C89 166 85 163 82 158 L38 93 C31 84 36 77 43 72 C104 24 178 -10 266 -10 C431 -10 502 99 502 194 C502 438 166 386 166 520 C166 569 215 600 274 600 C319 600 365 582 402 559 C406 556 410 555 413 555 C418 555 423 559 426 563 L471 632 L471 632 Z M299 760 C312 760 320 767 328 775 L439 897 C445 904 445 911 438 919 L413 950 C410 953 406 955 402 955 C398 955 394 953 390 949 L274 840 L157 949 C153 953 149 955 145 955 C142 955 138 953 135 950 L110 919 C103 912 102 904 108 897 L220 775 C228 767 236 760 248 760 L299 760 L299 760 Z " />
<glyph glyph-name="scaron" unicode="&#x161;" horiz-adv-x="438" d="M102 132 C98 136 93 138 89 138 C85 138 81 136 77 132 L37 89 C28 80 28 72 35 65 C82 17 145 -10 217 -10 C331 -10 405 58 405 143 C405 319 149 297 149 369 C149 401 187 412 223 412 C258 412 291 402 316 383 C320 380 324 379 327 379 C331 379 335 380 339 384 L382 431 C389 438 389 445 382 452 C347 483 289 510 221 510 C120 510 44 449 44 367 C44 199 301 223 301 139 C301 103 263 87 219 87 C168 87 137 101 102 132 L102 132 Z M248 554 C261 554 269 561 277 569 L388 691 C394 698 394 705 387 713 L362 744 C359 747 355 749 351 749 C347 749 343 747 339 743 L223 634 L106 743 C102 747 98 749 94 749 C91 749 87 747 84 744 L59 713 C52 706 51 698 57 691 L169 569 C177 561 185 554 197 554 L248 554 L248 554 Z " />
<glyph glyph-name="uni0162" unicode="&#x162;" horiz-adv-x="580" d="M332 0 C342 0 347 5 347 15 L347 588 L540 588 C550 588 555 593 555 603 L555 685 C555 695 550 700 540 700 L40 700 C30 700 25 695 25 685 L25 603 C25 593 30 588 40 588 L233 588 L233 15 C233 5 238 0 248 0 L332 0 L332 0 Z M208 -250 C207 -259 210 -263 219 -263 L286 -263 C295 -263 301 -259 303 -251 L342 -62 C343 -53 340 -49 332 -49 L251 -49 C242 -49 237 -53 236 -62 L208 -250 L208 -250 Z " />
<glyph glyph-name="uni0163" unicode="&#x163;" horiz-adv-x="409" d="M342 108 C339 113 336 115 333 115 C331 115 328 114 326 113 C307 102 293 98 270 98 C238 98 215 113 215 150 L215 396 L337 396 C346 396 351 401 351 411 L351 485 C351 495 346 500 336 500 L215 500 L215 633 C215 641 211 648 200 648 L117 648 C107 648 102 643 102 633 L102 500 L52 500 C44 500 37 496 37 485 L37 411 C37 400 44 396 52 396 L102 396 L102 136 C102 41 156 -10 251 -10 C291 -10 327 -3 367 20 C378 27 377 31 374 39 L342 108 L342 108 Z M126 -250 C125 -259 128 -263 137 -263 L204 -263 C213 -263 219 -259 221 -251 L260 -62 C261 -53 258 -49 250 -49 L169 -49 C160 -49 155 -53 154 -62 L126 -250 L126 -250 Z " />
<glyph glyph-name="Tcaron" unicode="&#x164;" horiz-adv-x="580" d="M332 0 C342 0 347 5 347 15 L347 588 L540 588 C550 588 555 593 555 603 L555 685 C555 695 550 700 540 700 L40 700 C30 700 25 695 25 685 L25 603 C25 593 30 588 40 588 L233 588 L233 15 C233 5 238 0 248 0 L332 0 L332 0 Z M315 760 C328 760 336 767 344 775 L455 897 C461 904 461 911 454 919 L429 950 C426 953 422 955 418 955 C414 955 410 953 406 949 L290 840 L173 949 C169 953 165 955 161 955 C158 955 154 953 151 950 L126 919 C119 912 118 904 124 897 L236 775 C244 767 252 760 264 760 L315 760 L315 760 Z " />
<glyph glyph-name="tcaron" unicode="&#x165;" horiz-adv-x="448" d="M282 571 C281 564 285 559 293 559 L360 559 C369 559 375 563 377 571 L416 760 C417 768 414 772 406 772 L325 772 C316 772 311 768 310 759 L282 571 L282 571 Z M342 108 C339 113 336 115 333 115 C331 115 328 114 326 113 C307 102 293 98 270 98 C238 98 215 113 215 150 L215 396 L337 396 C346 396 351 401 351 411 L351 485 C351 495 346 500 336 500 L215 500 L215 633 C215 641 211 648 200 648 L117 648 C107 648 102 643 102 633 L102 500 L52 500 C44 500 37 496 37 485 L37 411 C37 400 44 396 52 396 L102 396 L102 136 C102 41 156 -10 251 -10 C291 -10 327 -3 367 20 C378 27 377 31 374 39 L342 108 L342 108 Z " />
<glyph glyph-name="Tbar" unicode="&#x166;" horiz-adv-x="580" d="M233 15 C233 5 238 0 248 0 L332 0 C342 0 347 5 347 15 L347 271 L510 271 C520 271 525 276 525 286 L525 368 C525 378 520 383 510 383 L347 383 L347 588 L540 588 C550 588 555 593 555 603 L555 685 C555 695 550 700 540 700 L40 700 C30 700 25 695 25 685 L25 603 C25 593 30 588 40 588 L233 588 L233 383 L69 383 C59 383 54 378 54 368 L54 286 C54 276 59 271 69 271 L233 271 L233 15 Z " />
<glyph glyph-name="tbar" unicode="&#x167;" horiz-adv-x="409" d="M291 243 C302 243 306 250 306 258 L306 282 C306 292 301 297 291 297 L215 297 L215 396 L337 396 C346 396 351 401 351 411 L351 485 C351 495 346 500 336 500 L215 500 L215 633 C215 641 211 648 200 648 L117 648 C107 648 102 643 102 633 L102 500 L52 500 C44 500 37 496 37 485 L37 411 C37 400 44 396 52 396 L102 396 L102 297 L70 297 C60 297 55 292 55 282 L55 258 C55 248 60 243 70 243 L102 243 L102 136 C102 41 156 -10 251 -10 C291 -10 327 -3 367 20 C378 27 377 31 374 39 L342 108 C339 113 336 115 333 115 C331 115 328 114 326 113 C307 102 293 98 270 98 C238 98 215 113 215 150 L215 243 L291 243 Z " />
<glyph glyph-name="Utilde" unicode="&#x168;" horiz-adv-x="692" d="M87 700 C77 700 72 695 72 685 L72 269 C72 112 173 -10 346 -10 C517 -10 619 112 619 269 L619 685 C619 695 614 700 604 700 L520 700 C510 700 505 695 505 685 L505 289 C505 173 450 101 346 101 C242 101 187 173 187 289 L187 685 C187 695 182 700 172 700 L87 700 L87 700 Z M416 869 C369 869 339 929 272 929 C237 929 198 905 170 874 C164 868 162 860 165 851 L179 799 C181 794 183 790 187 790 C189 790 191 791 194 794 C218 819 246 848 277 848 C324 848 354 788 421 788 C456 788 495 812 522 843 C528 849 530 857 527 866 L514 918 C512 924 509 927 506 927 C504 927 501 926 498 923 C475 898 445 869 416 869 L416 869 Z " />
<glyph glyph-name="utilde" unicode="&#x169;" horiz-adv-x="609" d="M80 500 C70 500 65 495 65 485 L65 219 C65 76 128 -10 256 -10 C338 -10 392 43 421 88 L421 15 C421 5 426 0 436 0 L519 0 C529 0 534 5 534 15 L534 485 C534 495 529 500 519 500 L436 500 C426 500 421 495 421 485 L421 234 C421 166 367 98 294 98 C213 98 178 156 178 240 L178 485 C178 495 173 500 163 500 L80 500 L80 500 Z M369 677 C322 677 292 737 225 737 C190 737 151 713 123 682 C117 676 115 668 118 659 L132 607 C134 602 136 598 140 598 C142 598 144 599 147 602 C171 627 199 656 230 656 C277 656 307 596 374 596 C409 596 448 620 475 651 C481 657 483 665 480 674 L467 726 C465 732 462 735 459 735 C457 735 454 734 451 731 C428 706 398 677 369 677 L369 677 Z " />
<glyph glyph-name="Umacron" unicode="&#x16a;" horiz-adv-x="692" d="M87 700 C77 700 72 695 72 685 L72 269 C72 112 173 -10 346 -10 C517 -10 619 112 619 269 L619 685 C619 695 614 700 604 700 L520 700 C510 700 505 695 505 685 L505 289 C505 173 450 101 346 101 C242 101 187 173 187 289 L187 685 C187 695 182 700 172 700 L87 700 L87 700 Z M197 823 C197 813 202 808 212 808 L480 808 C490 808 495 813 495 823 L495 887 C495 897 490 902 480 902 L212 902 C202 902 197 897 197 887 L197 823 L197 823 Z " />
<glyph glyph-name="umacron" unicode="&#x16b;" horiz-adv-x="609" d="M80 500 C70 500 65 495 65 485 L65 219 C65 76 128 -10 256 -10 C338 -10 392 43 421 88 L421 15 C421 5 426 0 436 0 L519 0 C529 0 534 5 534 15 L534 485 C534 495 529 500 519 500 L436 500 C426 500 421 495 421 485 L421 234 C421 166 367 98 294 98 C213 98 178 156 178 240 L178 485 C178 495 173 500 163 500 L80 500 L80 500 Z M149 626 C149 616 154 611 164 611 L432 611 C442 611 447 616 447 626 L447 690 C447 700 442 705 432 705 L164 705 C154 705 149 700 149 690 L149 626 L149 626 Z " />
<glyph glyph-name="Ubreve" unicode="&#x16c;" horiz-adv-x="692" d="M87 700 C77 700 72 695 72 685 L72 269 C72 112 173 -10 346 -10 C517 -10 619 112 619 269 L619 685 C619 695 614 700 604 700 L520 700 C510 700 505 695 505 685 L505 289 C505 173 450 101 346 101 C242 101 187 173 187 289 L187 685 C187 695 182 700 172 700 L87 700 L87 700 Z M508 904 C508 909 504 913 497 915 L443 925 C435 925 433 922 432 915 C429 874 402 842 346 842 C290 842 262 874 259 915 C258 922 256 925 248 925 L195 915 C188 914 184 911 184 904 C188 811 254 760 346 760 C438 760 504 811 508 904 L508 904 Z " />
<glyph glyph-name="ubreve" unicode="&#x16d;" horiz-adv-x="609" d="M80 500 C70 500 65 495 65 485 L65 219 C65 76 128 -10 256 -10 C338 -10 392 43 421 88 L421 15 C421 5 426 0 436 0 L519 0 C529 0 534 5 534 15 L534 485 C534 495 529 500 519 500 L436 500 C426 500 421 495 421 485 L421 234 C421 166 367 98 294 98 C213 98 178 156 178 240 L178 485 C178 495 173 500 163 500 L80 500 L80 500 Z M465 703 C465 708 461 712 454 714 L400 724 C392 724 390 721 389 714 C386 673 359 641 303 641 C247 641 219 673 216 714 C215 721 213 724 205 724 L152 714 C145 713 141 710 141 703 C145 610 211 559 303 559 C395 559 461 610 465 703 L465 703 Z " />
<glyph glyph-name="Uring" unicode="&#x16e;" horiz-adv-x="692" d="M87 700 C77 700 72 695 72 685 L72 269 C72 112 173 -10 346 -10 C517 -10 619 112 619 269 L619 685 C619 695 614 700 604 700 L520 700 C510 700 505 695 505 685 L505 289 C505 173 450 101 346 101 C242 101 187 173 187 289 L187 685 C187 695 182 700 172 700 L87 700 L87 700 Z M227 861 C227 795 281 741 346 741 C412 741 465 795 465 861 C465 926 412 980 346 980 C281 980 227 926 227 861 L227 861 Z M298 861 C298 888 319 910 346 910 C373 910 395 888 395 861 C395 834 373 812 346 812 C319 812 298 834 298 861 L298 861 Z " />
<glyph glyph-name="uring" unicode="&#x16f;" horiz-adv-x="609" d="M80 500 C70 500 65 495 65 485 L65 219 C65 76 128 -10 256 -10 C338 -10 392 43 421 88 L421 15 C421 5 426 0 436 0 L519 0 C529 0 534 5 534 15 L534 485 C534 495 529 500 519 500 L436 500 C426 500 421 495 421 485 L421 234 C421 166 367 98 294 98 C213 98 178 156 178 240 L178 485 C178 495 173 500 163 500 L80 500 L80 500 Z M178 670 C178 604 232 550 297 550 C363 550 416 604 416 670 C416 735 363 789 297 789 C232 789 178 735 178 670 L178 670 Z M249 670 C249 697 270 719 297 719 C324 719 346 697 346 670 C346 643 324 621 297 621 C270 621 249 643 249 670 L249 670 Z " />
<glyph glyph-name="Uhungarumlaut" unicode="&#x170;" horiz-adv-x="692" d="M87 700 C77 700 72 695 72 685 L72 269 C72 112 173 -10 346 -10 C517 -10 619 112 619 269 L619 685 C619 695 614 700 604 700 L520 700 C510 700 505 695 505 685 L505 289 C505 173 450 101 346 101 C242 101 187 173 187 289 L187 685 C187 695 182 700 172 700 L87 700 L87 700 Z M259 754 C262 753 265 753 267 753 C273 753 277 755 281 761 L372 913 C376 920 376 928 365 931 L300 954 C297 955 295 955 293 955 C286 955 281 952 279 945 L208 792 C205 785 207 776 216 772 L259 754 L259 754 Z M439 754 C442 753 445 753 447 753 C453 753 457 755 461 761 L555 912 C559 919 558 927 549 930 L480 954 C477 955 475 955 473 955 C466 955 461 952 459 945 L388 792 C385 785 387 776 396 772 L439 754 L439 754 Z " />
<glyph glyph-name="uhungarumlaut" unicode="&#x171;" horiz-adv-x="609" d="M80 500 C70 500 65 495 65 485 L65 219 C65 76 128 -10 256 -10 C338 -10 392 43 421 88 L421 15 C421 5 426 0 436 0 L519 0 C529 0 534 5 534 15 L534 485 C534 495 529 500 519 500 L436 500 C426 500 421 495 421 485 L421 234 C421 166 367 98 294 98 C213 98 178 156 178 240 L178 485 C178 495 173 500 163 500 L80 500 L80 500 Z M215 535 C218 534 221 534 223 534 C229 534 233 536 237 542 L328 694 C332 701 332 709 321 712 L256 735 C253 736 251 736 249 736 C242 736 237 733 235 726 L164 573 C161 566 163 557 172 553 L215 535 L215 535 Z M395 535 C398 534 401 534 403 534 C409 534 413 536 417 542 L511 693 C515 700 514 708 505 711 L436 735 C433 736 431 736 429 736 C422 736 417 733 415 726 L344 573 C341 566 343 557 352 553 L395 535 L395 535 Z " />
<glyph glyph-name="Uogonek" unicode="&#x172;" horiz-adv-x="692" d="M310 -8 C233 -83 278 -199 398 -199 C409 -199 420 -198 432 -196 C438 -195 441 -191 441 -183 L440 -129 C440 -121 436 -120 429 -120 C421 -122 413 -123 405 -123 C337 -123 325 -47 383 -8 C550 11 619 145 619 269 L619 685 C619 695 614 700 604 700 L520 700 C510 700 505 695 505 685 L505 289 C505 173 450 101 346 101 C242 101 187 173 187 289 L187 685 C187 695 182 700 172 700 L87 700 C77 700 72 695 72 685 L72 269 C72 122 155 8 310 -8 L310 -8 Z " />
<glyph glyph-name="uogonek" unicode="&#x173;" horiz-adv-x="609" d="M421 15 C421 5 426 0 436 0 L455 0 C369 -74 410 -199 533 -199 C543 -199 554 -198 565 -196 C571 -195 574 -191 574 -184 L573 -129 C573 -121 569 -120 562 -120 C555 -121 549 -122 543 -122 C475 -122 469 -41 525 0 C533 0 534 7 534 15 L534 484 C534 495 529 500 519 500 L436 500 C426 500 421 495 421 485 L421 234 C421 166 367 98 294 98 C213 98 178 156 178 240 L178 485 C178 495 173 500 163 500 L80 500 C70 500 65 495 65 485 L65 219 C65 76 128 -10 256 -10 C338 -10 392 43 421 88 L421 15 L421 15 Z " />
<glyph glyph-name="Wcircumflex" unicode="&#x174;" horiz-adv-x="931" d="M729 0 C739 0 745 5 748 15 L915 684 C918 695 914 700 904 700 L810 700 C799 700 793 695 791 684 L669 181 L533 688 C530 696 524 700 516 700 L415 700 C407 700 402 696 399 688 L262 181 L141 684 C138 695 134 700 121 700 L27 700 C17 700 13 695 16 684 L184 15 C186 5 192 0 203 0 L309 0 C321 0 328 5 330 15 L466 524 L601 15 C604 5 611 0 623 0 L729 0 L729 0 Z M440 941 C428 941 419 934 412 926 L300 804 C293 797 295 789 302 782 L327 751 C330 748 333 746 337 746 C341 746 346 749 349 752 L466 861 L582 752 C586 748 590 746 594 746 C598 746 602 748 605 751 L630 782 C637 790 638 797 631 804 L520 926 C512 934 504 941 491 941 L440 941 L440 941 Z " />
<glyph glyph-name="wcircumflex" unicode="&#x175;" horiz-adv-x="720" d="M127 485 C125 495 119 500 110 500 L26 500 C17 500 14 495 17 485 C37 398 55 320 72 251 C85 191 99 134 110 90 L127 17 C130 6 137 0 147 0 L254 0 C266 0 271 8 274 17 L360 363 L445 17 C448 8 455 0 466 0 L573 0 C584 0 589 8 592 17 L703 485 C706 495 702 500 693 500 L610 500 C601 500 595 495 592 485 L512 145 L424 483 C421 494 414 500 405 500 L314 500 C304 500 298 494 296 483 L251 313 C229 227 207 144 207 145 L127 485 L127 485 Z M334 730 C322 730 313 723 306 715 L194 593 C187 586 189 578 196 571 L221 540 C224 537 227 535 231 535 C235 535 240 538 243 541 L360 650 L476 541 C480 537 484 535 488 535 C492 535 496 537 499 540 L524 571 C531 579 532 586 525 593 L414 715 C406 723 398 730 385 730 L334 730 L334 730 Z " />
<glyph glyph-name="Ycircumflex" unicode="&#x176;" horiz-adv-x="596" d="M142 691 C139 697 133 700 125 700 L26 700 C18 700 16 692 20 685 L241 341 L241 15 C241 5 246 0 256 0 L341 0 C351 0 356 5 356 15 L356 341 L576 685 C580 692 578 700 570 700 L472 700 C465 700 459 697 455 691 L298 441 L142 691 L142 691 Z M272 941 C260 941 251 934 244 926 L132 804 C125 797 127 789 134 782 L159 751 C162 748 165 746 169 746 C173 746 178 749 181 752 L298 861 L414 752 C418 748 422 746 426 746 C430 746 434 748 437 751 L462 782 C469 790 470 797 463 804 L352 926 C344 934 336 941 323 941 L272 941 L272 941 Z " />
<glyph glyph-name="ycircumflex" unicode="&#x177;" horiz-adv-x="610" d="M535 485 C535 495 530 500 520 500 L437 500 C427 500 422 495 422 485 L422 244 C422 175 372 108 295 108 C215 108 179 166 179 250 L179 485 C179 495 174 500 164 500 L81 500 C71 500 66 495 66 485 L66 229 C66 86 130 0 258 0 C334 0 401 48 422 93 L422 10 C422 -73 381 -147 274 -147 C218 -147 171 -124 143 -88 C140 -86 137 -84 134 -84 C131 -84 127 -86 124 -90 L80 -148 C75 -155 75 -161 81 -168 C120 -217 193 -255 277 -255 C436 -255 535 -138 535 21 L535 485 L535 485 Z M275 746 C263 746 254 739 247 731 L135 609 C128 602 130 594 137 587 L162 556 C165 553 168 551 172 551 C176 551 181 554 184 557 L301 666 L417 557 C421 553 425 551 429 551 C433 551 437 553 440 556 L465 587 C472 595 473 602 466 609 L355 731 C347 739 339 746 326 746 L275 746 L275 746 Z " />
<glyph glyph-name="Ydieresis" unicode="&#x178;" horiz-adv-x="596" d="M142 691 C139 697 133 700 125 700 L26 700 C18 700 16 692 20 685 L241 341 L241 15 C241 5 246 0 256 0 L341 0 C351 0 356 5 356 15 L356 341 L576 685 C580 692 578 700 570 700 L472 700 C465 700 459 697 455 691 L298 441 L142 691 L142 691 Z M125 838 C125 802 153 773 189 773 C226 773 255 802 255 838 C255 874 226 903 189 903 C153 903 125 874 125 838 L125 838 Z M340 838 C340 802 368 773 404 773 C441 773 470 802 470 838 C470 874 441 903 404 903 C368 903 340 874 340 838 L340 838 Z " />
<glyph glyph-name="Zacute" unicode="&#x179;" horiz-adv-x="605" d="M42 15 C42 5 47 0 57 0 L548 0 C558 0 563 5 563 15 L563 97 C563 107 558 112 548 112 L195 112 L547 593 C551 600 552 602 552 613 L552 685 C552 695 547 700 537 700 L71 700 C61 700 56 695 56 685 L56 603 C56 593 61 588 71 588 L402 588 L55 113 C47 102 42 94 42 79 L42 15 L42 15 Z M306 756 C308 755 311 755 313 755 C318 755 323 757 326 762 L420 915 C424 922 424 930 413 933 L346 956 C344 957 341 957 339 957 C333 957 329 954 327 947 L255 795 C251 786 253 780 261 776 L306 756 L306 756 Z " />
<glyph glyph-name="zacute" unicode="&#x17a;" horiz-adv-x="468" d="M35 15 C35 5 40 0 50 0 L418 0 C428 0 433 5 433 15 L433 87 C433 97 428 102 418 102 L183 102 L407 405 C415 416 420 426 420 443 L420 485 C420 495 415 500 405 500 L63 500 C53 500 48 495 48 485 L48 413 C48 403 53 398 63 398 L273 398 L48 93 C39 84 35 72 35 59 L35 15 L35 15 Z M243 552 C245 551 248 551 250 551 C255 551 260 553 263 558 L357 711 C361 718 361 726 350 729 L283 752 C281 753 278 753 276 753 C270 753 266 750 264 743 L192 591 C188 582 190 576 198 572 L243 552 L243 552 Z " />
<glyph glyph-name="Zdotaccent" unicode="&#x17b;" horiz-adv-x="605" d="M42 15 C42 5 47 0 57 0 L548 0 C558 0 563 5 563 15 L563 97 C563 107 558 112 548 112 L195 112 L547 593 C551 600 552 602 552 613 L552 685 C552 695 547 700 537 700 L71 700 C61 700 56 695 56 685 L56 603 C56 593 61 588 71 588 L402 588 L55 113 C47 102 42 94 42 79 L42 15 L42 15 Z M238 878 C238 841 266 813 303 813 C340 813 369 841 369 878 C369 915 340 944 303 944 C266 944 238 915 238 878 L238 878 Z " />
<glyph glyph-name="zdotaccent" unicode="&#x17c;" horiz-adv-x="468" d="M35 15 C35 5 40 0 50 0 L418 0 C428 0 433 5 433 15 L433 87 C433 97 428 102 418 102 L183 102 L407 405 C415 416 420 426 420 443 L420 485 C420 495 415 500 405 500 L63 500 C53 500 48 495 48 485 L48 413 C48 403 53 398 63 398 L273 398 L48 93 C39 84 35 72 35 59 L35 15 L35 15 Z M165 671 C165 634 193 606 230 606 C267 606 296 634 296 671 C296 708 267 737 230 737 C193 737 165 708 165 671 L165 671 Z " />
<glyph glyph-name="Zcaron" unicode="&#x17d;" horiz-adv-x="605" d="M42 15 C42 5 47 0 57 0 L548 0 C558 0 563 5 563 15 L563 97 C563 107 558 112 548 112 L195 112 L547 593 C551 600 552 602 552 613 L552 685 C552 695 547 700 537 700 L71 700 C61 700 56 695 56 685 L56 603 C56 593 61 588 71 588 L402 588 L55 113 C47 102 42 94 42 79 L42 15 L42 15 Z M331 760 C344 760 352 767 360 775 L471 897 C477 904 477 911 470 919 L445 950 C442 953 438 955 434 955 C430 955 426 953 422 949 L306 840 L189 949 C185 953 181 955 177 955 C174 955 170 953 167 950 L142 919 C135 912 134 904 140 897 L252 775 C260 767 268 760 280 760 L331 760 L331 760 Z " />
<glyph glyph-name="zcaron" unicode="&#x17e;" horiz-adv-x="468" d="M35 15 C35 5 40 0 50 0 L418 0 C428 0 433 5 433 15 L433 87 C433 97 428 102 418 102 L183 102 L407 405 C415 416 420 426 420 443 L420 485 C420 495 415 500 405 500 L63 500 C53 500 48 495 48 485 L48 413 C48 403 53 398 63 398 L273 398 L48 93 C39 84 35 72 35 59 L35 15 L35 15 Z M262 548 C275 548 283 555 291 563 L402 685 C408 692 408 699 401 707 L376 738 C373 741 369 743 365 743 C361 743 357 741 353 737 L237 628 L120 737 C116 741 112 743 108 743 C105 743 101 741 98 738 L73 707 C66 700 65 692 71 685 L183 563 C191 555 199 548 211 548 L262 548 L262 548 Z " />
<glyph glyph-name="longs" unicode="&#x17f;" horiz-adv-x="380" d="M221 576 C221 636 250 651 282 651 C303 651 319 646 339 637 C342 636 344 635 346 635 C349 635 351 637 353 640 L389 702 C392 709 394 713 385 720 C345 746 303 759 259 759 C168 759 108 705 108 602 L108 500 L47 500 C37 500 32 495 32 485 L32 411 C32 401 37 396 47 396 L108 396 L108 15 C108 5 113 0 123 0 L206 0 C216 0 221 5 221 15 L221 576 L221 576 Z " />
<glyph glyph-name="florin" unicode="&#x192;" horiz-adv-x="616" d="M198 115 C183 62 167 19 105 19 C90 19 74 22 56 27 C54 28 52 28 50 28 C44 28 39 24 37 17 L26 -28 C23 -37 26 -43 36 -46 C67 -57 100 -63 130 -63 C220 -63 261 -7 282 77 L381 452 L509 452 C519 452 524 457 524 467 L524 511 C523 520 517 525 508 525 L399 525 L418 596 C432 647 450 693 510 693 C526 693 542 689 560 684 C562 683 565 683 566 683 C573 683 577 687 579 695 L590 739 C592 748 588 754 579 757 C552 768 519 774 488 774 C396 774 358 719 334 635 L306 525 L222 525 C212 525 207 519 207 508 L207 467 C207 457 212 452 223 452 L286 452 L198 115 L198 115 Z " />
<glyph glyph-name="uni0218" unicode="&#x218;" horiz-adv-x="542" d="M189 -250 C188 -259 191 -263 200 -263 L267 -263 C276 -263 282 -259 284 -251 L323 -62 C324 -53 321 -49 313 -49 L232 -49 C223 -49 218 -53 217 -62 L189 -250 L189 -250 Z M471 632 C476 641 475 648 466 653 C410 689 348 710 279 710 C154 710 51 635 51 519 C51 279 387 337 387 193 C387 140 347 100 268 100 C212 100 149 126 105 161 C101 164 97 166 94 166 C89 166 85 163 82 158 L38 93 C31 84 36 77 43 72 C104 24 178 -10 266 -10 C431 -10 502 99 502 194 C502 438 166 386 166 520 C166 569 215 600 274 600 C319 600 365 582 402 559 C406 556 410 555 413 555 C418 555 423 559 426 563 L471 632 L471 632 Z " />
<glyph glyph-name="uni0219" unicode="&#x219;" horiz-adv-x="438" d="M138 -250 C137 -259 140 -263 149 -263 L216 -263 C225 -263 231 -259 233 -251 L272 -62 C274 -53 271 -49 262 -49 L181 -49 C173 -49 168 -53 167 -62 L138 -250 L138 -250 Z M102 132 C98 136 93 138 89 138 C85 138 81 136 77 132 L37 89 C28 80 28 72 35 65 C82 17 145 -10 217 -10 C331 -10 405 58 405 143 C405 319 149 297 149 369 C149 401 187 412 223 412 C258 412 291 402 316 383 C320 380 324 379 327 379 C331 379 335 380 339 384 L382 431 C389 438 389 445 382 452 C347 483 289 510 221 510 C120 510 44 449 44 367 C44 199 301 223 301 139 C301 103 263 87 219 87 C168 87 137 101 102 132 L102 132 Z " />
<glyph glyph-name="uni021A" unicode="&#x21a;" horiz-adv-x="580" d="M332 0 C342 0 347 5 347 15 L347 588 L540 588 C550 588 555 593 555 603 L555 685 C555 695 550 700 540 700 L40 700 C30 700 25 695 25 685 L25 603 C25 593 30 588 40 588 L233 588 L233 15 C233 5 238 0 248 0 L332 0 L332 0 Z M208 -250 C207 -259 210 -263 219 -263 L286 -263 C295 -263 301 -259 303 -251 L342 -62 C343 -53 340 -49 332 -49 L251 -49 C242 -49 237 -53 236 -62 L208 -250 L208 -250 Z " />
<glyph glyph-name="uni021B" unicode="&#x21b;" horiz-adv-x="409" d="M342 108 C339 113 336 115 333 115 C331 115 328 114 326 113 C307 102 293 98 270 98 C238 98 215 113 215 150 L215 396 L337 396 C346 396 351 401 351 411 L351 485 C351 495 346 500 336 500 L215 500 L215 633 C215 641 211 648 200 648 L117 648 C107 648 102 643 102 633 L102 500 L52 500 C44 500 37 496 37 485 L37 411 C37 400 44 396 52 396 L102 396 L102 136 C102 41 156 -10 251 -10 C291 -10 327 -3 367 20 C378 27 377 31 374 39 L342 108 L342 108 Z M126 -250 C125 -259 128 -263 137 -263 L204 -263 C213 -263 219 -259 221 -251 L260 -62 C261 -53 258 -49 250 -49 L169 -49 C160 -49 155 -53 154 -62 L126 -250 L126 -250 Z " />
<glyph glyph-name="circumflex" unicode="&#x2c6;" horiz-adv-x="370" d="M159 737 C147 737 138 730 131 722 L19 600 C12 593 14 585 21 578 L46 547 C49 544 52 542 56 542 C60 542 65 545 68 548 L185 657 L301 548 C305 544 309 542 313 542 C317 542 321 544 324 547 L349 578 C356 586 357 593 350 600 L239 722 C231 730 223 737 210 737 L159 737 L159 737 Z " />
<glyph glyph-name="caron" unicode="&#x2c7;" horiz-adv-x="370" d="M210 552 C223 552 231 559 239 567 L350 689 C356 696 356 703 349 711 L324 742 C321 745 317 747 313 747 C309 747 305 745 301 741 L185 632 L68 741 C64 745 60 747 56 747 C53 747 49 745 46 742 L21 711 C14 704 13 696 19 689 L131 567 C139 559 147 552 159 552 L210 552 L210 552 Z " />
<glyph glyph-name="uni02C9" unicode="&#x2c9;" horiz-adv-x="428" d="M65 611 C65 601 70 596 80 596 L348 596 C358 596 363 601 363 611 L363 675 C363 685 358 690 348 690 L80 690 C70 690 65 685 65 675 L65 611 L65 611 Z " />
<glyph glyph-name="breve" unicode="&#x2d8;" horiz-adv-x="354" d="M339 716 C339 721 335 725 328 727 L274 737 C266 737 264 734 263 727 C260 686 233 654 177 654 C121 654 93 686 90 727 C89 734 87 737 79 737 L26 727 C19 726 15 723 15 716 C19 623 85 572 177 572 C269 572 335 623 339 716 L339 716 Z " />
<glyph glyph-name="dotaccent" unicode="&#x2d9;" horiz-adv-x="191" d="M30 647 C30 610 58 582 95 582 C132 582 161 610 161 647 C161 684 132 713 95 713 C58 713 30 684 30 647 L30 647 Z " />
<glyph glyph-name="ring" unicode="&#x2da;" horiz-adv-x="268" d="M15 639 C15 573 69 519 134 519 C200 519 253 573 253 639 C253 704 200 758 134 758 C69 758 15 704 15 639 L15 639 Z M86 639 C86 666 107 688 134 688 C161 688 183 666 183 639 C183 612 161 590 134 590 C107 590 86 612 86 639 L86 639 Z " />
<glyph glyph-name="ogonek" unicode="&#x2db;" horiz-adv-x="181" d="M60 4 C-23 -74 16 -199 138 -199 C149 -199 160 -198 171 -196 C177 -195 180 -191 180 -183 L179 -129 C179 -121 175 -120 168 -120 C161 -122 154 -122 148 -122 C78 -122 78 -32 141 7 L60 4 L60 4 Z " />
<glyph glyph-name="tilde" unicode="&#x2dc;" horiz-adv-x="411" d="M275 646 C228 646 198 706 131 706 C96 706 57 682 29 651 C23 645 21 637 24 628 L38 576 C40 571 42 567 46 567 C48 567 50 568 53 571 C77 596 105 625 136 625 C183 625 213 565 280 565 C315 565 354 589 381 620 C387 626 389 634 386 643 L373 695 C371 701 368 704 365 704 C363 704 360 703 357 700 C334 675 304 646 275 646 L275 646 Z " />
<glyph glyph-name="hungarumlaut" unicode="&#x2dd;" horiz-adv-x="421" d="M87 538 C90 537 93 537 95 537 C101 537 105 539 109 545 L200 697 C204 704 204 712 193 715 L128 738 C125 739 123 739 121 739 C114 739 109 736 107 729 L36 576 C33 569 35 560 44 556 L87 538 L87 538 Z M267 538 C270 537 273 537 275 537 C281 537 285 539 289 545 L383 696 C387 703 386 711 377 714 L308 738 C305 739 303 739 301 739 C294 739 289 736 287 729 L216 576 C213 569 215 560 224 556 L267 538 L267 538 Z " />
<glyph glyph-name="uni0394" unicode="&#x394;" horiz-adv-x="618" d="M308 644 L311 644 L488 97 L133 97 L308 644 Z M15 14 C15 5 20 0 30 0 L588 0 C598 0 603 5 603 14 L603 34 L388 732 C384 744 377 750 366 750 L254 750 C244 750 237 744 232 732 L15 34 L15 14 L15 14 Z " />
<glyph glyph-name="uni03A9" unicode="&#x3a9;" horiz-adv-x="777" d="M304 78 C187 147 125 233 126 366 C126 515 234 638 388 638 C542 638 652 515 649 364 C648 232 583 147 470 78 L470 0 L709 0 C718 0 723 5 723 14 L723 76 C723 86 718 91 709 91 L571 91 C682 156 740 263 741 380 C741 556 604 729 388 729 C173 729 35 556 35 380 C35 255 97 154 202 91 L66 91 C57 91 52 87 52 79 L52 14 C52 5 57 0 66 0 L304 0 L304 78 Z " />
<glyph glyph-name="uni03BC" unicode="&#x3bc;" horiz-adv-x="609" d="M178 40 C203 12 237 -3 280 -3 C344 -3 390 30 421 85 L421 15 C421 5 426 0 436 0 L519 0 C529 0 534 5 534 15 L534 485 C534 495 529 500 519 500 L436 500 C426 500 421 495 421 485 L421 241 C421 172 367 98 294 98 C215 98 178 159 178 240 L178 485 C178 495 173 500 163 500 L80 500 C70 500 65 495 65 485 L65 -235 C65 -245 70 -250 80 -250 L163 -250 C173 -250 178 -245 178 -235 L178 40 L178 40 Z " />
<glyph glyph-name="pi" unicode="&#x3c0;" horiz-adv-x="651" d="M611 513 C621 513 626 518 626 528 L626 608 C626 618 621 623 611 623 L39 623 C30 623 25 618 25 608 L25 528 C25 518 30 513 39 513 L136 513 L136 14 C136 5 141 0 151 0 L229 0 C239 0 244 5 244 14 L244 513 L406 513 L406 14 C406 5 411 0 421 0 L500 0 C510 0 515 5 515 14 L515 513 L611 513 Z " />
<glyph glyph-name="Wgrave" unicode="&#x1e80;" horiz-adv-x="931" d="M729 0 C739 0 745 5 748 15 L915 684 C918 695 914 700 904 700 L810 700 C799 700 793 695 791 684 L669 181 L533 688 C530 696 524 700 516 700 L415 700 C407 700 402 696 399 688 L262 181 L141 684 C138 695 134 700 121 700 L27 700 C17 700 13 695 16 684 L184 15 C186 5 192 0 203 0 L309 0 C321 0 328 5 330 15 L466 524 L601 15 C604 5 611 0 623 0 L729 0 L729 0 Z M491 775 C500 779 500 787 497 794 L425 946 C422 953 417 956 411 956 C409 956 407 956 405 955 L338 932 C329 929 327 921 332 914 L426 761 C429 756 433 753 438 753 C440 753 443 754 446 755 L491 775 L491 775 Z " />
<glyph glyph-name="wgrave" unicode="&#x1e81;" horiz-adv-x="720" d="M127 485 C125 495 119 500 110 500 L26 500 C17 500 14 495 17 485 C37 398 55 320 72 251 C85 191 99 134 110 90 L127 17 C130 6 137 0 147 0 L254 0 C266 0 271 8 274 17 L360 363 L445 17 C448 8 455 0 466 0 L573 0 C584 0 589 8 592 17 L703 485 C706 495 702 500 693 500 L610 500 C601 500 595 495 592 485 L512 145 L424 483 C421 494 414 500 405 500 L314 500 C304 500 298 494 296 483 L251 313 C229 227 207 144 207 145 L127 485 L127 485 Z M383 572 C392 576 392 584 389 591 L317 743 C314 750 309 753 303 753 C301 753 299 753 297 752 L230 729 C221 726 219 718 224 711 L318 558 C321 553 325 550 330 550 C332 550 335 551 338 552 L383 572 L383 572 Z " />
<glyph glyph-name="Wacute" unicode="&#x1e82;" horiz-adv-x="931" d="M729 0 C739 0 745 5 748 15 L915 684 C918 695 914 700 904 700 L810 700 C799 700 793 695 791 684 L669 181 L533 688 C530 696 524 700 516 700 L415 700 C407 700 402 696 399 688 L262 181 L141 684 C138 695 134 700 121 700 L27 700 C17 700 13 695 16 684 L184 15 C186 5 192 0 203 0 L309 0 C321 0 328 5 330 15 L466 524 L601 15 C604 5 611 0 623 0 L729 0 L729 0 Z M482 770 C484 769 487 769 489 769 C494 769 499 771 502 776 L596 929 C600 936 600 944 589 947 L522 970 C520 971 517 971 515 971 C509 971 505 968 503 961 L431 809 C427 800 429 794 437 790 L482 770 L482 770 Z " />
<glyph glyph-name="wacute" unicode="&#x1e83;" horiz-adv-x="720" d="M127 485 C125 495 119 500 110 500 L26 500 C17 500 14 495 17 485 C37 398 55 320 72 251 C85 191 99 134 110 90 L127 17 C130 6 137 0 147 0 L254 0 C266 0 271 8 274 17 L360 363 L445 17 C448 8 455 0 466 0 L573 0 C584 0 589 8 592 17 L703 485 C706 495 702 500 693 500 L610 500 C601 500 595 495 592 485 L512 145 L424 483 C421 494 414 500 405 500 L314 500 C304 500 298 494 296 483 L251 313 C229 227 207 144 207 145 L127 485 L127 485 Z M380 552 C382 551 385 551 387 551 C392 551 397 553 400 558 L494 711 C498 718 498 726 487 729 L420 752 C418 753 415 753 413 753 C407 753 403 750 401 743 L329 591 C325 582 327 576 335 572 L380 552 L380 552 Z " />
<glyph glyph-name="Wdieresis" unicode="&#x1e84;" horiz-adv-x="931" d="M729 0 C739 0 745 5 748 15 L915 684 C918 695 914 700 904 700 L810 700 C799 700 793 695 791 684 L669 181 L533 688 C530 696 524 700 516 700 L415 700 C407 700 402 696 399 688 L262 181 L141 684 C138 695 134 700 121 700 L27 700 C17 700 13 695 16 684 L184 15 C186 5 192 0 203 0 L309 0 C321 0 328 5 330 15 L466 524 L601 15 C604 5 611 0 623 0 L729 0 L729 0 Z M293 838 C293 802 321 773 357 773 C394 773 423 802 423 838 C423 874 394 903 357 903 C321 903 293 874 293 838 L293 838 Z M508 838 C508 802 536 773 572 773 C609 773 638 802 638 838 C638 874 609 903 572 903 C536 903 508 874 508 838 L508 838 Z " />
<glyph glyph-name="wdieresis" unicode="&#x1e85;" horiz-adv-x="720" d="M127 485 C125 495 119 500 110 500 L26 500 C17 500 14 495 17 485 C37 398 55 320 72 251 C85 191 99 134 110 90 L127 17 C130 6 137 0 147 0 L254 0 C266 0 271 8 274 17 L360 363 L445 17 C448 8 455 0 466 0 L573 0 C584 0 589 8 592 17 L703 485 C706 495 702 500 693 500 L610 500 C601 500 595 495 592 485 L512 145 L424 483 C421 494 414 500 405 500 L314 500 C304 500 298 494 296 483 L251 313 C229 227 207 144 207 145 L127 485 L127 485 Z M187 643 C187 607 215 578 251 578 C288 578 317 607 317 643 C317 679 288 708 251 708 C215 708 187 679 187 643 L187 643 Z M402 643 C402 607 430 578 466 578 C503 578 532 607 532 643 C532 679 503 708 466 708 C430 708 402 679 402 643 L402 643 Z " />
<glyph glyph-name="endash" unicode="&#x2013;" horiz-adv-x="584" d="M79 329 C70 329 65 324 65 314 L65 231 C65 221 70 216 79 216 L504 216 C514 216 519 221 519 231 L519 314 C519 324 514 329 504 329 L79 329 L79 329 Z " />
<glyph glyph-name="emdash" unicode="&#x2014;" horiz-adv-x="1108" d="M79 329 C70 329 65 324 65 314 L65 231 C65 221 70 216 79 216 L1028 216 C1038 216 1043 221 1043 231 L1043 314 C1043 324 1038 329 1028 329 L79 329 L79 329 Z " />
<glyph glyph-name="quoteleft" unicode="&#x2018;" horiz-adv-x="206" d="M165 697 C166 706 163 710 154 710 L87 710 C78 710 72 706 70 698 L31 509 C30 500 33 496 41 496 L122 496 C131 496 136 500 137 509 L165 697 L165 697 Z " />
<glyph glyph-name="quoteright" unicode="&#x2019;" horiz-adv-x="206" d="M32 509 C31 500 35 496 44 496 L110 496 C119 496 125 500 127 508 L166 697 C168 706 165 710 156 710 L75 710 C67 710 62 706 61 697 L32 509 L32 509 Z " />
<glyph glyph-name="quotesinglbase" unicode="&#x201a;" horiz-adv-x="206" d="M31 -110 C30 -117 35 -122 42 -122 L109 -122 C118 -122 124 -118 126 -110 L165 79 C166 87 163 91 155 91 L74 91 C65 91 60 87 59 78 L31 -110 L31 -110 Z " />
<glyph glyph-name="quotedblleft" unicode="&#x201c;" horiz-adv-x="410" d="M165 697 C166 706 162 710 153 710 L87 710 C78 710 72 706 70 698 L31 509 C29 500 32 496 41 496 L122 496 C130 496 135 500 136 509 L165 697 L165 697 Z M369 698 C370 705 365 710 358 710 L291 710 C282 710 276 706 274 698 L235 509 C234 501 237 497 245 497 L326 497 C335 497 340 501 341 510 L369 698 L369 698 Z " />
<glyph glyph-name="quotedblright" unicode="&#x201d;" horiz-adv-x="413" d="M238 509 C237 500 240 496 249 496 L316 496 C325 496 331 500 333 508 L372 697 C373 706 370 710 362 710 L281 710 C272 710 267 706 266 697 L238 509 L238 509 Z M33 509 C32 500 36 496 45 496 L111 496 C120 496 126 500 128 508 L167 697 C169 706 166 710 157 710 L76 710 C68 710 63 706 62 697 L33 509 L33 509 Z " />
<glyph glyph-name="quotedblbase" unicode="&#x201e;" horiz-adv-x="410" d="M235 -110 C234 -117 239 -122 247 -122 L313 -122 C322 -122 328 -118 330 -110 L369 79 C371 87 368 91 359 91 L278 91 C270 91 265 87 264 78 L235 -110 L235 -110 Z M31 -110 C30 -119 33 -123 42 -123 L109 -123 C118 -123 124 -119 126 -111 L165 78 C166 87 163 91 155 91 L74 91 C65 91 60 87 59 78 L31 -110 L31 -110 Z " />
<glyph glyph-name="dagger" unicode="&#x2020;" horiz-adv-x="388" d="M39 480 C30 480 25 475 25 465 L25 397 C25 387 30 382 39 382 L145 382 L145 -170 C145 -179 150 -184 160 -184 L228 -184 C238 -184 243 -179 243 -170 L243 382 L348 382 C358 382 363 387 363 397 L363 465 C363 475 358 480 348 480 L243 480 L243 705 C243 715 238 720 228 720 L160 720 C150 720 145 715 145 705 L145 480 L39 480 Z " />
<glyph glyph-name="daggerdbl" unicode="&#x2021;" horiz-adv-x="498" d="M39 170 C30 170 25 165 25 155 L25 87 C25 77 30 72 39 72 L197 72 L197 -170 C197 -179 202 -184 212 -184 L280 -184 C290 -184 295 -179 295 -170 L295 72 L458 72 C468 72 473 77 473 87 L473 155 C473 165 468 170 458 170 L295 170 L295 365 L458 365 C468 365 473 370 473 380 L473 448 C473 458 468 463 458 463 L295 463 L295 705 C295 715 290 720 280 720 L212 720 C202 720 197 715 197 705 L197 463 L39 463 C30 463 25 458 25 448 L25 380 C25 370 30 365 39 365 L197 365 L197 170 L39 170 Z " />
<glyph glyph-name="bullet" unicode="&#x2022;" horiz-adv-x="227" d="M28 280 C28 233 66 196 114 196 C163 196 198 233 198 280 C198 327 163 364 114 364 C66 364 28 327 28 280 L28 280 Z " />
<glyph glyph-name="ellipsis" unicode="&#x2026;" horiz-adv-x="860" d="M30 57 C30 18 58 -10 97 -10 C136 -10 166 18 166 57 C166 96 136 126 97 126 C58 126 30 96 30 57 L30 57 Z M359 57 C359 18 388 -10 427 -10 C466 -10 496 18 496 57 C496 96 466 126 427 126 C388 126 359 96 359 57 L359 57 Z M694 57 C694 18 722 -10 761 -10 C800 -10 830 18 830 57 C830 96 800 126 761 126 C722 126 694 96 694 57 L694 57 Z " />
<glyph glyph-name="perthousand" unicode="&#x2030;" horiz-adv-x="1118" d="M30 557 C30 473 99 404 183 404 C267 404 336 473 336 557 C336 641 267 710 183 710 C99 710 30 641 30 557 L30 557 Z M108 556 C108 599 139 632 182 632 C225 632 258 599 258 556 C258 513 225 483 182 483 C139 483 108 513 108 556 L108 556 Z M433 143 C433 59 502 -10 587 -10 C671 -10 740 59 740 143 C740 226 671 297 587 297 C502 297 433 226 433 143 L433 143 Z M512 143 C512 186 543 219 586 219 C629 219 662 186 662 143 C662 100 629 69 586 69 C543 69 512 100 512 143 L512 143 Z M781 143 C781 59 850 -10 935 -10 C1019 -10 1088 59 1088 143 C1088 226 1019 297 935 297 C850 297 781 226 781 143 L781 143 Z M860 143 C860 186 891 219 934 219 C977 219 1010 186 1010 143 C1010 100 977 69 934 69 C891 69 860 100 860 143 L860 143 Z M152 14 C145 5 151 0 162 0 L224 0 C233 0 238 6 243 14 L629 685 C636 694 630 700 619 700 L557 700 C550 700 543 695 538 685 L152 14 L152 14 Z " />
<glyph glyph-name="guilsinglleft" unicode="&#x2039;" horiz-adv-x="310" d="M268 438 C272 446 266 453 254 453 L183 453 C173 453 165 448 160 438 L28 239 C24 232 25 228 26 224 L29 218 L160 18 C166 9 174 4 183 4 L255 4 C267 4 273 11 268 18 L131 229 L268 438 Z " />
<glyph glyph-name="guilsinglright" unicode="&#x203a;" horiz-adv-x="310" d="M42 18 C37 11 43 4 55 4 L127 4 C136 4 144 9 150 18 L281 218 L284 224 C285 229 285 234 282 239 L150 438 C145 448 137 453 127 453 L56 453 C44 453 38 446 42 438 L179 229 L42 18 L42 18 Z " />
<glyph glyph-name="fraction" unicode="&#x2044;" horiz-adv-x="553" d="M38 14 C31 5 37 0 48 0 L110 0 C119 0 124 6 129 14 L515 685 C522 694 516 700 505 700 L443 700 C436 700 429 695 424 685 L38 14 L38 14 Z " />
<glyph glyph-name="franc" unicode="&#x20a3;" horiz-adv-x="554" d="M321 111 C331 111 336 116 336 126 L336 159 C336 169 331 174 321 174 L195 174 L195 281 L483 281 C493 281 498 286 498 296 L498 375 C498 385 493 390 483 390 L195 390 L195 588 L527 588 C536 588 541 593 541 603 L541 685 C541 695 536 700 527 700 L101 700 C88 700 80 690 80 679 L80 174 L32 174 C22 174 17 169 17 159 L17 126 C17 116 22 111 32 111 L80 111 L80 14 C80 5 85 0 95 0 L180 0 C190 0 195 5 195 14 L195 111 L321 111 Z " />
<glyph glyph-name="lira" unicode="&#x20a4;" horiz-adv-x="533" d="M25 354 C16 350 13 344 16 335 L30 301 C32 294 36 290 41 290 C43 290 45 291 48 292 L102 311 L102 17 C102 6 105 0 118 0 L127 0 C327 0 506 142 522 351 C523 361 518 366 507 366 L446 366 C437 366 432 361 431 351 C426 227 328 115 193 102 L193 344 L357 402 C367 405 370 411 366 421 L355 455 C353 462 349 466 343 466 C341 466 339 466 337 465 L193 413 L193 471 L357 529 C367 532 370 538 366 548 L355 582 C353 590 349 593 343 593 C341 593 339 593 337 592 L193 540 L193 685 C193 695 188 700 178 700 L117 700 C107 700 102 695 102 685 L102 508 L25 481 C16 477 13 471 16 462 L29 427 C31 420 35 416 40 416 C42 416 44 417 47 418 L102 438 L102 381 L25 354 L25 354 Z " />
<glyph glyph-name="Euro" unicode="&#x20ac;" horiz-adv-x="537" d="M491 107 C488 113 484 115 479 115 C476 115 473 114 469 112 C438 95 404 82 361 82 C246 82 190 158 171 257 L449 256 C460 256 461 262 461 271 L461 306 C461 315 457 320 449 320 L161 320 C159 342 159 363 161 384 L449 384 C460 384 461 389 461 398 L461 433 C461 443 457 448 449 448 L171 448 C192 544 253 617 361 617 C400 617 440 603 471 587 C475 585 478 583 481 583 C486 583 490 587 493 593 L520 649 C525 660 523 663 512 670 C471 693 416 710 361 710 C202 710 106 612 75 448 L11 448 C2 448 -2 443 -2 433 L-2 398 C-2 389 2 384 11 384 L68 384 C67 359 67 345 68 320 L11 320 C2 320 -2 315 -2 306 L-2 271 C-2 261 2 256 11 256 L74 256 C101 101 191 -10 361 -10 C417 -10 469 5 509 28 C521 35 524 43 519 52 L491 107 L491 107 Z " />
<glyph glyph-name="uni2113" unicode="&#x2113;" horiz-adv-x="371" d="M29 239 C34 233 39 230 44 230 C48 230 51 232 55 236 L95 276 L95 163 C95 66 137 -12 233 -12 C278 -12 321 9 352 36 C357 43 359 50 356 59 L344 100 C341 105 338 107 335 107 C332 107 329 106 325 102 C306 85 281 66 250 66 C195 66 186 121 186 183 L186 348 C262 432 338 509 343 613 C346 688 296 734 225 734 C141 734 95 658 95 555 L95 368 L17 288 C9 280 7 269 14 261 L29 239 L29 239 Z M275 601 C270 544 227 492 186 447 L186 538 C186 594 187 656 236 656 C267 656 278 632 275 601 L275 601 Z " />
<glyph glyph-name="trademark" unicode="&#x2122;" horiz-adv-x="875" d="M216 285 C220 285 227 287 227 296 L227 628 L349 628 C356 628 360 632 360 639 L360 690 C360 697 356 700 349 700 L35 700 C28 700 25 697 25 690 L25 638 C25 631 28 628 35 628 L154 628 L154 296 C154 285 162 285 165 285 L216 285 L216 285 Z M614 338 C618 338 621 341 623 347 L722 542 L722 295 C722 288 725 285 732 285 L784 285 C791 285 795 288 795 295 L795 689 C795 694 792 700 784 700 L733 700 C726 700 721 697 719 690 L595 435 L472 690 C469 695 466 700 457 700 L406 700 C399 700 395 696 395 689 L395 296 C395 289 399 285 406 285 L457 285 C464 285 468 289 468 296 L468 542 L568 347 C571 341 574 338 578 338 L614 338 L614 338 Z " />
<glyph glyph-name="Omega" unicode="&#x2126;" horiz-adv-x="777" d="M304 78 C187 147 125 233 126 366 C126 515 234 638 388 638 C542 638 652 515 649 364 C648 232 583 147 470 78 L470 0 L709 0 C718 0 723 5 723 14 L723 76 C723 86 718 91 709 91 L571 91 C682 156 740 263 741 380 C741 556 604 729 388 729 C173 729 35 556 35 380 C35 255 97 154 202 91 L66 91 C57 91 52 87 52 79 L52 14 C52 5 57 0 66 0 L304 0 L304 78 Z " />
<glyph glyph-name="estimated" unicode="&#x212e;" horiz-adv-x="569" d="M521 242 C532 242 538 252 538 259 C543 400 444 547 284 547 C133 547 30 422 30 275 C30 135 144 5 284 5 C376 5 452 48 495 116 C500 124 500 133 491 138 L457 155 C454 156 451 157 449 157 C443 157 438 154 433 148 C398 103 348 74 284 74 C237 74 189 98 162 133 L162 242 L521 242 Z M162 427 C193 460 237 478 284 478 C331 478 376 462 404 427 L404 309 L162 309 L162 427 Z " />
<glyph glyph-name="partialdiff" unicode="&#x2202;" horiz-adv-x="550" d="M331 710 C280 710 227 695 192 678 C183 674 181 668 184 659 L207 604 C210 599 214 596 219 596 C222 596 225 597 228 598 C252 609 286 619 314 619 C429 619 446 529 427 412 C396 459 329 488 273 488 C132 488 44 351 36 199 C28 67 111 -10 215 -10 C372 -10 449 140 486 285 C542 501 542 710 331 710 L331 710 Z M222 84 C155 84 123 141 128 211 C131 300 188 394 279 394 C334 394 387 362 400 306 C378 198 318 84 222 84 L222 84 Z " />
<glyph glyph-name="Delta" unicode="&#x2206;" horiz-adv-x="618" d="M308 644 L311 644 L488 97 L133 97 L308 644 Z M15 14 C15 5 20 0 30 0 L588 0 C598 0 603 5 603 14 L603 34 L388 732 C384 744 377 750 366 750 L254 750 C244 750 237 744 232 732 L15 34 L15 14 L15 14 Z " />
<glyph glyph-name="product" unicode="&#x220f;" horiz-adv-x="679" d="M95 700 C85 700 80 695 80 685 L80 -114 C80 -123 85 -128 95 -128 L163 -128 C173 -128 178 -123 178 -114 L178 602 L501 602 L501 -114 C501 -123 506 -128 516 -128 L584 -128 C594 -128 599 -123 599 -114 L599 685 C599 695 594 700 584 700 L95 700 L95 700 Z " />
<glyph glyph-name="summation" unicode="&#x2211;" horiz-adv-x="669" d="M42 -213 C42 -217 45 -230 60 -230 L610 -230 C621 -230 626 -223 626 -215 L626 -145 C626 -137 621 -130 610 -130 L205 -130 L501 215 C516 232 510 245 503 253 L205 600 L610 600 C621 600 626 605 626 615 L626 684 C626 692 621 700 610 700 L60 700 C53 700 42 696 42 683 L42 649 C42 637 44 629 52 620 L384 234 L52 -150 C43 -161 42 -175 42 -178 L42 -213 L42 -213 Z " />
<glyph glyph-name="minus" unicode="&#x2212;" horiz-adv-x="559" d="M79 329 C70 329 65 324 65 314 L65 231 C65 221 70 216 79 216 L479 216 C489 216 494 221 494 231 L494 314 C494 324 489 329 479 329 L79 329 L79 329 Z " />
<glyph glyph-name="uni2215" unicode="&#x2215;" horiz-adv-x="553" d="M38 14 C31 5 37 0 48 0 L110 0 C119 0 124 6 129 14 L515 685 C522 694 516 700 505 700 L443 700 C436 700 429 695 424 685 L38 14 L38 14 Z " />
<glyph glyph-name="uni2219" unicode="&#x2219;" horiz-adv-x="186" d="M30 346 C30 311 57 283 92 283 C128 283 156 311 156 346 C156 382 128 410 92 410 C57 410 30 382 30 346 L30 346 Z " />
<glyph glyph-name="radical" unicode="&#x221a;" horiz-adv-x="510" d="M311 -12 C322 -12 325 -5 326 3 L484 710 C486 722 482 728 471 728 L401 728 C390 728 386 721 383 710 L259 157 L163 418 C161 426 157 430 150 430 C148 430 144 429 141 427 L18 357 C10 351 8 343 13 334 L42 275 C46 270 50 267 54 267 C57 267 60 268 64 270 L100 292 C105 277 111 262 117 246 C128 219 139 183 154 147 C170 104 188 56 207 2 C210 -7 216 -12 224 -12 L311 -12 L311 -12 Z " />
<glyph glyph-name="infinity" unicode="&#x221e;" horiz-adv-x="739" d="M619 292 C619 236 586 197 527 197 C482 197 429 228 421 292 C432 341 468 385 527 385 C587 385 619 341 619 292 L619 292 Z M318 293 C311 241 269 197 213 197 C153 197 120 239 120 291 C120 335 149 385 214 385 C262 385 309 352 318 293 L318 293 Z M366 374 C341 429 287 475 206 475 C106 475 30 399 30 292 C30 180 107 107 208 107 C277 107 335 150 374 209 C401 149 464 107 536 107 C636 107 709 184 709 293 C709 400 629 475 533 475 C445 475 396 415 366 374 L366 374 Z " />
<glyph glyph-name="integral" unicode="&#x222b;" horiz-adv-x="305" d="M76 -89 C76 -131 61 -152 31 -152 C19 -152 4 -148 -14 -141 C-17 -140 -19 -139 -21 -139 C-27 -139 -31 -143 -33 -149 L-44 -176 C-47 -185 -44 -191 -35 -196 C-2 -215 30 -223 58 -223 C126 -223 173 -172 173 -85 L173 606 C173 648 188 669 218 669 C230 669 245 665 263 658 C266 657 268 656 270 656 C276 656 280 660 283 666 L293 693 C296 701 294 708 285 713 C251 731 220 740 192 740 C123 740 76 688 76 601 L76 -89 L76 -89 Z " />
<glyph glyph-name="approxequal" unicode="&#x2248;" horiz-adv-x="537" d="M88 199 C111 234 132 254 175 254 C239 254 308 188 377 188 C441 188 476 243 509 284 C515 291 514 298 506 304 L468 332 C465 335 462 336 459 336 C455 336 451 334 447 330 C430 307 413 279 381 279 C321 279 240 341 176 346 C102 346 62 305 26 245 C20 236 21 229 29 224 L67 196 C70 193 73 191 76 191 C80 191 84 194 88 199 L88 199 Z M88 404 C111 439 132 459 175 459 C239 459 308 393 377 393 C441 393 476 448 509 489 C515 496 514 503 506 509 L468 537 C465 540 462 541 459 541 C455 541 451 539 447 535 C430 512 413 484 381 484 C321 484 240 546 176 551 C102 551 62 510 26 450 C20 441 21 434 29 429 L67 401 C70 398 73 396 76 396 C80 396 84 399 88 404 L88 404 Z " />
<glyph glyph-name="notequal" unicode="&#x2260;" horiz-adv-x="542" d="M488 154 C497 154 502 159 502 169 L502 230 C502 240 497 245 488 245 L295 245 L346 358 L488 358 C497 358 502 363 502 373 L502 434 C502 444 497 449 488 449 L387 449 L438 562 C443 571 439 577 428 577 L359 577 C351 577 345 572 340 562 L288 449 L54 449 C45 449 40 444 40 435 L40 373 C40 363 45 358 54 358 L247 358 L196 245 L54 245 C45 245 40 240 40 231 L40 169 C40 159 45 154 54 154 L155 154 L104 41 C100 32 104 27 115 27 L183 27 C194 27 198 32 203 41 L254 154 L488 154 Z " />
<glyph glyph-name="lessequal" unicode="&#x2264;" horiz-adv-x="448" d="M54 91 C45 91 40 86 40 76 L40 15 C40 5 45 0 54 0 L384 0 C393 0 398 5 398 15 L398 77 C398 86 393 91 384 91 L54 91 L54 91 Z M384 526 C395 531 398 534 398 545 L398 617 C398 625 395 630 390 630 C388 630 386 629 384 628 L54 487 C45 483 40 477 40 470 L40 389 C40 378 44 374 53 370 L384 228 C386 227 387 227 389 227 C395 227 398 233 398 240 L398 311 C398 320 393 327 384 330 L141 428 L384 526 L384 526 Z " />
<glyph glyph-name="greaterequal" unicode="&#x2265;" horiz-adv-x="448" d="M64 91 C55 91 50 86 50 77 L50 15 C50 5 55 0 64 0 L394 0 C403 0 408 5 408 15 L408 76 C408 86 403 91 394 91 L64 91 L64 91 Z M64 330 C55 327 50 320 50 311 L50 240 C50 233 53 227 59 227 C61 227 62 227 64 228 L395 370 C404 374 408 378 408 389 L408 470 C408 477 403 483 394 487 L64 628 C62 629 60 630 58 630 C53 630 50 625 50 617 L50 545 C50 534 53 531 64 526 L307 428 L64 330 Z " />
<glyph glyph-name="lozenge" unicode="&#x25ca;" horiz-adv-x="490" d="M243 597 L246 597 L363 350 L246 102 L243 102 L127 350 L243 597 Z M170 14 C174 6 177 0 188 0 L301 0 C312 0 315 5 319 14 L462 328 C469 344 469 355 462 371 L319 685 C315 696 312 700 301 700 L188 700 C177 700 174 696 170 685 L29 371 C21 354 21 345 28 329 L170 14 L170 14 Z " />
</font>
</svg>
