<?xml version="1.0" encoding="UTF-8"?>
<svg xmlns="http://www.w3.org/2000/svg" xmlns:xlink="http://www.w3.org/1999/xlink" version="1.2" >
<font id="Crossten Light">
<font-face  font-family="Crossten" units-per-em="1000" ascent="750" descent="-250" font-style="normal" font-weight="300" font-stretch="normal" cap-height="700" x-height="500" underline-position="-75" underline-thickness="50" />
<missing-glyph  horiz-adv-x="340" d="" />
<glyph glyph-name="NULL" d="" />
<glyph glyph-name="CR" unicode="&#xd;" horiz-adv-x="340" d="" />
<glyph glyph-name="space" unicode="&#x20;" horiz-adv-x="260" d="" />
<glyph glyph-name="exclam" unicode="&#x21;" horiz-adv-x="260" d="M148 163 C155 163 159 167 159 174 L161 689 C161 696 157 700 150 700 L110 700 C103 700 99 696 99 689 L101 174 C101 167 105 163 113 163 L148 163 L148 163 Z M86 34 C86 9 105 -10 130 -10 C155 -10 174 9 174 34 C174 59 155 78 130 78 C105 78 86 59 86 34 L86 34 Z " />
<glyph glyph-name="quotedbl" unicode="&#x22;" horiz-adv-x="363" d="M127 487 C135 487 139 491 139 498 L141 685 C141 692 137 696 130 696 L97 696 C90 696 86 692 86 685 L89 498 C89 491 93 487 100 487 L127 487 L127 487 Z M263 487 C270 487 274 491 274 498 L277 685 C277 692 273 696 265 696 L233 696 C226 696 222 692 222 685 L224 498 C224 491 228 487 236 487 L263 487 L263 487 Z " />
<glyph glyph-name="numbersign" unicode="&#x23;" horiz-adv-x="612" d="M147 0 C158 0 161 5 162 12 L192 221 L377 221 L348 12 C347 5 350 0 359 0 L388 0 C397 0 399 5 400 12 L429 221 L537 221 C545 221 549 225 549 233 L549 261 C549 269 545 273 537 273 L437 273 L457 425 L564 425 C572 425 576 429 576 437 L576 465 C576 474 572 478 564 478 L464 478 L495 683 C496 690 493 695 484 695 L457 695 C449 695 447 690 444 683 L414 478 L227 478 L255 683 C256 690 253 695 244 695 L217 695 C209 695 205 690 204 683 L175 478 L75 478 C68 478 63 474 63 466 L63 437 C63 429 68 425 75 425 L168 425 L146 273 L48 273 C40 273 36 269 36 261 L36 233 C36 224 41 221 48 221 L138 221 L109 12 C108 5 111 0 120 0 L147 0 L147 0 Z M385 273 L198 273 L220 425 L407 425 L385 273 Z " />
<glyph glyph-name="dollar" unicode="&#x24;" horiz-adv-x="548" d="M125 534 C125 602 194 649 278 649 C335 649 391 630 431 602 C434 600 436 600 439 600 C442 600 445 601 448 604 L469 637 C473 644 472 650 466 653 C417 684 374 701 306 709 L306 805 C306 812 302 816 295 816 L266 816 C258 816 254 812 254 805 L254 708 C147 697 61 631 61 534 C61 294 436 376 436 183 C436 107 377 51 273 51 C208 51 138 79 86 122 C82 125 79 126 77 126 C73 126 71 124 69 120 L47 89 C43 83 44 78 50 73 C107 28 182 -6 254 -9 L254 -105 C254 -112 258 -116 266 -116 L295 -116 C302 -116 306 -112 306 -105 L306 -7 C425 4 499 83 499 183 C499 429 125 348 125 534 L125 534 Z " />
<glyph glyph-name="percent" unicode="&#x25;" horiz-adv-x="1062" d="M604 199 C604 83 697 -10 813 -10 C929 -10 1023 83 1023 199 C1023 315 929 408 813 408 C697 408 604 315 604 199 L604 199 Z M658 198 C658 285 727 355 812 355 C899 355 969 285 969 198 C969 114 899 43 812 43 C727 43 658 114 658 198 L658 198 Z M311 11 C307 4 310 0 319 0 L350 0 C356 0 361 4 365 11 L753 689 C757 696 754 700 745 700 L714 700 C708 700 703 696 699 689 L311 11 L311 11 Z M39 503 C39 387 132 295 248 295 C364 295 457 387 457 503 C457 619 364 713 248 713 C132 713 39 619 39 503 L39 503 Z M92 502 C92 589 163 659 247 659 C334 659 404 589 404 502 C404 417 334 348 247 348 C163 348 92 417 92 502 L92 502 Z " />
<glyph glyph-name="ampersand" unicode="&#x26;" horiz-adv-x="707" d="M297 419 C250 470 225 516 226 555 C227 611 270 652 329 652 C372 652 400 637 428 606 C430 603 433 602 436 602 C438 602 440 603 442 604 L471 627 C476 631 477 636 472 641 C431 687 382 710 325 710 C244 710 172 650 167 565 C164 511 190 454 243 393 C131 326 52 281 52 165 C52 66 133 -10 234 -10 C344 -10 423 47 497 110 L614 -19 C618 -23 621 -24 625 -24 C628 -24 632 -23 635 -20 L657 0 C663 7 663 13 656 20 L540 149 L639 241 C646 248 645 254 638 261 L618 284 C615 287 612 288 609 288 C605 288 601 287 597 283 L500 193 L297 419 L297 419 Z M238 50 C171 50 114 101 114 168 C114 267 180 290 281 351 L457 155 C398 102 326 50 238 50 L238 50 Z " />
<glyph glyph-name="quotesingle" unicode="&#x27;" horiz-adv-x="227" d="M126 487 C135 487 139 494 139 502 L141 681 C141 691 137 696 128 696 L99 696 C88 696 86 689 86 681 L89 502 C89 493 91 487 102 487 L126 487 L126 487 Z " />
<glyph glyph-name="parenleft" unicode="&#x28;" horiz-adv-x="349" d="M267 777 C-26 479 -28 159 261 -132 C265 -136 268 -137 272 -137 C274 -137 277 -137 279 -135 L301 -118 C308 -113 308 -108 303 -101 C31 178 29 456 308 747 C313 752 313 757 306 761 L283 778 C280 780 278 782 275 782 C272 782 270 780 267 777 L267 777 Z " />
<glyph glyph-name="parenright" unicode="&#x29;" horiz-adv-x="349" d="M83 777 C80 780 77 781 74 781 C71 781 69 780 66 778 L43 761 C38 757 37 752 41 747 C318 456 318 178 47 -101 C42 -107 42 -113 48 -118 L70 -135 C73 -137 76 -138 78 -138 C81 -138 84 -136 88 -132 C379 161 376 477 83 777 L83 777 Z " />
<glyph glyph-name="asterisk" unicode="&#x2a;" horiz-adv-x="387" d="M85 430 C80 423 80 416 86 411 L105 397 C108 394 111 393 113 393 C117 393 121 397 124 401 L194 497 L262 400 C265 395 268 392 272 392 C274 392 277 393 280 395 L300 408 C307 413 307 419 300 427 L223 532 L339 560 C348 562 352 567 350 575 L344 598 C343 603 339 606 334 606 C332 606 330 606 328 605 L217 578 L219 684 C219 693 219 698 207 698 L182 698 C171 698 170 695 170 684 L171 578 L60 607 C57 608 55 608 53 608 C48 608 45 606 43 600 L37 575 C34 564 38 563 47 560 L164 533 L85 430 Z " />
<glyph glyph-name="plus" unicode="&#x2b;" horiz-adv-x="550" d="M494 266 C501 266 504 270 504 277 L504 310 C504 318 501 322 494 322 L304 322 L304 511 C304 518 300 522 292 522 L259 522 C251 522 247 518 247 511 L247 322 L57 322 C50 322 46 318 46 310 L46 277 C46 270 50 266 57 266 L247 266 L247 75 C247 68 251 64 259 64 L292 64 C300 64 304 68 304 75 L304 266 L494 266 Z " />
<glyph glyph-name="comma" unicode="&#x2c;" horiz-adv-x="185" d="M40 -178 C39 -185 43 -189 50 -189 L81 -189 C88 -189 93 -186 95 -179 L139 60 C140 68 137 72 129 72 L92 72 C85 72 80 68 79 60 L40 -178 L40 -178 Z " />
<glyph glyph-name="hyphen" unicode="&#x2d;" horiz-adv-x="465" d="M91 320 C84 320 80 316 80 309 L80 270 C80 262 84 258 91 258 L374 258 C381 258 385 262 385 270 L385 309 C385 316 381 320 374 320 L91 320 L91 320 Z " />
<glyph glyph-name="period" unicode="&#x2e;" horiz-adv-x="166" d="M39 34 C39 9 58 -10 83 -10 C108 -10 127 9 127 34 C127 59 108 78 83 78 C58 78 39 59 39 34 L39 34 Z " />
<glyph glyph-name="slash" unicode="&#x2f;" horiz-adv-x="535" d="M46 11 C42 4 45 0 55 0 L85 0 C92 0 97 4 100 11 L489 689 C493 696 490 700 480 700 L450 700 C444 700 439 696 435 689 L46 11 L46 11 Z " />
<glyph glyph-name="zero" unicode="0" horiz-adv-x="566" d="M46 348 C46 179 105 -10 282 -10 C461 -10 520 179 520 348 C520 516 461 710 282 710 C105 710 46 516 46 348 L46 348 Z M109 348 C109 489 148 649 282 649 C415 649 457 488 457 348 C457 208 415 51 282 51 C148 51 109 208 109 348 L109 348 Z " />
<glyph glyph-name="one" unicode="1" horiz-adv-x="292" d="M15 660 C8 659 6 655 7 649 L13 607 C14 603 16 600 19 600 C21 600 22 601 24 601 L128 633 L128 11 C128 4 132 0 139 0 L179 0 C187 0 191 4 191 11 L191 689 C191 696 187 700 179 700 L163 700 L15 660 L15 660 Z " />
<glyph glyph-name="two" unicode="2" horiz-adv-x="501" d="M67 597 C70 592 74 589 78 589 C81 589 84 591 87 593 C138 632 183 649 234 649 C328 649 370 578 370 508 C370 400 267 310 40 40 C36 35 34 30 34 24 L34 11 C34 4 38 0 46 0 L443 0 C451 0 455 4 455 11 L455 51 C455 58 451 62 443 62 L133 62 C352 315 433 397 433 515 C433 622 363 710 239 710 C171 710 110 687 53 644 C46 639 45 633 48 626 L67 597 L67 597 Z " />
<glyph glyph-name="three" unicode="3" horiz-adv-x="475" d="M198 334 C297 334 376 282 376 194 C376 107 311 51 212 51 C160 51 107 73 66 108 C63 110 60 112 57 112 C53 112 50 109 47 104 L27 74 C22 67 24 61 32 56 C92 12 146 -10 217 -10 C342 -10 439 67 439 190 C439 286 369 343 293 365 C361 387 417 452 417 530 C417 631 338 710 229 710 C162 710 100 688 43 644 C36 639 34 633 39 626 L58 596 C61 592 63 588 67 588 C70 588 73 589 77 592 C120 628 172 649 224 649 C299 649 355 599 355 523 C355 452 290 392 198 392 C191 392 188 389 188 382 L188 344 C188 337 191 334 198 334 L198 334 Z " />
<glyph glyph-name="four" unicode="4" horiz-adv-x="497" d="M320 11 C320 4 324 0 331 0 L368 0 C375 0 379 4 379 11 L379 148 L462 148 C469 148 473 152 473 159 L473 194 C473 201 469 205 462 205 L379 205 L379 376 C379 383 375 387 368 387 L332 387 C324 387 320 383 320 376 L320 208 L89 208 L313 689 C316 696 314 700 305 700 L267 700 C259 700 254 696 251 689 L22 196 L22 159 C22 152 26 148 33 148 L320 148 L320 11 Z " />
<glyph glyph-name="five" unicode="5" horiz-adv-x="515" d="M97 335 C140 359 204 378 254 378 C362 378 408 311 408 220 C408 131 352 51 241 51 C193 51 129 66 82 105 C78 108 75 109 72 109 C69 109 66 107 63 103 L43 73 C39 66 41 60 48 55 C109 8 181 -10 245 -10 C386 -10 471 93 471 222 C471 346 404 436 274 436 C226 436 169 421 134 402 L134 641 L423 641 C431 641 435 645 435 652 L435 688 C435 696 431 700 423 700 L85 700 C77 700 73 696 73 688 L73 349 L97 335 L97 335 Z " />
<glyph glyph-name="six" unicode="6" horiz-adv-x="547" d="M117 374 C125 528 171 650 298 650 C345 650 395 634 440 597 C443 595 446 593 449 593 C453 593 457 596 460 601 L478 629 C481 636 483 640 474 647 C414 694 351 710 295 710 C154 710 56 595 56 331 L56 298 C56 102 149 -10 280 -10 C409 -10 495 99 495 228 C495 362 417 446 299 446 C227 446 165 417 117 374 L117 374 Z M117 309 C168 365 229 389 285 389 C379 389 434 321 434 226 C434 130 372 48 279 48 C187 48 117 141 117 274 L117 309 Z " />
<glyph glyph-name="seven" unicode="7" horiz-adv-x="489" d="M453 689 C453 696 449 700 441 700 L53 700 C46 700 42 696 42 689 L42 650 C42 642 46 638 53 638 L384 638 L95 13 C92 4 96 0 105 0 L143 0 C152 0 159 4 162 13 L453 644 L453 689 Z " />
<glyph glyph-name="eight" unicode="8" horiz-adv-x="523" d="M59 530 C59 454 108 398 171 373 C83 342 36 274 36 190 C36 74 129 -10 260 -10 C391 -10 487 74 487 190 C487 274 437 342 349 373 C411 397 464 456 464 530 C464 631 380 710 260 710 C143 710 59 631 59 530 L59 530 Z M117 523 C117 596 173 654 260 654 C347 654 406 596 406 523 C406 442 332 395 260 395 C188 395 117 442 117 523 L117 523 Z M96 194 C96 280 167 340 260 340 C356 340 427 280 427 194 C427 106 356 48 260 48 C164 48 96 106 96 194 L96 194 Z " />
<glyph glyph-name="nine" unicode="9" horiz-adv-x="547" d="M74 53 C134 6 197 -10 253 -10 C393 -10 491 105 491 369 L491 405 C491 597 398 710 267 710 C138 710 52 603 52 475 C52 343 128 254 246 254 C321 254 382 283 431 326 C420 172 377 50 249 50 C204 50 152 66 107 103 C104 106 101 107 98 107 C94 107 91 104 88 99 L69 71 C64 64 66 58 74 53 L74 53 Z M431 386 C377 338 331 311 259 311 C163 311 113 380 113 475 C113 570 175 652 269 652 C362 652 431 559 431 426 L431 386 Z " />
<glyph glyph-name="colon" unicode="&#x3a;" horiz-adv-x="166" d="M39 34 C39 9 58 -10 83 -10 C108 -10 127 9 127 34 C127 59 108 78 83 78 C58 78 39 59 39 34 L39 34 Z M39 466 C39 441 58 422 83 422 C108 422 127 441 127 466 C127 491 108 510 83 510 C58 510 39 491 39 466 L39 466 Z " />
<glyph glyph-name="semicolon" unicode="&#x3b;" horiz-adv-x="190" d="M32 -178 C31 -185 35 -189 42 -189 L73 -189 C80 -189 85 -186 87 -179 L131 60 C132 68 129 72 121 72 L84 72 C77 72 72 68 71 60 L32 -178 L32 -178 Z M63 466 C63 441 82 422 107 422 C132 422 151 441 151 466 C151 491 132 510 107 510 C82 510 63 491 63 466 L63 466 Z " />
<glyph glyph-name="less" unicode="&#x3c;" horiz-adv-x="519" d="M460 461 C467 463 471 467 471 473 L471 506 C471 513 468 517 464 517 C463 517 461 516 460 516 L41 333 C34 330 30 325 30 320 L30 272 C30 267 34 262 41 259 L461 74 C463 73 464 73 466 73 C469 73 471 76 471 83 L471 116 C471 123 468 125 460 129 L89 296 L460 461 Z " />
<glyph glyph-name="equal" unicode="&#x3d;" horiz-adv-x="654" d="M107 426 C100 426 96 422 96 414 L96 384 C96 377 100 373 107 373 L547 373 C554 373 558 377 558 384 L558 414 C558 422 554 426 547 426 L107 426 L107 426 Z M107 221 C100 221 96 217 96 210 L96 179 C96 172 100 168 107 168 L547 168 C554 168 558 172 558 179 L558 210 C558 217 554 221 547 221 L107 221 L107 221 Z " />
<glyph glyph-name="greater" unicode="&#x3e;" horiz-adv-x="519" d="M59 129 C51 125 48 123 48 116 L48 83 C48 76 50 73 53 73 C55 73 56 73 58 74 L478 259 C485 262 489 267 489 272 L489 320 C489 325 485 330 478 333 L59 516 C58 516 56 517 55 517 C51 517 48 513 48 506 L48 473 C48 467 52 463 59 461 L430 296 L59 129 L59 129 Z " />
<glyph glyph-name="question" unicode="&#x3f;" horiz-adv-x="438" d="M60 600 C63 596 66 593 70 593 C72 593 74 594 77 596 C116 627 164 649 209 649 C277 649 328 605 328 541 C328 417 162 406 162 223 L162 176 C162 167 166 163 173 163 L212 163 C220 163 224 167 224 176 L224 223 C224 378 392 397 392 548 C392 636 327 710 212 710 C144 710 87 682 44 650 C37 645 35 639 39 632 L60 600 L60 600 Z M148 34 C148 9 167 -10 192 -10 C217 -10 236 9 236 34 C236 59 217 78 192 78 C167 78 148 59 148 34 L148 34 Z " />
<glyph glyph-name="at" unicode="&#x40;" horiz-adv-x="1032" d="M353 251 C353 331 416 397 497 397 C579 397 643 331 643 251 C643 171 579 106 497 106 C416 106 353 168 353 251 L353 251 Z M651 131 C654 57 719 12 790 12 C882 12 987 88 987 275 C987 523 775 725 514 725 C253 725 44 514 44 253 C44 -8 237 -218 550 -218 L924 -218 C933 -218 938 -214 938 -206 L938 -184 C938 -176 933 -172 924 -172 L550 -172 C230 -172 90 56 90 253 C90 481 271 679 514 679 C754 679 941 494 941 275 C941 119 861 57 793 57 C743 57 700 91 700 145 L700 432 C700 439 697 444 689 444 L658 444 C651 444 646 441 646 432 L646 357 C595 445 514 449 487 449 C380 449 298 358 298 250 C298 141 380 52 488 52 C593 52 646 139 651 144 L651 131 L651 131 Z " />
<glyph glyph-name="A" unicode="A" horiz-adv-x="607" d="M76 0 C85 0 91 4 93 11 L156 192 L452 192 L514 14 C517 5 523 0 532 0 L574 0 C583 0 586 4 583 11 L346 689 C344 696 339 700 332 700 L276 700 C269 700 264 696 262 689 L25 11 C23 4 26 0 34 0 L76 0 L76 0 Z M173 253 L304 622 L435 253 L173 253 Z " />
<glyph glyph-name="B" unicode="B" horiz-adv-x="615" d="M349 0 C476 0 563 86 563 193 C563 286 501 356 417 374 C482 403 519 458 519 527 C519 626 441 700 317 700 L112 700 C105 700 101 696 101 689 L101 11 C101 4 105 0 112 0 L349 0 L349 0 Z M164 342 L327 342 C428 342 499 286 499 199 C499 125 438 59 338 59 L164 59 L164 342 Z M164 641 L307 641 C403 641 455 591 455 520 C455 451 399 399 324 399 L164 399 L164 641 Z " />
<glyph glyph-name="C" unicode="C" horiz-adv-x="665" d="M597 640 C602 647 599 651 592 656 C541 688 474 710 401 710 C196 710 44 551 44 348 C44 145 196 -10 401 -10 C470 -10 535 8 594 44 C602 49 604 55 599 62 L578 94 C575 98 572 100 569 100 C566 100 563 99 559 96 C516 68 458 51 401 51 C232 51 107 180 107 348 C107 516 232 649 401 649 C461 649 510 634 558 605 C561 602 564 601 567 601 C572 601 575 605 577 609 L597 640 Z " />
<glyph glyph-name="D" unicode="D" horiz-adv-x="740" d="M344 0 C544 0 696 156 696 348 C696 544 544 700 344 700 L112 700 C105 700 101 696 101 689 L101 11 C101 4 105 0 112 0 L344 0 L344 0 Z M164 638 L341 638 C504 638 634 513 634 348 C634 191 504 62 341 62 L164 62 L164 638 Z " />
<glyph glyph-name="E" unicode="E" horiz-adv-x="574" d="M112 700 C105 700 101 696 101 689 L101 11 C101 4 105 0 112 0 L505 0 C512 0 516 4 516 11 L516 50 C516 58 512 62 505 62 L164 62 L164 320 L469 320 C477 320 481 324 481 331 L481 369 C481 376 477 380 469 380 L164 380 L164 638 L504 638 C512 638 516 642 516 650 L516 689 C516 696 512 700 504 700 L112 700 L112 700 Z " />
<glyph glyph-name="F" unicode="F" horiz-adv-x="567" d="M152 0 C160 0 164 4 164 11 L164 315 L495 315 C502 315 506 319 506 326 L506 364 C506 371 502 375 495 375 L164 375 L164 638 L542 638 C549 638 553 642 553 650 L553 689 C553 696 549 700 542 700 L112 700 C105 700 101 696 101 689 L101 11 C101 4 105 0 112 0 L152 0 Z " />
<glyph glyph-name="G" unicode="G" horiz-adv-x="711" d="M564 89 C517 62 469 51 401 51 C233 51 107 180 107 348 C107 516 230 649 401 649 C461 649 510 634 561 603 C565 600 568 599 571 599 C576 599 578 603 581 607 L600 637 C605 644 603 650 595 655 C544 687 477 710 401 710 C196 710 44 552 44 348 C44 145 196 -10 401 -10 C481 -10 545 2 614 41 C622 46 626 51 626 58 L626 336 C626 344 622 348 615 348 L390 348 C383 348 379 344 379 336 L379 304 C379 296 383 292 390 292 L564 292 L564 89 L564 89 Z " />
<glyph glyph-name="H" unicode="H" horiz-adv-x="721" d="M152 0 C160 0 164 4 164 11 L164 323 L558 323 L558 11 C558 4 562 0 569 0 L609 0 C616 0 620 4 620 11 L620 689 C620 696 616 700 609 700 L569 700 C562 700 558 696 558 689 L558 385 L164 385 L164 689 C164 696 160 700 152 700 L112 700 C105 700 101 696 101 689 L101 11 C101 4 105 0 112 0 L152 0 L152 0 Z " />
<glyph glyph-name="I" unicode="I" horiz-adv-x="265" d="M152 0 C160 0 164 4 164 11 L164 689 C164 696 160 700 152 700 L112 700 C105 700 101 696 101 689 L101 11 C101 4 105 0 112 0 L152 0 L152 0 Z " />
<glyph glyph-name="J" unicode="J" horiz-adv-x="494" d="M393 689 C393 696 389 700 382 700 L342 700 C335 700 331 696 331 689 L331 192 C331 104 279 51 196 51 C144 51 111 66 74 89 C71 91 67 92 65 92 C61 92 59 90 57 87 L37 54 C33 48 34 43 39 39 C83 8 140 -10 200 -10 C315 -10 393 67 393 188 L393 689 L393 689 Z " />
<glyph glyph-name="K" unicode="K" horiz-adv-x="647" d="M606 0 C616 0 618 4 612 11 L326 423 L584 689 C591 696 590 700 579 700 L527 700 C515 700 510 696 503 689 L164 346 L164 689 C164 696 160 700 152 700 L112 700 C105 700 101 696 101 689 L101 11 C101 4 105 0 112 0 L152 0 C160 0 164 4 164 11 L164 261 L280 379 L535 11 C542 4 546 0 557 0 L606 0 Z " />
<glyph glyph-name="L" unicode="L" horiz-adv-x="536" d="M481 0 C489 0 493 4 493 11 L493 49 C493 57 489 61 481 61 L164 61 L164 689 C164 696 160 700 152 700 L112 700 C105 700 101 696 101 689 L101 11 C101 4 105 0 112 0 L481 0 L481 0 Z " />
<glyph glyph-name="M" unicode="M" horiz-adv-x="871" d="M448 94 C455 94 459 97 461 102 L707 595 L707 11 C707 4 711 0 719 0 L758 0 C766 0 770 4 770 11 L770 689 C770 696 766 700 758 700 L701 700 C695 700 690 697 686 690 L435 185 L184 690 C181 697 176 700 171 700 L112 700 C105 700 101 696 101 689 L101 11 C101 4 105 0 112 0 L152 0 C160 0 164 4 164 11 L164 595 L409 102 C412 97 416 94 422 94 L448 94 L448 94 Z " />
<glyph glyph-name="N" unicode="N" horiz-adv-x="736" d="M624 0 C631 0 635 4 635 11 L635 689 C635 696 631 700 624 700 L584 700 C576 700 572 696 572 689 L572 112 L172 689 C167 696 164 700 153 700 L112 700 C105 700 101 696 101 689 L101 11 C101 4 105 0 112 0 L152 0 C160 0 164 4 164 11 L164 588 L564 11 C569 4 572 0 583 0 L624 0 Z " />
<glyph glyph-name="O" unicode="O" horiz-adv-x="802" d="M401 710 C197 710 44 551 44 348 C44 145 197 -10 401 -10 C605 -10 758 149 758 348 C758 551 605 710 401 710 L401 710 Z M401 51 C232 51 107 180 107 348 C107 516 232 649 401 649 C570 649 695 516 695 348 C695 180 566 51 401 51 L401 51 Z " />
<glyph glyph-name="P" unicode="P" horiz-adv-x="567" d="M152 0 C160 0 164 4 164 11 L164 248 L313 248 C444 248 539 350 539 477 C539 606 446 700 313 700 L112 700 C105 700 101 696 101 689 L101 11 C101 4 105 0 112 0 L152 0 L152 0 Z M164 641 L302 641 C403 641 476 578 476 477 C476 376 403 306 302 306 L164 306 L164 641 Z " />
<glyph glyph-name="Q" unicode="Q" horiz-adv-x="802" d="M630 -131 C632 -135 635 -136 638 -136 C641 -136 643 -136 646 -134 L681 -114 C686 -111 686 -107 683 -100 L599 49 C700 118 758 223 758 348 C758 551 605 710 401 710 C197 710 44 551 44 348 C44 145 197 -10 401 -10 C454 -10 498 0 543 21 L630 -131 L630 -131 Z M401 51 C232 51 107 181 107 348 C107 516 232 649 401 649 C570 649 695 516 695 348 C695 180 564 51 401 51 L401 51 Z " />
<glyph glyph-name="R" unicode="R" horiz-adv-x="601" d="M306 641 C418 641 484 563 484 477 C484 389 419 312 306 312 L164 312 L164 641 L306 641 L306 641 Z M366 262 C426 270 546 332 546 477 C546 606 450 700 317 700 L112 700 C105 700 101 696 101 689 L101 11 C101 4 105 0 112 0 L152 0 C160 0 164 4 164 11 L164 253 L298 253 L476 11 C483 4 490 0 497 0 L543 0 C554 0 556 4 549 13 L366 262 L366 262 Z " />
<glyph glyph-name="S" unicode="S" horiz-adv-x="548" d="M469 637 C473 644 472 649 466 653 C410 689 345 710 280 710 C164 710 61 641 61 534 C61 293 436 371 436 183 C436 107 377 51 273 51 C205 51 135 81 86 122 C83 125 80 126 78 126 C75 126 72 124 69 120 L47 89 C43 83 44 78 50 73 C109 26 188 -10 272 -10 C426 -10 499 85 499 183 C499 431 125 352 125 534 C125 605 197 649 278 649 C334 649 387 628 430 601 C433 599 435 599 438 599 C442 599 445 600 448 604 L469 637 L469 637 Z " />
<glyph glyph-name="T" unicode="T" horiz-adv-x="587" d="M314 0 C321 0 325 4 325 11 L325 638 L542 638 C549 638 553 642 553 650 L553 689 C553 696 549 700 542 700 L45 700 C38 700 34 696 34 689 L34 650 C34 642 38 638 45 638 L262 638 L262 11 C262 4 266 0 274 0 L314 0 L314 0 Z " />
<glyph glyph-name="U" unicode="U" horiz-adv-x="690" d="M100 700 C93 700 89 696 89 689 L89 263 C89 116 174 -10 345 -10 C512 -10 601 116 601 263 L601 689 C601 696 597 700 589 700 L549 700 C542 700 538 696 538 689 L538 271 C538 140 467 51 345 51 C222 51 152 140 152 271 L152 689 C152 696 148 700 140 700 L100 700 L100 700 Z " />
<glyph glyph-name="V" unicode="V" horiz-adv-x="598" d="M325 0 C336 0 340 6 344 15 L579 688 C582 695 579 700 570 700 L528 700 C519 700 513 696 511 688 L300 88 L89 688 C86 695 83 700 72 700 L30 700 C19 700 18 695 21 688 L256 15 C260 6 264 0 275 0 L325 0 L325 0 Z " />
<glyph glyph-name="W" unicode="W" horiz-adv-x="903" d="M686 0 C697 0 698 4 701 12 L878 688 C880 696 877 700 869 700 L825 700 C814 700 813 696 810 688 L656 97 L492 689 C489 696 484 700 477 700 L426 700 C419 700 414 696 412 689 L247 97 L94 688 C91 696 88 700 79 700 L34 700 C26 700 23 696 25 688 L202 12 C204 4 209 0 218 0 L271 0 C282 0 285 4 288 12 L452 605 L616 12 C618 4 624 0 633 0 L686 0 L686 0 Z " />
<glyph glyph-name="X" unicode="X" horiz-adv-x="603" d="M110 692 C106 697 100 700 93 700 L38 700 C30 700 29 694 32 689 L263 359 L19 11 C14 4 18 0 25 0 L79 0 C86 0 92 3 96 9 L302 304 L505 9 C508 3 514 0 522 0 L579 0 C587 0 589 6 585 11 L340 359 L571 689 C576 696 574 700 565 700 L510 700 C503 700 497 697 493 692 L302 414 L110 692 Z " />
<glyph glyph-name="Y" unicode="Y" horiz-adv-x="574" d="M101 693 C98 698 93 700 87 700 L39 700 C31 700 30 694 33 689 L256 344 L256 11 C256 4 260 0 268 0 L307 0 C315 0 319 4 319 11 L319 344 L541 689 C544 694 543 700 535 700 L488 700 C483 700 478 698 474 693 L287 401 L101 693 L101 693 Z " />
<glyph glyph-name="Z" unicode="Z" horiz-adv-x="617" d="M47 11 C47 4 51 0 58 0 L559 0 C566 0 570 4 570 11 L570 50 C570 58 566 62 559 62 L129 62 L553 638 C556 643 557 646 557 655 L557 689 C557 696 553 700 546 700 L70 700 C63 700 59 696 59 689 L59 650 C59 642 63 638 70 638 L476 638 L54 65 C50 58 47 53 47 42 L47 11 L47 11 Z " />
<glyph glyph-name="bracketleft" unicode="&#x5b;" horiz-adv-x="326" d="M255 -130 C262 -130 266 -126 266 -119 L266 -87 C266 -80 262 -76 255 -76 L151 -76 L151 696 L255 696 C262 696 266 700 266 707 L266 739 C266 746 262 750 255 750 L117 750 C104 750 96 741 96 729 L96 -109 C96 -122 105 -130 117 -130 L255 -130 L255 -130 Z " />
<glyph glyph-name="backslash" unicode="&#x5c;" horiz-adv-x="535" d="M100 689 C97 696 92 700 85 700 L55 700 C45 700 42 696 46 689 L435 11 C439 4 444 0 450 0 L480 0 C490 0 493 4 489 11 L100 689 L100 689 Z " />
<glyph glyph-name="bracketright" unicode="&#x5d;" horiz-adv-x="326" d="M209 -130 C221 -130 230 -122 230 -109 L230 729 C230 741 222 750 209 750 L71 750 C64 750 60 746 60 739 L60 707 C60 700 64 696 71 696 L175 696 L175 -76 L71 -76 C64 -76 60 -80 60 -87 L60 -119 C60 -126 64 -130 71 -130 L209 -130 L209 -130 Z " />
<glyph glyph-name="asciicircum" unicode="&#x5e;" horiz-adv-x="496" d="M395 313 C397 306 401 302 407 302 L441 302 C448 302 455 305 451 313 L283 689 C281 696 277 700 270 700 L227 700 C222 700 218 696 215 689 L45 313 C42 305 48 302 55 302 L89 302 C94 302 99 306 103 313 L249 639 L395 313 L395 313 Z " />
<glyph glyph-name="underscore" unicode="&#x5f;" horiz-adv-x="666" d="M91 -63 C84 -63 80 -67 80 -74 L80 -113 C80 -121 84 -125 91 -125 L575 -125 C582 -125 586 -121 586 -113 L586 -74 C586 -67 582 -63 575 -63 L91 -63 L91 -63 Z " />
<glyph glyph-name="grave" unicode="&#x60;" horiz-adv-x="217" d="M173 568 C180 571 180 578 177 583 L94 739 C92 744 88 747 83 747 C82 747 80 747 78 746 L45 735 C38 733 37 728 40 721 L134 564 C137 559 141 557 145 557 C147 557 149 557 151 558 L173 568 L173 568 Z " />
<glyph glyph-name="a" unicode="a" horiz-adv-x="644" d="M101 250 C101 362 184 450 294 450 C404 450 486 362 486 250 C486 138 404 50 294 50 C184 50 101 138 101 250 L101 250 Z M536 0 C544 0 548 4 548 11 L548 489 C548 496 544 500 536 500 L497 500 C490 500 486 496 486 489 L486 390 C445 459 377 510 282 510 C142 510 39 394 39 250 C39 106 142 -10 282 -10 C381 -10 449 47 486 110 L486 11 C486 4 490 0 497 0 L536 0 L536 0 Z " />
<glyph glyph-name="b" unicode="b" horiz-adv-x="644" d="M542 250 C542 138 460 50 350 50 C239 50 157 138 157 250 C157 362 239 450 350 450 C460 450 542 362 542 250 L542 250 Z M147 0 C154 0 158 4 158 11 L158 110 C193 45 266 -10 361 -10 C501 -10 605 106 605 250 C605 393 501 510 361 510 C269 510 198 461 158 390 L158 739 C158 746 154 750 147 750 L107 750 C100 750 96 746 96 739 L96 11 C96 4 100 0 107 0 L147 0 L147 0 Z " />
<glyph glyph-name="c" unicode="c" horiz-adv-x="496" d="M419 79 C416 83 414 85 411 85 C408 85 405 84 402 82 C371 63 336 50 293 50 C183 50 100 138 100 250 C100 362 183 450 293 450 C312 450 354 449 401 418 C404 416 407 415 409 415 C412 415 415 417 418 420 L439 450 C444 457 443 462 434 467 C401 490 353 510 293 510 C149 510 39 394 39 250 C39 106 149 -10 293 -10 C352 -10 401 10 436 33 C443 37 445 43 440 50 L419 79 L419 79 Z " />
<glyph glyph-name="d" unicode="d" horiz-adv-x="644" d="M101 250 C101 358 184 450 294 450 C404 450 486 362 486 250 C486 138 404 50 294 50 C184 50 101 138 101 250 L101 250 Z M536 0 C544 0 548 4 548 11 L548 739 C548 746 544 750 536 750 L497 750 C490 750 486 746 486 739 L486 390 C446 461 375 510 282 510 C142 510 39 393 39 250 C39 106 142 -10 282 -10 C379 -10 448 45 486 110 L486 11 C486 4 490 0 497 0 L536 0 L536 0 Z " />
<glyph glyph-name="e" unicode="e" horiz-adv-x="561" d="M294 45 C187 45 110 125 99 224 L507 224 C518 224 522 231 522 239 C522 383 435 510 280 510 C130 510 39 389 39 250 C39 107 149 -10 293 -10 C366 -10 425 10 472 41 C477 45 479 50 476 57 L458 83 C456 87 452 88 449 88 C446 88 444 88 441 86 C398 59 354 45 294 45 L294 45 Z M100 276 C108 380 176 458 280 458 C389 458 450 378 461 276 L100 276 Z " />
<glyph glyph-name="f" unicode="f" horiz-adv-x="350" d="M354 719 C357 726 358 728 350 733 C318 750 285 759 251 759 C176 759 122 716 122 615 L122 500 L51 500 C44 500 40 496 40 489 L40 453 C40 446 44 442 51 442 L122 442 L122 11 C122 4 126 0 134 0 L173 0 C180 0 184 4 184 11 L184 442 L297 442 C304 442 308 446 308 453 L308 489 C308 496 304 500 297 500 L184 500 L184 604 C184 681 219 699 260 699 C284 699 301 695 324 684 C327 683 329 682 330 682 C333 682 334 684 336 687 L354 719 Z " />
<glyph glyph-name="g" unicode="g" horiz-adv-x="644" d="M101 251 C101 358 184 450 294 450 C404 450 487 362 487 251 C487 140 404 52 294 52 C184 52 101 140 101 251 L101 251 Z M548 489 C548 496 544 500 536 500 L497 500 C490 500 486 496 486 489 L486 390 C445 459 377 510 282 510 C142 510 39 394 39 251 C39 107 142 -8 282 -8 C381 -8 449 49 486 112 L486 0 C486 -110 409 -195 290 -195 C222 -195 165 -170 125 -131 C123 -129 120 -127 118 -127 C115 -127 113 -129 110 -131 L87 -159 C83 -164 83 -170 88 -175 C132 -220 206 -255 291 -255 C441 -255 548 -145 548 4 L548 489 L548 489 Z " />
<glyph glyph-name="h" unicode="h" horiz-adv-x="617" d="M147 0 C154 0 158 4 158 11 L158 254 C158 347 228 450 324 450 C428 450 472 376 472 265 L472 11 C472 4 476 0 484 0 L523 0 C530 0 534 4 534 11 L534 274 C534 415 474 510 339 510 C247 510 182 442 158 389 L158 739 C158 746 154 750 147 750 L107 750 C100 750 96 746 96 739 L96 11 C96 4 100 0 107 0 L147 0 L147 0 Z " />
<glyph glyph-name="i" unicode="i" horiz-adv-x="270" d="M155 0 C162 0 166 4 166 11 L166 489 C166 496 162 500 155 500 L115 500 C108 500 104 496 104 489 L104 11 C104 4 108 0 115 0 L155 0 L155 0 Z M91 711 C91 686 110 667 135 667 C160 667 179 686 179 711 C179 736 160 755 135 755 C110 755 91 736 91 711 L91 711 Z " />
<glyph glyph-name="j" unicode="j" horiz-adv-x="270" d="M-43 -222 C-46 -229 -43 -235 -36 -238 C-11 -249 10 -255 41 -255 C117 -255 165 -202 165 -130 L165 489 C165 496 161 500 154 500 L114 500 C107 500 103 496 103 489 L103 -122 C103 -166 74 -195 35 -195 C15 -195 0 -192 -15 -185 C-17 -184 -19 -184 -20 -184 C-23 -184 -26 -186 -28 -190 L-43 -222 L-43 -222 Z M90 711 C90 686 109 667 134 667 C159 667 178 686 178 711 C178 736 159 755 134 755 C109 755 90 736 90 711 L90 711 Z " />
<glyph glyph-name="k" unicode="k" horiz-adv-x="533" d="M425 10 C430 3 435 0 447 0 L491 0 C502 0 503 4 496 13 L289 299 L473 489 C478 494 477 500 469 500 L418 500 C411 500 404 498 399 493 L158 254 L158 739 C158 746 154 750 147 750 L107 750 C100 750 96 746 96 739 L96 11 C96 4 100 0 107 0 L147 0 C154 0 158 4 158 11 L158 173 L243 257 L425 10 L425 10 Z " />
<glyph glyph-name="l" unicode="l" horiz-adv-x="254" d="M147 0 C154 0 158 4 158 11 L158 739 C158 746 154 750 147 750 L107 750 C100 750 96 746 96 739 L96 11 C96 4 100 0 107 0 L147 0 L147 0 Z " />
<glyph glyph-name="m" unicode="m" horiz-adv-x="930" d="M107 500 C100 500 96 496 96 489 L96 11 C96 4 100 0 107 0 L147 0 C154 0 158 4 158 11 L158 264 C158 357 229 450 314 450 C403 450 440 370 440 265 L440 11 C440 4 444 0 452 0 L491 0 C498 0 502 4 502 11 L502 264 C502 364 577 450 658 450 C746 450 785 370 785 265 L785 11 C785 4 789 0 796 0 L836 0 C843 0 847 4 847 11 L847 274 C847 421 789 510 673 510 C577 510 519 443 487 375 C468 447 418 510 329 510 C237 510 182 443 158 389 L158 489 C158 496 154 500 147 500 L107 500 Z " />
<glyph glyph-name="n" unicode="n" horiz-adv-x="617" d="M523 0 C530 0 534 4 534 11 L534 274 C534 415 474 510 339 510 C247 510 182 441 158 388 L158 489 C158 496 154 500 147 500 L107 500 C100 500 96 496 96 489 L96 11 C96 4 100 0 107 0 L147 0 C154 0 158 4 158 11 L158 264 C158 357 228 450 324 450 C428 450 472 376 472 265 L472 11 C472 4 476 0 484 0 L523 0 L523 0 Z " />
<glyph glyph-name="o" unicode="o" horiz-adv-x="585" d="M39 250 C39 106 149 -10 293 -10 C437 -10 546 106 546 250 C546 394 437 510 293 510 C149 510 39 394 39 250 L39 250 Z M100 250 C100 362 183 450 293 450 C403 450 485 362 485 250 C485 138 403 50 293 50 C183 50 100 138 100 250 L100 250 Z " />
<glyph glyph-name="p" unicode="p" horiz-adv-x="644" d="M542 250 C542 138 460 50 350 50 C239 50 157 138 157 250 C157 362 239 450 350 450 C460 450 542 362 542 250 L542 250 Z M107 500 C100 500 96 496 96 489 L96 -239 C96 -246 100 -250 107 -250 L147 -250 C154 -250 158 -246 158 -239 L158 110 C192 47 265 -10 361 -10 C501 -10 605 106 605 250 C605 394 501 510 361 510 C266 510 199 459 158 390 L158 489 C158 496 154 500 147 500 L107 500 L107 500 Z " />
<glyph glyph-name="q" unicode="q" horiz-adv-x="644" d="M101 250 C101 362 184 450 294 450 C404 450 486 359 486 250 C486 141 404 50 294 50 C184 50 101 138 101 250 L101 250 Z M497 500 C490 500 486 496 486 489 L486 390 C445 459 376 510 283 510 C143 510 39 394 39 250 C39 106 142 -10 282 -10 C382 -10 448 47 486 112 L486 -239 C486 -246 490 -250 497 -250 L536 -250 C544 -250 548 -246 548 -239 L548 489 C548 496 544 500 536 500 L497 500 L497 500 Z " />
<glyph glyph-name="r" unicode="r" horiz-adv-x="390" d="M107 500 C100 500 96 496 96 489 L96 11 C96 4 100 0 107 0 L147 0 C154 0 158 4 158 11 L158 244 C158 351 220 449 301 449 C320 449 332 447 349 440 C351 439 353 439 355 439 C359 439 362 441 364 446 L375 482 C378 489 377 494 370 497 C353 506 327 510 306 510 C233 510 176 447 158 386 L158 489 C158 496 154 500 147 500 L107 500 L107 500 Z " />
<glyph glyph-name="s" unicode="s" horiz-adv-x="438" d="M80 96 C77 98 74 100 71 100 C68 100 65 98 62 95 L44 76 C38 70 38 64 43 59 C87 16 150 -10 218 -10 C322 -10 398 52 398 136 C398 314 112 269 112 377 C112 430 166 456 221 456 C264 456 301 445 340 417 C343 415 346 414 349 414 C352 414 355 415 358 418 L379 440 C384 445 384 451 377 456 C341 485 285 510 221 510 C123 510 53 453 53 377 C53 212 339 259 339 135 C339 79 287 44 219 44 C163 44 115 65 80 96 L80 96 Z " />
<glyph glyph-name="t" unicode="t" horiz-adv-x="385" d="M323 64 C321 67 319 69 316 69 C315 69 313 68 311 67 C288 56 273 50 246 50 C207 50 179 68 179 111 L179 442 L311 442 C318 442 321 446 321 453 L321 489 C321 496 317 500 310 500 L179 500 L179 637 C179 644 175 648 168 648 L129 648 C121 648 117 644 117 637 L117 500 L59 500 C52 500 48 496 48 489 L48 453 C48 446 52 442 59 442 L117 442 L117 105 C117 30 162 -10 238 -10 C274 -10 302 -1 333 14 C340 18 342 23 339 29 L323 64 L323 64 Z " />
<glyph glyph-name="u" unicode="u" horiz-adv-x="617" d="M94 500 C87 500 83 496 83 489 L83 226 C83 85 143 -10 278 -10 C370 -10 435 57 459 112 L459 11 C459 4 463 0 471 0 L510 0 C517 0 521 4 521 11 L521 489 C521 496 517 500 510 500 L471 500 C463 500 459 496 459 489 L459 236 C459 143 389 50 293 50 C189 50 145 124 145 235 L145 489 C145 496 141 500 134 500 L94 500 L94 500 Z " />
<glyph glyph-name="v" unicode="v" horiz-adv-x="479" d="M94 489 C91 496 88 500 80 500 L36 500 C28 500 25 496 28 489 L200 15 C204 5 210 0 218 0 L262 0 C269 0 275 5 279 15 L451 489 C454 496 452 500 444 500 L400 500 C391 500 388 496 385 489 L240 86 L94 489 Z " />
<glyph glyph-name="w" unicode="w" horiz-adv-x="694" d="M91 489 C89 496 84 500 77 500 L37 500 C29 500 27 496 30 489 L149 15 C152 5 158 0 167 0 L217 0 C228 0 232 7 235 15 L347 421 L459 15 C462 7 465 0 476 0 L527 0 C538 0 541 8 544 15 L664 489 C666 496 664 500 657 500 L617 500 C608 500 605 496 602 489 L499 83 L384 486 C381 495 376 500 369 500 L325 500 C316 500 311 495 309 486 L252 284 C223 183 195 82 195 83 L91 489 L91 489 Z " />
<glyph glyph-name="x" unicode="x" horiz-adv-x="492" d="M386 9 C391 3 397 0 404 0 L451 0 C459 0 461 6 457 11 L286 252 L454 489 C458 494 457 500 449 500 L401 500 C390 500 388 497 383 490 L246 296 L109 490 C105 497 99 500 91 500 L43 500 C35 500 34 494 38 489 L206 252 L35 11 C30 4 32 0 41 0 L88 0 C95 0 101 3 106 9 L246 206 L386 9 Z " />
<glyph glyph-name="y" unicode="y" horiz-adv-x="620" d="M524 489 C524 496 520 500 512 500 L473 500 C466 500 462 496 462 489 L462 246 C462 150 395 60 296 60 C192 60 147 133 147 245 L147 489 C147 496 143 500 136 500 L97 500 C89 500 85 496 85 489 L85 236 C85 95 145 0 281 0 C372 0 440 66 462 120 L462 4 C462 -106 407 -195 287 -195 C220 -195 164 -165 131 -118 C130 -116 128 -114 125 -114 C123 -114 120 -116 117 -118 L93 -146 C89 -151 89 -156 94 -162 C133 -215 201 -255 289 -255 C439 -255 524 -141 524 8 L524 489 L524 489 Z " />
<glyph glyph-name="z" unicode="z" horiz-adv-x="477" d="M44 11 C44 4 48 0 55 0 L422 0 C429 0 433 4 433 11 L433 46 C433 54 429 58 422 58 L124 58 L409 443 C414 450 417 455 417 466 L417 489 C417 496 413 500 406 500 L70 500 C62 500 58 496 58 489 L58 454 C58 446 62 442 70 442 L335 442 L52 59 C47 52 44 47 44 38 L44 11 L44 11 Z " />
<glyph glyph-name="braceleft" unicode="&#x7b;" horiz-adv-x="309" d="M46 275 C102 275 112 218 112 143 L112 -14 C112 -61 138 -95 193 -95 L238 -95 C245 -95 249 -91 249 -84 L249 -62 C249 -55 245 -51 238 -51 L207 -51 C181 -51 168 -38 168 -11 L168 143 C168 210 159 301 92 301 C151 301 168 386 168 453 L168 612 C168 639 179 656 207 656 L238 656 C245 656 249 660 249 667 L249 689 C249 696 245 700 238 700 L193 700 C144 700 112 676 112 620 L112 453 C112 392 102 327 46 327 C39 327 35 323 35 315 L35 287 C35 279 39 275 46 275 L46 275 Z " />
<glyph glyph-name="bar" unicode="&#x7c;" horiz-adv-x="254" d="M158 709 C158 716 154 720 146 720 L107 720 C100 720 96 716 96 709 L96 -173 C96 -180 100 -184 107 -184 L146 -184 C154 -184 158 -180 158 -173 L158 709 L158 709 Z " />
<glyph glyph-name="braceright" unicode="&#x7d;" horiz-adv-x="309" d="M263 275 C270 275 274 279 274 287 L274 315 C274 323 270 327 263 327 C207 327 197 392 197 453 L197 620 C197 676 165 700 116 700 L71 700 C64 700 60 696 60 689 L60 667 C60 660 64 656 71 656 L102 656 C130 656 141 639 141 612 L141 453 C141 386 158 301 217 301 C150 301 141 210 141 143 L141 -11 C141 -38 128 -51 102 -51 L71 -51 C64 -51 60 -55 60 -62 L60 -84 C60 -91 64 -95 71 -95 L116 -95 C171 -95 197 -61 197 -14 L197 143 C197 218 207 275 263 275 L263 275 Z " />
<glyph glyph-name="asciitilde" unicode="&#x7e;" horiz-adv-x="557" d="M91 243 C116 283 141 308 188 308 C247 308 333 240 397 240 C449 240 476 285 505 319 C510 324 509 329 503 334 L483 349 C480 351 478 351 476 351 C473 351 470 350 467 347 C448 326 431 293 398 293 C340 293 252 358 188 361 C125 361 83 320 51 270 C47 263 48 258 55 255 L75 240 C77 239 80 238 82 238 C86 238 89 239 91 243 L91 243 Z " />
<glyph glyph-name="exclamdown" unicode="&#xa1;" horiz-adv-x="260" d="M113 335 C105 335 101 331 101 324 L99 -190 C99 -198 103 -202 110 -202 L150 -202 C157 -202 161 -198 161 -190 L159 324 C159 331 155 335 148 335 L113 335 Z M86 465 C86 440 105 420 130 420 C155 420 174 440 174 465 C174 489 155 508 130 508 C105 508 86 489 86 465 L86 465 Z " />
<glyph glyph-name="cent" unicode="&#xa2;" horiz-adv-x="489" d="M304 -9 C360 -6 405 8 441 33 C448 37 450 43 445 50 L424 79 C421 83 419 85 416 85 C413 85 410 84 407 82 C376 63 341 50 298 50 C188 50 105 138 105 250 C105 362 188 450 298 450 C317 450 359 449 406 418 C409 416 412 415 414 415 C417 415 420 417 423 420 L444 450 C449 457 448 462 439 467 C403 491 360 506 304 509 L304 692 C304 699 300 703 293 703 L272 703 C264 703 260 699 260 692 L260 507 C131 488 44 376 44 250 C44 123 130 12 260 -7 L260 -190 C260 -197 264 -201 272 -201 L293 -201 C300 -201 304 -197 304 -190 L304 -9 L304 -9 Z " />
<glyph glyph-name="sterling" unicode="&#xa3;" horiz-adv-x="556" d="M511 56 C511 61 510 64 506 64 C504 64 502 63 498 61 C472 44 440 39 407 39 C337 39 258 63 190 63 C175 63 161 62 148 59 L148 300 L358 300 C365 300 369 304 369 311 L369 335 C369 342 365 346 358 346 L148 346 C148 447 143 553 235 616 C266 637 303 645 341 645 C391 645 443 631 482 613 C483 612 485 612 486 612 C491 612 493 616 494 619 L505 649 C508 653 508 658 499 662 C453 683 396 698 339 698 C290 698 241 687 202 659 C98 584 95 485 95 346 L44 346 C36 346 32 342 32 335 L32 311 C32 304 36 300 44 300 L95 300 L95 11 C95 5 96 0 102 0 C103 0 105 0 107 1 C128 9 152 12 177 12 C251 12 339 -13 413 -13 C447 -13 477 -7 502 8 C510 12 511 15 511 23 L511 56 L511 56 Z " />
<glyph glyph-name="currency" unicode="&#xa4;" horiz-adv-x="544" d="M116 320 C116 405 185 476 270 476 C355 476 426 405 426 320 C426 235 355 166 270 166 C185 166 116 235 116 320 L116 320 Z M460 98 C462 96 465 95 467 95 C470 95 473 96 475 98 L495 118 C500 123 500 128 495 133 L436 192 C468 232 480 288 480 320 C480 353 471 407 436 448 L495 508 C500 513 499 519 494 525 L475 544 C473 547 470 548 467 548 C465 548 462 547 459 544 L400 485 C353 520 304 529 271 529 C251 529 198 528 145 486 L84 545 C81 548 78 549 76 549 C73 549 71 548 68 545 L49 526 C44 521 43 515 48 510 L109 450 C93 426 62 388 62 320 C62 287 70 239 107 192 L49 131 C44 126 44 121 49 115 L69 96 C72 94 74 92 77 92 C79 92 82 94 84 96 L143 156 C182 119 250 111 271 111 C303 111 357 119 400 158 L460 98 L460 98 Z " />
<glyph glyph-name="yen" unicode="&#xa5;" horiz-adv-x="592" d="M265 11 C265 4 269 0 277 0 L316 0 C324 0 328 4 328 11 L328 174 L522 174 C529 174 533 178 533 185 L533 215 C533 223 529 227 522 227 L328 227 L328 344 L522 344 C529 344 533 348 533 355 L533 386 C533 393 529 397 522 397 L362 397 L550 689 C553 694 552 700 544 700 L497 700 C492 700 487 698 483 693 L296 401 L110 693 C107 698 102 700 96 700 L48 700 C40 700 39 694 42 689 L231 397 L69 397 C62 397 59 393 59 386 L59 355 C59 348 62 344 69 344 L265 344 L265 227 L69 227 C62 227 59 223 59 215 L59 185 C59 178 62 174 69 174 L265 174 L265 11 Z " />
<glyph glyph-name="brokenbar" unicode="&#xa6;" horiz-adv-x="254" d="M158 710 C158 717 154 721 146 721 L107 721 C100 721 96 717 96 710 L96 308 C96 301 100 297 107 297 L146 297 C154 297 158 301 158 308 L158 710 L158 710 Z M158 226 C158 233 154 237 146 237 L107 237 C100 237 96 233 96 226 L96 -176 C96 -183 100 -187 107 -187 L146 -187 C154 -187 158 -183 158 -176 L158 226 L158 226 Z " />
<glyph glyph-name="section" unicode="&#xa7;" horiz-adv-x="548" d="M448 55 C489 99 499 144 499 183 C499 429 125 349 125 534 C125 606 200 648 277 648 C332 648 383 630 430 601 C433 599 435 599 438 599 C442 599 445 600 448 604 L469 637 C473 644 472 649 466 653 C406 692 339 710 280 710 C165 710 61 641 61 534 C61 474 85 432 126 401 C85 369 61 327 61 276 C61 38 436 115 436 -75 C436 -151 377 -206 273 -206 C209 -206 139 -180 86 -136 C83 -133 80 -132 78 -132 C75 -132 72 -134 69 -138 L47 -169 C43 -175 44 -180 50 -185 C114 -236 191 -268 272 -268 C426 -268 499 -173 499 -75 C499 -14 480 24 448 55 L448 55 Z M395 90 C296 154 125 148 125 276 C124 315 150 347 185 366 C284 310 436 308 436 183 C436 145 422 114 395 90 L395 90 Z " />
<glyph glyph-name="dieresis" unicode="&#xa8;" horiz-adv-x="363" d="M39 563 C39 539 58 520 82 520 C106 520 125 539 125 563 C125 587 106 606 82 606 C58 606 39 587 39 563 L39 563 Z M239 563 C239 539 257 520 281 520 C305 520 324 539 324 563 C324 587 305 606 281 606 C257 606 239 587 239 563 L239 563 Z " />
<glyph glyph-name="copyright" unicode="&#xa9;" horiz-adv-x="859" d="M432 765 C215 765 44 588 44 372 C44 160 215 -17 432 -17 C645 -17 815 160 815 372 C815 588 644 765 432 765 L432 765 Z M432 17 C237 17 78 181 78 372 C78 568 237 731 432 731 C631 731 781 561 781 372 C781 171 620 17 432 17 L432 17 Z M536 220 C542 224 543 230 539 237 L530 250 C528 254 524 255 521 255 C518 255 516 255 513 253 C494 241 470 233 442 233 C354 233 302 306 302 370 C302 443 358 509 442 509 C453 509 481 507 510 490 C513 488 516 487 519 487 C523 487 526 489 528 493 L538 507 C541 512 540 517 535 521 C515 536 477 549 441 549 C342 549 262 470 262 370 C262 272 342 193 441 193 C480 193 513 205 536 220 L536 220 Z " />
<glyph glyph-name="guillemotleft" unicode="&#xab;" horiz-adv-x="474" d="M425 414 C430 421 427 425 418 425 L377 425 C370 425 364 421 360 414 L244 239 C241 234 240 229 241 224 L244 218 L360 45 C364 38 370 34 377 34 L417 34 C427 34 430 38 425 45 L300 229 L425 414 Z M214 414 C218 421 214 425 206 425 L166 425 C159 425 153 421 149 414 L32 239 C29 234 28 229 29 224 L32 218 L149 45 C153 38 159 34 166 34 L206 34 C215 34 218 38 213 45 L89 229 L214 414 Z " />
<glyph glyph-name="logicalnot" unicode="&#xac;" horiz-adv-x="644" d="M537 51 C544 51 548 54 548 61 L548 335 L89 335 C82 335 78 331 78 324 L78 290 C78 283 82 279 89 279 L492 279 L492 61 C492 54 496 51 504 51 L537 51 L537 51 Z " />
<glyph glyph-name="uni00AD" unicode="&#xad;" horiz-adv-x="467" d="M91 289 C84 289 80 285 80 278 L80 239 C80 231 84 227 91 227 L376 227 C383 227 387 231 387 239 L387 278 C387 285 383 289 376 289 L91 289 L91 289 Z " />
<glyph glyph-name="registered" unicode="&#xae;" horiz-adv-x="859" d="M432 765 C215 765 44 588 44 372 C44 160 215 -17 432 -17 C645 -17 815 160 815 372 C815 588 644 765 432 765 L432 765 Z M432 17 C237 17 78 181 78 372 C78 568 237 731 432 731 C631 731 781 561 781 372 C781 171 620 17 432 17 L432 17 Z M427 558 C493 558 530 509 530 462 C530 406 494 361 427 361 L337 361 L337 558 L427 558 L427 558 Z M455 326 C484 329 567 362 567 462 C567 539 504 596 427 596 L308 596 C302 596 299 593 299 586 L299 177 C299 170 302 166 308 166 L327 166 C333 166 336 170 336 177 L336 324 L412 324 L525 175 C528 169 533 166 540 166 L567 166 C572 166 572 172 569 175 L455 326 L455 326 Z " />
<glyph glyph-name="degree" unicode="&#xb0;" horiz-adv-x="430" d="M39 526 C39 430 119 350 215 350 C311 350 391 430 391 526 C391 622 311 702 215 702 C119 702 39 622 39 526 L39 526 Z M86 525 C86 600 139 656 214 656 C287 656 345 600 345 525 C345 450 287 397 214 397 C139 397 86 450 86 525 L86 525 Z " />
<glyph glyph-name="plusminus" unicode="&#xb1;" horiz-adv-x="557" d="M57 114 C50 114 46 110 46 102 L46 69 C46 62 50 58 57 58 L498 58 C505 58 509 62 509 69 L509 102 C509 110 505 114 498 114 L57 114 L57 114 Z M498 413 C505 413 508 417 508 425 L508 458 C508 466 505 470 498 470 L307 470 L307 659 C307 666 303 669 296 669 L263 669 C255 669 251 666 251 659 L251 470 L60 470 C53 470 50 466 50 458 L50 425 C50 417 53 413 60 413 L251 413 L251 223 C251 216 255 212 263 212 L296 212 C303 212 307 216 307 223 L307 413 L498 413 Z " />
<glyph glyph-name="twosuperior" unicode="&#xb2;" horiz-adv-x="308" d="M124 502 C180 553 229 596 229 666 C229 723 193 760 138 760 C109 760 86 752 59 737 C54 733 53 729 56 724 L69 705 C71 701 73 700 76 700 C78 700 80 700 83 702 C100 711 116 718 135 718 C170 718 186 694 186 662 C186 610 144 571 56 488 C53 486 52 483 52 478 L52 469 C52 463 55 460 61 460 L235 460 C241 460 244 463 244 469 L244 494 C244 499 241 502 235 502 L124 502 L124 502 Z " />
<glyph glyph-name="threesuperior" unicode="&#xb3;" horiz-adv-x="283" d="M116 595 C159 595 188 578 188 543 C188 512 172 495 133 495 C116 495 101 499 80 511 C78 513 75 513 73 513 C70 513 68 512 66 508 L54 489 C50 484 51 480 57 476 C82 461 103 453 134 453 C197 453 229 489 229 540 C229 581 202 603 170 614 C198 625 223 645 223 684 C223 728 190 760 141 760 C113 760 90 752 66 737 C61 734 60 730 63 724 L74 705 C76 703 78 700 82 700 C84 700 86 701 88 702 C100 709 117 718 138 718 C169 718 182 701 182 678 C182 643 152 631 116 631 C112 631 110 629 110 624 L110 601 C110 597 112 595 116 595 L116 595 Z " />
<glyph glyph-name="acute" unicode="&#xb4;" horiz-adv-x="217" d="M66 558 C68 557 70 557 72 557 C76 557 80 559 83 564 L177 721 C180 728 179 733 172 735 L140 746 C138 747 136 747 135 747 C130 747 126 744 123 739 L40 583 C37 576 38 571 44 568 L66 558 L66 558 Z " />
<glyph glyph-name="mu" unicode="&#xb5;" horiz-adv-x="617" d="M145 70 C179 19 225 -7 291 -7 C364 -7 431 45 459 111 L459 11 C459 4 463 0 471 0 L510 0 C517 0 521 4 521 11 L521 489 C521 496 517 500 510 500 L471 500 C463 500 459 496 459 489 L459 246 C459 153 389 50 293 50 C193 50 145 128 145 235 L145 489 C145 496 141 500 134 500 L94 500 C87 500 83 496 83 489 L83 -239 C83 -246 87 -250 94 -250 L134 -250 C141 -250 145 -246 145 -239 L145 70 L145 70 Z " />
<glyph glyph-name="paragraph" unicode="&#xb6;" horiz-adv-x="610" d="M428 -221 C428 -228 432 -232 439 -232 L470 -232 C477 -232 481 -228 481 -221 L481 629 L561 629 C568 629 572 633 572 640 L572 671 C572 678 568 682 561 682 L232 682 C121 682 30 591 30 480 C30 369 121 278 232 278 L232 -221 C232 -228 236 -232 243 -232 L274 -232 C281 -232 285 -228 285 -221 L285 629 L428 629 L428 -221 L428 -221 Z " />
<glyph glyph-name="periodcentered" unicode="&#xb7;" horiz-adv-x="166" d="M39 330 C39 305 58 286 83 286 C108 286 127 305 127 330 C127 355 108 374 83 374 C58 374 39 355 39 330 L39 330 Z " />
<glyph glyph-name="cedilla" unicode="&#xb8;" horiz-adv-x="173" d="M41 -166 C40 -173 43 -177 51 -177 L84 -177 C93 -177 97 -174 98 -167 L126 -7 C127 1 124 5 117 5 L88 5 C79 5 78 0 75 -7 L41 -166 L41 -166 Z " />
<glyph glyph-name="onesuperior" unicode="&#xb9;" horiz-adv-x="254" d="M66 743 C61 743 59 740 59 733 L62 708 C63 703 66 700 71 701 L114 707 L114 469 C114 463 117 460 123 460 L149 460 C155 460 158 463 158 469 L158 746 C158 752 155 755 149 755 L140 755 L66 743 L66 743 Z " />
<glyph glyph-name="ordmasculine" unicode="&#xba;" horiz-adv-x="585" d="M39 250 C39 106 149 -10 293 -10 C437 -10 546 106 546 250 C546 394 437 510 293 510 C149 510 39 394 39 250 L39 250 Z M100 250 C100 362 183 450 293 450 C403 450 485 362 485 250 C485 138 403 50 293 50 C183 50 100 138 100 250 L100 250 Z " />
<glyph glyph-name="guillemotright" unicode="&#xbb;" horiz-adv-x="474" d="M49 45 C44 38 47 34 56 34 L96 34 C104 34 110 38 113 45 L230 218 L233 224 C234 228 233 233 230 239 L113 414 C110 421 104 425 96 425 L56 425 C47 425 44 421 49 414 L173 229 L49 45 L49 45 Z M261 45 C256 38 259 34 268 34 L308 34 C315 34 321 38 325 45 L442 218 L445 224 C446 228 445 233 442 239 L325 414 C321 421 315 425 308 425 L268 425 C258 425 255 421 260 414 L385 229 L261 45 L261 45 Z " />
<glyph glyph-name="onequarter" unicode="&#xbc;" horiz-adv-x="738" d="M161 11 C157 4 160 0 169 0 L200 0 C206 0 211 4 215 11 L603 689 C607 696 604 700 595 700 L564 700 C558 700 553 696 549 689 L161 11 L161 11 Z M605 9 C605 3 608 0 613 0 L636 0 C642 0 645 3 645 9 L645 64 L675 64 C681 64 684 67 684 73 L684 94 C684 100 681 103 675 103 L645 103 L645 154 C645 160 642 163 636 163 L615 163 C609 163 606 160 606 154 L606 103 L530 103 L601 285 C603 292 601 295 595 295 L571 295 C564 295 559 292 556 285 L483 95 L483 73 C483 67 486 64 492 64 L605 64 L605 9 Z M116 535 C159 535 188 518 188 483 C188 452 172 435 133 435 C116 435 101 439 80 451 C78 453 75 453 73 453 C70 453 68 452 66 448 L54 429 C50 424 51 420 57 416 C82 401 103 393 134 393 C197 393 229 429 229 480 C229 521 202 543 170 554 C198 565 223 585 223 624 C223 668 190 700 141 700 C113 700 90 692 66 677 C61 674 60 670 63 664 L74 645 C76 643 78 640 82 640 C84 640 86 641 88 642 C100 649 117 658 138 658 C169 658 182 641 182 618 C182 583 152 571 116 571 C112 571 110 569 110 564 L110 541 C110 537 112 535 116 535 L116 535 Z " />
<glyph glyph-name="onehalf" unicode="&#xbd;" horiz-adv-x="688" d="M66 689 C61 689 59 686 59 679 L62 654 C63 649 66 646 71 647 L114 653 L114 415 C114 409 117 406 123 406 L149 406 C155 406 158 409 158 415 L158 692 C158 698 155 701 149 701 L140 701 L66 689 L66 689 Z M504 42 C558 93 608 135 608 206 C608 263 573 300 517 300 C489 300 466 292 439 277 C434 274 433 269 436 264 L448 245 C450 242 453 240 456 240 C458 240 460 241 462 242 C479 251 496 258 515 258 C550 258 565 234 565 202 C565 150 524 111 436 28 C433 26 432 23 432 18 L432 9 C432 3 435 0 441 0 L615 0 C621 0 624 3 624 9 L624 34 C624 39 621 42 615 42 L504 42 L504 42 Z M96 11 C92 4 95 0 105 0 L135 0 C142 0 147 4 150 11 L539 689 C543 696 540 700 530 700 L500 700 C494 700 489 696 485 689 L96 11 L96 11 Z " />
<glyph glyph-name="threequarters" unicode="&#xbe;" horiz-adv-x="672" d="M66 689 C61 689 59 686 59 679 L62 654 C63 649 66 646 71 647 L114 653 L114 415 C114 409 117 406 123 406 L149 406 C155 406 158 409 158 415 L158 692 C158 698 155 701 149 701 L140 701 L66 689 L66 689 Z M96 11 C92 4 95 0 105 0 L135 0 C142 0 147 4 150 11 L539 689 C543 696 540 700 530 700 L500 700 C494 700 489 696 485 689 L96 11 L96 11 Z M540 9 C540 3 543 0 548 0 L571 0 C577 0 580 3 580 9 L580 64 L610 64 C615 64 618 67 618 73 L618 94 C618 100 615 103 610 103 L580 103 L580 154 C580 160 577 163 571 163 L549 163 C543 163 540 160 540 154 L540 103 L465 103 L536 285 C538 292 536 295 529 295 L506 295 C499 295 494 292 491 285 L418 95 L418 73 C418 67 421 64 427 64 L540 64 L540 9 Z " />
<glyph glyph-name="questiondown" unicode="&#xbf;" horiz-adv-x="438" d="M378 100 C375 104 372 107 368 107 C366 107 364 106 361 104 C322 73 274 51 229 51 C161 51 110 95 110 159 C110 283 276 294 276 477 L276 524 C276 533 272 537 265 537 L226 537 C218 537 214 533 214 524 L214 477 C214 322 46 303 46 152 C46 64 111 -10 226 -10 C294 -10 351 18 394 50 C401 55 403 61 399 68 L378 100 L378 100 Z M290 666 C290 691 271 710 246 710 C221 710 202 691 202 666 C202 641 221 622 246 622 C271 622 290 641 290 666 L290 666 Z " />
<glyph glyph-name="Agrave" unicode="&#xc0;" horiz-adv-x="608" d="M76 0 C85 0 91 4 93 11 L156 192 L452 192 L514 14 C517 5 523 0 532 0 L574 0 C583 0 586 4 583 11 L346 689 C344 696 339 700 332 700 L276 700 C269 700 264 696 262 689 L25 11 C23 4 26 0 34 0 L76 0 L76 0 Z M173 253 L304 622 L435 253 L173 253 Z M329 776 C336 779 336 786 333 791 L250 947 C248 952 244 955 239 955 C238 955 236 955 234 954 L201 943 C194 941 193 936 196 929 L290 772 C293 767 297 765 301 765 C303 765 305 765 307 766 L329 776 L329 776 Z " />
<glyph glyph-name="Aacute" unicode="&#xc1;" horiz-adv-x="608" d="M76 0 C85 0 91 4 93 11 L156 192 L452 192 L514 14 C517 5 523 0 532 0 L574 0 C583 0 586 4 583 11 L346 689 C344 696 339 700 332 700 L276 700 C269 700 264 696 262 689 L25 11 C23 4 26 0 34 0 L76 0 L76 0 Z M173 253 L304 622 L435 253 L173 253 Z M306 766 C308 765 310 765 312 765 C316 765 320 767 323 772 L417 929 C420 936 419 941 412 943 L380 954 C378 955 376 955 375 955 C370 955 366 952 363 947 L280 791 C277 784 278 779 284 776 L306 766 L306 766 Z " />
<glyph glyph-name="Acircumflex" unicode="&#xc2;" horiz-adv-x="608" d="M76 0 C85 0 91 4 93 11 L156 192 L452 192 L514 14 C517 5 523 0 532 0 L574 0 C583 0 586 4 583 11 L346 689 C344 696 339 700 332 700 L276 700 C269 700 264 696 262 689 L25 11 C23 4 26 0 34 0 L76 0 L76 0 Z M173 253 L304 622 L435 253 L173 253 Z M291 938 C282 938 275 934 269 927 L147 798 C141 792 141 786 148 780 L161 765 C164 762 167 761 169 761 C173 761 177 764 179 766 L303 892 L428 766 C432 763 435 761 438 761 C441 761 444 763 446 765 L459 780 C465 787 465 793 460 798 L338 927 C331 934 327 938 316 938 L291 938 L291 938 Z " />
<glyph glyph-name="Atilde" unicode="&#xc3;" horiz-adv-x="608" d="M76 0 C85 0 91 4 93 11 L156 192 L452 192 L514 14 C517 5 523 0 532 0 L574 0 C583 0 586 4 583 11 L346 689 C344 696 339 700 332 700 L276 700 C269 700 264 696 262 689 L25 11 C23 4 26 0 34 0 L76 0 L76 0 Z M173 253 L304 622 L435 253 L173 253 Z M376 854 C330 854 296 922 232 922 C197 922 159 895 132 862 C127 856 126 850 128 844 L136 816 C138 811 140 808 143 808 C145 808 148 809 150 812 C169 840 204 873 234 873 C282 873 317 805 378 805 C413 805 451 833 478 866 C483 871 484 877 481 884 L474 911 C472 917 470 920 467 920 C465 920 463 918 460 915 C442 889 405 854 376 854 L376 854 Z " />
<glyph glyph-name="Adieresis" unicode="&#xc4;" horiz-adv-x="608" d="M76 0 C85 0 91 4 93 11 L156 192 L452 192 L514 14 C517 5 523 0 532 0 L574 0 C583 0 586 4 583 11 L346 689 C344 696 339 700 332 700 L276 700 C269 700 264 696 262 689 L25 11 C23 4 26 0 34 0 L76 0 L76 0 Z M173 253 L304 622 L435 253 L173 253 Z M162 834 C162 810 181 791 205 791 C229 791 248 810 248 834 C248 858 229 877 205 877 C181 877 162 858 162 834 L162 834 Z M362 834 C362 810 380 791 404 791 C428 791 447 810 447 834 C447 858 428 877 404 877 C380 877 362 858 362 834 L362 834 Z " />
<glyph glyph-name="Aring" unicode="&#xc5;" horiz-adv-x="608" d="M76 0 C85 0 91 4 93 11 L156 192 L452 192 L514 14 C517 5 523 0 532 0 L574 0 C583 0 586 4 583 11 L346 689 C344 696 339 700 332 700 L276 700 C269 700 264 696 262 689 L25 11 C23 4 26 0 34 0 L76 0 L76 0 Z M173 253 L304 622 L435 253 L173 253 Z M198 861 C198 803 246 755 304 755 C362 755 410 803 410 861 C410 919 362 967 304 967 C246 967 198 919 198 861 L198 861 Z M243 861 C243 896 269 923 304 923 C339 923 366 896 366 861 C366 826 339 800 304 800 C269 800 243 826 243 861 L243 861 Z " />
<glyph glyph-name="AE" unicode="&#xc6;" horiz-adv-x="833" d="M215 252 L391 596 L392 596 L392 252 L215 252 Z M79 0 C87 0 90 4 94 11 L187 192 L392 192 L392 11 C392 7 394 0 403 0 L766 0 C774 0 778 4 778 11 L778 50 C778 58 774 62 766 62 L457 62 L457 320 L731 320 C739 320 743 324 743 331 L743 369 C743 376 739 380 731 380 L457 380 L457 638 L766 638 C773 638 777 642 777 650 L777 689 C777 696 773 700 766 700 L389 700 C379 700 372 696 368 687 L26 11 C22 4 25 0 36 0 L79 0 L79 0 Z " />
<glyph glyph-name="Ccedilla" unicode="&#xc7;" horiz-adv-x="665" d="M335 -166 C332 -173 338 -177 345 -177 L378 -177 C387 -177 391 -174 392 -167 L419 -10 C492 -3 540 12 596 45 C602 49 603 55 599 62 L578 93 C576 97 573 100 569 100 C567 100 565 99 563 97 C520 68 458 51 401 51 C232 51 107 180 107 348 C107 516 232 649 401 649 C461 649 510 632 559 604 C562 602 565 602 568 602 C571 602 575 603 577 607 L597 640 C601 647 600 652 593 655 C544 687 474 710 401 710 C196 710 44 551 44 348 C44 168 168 8 369 -8 L335 -166 L335 -166 Z " />
<glyph glyph-name="Egrave" unicode="&#xc8;" horiz-adv-x="571" d="M112 700 C105 700 101 696 101 689 L101 11 C101 4 105 0 112 0 L505 0 C512 0 516 4 516 11 L516 50 C516 58 512 62 505 62 L164 62 L164 320 L469 320 C477 320 481 324 481 331 L481 369 C481 376 477 380 469 380 L164 380 L164 638 L504 638 C512 638 516 642 516 650 L516 689 C516 696 512 700 504 700 L112 700 L112 700 Z M342 777 C349 780 349 787 346 792 L263 948 C261 953 257 956 252 956 C251 956 249 956 247 955 L214 944 C207 942 206 937 209 930 L303 773 C306 768 310 766 314 766 C316 766 318 766 320 767 L342 777 L342 777 Z " />
<glyph glyph-name="Eacute" unicode="&#xc9;" horiz-adv-x="571" d="M112 700 C105 700 101 696 101 689 L101 11 C101 4 105 0 112 0 L505 0 C512 0 516 4 516 11 L516 50 C516 58 512 62 505 62 L164 62 L164 320 L469 320 C477 320 481 324 481 331 L481 369 C481 376 477 380 469 380 L164 380 L164 638 L504 638 C512 638 516 642 516 650 L516 689 C516 696 512 700 504 700 L112 700 L112 700 Z M297 768 C299 767 301 767 303 767 C307 767 311 769 314 774 L408 931 C411 938 410 943 403 945 L371 956 C369 957 367 957 366 957 C361 957 357 954 354 949 L271 793 C268 786 269 781 275 778 L297 768 L297 768 Z " />
<glyph glyph-name="Ecircumflex" unicode="&#xca;" horiz-adv-x="571" d="M112 700 C105 700 101 696 101 689 L101 11 C101 4 105 0 112 0 L505 0 C512 0 516 4 516 11 L516 50 C516 58 512 62 505 62 L164 62 L164 320 L469 320 C477 320 481 324 481 331 L481 369 C481 376 477 380 469 380 L164 380 L164 638 L504 638 C512 638 516 642 516 650 L516 689 C516 696 512 700 504 700 L112 700 L112 700 Z M295 938 C286 938 279 934 273 927 L151 798 C145 792 145 786 152 780 L165 765 C168 762 171 761 173 761 C177 761 181 764 183 766 L307 892 L432 766 C436 763 439 761 442 761 C445 761 448 763 450 765 L463 780 C469 787 469 793 464 798 L342 927 C335 934 331 938 320 938 L295 938 L295 938 Z " />
<glyph glyph-name="Edieresis" unicode="&#xcb;" horiz-adv-x="571" d="M112 700 C105 700 101 696 101 689 L101 11 C101 4 105 0 112 0 L505 0 C512 0 516 4 516 11 L516 50 C516 58 512 62 505 62 L164 62 L164 320 L469 320 C477 320 481 324 481 331 L481 369 C481 376 477 380 469 380 L164 380 L164 638 L504 638 C512 638 516 642 516 650 L516 689 C516 696 512 700 504 700 L112 700 L112 700 Z M161 834 C161 810 180 791 204 791 C228 791 247 810 247 834 C247 858 228 877 204 877 C180 877 161 858 161 834 L161 834 Z M361 834 C361 810 379 791 403 791 C427 791 446 810 446 834 C446 858 427 877 403 877 C379 877 361 858 361 834 L361 834 Z " />
<glyph glyph-name="Igrave" unicode="&#xcc;" horiz-adv-x="265" d="M152 0 C160 0 164 4 164 11 L164 689 C164 696 160 700 152 700 L112 700 C105 700 101 696 101 689 L101 11 C101 4 105 0 112 0 L152 0 L152 0 Z M148 777 C155 780 155 787 152 792 L69 948 C67 953 63 956 58 956 C57 956 55 956 53 955 L20 944 C13 942 12 937 15 930 L109 773 C112 768 116 766 120 766 C122 766 124 766 126 767 L148 777 L148 777 Z " />
<glyph glyph-name="Iacute" unicode="&#xcd;" horiz-adv-x="266" d="M154 0 C162 0 166 4 166 11 L166 689 C166 696 162 700 154 700 L114 700 C107 700 103 696 103 689 L103 11 C103 4 107 0 114 0 L154 0 L154 0 Z M139 768 C141 767 143 767 145 767 C149 767 153 769 156 774 L250 931 C253 938 252 943 245 945 L213 956 C211 957 209 957 208 957 C203 957 199 954 196 949 L113 793 C110 786 111 781 117 778 L139 768 L139 768 Z " />
<glyph glyph-name="Icircumflex" unicode="&#xce;" horiz-adv-x="265" d="M152 0 C160 0 164 4 164 11 L164 689 C164 696 160 700 152 700 L112 700 C105 700 101 696 101 689 L101 11 C101 4 105 0 112 0 L152 0 L152 0 Z M120 938 C111 938 104 934 98 927 L-24 798 C-30 792 -30 786 -23 780 L-10 765 C-7 762 -4 761 -2 761 C2 761 6 764 8 766 L132 892 L257 766 C261 763 264 761 267 761 C270 761 273 763 275 765 L288 780 C294 787 294 793 289 798 L167 927 C160 934 156 938 145 938 L120 938 L120 938 Z " />
<glyph glyph-name="Idieresis" unicode="&#xcf;" horiz-adv-x="265" d="M152 0 C160 0 164 4 164 11 L164 689 C164 696 160 700 152 700 L112 700 C105 700 101 696 101 689 L101 11 C101 4 105 0 112 0 L152 0 L152 0 Z M-10 833 C-10 809 9 790 33 790 C57 790 76 809 76 833 C76 857 57 876 33 876 C9 876 -10 857 -10 833 L-10 833 Z M190 833 C190 809 208 790 232 790 C256 790 275 809 275 833 C275 857 256 876 232 876 C208 876 190 857 190 833 L190 833 Z " />
<glyph glyph-name="Eth" unicode="&#xd0;" horiz-adv-x="740" d="M101 11 C101 4 105 0 112 0 L344 0 C544 0 696 156 696 348 C696 544 544 700 344 700 L112 700 C105 700 101 696 101 689 L101 378 L31 378 C24 378 20 374 20 365 L20 338 C20 329 24 325 31 325 L101 325 L101 11 Z M164 638 L341 638 C504 638 634 513 634 348 C634 191 504 62 341 62 L164 62 L164 325 L281 325 C288 325 292 329 292 337 L292 366 C292 374 288 378 281 378 L164 378 L164 638 Z " />
<glyph glyph-name="Ntilde" unicode="&#xd1;" horiz-adv-x="736" d="M624 0 C631 0 635 4 635 11 L635 689 C635 696 631 700 624 700 L584 700 C576 700 572 696 572 689 L572 112 L172 689 C167 696 164 700 153 700 L112 700 C105 700 101 696 101 689 L101 11 C101 4 105 0 112 0 L152 0 C160 0 164 4 164 11 L164 588 L564 11 C569 4 572 0 583 0 L624 0 Z M437 854 C391 854 357 922 293 922 C258 922 220 895 193 862 C188 856 187 850 189 844 L197 816 C199 811 201 808 204 808 C206 808 209 809 211 812 C230 840 265 873 295 873 C343 873 378 805 439 805 C474 805 512 833 539 866 C544 871 545 877 542 884 L535 911 C533 917 531 920 528 920 C526 920 524 918 521 915 C503 889 466 854 437 854 L437 854 Z " />
<glyph glyph-name="Ograve" unicode="&#xd2;" horiz-adv-x="802" d="M401 710 C197 710 44 551 44 348 C44 145 197 -10 401 -10 C605 -10 758 149 758 348 C758 551 605 710 401 710 L401 710 Z M401 51 C232 51 107 180 107 348 C107 516 232 649 401 649 C570 649 695 516 695 348 C695 180 566 51 401 51 L401 51 Z M419 777 C426 780 426 787 423 792 L340 948 C338 953 334 956 329 956 C328 956 326 956 324 955 L291 944 C284 942 283 937 286 930 L380 773 C383 768 387 766 391 766 C393 766 395 766 397 767 L419 777 L419 777 Z " />
<glyph glyph-name="Oacute" unicode="&#xd3;" horiz-adv-x="802" d="M401 710 C197 710 44 551 44 348 C44 145 197 -10 401 -10 C605 -10 758 149 758 348 C758 551 605 710 401 710 L401 710 Z M401 51 C232 51 107 180 107 348 C107 516 232 649 401 649 C570 649 695 516 695 348 C695 180 566 51 401 51 L401 51 Z M410 767 C412 766 414 766 416 766 C420 766 424 768 427 773 L521 930 C524 937 523 942 516 944 L484 955 C482 956 480 956 479 956 C474 956 470 953 467 948 L384 792 C381 785 382 780 388 777 L410 767 L410 767 Z " />
<glyph glyph-name="Ocircumflex" unicode="&#xd4;" horiz-adv-x="802" d="M401 710 C197 710 44 551 44 348 C44 145 197 -10 401 -10 C605 -10 758 149 758 348 C758 551 605 710 401 710 L401 710 Z M401 51 C232 51 107 180 107 348 C107 516 232 649 401 649 C570 649 695 516 695 348 C695 180 566 51 401 51 L401 51 Z M389 939 C380 939 373 935 367 928 L245 799 C239 793 239 787 246 781 L259 766 C262 763 265 762 267 762 C271 762 275 765 277 767 L401 893 L526 767 C530 764 533 762 536 762 C539 762 542 764 544 766 L557 781 C563 788 563 794 558 799 L436 928 C429 935 425 939 414 939 L389 939 L389 939 Z " />
<glyph glyph-name="Otilde" unicode="&#xd5;" horiz-adv-x="802" d="M401 710 C197 710 44 551 44 348 C44 145 197 -10 401 -10 C605 -10 758 149 758 348 C758 551 605 710 401 710 L401 710 Z M401 51 C232 51 107 180 107 348 C107 516 232 649 401 649 C570 649 695 516 695 348 C695 180 566 51 401 51 L401 51 Z M473 854 C427 854 393 922 329 922 C294 922 256 895 229 862 C224 856 223 850 225 844 L233 816 C235 811 237 808 240 808 C242 808 245 809 247 812 C266 840 301 873 331 873 C379 873 414 805 475 805 C510 805 548 833 575 866 C580 871 581 877 578 884 L571 911 C569 917 567 920 564 920 C562 920 560 918 557 915 C539 889 502 854 473 854 L473 854 Z " />
<glyph glyph-name="Odieresis" unicode="&#xd6;" horiz-adv-x="802" d="M401 710 C197 710 44 551 44 348 C44 145 197 -10 401 -10 C605 -10 758 149 758 348 C758 551 605 710 401 710 L401 710 Z M401 51 C232 51 107 180 107 348 C107 516 232 649 401 649 C570 649 695 516 695 348 C695 180 566 51 401 51 L401 51 Z M259 834 C259 810 278 791 302 791 C326 791 345 810 345 834 C345 858 326 877 302 877 C278 877 259 858 259 834 L259 834 Z M459 834 C459 810 477 791 501 791 C525 791 544 810 544 834 C544 858 525 877 501 877 C477 877 459 858 459 834 L459 834 Z " />
<glyph glyph-name="multiply" unicode="&#xd7;" horiz-adv-x="446" d="M397 428 C402 433 402 438 396 443 L373 467 C370 470 367 471 364 471 C362 471 359 470 357 468 L222 334 L89 467 C86 470 83 471 81 471 C78 471 76 469 73 467 L49 443 C45 438 42 434 49 427 L183 294 L48 158 C43 153 44 148 49 143 L72 119 C75 117 78 115 81 115 C83 115 86 116 88 119 L222 254 L358 119 C360 117 362 115 365 115 C367 115 370 117 373 119 L397 143 C402 149 402 154 398 158 L262 294 L397 428 Z " />
<glyph glyph-name="Oslash" unicode="&#xd8;" horiz-adv-x="800" d="M223 111 C147 167 106 245 106 348 C106 516 242 649 400 649 C449 649 502 636 545 609 L223 111 Z M665 729 C669 734 666 737 655 737 L638 737 C631 737 626 734 622 729 L579 662 C526 693 465 710 400 710 C203 710 44 544 44 348 C44 230 92 134 189 59 L138 -22 C134 -27 140 -30 147 -30 L167 -30 C172 -30 177 -27 180 -22 L219 39 C268 8 336 -10 400 -10 C603 -10 756 157 756 348 C756 471 705 568 609 643 L665 729 L665 729 Z M574 589 C651 533 694 448 694 348 C694 185 563 51 400 51 C349 51 295 64 252 91 L574 589 Z " />
<glyph glyph-name="Ugrave" unicode="&#xd9;" horiz-adv-x="690" d="M100 700 C93 700 89 696 89 689 L89 263 C89 116 174 -10 345 -10 C512 -10 601 116 601 263 L601 689 C601 696 597 700 589 700 L549 700 C542 700 538 696 538 689 L538 271 C538 140 467 51 345 51 C222 51 152 140 152 271 L152 689 C152 696 148 700 140 700 L100 700 L100 700 Z M358 777 C365 780 365 787 362 792 L279 948 C277 953 273 956 268 956 C267 956 265 956 263 955 L230 944 C223 942 222 937 225 930 L319 773 C322 768 326 766 330 766 C332 766 334 766 336 767 L358 777 L358 777 Z " />
<glyph glyph-name="Uacute" unicode="&#xda;" horiz-adv-x="690" d="M100 700 C93 700 89 696 89 689 L89 263 C89 116 174 -10 345 -10 C512 -10 601 116 601 263 L601 689 C601 696 597 700 589 700 L549 700 C542 700 538 696 538 689 L538 271 C538 140 467 51 345 51 C222 51 152 140 152 271 L152 689 C152 696 148 700 140 700 L100 700 L100 700 Z M341 767 C343 766 345 766 347 766 C351 766 355 768 358 773 L452 930 C455 937 454 942 447 944 L415 955 C413 956 411 956 410 956 C405 956 401 953 398 948 L315 792 C312 785 313 780 319 777 L341 767 L341 767 Z " />
<glyph glyph-name="Ucircumflex" unicode="&#xdb;" horiz-adv-x="690" d="M100 700 C93 700 89 696 89 689 L89 263 C89 116 174 -10 345 -10 C512 -10 601 116 601 263 L601 689 C601 696 597 700 589 700 L549 700 C542 700 538 696 538 689 L538 271 C538 140 467 51 345 51 C222 51 152 140 152 271 L152 689 C152 696 148 700 140 700 L100 700 L100 700 Z M332 938 C323 938 316 934 310 927 L188 798 C182 792 182 786 189 780 L202 765 C205 762 208 761 210 761 C214 761 218 764 220 766 L344 892 L469 766 C473 763 476 761 479 761 C482 761 485 763 487 765 L500 780 C506 787 506 793 501 798 L379 927 C372 934 368 938 357 938 L332 938 L332 938 Z " />
<glyph glyph-name="Udieresis" unicode="&#xdc;" horiz-adv-x="690" d="M100 700 C93 700 89 696 89 689 L89 263 C89 116 174 -10 345 -10 C512 -10 601 116 601 263 L601 689 C601 696 597 700 589 700 L549 700 C542 700 538 696 538 689 L538 271 C538 140 467 51 345 51 C222 51 152 140 152 271 L152 689 C152 696 148 700 140 700 L100 700 L100 700 Z M203 834 C203 810 222 791 246 791 C270 791 289 810 289 834 C289 858 270 877 246 877 C222 877 203 858 203 834 L203 834 Z M403 834 C403 810 421 791 445 791 C469 791 488 810 488 834 C488 858 469 877 445 877 C421 877 403 858 403 834 L403 834 Z " />
<glyph glyph-name="Yacute" unicode="&#xdd;" horiz-adv-x="574" d="M101 693 C98 698 93 700 87 700 L39 700 C31 700 30 694 33 689 L256 344 L256 11 C256 4 260 0 268 0 L307 0 C315 0 319 4 319 11 L319 344 L541 689 C544 694 543 700 535 700 L488 700 C483 700 478 698 474 693 L287 401 L101 693 L101 693 Z M287 767 C289 766 291 766 293 766 C297 766 301 768 304 773 L398 930 C401 937 400 942 393 944 L361 955 C359 956 357 956 356 956 C351 956 347 953 344 948 L261 792 C258 785 259 780 265 777 L287 767 L287 767 Z " />
<glyph glyph-name="Thorn" unicode="&#xde;" horiz-adv-x="567" d="M164 541 L303 541 C404 541 477 477 477 376 C477 276 404 206 303 206 L164 206 L164 541 Z M101 11 C101 4 105 0 112 0 L153 0 C160 0 164 4 164 11 L164 147 L313 147 C444 147 539 249 539 376 C539 504 446 600 313 600 L164 600 L164 739 C164 746 160 750 153 750 L112 750 C105 750 101 746 101 739 L101 11 L101 11 Z " />
<glyph glyph-name="germandbls" unicode="&#xdf;" horiz-adv-x="583" d="M220 2 C246 -3 271 -5 295 -5 C429 -5 531 69 531 211 C531 307 461 382 370 409 C454 435 487 505 487 572 C487 680 398 749 291 749 C173 749 101 659 101 555 L101 11 C101 4 105 0 113 0 L154 0 C162 0 166 4 166 11 L166 555 C166 621 208 687 288 687 C373 687 422 635 422 568 C422 480 353 438 252 438 C244 438 240 434 240 427 L240 387 C240 378 244 374 251 374 C359 374 467 312 467 213 C467 111 388 59 291 59 C268 59 245 61 221 67 C212 67 209 66 209 56 L209 16 C209 8 213 3 220 2 L220 2 Z " />
<glyph glyph-name="agrave" unicode="&#xe0;" horiz-adv-x="644" d="M113 250 C113 362 196 450 306 450 C416 450 498 362 498 250 C498 138 416 50 306 50 C196 50 113 138 113 250 L113 250 Z M548 0 C556 0 560 4 560 11 L560 489 C560 496 556 500 548 500 L509 500 C502 500 498 496 498 489 L498 390 C457 459 389 510 294 510 C154 510 51 394 51 250 C51 106 154 -10 294 -10 C393 -10 461 47 498 110 L498 11 C498 4 502 0 509 0 L548 0 L548 0 Z M341 568 C348 571 348 578 345 583 L262 739 C260 744 256 747 251 747 C250 747 248 747 246 746 L213 735 C206 733 205 728 208 721 L302 564 C305 559 309 557 313 557 C315 557 317 557 319 558 L341 568 L341 568 Z " />
<glyph glyph-name="aacute" unicode="&#xe1;" horiz-adv-x="644" d="M113 250 C113 362 196 450 306 450 C416 450 498 362 498 250 C498 138 416 50 306 50 C196 50 113 138 113 250 L113 250 Z M548 0 C556 0 560 4 560 11 L560 489 C560 496 556 500 548 500 L509 500 C502 500 498 496 498 489 L498 390 C457 459 389 510 294 510 C154 510 51 394 51 250 C51 106 154 -10 294 -10 C393 -10 461 47 498 110 L498 11 C498 4 502 0 509 0 L548 0 L548 0 Z M299 558 C301 557 303 557 305 557 C309 557 313 559 316 564 L410 721 C413 728 412 733 405 735 L373 746 C371 747 369 747 368 747 C363 747 359 744 356 739 L273 583 C270 576 271 571 277 568 L299 558 L299 558 Z " />
<glyph glyph-name="acircumflex" unicode="&#xe2;" horiz-adv-x="644" d="M113 250 C113 362 196 450 306 450 C416 450 498 362 498 250 C498 138 416 50 306 50 C196 50 113 138 113 250 L113 250 Z M548 0 C556 0 560 4 560 11 L560 489 C560 496 556 500 548 500 L509 500 C502 500 498 496 498 489 L498 390 C457 459 389 510 294 510 C154 510 51 394 51 250 C51 106 154 -10 294 -10 C393 -10 461 47 498 110 L498 11 C498 4 502 0 509 0 L548 0 L548 0 Z M292 744 C283 744 276 740 270 733 L148 604 C142 598 142 592 149 586 L162 571 C165 568 168 567 170 567 C174 567 178 570 180 572 L304 698 L429 572 C433 569 436 567 439 567 C442 567 445 569 447 571 L460 586 C466 593 466 599 461 604 L339 733 C332 740 328 744 317 744 L292 744 L292 744 Z " />
<glyph glyph-name="atilde" unicode="&#xe3;" horiz-adv-x="644" d="M113 250 C113 362 196 450 306 450 C416 450 498 362 498 250 C498 138 416 50 306 50 C196 50 113 138 113 250 L113 250 Z M548 0 C556 0 560 4 560 11 L560 489 C560 496 556 500 548 500 L509 500 C502 500 498 496 498 489 L498 390 C457 459 389 510 294 510 C154 510 51 394 51 250 C51 106 154 -10 294 -10 C393 -10 461 47 498 110 L498 11 C498 4 502 0 509 0 L548 0 L548 0 Z M375 663 C329 663 295 731 231 731 C196 731 158 704 131 671 C126 665 125 659 127 653 L135 625 C137 620 139 617 142 617 C144 617 147 618 149 621 C168 649 203 682 233 682 C281 682 316 614 377 614 C412 614 450 642 477 675 C482 680 483 686 480 693 L473 720 C471 726 469 729 466 729 C464 729 462 727 459 724 C441 698 404 663 375 663 L375 663 Z " />
<glyph glyph-name="adieresis" unicode="&#xe4;" horiz-adv-x="644" d="M113 250 C113 362 196 450 306 450 C416 450 498 362 498 250 C498 138 416 50 306 50 C196 50 113 138 113 250 L113 250 Z M548 0 C556 0 560 4 560 11 L560 489 C560 496 556 500 548 500 L509 500 C502 500 498 496 498 489 L498 390 C457 459 389 510 294 510 C154 510 51 394 51 250 C51 106 154 -10 294 -10 C393 -10 461 47 498 110 L498 11 C498 4 502 0 509 0 L548 0 L548 0 Z M165 643 C165 619 184 600 208 600 C232 600 251 619 251 643 C251 667 232 686 208 686 C184 686 165 667 165 643 L165 643 Z M365 643 C365 619 383 600 407 600 C431 600 450 619 450 643 C450 667 431 686 407 686 C383 686 365 667 365 643 L365 643 Z " />
<glyph glyph-name="aring" unicode="&#xe5;" horiz-adv-x="644" d="M113 250 C113 362 196 450 306 450 C416 450 498 362 498 250 C498 138 416 50 306 50 C196 50 113 138 113 250 L113 250 Z M548 0 C556 0 560 4 560 11 L560 489 C560 496 556 500 548 500 L509 500 C502 500 498 496 498 489 L498 390 C457 459 389 510 294 510 C154 510 51 394 51 250 C51 106 154 -10 294 -10 C393 -10 461 47 498 110 L498 11 C498 4 502 0 509 0 L548 0 L548 0 Z M200 668 C200 610 248 562 306 562 C364 562 412 610 412 668 C412 726 364 774 306 774 C248 774 200 726 200 668 L200 668 Z M245 668 C245 703 271 730 306 730 C341 730 368 703 368 668 C368 633 341 607 306 607 C271 607 245 633 245 668 L245 668 Z " />
<glyph glyph-name="ae" unicode="&#xe6;" horiz-adv-x="999" d="M509 276 C520 379 584 458 690 458 C798 458 860 379 871 276 L509 276 Z M473 145 C508 59 591 -10 702 -10 C763 -10 818 2 881 41 C885 44 890 50 885 57 L867 83 C865 87 861 88 858 88 C855 88 853 88 850 86 C795 53 755 45 703 45 C603 45 522 117 509 224 L917 224 C928 224 932 231 932 239 C932 378 848 510 690 510 C579 510 507 446 472 358 C437 450 371 509 264 509 C196 509 147 498 84 471 C77 467 75 461 78 454 L87 431 C90 425 93 422 98 422 C100 422 102 422 105 424 C156 445 204 458 261 458 C365 458 430 369 441 274 C386 313 327 329 260 329 C136 329 50 269 50 166 C50 72 131 -6 251 -6 C367 -6 441 58 473 145 L473 145 Z M441 227 C430 126 367 49 255 49 C167 49 109 99 109 171 C109 246 177 285 266 285 C334 285 384 270 441 227 L441 227 Z " />
<glyph glyph-name="ccedilla" unicode="&#xe7;" horiz-adv-x="496" d="M232 -166 C229 -173 235 -177 242 -177 L275 -177 C284 -177 288 -174 289 -167 L316 -9 C367 -4 405 12 436 33 C443 37 445 43 440 50 L419 79 C416 83 414 85 411 85 C408 85 405 84 402 82 C371 63 336 50 293 50 C183 50 100 138 100 250 C100 362 183 450 293 450 C312 450 354 449 401 418 C404 416 407 415 409 415 C412 415 415 417 418 420 L439 450 C444 457 443 462 434 467 C401 490 353 510 293 510 C149 510 39 394 39 250 C39 127 120 11 266 -8 L232 -166 L232 -166 Z " />
<glyph glyph-name="egrave" unicode="&#xe8;" horiz-adv-x="561" d="M313 568 C320 571 320 578 317 583 L234 739 C232 744 228 747 223 747 C222 747 220 747 218 746 L185 735 C178 733 177 728 180 721 L274 564 C277 559 281 557 285 557 C287 557 289 557 291 558 L313 568 L313 568 Z M294 45 C187 45 110 125 99 224 L507 224 C518 224 522 231 522 239 C522 383 435 510 280 510 C130 510 39 389 39 250 C39 107 149 -10 293 -10 C366 -10 425 10 472 41 C477 45 479 50 476 57 L458 83 C456 87 452 88 449 88 C446 88 444 88 441 86 C398 59 354 45 294 45 L294 45 Z M100 276 C108 380 176 458 280 458 C389 458 450 378 461 276 L100 276 Z " />
<glyph glyph-name="eacute" unicode="&#xe9;" horiz-adv-x="561" d="M294 45 C187 45 110 125 99 224 L507 224 C518 224 522 231 522 239 C522 383 435 510 280 510 C130 510 39 389 39 250 C39 107 149 -10 293 -10 C366 -10 425 10 472 41 C477 45 479 50 476 57 L458 83 C456 87 452 88 449 88 C446 88 444 88 441 86 C398 59 354 45 294 45 L294 45 Z M100 276 C108 380 176 458 280 458 C389 458 450 378 461 276 L100 276 Z M278 558 C280 557 282 557 284 557 C288 557 292 559 295 564 L389 721 C392 728 391 733 384 735 L352 746 C350 747 348 747 347 747 C342 747 338 744 335 739 L252 583 C249 576 250 571 256 568 L278 558 L278 558 Z " />
<glyph glyph-name="ecircumflex" unicode="&#xea;" horiz-adv-x="561" d="M273 744 C264 744 257 740 251 733 L129 604 C123 598 123 592 130 586 L143 571 C146 568 149 567 151 567 C155 567 159 570 161 572 L285 698 L410 572 C414 569 417 567 420 567 C423 567 426 569 428 571 L441 586 C447 593 447 599 442 604 L320 733 C313 740 309 744 298 744 L273 744 L273 744 Z M294 45 C187 45 110 125 99 224 L507 224 C518 224 522 231 522 239 C522 383 435 510 280 510 C130 510 39 389 39 250 C39 107 149 -10 293 -10 C366 -10 425 10 472 41 C477 45 479 50 476 57 L458 83 C456 87 452 88 449 88 C446 88 444 88 441 86 C398 59 354 45 294 45 L294 45 Z M100 276 C108 380 176 458 280 458 C389 458 450 378 461 276 L100 276 Z " />
<glyph glyph-name="edieresis" unicode="&#xeb;" horiz-adv-x="561" d="M138 643 C138 619 157 600 181 600 C205 600 224 619 224 643 C224 667 205 686 181 686 C157 686 138 667 138 643 L138 643 Z M338 643 C338 619 356 600 380 600 C404 600 423 619 423 643 C423 667 404 686 380 686 C356 686 338 667 338 643 L338 643 Z M294 45 C187 45 110 125 99 224 L507 224 C518 224 522 231 522 239 C522 383 435 510 280 510 C130 510 39 389 39 250 C39 107 149 -10 293 -10 C366 -10 425 10 472 41 C477 45 479 50 476 57 L458 83 C456 87 452 88 449 88 C446 88 444 88 441 86 C398 59 354 45 294 45 L294 45 Z M100 276 C108 380 176 458 280 458 C389 458 450 378 461 276 L100 276 Z " />
<glyph glyph-name="igrave" unicode="&#xec;" horiz-adv-x="266" d="M152 0 C159 0 163 4 163 11 L163 489 C163 496 159 500 152 500 L112 500 C105 500 101 496 101 489 L101 11 C101 4 105 0 112 0 L152 0 L152 0 Z M151 568 C158 571 158 578 155 583 L72 739 C70 744 66 747 61 747 C60 747 58 747 56 746 L23 735 C16 733 15 728 18 721 L112 564 C115 559 119 557 123 557 C125 557 127 557 129 558 L151 568 L151 568 Z " />
<glyph glyph-name="iacute" unicode="&#xed;" horiz-adv-x="267" d="M152 0 C159 0 163 4 163 11 L163 489 C163 496 159 500 152 500 L112 500 C105 500 101 496 101 489 L101 11 C101 4 105 0 112 0 L152 0 L152 0 Z M138 558 C140 557 142 557 144 557 C148 557 152 559 155 564 L249 721 C252 728 251 733 244 735 L212 746 C210 747 208 747 207 747 C202 747 198 744 195 739 L112 583 C109 576 110 571 116 568 L138 558 L138 558 Z " />
<glyph glyph-name="icircumflex" unicode="&#xee;" horiz-adv-x="264" d="M120 744 C111 744 104 740 98 733 L-24 604 C-30 598 -30 592 -23 586 L-10 571 C-7 568 -4 567 -2 567 C2 567 6 570 8 572 L132 698 L257 572 C261 569 264 567 267 567 C270 567 273 569 275 571 L288 586 C294 593 294 599 289 604 L167 733 C160 740 156 744 145 744 L120 744 L120 744 Z M152 0 C159 0 163 4 163 11 L163 489 C163 496 159 500 152 500 L112 500 C105 500 101 496 101 489 L101 11 C101 4 105 0 112 0 L152 0 L152 0 Z " />
<glyph glyph-name="idieresis" unicode="&#xef;" horiz-adv-x="264" d="M-10 643 C-10 619 9 600 33 600 C57 600 76 619 76 643 C76 667 57 686 33 686 C9 686 -10 667 -10 643 L-10 643 Z M190 643 C190 619 208 600 232 600 C256 600 275 619 275 643 C275 667 256 686 232 686 C208 686 190 667 190 643 L190 643 Z M152 0 C159 0 163 4 163 11 L163 489 C163 496 159 500 152 500 L112 500 C105 500 101 496 101 489 L101 11 C101 4 105 0 112 0 L152 0 L152 0 Z " />
<glyph glyph-name="eth" unicode="&#xf0;" horiz-adv-x="607" d="M406 485 C366 506 329 507 285 507 C149 499 50 389 50 250 C50 106 160 -10 304 -10 C448 -10 557 106 557 250 C557 287 550 321 537 354 L416 603 L587 635 C594 636 596 641 595 648 L591 670 C589 677 585 681 579 680 L394 647 L348 742 C345 749 341 750 333 750 L290 750 C281 750 279 747 282 740 L333 635 L165 604 C157 603 154 598 157 591 L161 569 C162 561 166 559 173 559 L354 592 L406 485 Z M304 450 C418 450 496 359 496 250 C496 138 414 50 304 50 C194 50 111 138 111 250 C111 362 194 450 304 450 L304 450 Z " />
<glyph glyph-name="ntilde" unicode="&#xf1;" horiz-adv-x="617" d="M523 0 C530 0 534 4 534 11 L534 274 C534 415 474 510 339 510 C247 510 182 441 158 388 L158 489 C158 496 154 500 147 500 L107 500 C100 500 96 496 96 489 L96 11 C96 4 100 0 107 0 L147 0 C154 0 158 4 158 11 L158 264 C158 357 228 450 324 450 C428 450 472 376 472 265 L472 11 C472 4 476 0 484 0 L523 0 L523 0 Z M382 663 C336 663 302 731 238 731 C203 731 165 704 138 671 C133 665 132 659 134 653 L142 625 C144 620 146 617 149 617 C151 617 154 618 156 621 C175 649 210 682 240 682 C288 682 323 614 384 614 C419 614 457 642 484 675 C489 680 490 686 487 693 L480 720 C478 726 476 729 473 729 C471 729 469 727 466 724 C448 698 411 663 382 663 L382 663 Z " />
<glyph glyph-name="ograve" unicode="&#xf2;" horiz-adv-x="585" d="M39 250 C39 106 149 -10 293 -10 C437 -10 546 106 546 250 C546 394 437 510 293 510 C149 510 39 394 39 250 L39 250 Z M100 250 C100 362 183 450 293 450 C403 450 485 362 485 250 C485 138 403 50 293 50 C183 50 100 138 100 250 L100 250 Z M309 568 C316 571 316 578 313 583 L230 739 C228 744 224 747 219 747 C218 747 216 747 214 746 L181 735 C174 733 173 728 176 721 L270 564 C273 559 277 557 281 557 C283 557 285 557 287 558 L309 568 L309 568 Z " />
<glyph glyph-name="oacute" unicode="&#xf3;" horiz-adv-x="585" d="M39 250 C39 106 149 -10 293 -10 C437 -10 546 106 546 250 C546 394 437 510 293 510 C149 510 39 394 39 250 L39 250 Z M100 250 C100 362 183 450 293 450 C403 450 485 362 485 250 C485 138 403 50 293 50 C183 50 100 138 100 250 L100 250 Z M297 558 C299 557 301 557 303 557 C307 557 311 559 314 564 L408 721 C411 728 410 733 403 735 L371 746 C369 747 367 747 366 747 C361 747 357 744 354 739 L271 583 C268 576 269 571 275 568 L297 558 L297 558 Z " />
<glyph glyph-name="ocircumflex" unicode="&#xf4;" horiz-adv-x="585" d="M39 250 C39 106 149 -10 293 -10 C437 -10 546 106 546 250 C546 394 437 510 293 510 C149 510 39 394 39 250 L39 250 Z M100 250 C100 362 183 450 293 450 C403 450 485 362 485 250 C485 138 403 50 293 50 C183 50 100 138 100 250 L100 250 Z M280 744 C271 744 264 740 258 733 L136 604 C130 598 130 592 137 586 L150 571 C153 568 156 567 158 567 C162 567 166 570 168 572 L292 698 L417 572 C421 569 424 567 427 567 C430 567 433 569 435 571 L448 586 C454 593 454 599 449 604 L327 733 C320 740 316 744 305 744 L280 744 L280 744 Z " />
<glyph glyph-name="otilde" unicode="&#xf5;" horiz-adv-x="585" d="M39 250 C39 106 149 -10 293 -10 C437 -10 546 106 546 250 C546 394 437 510 293 510 C149 510 39 394 39 250 L39 250 Z M100 250 C100 362 183 450 293 450 C403 450 485 362 485 250 C485 138 403 50 293 50 C183 50 100 138 100 250 L100 250 Z M364 663 C318 663 284 731 220 731 C185 731 147 704 120 671 C115 665 114 659 116 653 L124 625 C126 620 128 617 131 617 C133 617 136 618 138 621 C157 649 192 682 222 682 C270 682 305 614 366 614 C401 614 439 642 466 675 C471 680 472 686 469 693 L462 720 C460 726 458 729 455 729 C453 729 451 727 448 724 C430 698 393 663 364 663 L364 663 Z " />
<glyph glyph-name="odieresis" unicode="&#xf6;" horiz-adv-x="585" d="M39 250 C39 106 149 -10 293 -10 C437 -10 546 106 546 250 C546 394 437 510 293 510 C149 510 39 394 39 250 L39 250 Z M100 250 C100 362 183 450 293 450 C403 450 485 362 485 250 C485 138 403 50 293 50 C183 50 100 138 100 250 L100 250 Z M150 643 C150 619 169 600 193 600 C217 600 236 619 236 643 C236 667 217 686 193 686 C169 686 150 667 150 643 L150 643 Z M350 643 C350 619 368 600 392 600 C416 600 435 619 435 643 C435 667 416 686 392 686 C368 686 350 667 350 643 L350 643 Z " />
<glyph glyph-name="divide" unicode="&#xf7;" horiz-adv-x="511" d="M57 326 C50 326 46 322 46 315 L46 284 C46 277 50 273 57 273 L454 273 C461 273 465 277 465 284 L465 315 C465 322 461 326 454 326 L57 326 L57 326 Z M213 461 C213 437 231 419 255 419 C279 419 297 437 297 461 C297 485 279 503 255 503 C231 503 213 485 213 461 L213 461 Z M213 139 C213 116 231 98 255 98 C279 98 297 116 297 139 C297 163 279 182 255 182 C231 182 213 163 213 139 L213 139 Z " />
<glyph glyph-name="oslash" unicode="&#xf8;" horiz-adv-x="585" d="M493 525 C498 532 495 535 484 535 L467 535 C460 535 455 532 450 525 L419 477 C380 500 336 510 293 510 C149 510 39 394 39 250 C39 169 72 93 139 42 L92 -29 C87 -36 93 -39 100 -39 L120 -39 C125 -39 130 -36 134 -29 L169 22 C205 2 248 -10 293 -10 C437 -10 546 106 546 250 C546 327 514 405 449 456 L493 525 L493 525 Z M415 404 C462 365 485 309 485 250 C485 138 403 50 293 50 C258 50 231 58 202 74 L415 404 Z M173 94 C126 131 100 186 100 250 C100 362 183 450 293 450 C325 450 363 440 386 425 L173 94 Z " />
<glyph glyph-name="ugrave" unicode="&#xf9;" horiz-adv-x="617" d="M94 500 C87 500 83 496 83 489 L83 226 C83 85 143 -10 278 -10 C370 -10 435 57 459 112 L459 11 C459 4 463 0 471 0 L510 0 C517 0 521 4 521 11 L521 489 C521 496 517 500 510 500 L471 500 C463 500 459 496 459 489 L459 236 C459 143 389 50 293 50 C189 50 145 124 145 235 L145 489 C145 496 141 500 134 500 L94 500 L94 500 Z M327 568 C334 571 334 578 331 583 L248 739 C246 744 242 747 237 747 C236 747 234 747 232 746 L199 735 C192 733 191 728 194 721 L288 564 C291 559 295 557 299 557 C301 557 303 557 305 558 L327 568 L327 568 Z " />
<glyph glyph-name="uacute" unicode="&#xfa;" horiz-adv-x="617" d="M94 500 C87 500 83 496 83 489 L83 226 C83 85 143 -10 278 -10 C370 -10 435 57 459 112 L459 11 C459 4 463 0 471 0 L510 0 C517 0 521 4 521 11 L521 489 C521 496 517 500 510 500 L471 500 C463 500 459 496 459 489 L459 236 C459 143 389 50 293 50 C189 50 145 124 145 235 L145 489 C145 496 141 500 134 500 L94 500 L94 500 Z M298 558 C300 557 302 557 304 557 C308 557 312 559 315 564 L409 721 C412 728 411 733 404 735 L372 746 C370 747 368 747 367 747 C362 747 358 744 355 739 L272 583 C269 576 270 571 276 568 L298 558 L298 558 Z " />
<glyph glyph-name="ucircumflex" unicode="&#xfb;" horiz-adv-x="617" d="M94 500 C87 500 83 496 83 489 L83 226 C83 85 143 -10 278 -10 C370 -10 435 57 459 112 L459 11 C459 4 463 0 471 0 L510 0 C517 0 521 4 521 11 L521 489 C521 496 517 500 510 500 L471 500 C463 500 459 496 459 489 L459 236 C459 143 389 50 293 50 C189 50 145 124 145 235 L145 489 C145 496 141 500 134 500 L94 500 L94 500 Z M291 744 C282 744 275 740 269 733 L147 604 C141 598 141 592 148 586 L161 571 C164 568 167 567 169 567 C173 567 177 570 179 572 L303 698 L428 572 C432 569 435 567 438 567 C441 567 444 569 446 571 L459 586 C465 593 465 599 460 604 L338 733 C331 740 327 744 316 744 L291 744 L291 744 Z " />
<glyph glyph-name="udieresis" unicode="&#xfc;" horiz-adv-x="617" d="M94 494 C87 494 83 490 83 483 L83 220 C83 79 143 -16 278 -16 C370 -16 435 51 459 106 L459 5 C459 -2 463 -6 471 -6 L510 -6 C517 -6 521 -2 521 5 L521 483 C521 490 517 494 510 494 L471 494 C463 494 459 490 459 483 L459 230 C459 137 389 44 293 44 C189 44 145 118 145 229 L145 483 C145 490 141 494 134 494 L94 494 L94 494 Z M163 643 C163 619 182 600 206 600 C230 600 249 619 249 643 C249 667 230 686 206 686 C182 686 163 667 163 643 L163 643 Z M363 643 C363 619 381 600 405 600 C429 600 448 619 448 643 C448 667 429 686 405 686 C381 686 363 667 363 643 L363 643 Z " />
<glyph glyph-name="yacute" unicode="&#xfd;" horiz-adv-x="620" d="M524 489 C524 496 520 500 512 500 L473 500 C466 500 462 496 462 489 L462 246 C462 150 395 60 296 60 C192 60 147 133 147 245 L147 489 C147 496 143 500 136 500 L97 500 C89 500 85 496 85 489 L85 236 C85 95 145 0 281 0 C372 0 440 66 462 120 L462 4 C462 -106 407 -195 287 -195 C220 -195 164 -165 131 -118 C130 -116 128 -114 125 -114 C123 -114 120 -116 117 -118 L93 -146 C89 -151 89 -156 94 -162 C133 -215 201 -255 289 -255 C439 -255 524 -141 524 8 L524 489 L524 489 Z M300 558 C302 557 304 557 306 557 C310 557 314 559 317 564 L411 721 C414 728 413 733 406 735 L374 746 C372 747 370 747 369 747 C364 747 360 744 357 739 L274 583 C271 576 272 571 278 568 L300 558 L300 558 Z " />
<glyph glyph-name="thorn" unicode="&#xfe;" horiz-adv-x="644" d="M542 250 C542 138 460 50 350 50 C239 50 157 138 157 250 C157 362 239 450 350 450 C460 450 542 358 542 250 L542 250 Z M147 -250 C154 -250 158 -246 158 -239 L158 110 C193 45 266 -10 361 -10 C501 -10 605 106 605 250 C605 393 501 510 361 510 C269 510 198 461 158 390 L158 739 C158 746 154 750 147 750 L107 750 C100 750 96 746 96 739 L96 -239 C96 -246 100 -250 107 -250 L147 -250 L147 -250 Z " />
<glyph glyph-name="ydieresis" unicode="&#xff;" horiz-adv-x="620" d="M524 489 C524 496 520 500 512 500 L473 500 C466 500 462 496 462 489 L462 246 C462 150 395 60 296 60 C192 60 147 133 147 245 L147 489 C147 496 143 500 136 500 L97 500 C89 500 85 496 85 489 L85 236 C85 95 145 0 281 0 C372 0 440 66 462 120 L462 4 C462 -106 407 -195 287 -195 C220 -195 164 -165 131 -118 C130 -116 128 -114 125 -114 C123 -114 120 -116 117 -118 L93 -146 C89 -151 89 -156 94 -162 C133 -215 201 -255 289 -255 C439 -255 524 -141 524 8 L524 489 L524 489 Z M165 643 C165 619 184 600 208 600 C232 600 251 619 251 643 C251 667 232 686 208 686 C184 686 165 667 165 643 L165 643 Z M365 643 C365 619 383 600 407 600 C431 600 450 619 450 643 C450 667 431 686 407 686 C383 686 365 667 365 643 L365 643 Z " />
<glyph glyph-name="Amacron" unicode="&#x100;" horiz-adv-x="608" d="M76 0 C85 0 91 4 93 11 L156 192 L452 192 L514 14 C517 5 523 0 532 0 L574 0 C583 0 586 4 583 11 L346 689 C344 696 339 700 332 700 L276 700 C269 700 264 696 262 689 L25 11 C23 4 26 0 34 0 L76 0 L76 0 Z M173 253 L304 622 L435 253 L173 253 Z M158 846 C158 838 162 834 169 834 L439 834 C447 834 451 838 451 846 L451 877 C451 885 447 889 439 889 L169 889 C162 889 158 885 158 878 L158 846 L158 846 Z " />
<glyph glyph-name="amacron" unicode="&#x101;" horiz-adv-x="644" d="M113 250 C113 362 196 450 306 450 C416 450 498 362 498 250 C498 138 416 50 306 50 C196 50 113 138 113 250 L113 250 Z M548 0 C556 0 560 4 560 11 L560 489 C560 496 556 500 548 500 L509 500 C502 500 498 496 498 489 L498 390 C457 459 389 510 294 510 C154 510 51 394 51 250 C51 106 154 -10 294 -10 C393 -10 461 47 498 110 L498 11 C498 4 502 0 509 0 L548 0 L548 0 Z M161 648 C161 640 165 636 172 636 L442 636 C450 636 454 640 454 648 L454 679 C454 687 450 691 442 691 L172 691 C165 691 161 687 161 680 L161 648 L161 648 Z " />
<glyph glyph-name="Abreve" unicode="&#x102;" horiz-adv-x="608" d="M76 0 C85 0 91 4 93 11 L156 192 L452 192 L514 14 C517 5 523 0 532 0 L574 0 C583 0 586 4 583 11 L346 689 C344 696 339 700 332 700 L276 700 C269 700 264 696 262 689 L25 11 C23 4 26 0 34 0 L76 0 L76 0 Z M173 253 L304 622 L435 253 L173 253 Z M454 904 C454 909 451 912 445 914 L417 920 C411 920 408 919 407 912 C406 865 372 825 304 825 C237 825 204 865 201 912 C201 919 198 920 192 920 L164 914 C158 913 155 910 155 904 C158 823 225 776 304 776 C387 776 449 823 454 904 L454 904 Z " />
<glyph glyph-name="abreve" unicode="&#x103;" horiz-adv-x="644" d="M113 250 C113 362 196 450 306 450 C416 450 498 362 498 250 C498 138 416 50 306 50 C196 50 113 138 113 250 L113 250 Z M548 0 C556 0 560 4 560 11 L560 489 C560 496 556 500 548 500 L509 500 C502 500 498 496 498 489 L498 390 C457 459 389 510 294 510 C154 510 51 394 51 250 C51 106 154 -10 294 -10 C393 -10 461 47 498 110 L498 11 C498 4 502 0 509 0 L548 0 L548 0 Z M461 719 C461 724 458 727 452 729 L424 735 C418 735 415 734 414 727 C413 680 379 640 311 640 C244 640 211 680 208 727 C208 734 205 735 199 735 L171 729 C165 728 162 725 162 719 C165 638 232 591 311 591 C394 591 456 638 461 719 L461 719 Z " />
<glyph glyph-name="Aogonek" unicode="&#x104;" horiz-adv-x="607" d="M578 0 C584 0 586 4 583 11 L346 689 C344 696 339 700 332 700 L276 700 C269 700 264 696 262 689 L25 11 C23 4 26 0 34 0 L76 0 C85 0 91 4 93 11 L156 192 L452 192 L514 14 C517 7 523 0 531 0 L534 0 C446 -65 482 -191 598 -191 C607 -191 616 -190 625 -189 C631 -188 634 -184 633 -177 L631 -149 C630 -143 626 -140 621 -141 C613 -143 605 -144 598 -144 C518 -144 512 -44 578 0 L578 0 Z M173 253 L304 622 L435 253 L173 253 Z " />
<glyph glyph-name="aogonek" unicode="&#x105;" horiz-adv-x="644" d="M101 250 C101 362 184 450 294 450 C404 450 486 362 486 250 C486 138 404 50 294 50 C184 50 101 138 101 250 L101 250 Z M486 11 C486 4 486 0 494 0 L499 0 C414 -65 447 -191 562 -191 C571 -191 580 -191 590 -189 C596 -188 599 -184 598 -177 L597 -149 C596 -142 592 -141 586 -141 C578 -143 570 -144 563 -144 C483 -144 478 -44 544 0 C548 0 548 6 548 11 L548 489 C548 496 544 500 536 500 L497 500 C490 500 486 496 486 489 L486 390 C445 459 377 510 282 510 C142 510 39 394 39 250 C39 106 142 -10 282 -10 C381 -10 449 47 486 110 L486 11 L486 11 Z " />
<glyph glyph-name="Cacute" unicode="&#x106;" horiz-adv-x="665" d="M597 640 C602 647 599 651 592 656 C541 688 474 710 401 710 C196 710 44 551 44 348 C44 145 196 -10 401 -10 C470 -10 535 8 594 44 C602 49 604 55 599 62 L578 94 C575 98 572 100 569 100 C566 100 563 99 559 96 C516 68 458 51 401 51 C232 51 107 180 107 348 C107 516 232 649 401 649 C461 649 510 634 558 605 C561 602 564 601 567 601 C572 601 575 605 577 609 L597 640 Z M388 768 C390 767 392 767 394 767 C398 767 402 769 405 774 L499 931 C502 938 501 943 494 945 L462 956 C460 957 458 957 457 957 C452 957 448 954 445 949 L362 793 C359 786 360 781 366 778 L388 768 L388 768 Z " />
<glyph glyph-name="cacute" unicode="&#x107;" horiz-adv-x="496" d="M419 79 C416 83 414 85 411 85 C408 85 405 84 402 82 C371 63 336 50 293 50 C183 50 100 138 100 250 C100 362 183 450 293 450 C312 450 354 449 401 418 C404 416 407 415 409 415 C412 415 415 417 418 420 L439 450 C444 457 443 462 434 467 C401 490 353 510 293 510 C149 510 39 394 39 250 C39 106 149 -10 293 -10 C352 -10 401 10 436 33 C443 37 445 43 440 50 L419 79 L419 79 Z M274 558 C276 557 278 557 280 557 C284 557 288 559 291 564 L385 721 C388 728 387 733 380 735 L348 746 C346 747 344 747 343 747 C338 747 334 744 331 739 L248 583 C245 576 246 571 252 568 L274 558 L274 558 Z " />
<glyph glyph-name="Ccircumflex" unicode="&#x108;" horiz-adv-x="665" d="M597 640 C602 647 599 651 592 656 C541 688 474 710 401 710 C196 710 44 551 44 348 C44 145 196 -10 401 -10 C470 -10 535 8 594 44 C602 49 604 55 599 62 L578 94 C575 98 572 100 569 100 C566 100 563 99 559 96 C516 68 458 51 401 51 C232 51 107 180 107 348 C107 516 232 649 401 649 C461 649 510 634 558 605 C561 602 564 601 567 601 C572 601 575 605 577 609 L597 640 Z M371 938 C362 938 355 934 349 927 L227 798 C221 792 221 786 228 780 L241 765 C244 762 247 761 249 761 C253 761 257 764 259 766 L383 892 L508 766 C512 763 515 761 518 761 C521 761 524 763 526 765 L539 780 C545 787 545 793 540 798 L418 927 C411 934 407 938 396 938 L371 938 L371 938 Z " />
<glyph glyph-name="ccircumflex" unicode="&#x109;" horiz-adv-x="496" d="M419 79 C416 83 414 85 411 85 C408 85 405 84 402 82 C371 63 336 50 293 50 C183 50 100 138 100 250 C100 362 183 450 293 450 C312 450 354 449 401 418 C404 416 407 415 409 415 C412 415 415 417 418 420 L439 450 C444 457 443 462 434 467 C401 490 353 510 293 510 C149 510 39 394 39 250 C39 106 149 -10 293 -10 C352 -10 401 10 436 33 C443 37 445 43 440 50 L419 79 L419 79 Z M267 744 C258 744 251 740 245 733 L123 604 C117 598 117 592 124 586 L137 571 C140 568 143 567 145 567 C149 567 153 570 155 572 L279 698 L404 572 C408 569 411 567 414 567 C417 567 420 569 422 571 L435 586 C441 593 441 599 436 604 L314 733 C307 740 303 744 292 744 L267 744 L267 744 Z " />
<glyph glyph-name="Cdotaccent" unicode="&#x10a;" horiz-adv-x="665" d="M597 640 C602 647 599 651 592 656 C541 688 474 710 401 710 C196 710 44 551 44 348 C44 145 196 -10 401 -10 C470 -10 535 8 594 44 C602 49 604 55 599 62 L578 94 C575 98 572 100 569 100 C566 100 563 99 559 96 C516 68 458 51 401 51 C232 51 107 180 107 348 C107 516 232 649 401 649 C461 649 510 634 558 605 C561 602 564 601 567 601 C572 601 575 605 577 609 L597 640 Z M342 852 C342 828 361 809 385 809 C409 809 428 828 428 852 C428 876 409 895 385 895 C361 895 342 876 342 852 L342 852 Z " />
<glyph glyph-name="cdotaccent" unicode="&#x10b;" horiz-adv-x="496" d="M419 79 C416 83 414 85 411 85 C408 85 405 84 402 82 C371 63 336 50 293 50 C183 50 100 138 100 250 C100 362 183 450 293 450 C312 450 354 449 401 418 C404 416 407 415 409 415 C412 415 415 417 418 420 L439 450 C444 457 443 462 434 467 C401 490 353 510 293 510 C149 510 39 394 39 250 C39 106 149 -10 293 -10 C352 -10 401 10 436 33 C443 37 445 43 440 50 L419 79 L419 79 Z M236 655 C236 631 255 612 279 612 C303 612 322 631 322 655 C322 679 303 698 279 698 C255 698 236 679 236 655 L236 655 Z " />
<glyph glyph-name="Ccaron" unicode="&#x10c;" horiz-adv-x="665" d="M597 640 C602 647 599 651 592 656 C541 688 474 710 401 710 C196 710 44 551 44 348 C44 145 196 -10 401 -10 C470 -10 535 8 594 44 C602 49 604 55 599 62 L578 94 C575 98 572 100 569 100 C566 100 563 99 559 96 C516 68 458 51 401 51 C232 51 107 180 107 348 C107 516 232 649 401 649 C461 649 510 634 558 605 C561 602 564 601 567 601 C572 601 575 605 577 609 L597 640 Z M399 769 C410 769 414 773 421 780 L543 909 C548 915 547 921 542 926 L529 942 C527 944 524 946 521 946 C518 946 515 944 511 941 L386 814 L262 941 C258 944 255 946 252 946 C249 946 246 944 244 942 L231 926 C226 919 225 914 230 909 L352 780 C358 773 365 769 374 769 L399 769 L399 769 Z " />
<glyph glyph-name="ccaron" unicode="&#x10d;" horiz-adv-x="496" d="M419 79 C416 83 414 85 411 85 C408 85 405 84 402 82 C371 63 336 50 293 50 C183 50 100 138 100 250 C100 362 183 450 293 450 C312 450 354 449 401 418 C404 416 407 415 409 415 C412 415 415 417 418 420 L439 450 C444 457 443 462 434 467 C401 490 353 510 293 510 C149 510 39 394 39 250 C39 106 149 -10 293 -10 C352 -10 401 10 436 33 C443 37 445 43 440 50 L419 79 L419 79 Z M306 557 C317 557 321 561 328 568 L450 697 C455 703 454 709 449 714 L436 730 C434 732 431 734 428 734 C425 734 422 732 418 729 L293 602 L169 729 C165 732 162 734 159 734 C156 734 153 732 151 730 L138 714 C133 707 132 702 137 697 L259 568 C265 561 272 557 281 557 L306 557 L306 557 Z " />
<glyph glyph-name="Dcaron" unicode="&#x10e;" horiz-adv-x="740" d="M344 0 C544 0 696 156 696 348 C696 544 544 700 344 700 L112 700 C105 700 101 696 101 689 L101 11 C101 4 105 0 112 0 L344 0 L344 0 Z M164 638 L341 638 C504 638 634 513 634 348 C634 191 504 62 341 62 L164 62 L164 638 Z M353 768 C364 768 368 772 375 779 L497 908 C502 914 501 920 496 925 L483 941 C481 943 478 945 475 945 C472 945 469 943 465 940 L340 813 L216 940 C212 943 209 945 206 945 C203 945 200 943 198 941 L185 925 C180 918 179 913 184 908 L306 779 C312 772 319 768 328 768 L353 768 L353 768 Z " />
<glyph glyph-name="dcaron" unicode="&#x10f;" horiz-adv-x="691" d="M630 568 C629 561 633 557 640 557 L671 557 C678 557 683 560 685 567 L717 738 C718 746 715 750 708 750 L670 750 C663 750 658 746 657 738 L630 568 L630 568 Z M101 250 C101 358 184 450 294 450 C404 450 486 362 486 250 C486 138 404 50 294 50 C184 50 101 138 101 250 L101 250 Z M536 0 C544 0 548 4 548 11 L548 739 C548 746 544 750 536 750 L497 750 C490 750 486 746 486 739 L486 390 C446 461 375 510 282 510 C142 510 39 393 39 250 C39 106 142 -10 282 -10 C379 -10 448 45 486 110 L486 11 C486 4 490 0 497 0 L536 0 L536 0 Z " />
<glyph glyph-name="Dcroat" unicode="&#x110;" horiz-adv-x="740" d="M101 11 C101 4 105 0 112 0 L344 0 C544 0 696 156 696 348 C696 544 544 700 344 700 L112 700 C105 700 101 696 101 689 L101 378 L31 378 C24 378 20 374 20 365 L20 338 C20 329 24 325 31 325 L101 325 L101 11 Z M164 638 L341 638 C504 638 634 513 634 348 C634 191 504 62 341 62 L164 62 L164 325 L281 325 C288 325 292 329 292 337 L292 366 C292 374 288 378 281 378 L164 378 L164 638 Z " />
<glyph glyph-name="dcroat" unicode="&#x111;" horiz-adv-x="644" d="M622 563 C629 563 633 567 633 575 L633 601 C633 609 629 613 622 613 L548 613 L548 739 C548 746 544 750 536 750 L497 750 C490 750 486 746 486 739 L486 613 L368 613 C361 613 358 609 358 601 L358 576 C358 567 361 563 368 563 L486 563 L486 390 C446 461 375 510 282 510 C142 510 39 393 39 250 C39 106 142 -10 282 -10 C379 -10 448 45 486 110 L486 11 C486 4 490 0 497 0 L536 0 C544 0 548 4 548 11 L548 563 L622 563 Z M101 250 C101 358 184 450 294 450 C404 450 486 362 486 250 C486 138 404 50 294 50 C184 50 101 138 101 250 L101 250 Z " />
<glyph glyph-name="Emacron" unicode="&#x112;" horiz-adv-x="571" d="M112 700 C105 700 101 696 101 689 L101 11 C101 4 105 0 112 0 L505 0 C512 0 516 4 516 11 L516 50 C516 58 512 62 505 62 L164 62 L164 320 L469 320 C477 320 481 324 481 331 L481 369 C481 376 477 380 469 380 L164 380 L164 638 L504 638 C512 638 516 642 516 650 L516 689 C516 696 512 700 504 700 L112 700 L112 700 Z M161 846 C161 838 165 834 172 834 L442 834 C450 834 454 838 454 846 L454 877 C454 885 450 889 442 889 L172 889 C165 889 161 885 161 878 L161 846 L161 846 Z " />
<glyph glyph-name="emacron" unicode="&#x113;" horiz-adv-x="561" d="M294 45 C187 45 110 125 99 224 L507 224 C518 224 522 231 522 239 C522 383 435 510 280 510 C130 510 39 389 39 250 C39 107 149 -10 293 -10 C366 -10 425 10 472 41 C477 45 479 50 476 57 L458 83 C456 87 452 88 449 88 C446 88 444 88 441 86 C398 59 354 45 294 45 L294 45 Z M100 276 C108 380 176 458 280 458 C389 458 450 378 461 276 L100 276 Z M139 648 C139 640 143 636 150 636 L420 636 C428 636 432 640 432 648 L432 679 C432 687 428 691 420 691 L150 691 C143 691 139 687 139 680 L139 648 L139 648 Z " />
<glyph glyph-name="Ebreve" unicode="&#x114;" horiz-adv-x="571" d="M112 700 C105 700 101 696 101 689 L101 11 C101 4 105 0 112 0 L505 0 C512 0 516 4 516 11 L516 50 C516 58 512 62 505 62 L164 62 L164 320 L469 320 C477 320 481 324 481 331 L481 369 C481 376 477 380 469 380 L164 380 L164 638 L504 638 C512 638 516 642 516 650 L516 689 C516 696 512 700 504 700 L112 700 L112 700 Z M460 905 C460 910 457 913 451 915 L423 921 C417 921 414 920 413 913 C412 866 378 826 310 826 C243 826 210 866 207 913 C207 920 204 921 198 921 L170 915 C164 914 161 911 161 905 C164 824 231 777 310 777 C393 777 455 824 460 905 L460 905 Z " />
<glyph glyph-name="ebreve" unicode="&#x115;" horiz-adv-x="561" d="M294 45 C187 45 110 125 99 224 L507 224 C518 224 522 231 522 239 C522 383 435 510 280 510 C130 510 39 389 39 250 C39 107 149 -10 293 -10 C366 -10 425 10 472 41 C477 45 479 50 476 57 L458 83 C456 87 452 88 449 88 C446 88 444 88 441 86 C398 59 354 45 294 45 L294 45 Z M100 276 C108 380 176 458 280 458 C389 458 450 378 461 276 L100 276 Z M434 719 C434 724 431 727 425 729 L397 735 C391 735 388 734 387 727 C386 680 352 640 284 640 C217 640 184 680 181 727 C181 734 178 735 172 735 L144 729 C138 728 135 725 135 719 C138 638 205 591 284 591 C367 591 429 638 434 719 L434 719 Z " />
<glyph glyph-name="Edotaccent" unicode="&#x116;" horiz-adv-x="571" d="M112 700 C105 700 101 696 101 689 L101 11 C101 4 105 0 112 0 L505 0 C512 0 516 4 516 11 L516 50 C516 58 512 62 505 62 L164 62 L164 320 L469 320 C477 320 481 324 481 331 L481 369 C481 376 477 380 469 380 L164 380 L164 638 L504 638 C512 638 516 642 516 650 L516 689 C516 696 512 700 504 700 L112 700 L112 700 Z M260 861 C260 837 279 818 303 818 C327 818 346 837 346 861 C346 885 327 904 303 904 C279 904 260 885 260 861 L260 861 Z " />
<glyph glyph-name="edotaccent" unicode="&#x117;" horiz-adv-x="561" d="M294 45 C187 45 110 125 99 224 L507 224 C518 224 522 231 522 239 C522 383 435 510 280 510 C130 510 39 389 39 250 C39 107 149 -10 293 -10 C366 -10 425 10 472 41 C477 45 479 50 476 57 L458 83 C456 87 452 88 449 88 C446 88 444 88 441 86 C398 59 354 45 294 45 L294 45 Z M100 276 C108 380 176 458 280 458 C389 458 450 378 461 276 L100 276 Z M235 675 C235 651 254 632 278 632 C302 632 321 651 321 675 C321 699 302 718 278 718 C254 718 235 699 235 675 L235 675 Z " />
<glyph glyph-name="Eogonek" unicode="&#x118;" horiz-adv-x="571" d="M507 0 C512 4 516 6 516 11 L516 50 C516 58 512 62 505 62 L164 62 L164 320 L469 320 C477 320 481 324 481 331 L481 369 C481 376 477 380 469 380 L164 380 L164 638 L504 638 C512 638 516 642 516 650 L516 689 C516 696 512 700 504 700 L112 700 C105 700 101 696 101 689 L101 11 C101 4 105 0 112 0 L455 0 C385 -76 414 -191 525 -191 C534 -191 544 -191 554 -189 C561 -188 565 -183 564 -176 L562 -149 C561 -143 557 -140 552 -141 C543 -143 535 -144 528 -144 C449 -144 447 -48 507 0 L507 0 Z " />
<glyph glyph-name="eogonek" unicode="&#x119;" horiz-adv-x="561" d="M100 276 C108 381 177 458 280 458 C388 458 450 378 461 276 L100 276 Z M258 -7 C192 -85 230 -191 335 -191 C344 -191 354 -191 364 -189 C370 -188 373 -184 373 -176 L372 -149 C372 -141 367 -141 361 -141 C352 -143 343 -144 335 -144 C264 -144 256 -60 306 -10 C375 -7 427 12 472 41 C477 45 479 50 476 57 L458 83 C456 87 452 88 449 88 C446 88 444 88 441 86 C398 59 354 45 294 45 C187 45 110 125 99 224 L507 224 C518 224 522 231 522 239 C522 383 435 510 280 510 C130 510 39 389 39 250 C39 110 143 4 258 -7 L258 -7 Z " />
<glyph glyph-name="Ecaron" unicode="&#x11a;" horiz-adv-x="571" d="M112 700 C105 700 101 696 101 689 L101 11 C101 4 105 0 112 0 L505 0 C512 0 516 4 516 11 L516 50 C516 58 512 62 505 62 L164 62 L164 320 L469 320 C477 320 481 324 481 331 L481 369 C481 376 477 380 469 380 L164 380 L164 638 L504 638 C512 638 516 642 516 650 L516 689 C516 696 512 700 504 700 L112 700 L112 700 Z M323 768 C334 768 338 772 345 779 L467 908 C472 914 471 920 466 925 L453 941 C451 943 448 945 445 945 C442 945 439 943 435 940 L310 813 L186 940 C182 943 179 945 176 945 C173 945 170 943 168 941 L155 925 C150 918 149 913 154 908 L276 779 C282 772 289 768 298 768 L323 768 L323 768 Z " />
<glyph glyph-name="ecaron" unicode="&#x11b;" horiz-adv-x="561" d="M295 563 C306 563 310 567 317 574 L439 703 C444 709 443 715 438 720 L425 736 C423 738 420 740 417 740 C414 740 411 738 407 735 L282 608 L158 735 C154 738 151 740 148 740 C145 740 142 738 140 736 L127 720 C122 713 121 708 126 703 L248 574 C254 567 261 563 270 563 L295 563 L295 563 Z M294 45 C187 45 110 125 99 224 L507 224 C518 224 522 231 522 239 C522 383 435 510 280 510 C130 510 39 389 39 250 C39 107 149 -10 293 -10 C366 -10 425 10 472 41 C477 45 479 50 476 57 L458 83 C456 87 452 88 449 88 C446 88 444 88 441 86 C398 59 354 45 294 45 L294 45 Z M100 276 C108 380 176 458 280 458 C389 458 450 378 461 276 L100 276 Z " />
<glyph glyph-name="Gcircumflex" unicode="&#x11c;" horiz-adv-x="711" d="M564 89 C517 62 469 51 401 51 C233 51 107 180 107 348 C107 516 230 649 401 649 C461 649 510 634 561 603 C565 600 568 599 571 599 C576 599 578 603 581 607 L600 637 C605 644 603 650 595 655 C544 687 477 710 401 710 C196 710 44 552 44 348 C44 145 196 -10 401 -10 C481 -10 545 2 614 41 C622 46 626 51 626 58 L626 336 C626 344 622 348 615 348 L390 348 C383 348 379 344 379 336 L379 304 C379 296 383 292 390 292 L564 292 L564 89 L564 89 Z M384 938 C375 938 368 934 362 927 L240 798 C234 792 234 786 241 780 L254 765 C257 762 260 761 262 761 C266 761 270 764 272 766 L396 892 L521 766 C525 763 528 761 531 761 C534 761 537 763 539 765 L552 780 C558 787 558 793 553 798 L431 927 C424 934 420 938 409 938 L384 938 L384 938 Z " />
<glyph glyph-name="gcircumflex" unicode="&#x11d;" horiz-adv-x="644" d="M101 251 C101 358 184 450 294 450 C404 450 487 362 487 251 C487 140 404 52 294 52 C184 52 101 140 101 251 L101 251 Z M548 489 C548 496 544 500 536 500 L497 500 C490 500 486 496 486 489 L486 390 C445 459 377 510 282 510 C142 510 39 394 39 251 C39 107 142 -8 282 -8 C381 -8 449 49 486 112 L486 0 C486 -110 409 -195 290 -195 C222 -195 165 -170 125 -131 C123 -129 120 -127 118 -127 C115 -127 113 -129 110 -131 L87 -159 C83 -164 83 -170 88 -175 C132 -220 206 -255 291 -255 C441 -255 548 -145 548 4 L548 489 L548 489 Z M297 744 C288 744 281 740 275 733 L153 604 C147 598 147 592 154 586 L167 571 C170 568 173 567 175 567 C179 567 183 570 185 572 L309 698 L434 572 C438 569 441 567 444 567 C447 567 450 569 452 571 L465 586 C471 593 471 599 466 604 L344 733 C337 740 333 744 322 744 L297 744 L297 744 Z " />
<glyph glyph-name="Gbreve" unicode="&#x11e;" horiz-adv-x="711" d="M564 89 C517 62 469 51 401 51 C233 51 107 180 107 348 C107 516 230 649 401 649 C461 649 510 634 561 603 C565 600 568 599 571 599 C576 599 578 603 581 607 L600 637 C605 644 603 650 595 655 C544 687 477 710 401 710 C196 710 44 552 44 348 C44 145 196 -10 401 -10 C481 -10 545 2 614 41 C622 46 626 51 626 58 L626 336 C626 344 622 348 615 348 L390 348 C383 348 379 344 379 336 L379 304 C379 296 383 292 390 292 L564 292 L564 89 L564 89 Z M545 905 C545 910 542 913 536 915 L508 921 C502 921 499 920 498 913 C497 866 463 826 395 826 C328 826 295 866 292 913 C292 920 289 921 283 921 L255 915 C249 914 246 911 246 905 C249 824 316 777 395 777 C478 777 540 824 545 905 L545 905 Z " />
<glyph glyph-name="gbreve" unicode="&#x11f;" horiz-adv-x="644" d="M101 251 C101 358 184 450 294 450 C404 450 487 362 487 251 C487 140 404 52 294 52 C184 52 101 140 101 251 L101 251 Z M548 489 C548 496 544 500 536 500 L497 500 C490 500 486 496 486 489 L486 390 C445 459 377 510 282 510 C142 510 39 394 39 251 C39 107 142 -8 282 -8 C381 -8 449 49 486 112 L486 0 C486 -110 409 -195 290 -195 C222 -195 165 -170 125 -131 C123 -129 120 -127 118 -127 C115 -127 113 -129 110 -131 L87 -159 C83 -164 83 -170 88 -175 C132 -220 206 -255 291 -255 C441 -255 548 -145 548 4 L548 489 L548 489 Z M458 719 C458 724 455 727 449 729 L421 735 C415 735 412 734 411 727 C410 680 376 640 308 640 C241 640 208 680 205 727 C205 734 202 735 196 735 L168 729 C162 728 159 725 159 719 C162 638 229 591 308 591 C391 591 453 638 458 719 L458 719 Z " />
<glyph glyph-name="Gdotaccent" unicode="&#x120;" horiz-adv-x="711" d="M564 89 C517 62 469 51 401 51 C233 51 107 180 107 348 C107 516 230 649 401 649 C461 649 510 634 561 603 C565 600 568 599 571 599 C576 599 578 603 581 607 L600 637 C605 644 603 650 595 655 C544 687 477 710 401 710 C196 710 44 552 44 348 C44 145 196 -10 401 -10 C481 -10 545 2 614 41 C622 46 626 51 626 58 L626 336 C626 344 622 348 615 348 L390 348 C383 348 379 344 379 336 L379 304 C379 296 383 292 390 292 L564 292 L564 89 L564 89 Z M343 852 C343 828 362 809 386 809 C410 809 429 828 429 852 C429 876 410 895 386 895 C362 895 343 876 343 852 L343 852 Z " />
<glyph glyph-name="gdotaccent" unicode="&#x121;" horiz-adv-x="644" d="M101 251 C101 358 184 450 294 450 C404 450 487 362 487 251 C487 140 404 52 294 52 C184 52 101 140 101 251 L101 251 Z M548 489 C548 496 544 500 536 500 L497 500 C490 500 486 496 486 489 L486 390 C445 459 377 510 282 510 C142 510 39 394 39 251 C39 107 142 -8 282 -8 C381 -8 449 49 486 112 L486 0 C486 -110 409 -195 290 -195 C222 -195 165 -170 125 -131 C123 -129 120 -127 118 -127 C115 -127 113 -129 110 -131 L87 -159 C83 -164 83 -170 88 -175 C132 -220 206 -255 291 -255 C441 -255 548 -145 548 4 L548 489 L548 489 Z M262 675 C262 651 281 632 305 632 C329 632 348 651 348 675 C348 699 329 718 305 718 C281 718 262 699 262 675 L262 675 Z " />
<glyph glyph-name="uni0122" unicode="&#x122;" horiz-adv-x="711" d="M564 89 C517 62 469 51 401 51 C233 51 107 180 107 348 C107 516 230 649 401 649 C461 649 508 632 559 600 C563 597 566 596 569 596 C574 596 576 600 579 604 L600 637 C605 644 603 650 595 655 C544 687 477 710 401 710 C196 710 44 552 44 348 C44 145 196 -10 401 -10 C481 -10 546 2 614 41 C622 46 626 51 626 58 L626 336 C626 344 622 348 615 348 L390 348 C383 348 379 344 379 336 L379 304 C379 296 383 292 390 292 L564 292 L564 89 L564 89 Z M352 -231 C351 -238 355 -242 362 -242 L393 -242 C400 -242 405 -239 407 -232 L439 -61 C440 -53 437 -49 430 -49 L392 -49 C385 -49 380 -53 379 -61 L352 -231 L352 -231 Z " />
<glyph glyph-name="uni0123" unicode="&#x123;" horiz-adv-x="644" d="M101 251 C101 358 184 450 294 450 C404 450 487 362 487 251 C487 140 404 52 294 52 C184 52 101 140 101 251 L101 251 Z M548 489 C548 496 544 500 536 500 L497 500 C490 500 486 496 486 489 L486 390 C445 459 377 510 282 510 C142 510 39 394 39 251 C39 107 142 -8 282 -8 C381 -8 449 49 486 112 L486 0 C486 -110 409 -195 290 -195 C222 -195 165 -170 125 -131 C123 -129 120 -127 118 -127 C115 -127 113 -129 110 -131 L87 -159 C83 -164 83 -170 88 -175 C132 -220 206 -255 291 -255 C441 -255 548 -145 548 4 L548 489 L548 489 Z M354 763 C355 770 351 774 344 774 L313 774 C305 774 300 771 299 764 L267 592 C266 585 269 581 276 581 L314 581 C321 581 326 585 327 592 L354 763 L354 763 Z " />
<glyph glyph-name="Hcircumflex" unicode="&#x124;" horiz-adv-x="721" d="M152 0 C160 0 164 4 164 11 L164 323 L558 323 L558 11 C558 4 562 0 569 0 L609 0 C616 0 620 4 620 11 L620 689 C620 696 616 700 609 700 L569 700 C562 700 558 696 558 689 L558 385 L164 385 L164 689 C164 696 160 700 152 700 L112 700 C105 700 101 696 101 689 L101 11 C101 4 105 0 112 0 L152 0 L152 0 Z M348 938 C339 938 332 934 326 927 L204 798 C198 792 198 786 205 780 L218 765 C221 762 224 761 226 761 C230 761 234 764 236 766 L360 892 L485 766 C489 763 492 761 495 761 C498 761 501 763 503 765 L516 780 C522 787 522 793 517 798 L395 927 C388 934 384 938 373 938 L348 938 L348 938 Z " />
<glyph glyph-name="hcircumflex" unicode="&#x125;" horiz-adv-x="617" d="M147 0 C154 0 158 4 158 11 L158 254 C158 347 228 450 324 450 C428 450 472 376 472 265 L472 11 C472 4 476 0 484 0 L523 0 C530 0 534 4 534 11 L534 274 C534 415 474 510 339 510 C247 510 182 442 158 389 L158 739 C158 746 154 750 147 750 L107 750 C100 750 96 746 96 739 L96 11 C96 4 100 0 107 0 L147 0 L147 0 Z M114 945 C105 945 98 941 92 934 L-30 805 C-36 799 -36 793 -29 787 L-16 772 C-13 769 -10 768 -8 768 C-4 768 0 771 2 773 L126 899 L251 773 C255 770 258 768 261 768 C264 768 267 770 269 772 L282 787 C288 794 288 800 283 805 L161 934 C154 941 150 945 139 945 L114 945 L114 945 Z " />
<glyph glyph-name="Hbar" unicode="&#x126;" horiz-adv-x="721" d="M558 382 L164 382 L164 500 L558 500 L558 382 Z M707 500 C718 500 719 504 719 513 L719 531 C719 539 715 543 707 543 L620 543 L620 689 C620 696 616 700 608 700 L570 700 C562 700 558 696 558 689 L558 543 L164 543 L164 689 C164 696 160 700 151 700 L114 700 C105 700 101 696 101 689 L101 543 L15 543 C4 543 3 539 3 531 L3 512 C3 504 4 500 15 500 L101 500 L101 11 C101 4 105 0 113 0 L151 0 C160 0 164 4 164 11 L164 319 L558 319 L558 11 C558 4 562 0 570 0 L608 0 C616 0 620 4 620 11 L620 500 L707 500 Z " />
<glyph glyph-name="hbar" unicode="&#x127;" horiz-adv-x="617" d="M158 739 C158 746 154 750 147 750 L107 750 C100 750 96 746 96 739 L96 622 L22 622 C15 622 11 618 11 611 L11 585 C11 577 15 573 22 573 L96 573 L96 11 C96 4 100 0 107 0 L147 0 C154 0 158 4 158 11 L158 254 C158 347 228 450 324 450 C428 450 472 376 472 265 L472 11 C472 4 476 0 484 0 L523 0 C530 0 534 4 534 11 L534 274 C534 415 474 510 339 510 C247 510 182 442 158 389 L158 573 L275 573 C283 573 287 577 287 585 L287 611 C287 618 283 622 275 622 L158 622 L158 739 Z " />
<glyph glyph-name="Itilde" unicode="&#x128;" horiz-adv-x="255" d="M147 -4 C155 -4 159 0 159 7 L159 685 C159 692 155 696 147 696 L107 696 C100 696 96 692 96 685 L96 7 C96 0 100 -4 107 -4 L147 -4 L147 -4 Z M202 854 C156 854 122 922 58 922 C23 922 -15 895 -42 862 C-47 856 -48 850 -46 844 L-38 816 C-36 811 -34 808 -31 808 C-29 808 -26 809 -24 812 C-5 840 30 873 60 873 C108 873 143 805 204 805 C239 805 277 833 304 866 C309 871 310 877 307 884 L300 911 C298 917 296 920 293 920 C291 920 289 918 286 915 C268 889 231 854 202 854 L202 854 Z " />
<glyph glyph-name="itilde" unicode="&#x129;" horiz-adv-x="254" d="M199 663 C153 663 119 731 55 731 C20 731 -18 704 -45 671 C-50 665 -51 659 -49 653 L-41 625 C-39 620 -37 617 -34 617 C-32 617 -29 618 -27 621 C-8 649 27 682 57 682 C105 682 140 614 201 614 C236 614 274 642 301 675 C306 680 307 686 304 693 L297 720 C295 726 293 729 290 729 C288 729 286 727 283 724 C265 698 228 663 199 663 L199 663 Z M147 0 C154 0 158 4 158 11 L158 489 C158 496 154 500 147 500 L107 500 C100 500 96 496 96 489 L96 11 C96 4 100 0 107 0 L147 0 L147 0 Z " />
<glyph glyph-name="Imacron" unicode="&#x12a;" horiz-adv-x="255" d="M147 0 C155 0 159 4 159 11 L159 689 C159 696 155 700 147 700 L107 700 C100 700 96 696 96 689 L96 11 C96 4 100 0 107 0 L147 0 L147 0 Z M-19 852 C-19 844 -15 840 -8 840 L262 840 C270 840 274 844 274 852 L274 883 C274 891 270 895 262 895 L-8 895 C-15 895 -19 891 -19 884 L-19 852 L-19 852 Z " />
<glyph glyph-name="imacron" unicode="&#x12b;" horiz-adv-x="254" d="M147 0 C154 0 158 4 158 11 L158 489 C158 496 154 500 147 500 L107 500 C100 500 96 496 96 489 L96 11 C96 4 100 0 107 0 L147 0 L147 0 Z M-19 648 C-19 640 -15 636 -8 636 L262 636 C270 636 274 640 274 648 L274 679 C274 687 270 691 262 691 L-8 691 C-15 691 -19 687 -19 680 L-19 648 L-19 648 Z " />
<glyph glyph-name="Iogonek" unicode="&#x12e;" horiz-adv-x="255" d="M96 0 C19 -70 49 -192 165 -192 C174 -192 185 -191 196 -189 C203 -188 207 -183 206 -176 L204 -149 C203 -143 199 -140 194 -141 C186 -143 178 -144 170 -144 C95 -144 77 -52 148 0 C155 0 159 4 159 11 L159 689 C159 696 155 700 148 700 L107 700 C100 700 96 696 96 689 L96 0 L96 0 Z " />
<glyph glyph-name="iogonek" unicode="&#x12f;" horiz-adv-x="254" d="M96 0 C19 -70 49 -192 165 -192 C174 -192 185 -191 196 -189 C203 -188 207 -183 206 -176 L204 -149 C203 -143 199 -140 194 -141 C186 -143 178 -144 170 -144 C94 -144 76 -51 147 0 C154 0 158 4 158 11 L158 489 C158 496 154 500 147 500 L107 500 C100 500 96 496 96 489 L96 0 L96 0 Z M83 711 C83 686 102 667 127 667 C152 667 171 686 171 711 C171 736 152 755 127 755 C102 755 83 736 83 711 L83 711 Z " />
<glyph glyph-name="Idotaccent" unicode="&#x130;" horiz-adv-x="255" d="M147 0 C155 0 159 4 159 11 L159 689 C159 696 155 700 147 700 L107 700 C100 700 96 696 96 689 L96 11 C96 4 100 0 107 0 L147 0 L147 0 Z M84 861 C84 837 103 818 127 818 C151 818 170 837 170 861 C170 885 151 904 127 904 C103 904 84 885 84 861 L84 861 Z " />
<glyph glyph-name="dotlessi" unicode="&#x131;" horiz-adv-x="254" d="M147 0 C154 0 158 4 158 11 L158 489 C158 496 154 500 147 500 L107 500 C100 500 96 496 96 489 L96 11 C96 4 100 0 107 0 L147 0 L147 0 Z " />
<glyph glyph-name="IJ" unicode="&#x132;" horiz-adv-x="753" d="M152 0 C160 0 164 4 164 11 L164 689 C164 696 160 700 152 700 L112 700 C105 700 101 696 101 689 L101 11 C101 4 105 0 112 0 L152 0 L152 0 Z M652 689 C652 696 648 700 640 700 L600 700 C593 700 589 696 589 689 L589 192 C589 104 537 51 454 51 C402 51 369 66 332 89 C329 91 326 92 323 92 C320 92 317 91 315 87 L295 54 C292 48 292 43 297 39 C341 8 398 -10 458 -10 C572 -10 652 67 652 188 L652 689 L652 689 Z " />
<glyph glyph-name="ij" unicode="&#x133;" horiz-adv-x="544" d="M159 0 C167 0 171 4 171 11 L171 489 C171 496 167 500 159 500 L120 500 C113 500 109 496 109 489 L109 11 C109 4 113 0 120 0 L159 0 L159 0 Z M96 711 C96 686 115 667 139 667 C164 667 184 686 184 711 C184 736 164 755 139 755 C115 755 96 736 96 711 L96 711 Z M229 -222 C226 -229 229 -235 236 -238 C261 -249 282 -255 313 -255 C389 -255 437 -202 437 -130 L437 489 C437 496 433 500 426 500 L387 500 C379 500 375 496 375 489 L375 -122 C375 -166 346 -195 307 -195 C287 -195 273 -192 258 -185 C256 -184 254 -184 253 -184 C249 -184 246 -186 244 -190 L229 -222 L229 -222 Z M362 711 C362 686 381 667 406 667 C431 667 450 686 450 711 C450 736 431 755 406 755 C381 755 362 736 362 711 L362 711 Z " />
<glyph glyph-name="Jcircumflex" unicode="&#x134;" horiz-adv-x="495" d="M394 689 C394 696 390 700 383 700 L343 700 C336 700 332 696 332 689 L332 192 C332 104 280 51 197 51 C145 51 112 66 75 89 C72 91 68 92 66 92 C62 92 60 90 58 87 L38 54 C34 48 35 43 40 39 C84 8 141 -10 201 -10 C316 -10 394 67 394 188 L394 689 L394 689 Z M350 938 C341 938 334 934 328 927 L206 798 C200 792 200 786 207 780 L220 765 C223 762 226 761 228 761 C232 761 236 764 238 766 L362 892 L487 766 C491 763 494 761 497 761 C500 761 503 763 505 765 L518 780 C524 787 524 793 519 798 L397 927 C390 934 386 938 375 938 L350 938 L350 938 Z " />
<glyph glyph-name="jcircumflex" unicode="&#x135;" horiz-adv-x="304" d="M-9 -222 C-12 -229 -10 -234 -3 -238 C22 -249 46 -255 74 -255 C150 -255 199 -202 199 -130 L199 489 C199 496 195 500 187 500 L148 500 C141 500 137 496 137 489 L137 -122 C137 -166 108 -195 69 -195 C48 -195 34 -192 19 -185 C17 -184 15 -184 14 -184 C11 -184 8 -186 6 -190 L-9 -222 L-9 -222 Z M155 744 C146 744 139 740 133 733 L11 604 C5 598 5 592 12 586 L25 571 C28 568 31 567 33 567 C37 567 41 570 43 572 L167 698 L292 572 C296 569 299 567 302 567 C305 567 308 569 310 571 L323 586 C329 593 329 599 324 604 L202 733 C195 740 191 744 180 744 L155 744 L155 744 Z " />
<glyph glyph-name="uni0136" unicode="&#x136;" horiz-adv-x="647" d="M606 0 C616 0 618 4 612 11 L326 423 L584 689 C591 696 590 700 579 700 L527 700 C515 700 510 696 503 689 L164 346 L164 689 C164 696 160 700 152 700 L112 700 C105 700 101 696 101 689 L101 11 C101 4 105 0 112 0 L152 0 C160 0 164 4 164 11 L164 261 L280 379 L535 11 C542 4 546 0 557 0 L606 0 Z M284 -231 C283 -238 287 -242 294 -242 L325 -242 C334 -242 338 -239 339 -232 L372 -61 C373 -53 369 -49 362 -49 L325 -49 C318 -49 313 -53 312 -61 L284 -231 L284 -231 Z " />
<glyph glyph-name="uni0137" unicode="&#x137;" horiz-adv-x="533" d="M242 -231 C241 -238 245 -242 252 -242 L283 -242 C292 -242 296 -239 297 -232 L329 -61 C331 -53 328 -49 320 -49 L283 -49 C276 -49 271 -53 270 -61 L242 -231 L242 -231 Z M425 10 C430 3 435 0 447 0 L491 0 C502 0 503 4 496 13 L289 299 L473 489 C478 494 477 500 469 500 L418 500 C411 500 404 498 399 493 L158 254 L158 739 C158 746 154 750 147 750 L107 750 C100 750 96 746 96 739 L96 11 C96 4 100 0 107 0 L147 0 C154 0 158 4 158 11 L158 173 L243 257 L425 10 L425 10 Z " />
<glyph glyph-name="kgreenlandic" unicode="&#x138;" horiz-adv-x="533" d="M425 10 C430 3 435 0 447 0 L491 0 C502 0 503 4 496 13 L289 299 L473 489 C478 494 477 500 469 500 L418 500 C411 500 404 498 399 493 L158 254 L158 489 C158 496 154 500 147 500 L107 500 C100 500 96 496 96 489 L96 11 C96 4 100 0 107 0 L147 0 C154 0 158 4 158 11 L158 173 L243 257 L425 10 L425 10 Z " />
<glyph glyph-name="Lacute" unicode="&#x139;" horiz-adv-x="536" d="M481 0 C489 0 493 4 493 11 L493 49 C493 57 489 61 481 61 L164 61 L164 689 C164 696 160 700 152 700 L112 700 C105 700 101 696 101 689 L101 11 C101 4 105 0 112 0 L481 0 L481 0 Z M137 768 C139 767 141 767 143 767 C147 767 151 769 154 774 L248 931 C251 938 250 943 243 945 L211 956 C209 957 207 957 206 957 C201 957 197 954 194 949 L111 793 C108 786 109 781 115 778 L137 768 L137 768 Z " />
<glyph glyph-name="lacute" unicode="&#x13a;" horiz-adv-x="257" d="M149 0 C156 0 160 4 160 11 L160 739 C160 746 156 750 149 750 L109 750 C102 750 98 746 98 739 L98 11 C98 4 102 0 109 0 L149 0 L149 0 Z M134 776 C136 775 138 775 140 775 C144 775 148 777 151 782 L245 939 C248 946 247 951 240 953 L208 964 C206 965 204 965 203 965 C198 965 194 962 191 957 L108 801 C105 794 106 789 112 786 L134 776 L134 776 Z " />
<glyph glyph-name="uni013B" unicode="&#x13b;" horiz-adv-x="536" d="M481 0 C489 0 493 4 493 11 L493 49 C493 57 489 61 481 61 L164 61 L164 689 C164 696 160 700 152 700 L112 700 C105 700 101 696 101 689 L101 11 C101 4 105 0 112 0 L481 0 L481 0 Z M239 -231 C238 -238 241 -242 248 -242 L280 -242 C289 -242 293 -239 294 -232 L326 -61 C328 -53 325 -49 317 -49 L280 -49 C273 -49 268 -53 267 -61 L239 -231 L239 -231 Z " />
<glyph glyph-name="uni013C" unicode="&#x13c;" horiz-adv-x="254" d="M147 0 C155 0 159 4 159 11 L159 739 C159 746 155 750 147 750 L108 750 C101 750 97 746 97 739 L97 11 C97 4 101 0 108 0 L147 0 L147 0 Z M70 -231 C69 -238 72 -242 79 -242 L111 -242 C118 -242 123 -239 125 -232 L157 -61 C158 -53 155 -49 148 -49 L110 -49 C103 -49 98 -53 97 -61 L70 -231 L70 -231 Z " />
<glyph glyph-name="Lcaron" unicode="&#x13d;" horiz-adv-x="544" d="M481 0 C489 0 493 4 493 11 L493 49 C493 57 489 61 481 61 L164 61 L164 689 C164 696 160 700 152 700 L112 700 C105 700 101 696 101 689 L101 11 C101 4 105 0 112 0 L481 0 L481 0 Z M418 518 C417 511 420 507 427 507 L459 507 C466 507 471 510 473 517 L505 688 C506 696 503 700 496 700 L458 700 C451 700 446 696 445 688 L418 518 L418 518 Z " />
<glyph glyph-name="lcaron" unicode="&#x13e;" horiz-adv-x="290" d="M147 0 C154 0 158 4 158 11 L158 739 C158 746 154 750 147 750 L107 750 C100 750 96 746 96 739 L96 11 C96 4 100 0 107 0 L147 0 L147 0 Z M240 568 C239 561 242 557 249 557 L281 557 C288 557 293 560 295 567 L327 738 C328 746 325 750 318 750 L281 750 C274 750 269 746 268 738 L240 568 L240 568 Z " />
<glyph glyph-name="Ldot" unicode="&#x13f;" horiz-adv-x="543" d="M481 0 C489 0 493 4 493 11 L493 49 C493 57 489 61 481 61 L164 61 L164 689 C164 696 160 700 152 700 L112 700 C105 700 101 696 101 689 L101 11 C101 4 105 0 112 0 L481 0 L481 0 Z M402 392 C402 368 421 349 445 349 C469 349 488 368 488 392 C488 416 469 435 445 435 C421 435 402 416 402 392 L402 392 Z " />
<glyph glyph-name="ldot" unicode="&#x140;" horiz-adv-x="381" d="M165 0 C172 0 176 4 176 11 L176 739 C176 746 172 750 165 750 L125 750 C118 750 114 746 114 739 L114 11 C114 4 118 0 125 0 L165 0 L165 0 Z M320 387 C320 363 339 344 363 344 C387 344 406 363 406 387 C406 411 387 430 363 430 C339 430 320 411 320 387 L320 387 Z " />
<glyph glyph-name="Lslash" unicode="&#x141;" horiz-adv-x="536" d="M101 11 C101 4 105 0 112 0 L481 0 C489 0 493 4 493 11 L493 49 C493 57 489 61 481 61 L164 61 L164 338 L355 405 C362 409 365 412 362 420 L353 446 C351 451 348 454 344 454 C342 454 341 453 339 453 L164 391 L164 689 C164 696 160 700 152 700 L112 700 C105 700 101 696 101 689 L101 369 L24 342 C17 339 15 334 17 327 L27 301 C29 295 32 292 37 292 C38 292 40 293 41 293 L101 315 L101 11 Z " />
<glyph glyph-name="lslash" unicode="&#x142;" horiz-adv-x="299" d="M115 11 C115 4 119 0 127 0 L166 0 C173 0 177 4 177 11 L177 364 L306 410 C310 413 315 417 312 425 L303 451 C301 457 296 458 293 458 C291 458 290 458 289 458 L177 418 L177 739 C177 746 173 750 166 750 L127 750 C119 750 115 746 115 739 L115 396 L-6 352 C-14 349 -14 342 -13 337 L-3 311 C-1 307 2 303 7 303 C8 303 9 303 11 304 L115 342 L115 11 Z " />
<glyph glyph-name="Nacute" unicode="&#x143;" horiz-adv-x="736" d="M624 0 C631 0 635 4 635 11 L635 689 C635 696 631 700 624 700 L584 700 C576 700 572 696 572 689 L572 112 L172 689 C167 696 164 700 153 700 L112 700 C105 700 101 696 101 689 L101 11 C101 4 105 0 112 0 L152 0 C160 0 164 4 164 11 L164 588 L564 11 C569 4 572 0 583 0 L624 0 Z M365 768 C367 767 369 767 371 767 C375 767 379 769 382 774 L476 931 C479 938 478 943 471 945 L439 956 C437 957 435 957 434 957 C429 957 425 954 422 949 L339 793 C336 786 337 781 343 778 L365 768 L365 768 Z " />
<glyph glyph-name="nacute" unicode="&#x144;" horiz-adv-x="617" d="M523 0 C530 0 534 4 534 11 L534 274 C534 415 474 510 339 510 C247 510 182 441 158 388 L158 489 C158 496 154 500 147 500 L107 500 C100 500 96 496 96 489 L96 11 C96 4 100 0 107 0 L147 0 C154 0 158 4 158 11 L158 264 C158 357 228 450 324 450 C428 450 472 376 472 265 L472 11 C472 4 476 0 484 0 L523 0 L523 0 Z M305 558 C307 557 309 557 311 557 C315 557 319 559 322 564 L416 721 C419 728 418 733 411 735 L379 746 C377 747 375 747 374 747 C369 747 365 744 362 739 L279 583 C276 576 277 571 283 568 L305 558 L305 558 Z " />
<glyph glyph-name="uni0145" unicode="&#x145;" horiz-adv-x="736" d="M624 0 C631 0 635 4 635 11 L635 689 C635 696 631 700 624 700 L584 700 C576 700 572 696 572 689 L572 112 L172 689 C167 696 164 700 153 700 L112 700 C105 700 101 696 101 689 L101 11 C101 4 105 0 112 0 L152 0 C160 0 164 4 164 11 L164 588 L564 11 C569 4 572 0 583 0 L624 0 Z M310 -231 C309 -238 312 -242 319 -242 L351 -242 C358 -242 363 -239 365 -232 L397 -61 C398 -53 395 -49 388 -49 L351 -49 C344 -49 339 -53 338 -61 L310 -231 L310 -231 Z " />
<glyph glyph-name="uni0146" unicode="&#x146;" horiz-adv-x="617" d="M523 0 C530 0 534 4 534 11 L534 274 C534 415 474 510 339 510 C247 510 182 441 158 388 L158 489 C158 496 154 500 147 500 L107 500 C100 500 96 496 96 489 L96 11 C96 4 100 0 107 0 L147 0 C154 0 158 4 158 11 L158 264 C158 357 228 450 324 450 C428 450 472 376 472 265 L472 11 C472 4 476 0 484 0 L523 0 L523 0 Z M257 -231 C256 -238 259 -242 266 -242 L298 -242 C307 -242 311 -239 312 -232 L344 -61 C346 -53 343 -49 335 -49 L298 -49 C291 -49 286 -53 285 -61 L257 -231 L257 -231 Z " />
<glyph glyph-name="Ncaron" unicode="&#x147;" horiz-adv-x="736" d="M624 0 C631 0 635 4 635 11 L635 689 C635 696 631 700 624 700 L584 700 C576 700 572 696 572 689 L572 112 L172 689 C167 696 164 700 153 700 L112 700 C105 700 101 696 101 689 L101 11 C101 4 105 0 112 0 L152 0 C160 0 164 4 164 11 L164 588 L564 11 C569 4 572 0 583 0 L624 0 Z M383 768 C394 768 398 772 405 779 L527 908 C532 914 531 920 526 925 L513 941 C511 943 508 945 505 945 C502 945 499 943 495 940 L370 813 L246 940 C242 943 239 945 236 945 C233 945 230 943 228 941 L215 925 C210 918 209 913 214 908 L336 779 C342 772 349 768 358 768 L383 768 L383 768 Z " />
<glyph glyph-name="ncaron" unicode="&#x148;" horiz-adv-x="617" d="M523 0 C530 0 534 4 534 11 L534 274 C534 415 474 510 339 510 C247 510 182 441 158 388 L158 489 C158 496 154 500 147 500 L107 500 C100 500 96 496 96 489 L96 11 C96 4 100 0 107 0 L147 0 C154 0 158 4 158 11 L158 264 C158 357 228 450 324 450 C428 450 472 376 472 265 L472 11 C472 4 476 0 484 0 L523 0 L523 0 Z M326 557 C337 557 341 561 348 568 L470 697 C475 703 474 709 469 714 L456 730 C454 732 451 734 448 734 C445 734 442 732 438 729 L313 602 L189 729 C185 732 182 734 179 734 C176 734 173 732 171 730 L158 714 C153 707 152 702 157 697 L279 568 C285 561 292 557 301 557 L326 557 L326 557 Z " />
<glyph glyph-name="napostrophe" unicode="&#x149;" horiz-adv-x="617" d="M523 0 C530 0 534 4 534 11 L534 274 C534 415 474 510 339 510 C247 510 182 441 158 388 L158 489 C158 496 154 500 147 500 L107 500 C100 500 96 496 96 489 L96 11 C96 4 100 0 107 0 L147 0 C154 0 158 4 158 11 L158 264 C158 357 228 450 324 450 C428 450 472 376 472 265 L472 11 C472 4 476 0 484 0 L523 0 L523 0 Z M73 576 C72 569 75 565 82 565 L114 565 C121 565 126 568 128 575 L159 738 C160 746 156 750 149 750 L112 750 C105 750 100 746 99 738 L73 576 L73 576 Z " />
<glyph glyph-name="Omacron" unicode="&#x14c;" horiz-adv-x="802" d="M401 710 C197 710 44 551 44 348 C44 145 197 -10 401 -10 C605 -10 758 149 758 348 C758 551 605 710 401 710 L401 710 Z M401 51 C232 51 107 180 107 348 C107 516 232 649 401 649 C570 649 695 516 695 348 C695 180 566 51 401 51 L401 51 Z M255 846 C255 838 259 834 266 834 L536 834 C544 834 548 838 548 846 L548 877 C548 885 544 889 536 889 L266 889 C259 889 255 885 255 878 L255 846 L255 846 Z " />
<glyph glyph-name="omacron" unicode="&#x14d;" horiz-adv-x="585" d="M39 250 C39 106 149 -10 293 -10 C437 -10 546 106 546 250 C546 394 437 510 293 510 C149 510 39 394 39 250 L39 250 Z M100 250 C100 362 183 450 293 450 C403 450 485 362 485 250 C485 138 403 50 293 50 C183 50 100 138 100 250 L100 250 Z M148 648 C148 640 152 636 159 636 L429 636 C437 636 441 640 441 648 L441 679 C441 687 437 691 429 691 L159 691 C152 691 148 687 148 680 L148 648 L148 648 Z " />
<glyph glyph-name="Obreve" unicode="&#x14e;" horiz-adv-x="802" d="M401 710 C197 710 44 551 44 348 C44 145 197 -10 401 -10 C605 -10 758 149 758 348 C758 551 605 710 401 710 L401 710 Z M401 51 C232 51 107 180 107 348 C107 516 232 649 401 649 C570 649 695 516 695 348 C695 180 566 51 401 51 L401 51 Z M551 904 C551 909 548 912 542 914 L514 920 C508 920 505 919 504 912 C503 865 469 825 401 825 C334 825 301 865 298 912 C298 919 295 920 289 920 L261 914 C255 913 252 910 252 904 C255 823 322 776 401 776 C484 776 546 823 551 904 L551 904 Z " />
<glyph glyph-name="obreve" unicode="&#x14f;" horiz-adv-x="585" d="M39 250 C39 106 149 -10 293 -10 C437 -10 546 106 546 250 C546 394 437 510 293 510 C149 510 39 394 39 250 L39 250 Z M100 250 C100 362 183 450 293 450 C403 450 485 362 485 250 C485 138 403 50 293 50 C183 50 100 138 100 250 L100 250 Z M442 719 C442 724 439 727 433 729 L405 735 C399 735 396 734 395 727 C394 680 360 640 292 640 C225 640 192 680 189 727 C189 734 186 735 180 735 L152 729 C146 728 143 725 143 719 C146 638 213 591 292 591 C375 591 437 638 442 719 L442 719 Z " />
<glyph glyph-name="Ohungarumlaut" unicode="&#x150;" horiz-adv-x="802" d="M401 710 C197 710 44 551 44 348 C44 145 197 -10 401 -10 C605 -10 758 149 758 348 C758 551 605 710 401 710 L401 710 Z M401 51 C232 51 107 180 107 348 C107 516 232 649 401 649 C570 649 695 516 695 348 C695 180 566 51 401 51 L401 51 Z M333 766 C336 765 339 764 341 764 C346 764 348 767 351 772 L443 929 C446 934 445 940 438 943 L406 954 C404 954 402 955 401 955 C396 955 392 952 390 947 L307 791 C304 783 305 778 312 775 L333 766 L333 766 Z M497 766 C500 765 503 764 505 764 C510 764 512 767 515 772 L608 928 C613 935 611 940 603 943 L570 954 C568 954 566 955 565 955 C560 955 556 952 554 947 L471 791 C468 783 469 778 476 775 L497 766 L497 766 Z " />
<glyph glyph-name="ohungarumlaut" unicode="&#x151;" horiz-adv-x="585" d="M39 250 C39 106 149 -10 293 -10 C437 -10 546 106 546 250 C546 394 437 510 293 510 C149 510 39 394 39 250 L39 250 Z M100 250 C100 362 183 450 293 450 C403 450 485 362 485 250 C485 138 403 50 293 50 C183 50 100 138 100 250 L100 250 Z M220 556 C223 555 226 554 228 554 C233 554 235 557 238 562 L330 719 C333 724 332 730 325 733 L293 744 C291 744 289 745 288 745 C283 745 279 742 277 737 L194 581 C191 573 192 568 199 565 L220 556 L220 556 Z M384 556 C387 555 390 554 392 554 C397 554 399 557 402 562 L495 718 C500 725 498 730 490 733 L457 744 C455 744 453 745 452 745 C447 745 443 742 441 737 L358 581 C355 573 356 568 363 565 L384 556 L384 556 Z " />
<glyph glyph-name="OE" unicode="&#x152;" horiz-adv-x="1155" d="M400 51 C237 51 107 185 107 348 C107 511 237 649 400 649 C564 649 695 511 695 348 C695 185 564 51 400 51 L400 51 Z M1086 -10 C1095 -10 1100 -6 1100 2 L1100 39 C1100 47 1095 51 1086 51 L577 51 C704 112 752 229 755 320 L1050 320 C1059 320 1064 324 1064 332 L1064 369 C1064 377 1059 381 1050 381 L755 381 C750 486 686 596 577 649 L1086 649 C1095 649 1100 653 1100 661 L1100 698 C1100 706 1095 710 1086 710 L402 710 C199 710 44 551 44 348 C44 150 200 -10 405 -10 L1086 -10 L1086 -10 Z " />
<glyph glyph-name="oe" unicode="&#x153;" horiz-adv-x="1007" d="M485 250 C485 138 403 50 293 50 C183 50 100 138 100 250 C100 362 183 450 293 450 C403 450 485 362 485 250 L485 250 Z M517 141 C552 53 634 -10 739 -10 C812 -10 871 10 918 41 C925 45 926 50 922 57 L904 83 C902 87 898 88 895 88 C892 88 890 88 887 86 C844 59 800 45 740 45 C633 45 556 125 545 224 L953 224 C964 224 968 231 968 239 C968 379 882 510 727 510 C623 510 548 450 515 362 C478 450 394 510 293 510 C149 510 39 394 39 250 C39 106 149 -10 293 -10 C398 -10 480 53 517 141 L517 141 Z M546 276 C557 380 619 458 727 458 C837 458 897 376 908 276 L546 276 Z " />
<glyph glyph-name="Racute" unicode="&#x154;" horiz-adv-x="601" d="M306 641 C418 641 484 563 484 477 C484 389 419 312 306 312 L164 312 L164 641 L306 641 L306 641 Z M366 262 C426 270 546 332 546 477 C546 606 450 700 317 700 L112 700 C105 700 101 696 101 689 L101 11 C101 4 105 0 112 0 L152 0 C160 0 164 4 164 11 L164 253 L298 253 L476 11 C483 4 490 0 497 0 L543 0 C554 0 556 4 549 13 L366 262 L366 262 Z M298 768 C300 767 302 767 304 767 C308 767 312 769 315 774 L409 931 C412 938 411 943 404 945 L372 956 C370 957 368 957 367 957 C362 957 358 954 355 949 L272 793 C269 786 270 781 276 778 L298 768 L298 768 Z " />
<glyph glyph-name="racute" unicode="&#x155;" horiz-adv-x="390" d="M107 500 C100 500 96 496 96 489 L96 11 C96 4 100 0 107 0 L147 0 C154 0 158 4 158 11 L158 244 C158 351 220 449 301 449 C320 449 332 447 349 440 C351 439 353 439 355 439 C359 439 362 441 364 446 L375 482 C378 489 377 494 370 497 C353 506 327 510 306 510 C233 510 176 447 158 386 L158 489 C158 496 154 500 147 500 L107 500 L107 500 Z M228 558 C230 557 232 557 234 557 C238 557 242 559 245 564 L339 721 C342 728 341 733 334 735 L302 746 C300 747 298 747 297 747 C292 747 288 744 285 739 L202 583 C199 576 200 571 206 568 L228 558 L228 558 Z " />
<glyph glyph-name="uni0156" unicode="&#x156;" horiz-adv-x="601" d="M269 -231 C268 -238 271 -242 278 -242 L310 -242 C317 -242 322 -239 324 -232 L356 -61 C357 -53 354 -49 347 -49 L309 -49 C302 -49 297 -53 296 -61 L269 -231 L269 -231 Z M307 641 C418 641 484 563 484 477 C484 389 419 312 307 312 L164 312 L164 641 L307 641 L307 641 Z M366 262 C426 270 546 332 546 477 C546 606 450 700 317 700 L112 700 C105 700 101 696 101 689 L101 11 C101 4 105 0 112 0 L152 0 C160 0 164 4 164 11 L164 253 L298 253 L476 11 C483 4 490 0 497 0 L543 0 C554 0 556 4 549 13 L366 262 L366 262 Z " />
<glyph glyph-name="uni0157" unicode="&#x157;" horiz-adv-x="390" d="M69 -231 C68 -238 71 -242 78 -242 L110 -242 C117 -242 122 -239 124 -232 L156 -61 C157 -53 154 -49 147 -49 L110 -49 C103 -49 98 -53 97 -61 L69 -231 L69 -231 Z M107 500 C100 500 96 496 96 489 L96 11 C96 4 100 0 107 0 L147 0 C154 0 158 4 158 11 L158 244 C158 351 220 449 301 449 C320 449 332 447 349 440 C351 439 353 439 355 439 C359 439 362 441 364 446 L375 482 C378 489 377 494 370 497 C353 506 327 510 306 510 C233 510 176 447 158 386 L158 489 C158 496 154 500 147 500 L107 500 L107 500 Z " />
<glyph glyph-name="Rcaron" unicode="&#x158;" horiz-adv-x="601" d="M306 641 C418 641 484 563 484 477 C484 389 419 312 306 312 L164 312 L164 641 L306 641 L306 641 Z M366 262 C426 270 546 332 546 477 C546 606 450 700 317 700 L112 700 C105 700 101 696 101 689 L101 11 C101 4 105 0 112 0 L152 0 C160 0 164 4 164 11 L164 253 L298 253 L476 11 C483 4 490 0 497 0 L543 0 C554 0 556 4 549 13 L366 262 L366 262 Z M320 768 C331 768 335 772 342 779 L464 908 C469 914 468 920 463 925 L450 941 C448 943 445 945 442 945 C439 945 436 943 432 940 L307 813 L183 940 C179 943 176 945 173 945 C170 945 167 943 165 941 L152 925 C147 918 146 913 151 908 L273 779 C279 772 286 768 295 768 L320 768 L320 768 Z " />
<glyph glyph-name="rcaron" unicode="&#x159;" horiz-adv-x="390" d="M107 500 C100 500 96 496 96 489 L96 11 C96 4 100 0 107 0 L147 0 C154 0 158 4 158 11 L158 244 C158 351 220 449 301 449 C320 449 332 447 349 440 C351 439 353 439 355 439 C359 439 362 441 364 446 L375 482 C378 489 377 494 370 497 C353 506 327 510 306 510 C233 510 176 447 158 386 L158 489 C158 496 154 500 147 500 L107 500 L107 500 Z M251 565 C262 565 266 569 273 576 L395 705 C400 711 399 717 394 722 L381 738 C379 740 376 742 373 742 C370 742 367 740 363 737 L238 610 L114 737 C110 740 107 742 104 742 C101 742 98 740 96 738 L83 722 C78 715 77 710 82 705 L204 576 C210 569 217 565 226 565 L251 565 L251 565 Z " />
<glyph glyph-name="Sacute" unicode="&#x15a;" horiz-adv-x="548" d="M469 637 C473 644 472 649 466 653 C410 689 345 710 280 710 C164 710 61 641 61 534 C61 293 436 371 436 183 C436 107 377 51 273 51 C205 51 135 81 86 122 C83 125 80 126 78 126 C75 126 72 124 69 120 L47 89 C43 83 44 78 50 73 C109 26 188 -10 272 -10 C426 -10 499 85 499 183 C499 431 125 352 125 534 C125 605 197 649 278 649 C334 649 387 628 430 601 C433 599 435 599 438 599 C442 599 445 600 448 604 L469 637 L469 637 Z M281 768 C283 767 285 767 287 767 C291 767 295 769 298 774 L392 931 C395 938 394 943 387 945 L355 956 C353 957 351 957 350 957 C345 957 341 954 338 949 L255 793 C252 786 253 781 259 778 L281 768 L281 768 Z " />
<glyph glyph-name="sacute" unicode="&#x15b;" horiz-adv-x="438" d="M80 96 C77 98 74 100 71 100 C68 100 65 98 62 95 L44 76 C38 70 38 64 43 59 C87 16 150 -10 218 -10 C322 -10 398 52 398 136 C398 314 112 269 112 377 C112 430 166 456 221 456 C264 456 301 445 340 417 C343 415 346 414 349 414 C352 414 355 415 358 418 L379 440 C384 445 384 451 377 456 C341 485 285 510 221 510 C123 510 53 453 53 377 C53 212 339 259 339 135 C339 79 287 44 219 44 C163 44 115 65 80 96 L80 96 Z M226 558 C228 557 230 557 232 557 C236 557 240 559 243 564 L337 721 C340 728 339 733 332 735 L300 746 C298 747 296 747 295 747 C290 747 286 744 283 739 L200 583 C197 576 198 571 204 568 L226 558 L226 558 Z " />
<glyph glyph-name="Scircumflex" unicode="&#x15c;" horiz-adv-x="548" d="M469 637 C473 644 472 649 466 653 C410 689 345 710 280 710 C164 710 61 641 61 534 C61 293 436 371 436 183 C436 107 377 51 273 51 C205 51 135 81 86 122 C83 125 80 126 78 126 C75 126 72 124 69 120 L47 89 C43 83 44 78 50 73 C109 26 188 -10 272 -10 C426 -10 499 85 499 183 C499 431 125 352 125 534 C125 605 197 649 278 649 C334 649 387 628 430 601 C433 599 435 599 438 599 C442 599 445 600 448 604 L469 637 L469 637 Z M260 938 C251 938 244 934 238 927 L116 798 C110 792 110 786 117 780 L130 765 C133 762 136 761 138 761 C142 761 146 764 148 766 L272 892 L397 766 C401 763 404 761 407 761 C410 761 413 763 415 765 L428 780 C434 787 434 793 429 798 L307 927 C300 934 296 938 285 938 L260 938 L260 938 Z " />
<glyph glyph-name="scircumflex" unicode="&#x15d;" horiz-adv-x="438" d="M80 96 C77 98 74 100 71 100 C68 100 65 98 62 95 L44 76 C38 70 38 64 43 59 C87 16 150 -10 218 -10 C322 -10 398 52 398 136 C398 314 112 269 112 377 C112 430 166 456 221 456 C264 456 301 445 340 417 C343 415 346 414 349 414 C352 414 355 415 358 418 L379 440 C384 445 384 451 377 456 C341 485 285 510 221 510 C123 510 53 453 53 377 C53 212 339 259 339 135 C339 79 287 44 219 44 C163 44 115 65 80 96 L80 96 Z M209 744 C200 744 193 740 187 733 L65 604 C59 598 59 592 66 586 L79 571 C82 568 85 567 87 567 C91 567 95 570 97 572 L221 698 L346 572 C350 569 353 567 356 567 C359 567 362 569 364 571 L377 586 C383 593 383 599 378 604 L256 733 C249 740 245 744 234 744 L209 744 L209 744 Z " />
<glyph glyph-name="Scedilla" unicode="&#x15e;" horiz-adv-x="548" d="M222 -166 C221 -173 224 -177 232 -177 L266 -177 C273 -177 278 -174 280 -167 L311 -7 C427 4 499 85 499 183 C499 431 125 352 125 534 C125 605 197 649 278 649 C334 649 387 628 430 601 C433 599 435 599 438 599 C442 599 445 600 448 604 L469 637 C473 644 472 649 466 653 C410 689 345 710 280 710 C164 710 61 641 61 534 C61 293 436 371 436 183 C436 107 377 51 273 51 C205 51 135 81 86 122 C83 125 80 126 78 126 C75 126 72 124 69 120 L47 89 C43 83 44 78 50 73 C103 30 172 -5 260 -9 L222 -166 L222 -166 Z " />
<glyph glyph-name="scedilla" unicode="&#x15f;" horiz-adv-x="438" d="M255 -7 C350 9 398 70 398 136 C398 314 112 269 112 377 C112 430 166 456 221 456 C264 456 301 445 340 417 C343 415 346 414 349 414 C352 414 355 415 358 418 L379 440 C384 445 384 451 377 456 C341 485 285 510 221 510 C123 510 53 453 53 377 C53 212 339 259 339 135 C339 79 287 44 219 44 C163 44 115 65 80 96 C77 98 74 100 71 100 C68 100 65 98 62 95 L44 76 C38 70 38 64 43 59 C82 23 131 -4 204 -9 L166 -166 C165 -173 168 -177 176 -177 L209 -177 C218 -177 222 -174 223 -167 L255 -7 L255 -7 Z " />
<glyph glyph-name="Scaron" unicode="&#x160;" horiz-adv-x="548" d="M469 637 C473 644 472 649 466 653 C410 689 345 710 280 710 C164 710 61 641 61 534 C61 293 436 371 436 183 C436 107 377 51 273 51 C205 51 135 81 86 122 C83 125 80 126 78 126 C75 126 72 124 69 120 L47 89 C43 83 44 78 50 73 C109 26 188 -10 272 -10 C426 -10 499 85 499 183 C499 431 125 352 125 534 C125 605 197 649 278 649 C334 649 387 628 430 601 C433 599 435 599 438 599 C442 599 445 600 448 604 L469 637 L469 637 Z M292 768 C303 768 307 772 314 779 L436 908 C441 914 440 920 435 925 L422 941 C420 943 417 945 414 945 C411 945 408 943 404 940 L279 813 L155 940 C151 943 148 945 145 945 C142 945 139 943 137 941 L124 925 C119 918 118 913 123 908 L245 779 C251 772 258 768 267 768 L292 768 L292 768 Z " />
<glyph glyph-name="scaron" unicode="&#x161;" horiz-adv-x="438" d="M80 96 C77 98 74 100 71 100 C68 100 65 98 62 95 L44 76 C38 70 38 64 43 59 C87 16 150 -10 218 -10 C322 -10 398 52 398 136 C398 314 112 269 112 377 C112 430 166 456 221 456 C264 456 301 445 340 417 C343 415 346 414 349 414 C352 414 355 415 358 418 L379 440 C384 445 384 451 377 456 C341 485 285 510 221 510 C123 510 53 453 53 377 C53 212 339 259 339 135 C339 79 287 44 219 44 C163 44 115 65 80 96 L80 96 Z M239 562 C250 562 254 566 261 573 L383 702 C388 708 387 714 382 719 L369 735 C367 737 364 739 361 739 C358 739 355 737 351 734 L226 607 L102 734 C98 737 95 739 92 739 C89 739 86 737 84 735 L71 719 C66 712 65 707 70 702 L192 573 C198 566 205 562 214 562 L239 562 L239 562 Z " />
<glyph glyph-name="uni0162" unicode="&#x162;" horiz-adv-x="587" d="M314 0 C321 0 325 4 325 11 L325 638 L542 638 C549 638 553 642 553 650 L553 689 C553 696 549 700 542 700 L45 700 C38 700 34 696 34 689 L34 650 C34 642 38 638 45 638 L262 638 L262 11 C262 4 266 0 274 0 L314 0 L314 0 Z M236 -231 C235 -238 238 -242 245 -242 L276 -242 C285 -242 289 -239 290 -232 L323 -61 C324 -53 320 -49 313 -49 L276 -49 C269 -49 264 -53 263 -61 L236 -231 L236 -231 Z " />
<glyph glyph-name="uni0163" unicode="&#x163;" horiz-adv-x="385" d="M323 64 C321 67 319 69 316 69 C315 69 313 68 311 67 C288 56 273 50 246 50 C207 50 179 68 179 111 L179 442 L311 442 C318 442 321 446 321 453 L321 489 C321 496 317 500 310 500 L179 500 L179 637 C179 644 175 648 168 648 L129 648 C121 648 117 644 117 637 L117 500 L59 500 C52 500 48 496 48 489 L48 453 C48 446 52 442 59 442 L117 442 L117 105 C117 30 162 -10 238 -10 C274 -10 302 -1 333 14 C340 18 342 23 339 29 L323 64 L323 64 Z M137 -231 C136 -238 140 -242 147 -242 L178 -242 C187 -242 191 -239 192 -232 L225 -61 C226 -53 222 -49 215 -49 L178 -49 C171 -49 166 -53 165 -61 L137 -231 L137 -231 Z " />
<glyph glyph-name="Tcaron" unicode="&#x164;" horiz-adv-x="587" d="M314 0 C321 0 325 4 325 11 L325 638 L542 638 C549 638 553 642 553 650 L553 689 C553 696 549 700 542 700 L45 700 C38 700 34 696 34 689 L34 650 C34 642 38 638 45 638 L262 638 L262 11 C262 4 266 0 274 0 L314 0 L314 0 Z M306 768 C317 768 321 772 328 779 L450 908 C455 914 454 920 449 925 L436 941 C434 943 431 945 428 945 C425 945 422 943 418 940 L293 813 L169 940 C165 943 162 945 159 945 C156 945 153 943 151 941 L138 925 C133 918 132 913 137 908 L259 779 C265 772 272 768 281 768 L306 768 L306 768 Z " />
<glyph glyph-name="tcaron" unicode="&#x165;" horiz-adv-x="400" d="M256 577 C255 570 258 566 265 566 L297 566 C306 566 310 569 311 576 L343 747 C345 755 342 759 334 759 L297 759 C290 759 285 755 284 747 L256 577 L256 577 Z M323 64 C321 67 319 69 316 69 C315 69 313 68 311 67 C288 56 273 50 246 50 C207 50 179 68 179 111 L179 442 L311 442 C318 442 321 446 321 453 L321 489 C321 496 317 500 310 500 L179 500 L179 637 C179 644 175 648 168 648 L129 648 C121 648 117 644 117 637 L117 500 L59 500 C52 500 48 496 48 489 L48 453 C48 446 52 442 59 442 L117 442 L117 105 C117 30 162 -10 238 -10 C274 -10 302 -1 333 14 C340 18 342 23 339 29 L323 64 L323 64 Z " />
<glyph glyph-name="Tbar" unicode="&#x166;" horiz-adv-x="587" d="M262 11 C262 4 266 0 274 0 L314 0 C321 0 325 4 325 11 L325 305 L512 305 C519 305 523 309 523 317 L523 355 C523 363 519 367 512 367 L325 367 L325 638 L542 638 C549 638 553 642 553 650 L553 689 C553 696 549 700 542 700 L45 700 C38 700 34 696 34 689 L34 650 C34 642 38 638 45 638 L262 638 L262 367 L75 367 C67 367 63 363 63 355 L63 317 C63 309 67 305 75 305 L262 305 L262 11 Z " />
<glyph glyph-name="tbar" unicode="&#x167;" horiz-adv-x="385" d="M270 261 C277 261 280 265 280 272 L280 287 C280 295 276 299 269 299 L179 299 L179 442 L311 442 C318 442 321 446 321 453 L321 489 C321 496 317 500 310 500 L179 500 L179 637 C179 644 175 648 168 648 L129 648 C121 648 117 644 117 637 L117 500 L59 500 C52 500 48 496 48 489 L48 453 C48 446 52 442 59 442 L117 442 L117 299 L78 299 C71 299 67 295 67 287 L67 272 C67 265 71 261 78 261 L117 261 L117 105 C117 30 162 -10 238 -10 C274 -10 302 -1 333 14 C340 18 342 23 339 29 L323 64 C321 67 319 69 316 69 C315 69 313 68 311 67 C288 56 273 50 246 50 C207 50 179 68 179 111 L179 261 L270 261 Z " />
<glyph glyph-name="Utilde" unicode="&#x168;" horiz-adv-x="690" d="M100 700 C93 700 89 696 89 689 L89 263 C89 116 174 -10 345 -10 C512 -10 601 116 601 263 L601 689 C601 696 597 700 589 700 L549 700 C542 700 538 696 538 689 L538 271 C538 140 467 51 345 51 C222 51 152 140 152 271 L152 689 C152 696 148 700 140 700 L100 700 L100 700 Z M416 854 C370 854 336 922 272 922 C237 922 199 895 172 862 C167 856 166 850 168 844 L176 816 C178 811 180 808 183 808 C185 808 188 809 190 812 C209 840 244 873 274 873 C322 873 357 805 418 805 C453 805 491 833 518 866 C523 871 524 877 521 884 L514 911 C512 917 510 920 507 920 C505 920 503 918 500 915 C482 889 445 854 416 854 L416 854 Z " />
<glyph glyph-name="utilde" unicode="&#x169;" horiz-adv-x="617" d="M94 500 C87 500 83 496 83 489 L83 226 C83 85 143 -10 278 -10 C370 -10 435 57 459 112 L459 11 C459 4 463 0 471 0 L510 0 C517 0 521 4 521 11 L521 489 C521 496 517 500 510 500 L471 500 C463 500 459 496 459 489 L459 236 C459 143 389 50 293 50 C189 50 145 124 145 235 L145 489 C145 496 141 500 134 500 L94 500 L94 500 Z M375 663 C329 663 295 731 231 731 C196 731 158 704 131 671 C126 665 125 659 127 653 L135 625 C137 620 139 617 142 617 C144 617 147 618 149 621 C168 649 203 682 233 682 C281 682 316 614 377 614 C412 614 450 642 477 675 C482 680 483 686 480 693 L473 720 C471 726 469 729 466 729 C464 729 462 727 459 724 C441 698 404 663 375 663 L375 663 Z " />
<glyph glyph-name="Umacron" unicode="&#x16a;" horiz-adv-x="690" d="M100 700 C93 700 89 696 89 689 L89 263 C89 116 174 -10 345 -10 C512 -10 601 116 601 263 L601 689 C601 696 597 700 589 700 L549 700 C542 700 538 696 538 689 L538 271 C538 140 467 51 345 51 C222 51 152 140 152 271 L152 689 C152 696 148 700 140 700 L100 700 L100 700 Z M199 846 C199 838 203 834 210 834 L480 834 C488 834 492 838 492 846 L492 877 C492 885 488 889 480 889 L210 889 C203 889 199 885 199 878 L199 846 L199 846 Z " />
<glyph glyph-name="umacron" unicode="&#x16b;" horiz-adv-x="617" d="M94 500 C87 500 83 496 83 489 L83 226 C83 85 143 -10 278 -10 C370 -10 435 57 459 112 L459 11 C459 4 463 0 471 0 L510 0 C517 0 521 4 521 11 L521 489 C521 496 517 500 510 500 L471 500 C463 500 459 496 459 489 L459 236 C459 143 389 50 293 50 C189 50 145 124 145 235 L145 489 C145 496 141 500 134 500 L94 500 L94 500 Z M156 648 C156 640 160 636 167 636 L437 636 C445 636 449 640 449 648 L449 679 C449 687 445 691 437 691 L167 691 C160 691 156 687 156 680 L156 648 L156 648 Z " />
<glyph glyph-name="Ubreve" unicode="&#x16c;" horiz-adv-x="690" d="M100 700 C93 700 89 696 89 689 L89 263 C89 116 174 -10 345 -10 C512 -10 601 116 601 263 L601 689 C601 696 597 700 589 700 L549 700 C542 700 538 696 538 689 L538 271 C538 140 467 51 345 51 C222 51 152 140 152 271 L152 689 C152 696 148 700 140 700 L100 700 L100 700 Z M494 904 C494 909 491 912 485 914 L457 920 C451 920 448 919 447 912 C446 865 412 825 344 825 C277 825 244 865 241 912 C241 919 238 920 232 920 L204 914 C198 913 195 910 195 904 C198 823 265 776 344 776 C427 776 489 823 494 904 L494 904 Z " />
<glyph glyph-name="ubreve" unicode="&#x16d;" horiz-adv-x="617" d="M94 500 C87 500 83 496 83 489 L83 226 C83 85 143 -10 278 -10 C370 -10 435 57 459 112 L459 11 C459 4 463 0 471 0 L510 0 C517 0 521 4 521 11 L521 489 C521 496 517 500 510 500 L471 500 C463 500 459 496 459 489 L459 236 C459 143 389 50 293 50 C189 50 145 124 145 235 L145 489 C145 496 141 500 134 500 L94 500 L94 500 Z M455 706 C455 711 452 714 446 716 L418 722 C412 722 409 721 408 714 C407 667 373 627 305 627 C238 627 205 667 202 714 C202 721 199 722 193 722 L165 716 C159 715 156 712 156 706 C159 625 226 578 305 578 C388 578 450 625 455 706 L455 706 Z " />
<glyph glyph-name="Uring" unicode="&#x16e;" horiz-adv-x="690" d="M100 700 C93 700 89 696 89 689 L89 263 C89 116 174 -10 345 -10 C512 -10 601 116 601 263 L601 689 C601 696 597 700 589 700 L549 700 C542 700 538 696 538 689 L538 271 C538 140 467 51 345 51 C222 51 152 140 152 271 L152 689 C152 696 148 700 140 700 L100 700 L100 700 Z M239 861 C239 803 287 755 345 755 C403 755 451 803 451 861 C451 919 403 967 345 967 C287 967 239 919 239 861 L239 861 Z M284 861 C284 896 310 923 345 923 C380 923 407 896 407 861 C407 826 380 800 345 800 C310 800 284 826 284 861 L284 861 Z " />
<glyph glyph-name="uring" unicode="&#x16f;" horiz-adv-x="617" d="M94 500 C87 500 83 496 83 489 L83 226 C83 85 143 -10 278 -10 C370 -10 435 57 459 112 L459 11 C459 4 463 0 471 0 L510 0 C517 0 521 4 521 11 L521 489 C521 496 517 500 510 500 L471 500 C463 500 459 496 459 489 L459 236 C459 143 389 50 293 50 C189 50 145 124 145 235 L145 489 C145 496 141 500 134 500 L94 500 L94 500 Z M194 668 C194 610 242 562 300 562 C358 562 406 610 406 668 C406 726 358 774 300 774 C242 774 194 726 194 668 L194 668 Z M239 668 C239 703 265 730 300 730 C335 730 362 703 362 668 C362 633 335 607 300 607 C265 607 239 633 239 668 L239 668 Z " />
<glyph glyph-name="Uhungarumlaut" unicode="&#x170;" horiz-adv-x="690" d="M100 700 C93 700 89 696 89 689 L89 263 C89 116 174 -10 345 -10 C512 -10 601 116 601 263 L601 689 C601 696 597 700 589 700 L549 700 C542 700 538 696 538 689 L538 271 C538 140 467 51 345 51 C222 51 152 140 152 271 L152 689 C152 696 148 700 140 700 L100 700 L100 700 Z M255 766 C258 765 261 764 263 764 C268 764 270 767 273 772 L365 929 C368 934 367 940 360 943 L328 954 C326 954 324 955 323 955 C318 955 314 952 312 947 L229 791 C226 783 227 778 234 775 L255 766 L255 766 Z M419 766 C422 765 425 764 427 764 C432 764 434 767 437 772 L530 928 C535 935 533 940 525 943 L492 954 C490 954 488 955 487 955 C482 955 478 952 476 947 L393 791 C390 783 391 778 398 775 L419 766 L419 766 Z " />
<glyph glyph-name="uhungarumlaut" unicode="&#x171;" horiz-adv-x="617" d="M94 500 C87 500 83 496 83 489 L83 226 C83 85 143 -10 278 -10 C370 -10 435 57 459 112 L459 11 C459 4 463 0 471 0 L510 0 C517 0 521 4 521 11 L521 489 C521 496 517 500 510 500 L471 500 C463 500 459 496 459 489 L459 236 C459 143 389 50 293 50 C189 50 145 124 145 235 L145 489 C145 496 141 500 134 500 L94 500 L94 500 Z M219 542 C222 541 225 540 227 540 C232 540 234 543 237 548 L329 705 C332 710 331 716 324 719 L292 730 C290 730 288 731 287 731 C282 731 278 728 276 723 L193 567 C190 559 191 554 198 551 L219 542 L219 542 Z M383 542 C386 541 389 540 391 540 C396 540 398 543 401 548 L494 704 C499 711 497 716 489 719 L456 730 C454 730 452 731 451 731 C446 731 442 728 440 723 L357 567 C354 559 355 554 362 551 L383 542 L383 542 Z " />
<glyph glyph-name="Uogonek" unicode="&#x172;" horiz-adv-x="690" d="M320 -9 C247 -77 286 -191 398 -191 C407 -191 416 -191 426 -189 C433 -188 437 -183 436 -176 L434 -149 C434 -141 431 -141 424 -141 C414 -143 406 -144 397 -144 C317 -144 309 -52 369 -9 C531 4 601 136 601 263 L601 689 C601 696 597 700 589 700 L549 700 C542 700 538 696 538 689 L538 271 C538 140 467 51 345 51 C222 51 152 140 152 271 L152 689 C152 696 148 700 140 700 L100 700 C93 700 89 696 89 689 L89 263 C89 111 175 2 320 -9 L320 -9 Z " />
<glyph glyph-name="uogonek" unicode="&#x173;" horiz-adv-x="617" d="M459 11 C459 4 459 0 468 0 L473 0 C388 -65 421 -191 536 -191 C545 -191 554 -191 564 -189 C569 -188 572 -184 572 -177 L571 -149 C571 -141 566 -141 560 -141 C552 -143 544 -144 537 -144 C457 -144 451 -44 517 0 C521 0 521 6 521 11 L521 488 C521 496 517 500 510 500 L471 500 C463 500 459 496 459 489 L459 236 C459 143 389 50 293 50 C189 50 145 124 145 235 L145 489 C145 496 141 500 134 500 L94 500 C87 500 83 496 83 489 L83 226 C83 85 143 -10 278 -10 C370 -10 435 57 459 112 L459 11 L459 11 Z " />
<glyph glyph-name="Wcircumflex" unicode="&#x174;" horiz-adv-x="903" d="M686 0 C697 0 698 4 701 12 L878 688 C880 696 877 700 869 700 L825 700 C814 700 813 696 810 688 L656 97 L492 689 C489 696 484 700 477 700 L426 700 C419 700 414 696 412 689 L247 97 L94 688 C91 696 88 700 79 700 L34 700 C26 700 23 696 25 688 L202 12 C204 4 209 0 218 0 L271 0 C282 0 285 4 288 12 L452 605 L616 12 C618 4 624 0 633 0 L686 0 L686 0 Z M439 938 C430 938 423 934 417 927 L295 798 C289 792 289 786 296 780 L309 765 C312 762 315 761 317 761 C321 761 325 764 327 766 L451 892 L576 766 C580 763 583 761 586 761 C589 761 592 763 594 765 L607 780 C613 787 613 793 608 798 L486 927 C479 934 475 938 464 938 L439 938 L439 938 Z " />
<glyph glyph-name="wcircumflex" unicode="&#x175;" horiz-adv-x="694" d="M91 489 C89 496 84 500 77 500 L37 500 C29 500 27 496 30 489 L149 15 C152 5 158 0 167 0 L217 0 C228 0 232 7 235 15 L347 421 L459 15 C462 7 465 0 476 0 L527 0 C538 0 541 8 544 15 L664 489 C666 496 664 500 657 500 L617 500 C608 500 605 496 602 489 L499 83 L384 486 C381 495 376 500 369 500 L325 500 C316 500 311 495 309 486 L252 284 C223 183 195 82 195 83 L91 489 L91 489 Z M334 727 C325 727 318 723 312 716 L190 587 C184 581 184 575 191 569 L204 554 C207 551 210 550 212 550 C216 550 220 553 222 555 L346 681 L471 555 C475 552 478 550 481 550 C484 550 487 552 489 554 L502 569 C508 576 508 582 503 587 L381 716 C374 723 370 727 359 727 L334 727 L334 727 Z " />
<glyph glyph-name="Ycircumflex" unicode="&#x176;" horiz-adv-x="574" d="M101 693 C98 698 93 700 87 700 L39 700 C31 700 30 694 33 689 L256 344 L256 11 C256 4 260 0 268 0 L307 0 C315 0 319 4 319 11 L319 344 L541 689 C544 694 543 700 535 700 L488 700 C483 700 478 698 474 693 L287 401 L101 693 L101 693 Z M275 938 C266 938 259 934 253 927 L131 798 C125 792 125 786 132 780 L145 765 C148 762 151 761 153 761 C157 761 161 764 163 766 L287 892 L412 766 C416 763 419 761 422 761 C425 761 428 763 430 765 L443 780 C449 787 449 793 444 798 L322 927 C315 934 311 938 300 938 L275 938 L275 938 Z " />
<glyph glyph-name="ycircumflex" unicode="&#x177;" horiz-adv-x="620" d="M524 489 C524 496 520 500 512 500 L473 500 C466 500 462 496 462 489 L462 246 C462 150 395 60 296 60 C192 60 147 133 147 245 L147 489 C147 496 143 500 136 500 L97 500 C89 500 85 496 85 489 L85 236 C85 95 145 0 281 0 C372 0 440 66 462 120 L462 4 C462 -106 407 -195 287 -195 C220 -195 164 -165 131 -118 C130 -116 128 -114 125 -114 C123 -114 120 -116 117 -118 L93 -146 C89 -151 89 -156 94 -162 C133 -215 201 -255 289 -255 C439 -255 524 -141 524 8 L524 489 L524 489 Z M292 744 C283 744 276 740 270 733 L148 604 C142 598 142 592 149 586 L162 571 C165 568 168 567 170 567 C174 567 178 570 180 572 L304 698 L429 572 C433 569 436 567 439 567 C442 567 445 569 447 571 L460 586 C466 593 466 599 461 604 L339 733 C332 740 328 744 317 744 L292 744 L292 744 Z " />
<glyph glyph-name="Ydieresis" unicode="&#x178;" horiz-adv-x="574" d="M101 693 C98 698 93 700 87 700 L39 700 C31 700 30 694 33 689 L256 344 L256 11 C256 4 260 0 268 0 L307 0 C315 0 319 4 319 11 L319 344 L541 689 C544 694 543 700 535 700 L488 700 C483 700 478 698 474 693 L287 401 L101 693 L101 693 Z M144 834 C144 810 163 791 187 791 C211 791 230 810 230 834 C230 858 211 877 187 877 C163 877 144 858 144 834 L144 834 Z M344 834 C344 810 362 791 386 791 C410 791 429 810 429 834 C429 858 410 877 386 877 C362 877 344 858 344 834 L344 834 Z " />
<glyph glyph-name="Zacute" unicode="&#x179;" horiz-adv-x="617" d="M47 11 C47 4 51 0 58 0 L559 0 C566 0 570 4 570 11 L570 50 C570 58 566 62 559 62 L129 62 L553 638 C556 643 557 646 557 655 L557 689 C557 696 553 700 546 700 L70 700 C63 700 59 696 59 689 L59 650 C59 642 63 638 70 638 L476 638 L54 65 C50 58 47 53 47 42 L47 11 L47 11 Z M297 768 C299 767 301 767 303 767 C307 767 311 769 314 774 L408 931 C411 938 410 943 403 945 L371 956 C369 957 367 957 366 957 C361 957 357 954 354 949 L271 793 C268 786 269 781 275 778 L297 768 L297 768 Z " />
<glyph glyph-name="zacute" unicode="&#x17a;" horiz-adv-x="477" d="M44 11 C44 4 48 0 55 0 L422 0 C429 0 433 4 433 11 L433 46 C433 54 429 58 422 58 L124 58 L409 443 C414 450 417 455 417 466 L417 489 C417 496 413 500 406 500 L70 500 C62 500 58 496 58 489 L58 454 C58 446 62 442 70 442 L335 442 L52 59 C47 52 44 47 44 38 L44 11 L44 11 Z M234 558 C236 557 238 557 240 557 C244 557 248 559 251 564 L345 721 C348 728 347 733 340 735 L308 746 C306 747 304 747 303 747 C298 747 294 744 291 739 L208 583 C205 576 206 571 212 568 L234 558 L234 558 Z " />
<glyph glyph-name="Zdotaccent" unicode="&#x17b;" horiz-adv-x="617" d="M47 11 C47 4 51 0 58 0 L559 0 C566 0 570 4 570 11 L570 50 C570 58 566 62 559 62 L129 62 L553 638 C556 643 557 646 557 655 L557 689 C557 696 553 700 546 700 L70 700 C63 700 59 696 59 689 L59 650 C59 642 63 638 70 638 L476 638 L54 65 C50 58 47 53 47 42 L47 11 L47 11 Z M264 896 C264 872 283 853 307 853 C331 853 350 872 350 896 C350 920 331 939 307 939 C283 939 264 920 264 896 L264 896 Z " />
<glyph glyph-name="zdotaccent" unicode="&#x17c;" horiz-adv-x="477" d="M44 11 C44 4 48 0 55 0 L422 0 C429 0 433 4 433 11 L433 46 C433 54 429 58 422 58 L124 58 L409 443 C414 450 417 455 417 466 L417 489 C417 496 413 500 406 500 L70 500 C62 500 58 496 58 489 L58 454 C58 446 62 442 70 442 L335 442 L52 59 C47 52 44 47 44 38 L44 11 L44 11 Z M190 675 C190 651 209 632 233 632 C257 632 276 651 276 675 C276 699 257 718 233 718 C209 718 190 699 190 675 L190 675 Z " />
<glyph glyph-name="Zcaron" unicode="&#x17d;" horiz-adv-x="617" d="M47 11 C47 4 51 0 58 0 L559 0 C566 0 570 4 570 11 L570 50 C570 58 566 62 559 62 L129 62 L553 638 C556 643 557 646 557 655 L557 689 C557 696 553 700 546 700 L70 700 C63 700 59 696 59 689 L59 650 C59 642 63 638 70 638 L476 638 L54 65 C50 58 47 53 47 42 L47 11 L47 11 Z M322 768 C333 768 337 772 344 779 L466 908 C471 914 470 920 465 925 L452 941 C450 943 447 945 444 945 C441 945 438 943 434 940 L309 813 L185 940 C181 943 178 945 175 945 C172 945 169 943 167 941 L154 925 C149 918 148 913 153 908 L275 779 C281 772 288 768 297 768 L322 768 L322 768 Z " />
<glyph glyph-name="zcaron" unicode="&#x17e;" horiz-adv-x="477" d="M44 11 C44 4 48 0 55 0 L422 0 C429 0 433 4 433 11 L433 46 C433 54 429 58 422 58 L124 58 L409 443 C414 450 417 455 417 466 L417 489 C417 496 413 500 406 500 L70 500 C62 500 58 496 58 489 L58 454 C58 446 62 442 70 442 L335 442 L52 59 C47 52 44 47 44 38 L44 11 L44 11 Z M255 557 C266 557 270 561 277 568 L399 697 C404 703 403 709 398 714 L385 730 C383 732 380 734 377 734 C374 734 371 732 367 729 L242 602 L118 729 C114 732 111 734 108 734 C105 734 102 732 100 730 L87 714 C82 707 81 702 86 697 L208 568 C214 561 221 557 230 557 L255 557 L255 557 Z " />
<glyph glyph-name="longs" unicode="&#x17f;" horiz-adv-x="346" d="M184 604 C184 681 219 699 260 699 C284 699 301 695 324 684 C327 683 329 682 330 682 C333 682 334 684 336 687 L354 719 C357 726 358 728 350 733 C318 750 285 759 251 759 C176 759 122 716 122 615 L122 500 L51 500 C44 500 40 496 40 489 L40 453 C40 446 44 442 51 442 L122 442 L122 11 C122 4 126 0 134 0 L173 0 C180 0 184 4 184 11 L184 604 L184 604 Z " />
<glyph glyph-name="florin" unicode="&#x192;" horiz-adv-x="585" d="M199 105 C184 50 169 -10 101 -10 C85 -10 69 -6 50 -2 C48 -1 46 -1 45 -1 C41 -1 37 -4 35 -9 L29 -33 C27 -40 30 -44 37 -47 C61 -54 87 -59 111 -59 C198 -59 226 2 247 78 L353 479 L474 479 C483 479 487 483 487 491 L487 513 C487 521 483 525 474 525 L364 525 L386 609 C401 660 412 703 452 718 C463 722 473 724 484 724 C500 724 517 720 536 715 C538 715 539 714 541 714 C546 714 549 717 550 723 L556 746 C557 753 554 758 547 760 C524 768 498 773 473 773 C388 773 358 710 338 636 L310 525 L226 525 C217 525 213 521 213 512 L213 491 C213 483 217 479 226 479 L297 479 L199 105 L199 105 Z " />
<glyph glyph-name="uni0218" unicode="&#x218;" horiz-adv-x="548" d="M222 -231 C221 -238 224 -242 231 -242 L263 -242 C270 -242 275 -239 277 -232 L309 -61 C310 -53 307 -49 300 -49 L263 -49 C256 -49 251 -53 250 -61 L222 -231 L222 -231 Z M469 637 C473 644 472 649 466 653 C410 689 345 710 280 710 C164 710 61 641 61 534 C61 293 436 371 436 183 C436 107 377 51 273 51 C205 51 135 81 86 122 C83 125 80 126 78 126 C75 126 72 124 69 120 L47 89 C43 83 44 78 50 73 C109 26 188 -10 272 -10 C426 -10 499 85 499 183 C499 431 125 352 125 534 C125 605 197 649 278 649 C334 649 387 628 430 601 C433 599 435 599 438 599 C442 599 445 600 448 604 L469 637 L469 637 Z " />
<glyph glyph-name="uni0219" unicode="&#x219;" horiz-adv-x="438" d="M163 -231 C162 -238 166 -242 173 -242 L204 -242 C213 -242 217 -239 218 -232 L251 -61 C252 -53 248 -49 241 -49 L204 -49 C197 -49 192 -53 191 -61 L163 -231 L163 -231 Z M80 96 C77 98 74 100 71 100 C68 100 65 98 62 95 L44 76 C38 70 38 64 43 59 C87 16 150 -10 218 -10 C322 -10 398 52 398 136 C398 314 112 269 112 377 C112 430 166 456 221 456 C264 456 301 445 340 417 C343 415 346 414 349 414 C352 414 355 415 358 418 L379 440 C384 445 384 451 377 456 C341 485 285 510 221 510 C123 510 53 453 53 377 C53 212 339 259 339 135 C339 79 287 44 219 44 C163 44 115 65 80 96 L80 96 Z " />
<glyph glyph-name="uni021A" unicode="&#x21a;" horiz-adv-x="587" d="M314 0 C321 0 325 4 325 11 L325 638 L542 638 C549 638 553 642 553 650 L553 689 C553 696 549 700 542 700 L45 700 C38 700 34 696 34 689 L34 650 C34 642 38 638 45 638 L262 638 L262 11 C262 4 266 0 274 0 L314 0 L314 0 Z M236 -231 C235 -238 238 -242 245 -242 L276 -242 C285 -242 289 -239 290 -232 L323 -61 C324 -53 320 -49 313 -49 L276 -49 C269 -49 264 -53 263 -61 L236 -231 L236 -231 Z " />
<glyph glyph-name="uni021B" unicode="&#x21b;" horiz-adv-x="385" d="M323 64 C321 67 319 69 316 69 C315 69 313 68 311 67 C288 56 273 50 246 50 C207 50 179 68 179 111 L179 442 L311 442 C318 442 321 446 321 453 L321 489 C321 496 317 500 310 500 L179 500 L179 637 C179 644 175 648 168 648 L129 648 C121 648 117 644 117 637 L117 500 L59 500 C52 500 48 496 48 489 L48 453 C48 446 52 442 59 442 L117 442 L117 105 C117 30 162 -10 238 -10 C274 -10 302 -1 333 14 C340 18 342 23 339 29 L323 64 L323 64 Z M137 -231 C136 -238 140 -242 147 -242 L178 -242 C187 -242 191 -239 192 -232 L225 -61 C226 -53 222 -49 215 -49 L178 -49 C171 -49 166 -53 165 -61 L137 -231 L137 -231 Z " />
<glyph glyph-name="circumflex" unicode="&#x2c6;" horiz-adv-x="369" d="M172 737 C163 737 156 733 150 726 L28 597 C22 591 22 585 29 579 L42 564 C45 561 48 560 50 560 C54 560 58 563 60 565 L184 691 L309 565 C313 562 316 560 319 560 C322 560 325 562 327 564 L340 579 C346 586 346 592 341 597 L219 726 C212 733 208 737 197 737 L172 737 L172 737 Z " />
<glyph glyph-name="caron" unicode="&#x2c7;" horiz-adv-x="369" d="M197 564 C208 564 212 568 219 575 L341 704 C346 710 345 716 340 721 L327 737 C325 739 322 741 319 741 C316 741 313 739 309 736 L184 609 L60 736 C56 739 53 741 50 741 C47 741 44 739 42 737 L29 721 C24 714 23 709 28 704 L150 575 C156 568 163 564 172 564 L197 564 L197 564 Z " />
<glyph glyph-name="uni02C9" unicode="&#x2c9;" horiz-adv-x="453" d="M80 624 C80 616 84 612 91 612 L361 612 C369 612 373 616 373 624 L373 655 C373 663 369 667 361 667 L91 667 C84 667 80 663 80 656 L80 624 L80 624 Z " />
<glyph glyph-name="breve" unicode="&#x2d8;" horiz-adv-x="347" d="M323 719 C323 724 320 727 314 729 L286 735 C280 735 277 734 276 727 C275 680 241 640 173 640 C106 640 73 680 70 727 C70 734 67 735 61 735 L33 729 C27 728 24 725 24 719 C27 638 94 591 173 591 C256 591 318 638 323 719 L323 719 Z " />
<glyph glyph-name="dotaccent" unicode="&#x2d9;" horiz-adv-x="164" d="M39 646 C39 622 58 603 82 603 C106 603 125 622 125 646 C125 670 106 689 82 689 C58 689 39 670 39 646 L39 646 Z " />
<glyph glyph-name="ring" unicode="&#x2da;" horiz-adv-x="248" d="M18 639 C18 581 66 533 124 533 C182 533 230 581 230 639 C230 697 182 745 124 745 C66 745 18 697 18 639 L18 639 Z M63 639 C63 674 89 701 124 701 C159 701 186 674 186 639 C186 604 159 578 124 578 C89 578 63 604 63 639 L63 639 Z " />
<glyph glyph-name="ogonek" unicode="&#x2db;" horiz-adv-x="173" d="M71 7 C-11 -70 20 -191 135 -191 C144 -191 153 -190 163 -189 C169 -188 172 -184 172 -176 L171 -149 C171 -141 166 -141 160 -141 C152 -143 144 -143 137 -143 C56 -143 53 -40 123 5 L71 7 L71 7 Z " />
<glyph glyph-name="tilde" unicode="&#x2dc;" horiz-adv-x="411" d="M276 626 C230 626 196 694 132 694 C97 694 59 667 32 634 C27 628 26 622 28 616 L36 588 C38 583 40 580 43 580 C45 580 48 581 50 584 C69 612 104 645 134 645 C182 645 217 577 278 577 C313 577 351 605 378 638 C383 643 384 649 381 656 L374 683 C372 689 370 692 367 692 C365 692 363 690 360 687 C342 661 305 626 276 626 L276 626 Z " />
<glyph glyph-name="hungarumlaut" unicode="&#x2dd;" horiz-adv-x="382" d="M66 543 C69 542 72 541 74 541 C79 541 81 544 84 549 L176 706 C179 711 178 717 171 720 L139 731 C137 731 135 732 134 732 C129 732 125 729 123 724 L40 568 C37 560 38 555 45 552 L66 543 L66 543 Z M230 543 C233 542 236 541 238 541 C243 541 245 544 248 549 L341 705 C346 712 344 717 336 720 L303 731 C301 731 299 732 298 732 C293 732 289 729 287 724 L204 568 C201 560 202 555 209 552 L230 543 L230 543 Z " />
<glyph glyph-name="uni0394" unicode="&#x394;" horiz-adv-x="621" d="M309 680 L312 680 L534 56 L90 56 L309 680 Z M24 11 C24 4 28 0 35 0 L585 0 C593 0 597 4 597 11 L597 28 L354 735 C349 745 343 750 336 750 L286 750 C275 750 271 744 267 735 L24 28 L24 11 L24 11 Z " />
<glyph glyph-name="uni03A9" unicode="&#x3a9;" horiz-adv-x="799" d="M314 60 C175 127 95 226 98 373 C101 538 222 676 399 676 C575 676 703 536 700 372 C697 224 621 128 480 60 L480 0 L717 0 C724 0 728 4 728 11 L728 42 C728 49 724 53 717 53 L534 53 C675 120 753 237 754 378 C754 562 608 729 399 729 C189 729 44 562 44 378 C44 229 125 118 261 53 L79 53 C72 53 68 50 68 43 L68 11 C68 4 72 0 79 0 L314 0 L314 60 Z " />
<glyph glyph-name="uni03BC" unicode="&#x3bc;" horiz-adv-x="617" d="M145 70 C179 19 225 -7 291 -7 C364 -7 431 45 459 111 L459 11 C459 4 463 0 471 0 L510 0 C517 0 521 4 521 11 L521 489 C521 496 517 500 510 500 L471 500 C463 500 459 496 459 489 L459 246 C459 153 389 50 293 50 C193 50 145 128 145 235 L145 489 C145 496 141 500 134 500 L94 500 C87 500 83 496 83 489 L83 -239 C83 -246 87 -250 94 -250 L134 -250 C141 -250 145 -246 145 -239 L145 70 L145 70 Z " />
<glyph glyph-name="pi" unicode="&#x3c0;" horiz-adv-x="659" d="M615 562 C622 562 625 566 625 574 L625 612 C625 619 622 623 615 623 L45 623 C38 623 34 619 34 612 L34 574 C34 566 38 562 45 562 L160 562 L160 11 C160 4 164 0 171 0 L209 0 C216 0 220 4 220 11 L220 562 L439 562 L439 11 C439 4 443 0 451 0 L488 0 C495 0 499 4 499 11 L499 562 L615 562 Z " />
<glyph glyph-name="Wgrave" unicode="&#x1e80;" horiz-adv-x="903" d="M686 0 C697 0 698 4 701 12 L878 688 C880 696 877 700 869 700 L825 700 C814 700 813 696 810 688 L656 97 L492 689 C489 696 484 700 477 700 L426 700 C419 700 414 696 412 689 L247 97 L94 688 C91 696 88 700 79 700 L34 700 C26 700 23 696 25 688 L202 12 C204 4 209 0 218 0 L271 0 C282 0 285 4 288 12 L452 605 L616 12 C618 4 624 0 633 0 L686 0 L686 0 Z M465 778 C472 781 472 788 469 793 L386 949 C384 954 380 957 375 957 C374 957 372 957 370 956 L337 945 C330 943 329 938 332 931 L426 774 C429 769 433 767 437 767 C439 767 441 767 443 768 L465 778 L465 778 Z " />
<glyph glyph-name="wgrave" unicode="&#x1e81;" horiz-adv-x="694" d="M91 489 C89 496 84 500 77 500 L37 500 C29 500 27 496 30 489 L149 15 C152 5 158 0 167 0 L217 0 C228 0 232 7 235 15 L347 421 L459 15 C462 7 465 0 476 0 L527 0 C538 0 541 8 544 15 L664 489 C666 496 664 500 657 500 L617 500 C608 500 605 496 602 489 L499 83 L384 486 C381 495 376 500 369 500 L325 500 C316 500 311 495 309 486 L252 284 C223 183 195 82 195 83 L91 489 L91 489 Z M360 568 C367 571 367 578 364 583 L281 739 C279 744 275 747 270 747 C269 747 267 747 265 746 L232 735 C225 733 224 728 227 721 L321 564 C324 559 328 557 332 557 C334 557 336 557 338 558 L360 568 L360 568 Z " />
<glyph glyph-name="Wacute" unicode="&#x1e82;" horiz-adv-x="903" d="M686 0 C697 0 698 4 701 12 L878 688 C880 696 877 700 869 700 L825 700 C814 700 813 696 810 688 L656 97 L492 689 C489 696 484 700 477 700 L426 700 C419 700 414 696 412 689 L247 97 L94 688 C91 696 88 700 79 700 L34 700 C26 700 23 696 25 688 L202 12 C204 4 209 0 218 0 L271 0 C282 0 285 4 288 12 L452 605 L616 12 C618 4 624 0 633 0 L686 0 L686 0 Z M458 774 C460 773 462 773 464 773 C468 773 472 775 475 780 L569 937 C572 944 571 949 564 951 L532 962 C530 963 528 963 527 963 C522 963 518 960 515 955 L432 799 C429 792 430 787 436 784 L458 774 L458 774 Z " />
<glyph glyph-name="wacute" unicode="&#x1e83;" horiz-adv-x="694" d="M91 489 C89 496 84 500 77 500 L37 500 C29 500 27 496 30 489 L149 15 C152 5 158 0 167 0 L217 0 C228 0 232 7 235 15 L347 421 L459 15 C462 7 465 0 476 0 L527 0 C538 0 541 8 544 15 L664 489 C666 496 664 500 657 500 L617 500 C608 500 605 496 602 489 L499 83 L384 486 C381 495 376 500 369 500 L325 500 C316 500 311 495 309 486 L252 284 C223 183 195 82 195 83 L91 489 L91 489 Z M356 558 C358 557 360 557 362 557 C366 557 370 559 373 564 L467 721 C470 728 469 733 462 735 L430 746 C428 747 426 747 425 747 C420 747 416 744 413 739 L330 583 C327 576 328 571 334 568 L356 558 L356 558 Z " />
<glyph glyph-name="Wdieresis" unicode="&#x1e84;" horiz-adv-x="903" d="M686 0 C697 0 698 4 701 12 L878 688 C880 696 877 700 869 700 L825 700 C814 700 813 696 810 688 L656 97 L492 689 C489 696 484 700 477 700 L426 700 C419 700 414 696 412 689 L247 97 L94 688 C91 696 88 700 79 700 L34 700 C26 700 23 696 25 688 L202 12 C204 4 209 0 218 0 L271 0 C282 0 285 4 288 12 L452 605 L616 12 C618 4 624 0 633 0 L686 0 L686 0 Z M309 834 C309 810 328 791 352 791 C376 791 395 810 395 834 C395 858 376 877 352 877 C328 877 309 858 309 834 L309 834 Z M509 834 C509 810 527 791 551 791 C575 791 594 810 594 834 C594 858 575 877 551 877 C527 877 509 858 509 834 L509 834 Z " />
<glyph glyph-name="wdieresis" unicode="&#x1e85;" horiz-adv-x="694" d="M91 489 C89 496 84 500 77 500 L37 500 C29 500 27 496 30 489 L149 15 C152 5 158 0 167 0 L217 0 C228 0 232 7 235 15 L347 421 L459 15 C462 7 465 0 476 0 L527 0 C538 0 541 8 544 15 L664 489 C666 496 664 500 657 500 L617 500 C608 500 605 496 602 489 L499 83 L384 486 C381 495 376 500 369 500 L325 500 C316 500 311 495 309 486 L252 284 C223 183 195 82 195 83 L91 489 L91 489 Z M205 643 C205 619 224 600 248 600 C272 600 291 619 291 643 C291 667 272 686 248 686 C224 686 205 667 205 643 L205 643 Z M405 643 C405 619 423 600 447 600 C471 600 490 619 490 643 C490 667 471 686 447 686 C423 686 405 667 405 643 L405 643 Z " />
<glyph glyph-name="endash" unicode="&#x2013;" horiz-adv-x="614" d="M91 303 C84 303 80 299 80 292 L80 253 C80 245 84 241 91 241 L523 241 C530 241 534 245 534 253 L534 292 C534 299 530 303 523 303 L91 303 L91 303 Z " />
<glyph glyph-name="emdash" unicode="&#x2014;" horiz-adv-x="1137" d="M91 303 C84 303 80 299 80 292 L80 253 C80 245 84 241 91 241 L1047 241 C1054 241 1057 245 1057 253 L1057 292 C1057 299 1054 303 1047 303 L91 303 L91 303 Z " />
<glyph glyph-name="quoteleft" unicode="&#x2018;" horiz-adv-x="177" d="M135 699 C136 706 132 710 125 710 L94 710 C85 710 81 707 80 700 L47 528 C46 521 49 517 57 517 L94 517 C101 517 106 521 107 528 L135 699 L135 699 Z " />
<glyph glyph-name="quoteright" unicode="&#x2019;" horiz-adv-x="177" d="M48 528 C47 521 51 517 58 517 L89 517 C98 517 102 520 103 527 L136 698 C137 706 133 710 126 710 L89 710 C82 710 77 706 76 698 L48 528 L48 528 Z " />
<glyph glyph-name="quotesinglbase" unicode="&#x201a;" horiz-adv-x="177" d="M43 -115 C42 -122 46 -126 53 -126 L84 -126 C91 -126 96 -123 98 -116 L130 56 C131 63 128 67 121 67 L84 67 C76 67 72 63 71 55 L43 -115 L43 -115 Z " />
<glyph glyph-name="quotedblleft" unicode="&#x201c;" horiz-adv-x="362" d="M130 699 C131 706 127 710 120 710 L89 710 C81 710 76 707 75 700 L43 528 C42 521 45 517 52 517 L90 517 C97 517 102 521 103 528 L130 699 L130 699 Z M315 699 C316 706 312 710 305 710 L274 710 C265 710 261 707 260 700 L227 528 C226 521 229 517 237 517 L274 517 C281 517 286 521 287 529 L315 699 L315 699 Z " />
<glyph glyph-name="quotedblright" unicode="&#x201d;" horiz-adv-x="363" d="M228 528 C227 521 231 517 238 517 L269 517 C278 517 282 520 283 527 L316 698 C317 706 313 710 306 710 L269 710 C262 710 257 706 256 698 L228 528 L228 528 Z M44 528 C43 521 47 517 54 517 L85 517 C92 517 97 520 99 527 L131 698 C132 706 129 710 122 710 L85 710 C78 710 73 706 72 698 L44 528 L44 528 Z " />
<glyph glyph-name="quotedblbase" unicode="&#x201e;" horiz-adv-x="362" d="M227 -115 C226 -122 230 -126 237 -126 L268 -126 C277 -126 281 -123 282 -116 L315 56 C316 63 313 67 305 67 L268 67 C260 67 256 63 255 55 L227 -115 L227 -115 Z M43 -115 C42 -122 46 -126 53 -126 L84 -126 C91 -126 96 -123 98 -116 L130 55 C131 63 128 67 121 67 L84 67 C77 67 72 63 71 55 L43 -115 L43 -115 Z " />
<glyph glyph-name="dagger" unicode="&#x2020;" horiz-adv-x="374" d="M39 460 C32 460 28 456 28 449 L28 416 C28 408 32 404 39 404 L159 404 L159 -173 C159 -180 163 -184 170 -184 L203 -184 C211 -184 215 -180 215 -173 L215 404 L335 404 C342 404 346 408 346 416 L346 449 C346 456 342 460 335 460 L215 460 L215 709 C215 716 211 720 203 720 L170 720 C163 720 159 716 159 709 L159 460 L39 460 Z " />
<glyph glyph-name="daggerdbl" unicode="&#x2021;" horiz-adv-x="512" d="M39 159 C32 159 28 155 28 147 L28 114 C28 107 32 103 39 103 L225 103 L225 -173 C225 -180 229 -184 236 -184 L269 -184 C277 -184 281 -180 281 -173 L281 103 L474 103 C481 103 484 107 484 114 L484 147 C484 155 481 159 474 159 L281 159 L281 377 L474 377 C481 377 484 381 484 388 L484 422 C484 429 481 433 474 433 L281 433 L281 709 C281 716 277 720 269 720 L236 720 C229 720 225 716 225 709 L225 433 L39 433 C32 433 28 429 28 422 L28 388 C28 381 32 377 39 377 L225 377 L225 159 L39 159 Z " />
<glyph glyph-name="bullet" unicode="&#x2022;" horiz-adv-x="175" d="M37 280 C37 252 59 230 88 230 C117 230 138 252 138 280 C138 308 117 330 88 330 C59 330 37 308 37 280 L37 280 Z " />
<glyph glyph-name="ellipsis" unicode="&#x2026;" horiz-adv-x="830" d="M39 34 C39 9 58 -10 83 -10 C108 -10 127 9 127 34 C127 59 108 78 83 78 C58 78 39 59 39 34 L39 34 Z M368 34 C368 9 387 -10 412 -10 C437 -10 456 9 456 34 C456 59 437 78 412 78 C387 78 368 59 368 34 L368 34 Z M703 34 C703 9 722 -10 747 -10 C772 -10 791 9 791 34 C791 59 772 78 747 78 C722 78 703 59 703 34 L703 34 Z " />
<glyph glyph-name="perthousand" unicode="&#x2030;" horiz-adv-x="1112" d="M39 562 C39 481 106 415 187 415 C268 415 334 481 334 562 C334 643 268 710 187 710 C106 710 39 643 39 562 L39 562 Z M86 562 C86 619 128 664 185 664 C242 664 287 619 287 562 C287 503 242 463 185 463 C128 463 86 503 86 562 L86 562 Z M433 138 C433 57 500 -10 581 -10 C662 -10 729 57 729 138 C729 219 662 286 581 286 C500 286 433 219 433 138 L433 138 Z M480 137 C480 194 522 239 579 239 C638 239 682 194 682 137 C682 80 638 38 579 38 C522 38 480 80 480 137 L480 137 Z M778 138 C778 57 844 -10 925 -10 C1006 -10 1073 57 1073 138 C1073 219 1006 286 925 286 C844 286 778 219 778 138 L778 138 Z M825 137 C825 194 867 239 924 239 C981 239 1026 194 1026 137 C1026 80 981 38 924 38 C867 38 825 80 825 137 L825 137 Z M166 11 C162 4 165 0 175 0 L205 0 C212 0 217 4 220 11 L609 689 C613 696 610 700 600 700 L570 700 C564 700 559 696 555 689 L166 11 L166 11 Z " />
<glyph glyph-name="guilsinglleft" unicode="&#x2039;" horiz-adv-x="277" d="M228 442 C231 449 228 453 219 453 L181 453 C174 453 169 449 165 442 L31 239 C27 232 28 228 29 224 L32 218 L166 15 C170 8 175 4 182 4 L220 4 C231 4 234 8 229 15 L89 229 L228 442 Z " />
<glyph glyph-name="guilsinglright" unicode="&#x203a;" horiz-adv-x="277" d="M48 15 C43 8 46 4 57 4 L95 4 C102 4 107 8 111 15 L245 218 L248 224 C249 229 249 234 246 239 L112 442 C108 449 103 453 96 453 L59 453 C48 453 45 449 49 442 L189 229 L48 15 L48 15 Z " />
<glyph glyph-name="fraction" unicode="&#x2044;" horiz-adv-x="535" d="M46 11 C42 4 45 0 55 0 L85 0 C92 0 97 4 100 11 L489 689 C493 696 490 700 480 700 L450 700 C444 700 439 696 435 689 L46 11 L46 11 Z " />
<glyph glyph-name="franc" unicode="&#x20a3;" horiz-adv-x="567" d="M301 137 C308 137 311 141 311 148 L311 168 C311 175 308 179 301 179 L164 179 L164 315 L496 315 C503 315 506 319 506 326 L506 364 C506 371 503 375 496 375 L164 375 L164 638 L543 638 C550 638 553 642 553 650 L553 689 C553 696 550 700 543 700 L122 700 C107 700 101 690 101 679 L101 179 L48 179 C41 179 37 175 37 168 L37 148 C37 141 41 137 48 137 L101 137 L101 11 C101 4 105 0 113 0 L152 0 C160 0 164 4 164 11 L164 137 L301 137 Z " />
<glyph glyph-name="lira" unicode="&#x20a4;" horiz-adv-x="511" d="M26 346 C19 344 17 339 19 332 L27 312 C29 307 33 304 37 304 C39 304 40 305 42 305 L103 327 L103 15 C103 6 105 0 116 0 L129 0 C327 0 490 156 498 353 C499 360 495 364 487 364 L456 364 C449 364 445 360 445 353 C442 199 319 63 156 58 L156 346 L342 412 C349 415 352 419 349 426 L342 446 C340 452 338 455 333 455 C332 455 330 454 329 454 L156 392 L156 466 L342 531 C349 534 351 539 349 546 L342 565 C340 571 338 574 333 574 C332 574 330 573 329 573 L156 511 L156 689 C156 696 152 700 145 700 L114 700 C107 700 103 696 103 689 L103 492 L26 465 C19 463 16 458 19 451 L27 431 C28 425 31 423 35 423 C37 423 39 423 41 424 L103 446 L103 373 L26 346 L26 346 Z " />
<glyph glyph-name="Euro" unicode="&#x20ac;" horiz-adv-x="536" d="M504 75 C502 79 499 81 496 81 C493 81 490 80 486 78 C451 59 414 44 363 44 C214 44 150 144 131 268 L454 268 C463 268 464 272 464 279 L464 298 C464 306 461 310 454 310 L126 310 C123 339 123 367 126 394 L454 394 C461 394 464 398 464 405 L464 424 C464 432 461 436 454 436 L132 436 C151 559 224 656 363 656 C407 656 453 642 486 623 C489 621 492 620 494 620 C498 620 501 623 503 627 L517 656 C521 663 519 668 510 672 C469 695 416 710 363 710 C204 710 106 613 75 437 L11 436 C4 436 0 432 0 424 L0 405 C0 398 4 394 11 394 L70 394 C69 359 69 345 70 310 L11 310 C4 310 0 306 0 298 L0 279 C0 272 4 268 11 268 L75 268 C99 105 189 -10 363 -10 C419 -10 471 5 511 28 C520 33 523 40 519 47 L504 75 L504 75 Z " />
<glyph glyph-name="uni2113" unicode="&#x2113;" horiz-adv-x="334" d="M33 275 C36 271 40 269 43 269 C46 269 48 270 51 273 L94 320 L94 174 C94 75 117 -11 210 -11 C250 -11 287 5 314 28 C321 35 320 39 317 47 L309 68 C307 72 305 74 302 74 C299 74 296 73 293 70 C271 51 246 39 217 39 C155 39 148 108 148 183 L148 367 C218 448 294 521 302 623 C307 690 266 734 205 734 C125 734 94 654 94 562 L94 382 L24 306 C17 299 17 293 22 287 L33 275 L33 275 Z M257 613 C249 545 194 483 148 432 L148 544 C148 611 151 686 210 686 C250 686 262 654 257 613 L257 613 Z " />
<glyph glyph-name="trademark" unicode="&#x2122;" horiz-adv-x="890" d="M213 285 C220 285 223 288 223 295 L223 655 L359 655 C366 655 369 658 369 665 L369 691 C369 698 366 701 359 701 L43 701 C37 701 34 698 34 691 L34 665 C34 658 37 655 43 655 L177 655 L177 295 C177 288 180 285 187 285 L213 285 L213 285 Z M604 341 C607 341 610 343 612 348 L743 598 L743 295 C743 288 746 285 753 285 L779 285 C786 285 789 288 789 295 L789 690 C789 697 786 700 779 700 L753 700 C746 700 742 697 740 692 L595 408 L450 692 C447 696 445 700 436 700 L411 700 C404 700 401 697 401 690 L401 295 C401 288 404 285 411 285 L437 285 C444 285 447 288 447 295 L447 598 L579 348 C581 343 584 341 587 341 L604 341 L604 341 Z " />
<glyph glyph-name="Omega" unicode="&#x2126;" horiz-adv-x="799" d="M314 60 C175 127 95 226 98 373 C101 538 222 676 399 676 C575 676 703 536 700 372 C697 224 621 128 480 60 L480 0 L717 0 C724 0 728 4 728 11 L728 42 C728 49 724 53 717 53 L534 53 C675 120 753 237 754 378 C754 562 608 729 399 729 C189 729 44 562 44 378 C44 229 125 118 261 53 L79 53 C72 53 68 50 68 43 L68 11 C68 4 72 0 79 0 L314 0 L314 60 Z " />
<glyph glyph-name="estimated" unicode="&#x212e;" horiz-adv-x="587" d="M532 252 C537 252 548 256 548 268 C551 401 452 547 293 547 C145 547 39 424 39 275 C39 135 153 5 293 5 C382 5 460 46 505 117 C510 126 509 132 502 136 L483 145 C481 147 479 147 477 147 C472 147 467 144 464 139 C425 83 368 51 293 51 C238 51 183 78 152 118 L152 252 L532 252 Z M152 442 C189 482 237 501 293 501 C348 501 399 481 434 442 L434 297 L152 297 L152 442 Z " />
<glyph glyph-name="partialdiff" unicode="&#x2202;" horiz-adv-x="558" d="M326 710 C282 710 232 698 201 683 C194 680 192 674 195 667 L206 641 C208 636 211 633 215 633 C217 633 220 634 222 635 C249 646 288 656 319 656 C470 656 488 544 464 391 C432 455 357 493 287 493 C146 493 50 361 40 212 C29 64 112 -10 219 -10 C370 -10 454 142 491 285 C550 505 548 710 326 710 L326 710 Z M220 45 C126 45 88 120 93 213 C97 319 171 438 287 438 C362 438 427 394 446 319 C417 184 339 45 220 45 L220 45 Z " />
<glyph glyph-name="Delta" unicode="&#x2206;" horiz-adv-x="621" d="M309 680 L312 680 L534 56 L90 56 L309 680 Z M24 11 C24 4 28 0 35 0 L585 0 C593 0 597 4 597 11 L597 28 L354 735 C349 745 343 750 336 750 L286 750 C275 750 271 744 267 735 L24 28 L24 11 L24 11 Z " />
<glyph glyph-name="product" unicode="&#x220f;" horiz-adv-x="720" d="M112 700 C105 700 101 696 101 689 L101 -117 C101 -124 105 -128 112 -128 L146 -128 C153 -128 157 -124 157 -117 L157 644 L563 644 L563 -117 C563 -124 567 -128 575 -128 L608 -128 C615 -128 619 -124 619 -117 L619 689 C619 696 615 700 608 700 L112 700 L112 700 Z " />
<glyph glyph-name="summation" unicode="&#x2211;" horiz-adv-x="684" d="M47 -215 C47 -222 51 -230 62 -230 L623 -230 C632 -230 637 -226 637 -218 L637 -185 C637 -177 632 -173 623 -173 L134 -173 L460 214 C475 230 474 242 463 254 L186 582 C168 604 151 624 134 643 L623 643 C632 643 637 647 637 655 L637 688 C637 696 632 700 623 700 L62 700 C59 700 47 700 47 685 L47 668 C47 660 50 653 55 647 L402 234 L55 -177 C48 -184 47 -192 47 -197 L47 -215 L47 -215 Z " />
<glyph glyph-name="minus" unicode="&#x2212;" horiz-adv-x="589" d="M91 303 C84 303 80 299 80 292 L80 253 C80 245 84 241 91 241 L498 241 C505 241 509 245 509 253 L509 292 C509 299 505 303 498 303 L91 303 L91 303 Z " />
<glyph glyph-name="uni2215" unicode="&#x2215;" horiz-adv-x="535" d="M46 11 C42 4 45 0 55 0 L85 0 C92 0 97 4 100 11 L489 689 C493 696 490 700 480 700 L450 700 C444 700 439 696 435 689 L46 11 L46 11 Z " />
<glyph glyph-name="uni2219" unicode="&#x2219;" horiz-adv-x="162" d="M39 327 C39 304 57 286 81 286 C105 286 123 304 123 327 C123 351 105 370 81 370 C57 370 39 351 39 327 L39 327 Z " />
<glyph glyph-name="radical" unicode="&#x221a;" horiz-adv-x="479" d="M271 -12 C279 -12 281 -7 282 0 C325 198 401 515 444 713 C447 721 443 728 434 728 L402 728 C391 728 389 721 386 713 L245 91 L130 389 C128 396 122 400 116 400 C114 400 111 399 109 398 L24 347 C17 343 15 337 18 329 L32 302 C35 297 39 294 42 294 C45 294 48 296 51 298 L91 322 L155 161 C174 114 195 60 218 -1 C221 -8 225 -12 231 -12 L271 -12 L271 -12 Z " />
<glyph glyph-name="infinity" unicode="&#x221e;" horiz-adv-x="745" d="M654 293 C654 218 610 171 534 171 C478 171 409 210 404 293 C409 353 458 411 534 411 C611 411 654 355 654 293 L654 293 Z M341 294 C341 227 282 171 212 171 C135 171 91 225 91 292 C91 348 127 411 214 411 C274 411 336 371 341 294 L341 294 Z M369 359 C346 416 292 462 209 462 C109 462 39 389 39 293 C39 189 112 120 211 120 C279 120 343 164 377 225 C401 167 467 120 539 120 C640 120 706 194 706 293 C706 393 628 462 536 462 C445 462 393 398 369 359 L369 359 Z " />
<glyph glyph-name="integral" unicode="&#x222b;" horiz-adv-x="265" d="M91 -107 C91 -148 75 -169 45 -169 C32 -169 16 -165 -2 -157 C-4 -156 -6 -156 -8 -156 C-12 -156 -15 -158 -17 -163 L-23 -178 C-25 -184 -23 -189 -16 -193 C11 -207 35 -213 57 -213 C111 -213 146 -172 146 -105 L146 621 C146 662 162 683 192 683 C205 683 221 679 239 671 C241 670 243 670 245 670 C249 670 252 672 254 677 L260 692 C262 698 260 703 253 707 C226 721 202 727 180 727 C126 727 91 686 91 619 L91 -107 L91 -107 Z " />
<glyph glyph-name="approxequal" unicode="&#x2248;" horiz-adv-x="515" d="M70 220 C95 260 120 285 167 285 C226 285 312 217 376 217 C428 217 455 262 484 296 C489 301 488 306 482 311 L462 326 C459 328 457 328 455 328 C452 328 449 327 446 324 C427 303 410 270 377 270 C319 270 231 335 167 338 C104 338 62 297 30 247 C26 240 27 235 34 232 L54 217 C56 216 59 215 61 215 C65 215 68 216 70 220 L70 220 Z M70 417 C95 457 120 482 167 482 C226 482 312 414 376 414 C428 414 455 459 484 493 C489 498 488 503 482 508 L462 523 C459 525 457 525 455 525 C452 525 449 524 446 521 C427 500 410 467 377 467 C319 467 231 532 167 535 C104 535 62 494 30 444 C26 437 27 432 34 429 L54 414 C56 413 59 412 61 412 C65 412 68 413 70 417 L70 417 Z " />
<glyph glyph-name="notequal" unicode="&#x2260;" horiz-adv-x="554" d="M498 173 C505 173 508 177 508 184 L508 214 C508 222 505 226 498 226 L271 226 L339 377 L498 377 C505 377 508 381 508 389 L508 419 C508 427 505 431 498 431 L364 431 L426 566 C429 573 427 577 418 577 L384 577 C377 577 372 573 369 566 L307 431 L57 431 C50 431 46 427 46 420 L46 389 C46 381 50 377 57 377 L283 377 L215 226 L57 226 C50 226 46 222 46 215 L46 184 C46 177 50 173 57 173 L191 173 L129 38 C126 31 128 27 137 27 L171 27 C177 27 182 31 186 38 L247 173 L498 173 Z " />
<glyph glyph-name="lessequal" unicode="&#x2264;" horiz-adv-x="467" d="M57 53 C50 53 46 49 46 42 L46 11 C46 4 50 0 57 0 L394 0 C401 0 405 4 405 11 L405 42 C405 49 401 53 394 53 L57 53 L57 53 Z M395 559 C402 562 405 566 405 573 L405 609 C405 616 403 620 399 620 C398 620 396 619 395 619 L56 468 C49 464 46 459 46 454 L46 415 C46 408 49 404 56 401 L395 250 C396 249 398 249 399 249 C403 249 405 254 405 260 L405 294 C405 301 402 306 395 309 L113 434 L395 559 L395 559 Z " />
<glyph glyph-name="greaterequal" unicode="&#x2265;" horiz-adv-x="467" d="M73 53 C66 53 62 49 62 42 L62 11 C62 4 66 0 73 0 L410 0 C417 0 421 4 421 11 L421 42 C421 49 417 53 410 53 L73 53 L73 53 Z M72 309 C65 306 62 301 62 294 L62 260 C62 254 64 249 68 249 C69 249 71 249 72 250 L411 401 C418 404 421 408 421 415 L421 454 C421 459 417 464 410 468 L72 619 C71 619 69 620 68 620 C64 620 62 616 62 609 L62 573 C62 566 65 562 72 559 L354 434 L72 309 Z " />
<glyph glyph-name="lozenge" unicode="&#x25ca;" horiz-adv-x="454" d="M225 639 L228 639 L372 350 L228 60 L225 60 L82 350 L225 639 Z M184 11 C187 4 190 0 198 0 L254 0 C263 0 265 3 269 11 L424 329 C432 345 432 355 424 371 L269 689 C265 697 263 700 254 700 L198 700 C191 700 187 696 184 689 L31 371 C23 355 22 345 30 329 L184 11 L184 11 Z " />
</font>
</svg>
