<?xml version="1.0" encoding="UTF-8"?>
<svg xmlns="http://www.w3.org/2000/svg" xmlns:xlink="http://www.w3.org/1999/xlink" version="1.2" >
<font id="Crossten SemiBold">
<font-face  font-family="Crossten" units-per-em="1000" ascent="750" descent="-250" font-style="normal" font-weight="600" font-stretch="normal" cap-height="700" x-height="500" underline-position="-75" underline-thickness="50" />
<missing-glyph  horiz-adv-x="320" d="" />
<glyph glyph-name="NULL" d="" />
<glyph glyph-name="&amp;#x0;" horiz-adv-x="320" d="" />
<glyph glyph-name="&amp;#xd;" unicode="&#xd;" horiz-adv-x="320" d="" />
<glyph glyph-name="space" unicode="&#x20;" horiz-adv-x="280" d="" />
<glyph glyph-name="exclam" unicode="&#x21;" horiz-adv-x="268" d="M177 207 C188 207 193 212 193 223 L200 684 C200 695 195 700 184 700 L85 700 C74 700 68 695 68 684 L76 223 C76 211 80 207 92 207 L177 207 L177 207 Z M58 65 C58 44 65 26 80 12 C94 -3 112 -10 133 -10 C176 -10 210 22 210 65 C210 109 177 142 133 142 C90 142 58 108 58 65 L58 65 Z " />
<glyph glyph-name="quotedbl" unicode="&#x22;" horiz-adv-x="388" d="M144 468 C154 468 160 475 160 485 L168 680 C168 691 162 696 151 696 L74 696 C63 696 58 691 58 680 L66 485 C66 474 70 468 82 468 L144 468 L144 468 Z M306 468 C317 468 323 474 323 485 L330 680 C330 691 325 696 314 696 L237 696 C226 696 221 691 221 680 L229 485 C229 474 233 468 245 468 L306 468 L306 468 Z " />
<glyph glyph-name="numbersign" unicode="&#x23;" horiz-adv-x="627" d="M176 0 C187 0 193 6 194 17 L219 195 L360 195 L335 17 C334 6 339 0 350 0 L417 0 C426 0 432 6 433 17 L458 195 L555 195 C566 195 572 201 572 212 L572 278 C572 289 566 295 555 295 L472 295 L486 404 L582 404 C593 404 599 409 599 420 L599 487 C599 498 593 504 582 504 L500 504 L526 678 C527 683 526 688 523 691 C520 694 516 695 511 695 L446 695 C437 695 431 689 429 678 L404 504 L261 504 L284 678 C286 689 281 695 270 695 L205 695 C196 695 190 686 188 678 L163 504 L72 504 C61 504 55 498 55 487 L55 420 C55 409 61 404 72 404 L149 404 L134 295 L45 295 C34 295 28 289 28 278 L28 212 C28 201 34 195 45 195 L119 195 L94 17 C93 12 94 8 97 5 C100 2 104 0 109 0 L176 0 L176 0 Z M374 295 L232 295 L247 404 L390 404 L374 295 Z " />
<glyph glyph-name="dollar" unicode="&#x24;" horiz-adv-x="540" d="M180 515 C180 564 231 584 273 584 C314 584 360 569 394 545 C398 543 402 542 406 542 C411 542 415 544 419 549 L472 630 C477 641 476 649 467 654 C423 681 375 697 324 707 L324 793 C324 804 319 809 308 809 L241 809 C230 809 225 804 225 793 L225 703 C129 684 48 620 48 515 C48 411 116 352 210 318 C237 307 263 297 287 286 C326 268 371 245 371 196 C371 138 316 116 266 116 C214 116 151 143 111 175 C106 178 103 179 97 179 C92 178 89 175 86 171 L36 95 C33 90 32 85 34 82 C35 79 38 75 41 72 C98 31 154 1 225 -7 L225 -93 C225 -104 230 -109 241 -109 L308 -109 C319 -109 324 -104 324 -93 L324 -3 C424 12 503 93 503 198 C503 306 438 362 342 401 C314 412 288 422 264 432 C228 447 180 469 180 515 L180 515 Z " />
<glyph glyph-name="percent" unicode="&#x25;" horiz-adv-x="1069" d="M609 206 C609 87 704 -10 825 -10 C944 -10 1042 85 1042 206 C1042 326 946 423 825 423 C706 423 609 327 609 206 L609 206 Z M713 205 C713 266 763 318 825 318 C887 318 938 268 938 205 C938 144 886 94 825 94 C765 94 713 144 713 205 L713 205 Z M291 16 C288 11 287 7 290 4 C293 1 297 0 302 0 L374 0 C385 0 390 8 395 16 L780 684 C783 689 784 693 781 696 C778 699 774 700 769 700 L697 700 C686 700 681 693 676 684 L291 16 L291 16 Z M27 496 C27 377 122 280 243 280 C362 280 460 375 460 496 C460 616 364 712 243 712 C124 712 27 617 27 496 L27 496 Z M131 495 C131 556 180 608 242 608 C304 608 355 558 355 495 C355 434 303 384 242 384 C182 384 131 435 131 495 L131 495 Z " />
<glyph glyph-name="ampersand" unicode="&#x26;" horiz-adv-x="710" d="M318 444 C303 461 291 477 282 493 C273 508 269 523 270 536 C272 571 298 593 332 593 C345 593 357 590 367 585 C377 579 387 571 396 561 C399 558 403 556 407 556 C410 556 414 557 417 560 L478 610 C487 615 488 623 481 632 C441 681 386 710 322 710 C238 710 164 652 149 568 C144 540 147 511 158 482 C168 453 184 424 206 396 C121 346 36 288 36 177 C36 68 124 -10 232 -10 C257 -10 280 -8 302 -3 C374 18 423 49 484 93 L585 -18 C591 -23 596 -26 602 -26 C608 -26 614 -24 620 -19 L668 27 C679 38 679 49 669 59 L571 166 L648 236 C657 245 657 255 647 266 L596 324 C592 328 588 330 583 331 C578 332 572 330 567 325 L555 315 C547 308 538 300 528 291 C518 282 509 274 501 267 L488 256 L318 444 L318 444 Z M246 115 C204 115 166 145 166 189 C166 237 195 260 234 283 C249 292 265 302 284 313 L398 186 C355 147 306 115 246 115 L246 115 Z " />
<glyph glyph-name="quotesingle" unicode="&#x27;" horiz-adv-x="226" d="M143 468 C148 468 153 470 156 474 C159 477 160 482 160 487 L168 678 C168 690 162 696 151 696 L75 696 C63 696 58 689 58 678 L66 487 C66 482 67 477 69 474 C71 470 76 468 83 468 L143 468 L143 468 Z " />
<glyph glyph-name="parenleft" unicode="&#x28;" horiz-adv-x="378" d="M254 780 C134 653 40 498 38 318 C37 241 54 164 89 89 C124 13 176 -61 245 -133 C250 -137 254 -139 257 -140 C260 -141 264 -139 269 -136 L326 -93 C335 -86 335 -79 328 -70 C268 -1 223 65 193 129 C163 193 148 257 149 321 C151 475 243 610 340 722 C347 730 346 737 337 744 L279 785 C275 788 271 790 266 790 C262 789 258 785 254 780 L254 780 Z " />
<glyph glyph-name="parenright" unicode="&#x29;" horiz-adv-x="378" d="M124 780 C120 785 116 789 113 790 C107 790 104 789 99 785 L42 744 C32 737 31 730 38 722 C136 608 227 476 229 321 C230 257 215 193 185 129 C155 65 110 -1 50 -70 C43 -79 43 -86 52 -93 L109 -136 C114 -139 119 -141 122 -140 C125 -139 129 -137 133 -133 C202 -61 254 13 289 89 C324 164 341 241 340 318 C338 498 244 653 124 780 L124 780 Z " />
<glyph glyph-name="asterisk" unicode="&#x2a;" horiz-adv-x="384" d="M68 445 C59 436 60 429 69 422 L117 386 C121 383 124 382 128 382 C133 382 137 385 141 391 L192 472 L243 389 C246 383 250 380 255 380 C258 380 261 382 265 384 L311 417 C321 422 322 430 313 440 L250 517 L341 537 C352 540 357 547 354 558 L341 611 C339 618 335 622 330 622 C327 622 324 621 321 620 L234 597 L239 681 C240 686 239 691 238 694 C236 697 231 698 224 698 L163 698 C156 698 152 697 150 694 C148 691 147 687 148 681 L151 597 L65 624 C62 625 59 625 57 625 C50 625 46 622 44 615 L29 558 C26 546 30 539 42 538 L131 520 L68 445 Z " />
<glyph glyph-name="plus" unicode="&#x2b;" horiz-adv-x="523" d="M469 233 C480 233 485 238 485 249 L485 329 C485 340 480 345 469 345 L319 345 L319 495 C319 506 314 511 303 511 L222 511 C211 511 206 506 206 495 L206 345 L54 345 C43 345 38 340 38 329 L38 249 C38 238 43 233 54 233 L206 233 L206 80 C206 70 211 65 222 65 L303 65 C314 65 319 70 319 80 L319 233 L469 233 Z " />
<glyph glyph-name="comma" unicode="&#x2c;" horiz-adv-x="238" d="M35 -153 C34 -156 35 -159 38 -162 C40 -165 43 -166 47 -166 L126 -166 C136 -166 142 -162 144 -153 L200 127 C201 135 198 139 190 139 L94 139 C85 139 80 135 79 126 L35 -153 L35 -153 Z " />
<glyph glyph-name="hyphen" unicode="&#x2d;" horiz-adv-x="425" d="M76 342 C65 342 60 337 60 326 L60 229 C60 218 65 213 76 213 L349 213 C360 213 365 218 365 229 L365 326 C365 337 360 342 349 342 L76 342 L76 342 Z " />
<glyph glyph-name="period" unicode="&#x2e;" horiz-adv-x="207" d="M27 65 C27 44 34 26 49 12 C63 -3 81 -10 102 -10 C144 -10 180 22 180 65 C180 108 145 143 102 143 C59 143 27 107 27 65 L27 65 Z " />
<glyph glyph-name="slash" unicode="&#x2f;" horiz-adv-x="560" d="M35 16 C32 11 31 7 34 4 C37 1 41 0 46 0 L118 0 C129 0 134 8 139 16 L524 684 C527 689 528 693 525 696 C522 699 518 700 513 700 L441 700 C430 700 425 693 420 684 L35 16 L35 16 Z " />
<glyph glyph-name="zero" unicode="0" horiz-adv-x="570" d="M38 349 C38 192 93 -10 285 -10 C475 -10 532 189 532 349 C532 506 477 710 285 710 C94 710 38 509 38 349 L38 349 Z M170 349 C170 427 183 582 285 582 C390 582 400 424 400 349 C400 271 388 118 285 118 C182 118 170 274 170 349 L170 349 Z " />
<glyph glyph-name="one" unicode="1" horiz-adv-x="323" d="M13 663 C3 662 -1 657 0 646 L13 544 C14 539 16 536 18 535 C19 534 21 533 23 533 C25 533 27 533 29 534 L118 555 L118 16 C118 5 123 0 134 0 L234 0 C245 0 250 5 250 16 L250 684 C250 695 245 700 234 700 L216 700 L13 663 L13 663 Z " />
<glyph glyph-name="two" unicode="2" horiz-adv-x="500" d="M80 544 C83 539 87 535 92 534 C93 533 94 533 95 533 C98 533 102 535 107 539 C144 568 182 582 219 582 C236 582 250 579 262 574 C286 562 301 544 310 519 C313 507 315 495 315 483 C315 460 309 436 298 413 C286 389 268 361 245 329 C222 297 192 259 156 215 C120 171 78 117 29 53 C25 48 23 42 23 33 L23 16 C23 5 28 0 39 0 L446 0 C457 0 462 5 462 16 L462 114 C462 124 457 129 446 129 L238 129 C278 179 311 222 338 257 C393 328 446 409 446 502 C446 628 361 710 232 710 C158 710 97 686 38 643 C28 636 26 628 31 619 L80 544 L80 544 Z " />
<glyph glyph-name="three" unicode="3" horiz-adv-x="470" d="M179 305 C241 305 311 285 311 211 C311 149 261 118 203 118 C162 118 123 134 91 160 C86 164 82 166 77 165 C72 165 68 162 64 155 L16 81 C9 72 11 64 22 57 C84 12 139 -10 216 -10 C340 -10 442 64 442 198 C442 279 392 337 318 364 C385 395 426 453 426 528 C426 638 333 710 226 710 C150 710 93 687 32 643 C23 636 21 628 26 619 L73 547 C76 544 79 541 83 538 C84 536 85 536 87 536 C91 536 95 538 100 541 C132 566 171 582 212 582 C236 582 256 575 272 561 C287 546 295 527 295 504 C295 442 231 422 179 422 C170 422 166 418 166 409 L166 317 C166 309 170 305 179 305 L179 305 Z " />
<glyph glyph-name="four" unicode="4" horiz-adv-x="520" d="M301 16 C301 5 306 0 317 0 L407 0 C418 0 423 5 423 16 L423 135 L481 135 C492 135 498 141 498 152 L498 236 C498 247 492 252 481 252 L423 252 L423 371 C423 382 418 387 407 387 L319 387 C308 387 303 382 303 371 L303 261 L156 261 L344 682 C349 694 345 700 332 700 L244 700 C233 700 225 694 220 682 L16 224 L16 152 C16 141 21 135 32 135 L301 135 L301 16 Z " />
<glyph glyph-name="five" unicode="5" horiz-adv-x="506" d="M82 292 C117 308 155 317 193 322 C206 323 219 324 232 324 C299 324 343 296 343 225 C343 197 334 172 315 151 C290 126 258 118 224 118 C181 118 134 131 99 156 C92 159 87 161 84 160 C81 159 77 156 73 151 L24 76 C17 67 19 59 30 52 C90 12 163 -10 235 -10 C376 -10 474 84 474 230 C474 344 420 443 291 443 C257 443 217 435 185 423 L185 576 L420 576 C431 576 437 582 437 593 L437 683 C437 694 431 700 420 700 L74 700 C63 700 58 694 58 683 L58 308 L82 292 L82 292 Z " />
<glyph glyph-name="six" unicode="6" horiz-adv-x="528" d="M164 401 C170 482 190 585 293 585 C332 585 370 572 407 546 C411 543 415 542 419 542 C425 542 429 545 433 552 L479 622 C482 627 483 632 482 635 C481 638 478 641 473 646 C415 687 353 710 282 710 C86 710 38 503 38 341 L38 311 C38 163 89 -10 269 -10 C403 -10 492 100 492 231 C492 342 437 448 310 448 C257 448 207 432 164 401 L164 401 Z M164 286 C193 313 229 332 270 332 C300 332 323 322 340 303 C356 283 364 257 364 225 C364 166 331 109 266 109 C185 109 164 204 164 268 L164 286 Z " />
<glyph glyph-name="seven" unicode="7" horiz-adv-x="486" d="M458 684 C458 695 453 700 442 700 L52 700 C41 700 36 695 36 684 L36 587 C36 576 41 571 52 571 L315 571 L70 17 C65 6 70 0 84 0 L182 0 C196 0 200 6 207 17 L458 588 L458 684 Z " />
<glyph glyph-name="eight" unicode="8" horiz-adv-x="514" d="M47 528 C47 463 89 404 148 378 C71 346 28 281 28 198 C28 69 131 -10 257 -10 C379 -10 486 67 486 198 C486 282 442 346 365 378 C425 405 467 462 467 528 C467 643 366 710 257 710 C151 710 47 645 47 528 L47 528 Z M164 508 C164 562 204 597 257 597 C311 597 350 563 350 508 C350 455 310 418 257 418 C206 418 164 456 164 508 L164 508 Z M153 209 C153 270 198 308 257 308 C316 308 362 270 362 209 C362 148 316 109 257 109 C197 109 153 148 153 209 L153 209 Z " />
<glyph glyph-name="nine" unicode="9" horiz-adv-x="528" d="M55 54 C111 14 177 -10 246 -10 C442 -10 490 197 490 359 L490 398 C490 546 436 710 258 710 C125 710 36 609 36 476 C36 393 67 305 147 268 C168 257 192 252 217 252 C270 252 321 268 364 299 C361 219 335 115 236 115 C196 115 154 129 122 154 C117 157 113 158 109 158 C104 158 99 155 95 148 L49 78 C44 70 46 62 55 54 L55 54 Z M364 411 C331 384 300 368 257 368 C226 368 203 378 188 399 C172 419 164 445 164 477 C164 536 198 591 262 591 C344 591 364 497 364 432 L364 411 Z " />
<glyph glyph-name="colon" unicode="&#x3a;" horiz-adv-x="207" d="M27 65 C27 44 34 26 49 12 C63 -3 81 -10 102 -10 C145 -10 180 21 180 65 C180 110 147 143 102 143 C58 143 27 108 27 65 L27 65 Z M27 433 C27 391 59 357 102 357 C145 357 180 390 180 433 C180 477 145 510 102 510 C59 510 27 476 27 433 L27 433 Z " />
<glyph glyph-name="semicolon" unicode="&#x3b;" horiz-adv-x="237" d="M24 -153 C23 -156 24 -159 27 -162 C29 -165 32 -166 36 -166 L114 -166 C124 -166 130 -162 132 -153 L188 127 C190 135 187 139 178 139 L83 139 C74 139 69 135 68 126 L24 -153 L24 -153 Z M57 433 C57 391 89 357 132 357 C175 357 210 390 210 433 C210 477 175 510 132 510 C89 510 57 476 57 433 L57 433 Z " />
<glyph glyph-name="less" unicode="&#x3c;" horiz-adv-x="515" d="M455 424 C460 426 464 428 467 431 C470 433 471 437 471 442 L471 519 C471 524 470 529 467 532 C465 533 463 534 461 534 C459 534 457 534 455 533 L46 372 C35 368 30 362 30 353 L30 239 C30 230 35 223 46 220 L456 57 C457 57 459 56 460 56 C463 56 465 57 467 60 C470 63 471 67 471 72 L471 148 C471 153 470 157 467 160 C464 162 460 164 455 166 L136 295 L455 424 Z " />
<glyph glyph-name="equal" unicode="&#x3d;" horiz-adv-x="598" d="M84 453 C73 453 68 448 68 437 L68 366 C68 355 73 350 84 350 L514 350 C525 350 530 355 530 366 L530 437 C530 448 525 453 514 453 L84 453 L84 453 Z M84 249 C73 249 68 244 68 233 L68 162 C68 151 73 145 84 145 L514 145 C525 145 530 151 530 162 L530 233 C530 244 525 249 514 249 L84 249 L84 249 Z " />
<glyph glyph-name="greater" unicode="&#x3e;" horiz-adv-x="515" d="M60 166 C55 164 51 162 48 160 C45 157 44 153 44 148 L44 72 C44 67 45 63 48 60 C50 57 52 56 55 56 C56 56 58 57 59 57 L469 220 C480 223 485 230 485 239 L485 353 C485 362 480 368 469 372 L60 533 C58 534 56 534 54 534 C52 534 50 533 48 532 C45 529 44 524 44 519 L44 442 C44 437 45 433 48 431 C51 428 55 426 60 424 L379 295 L60 166 L60 166 Z " />
<glyph glyph-name="question" unicode="&#x3f;" horiz-adv-x="449" d="M83 545 C87 540 91 537 96 537 C99 537 102 538 106 541 C135 563 171 582 208 582 C248 582 279 561 279 519 C279 491 263 473 243 455 C232 445 221 435 209 424 C162 380 139 318 139 254 L139 227 C139 222 140 217 142 213 C143 209 147 207 154 207 L250 207 C257 207 262 209 264 213 C266 216 267 221 267 227 L267 254 C267 313 299 354 339 394 C380 435 411 478 411 539 C411 650 324 710 217 710 C153 710 88 687 37 648 C28 641 27 633 32 625 L83 545 L83 545 Z M126 65 C126 44 133 26 148 12 C162 -3 180 -10 201 -10 C244 -10 278 22 278 65 C278 109 245 142 201 142 C158 142 126 108 126 65 L126 65 Z " />
<glyph glyph-name="at" unicode="&#x40;" horiz-adv-x="1008" d="M392 252 C392 278 403 306 420 325 C441 346 463 356 492 356 C507 356 520 353 532 348 C570 329 592 296 592 252 C592 196 550 150 492 150 C436 150 392 196 392 252 L392 252 Z M607 106 C618 28 694 -14 767 -18 C778 -18 790 -17 801 -16 C934 5 975 144 975 262 C975 521 761 725 501 725 C242 725 32 515 32 253 C32 -34 253 -218 538 -218 L908 -218 C920 -218 926 -212 926 -201 L926 -151 C926 -142 920 -137 908 -137 L538 -137 C468 -137 406 -126 353 -104 C205 -42 113 91 113 254 C113 468 284 644 501 644 C715 644 894 480 894 260 C894 191 875 93 799 69 C790 67 782 66 775 66 C731 66 703 101 703 144 L702 439 C702 440 701 443 700 447 C698 451 694 453 688 453 L607 453 C598 453 593 448 593 439 L593 392 C568 427 533 450 491 458 C480 459 471 460 462 460 C350 460 281 358 281 252 C281 148 350 45 463 45 C517 45 569 75 607 113 L607 106 L607 106 Z " />
<glyph glyph-name="A" unicode="A" horiz-adv-x="628" d="M129 0 C142 0 150 5 152 16 L194 151 L433 151 L475 17 C478 6 486 0 499 0 L603 0 C615 0 619 5 614 16 L400 684 C397 695 391 700 381 700 L247 700 C237 700 231 695 228 684 L14 16 C9 5 13 0 25 0 L129 0 L129 0 Z M224 274 L314 547 L404 274 L224 274 Z " />
<glyph glyph-name="B" unicode="B" horiz-adv-x="604" d="M350 0 C464 0 568 69 568 194 C568 281 523 348 438 371 C499 402 530 455 530 523 C530 639 435 700 325 700 L89 700 C78 700 73 695 73 684 L73 16 C73 5 78 0 89 0 L350 0 L350 0 Z M205 307 L314 307 C375 307 433 282 433 213 C433 148 377 121 319 121 L205 121 L205 307 Z M205 579 L296 579 C347 579 396 560 396 501 C396 448 354 423 305 423 L205 423 L205 579 Z " />
<glyph glyph-name="C" unicode="C" horiz-adv-x="640" d="M588 633 C593 642 591 650 581 657 C524 694 458 710 390 710 C187 710 32 555 32 349 C32 147 184 -10 390 -10 C427 -10 461 -5 493 5 C510 10 589 38 593 56 C594 60 592 64 589 69 L537 149 C534 154 530 157 526 158 C521 158 517 156 512 153 C477 129 432 118 390 118 C262 118 164 220 164 349 C164 476 258 582 390 582 C435 582 471 572 509 548 C513 546 517 545 520 545 C522 545 523 545 525 546 C530 547 533 550 536 554 L588 633 Z " />
<glyph glyph-name="D" unicode="D" horiz-adv-x="720" d="M336 0 C529 0 688 151 688 349 C688 545 536 700 336 700 L89 700 C78 700 73 695 73 684 L73 16 C73 5 78 0 89 0 L336 0 L336 0 Z M205 571 L331 571 C457 571 557 479 557 349 C557 225 456 129 331 129 L205 129 L205 571 Z " />
<glyph glyph-name="E" unicode="E" horiz-adv-x="550" d="M89 700 C78 700 73 695 73 684 L73 16 C73 5 78 0 89 0 L490 0 C501 0 506 5 506 16 L506 113 C506 124 501 129 490 129 L205 129 L205 287 L454 287 C465 287 470 293 470 304 L470 396 C470 407 465 413 454 413 L205 413 L205 571 L489 571 C500 571 505 576 505 587 L505 684 C505 695 500 700 489 700 L89 700 L89 700 Z " />
<glyph glyph-name="F" unicode="F" horiz-adv-x="549" d="M189 0 C200 0 205 5 205 16 L205 270 L478 270 C489 270 495 276 495 287 L495 379 C495 390 489 396 478 396 L205 396 L205 571 L521 571 C532 571 537 576 537 587 L537 684 C537 695 532 700 521 700 L89 700 C78 700 73 695 73 684 L73 16 C73 5 78 0 89 0 L189 0 Z " />
<glyph glyph-name="G" unicode="G" horiz-adv-x="693" d="M499 142 C465 124 428 118 390 118 C263 118 164 221 164 349 C164 476 258 582 390 582 C438 582 477 569 518 544 C523 541 527 539 531 539 C532 539 533 539 535 540 C539 541 543 544 546 549 L597 628 C604 637 602 645 590 652 C528 690 464 710 391 710 C186 710 32 558 32 349 C32 147 184 -10 390 -10 C467 -10 546 6 615 42 C624 47 628 54 628 63 L628 361 C628 372 623 377 612 377 L385 377 C374 377 369 372 369 361 L369 283 C369 272 374 267 385 267 L499 267 L499 142 L499 142 Z " />
<glyph glyph-name="H" unicode="H" horiz-adv-x="696" d="M189 0 C200 0 205 5 205 16 L205 288 L491 288 L491 16 C491 5 497 0 508 0 L607 0 C618 0 623 5 623 16 L623 684 C623 695 618 700 607 700 L508 700 C497 700 491 695 491 684 L491 420 L205 420 L205 684 C205 695 200 700 189 700 L89 700 C78 700 73 695 73 684 L73 16 C73 5 78 0 89 0 L189 0 L189 0 Z " />
<glyph glyph-name="I" unicode="I" horiz-adv-x="278" d="M189 0 C200 0 205 5 205 16 L205 684 C205 695 200 700 189 700 L89 700 C78 700 73 695 73 684 L73 16 C73 5 78 0 89 0 L189 0 L189 0 Z " />
<glyph glyph-name="J" unicode="J" horiz-adv-x="491" d="M418 684 C418 695 413 700 402 700 L303 700 C292 700 286 695 286 684 L286 228 C286 168 255 118 190 118 C156 118 126 129 97 146 C92 149 88 151 84 151 C80 151 77 149 74 144 L26 67 C23 62 22 57 23 54 C24 50 27 47 30 44 C79 8 140 -10 201 -10 C330 -10 418 84 418 215 L418 684 L418 684 Z " />
<glyph glyph-name="K" unicode="K" horiz-adv-x="668" d="M639 0 C645 0 649 2 651 5 C652 8 651 12 648 16 L383 410 L627 684 C631 688 633 692 632 695 C631 698 627 700 622 700 L493 700 C478 700 470 694 460 684 L205 406 L205 684 C205 695 200 700 189 700 L89 700 C78 700 73 695 73 684 L73 16 C73 5 78 0 89 0 L189 0 C200 0 205 5 205 16 L205 228 L287 316 L489 16 C493 11 497 7 502 4 C506 1 512 0 519 0 L639 0 Z " />
<glyph glyph-name="L" unicode="L" horiz-adv-x="499" d="M454 0 C465 0 470 5 470 16 L470 112 C470 123 465 128 454 128 L205 128 L205 684 C205 695 200 700 189 700 L89 700 C78 700 73 695 73 684 L73 16 C73 5 78 0 89 0 L454 0 L454 0 Z " />
<glyph glyph-name="M" unicode="M" horiz-adv-x="880" d="M469 94 C479 94 486 99 490 109 L676 491 L676 16 C676 5 681 0 692 0 L791 0 C802 0 807 5 807 16 L807 684 C807 695 802 700 791 700 L657 700 C646 700 638 695 633 685 L440 286 L247 685 C244 691 240 695 237 697 C233 699 229 700 224 700 L89 700 C78 700 73 695 73 684 L73 16 C73 5 78 0 89 0 L189 0 C200 0 205 5 205 16 L205 491 L390 109 C395 99 402 94 411 94 L469 94 L469 94 Z " />
<glyph glyph-name="N" unicode="N" horiz-adv-x="744" d="M655 0 C666 0 671 5 671 16 L671 684 C671 695 666 700 655 700 L555 700 C544 700 539 695 539 684 L539 229 L217 684 C214 689 210 693 207 696 C203 699 197 700 190 700 L89 700 C78 700 73 695 73 684 L73 16 C73 5 78 0 89 0 L189 0 C200 0 205 5 205 16 L205 471 L527 16 C530 11 534 7 538 4 C541 1 547 0 554 0 L655 0 Z " />
<glyph glyph-name="O" unicode="O" horiz-adv-x="782" d="M390 710 C189 710 32 553 32 349 C32 149 186 -10 390 -10 C590 -10 750 145 750 349 C750 551 596 710 390 710 L390 710 Z M390 118 C262 118 164 220 164 349 C164 476 258 582 390 582 C520 582 618 480 618 349 C618 222 520 118 390 118 L390 118 Z " />
<glyph glyph-name="P" unicode="P" horiz-adv-x="582" d="M189 0 C200 0 205 5 205 16 L205 233 L330 233 C458 233 558 341 558 468 C558 600 467 700 330 700 L89 700 C78 700 73 695 73 684 L73 16 C73 5 78 0 89 0 L189 0 L189 0 Z M205 580 L299 580 C372 580 425 546 425 468 C425 391 372 353 299 353 L205 353 L205 580 Z " />
<glyph glyph-name="Q" unicode="Q" horiz-adv-x="782" d="M589 -145 C592 -150 596 -153 601 -153 C605 -153 609 -151 613 -149 L698 -103 C705 -98 707 -91 702 -82 L616 70 C703 139 750 238 750 349 C750 551 596 710 390 710 C189 710 32 553 32 349 C32 149 186 -10 390 -10 C429 -10 465 -4 502 10 L589 -145 L589 -145 Z M390 118 C262 118 164 220 164 349 C164 476 258 582 390 582 C520 582 618 480 618 349 C618 223 519 118 390 118 L390 118 Z " />
<glyph glyph-name="R" unicode="R" horiz-adv-x="599" d="M301 580 C372 580 429 544 429 468 C429 392 372 356 301 356 L205 356 L205 580 L301 580 L301 580 Z M413 257 C501 284 561 378 561 468 C561 601 470 700 332 700 L89 700 C78 700 73 695 73 684 L73 16 C73 5 78 0 89 0 L189 0 C200 0 205 5 205 16 L205 236 L277 236 L423 16 C430 5 439 0 452 0 L562 0 C576 0 579 6 571 17 L413 257 L413 257 Z " />
<glyph glyph-name="S" unicode="S" horiz-adv-x="540" d="M472 630 C477 639 476 647 467 654 C406 692 351 710 279 710 C164 710 48 643 48 515 C48 410 114 348 210 314 C237 303 263 293 287 283 C325 265 371 245 371 196 C371 138 316 116 266 116 C215 116 150 143 111 175 C106 179 104 179 98 179 C93 178 89 175 86 171 L36 95 C33 90 32 85 34 82 C35 79 38 75 41 72 C106 22 182 -10 265 -10 C387 -10 503 63 503 198 C503 307 439 365 342 405 C314 415 288 425 264 435 C229 449 180 471 180 515 C180 564 231 584 273 584 C316 584 357 568 393 545 C397 543 400 541 404 541 C405 541 407 542 408 542 C413 543 416 546 419 549 L472 630 L472 630 Z " />
<glyph glyph-name="T" unicode="T" horiz-adv-x="578" d="M339 0 C350 0 355 5 355 16 L355 571 L540 571 C551 571 556 576 556 587 L556 684 C556 695 551 700 540 700 L38 700 C27 700 22 695 22 684 L22 587 C22 576 27 571 38 571 L223 571 L223 16 C223 5 228 0 239 0 L339 0 L339 0 Z " />
<glyph glyph-name="U" unicode="U" horiz-adv-x="693" d="M83 700 C72 700 67 695 67 684 L67 272 C67 108 175 -10 346 -10 C511 -10 626 103 626 272 L626 684 C626 695 621 700 610 700 L510 700 C499 700 494 695 494 684 L494 295 C494 197 454 118 346 118 C238 118 199 198 199 295 L199 684 C199 695 194 700 183 700 L83 700 L83 700 Z " />
<glyph glyph-name="V" unicode="V" horiz-adv-x="623" d="M375 0 C387 0 395 6 399 18 L612 683 C614 688 614 692 612 695 C610 698 606 700 601 700 L497 700 C484 700 476 694 474 683 L312 181 L150 683 C147 696 140 700 127 700 L23 700 C17 700 13 698 12 695 C11 692 11 688 12 683 L225 18 C229 6 237 0 249 0 L375 0 L375 0 Z " />
<glyph glyph-name="W" unicode="W" horiz-adv-x="941" d="M743 0 C756 0 760 5 764 17 L927 683 C930 694 927 700 916 700 L806 700 C793 700 788 696 785 683 L674 209 L547 688 C544 696 538 700 530 700 L412 700 C403 700 398 696 395 688 L268 209 L157 683 C154 696 149 700 136 700 L25 700 C14 700 11 694 14 683 L178 17 C181 6 188 0 199 0 L322 0 C335 0 342 6 345 17 L471 497 L597 17 C599 6 607 0 620 0 L743 0 L743 0 Z " />
<glyph glyph-name="X" unicode="X" horiz-adv-x="642" d="M183 687 C180 692 176 695 173 697 C169 699 163 700 156 700 L27 700 C22 700 19 698 18 695 C17 691 18 687 21 684 L244 354 L12 16 C9 12 8 8 10 5 C11 2 15 0 20 0 L147 0 C154 0 160 1 164 4 C168 6 172 10 175 15 L321 241 L460 15 C466 5 475 0 488 0 L622 0 C627 0 631 2 633 5 C634 8 633 11 630 16 L397 354 L620 684 C624 689 625 693 624 696 C623 699 619 700 614 700 L485 700 C478 700 472 699 469 697 C465 695 461 692 458 687 L321 469 L183 687 Z " />
<glyph glyph-name="Y" unicode="Y" horiz-adv-x="604" d="M156 690 C153 697 147 700 138 700 L22 700 C18 700 15 698 14 695 C13 691 13 687 16 684 L237 340 L237 16 C237 5 242 0 253 0 L352 0 C363 0 368 5 368 16 L368 340 L588 684 C591 687 591 691 590 695 C589 698 586 700 582 700 L467 700 C459 700 453 697 449 690 L302 454 L156 690 L156 690 Z " />
<glyph glyph-name="Z" unicode="Z" horiz-adv-x="602" d="M41 16 C41 5 46 0 57 0 L544 0 C555 0 561 5 561 16 L561 113 C561 124 555 129 544 129 L217 129 L545 579 C547 582 548 585 549 587 C550 589 550 593 550 600 L550 684 C550 695 545 700 534 700 L71 700 C60 700 55 695 55 684 L55 587 C55 576 60 571 71 571 L377 571 L55 129 C46 118 41 105 41 91 L41 16 L41 16 Z " />
<glyph glyph-name="bracketleft" unicode="&#x5b;" horiz-adv-x="321" d="M266 -130 C276 -130 281 -125 281 -114 L281 -40 C281 -29 276 -24 266 -24 L177 -24 L177 644 L266 644 C276 644 281 649 281 660 L281 734 C281 745 276 750 266 750 L89 750 C83 750 78 748 74 745 C70 741 68 736 68 729 L68 -109 C68 -116 70 -121 74 -125 C78 -128 83 -130 89 -130 L266 -130 L266 -130 Z " />
<glyph glyph-name="backslash" unicode="&#x5c;" horiz-adv-x="560" d="M139 684 C136 689 134 693 131 696 C128 699 123 700 118 700 L46 700 C41 700 37 699 34 696 C31 693 32 689 35 684 L420 16 C424 9 432 0 441 0 L513 0 C518 0 522 1 525 4 C528 7 527 11 524 16 L139 684 L139 684 Z " />
<glyph glyph-name="bracketright" unicode="&#x5d;" horiz-adv-x="321" d="M232 -130 C238 -130 243 -128 247 -125 C251 -121 253 -116 253 -109 L253 729 C253 743 246 750 232 750 L56 750 C45 750 40 745 40 734 L40 660 C40 649 45 644 56 644 L144 644 L144 -24 L56 -24 C45 -24 40 -29 40 -40 L40 -114 C40 -125 45 -130 56 -130 L232 -130 L232 -130 Z " />
<glyph glyph-name="asciicircum" unicode="&#x5e;" horiz-adv-x="555" d="M408 318 C412 307 418 302 426 302 L507 302 C512 302 517 303 520 306 C523 309 524 313 522 318 L348 684 C344 694 340 700 329 700 L227 700 C222 700 219 699 217 696 C215 693 213 689 210 684 L34 318 C31 313 32 309 35 306 C38 303 43 302 48 302 L130 302 C137 302 143 307 148 318 L278 592 L408 318 L408 318 Z " />
<glyph glyph-name="underscore" unicode="&#x5f;" horiz-adv-x="625" d="M76 -51 C65 -51 60 -56 60 -67 L60 -164 C60 -175 65 -180 76 -180 L550 -180 C560 -180 565 -175 565 -164 L565 -67 C565 -56 560 -51 550 -51 L76 -51 L76 -51 Z " />
<glyph glyph-name="grave" unicode="&#x60;" horiz-adv-x="248" d="M205 574 C210 576 213 579 214 583 C214 587 213 591 212 594 L143 744 C140 752 136 756 129 756 C127 756 125 756 123 755 L44 728 C33 724 31 717 37 708 L131 557 C134 552 138 549 143 549 C146 549 149 550 152 551 L205 574 L205 574 Z " />
<glyph glyph-name="a" unicode="a" horiz-adv-x="613" d="M158 250 C158 323 210 386 287 386 C363 386 417 326 417 250 C417 177 363 114 287 114 C213 114 158 177 158 250 L158 250 Z M529 0 C540 0 545 5 545 16 L545 484 C545 495 540 500 529 500 L431 500 C420 500 415 495 415 484 L415 424 C373 478 323 510 253 510 C112 510 27 383 27 250 C27 120 111 -10 253 -10 C320 -10 375 22 415 76 L415 16 C415 5 420 0 431 0 L529 0 L529 0 Z " />
<glyph glyph-name="b" unicode="b" horiz-adv-x="613" d="M455 250 C455 177 401 114 325 114 C251 114 196 177 196 250 C196 323 248 386 325 386 C401 386 455 326 455 250 L455 250 Z M182 0 C193 0 198 5 198 16 L198 76 C234 22 295 -10 360 -10 C501 -10 586 117 586 250 C586 381 504 510 360 510 C294 510 235 478 198 424 L198 734 C198 745 193 750 182 750 L84 750 C73 750 68 745 68 734 L68 16 C68 5 73 0 84 0 L182 0 L182 0 Z " />
<glyph glyph-name="c" unicode="c" horiz-adv-x="479" d="M385 132 C382 136 378 139 373 139 C371 139 367 138 364 136 C340 121 313 114 284 114 C251 114 213 129 192 154 C167 179 154 214 154 250 C154 324 207 386 284 386 C312 386 338 377 362 363 C366 361 369 359 372 359 C377 359 381 362 384 367 L438 441 C444 450 442 458 433 464 C386 494 340 510 284 510 C141 510 27 394 27 250 C27 108 139 -10 284 -10 C336 -10 389 5 433 34 C442 40 444 48 439 57 L385 132 L385 132 Z " />
<glyph glyph-name="d" unicode="d" horiz-adv-x="613" d="M158 250 C158 322 212 386 287 386 C325 386 353 374 380 347 C404 319 417 287 417 250 C417 177 363 114 287 114 C213 114 158 177 158 250 L158 250 Z M529 0 C540 0 545 5 545 16 L545 734 C545 745 540 750 529 750 L431 750 C420 750 415 745 415 734 L415 424 C378 479 319 510 253 510 C112 510 27 383 27 250 C27 120 111 -10 253 -10 C318 -10 379 22 415 76 L415 16 C415 5 420 0 431 0 L529 0 L529 0 Z " />
<glyph glyph-name="e" unicode="e" horiz-adv-x="546" d="M288 100 C221 100 163 142 150 209 L499 209 C511 209 518 214 518 227 C518 374 433 510 271 510 C128 510 27 390 27 250 C27 109 141 -10 284 -10 C352 -10 413 6 471 41 C475 44 477 47 478 51 C479 55 478 59 475 62 L431 124 C428 128 425 131 422 132 C421 132 420 133 419 133 C416 133 412 131 408 129 C367 110 333 100 288 100 L288 100 Z M153 305 C165 366 209 404 271 404 C338 404 378 370 392 305 L153 305 Z " />
<glyph glyph-name="f" unicode="f" horiz-adv-x="393" d="M401 696 C402 700 403 704 404 707 C405 710 402 713 397 716 C357 744 311 760 262 760 C162 760 103 697 103 598 L103 500 L46 500 C35 500 30 495 30 484 L30 397 C30 386 35 381 46 381 L103 381 L103 16 C103 5 108 0 119 0 L217 0 C228 0 233 5 233 16 L233 381 L329 381 C340 381 345 386 345 397 L345 484 C345 495 340 500 329 500 L233 500 L233 567 C233 604 247 636 289 636 C299 636 308 635 317 633 C326 630 335 626 345 621 C347 620 350 620 351 620 C355 620 357 621 359 624 L401 696 Z " />
<glyph glyph-name="g" unicode="g" horiz-adv-x="613" d="M158 252 C158 325 211 386 287 386 C363 386 418 329 418 252 C418 178 363 120 287 120 C213 120 158 177 158 252 L158 252 Z M545 484 C545 495 540 500 529 500 L431 500 C420 500 415 495 415 484 L415 424 C372 478 323 510 252 510 C111 510 27 386 27 252 C27 121 109 -4 252 -4 C320 -4 375 28 415 82 L415 11 C415 -77 354 -131 265 -131 C219 -131 171 -117 138 -84 C135 -81 131 -80 128 -80 C124 -80 120 -82 117 -87 L66 -154 C61 -161 61 -169 67 -176 C118 -229 196 -255 268 -255 C427 -255 545 -140 545 23 L545 484 L545 484 Z " />
<glyph glyph-name="h" unicode="h" horiz-adv-x="606" d="M182 0 C193 0 198 5 198 16 L198 261 C198 276 201 291 207 306 C221 349 266 386 312 386 C389 386 417 328 417 258 L417 16 C417 5 422 0 433 0 L531 0 C542 0 547 5 547 16 L547 283 C547 409 496 510 357 510 C294 510 232 478 198 424 L198 734 C198 745 193 750 182 750 L84 750 C73 750 68 745 68 734 L68 16 C68 5 73 0 84 0 L182 0 L182 0 Z " />
<glyph glyph-name="i" unicode="i" horiz-adv-x="278" d="M188 0 C199 0 204 5 204 16 L204 484 C204 495 199 500 188 500 L90 500 C79 500 74 495 74 484 L74 16 C74 5 79 0 90 0 L188 0 L188 0 Z M63 684 C63 663 70 646 85 632 C99 617 117 610 138 610 C180 610 215 641 215 684 C215 729 183 762 138 762 C94 762 63 727 63 684 L63 684 Z " />
<glyph glyph-name="j" unicode="j" horiz-adv-x="286" d="M-72 -205 C-77 -215 -74 -222 -65 -225 C-27 -245 0 -255 44 -255 C69 -255 91 -251 112 -243 C152 -225 181 -199 198 -158 C205 -138 209 -116 209 -93 L209 484 C209 495 204 500 193 500 L95 500 C84 500 79 495 79 484 L79 -69 C79 -90 74 -106 64 -116 C54 -125 42 -130 27 -130 C18 -130 10 -129 3 -128 C-5 -126 -11 -123 -18 -120 C-21 -119 -23 -118 -25 -118 C-30 -118 -33 -121 -35 -126 L-72 -205 L-72 -205 Z M68 684 C68 663 75 646 90 632 C104 617 122 610 143 610 C185 610 220 641 220 684 C220 727 187 762 143 762 C100 762 68 726 68 684 L68 684 Z " />
<glyph glyph-name="k" unicode="k" horiz-adv-x="548" d="M380 15 C386 4 400 0 412 0 L522 0 C527 0 530 2 531 5 C532 8 530 12 527 17 L350 292 L512 484 C515 487 517 491 517 495 C516 498 513 500 508 500 L389 500 C378 500 368 496 361 488 L198 311 L198 734 C198 745 193 750 182 750 L84 750 C73 750 68 745 68 734 L68 16 C68 5 73 0 84 0 L182 0 C193 0 198 5 198 16 L198 148 L252 206 L380 15 L380 15 Z " />
<glyph glyph-name="l" unicode="l" horiz-adv-x="266" d="M182 0 C193 0 198 5 198 16 L198 734 C198 745 193 750 182 750 L84 750 C73 750 68 745 68 734 L68 16 C68 5 73 0 84 0 L182 0 L182 0 Z " />
<glyph glyph-name="m" unicode="m" horiz-adv-x="923" d="M84 500 C73 500 68 495 68 484 L68 16 C68 5 73 0 84 0 L182 0 C193 0 198 5 198 16 L198 266 C198 281 201 295 207 310 C221 352 262 386 307 386 C337 386 361 373 379 349 C386 337 392 323 396 308 C399 293 401 276 401 258 L401 16 C401 5 406 0 417 0 L515 0 C526 0 531 5 531 16 L531 266 C531 325 578 386 640 386 C671 386 694 374 712 349 C719 337 725 323 729 308 C732 293 734 276 734 258 L734 16 C734 5 740 0 751 0 L849 0 C859 0 864 5 864 16 L864 283 C864 402 820 510 685 510 C611 510 545 473 500 414 C469 476 422 510 352 510 C316 510 289 502 258 483 C235 467 213 446 198 422 L198 484 C198 495 193 500 182 500 L84 500 Z " />
<glyph glyph-name="n" unicode="n" horiz-adv-x="606" d="M531 0 C542 0 547 5 547 16 L547 283 C547 409 496 510 357 510 C292 510 233 473 198 419 L198 484 C198 495 193 500 182 500 L84 500 C73 500 68 495 68 484 L68 16 C68 5 73 0 84 0 L182 0 C193 0 198 5 198 16 L198 266 C198 281 201 295 207 310 C222 354 266 386 312 386 C389 386 417 328 417 258 L417 16 C417 5 422 0 433 0 L531 0 L531 0 Z " />
<glyph glyph-name="o" unicode="o" horiz-adv-x="568" d="M27 250 C27 108 139 -10 284 -10 C427 -10 541 106 541 250 C541 393 430 510 284 510 C141 510 27 394 27 250 L27 250 Z M154 250 C154 324 207 386 284 386 C360 386 414 326 414 250 C414 177 360 114 284 114 C251 114 213 129 192 154 C167 179 154 214 154 250 L154 250 Z " />
<glyph glyph-name="p" unicode="p" horiz-adv-x="613" d="M455 250 C455 177 401 114 325 114 C251 114 196 177 196 250 C196 323 248 386 325 386 C401 386 455 326 455 250 L455 250 Z M84 500 C73 500 68 495 68 484 L68 -234 C68 -245 73 -250 84 -250 L182 -250 C193 -250 198 -245 198 -234 L198 76 C237 23 293 -10 360 -10 C501 -10 586 117 586 250 C586 381 504 510 360 510 C292 510 238 478 198 424 L198 484 C198 495 193 500 182 500 L84 500 L84 500 Z " />
<glyph glyph-name="q" unicode="q" horiz-adv-x="613" d="M158 250 C158 323 210 386 287 386 C325 386 353 374 380 347 C404 319 417 287 417 250 C417 177 363 114 287 114 C213 114 158 177 158 250 L158 250 Z M431 500 C420 500 415 495 415 484 L415 424 C373 478 323 510 253 510 C112 510 27 383 27 250 C27 120 111 -10 253 -10 C323 -10 377 24 415 81 L415 -234 C415 -245 420 -250 431 -250 L529 -250 C540 -250 545 -245 545 -234 L545 484 C545 495 540 500 529 500 L431 500 L431 500 Z " />
<glyph glyph-name="r" unicode="r" horiz-adv-x="415" d="M84 500 C73 500 68 495 68 484 L68 16 C68 5 73 0 84 0 L182 0 C193 0 198 5 198 16 L198 232 C198 302 235 382 316 382 C337 382 341 381 361 374 C365 372 368 372 371 372 C376 372 380 375 382 381 L408 471 C410 476 411 481 411 485 C404 505 347 510 329 510 C314 510 299 507 285 502 C259 491 236 471 219 448 C210 437 204 425 199 413 L198 413 L198 484 C198 495 193 500 182 500 L84 500 L84 500 Z " />
<glyph glyph-name="s" unicode="s" horiz-adv-x="438" d="M114 150 C109 154 104 156 100 156 C96 156 92 153 88 149 L35 93 C31 89 29 85 28 80 C27 75 29 71 32 67 C79 16 149 -10 217 -10 C309 -10 408 41 408 145 C408 224 358 266 290 297 C269 306 250 314 233 321 C215 328 200 335 189 342 C177 349 171 357 171 366 C171 392 203 399 224 399 C239 399 254 396 268 390 C281 383 294 376 305 369 C309 366 313 365 317 365 C322 365 325 366 329 370 L384 429 C392 437 392 444 384 451 C340 490 280 510 222 510 C136 510 42 461 42 364 C42 288 92 242 160 216 C181 208 200 201 217 194 C234 187 249 179 261 171 C272 163 278 153 278 140 C278 128 273 119 262 113 C251 106 237 103 220 103 C178 103 146 126 114 150 L114 150 Z " />
<glyph glyph-name="t" unicode="t" horiz-adv-x="418" d="M348 123 C346 128 343 130 339 130 C337 130 335 129 332 128 C323 123 314 120 306 118 C298 115 289 114 278 114 C263 114 251 118 242 126 C233 133 228 146 228 163 L228 381 L346 381 C357 381 362 386 362 397 L362 484 C362 495 356 500 345 500 L228 500 L228 632 C228 643 222 648 211 648 L114 648 C103 648 98 643 98 632 L98 500 L50 500 C39 500 34 495 34 484 L34 397 C34 386 39 381 50 381 L98 381 L98 146 C98 46 156 -10 255 -10 C276 -10 297 -8 317 -3 C332 1 383 18 388 33 C388 36 387 39 386 43 L348 123 L348 123 Z " />
<glyph glyph-name="u" unicode="u" horiz-adv-x="606" d="M75 500 C64 500 59 495 59 484 L59 217 C59 91 110 -10 249 -10 C315 -10 373 25 408 81 L408 16 C408 5 413 0 424 0 L522 0 C533 0 538 5 538 16 L538 484 C538 495 533 500 522 500 L424 500 C413 500 408 495 408 484 L408 234 C408 173 357 114 294 114 C217 114 189 172 189 242 L189 484 C189 495 184 500 173 500 L75 500 L75 500 Z " />
<glyph glyph-name="v" unicode="v" horiz-adv-x="510" d="M143 484 C140 495 134 500 125 500 L23 500 C12 500 8 495 13 484 L181 18 C184 10 188 5 193 3 C197 1 200 0 201 0 L309 0 C318 0 325 11 328 18 L497 484 C499 488 499 492 498 495 C496 498 492 500 487 500 L385 500 C376 500 370 495 366 484 L255 176 L143 484 Z " />
<glyph glyph-name="w" unicode="w" horiz-adv-x="729" d="M140 484 C137 495 130 500 121 500 L23 500 C13 500 10 495 13 484 C32 397 50 319 66 251 C73 222 79 193 86 166 C92 138 98 113 103 91 C109 65 115 41 120 18 C123 6 130 0 140 0 L266 0 C278 0 286 6 288 18 L364 344 L441 18 C442 13 445 8 449 5 C452 2 457 0 463 0 L588 0 C594 0 599 2 602 6 C605 9 607 13 609 18 L716 484 C719 495 715 500 706 500 L608 500 C599 500 592 495 589 484 L517 166 L437 483 C435 494 429 500 418 500 L311 500 C300 500 294 494 292 483 C277 424 264 371 252 324 C247 304 242 285 237 266 C232 247 228 230 225 215 C221 200 218 188 216 179 L212 166 L140 484 L140 484 Z " />
<glyph glyph-name="x" unicode="x" horiz-adv-x="502" d="M340 13 C345 4 353 0 364 0 L476 0 C481 0 484 2 485 6 C486 9 485 13 482 16 L330 251 L481 484 C484 487 485 491 484 495 C483 498 479 500 474 500 L363 500 C352 500 344 497 338 487 L251 342 L164 487 C159 496 151 500 139 500 L28 500 C23 500 20 498 19 495 C18 491 18 487 21 484 L172 251 L20 16 C17 12 16 8 17 5 C18 2 21 0 26 0 L138 0 C149 0 157 4 162 13 L251 158 L340 13 Z " />
<glyph glyph-name="y" unicode="y" horiz-adv-x="607" d="M539 484 C539 495 534 500 523 500 L426 500 C415 500 409 495 409 484 L409 244 C409 180 362 124 295 124 C219 124 190 184 190 252 L190 484 C190 495 185 500 174 500 L76 500 C65 500 60 495 60 484 L60 227 C60 101 111 0 250 0 C306 0 384 33 409 84 L409 13 C409 -73 362 -131 270 -131 C225 -131 176 -114 147 -78 C144 -75 141 -74 138 -74 C135 -74 131 -76 127 -81 L76 -148 C70 -155 70 -162 77 -169 C124 -227 201 -255 274 -255 C437 -255 539 -138 539 25 L539 484 L539 484 Z " />
<glyph glyph-name="z" unicode="z" horiz-adv-x="466" d="M32 16 C32 5 37 0 48 0 L417 0 C428 0 434 5 434 16 L434 101 C434 112 428 117 417 117 L203 117 L406 392 C411 399 415 405 418 412 C420 419 421 427 421 436 L421 484 C421 495 416 500 405 500 L61 500 C50 500 45 495 45 484 L45 399 C45 388 50 383 61 383 L252 383 L47 105 C42 99 38 93 36 88 C33 83 32 76 32 67 L32 16 L32 16 Z " />
<glyph glyph-name="braceleft" unicode="&#x7b;" horiz-adv-x="335" d="M41 252 C53 252 63 249 71 244 C79 238 85 230 90 220 C99 197 102 168 102 143 L102 13 C102 -58 141 -95 211 -95 L279 -95 C290 -95 295 -90 295 -79 L295 -35 C295 -24 290 -19 279 -19 L253 -19 C227 -19 214 -3 214 22 L214 143 C214 159 213 176 211 195 C204 239 187 301 132 301 C199 301 214 403 214 453 L214 580 C214 606 225 624 253 624 L279 624 C290 624 295 629 295 640 L295 684 C295 695 290 700 279 700 L211 700 C147 700 102 671 102 603 L102 453 C102 424 97 375 71 359 C63 353 53 350 41 350 C30 350 25 345 25 334 L25 268 C25 257 30 252 41 252 L41 252 Z " />
<glyph glyph-name="bar" unicode="&#x7c;" horiz-adv-x="265" d="M197 704 C197 715 192 720 181 720 L84 720 C73 720 68 715 68 704 L68 -168 C68 -179 73 -184 84 -184 L181 -184 C192 -184 197 -179 197 -168 L197 704 L197 704 Z " />
<glyph glyph-name="braceright" unicode="&#x7d;" horiz-adv-x="335" d="M294 252 C305 252 310 257 310 268 L310 334 C310 345 305 350 294 350 C282 350 272 353 264 359 C256 364 250 372 246 382 C236 401 233 432 233 453 L233 603 C233 671 188 700 124 700 L56 700 C45 700 40 695 40 684 L40 640 C40 629 45 624 56 624 L82 624 C110 624 121 606 121 580 L121 453 C121 410 130 344 165 316 C175 306 188 301 203 301 C131 301 121 196 121 143 L121 22 C121 -3 108 -19 82 -19 L56 -19 C45 -19 40 -24 40 -35 L40 -79 C40 -90 45 -95 56 -95 L124 -95 C195 -95 233 -58 233 13 L233 143 C233 167 235 199 246 220 C250 230 256 238 264 244 C272 249 282 252 294 252 L294 252 Z " />
<glyph glyph-name="asciitilde" unicode="&#x7e;" horiz-adv-x="590" d="M118 210 C139 243 161 261 201 261 C218 261 234 258 251 251 C267 244 283 237 300 229 C331 212 366 196 402 196 C448 196 488 229 515 264 C524 276 533 287 542 298 C549 307 547 314 538 320 L494 352 C491 355 487 357 484 357 C480 357 476 354 472 350 C463 339 453 328 444 317 C435 306 422 300 406 300 C375 300 334 318 306 331 C288 339 270 347 253 354 C235 361 218 365 203 366 C186 366 170 365 154 361 C107 345 73 303 48 262 C42 253 43 245 52 240 L96 207 C100 203 103 202 106 202 C110 202 114 204 118 210 L118 210 Z " />
<glyph glyph-name="exclamdown" unicode="&#xa1;" horiz-adv-x="268" d="M92 290 C80 290 76 286 76 274 L68 -187 C68 -198 74 -203 85 -203 L184 -203 C195 -203 200 -198 200 -187 L193 274 C193 285 188 290 177 290 L92 290 Z M58 432 C58 390 91 355 133 355 C176 355 210 389 210 432 C210 476 177 507 133 507 C90 507 58 475 58 432 L58 432 Z " />
<glyph glyph-name="cent" unicode="&#xa2;" horiz-adv-x="498" d="M331 -6 C369 -3 417 11 448 34 C457 40 459 48 454 57 L400 132 C397 136 393 139 388 139 C386 139 382 138 379 136 C355 121 328 114 299 114 C266 114 228 129 207 154 C182 179 169 214 169 250 C169 324 222 386 299 386 C327 386 353 377 377 363 C381 361 384 359 387 359 C392 359 396 362 399 367 L453 441 C459 450 457 458 448 464 C412 488 374 501 331 506 L331 687 C331 698 325 703 314 703 L271 703 C260 703 255 698 255 687 L255 506 C131 486 42 376 42 250 C42 126 131 14 255 -6 L255 -185 C255 -196 260 -201 271 -201 L314 -201 C325 -201 331 -196 331 -185 L331 -6 L331 -6 Z " />
<glyph glyph-name="sterling" unicode="&#xa3;" horiz-adv-x="530" d="M497 103 C497 109 495 112 491 112 C488 112 485 111 481 108 C460 95 437 88 413 87 C388 87 363 87 338 92 C312 95 286 99 259 104 C243 106 227 107 211 108 C200 108 190 107 180 106 L180 286 L353 286 C363 286 368 291 368 302 L368 352 C368 363 363 369 353 369 L180 369 C180 389 180 409 181 429 C181 503 212 581 294 595 C312 597 330 597 348 597 C382 593 421 582 452 568 C455 567 457 567 459 567 C462 567 465 568 467 571 C469 574 470 577 471 578 L494 644 C495 645 495 648 495 652 C495 656 491 660 484 663 C435 684 384 697 331 699 C277 699 224 689 180 656 C82 584 76 484 76 369 L31 369 C21 369 16 363 16 352 L16 302 C16 293 22 286 31 286 L76 286 L76 13 C76 9 78 0 84 0 C86 0 89 1 92 2 C110 9 130 12 152 12 C198 12 244 5 289 -4 C312 -8 336 -11 359 -13 C367 -13 376 -13 384 -14 C398 -14 412 -13 425 -12 C443 -9 484 0 495 17 C496 20 497 24 497 30 L497 103 L497 103 Z " />
<glyph glyph-name="currency" unicode="&#xa4;" horiz-adv-x="549" d="M171 320 C171 348 182 373 201 394 C221 414 245 424 273 424 C301 424 326 413 347 394 C366 373 377 348 377 320 C377 293 366 266 347 247 C326 228 301 217 273 217 C216 217 171 263 171 320 L171 320 Z M443 87 C447 84 450 82 454 82 C458 82 462 84 466 87 L508 129 C516 136 516 144 508 152 L451 211 C472 244 483 281 483 320 C483 358 475 398 451 429 L511 489 C518 496 518 504 511 512 L467 555 C463 559 460 561 456 561 C452 561 448 559 444 555 L385 496 C352 518 313 529 274 529 C234 529 199 520 166 497 L105 557 C101 561 97 563 93 563 C89 563 86 561 82 557 L38 514 C31 506 31 498 38 491 L99 431 C79 393 65 365 65 320 C65 281 76 244 98 211 L39 151 C31 143 31 135 39 128 L83 85 C87 81 90 80 94 80 C98 80 101 81 105 85 L164 144 C194 121 236 111 274 111 C313 111 353 121 384 145 L443 87 L443 87 Z " />
<glyph glyph-name="yen" unicode="&#xa5;" horiz-adv-x="618" d="M244 16 C244 5 249 0 260 0 L359 0 C370 0 375 5 375 16 L375 149 L542 149 C553 149 558 154 558 165 L558 236 C558 247 553 252 542 252 L375 252 L375 340 L542 340 C553 340 558 345 558 356 L558 427 C558 438 553 444 542 444 L441 444 L595 684 C598 687 598 691 597 695 C596 698 593 700 589 700 L474 700 C466 700 460 697 456 690 L309 454 L163 690 C160 697 154 700 145 700 L29 700 C25 700 22 698 21 695 C20 691 20 687 23 684 L178 444 L76 444 C65 444 60 438 60 427 L60 356 C60 345 65 340 76 340 L244 340 L244 252 L76 252 C65 252 60 247 60 236 L60 165 C60 154 65 149 76 149 L244 149 L244 16 Z " />
<glyph glyph-name="brokenbar" unicode="&#xa6;" horiz-adv-x="265" d="M197 705 C197 716 192 721 181 721 L84 721 C73 721 68 716 68 705 L68 313 C68 302 73 297 84 297 L181 297 C192 297 197 302 197 313 L197 705 L197 705 Z M197 221 C197 232 192 237 181 237 L84 237 C73 237 68 232 68 221 L68 -171 C68 -182 73 -187 84 -187 L181 -187 C192 -187 197 -182 197 -171 L197 221 L197 221 Z " />
<glyph glyph-name="section" unicode="&#xa7;" horiz-adv-x="540" d="M457 70 C487 107 503 150 503 198 C503 306 438 362 342 401 C314 412 288 422 264 432 C228 447 180 469 180 515 C180 563 230 581 271 581 C313 581 354 569 393 545 C397 543 400 541 404 541 C405 541 407 542 408 542 C413 543 416 546 419 549 L472 630 C477 639 476 647 467 654 C410 690 347 710 279 710 C164 710 48 643 48 515 C48 485 53 459 63 438 C72 416 86 397 103 381 C66 344 48 302 48 253 C48 147 116 92 210 55 C237 44 263 34 287 23 C326 5 371 -17 371 -66 C371 -125 315 -143 266 -143 C211 -143 155 -119 111 -87 C107 -84 104 -83 100 -83 C99 -83 98 -83 98 -84 C93 -85 89 -87 86 -91 L36 -167 C33 -172 32 -177 34 -180 C35 -183 38 -187 41 -190 C109 -242 179 -272 265 -272 C307 -272 343 -266 373 -253 C451 -219 503 -151 503 -64 C503 -15 491 33 457 70 L457 70 Z M344 141 C329 150 312 158 293 164 C274 170 256 177 239 184 C207 197 180 215 180 253 C179 266 184 278 194 287 C204 296 215 304 226 309 C241 301 258 294 275 288 C292 281 307 274 322 267 C352 252 371 231 371 196 C371 174 362 156 344 141 L344 141 Z " />
<glyph glyph-name="dieresis" unicode="&#xa8;" horiz-adv-x="420" d="M27 568 C27 528 59 497 99 497 C139 497 172 528 172 568 C172 609 140 641 99 641 C58 641 27 609 27 568 L27 568 Z M248 568 C248 528 279 497 319 497 C359 497 393 527 393 568 C393 610 361 641 319 641 C277 641 248 609 248 568 L248 568 Z " />
<glyph glyph-name="copyright" unicode="&#xa9;" horiz-adv-x="835" d="M420 765 C205 765 32 589 32 372 C32 160 205 -17 420 -17 C634 -17 803 156 803 372 C803 583 637 765 420 765 L420 765 Z M420 28 C235 28 77 185 77 372 C77 559 229 720 420 720 C610 720 758 561 758 372 C758 182 615 28 420 28 L420 28 Z M527 211 C535 216 536 222 531 230 L511 259 C508 264 504 266 500 266 C497 266 494 265 490 262 C473 253 448 246 429 246 C360 246 303 301 303 371 C303 442 357 496 429 496 C450 496 471 491 489 481 C492 479 495 478 498 478 C502 478 507 481 510 486 L530 514 C535 521 533 527 526 532 C516 539 502 546 485 552 C467 557 448 560 428 560 C325 560 241 475 241 371 C241 269 324 184 428 184 C466 184 494 193 527 211 L527 211 Z " />
<glyph glyph-name="guillemotleft" unicode="&#xab;" horiz-adv-x="543" d="M502 409 C505 413 506 417 504 420 C502 423 498 425 493 425 L398 425 C393 425 389 424 386 421 C382 418 378 414 375 409 L261 239 C258 235 257 230 258 225 C259 222 260 220 261 218 L375 50 C378 45 382 42 386 39 C389 36 393 34 398 34 L492 34 C497 34 501 36 503 39 C504 42 503 46 500 50 L379 229 L502 409 Z M269 409 C272 413 273 417 272 420 C270 423 266 425 261 425 L165 425 C160 425 156 424 153 421 C149 418 145 414 142 409 L28 239 C25 235 24 230 25 225 C26 222 27 220 28 218 L142 50 C145 45 149 42 153 39 C156 36 160 34 165 34 L259 34 C264 34 268 36 270 39 C272 42 271 46 268 50 L146 229 L269 409 Z " />
<glyph glyph-name="logicalnot" unicode="&#xac;" horiz-adv-x="605" d="M521 24 C532 24 537 29 537 40 L537 335 L70 335 C59 335 54 330 54 319 L54 239 C54 228 59 222 70 222 L425 222 L425 40 C425 29 430 24 441 24 L521 24 L521 24 Z " />
<glyph glyph-name="uni00AD" unicode="&#xad;" horiz-adv-x="427" d="M76 311 C65 311 60 306 60 295 L60 198 C60 187 65 182 76 182 L351 182 C362 182 367 187 367 198 L367 295 C367 306 362 311 351 311 L76 311 L76 311 Z " />
<glyph glyph-name="registered" unicode="&#xae;" horiz-adv-x="835" d="M420 765 C205 765 32 589 32 372 C32 160 205 -17 420 -17 C634 -17 803 156 803 372 C803 583 637 765 420 765 L420 765 Z M420 28 C235 28 77 185 77 372 C77 559 229 720 420 720 C610 720 758 561 758 372 C758 182 615 28 420 28 L420 28 Z M423 537 C466 537 501 507 501 463 C501 418 467 386 423 386 L338 386 L338 537 L423 537 L423 537 Z M464 331 C506 343 535 372 553 411 C559 426 562 443 562 463 C562 540 499 597 423 597 L289 597 C282 597 278 593 278 586 L278 180 C278 171 282 167 289 167 L327 167 C334 167 338 171 338 180 L338 325 L397 325 L502 178 C504 175 507 173 510 171 C513 168 516 167 519 167 L568 167 C571 167 573 168 573 171 C573 174 572 176 570 178 L464 331 L464 331 Z " />
<glyph glyph-name="degree" unicode="&#xb0;" horiz-adv-x="406" d="M27 526 C27 431 107 350 203 350 C298 350 379 430 379 526 C379 621 299 702 203 702 C108 702 27 622 27 526 L27 526 Z M109 526 C109 580 148 621 203 621 C258 621 298 581 298 526 C298 472 257 432 203 432 C176 432 153 441 136 459 C118 476 109 499 109 526 L109 526 Z " />
<glyph glyph-name="plusminus" unicode="&#xb1;" horiz-adv-x="540" d="M54 141 C43 141 38 136 38 125 L38 45 C38 34 43 29 54 29 L485 29 C496 29 501 34 501 45 L501 125 C501 136 496 141 485 141 L54 141 L54 141 Z M479 380 C490 380 495 385 495 396 L495 477 C495 488 490 493 479 493 L328 493 L328 642 C328 653 323 658 312 658 L232 658 C221 658 216 653 216 642 L216 493 L63 493 C52 493 47 488 47 477 L47 396 C47 385 52 380 63 380 L216 380 L216 228 C216 217 221 212 232 212 L312 212 C323 212 328 217 328 228 L328 380 L479 380 Z " />
<glyph glyph-name="twosuperior" unicode="&#xb2;" horiz-adv-x="288" d="M152 531 C189 570 222 610 222 666 C222 725 183 760 125 760 C110 760 95 758 82 754 C69 749 55 743 42 734 C37 730 36 726 39 721 L66 680 C68 677 71 675 74 675 C76 675 78 676 80 677 C85 680 91 683 98 686 C104 689 110 690 117 690 C141 690 149 675 149 653 C149 643 147 633 143 624 C132 598 109 569 90 548 C76 531 59 512 40 489 C38 485 37 481 37 478 L37 469 C37 463 40 460 45 460 L227 460 C233 460 236 463 236 469 L236 523 C236 528 233 531 227 531 L152 531 L152 531 Z " />
<glyph glyph-name="threesuperior" unicode="&#xb3;" horiz-adv-x="264" d="M101 586 C118 586 132 583 141 578 C150 572 155 563 155 552 C155 543 152 535 147 530 C141 525 132 522 120 522 C105 522 92 529 79 536 C77 538 74 538 72 538 C69 538 67 537 65 533 L38 492 C34 487 35 483 41 479 C67 462 91 453 122 453 C177 453 222 484 222 543 C222 577 202 603 169 613 C198 628 217 649 217 683 C217 733 175 760 129 760 C114 760 101 758 88 754 C75 749 61 743 47 734 C42 731 41 727 44 721 L74 678 C75 677 76 677 77 677 C79 677 81 678 83 679 C88 682 94 684 101 687 C107 690 114 691 121 691 C138 691 150 683 150 665 C150 654 146 647 137 643 C128 638 116 636 101 636 C97 636 95 634 95 629 L95 592 C95 588 97 586 101 586 L101 586 Z " />
<glyph glyph-name="acute" unicode="&#xb4;" horiz-adv-x="248" d="M95 551 C98 550 101 549 103 549 C108 549 112 552 116 557 L210 708 C216 717 214 724 203 728 L125 755 C123 756 121 756 119 756 C112 756 107 752 104 744 L36 594 C32 585 34 578 43 574 L95 551 L95 551 Z " />
<glyph glyph-name="mu" unicode="&#xb5;" horiz-adv-x="606" d="M189 30 C212 9 240 -1 275 -1 C331 -1 381 25 408 76 L408 16 C408 5 413 0 424 0 L522 0 C533 0 538 5 538 16 L538 484 C538 495 533 500 522 500 L424 500 C413 500 408 495 408 484 L408 239 C408 224 405 209 400 194 C383 151 343 114 294 114 C219 114 189 175 189 242 L189 484 C189 495 184 500 173 500 L75 500 C64 500 59 495 59 484 L59 -234 C59 -245 64 -250 75 -250 L173 -250 C184 -250 189 -245 189 -234 L189 30 L189 30 Z " />
<glyph glyph-name="paragraph" unicode="&#xb6;" horiz-adv-x="656" d="M439 -216 C439 -227 445 -232 456 -232 L527 -232 C538 -232 543 -227 543 -216 L543 578 L606 578 C617 578 622 584 622 595 L622 666 C622 677 617 682 606 682 L232 682 C122 682 30 591 30 480 C30 427 51 375 90 338 C127 299 179 278 232 278 L232 -216 C232 -227 237 -232 248 -232 L319 -232 C330 -232 336 -227 336 -216 L336 578 L439 578 L439 -216 L439 -216 Z " />
<glyph glyph-name="periodcentered" unicode="&#xb7;" horiz-adv-x="207" d="M27 327 C27 285 59 251 102 251 C145 251 180 284 180 327 C180 371 145 404 102 404 C59 404 27 370 27 327 L27 327 Z " />
<glyph glyph-name="cedilla" unicode="&#xb8;" horiz-adv-x="203" d="M21 -162 C20 -165 20 -168 23 -171 C26 -174 29 -175 33 -175 L119 -175 C129 -175 135 -171 137 -162 L164 -2 C165 7 162 11 154 11 L85 11 C78 11 73 7 70 -2 L21 -162 L21 -162 Z " />
<glyph glyph-name="onesuperior" unicode="&#xb9;" horiz-adv-x="235" d="M45 740 C40 740 37 737 38 730 L45 675 C46 670 49 668 54 669 L93 674 L93 469 C93 463 96 460 102 460 L158 460 C164 460 167 463 167 469 L167 746 C167 752 164 755 158 755 L149 755 L45 740 L45 740 Z " />
<glyph glyph-name="ordmasculine" unicode="&#xba;" horiz-adv-x="568" d="M27 250 C27 108 139 -10 284 -10 C427 -10 541 106 541 250 C541 393 430 510 284 510 C141 510 27 394 27 250 L27 250 Z M154 250 C154 324 207 386 284 386 C360 386 414 326 414 250 C414 177 360 114 284 114 C251 114 213 129 192 154 C167 179 154 214 154 250 L154 250 Z " />
<glyph glyph-name="guillemotright" unicode="&#xbb;" horiz-adv-x="543" d="M43 50 C40 46 39 42 41 39 C42 36 46 34 51 34 L145 34 C154 34 163 42 168 50 L283 218 C284 220 285 222 286 225 C287 229 286 234 283 239 L168 409 C163 418 156 425 145 425 L50 425 C45 425 41 423 40 420 C38 417 39 413 42 409 L164 229 L43 50 L43 50 Z M276 50 C273 46 272 42 274 39 C275 36 279 34 284 34 L378 34 C387 34 396 42 401 50 L515 218 C516 220 517 222 518 225 C519 229 518 234 515 239 L401 409 C396 418 389 425 378 425 L283 425 C278 425 274 423 273 420 C271 417 272 413 275 409 L397 229 L276 50 L276 50 Z " />
<glyph glyph-name="onequarter" unicode="&#xbc;" horiz-adv-x="735" d="M129 16 C126 11 125 7 128 4 C131 1 135 0 140 0 L212 0 C223 0 228 8 233 16 L618 684 C621 689 622 693 619 696 C616 699 612 700 607 700 L535 700 C524 700 519 693 514 684 L129 16 L129 16 Z M600 9 C600 3 603 0 608 0 L653 0 C659 0 662 3 662 9 L662 58 L684 58 C690 58 693 61 693 67 L693 109 C693 115 690 118 684 118 L662 118 L662 154 C662 160 659 163 653 163 L610 163 C604 163 601 160 601 154 L601 118 L554 118 L616 285 C619 292 617 295 610 295 L564 295 C557 295 552 292 549 285 L480 100 L480 67 C480 61 483 58 489 58 L600 58 L600 9 Z M101 526 C118 526 132 523 141 518 C150 512 155 503 155 492 C155 483 152 475 147 470 C141 465 132 462 120 462 C105 462 92 469 79 476 C77 478 74 478 72 478 C69 478 67 477 65 473 L38 432 C34 427 35 423 41 419 C67 402 91 393 122 393 C177 393 222 424 222 483 C222 517 202 543 169 553 C198 568 217 589 217 623 C217 673 175 700 129 700 C114 700 101 698 88 694 C75 689 61 683 47 674 C42 671 41 667 44 661 L74 618 C75 617 76 617 77 617 C79 617 81 618 83 619 C88 622 94 624 101 627 C107 630 114 631 121 631 C138 631 150 623 150 605 C150 594 146 587 137 583 C128 578 116 576 101 576 C97 576 95 574 95 569 L95 532 C95 528 97 526 101 526 L101 526 Z " />
<glyph glyph-name="onehalf" unicode="&#xbd;" horiz-adv-x="697" d="M45 686 C40 686 37 683 38 676 L45 621 C46 616 49 614 54 615 L93 620 L93 415 C93 409 96 406 102 406 L158 406 C164 406 167 409 167 415 L167 692 C167 698 164 701 158 701 L149 701 L45 686 L45 686 Z M561 71 C598 110 631 150 631 206 C631 265 592 300 534 300 C519 300 504 298 491 294 C478 289 464 283 451 274 C446 270 445 266 448 261 L475 220 C477 217 480 215 483 215 C485 215 487 216 489 217 C494 220 500 223 507 226 C513 229 519 230 526 230 C550 230 558 215 558 193 C558 183 556 173 552 164 C541 138 518 109 499 88 C485 71 468 52 449 29 C446 26 445 22 445 18 L445 9 C445 3 448 0 454 0 L636 0 C642 0 645 3 645 9 L645 63 C645 68 642 71 636 71 L561 71 L561 71 Z M81 16 C78 11 77 7 80 4 C83 1 87 0 92 0 L164 0 C175 0 180 8 185 16 L570 684 C573 689 574 693 571 696 C568 699 564 700 559 700 L487 700 C476 700 471 693 466 684 L81 16 L81 16 Z " />
<glyph glyph-name="threequarters" unicode="&#xbe;" horiz-adv-x="685" d="M45 686 C40 686 37 683 38 676 L45 621 C46 616 49 614 54 615 L93 620 L93 415 C93 409 96 406 102 406 L158 406 C164 406 167 409 167 415 L167 692 C167 698 164 701 158 701 L149 701 L45 686 L45 686 Z M81 16 C78 11 77 7 80 4 C83 1 87 0 92 0 L164 0 C175 0 180 8 185 16 L570 684 C573 689 574 693 571 696 C568 699 564 700 559 700 L487 700 C476 700 471 693 466 684 L81 16 L81 16 Z M550 9 C550 3 553 0 559 0 L604 0 C610 0 613 3 613 9 L613 58 L635 58 C640 58 643 61 643 67 L643 109 C643 115 640 118 635 118 L613 118 L613 154 C613 160 610 163 604 163 L560 163 C554 163 551 160 551 154 L551 118 L504 118 L567 285 C569 292 567 295 560 295 L514 295 C507 295 502 292 500 285 L431 100 L431 67 C431 61 434 58 440 58 L550 58 L550 9 Z " />
<glyph glyph-name="questiondown" unicode="&#xbf;" horiz-adv-x="449" d="M366 155 C362 161 358 163 353 163 C350 163 347 162 343 159 C314 137 278 118 241 118 C203 118 170 141 170 181 C170 207 189 229 207 246 C273 306 310 350 310 446 L310 473 C310 478 309 483 308 487 C306 491 302 493 295 493 L199 493 C192 493 187 491 185 488 C183 484 182 479 182 473 L182 446 C182 385 152 348 110 306 C70 266 38 221 38 161 C38 52 127 -10 232 -10 C297 -10 361 13 412 52 C421 59 422 67 417 75 L366 155 L366 155 Z M323 635 C323 656 316 674 302 689 C287 703 269 710 248 710 C206 710 171 678 171 635 C171 593 206 558 248 558 C291 558 323 593 323 635 L323 635 Z " />
<glyph glyph-name="Agrave" unicode="&#xc0;" horiz-adv-x="628" d="M129 0 C142 0 150 5 152 16 L194 151 L433 151 L475 17 C478 6 486 0 499 0 L603 0 C615 0 619 5 614 16 L400 684 C397 695 391 700 381 700 L247 700 C237 700 231 695 228 684 L14 16 C9 5 13 0 25 0 L129 0 L129 0 Z M224 274 L314 547 L404 274 L224 274 Z M356 775 C361 777 364 780 365 784 C365 788 364 792 363 795 L294 945 C291 953 287 957 280 957 C278 957 276 957 274 956 L195 929 C184 925 182 918 188 909 L282 758 C285 753 289 750 294 750 C297 750 300 751 303 752 L356 775 L356 775 Z " />
<glyph glyph-name="Aacute" unicode="&#xc1;" horiz-adv-x="628" d="M129 0 C142 0 150 5 152 16 L194 151 L433 151 L475 17 C478 6 486 0 499 0 L603 0 C615 0 619 5 614 16 L400 684 C397 695 391 700 381 700 L247 700 C237 700 231 695 228 684 L14 16 C9 5 13 0 25 0 L129 0 L129 0 Z M224 274 L314 547 L404 274 L224 274 Z M323 752 C326 751 329 750 331 750 C336 750 340 753 344 758 L438 909 C444 918 442 925 431 929 L353 956 C351 957 349 957 347 957 C340 957 335 953 332 945 L264 795 C260 786 262 779 271 775 L323 752 L323 752 Z " />
<glyph glyph-name="Acircumflex" unicode="&#xc2;" horiz-adv-x="628" d="M129 0 C142 0 150 5 152 16 L194 151 L433 151 L475 17 C478 6 486 0 499 0 L603 0 C615 0 619 5 614 16 L400 684 C397 695 391 700 381 700 L247 700 C237 700 231 695 228 684 L14 16 C9 5 13 0 25 0 L129 0 L129 0 Z M224 274 L314 547 L404 274 L224 274 Z M283 943 C271 943 261 936 253 927 L145 807 C141 804 139 800 140 796 C141 791 143 787 146 784 L175 748 C178 745 182 743 185 743 C186 743 187 743 188 744 C192 745 196 746 199 749 L313 852 L427 749 C430 746 434 744 439 743 C444 742 448 744 451 748 L480 784 C488 792 489 800 482 807 L374 927 C365 938 358 943 343 943 L283 943 L283 943 Z " />
<glyph glyph-name="Atilde" unicode="&#xc3;" horiz-adv-x="628" d="M129 0 C142 0 150 5 152 16 L194 151 L433 151 L475 17 C478 6 486 0 499 0 L603 0 C615 0 619 5 614 16 L400 684 C397 695 391 700 381 700 L247 700 C237 700 231 695 228 684 L14 16 C9 5 13 0 25 0 L129 0 L129 0 Z M224 274 L314 547 L404 274 L224 274 Z M384 874 C372 874 361 877 351 883 C341 889 331 896 320 903 C294 920 272 932 240 932 C203 932 162 904 138 878 C131 872 129 864 132 854 L148 793 C149 789 151 786 154 784 C154 783 155 783 156 783 C158 783 161 785 164 788 C177 801 190 812 203 823 C216 834 231 839 246 839 C258 839 269 836 279 830 C289 824 300 818 311 811 C338 794 357 782 390 782 C428 782 467 809 492 836 C498 842 500 850 497 860 L482 921 C480 927 477 930 474 930 C472 930 469 929 466 926 C453 913 440 902 427 891 C413 880 399 874 384 874 L384 874 Z " />
<glyph glyph-name="Adieresis" unicode="&#xc4;" horiz-adv-x="628" d="M129 0 C142 0 150 5 152 16 L194 151 L433 151 L475 17 C478 6 486 0 499 0 L603 0 C615 0 619 5 614 16 L400 684 C397 695 391 700 381 700 L247 700 C237 700 231 695 228 684 L14 16 C9 5 13 0 25 0 L129 0 L129 0 Z M224 274 L314 547 L404 274 L224 274 Z M131 840 C131 800 163 769 203 769 C243 769 276 800 276 840 C276 881 244 913 203 913 C162 913 131 881 131 840 L131 840 Z M352 840 C352 800 383 769 423 769 C463 769 497 799 497 840 C497 882 465 913 423 913 C381 913 352 881 352 840 L352 840 Z " />
<glyph glyph-name="Aring" unicode="&#xc5;" horiz-adv-x="628" d="M129 0 C142 0 150 5 152 16 L194 151 L433 151 L475 17 C478 6 486 0 499 0 L603 0 C615 0 619 5 614 16 L400 684 C397 695 391 700 381 700 L247 700 C237 700 231 695 228 684 L14 16 C9 5 13 0 25 0 L129 0 L129 0 Z M224 274 L314 547 L404 274 L224 274 Z M191 861 C191 794 248 737 315 737 C365 737 408 768 429 813 C435 828 438 844 438 861 C438 878 435 894 429 909 C415 939 393 961 363 975 C348 981 332 984 315 984 C298 984 282 981 267 975 C222 954 191 911 191 861 L191 861 Z M271 861 C271 874 275 884 284 893 C292 902 302 906 315 906 C341 906 360 887 360 861 C360 848 356 838 347 830 C338 821 328 817 315 817 C302 817 292 821 284 830 C275 838 271 848 271 861 L271 861 Z " />
<glyph glyph-name="AE" unicode="&#xc6;" horiz-adv-x="856" d="M273 273 L402 547 L403 547 L403 273 L273 273 Z M134 0 C144 0 149 8 153 16 L219 151 L403 151 L403 16 C403 6 411 0 420 0 L805 0 C816 0 821 5 821 16 L821 113 C821 122 814 129 805 129 L543 129 L543 287 L770 287 C781 287 786 293 786 304 L786 396 C786 407 781 413 770 413 L543 413 L543 571 L804 571 C815 571 820 576 820 587 L820 684 C820 695 815 700 804 700 L349 700 C340 700 334 694 329 687 L15 16 C9 5 13 0 27 0 L134 0 L134 0 Z " />
<glyph glyph-name="Ccedilla" unicode="&#xc7;" horiz-adv-x="640" d="M278 -162 C277 -165 277 -168 280 -171 C283 -174 286 -175 290 -175 L377 -175 C386 -175 392 -171 395 -162 L420 -9 C455 -6 484 0 509 9 C526 15 589 39 593 56 C593 60 592 64 589 69 L537 148 C534 153 530 156 526 157 C521 157 518 157 514 154 C478 129 434 118 390 118 C262 118 164 220 164 349 C164 476 258 582 390 582 C432 582 474 571 510 548 C514 546 517 544 521 544 C522 544 523 545 525 545 C529 546 533 549 536 553 L588 633 C591 637 592 641 591 645 C590 649 587 653 582 656 C525 692 457 710 390 710 C187 710 32 555 32 349 C32 172 149 27 327 -3 L278 -162 L278 -162 Z " />
<glyph glyph-name="Egrave" unicode="&#xc8;" horiz-adv-x="541" d="M89 700 C78 700 73 695 73 684 L73 16 C73 5 78 0 89 0 L490 0 C501 0 506 5 506 16 L506 113 C506 124 501 129 490 129 L205 129 L205 287 L454 287 C465 287 470 293 470 304 L470 396 C470 407 465 413 454 413 L205 413 L205 571 L489 571 C500 571 505 576 505 587 L505 684 C505 695 500 700 489 700 L89 700 L89 700 Z M339 775 C344 777 347 780 348 784 C348 788 347 792 346 795 L277 945 C274 953 270 957 263 957 C261 957 259 957 257 956 L178 929 C167 925 165 918 171 909 L265 758 C268 753 272 750 277 750 C280 750 283 751 286 752 L339 775 L339 775 Z " />
<glyph glyph-name="Eacute" unicode="&#xc9;" horiz-adv-x="541" d="M89 700 C78 700 73 695 73 684 L73 16 C73 5 78 0 89 0 L490 0 C501 0 506 5 506 16 L506 113 C506 124 501 129 490 129 L205 129 L205 287 L454 287 C465 287 470 293 470 304 L470 396 C470 407 465 413 454 413 L205 413 L205 571 L489 571 C500 571 505 576 505 587 L505 684 C505 695 500 700 489 700 L89 700 L89 700 Z M291 752 C294 751 297 750 299 750 C304 750 308 753 312 758 L406 909 C412 918 410 925 399 929 L321 956 C319 957 317 957 315 957 C308 957 303 953 300 945 L232 795 C228 786 230 779 239 775 L291 752 L291 752 Z " />
<glyph glyph-name="Ecircumflex" unicode="&#xca;" horiz-adv-x="541" d="M89 700 C78 700 73 695 73 684 L73 16 C73 5 78 0 89 0 L490 0 C501 0 506 5 506 16 L506 113 C506 124 501 129 490 129 L205 129 L205 287 L454 287 C465 287 470 293 470 304 L470 396 C470 407 465 413 454 413 L205 413 L205 571 L489 571 C500 571 505 576 505 587 L505 684 C505 695 500 700 489 700 L89 700 L89 700 Z M259 943 C247 943 237 936 229 927 L121 807 C117 804 115 800 116 796 C117 791 119 787 122 784 L151 748 C154 745 158 743 161 743 C162 743 163 743 164 744 C168 745 172 746 175 749 L289 852 L403 749 C406 746 410 744 415 743 C420 742 424 744 427 748 L456 784 C464 792 465 800 458 807 L350 927 C341 938 334 943 319 943 L259 943 L259 943 Z " />
<glyph glyph-name="Edieresis" unicode="&#xcb;" horiz-adv-x="542" d="M90 700 C79 700 74 695 74 684 L74 16 C74 5 79 0 90 0 L491 0 C502 0 507 5 507 16 L507 113 C507 124 502 129 491 129 L206 129 L206 287 L455 287 C466 287 471 293 471 304 L471 396 C471 407 466 413 455 413 L206 413 L206 571 L490 571 C501 571 506 576 506 587 L506 684 C506 695 501 700 490 700 L90 700 L90 700 Z M103 840 C103 800 135 769 175 769 C215 769 248 800 248 840 C248 881 216 913 175 913 C134 913 103 881 103 840 L103 840 Z M324 840 C324 800 355 769 395 769 C435 769 469 799 469 840 C469 882 437 913 395 913 C353 913 324 881 324 840 L324 840 Z " />
<glyph glyph-name="Igrave" unicode="&#xcc;" horiz-adv-x="278" d="M189 0 C200 0 205 5 205 16 L205 684 C205 695 200 700 189 700 L89 700 C78 700 73 695 73 684 L73 16 C73 5 78 0 89 0 L189 0 L189 0 Z M176 775 C181 777 184 780 185 784 C185 788 184 792 183 795 L114 945 C111 953 107 957 100 957 C98 957 96 957 94 956 L15 929 C4 925 2 918 8 909 L102 758 C105 753 109 750 114 750 C117 750 120 751 123 752 L176 775 L176 775 Z " />
<glyph glyph-name="Iacute" unicode="&#xcd;" horiz-adv-x="289" d="M195 0 C206 0 211 5 211 16 L211 684 C211 695 206 700 195 700 L95 700 C84 700 79 695 79 684 L79 16 C79 5 84 0 95 0 L195 0 L195 0 Z M163 753 C166 752 169 751 171 751 C176 751 180 754 184 759 L278 910 C284 919 282 926 271 930 L193 957 C191 958 189 958 187 958 C180 958 175 954 172 946 L104 796 C100 787 102 780 111 776 L163 753 L163 753 Z " />
<glyph glyph-name="Icircumflex" unicode="&#xce;" horiz-adv-x="278" d="M189 0 C200 0 205 5 205 16 L205 684 C205 695 200 700 189 700 L89 700 C78 700 73 695 73 684 L73 16 C73 5 78 0 89 0 L189 0 L189 0 Z M108 943 C96 943 86 936 78 927 L-30 807 C-34 804 -36 800 -35 796 C-34 791 -32 787 -29 784 L0 748 C3 745 7 743 10 743 C11 743 12 743 13 744 C17 745 21 746 24 749 L138 852 L252 749 C255 746 259 744 264 743 C269 742 273 744 276 748 L305 784 C313 792 314 800 307 807 L199 927 C190 938 183 943 168 943 L108 943 L108 943 Z " />
<glyph glyph-name="Idieresis" unicode="&#xcf;" horiz-adv-x="278" d="M189 0 C200 0 205 5 205 16 L205 684 C205 695 200 700 189 700 L89 700 C78 700 73 695 73 684 L73 16 C73 5 78 0 89 0 L189 0 L189 0 Z M-44 839 C-44 799 -12 768 28 768 C68 768 101 799 101 839 C101 880 69 912 28 912 C-13 912 -44 880 -44 839 L-44 839 Z M177 839 C177 799 208 768 248 768 C288 768 322 798 322 839 C322 881 290 912 248 912 C206 912 177 880 177 839 L177 839 Z " />
<glyph glyph-name="Eth" unicode="&#xd0;" horiz-adv-x="720" d="M73 16 C73 5 78 0 89 0 L336 0 C529 0 688 151 688 349 C688 545 536 700 336 700 L89 700 C78 700 73 695 73 684 L73 401 L24 401 C14 401 9 395 9 384 L9 319 C9 308 14 302 24 302 L73 302 L73 16 Z M205 571 L331 571 C457 571 557 479 557 349 C557 225 456 129 331 129 L205 129 L205 302 L295 302 C306 302 311 307 311 318 L311 385 C311 396 306 401 295 401 L205 401 L205 571 Z " />
<glyph glyph-name="Ntilde" unicode="&#xd1;" horiz-adv-x="744" d="M655 0 C666 0 671 5 671 16 L671 684 C671 695 666 700 655 700 L555 700 C544 700 539 695 539 684 L539 229 L217 684 C214 689 210 693 207 696 C203 699 197 700 190 700 L89 700 C78 700 73 695 73 684 L73 16 C73 5 78 0 89 0 L189 0 C200 0 205 5 205 16 L205 471 L527 16 C530 11 534 7 538 4 C541 1 547 0 554 0 L655 0 Z M437 874 C425 874 414 877 404 883 C394 889 384 896 373 903 C347 920 325 932 293 932 C256 932 215 904 191 878 C184 872 182 864 185 854 L201 793 C202 789 204 786 207 784 C207 783 208 783 209 783 C211 783 214 785 217 788 C230 801 243 812 256 823 C269 834 284 839 299 839 C311 839 322 836 332 830 C342 824 353 818 364 811 C391 794 410 782 443 782 C481 782 520 809 545 836 C551 842 553 850 550 860 L535 921 C533 927 530 930 527 930 C525 930 522 929 519 926 C506 913 493 902 480 891 C466 880 452 874 437 874 L437 874 Z " />
<glyph glyph-name="Ograve" unicode="&#xd2;" horiz-adv-x="782" d="M390 710 C189 710 32 553 32 349 C32 149 186 -10 390 -10 C590 -10 750 145 750 349 C750 551 596 710 390 710 L390 710 Z M390 118 C262 118 164 220 164 349 C164 476 258 582 390 582 C520 582 618 480 618 349 C618 222 520 118 390 118 L390 118 Z M424 776 C429 778 432 781 433 785 C433 789 432 793 431 796 L362 946 C359 954 355 958 348 958 C346 958 344 958 342 957 L263 930 C252 926 250 919 256 910 L350 759 C353 754 357 751 362 751 C365 751 368 752 371 753 L424 776 L424 776 Z " />
<glyph glyph-name="Oacute" unicode="&#xd3;" horiz-adv-x="782" d="M390 710 C189 710 32 553 32 349 C32 149 186 -10 390 -10 C590 -10 750 145 750 349 C750 551 596 710 390 710 L390 710 Z M390 118 C262 118 164 220 164 349 C164 476 258 582 390 582 C520 582 618 480 618 349 C618 222 520 118 390 118 L390 118 Z M413 753 C416 752 419 751 421 751 C426 751 430 754 434 759 L528 910 C534 919 532 926 521 930 L443 957 C441 958 439 958 437 958 C430 958 425 954 422 946 L354 796 C350 787 352 780 361 776 L413 753 L413 753 Z " />
<glyph glyph-name="Ocircumflex" unicode="&#xd4;" horiz-adv-x="782" d="M390 710 C189 710 32 553 32 349 C32 149 186 -10 390 -10 C590 -10 750 145 750 349 C750 551 596 710 390 710 L390 710 Z M390 118 C262 118 164 220 164 349 C164 476 258 582 390 582 C520 582 618 480 618 349 C618 222 520 118 390 118 L390 118 Z M361 944 C349 944 339 937 331 928 L223 808 C219 805 217 801 218 797 C219 792 221 788 224 785 L253 749 C256 746 260 744 263 744 C264 744 265 744 266 745 C270 746 274 747 277 750 L391 853 L505 750 C508 747 512 745 517 744 C522 743 526 745 529 749 L558 785 C566 793 567 801 560 808 L452 928 C443 939 436 944 421 944 L361 944 L361 944 Z " />
<glyph glyph-name="Otilde" unicode="&#xd5;" horiz-adv-x="782" d="M390 710 C189 710 32 553 32 349 C32 149 186 -10 390 -10 C590 -10 750 145 750 349 C750 551 596 710 390 710 L390 710 Z M390 118 C262 118 164 220 164 349 C164 476 258 582 390 582 C520 582 618 480 618 349 C618 222 520 118 390 118 L390 118 Z M461 874 C449 874 438 877 428 883 C418 889 408 896 397 903 C371 920 349 932 317 932 C280 932 239 904 215 878 C208 872 206 864 209 854 L225 793 C226 789 228 786 231 784 C231 783 232 783 233 783 C235 783 238 785 241 788 C254 801 267 812 280 823 C293 834 308 839 323 839 C335 839 346 836 356 830 C366 824 377 818 388 811 C415 794 434 782 467 782 C505 782 544 809 569 836 C575 842 577 850 574 860 L559 921 C557 927 554 930 551 930 C549 930 546 929 543 926 C530 913 517 902 504 891 C490 880 476 874 461 874 L461 874 Z " />
<glyph glyph-name="Odieresis" unicode="&#xd6;" horiz-adv-x="782" d="M390 710 C189 710 32 553 32 349 C32 149 186 -10 390 -10 C590 -10 750 145 750 349 C750 551 596 710 390 710 L390 710 Z M390 118 C262 118 164 220 164 349 C164 476 258 582 390 582 C520 582 618 480 618 349 C618 222 520 118 390 118 L390 118 Z M208 840 C208 800 240 769 280 769 C320 769 353 800 353 840 C353 881 321 913 280 913 C239 913 208 881 208 840 L208 840 Z M429 840 C429 800 460 769 500 769 C540 769 574 799 574 840 C574 882 542 913 500 913 C458 913 429 881 429 840 L429 840 Z " />
<glyph glyph-name="multiply" unicode="&#xd7;" horiz-adv-x="451" d="M412 395 C419 403 418 411 411 418 L354 475 C351 479 347 481 344 481 C340 481 336 479 332 475 L225 369 L120 474 C116 478 112 480 108 480 C104 479 101 478 97 474 L40 418 C33 410 33 402 40 395 L146 289 L38 181 C30 174 30 167 38 159 L95 102 C99 98 102 96 106 96 C110 96 114 98 118 102 L225 209 L333 102 C337 98 340 96 344 96 C348 96 352 98 356 102 L412 159 C420 166 420 174 413 181 L305 289 L412 395 Z " />
<glyph glyph-name="Oslash" unicode="&#xd8;" horiz-adv-x="781" d="M246 171 C192 217 163 277 163 349 C163 473 261 582 389 582 C425 582 462 573 494 556 L246 171 Z M664 726 C667 729 667 732 664 734 C661 736 657 737 652 737 L623 737 C615 737 609 733 605 726 L566 665 C511 695 451 710 389 710 C191 710 32 549 32 349 C32 231 83 134 174 60 L123 -19 C121 -22 121 -25 124 -27 C126 -29 129 -30 134 -30 L166 -30 C170 -30 173 -29 176 -27 C178 -25 180 -22 183 -19 L216 34 C267 5 330 -10 389 -10 C587 -10 749 147 749 349 C749 466 700 566 608 638 L664 726 L664 726 Z M535 526 C592 483 618 420 618 349 C618 224 516 118 389 118 C356 118 316 127 287 144 L535 526 Z " />
<glyph glyph-name="Ugrave" unicode="&#xd9;" horiz-adv-x="693" d="M83 700 C72 700 67 695 67 684 L67 272 C67 108 175 -10 346 -10 C511 -10 626 103 626 272 L626 684 C626 695 621 700 610 700 L510 700 C499 700 494 695 494 684 L494 295 C494 197 454 118 346 118 C238 118 199 198 199 295 L199 684 C199 695 194 700 183 700 L83 700 L83 700 Z M374 775 C379 777 382 780 383 784 C383 788 382 792 381 795 L312 945 C309 953 305 957 298 957 C296 957 294 957 292 956 L213 929 C202 925 200 918 206 909 L300 758 C303 753 307 750 312 750 C315 750 318 751 321 752 L374 775 L374 775 Z " />
<glyph glyph-name="Uacute" unicode="&#xda;" horiz-adv-x="693" d="M83 700 C72 700 67 695 67 684 L67 272 C67 108 175 -10 346 -10 C511 -10 626 103 626 272 L626 684 C626 695 621 700 610 700 L510 700 C499 700 494 695 494 684 L494 295 C494 197 454 118 346 118 C238 118 199 198 199 295 L199 684 C199 695 194 700 183 700 L83 700 L83 700 Z M353 753 C356 752 359 751 361 751 C366 751 370 754 374 759 L468 910 C474 919 472 926 461 930 L383 957 C381 958 379 958 377 958 C370 958 365 954 362 946 L294 796 C290 787 292 780 301 776 L353 753 L353 753 Z " />
<glyph glyph-name="Ucircumflex" unicode="&#xdb;" horiz-adv-x="693" d="M83 700 C72 700 67 695 67 684 L67 272 C67 108 175 -10 346 -10 C511 -10 626 103 626 272 L626 684 C626 695 621 700 610 700 L510 700 C499 700 494 695 494 684 L494 295 C494 197 454 118 346 118 C238 118 199 198 199 295 L199 684 C199 695 194 700 183 700 L83 700 L83 700 Z M316 943 C304 943 294 936 286 927 L178 807 C174 804 172 800 173 796 C174 791 176 787 179 784 L208 748 C211 745 215 743 218 743 C219 743 220 743 221 744 C225 745 229 746 232 749 L346 852 L460 749 C463 746 467 744 472 743 C477 742 481 744 484 748 L513 784 C521 792 522 800 515 807 L407 927 C398 938 391 943 376 943 L316 943 L316 943 Z " />
<glyph glyph-name="Udieresis" unicode="&#xdc;" horiz-adv-x="693" d="M83 700 C72 700 67 695 67 684 L67 272 C67 108 175 -10 346 -10 C511 -10 626 103 626 272 L626 684 C626 695 621 700 610 700 L510 700 C499 700 494 695 494 684 L494 295 C494 197 454 118 346 118 C238 118 199 198 199 295 L199 684 C199 695 194 700 183 700 L83 700 L83 700 Z M164 840 C164 800 196 769 236 769 C276 769 309 800 309 840 C309 881 277 913 236 913 C195 913 164 881 164 840 L164 840 Z M385 840 C385 800 416 769 456 769 C496 769 530 799 530 840 C530 882 498 913 456 913 C414 913 385 881 385 840 L385 840 Z " />
<glyph glyph-name="Yacute" unicode="&#xdd;" horiz-adv-x="604" d="M156 690 C153 697 147 700 138 700 L22 700 C18 700 15 698 14 695 C13 691 13 687 16 684 L237 340 L237 16 C237 5 242 0 253 0 L352 0 C363 0 368 5 368 16 L368 340 L588 684 C591 687 591 691 590 695 C589 698 586 700 582 700 L467 700 C459 700 453 697 449 690 L302 454 L156 690 L156 690 Z M315 751 C318 750 321 749 323 749 C328 749 332 752 336 757 L430 908 C436 917 434 924 423 928 L345 955 C343 956 341 956 339 956 C332 956 327 952 324 944 L256 794 C252 785 254 778 263 774 L315 751 L315 751 Z " />
<glyph glyph-name="Thorn" unicode="&#xde;" horiz-adv-x="582" d="M205 483 L300 483 C373 483 426 449 426 371 C426 294 373 256 300 256 L205 256 L205 483 Z M73 16 C73 5 78 0 89 0 L189 0 C200 0 205 5 205 16 L205 136 L330 136 C458 136 558 244 558 371 C558 503 467 603 330 603 L205 603 L205 734 C205 745 200 750 189 750 L89 750 C78 750 73 745 73 734 L73 16 L73 16 Z " />
<glyph glyph-name="germandbls" unicode="&#xdf;" horiz-adv-x="594" d="M249 2 C269 -1 289 -3 309 -3 C443 -3 558 71 558 218 C558 309 500 381 415 411 C479 439 508 495 508 563 C508 678 410 750 299 750 C163 750 73 663 73 522 L73 14 C73 5 77 1 86 1 L193 1 C202 1 206 5 206 14 L206 522 C206 576 231 623 290 623 C335 623 375 599 375 550 C375 488 320 469 267 469 C258 469 253 465 253 456 L253 352 C253 345 257 337 265 337 C331 334 426 303 426 224 C426 160 374 132 315 129 C311 128 307 128 304 128 C286 128 269 130 252 134 C242 134 238 132 238 121 L238 19 C238 9 242 3 249 2 L249 2 Z " />
<glyph glyph-name="agrave" unicode="&#xe0;" horiz-adv-x="613" d="M164 250 C164 323 216 386 293 386 C369 386 423 326 423 250 C423 177 369 114 293 114 C219 114 164 177 164 250 L164 250 Z M535 0 C546 0 551 5 551 16 L551 484 C551 495 546 500 535 500 L437 500 C426 500 421 495 421 484 L421 424 C379 478 329 510 259 510 C118 510 33 383 33 250 C33 120 117 -10 259 -10 C326 -10 381 22 421 76 L421 16 C421 5 426 0 437 0 L535 0 L535 0 Z M344 574 C349 576 352 579 353 583 C353 587 352 591 351 594 L282 744 C279 752 275 756 268 756 C266 756 264 756 262 755 L183 728 C172 724 170 717 176 708 L270 557 C273 552 277 549 282 549 C285 549 288 550 291 551 L344 574 L344 574 Z " />
<glyph glyph-name="aacute" unicode="&#xe1;" horiz-adv-x="613" d="M164 250 C164 323 216 386 293 386 C369 386 423 326 423 250 C423 177 369 114 293 114 C219 114 164 177 164 250 L164 250 Z M535 0 C546 0 551 5 551 16 L551 484 C551 495 546 500 535 500 L437 500 C426 500 421 495 421 484 L421 424 C379 478 329 510 259 510 C118 510 33 383 33 250 C33 120 117 -10 259 -10 C326 -10 381 22 421 76 L421 16 C421 5 426 0 437 0 L535 0 L535 0 Z M304 551 C307 550 310 549 312 549 C317 549 321 552 325 557 L419 708 C425 717 423 724 412 728 L334 755 C332 756 330 756 328 756 C321 756 316 752 313 744 L245 594 C241 585 243 578 252 574 L304 551 L304 551 Z " />
<glyph glyph-name="acircumflex" unicode="&#xe2;" horiz-adv-x="613" d="M164 250 C164 323 216 386 293 386 C369 386 423 326 423 250 C423 177 369 114 293 114 C219 114 164 177 164 250 L164 250 Z M535 0 C546 0 551 5 551 16 L551 484 C551 495 546 500 535 500 L437 500 C426 500 421 495 421 484 L421 424 C379 478 329 510 259 510 C118 510 33 383 33 250 C33 120 117 -10 259 -10 C326 -10 381 22 421 76 L421 16 C421 5 426 0 437 0 L535 0 L535 0 Z M272 747 C260 747 250 740 242 731 L134 611 C130 608 128 604 129 600 C130 595 132 591 135 588 L164 552 C167 549 171 547 174 547 C175 547 176 547 177 548 C181 549 185 550 188 553 L302 656 L416 553 C419 550 423 548 428 547 C433 546 437 548 440 552 L469 588 C477 596 478 604 471 611 L363 731 C354 742 347 747 332 747 L272 747 L272 747 Z " />
<glyph glyph-name="atilde" unicode="&#xe3;" horiz-adv-x="613" d="M164 250 C164 323 216 386 293 386 C369 386 423 326 423 250 C423 177 369 114 293 114 C219 114 164 177 164 250 L164 250 Z M535 0 C546 0 551 5 551 16 L551 484 C551 495 546 500 535 500 L437 500 C426 500 421 495 421 484 L421 424 C379 478 329 510 259 510 C118 510 33 383 33 250 C33 120 117 -10 259 -10 C326 -10 381 22 421 76 L421 16 C421 5 426 0 437 0 L535 0 L535 0 Z M367 683 C355 683 344 686 334 692 C324 698 314 705 303 712 C277 729 255 741 223 741 C186 741 145 713 121 687 C114 681 112 673 115 663 L131 602 C132 598 134 595 137 593 C137 592 138 592 139 592 C141 592 144 594 147 597 C160 610 173 621 186 632 C199 643 214 648 229 648 C241 648 252 645 262 639 C272 633 283 627 294 620 C321 603 340 591 373 591 C411 591 450 618 475 645 C481 651 483 659 480 669 L465 730 C463 736 460 739 457 739 C455 739 452 738 449 735 C436 722 423 711 410 700 C396 689 382 683 367 683 L367 683 Z " />
<glyph glyph-name="adieresis" unicode="&#xe4;" horiz-adv-x="613" d="M164 250 C164 323 216 386 293 386 C369 386 423 326 423 250 C423 177 369 114 293 114 C219 114 164 177 164 250 L164 250 Z M535 0 C546 0 551 5 551 16 L551 484 C551 495 546 500 535 500 L437 500 C426 500 421 495 421 484 L421 424 C379 478 329 510 259 510 C118 510 33 383 33 250 C33 120 117 -10 259 -10 C326 -10 381 22 421 76 L421 16 C421 5 426 0 437 0 L535 0 L535 0 Z M118 644 C118 604 150 573 190 573 C230 573 263 604 263 644 C263 685 231 717 190 717 C149 717 118 685 118 644 L118 644 Z M339 644 C339 604 370 573 410 573 C450 573 484 603 484 644 C484 686 452 717 410 717 C368 717 339 685 339 644 L339 644 Z " />
<glyph glyph-name="aring" unicode="&#xe5;" horiz-adv-x="613" d="M164 250 C164 323 216 386 293 386 C369 386 423 326 423 250 C423 177 369 114 293 114 C219 114 164 177 164 250 L164 250 Z M535 0 C546 0 551 5 551 16 L551 484 C551 495 546 500 535 500 L437 500 C426 500 421 495 421 484 L421 424 C379 478 329 510 259 510 C118 510 33 383 33 250 C33 120 117 -10 259 -10 C326 -10 381 22 421 76 L421 16 C421 5 426 0 437 0 L535 0 L535 0 Z M175 671 C175 604 232 547 299 547 C349 547 392 578 413 623 C419 638 422 654 422 671 C422 688 419 704 413 719 C399 749 377 771 347 785 C332 791 316 794 299 794 C282 794 266 791 251 785 C206 764 175 721 175 671 L175 671 Z M255 671 C255 684 259 694 268 703 C276 712 286 716 299 716 C325 716 344 697 344 671 C344 658 340 648 331 640 C322 631 312 627 299 627 C286 627 276 631 268 640 C259 648 255 658 255 671 L255 671 Z " />
<glyph glyph-name="ae" unicode="&#xe6;" horiz-adv-x="938" d="M523 305 C536 367 576 404 641 404 C707 404 747 369 762 305 L523 305 Z M443 111 C488 37 566 -10 654 -10 C688 -10 720 -6 749 2 C769 7 839 32 848 50 C849 53 848 57 845 62 L801 124 C798 129 793 132 788 132 C785 132 782 131 778 129 C738 108 703 100 658 100 C593 100 531 143 520 209 L870 209 C882 209 888 215 888 227 C888 373 801 510 641 510 C555 510 485 468 443 393 C402 471 340 510 252 510 C185 510 135 496 74 470 C65 466 62 458 67 447 L90 390 C93 383 97 379 103 379 C106 379 109 380 112 381 C155 397 196 409 243 409 C262 409 280 406 295 400 C342 378 364 344 374 293 C333 319 289 329 241 329 C170 329 86 305 54 235 C45 214 40 191 41 165 C41 144 45 123 54 103 C83 28 161 -8 238 -8 C324 -8 402 34 443 111 L443 111 Z M374 212 C364 145 319 100 250 100 C204 100 158 125 158 176 C158 234 210 250 259 250 C304 250 338 239 374 212 L374 212 Z " />
<glyph glyph-name="ccedilla" unicode="&#xe7;" horiz-adv-x="479" d="M185 -162 C182 -171 186 -175 197 -175 L283 -175 C293 -175 299 -171 301 -162 L327 -6 C366 -1 400 14 433 34 C442 40 444 48 439 57 L385 132 C382 136 378 139 373 139 C371 139 367 138 364 136 C340 121 313 114 284 114 C251 114 213 129 192 154 C167 179 154 214 154 250 C154 324 207 386 284 386 C312 386 338 377 362 363 C366 361 369 359 372 359 C377 359 381 362 384 367 L438 441 C444 450 442 458 433 464 C386 494 340 510 284 510 C141 510 27 394 27 250 C27 126 110 23 233 -3 L185 -162 L185 -162 Z " />
<glyph glyph-name="egrave" unicode="&#xe8;" horiz-adv-x="546" d="M316 574 C321 576 324 579 325 583 C325 587 324 591 323 594 L254 744 C251 752 247 756 240 756 C238 756 236 756 234 755 L155 728 C144 724 142 717 148 708 L242 557 C245 552 249 549 254 549 C257 549 260 550 263 551 L316 574 L316 574 Z M288 100 C221 100 163 142 150 209 L499 209 C511 209 518 214 518 227 C518 374 433 510 271 510 C128 510 27 390 27 250 C27 109 141 -10 284 -10 C352 -10 413 6 471 41 C475 44 477 47 478 51 C479 55 478 59 475 62 L431 124 C428 128 425 131 422 132 C421 132 420 133 419 133 C416 133 412 131 408 129 C367 110 333 100 288 100 L288 100 Z M153 305 C165 366 209 404 271 404 C338 404 378 370 392 305 L153 305 Z " />
<glyph glyph-name="eacute" unicode="&#xe9;" horiz-adv-x="546" d="M288 100 C221 100 163 142 150 209 L499 209 C511 209 518 214 518 227 C518 374 433 510 271 510 C128 510 27 390 27 250 C27 109 141 -10 284 -10 C352 -10 413 6 471 41 C475 44 477 47 478 51 C479 55 478 59 475 62 L431 124 C428 128 425 131 422 132 C421 132 420 133 419 133 C416 133 412 131 408 129 C367 110 333 100 288 100 L288 100 Z M153 305 C165 366 209 404 271 404 C338 404 378 370 392 305 L153 305 Z M294 551 C297 550 300 549 302 549 C307 549 311 552 315 557 L409 708 C415 717 413 724 402 728 L324 755 C322 756 320 756 318 756 C311 756 306 752 303 744 L235 594 C231 585 233 578 242 574 L294 551 L294 551 Z " />
<glyph glyph-name="ecircumflex" unicode="&#xea;" horiz-adv-x="546" d="M248 747 C236 747 226 740 218 731 L110 611 C106 608 104 604 105 600 C106 595 108 591 111 588 L140 552 C143 549 147 547 150 547 C151 547 152 547 153 548 C157 549 161 550 164 553 L278 656 L392 553 C395 550 399 548 404 547 C409 546 413 548 416 552 L445 588 C453 596 454 604 447 611 L339 731 C330 742 323 747 308 747 L248 747 L248 747 Z M288 100 C221 100 163 142 150 209 L499 209 C511 209 518 214 518 227 C518 374 433 510 271 510 C128 510 27 390 27 250 C27 109 141 -10 284 -10 C352 -10 413 6 471 41 C475 44 477 47 478 51 C479 55 478 59 475 62 L431 124 C428 128 425 131 422 132 C421 132 420 133 419 133 C416 133 412 131 408 129 C367 110 333 100 288 100 L288 100 Z M153 305 C165 366 209 404 271 404 C338 404 378 370 392 305 L153 305 Z " />
<glyph glyph-name="edieresis" unicode="&#xeb;" horiz-adv-x="546" d="M91 643 C91 603 123 572 163 572 C203 572 236 603 236 643 C236 684 204 716 163 716 C122 716 91 684 91 643 L91 643 Z M312 643 C312 603 343 572 383 572 C423 572 457 602 457 643 C457 685 425 716 383 716 C341 716 312 684 312 643 L312 643 Z M288 100 C221 100 163 142 150 209 L499 209 C511 209 518 214 518 227 C518 374 433 510 271 510 C128 510 27 390 27 250 C27 109 141 -10 284 -10 C352 -10 413 6 471 41 C475 44 477 47 478 51 C479 55 478 59 475 62 L431 124 C428 128 425 131 422 132 C421 132 420 133 419 133 C416 133 412 131 408 129 C367 110 333 100 288 100 L288 100 Z M153 305 C165 366 209 404 271 404 C338 404 378 370 392 305 L153 305 Z " />
<glyph glyph-name="igrave" unicode="&#xec;" horiz-adv-x="277" d="M187 0 C198 0 203 5 203 16 L203 484 C203 495 198 500 187 500 L89 500 C78 500 73 495 73 484 L73 16 C73 5 78 0 89 0 L187 0 L187 0 Z M172 574 C177 576 180 579 181 583 C181 587 180 591 179 594 L110 744 C107 752 103 756 96 756 C94 756 92 756 90 755 L11 728 C0 724 -2 717 4 708 L98 557 C101 552 105 549 110 549 C113 549 116 550 119 551 L172 574 L172 574 Z " />
<glyph glyph-name="iacute" unicode="&#xed;" horiz-adv-x="278" d="M187 0 C198 0 203 5 203 16 L203 484 C203 495 198 500 187 500 L89 500 C78 500 73 495 73 484 L73 16 C73 5 78 0 89 0 L187 0 L187 0 Z M158 551 C161 550 164 549 166 549 C171 549 175 552 179 557 L273 708 C279 717 277 724 266 728 L188 755 C186 756 184 756 182 756 C175 756 170 752 167 744 L99 594 C95 585 97 578 106 574 L158 551 L158 551 Z " />
<glyph glyph-name="icircumflex" unicode="&#xee;" horiz-adv-x="276" d="M108 747 C96 747 86 740 78 731 L-30 611 C-34 608 -36 604 -35 600 C-34 595 -32 591 -29 588 L0 552 C3 549 7 547 10 547 C11 547 12 547 13 548 C17 549 21 550 24 553 L138 656 L252 553 C255 550 259 548 264 547 C269 546 273 548 276 552 L305 588 C313 596 314 604 307 611 L199 731 C190 742 183 747 168 747 L108 747 L108 747 Z M187 0 C198 0 203 5 203 16 L203 484 C203 495 198 500 187 500 L89 500 C78 500 73 495 73 484 L73 16 C73 5 78 0 89 0 L187 0 L187 0 Z " />
<glyph glyph-name="idieresis" unicode="&#xef;" horiz-adv-x="276" d="M-45 643 C-45 603 -13 572 27 572 C67 572 100 603 100 643 C100 684 68 716 27 716 C-14 716 -45 684 -45 643 L-45 643 Z M176 643 C176 603 207 572 247 572 C287 572 321 602 321 643 C321 685 289 716 247 716 C205 716 176 684 176 643 L176 643 Z M187 0 C198 0 203 5 203 16 L203 484 C203 495 198 500 187 500 L89 500 C78 500 73 495 73 484 L73 16 C73 5 78 0 89 0 L187 0 L187 0 Z " />
<glyph glyph-name="eth" unicode="&#xf0;" horiz-adv-x="614" d="M332 499 C319 503 306 504 293 504 C277 503 263 502 252 500 C130 480 50 372 50 250 C50 108 162 -10 307 -10 C450 -10 564 106 564 250 C564 286 557 321 542 354 L428 591 L560 616 C571 618 575 624 573 635 L564 683 C561 694 557 696 546 696 L391 668 L357 739 C354 744 351 747 348 748 C344 749 339 750 334 750 L229 750 C217 750 213 745 217 735 L262 643 L132 619 C122 618 118 611 120 600 L129 552 C132 541 136 539 147 539 L299 567 L332 499 Z M307 386 C383 386 437 325 437 250 C437 177 383 114 307 114 C274 114 236 129 215 154 C190 179 177 214 177 250 C177 324 230 386 307 386 L307 386 Z " />
<glyph glyph-name="ntilde" unicode="&#xf1;" horiz-adv-x="606" d="M531 0 C542 0 547 5 547 16 L547 283 C547 409 496 510 357 510 C292 510 233 473 198 419 L198 484 C198 495 193 500 182 500 L84 500 C73 500 68 495 68 484 L68 16 C68 5 73 0 84 0 L182 0 C193 0 198 5 198 16 L198 266 C198 281 201 295 207 310 C222 354 266 386 312 386 C389 386 417 328 417 258 L417 16 C417 5 422 0 433 0 L531 0 L531 0 Z M372 683 C360 683 349 686 339 692 C329 698 319 705 308 712 C282 729 260 741 228 741 C191 741 150 713 126 687 C119 681 117 673 120 663 L136 602 C137 598 139 595 142 593 C142 592 143 592 144 592 C146 592 149 594 152 597 C165 610 178 621 191 632 C204 643 219 648 234 648 C246 648 257 645 267 639 C277 633 288 627 299 620 C326 603 345 591 378 591 C416 591 455 618 480 645 C486 651 488 659 485 669 L470 730 C468 736 465 739 462 739 C460 739 457 738 454 735 C441 722 428 711 415 700 C401 689 387 683 372 683 L372 683 Z " />
<glyph glyph-name="ograve" unicode="&#xf2;" horiz-adv-x="568" d="M27 250 C27 108 139 -10 284 -10 C427 -10 541 106 541 250 C541 393 430 510 284 510 C141 510 27 394 27 250 L27 250 Z M154 250 C154 324 207 386 284 386 C360 386 414 326 414 250 C414 177 360 114 284 114 C251 114 213 129 192 154 C167 179 154 214 154 250 L154 250 Z M316 574 C321 576 324 579 325 583 C325 587 324 591 323 594 L254 744 C251 752 247 756 240 756 C238 756 236 756 234 755 L155 728 C144 724 142 717 148 708 L242 557 C245 552 249 549 254 549 C257 549 260 550 263 551 L316 574 L316 574 Z " />
<glyph glyph-name="oacute" unicode="&#xf3;" horiz-adv-x="568" d="M27 250 C27 108 139 -10 284 -10 C427 -10 541 106 541 250 C541 393 430 510 284 510 C141 510 27 394 27 250 L27 250 Z M154 250 C154 324 207 386 284 386 C360 386 414 326 414 250 C414 177 360 114 284 114 C251 114 213 129 192 154 C167 179 154 214 154 250 L154 250 Z M303 551 C306 550 309 549 311 549 C316 549 320 552 324 557 L418 708 C424 717 422 724 411 728 L333 755 C331 756 329 756 327 756 C320 756 315 752 312 744 L244 594 C240 585 242 578 251 574 L303 551 L303 551 Z " />
<glyph glyph-name="ocircumflex" unicode="&#xf4;" horiz-adv-x="568" d="M27 250 C27 108 139 -10 284 -10 C427 -10 541 106 541 250 C541 393 430 510 284 510 C141 510 27 394 27 250 L27 250 Z M154 250 C154 324 207 386 284 386 C360 386 414 326 414 250 C414 177 360 114 284 114 C251 114 213 129 192 154 C167 179 154 214 154 250 L154 250 Z M254 747 C242 747 232 740 224 731 L116 611 C112 608 110 604 111 600 C112 595 114 591 117 588 L146 552 C149 549 153 547 156 547 C157 547 158 547 159 548 C163 549 167 550 170 553 L284 656 L398 553 C401 550 405 548 410 547 C415 546 419 548 422 552 L451 588 C459 596 460 604 453 611 L345 731 C336 742 329 747 314 747 L254 747 L254 747 Z " />
<glyph glyph-name="otilde" unicode="&#xf5;" horiz-adv-x="568" d="M27 250 C27 108 139 -10 284 -10 C427 -10 541 106 541 250 C541 393 430 510 284 510 C141 510 27 394 27 250 L27 250 Z M154 250 C154 324 207 386 284 386 C360 386 414 326 414 250 C414 177 360 114 284 114 C251 114 213 129 192 154 C167 179 154 214 154 250 L154 250 Z M354 683 C342 683 331 686 321 692 C311 698 301 705 290 712 C264 729 242 741 210 741 C173 741 132 713 108 687 C101 681 99 673 102 663 L118 602 C119 598 121 595 124 593 C124 592 125 592 126 592 C128 592 131 594 134 597 C147 610 160 621 173 632 C186 643 201 648 216 648 C228 648 239 645 249 639 C259 633 270 627 281 620 C308 603 327 591 360 591 C398 591 437 618 462 645 C468 651 470 659 467 669 L452 730 C450 736 447 739 444 739 C442 739 439 738 436 735 C423 722 410 711 397 700 C383 689 369 683 354 683 L354 683 Z " />
<glyph glyph-name="odieresis" unicode="&#xf6;" horiz-adv-x="568" d="M27 250 C27 108 139 -10 284 -10 C427 -10 541 106 541 250 C541 393 430 510 284 510 C141 510 27 394 27 250 L27 250 Z M154 250 C154 324 207 386 284 386 C360 386 414 326 414 250 C414 177 360 114 284 114 C251 114 213 129 192 154 C167 179 154 214 154 250 L154 250 Z M101 643 C101 603 133 572 173 572 C213 572 246 603 246 643 C246 684 214 716 173 716 C132 716 101 684 101 643 L101 643 Z M322 643 C322 603 353 572 393 572 C433 572 467 602 467 643 C467 685 435 716 393 716 C351 716 322 684 322 643 L322 643 Z " />
<glyph glyph-name="divide" unicode="&#xf7;" horiz-adv-x="518" d="M54 351 C43 351 38 345 38 334 L38 263 C38 252 43 247 54 247 L465 247 C475 247 480 252 480 263 L480 334 C480 345 475 351 465 351 L54 351 L54 351 Z M190 482 C190 443 220 413 259 413 C298 413 330 442 330 482 C330 522 300 554 259 554 C219 554 190 521 190 482 L190 482 Z M190 116 C190 77 220 47 259 47 C298 47 330 76 330 116 C330 136 323 153 310 167 C296 180 279 187 259 187 C219 187 190 155 190 116 L190 116 Z " />
<glyph glyph-name="oslash" unicode="&#xf8;" horiz-adv-x="568" d="M492 523 C497 531 493 535 480 535 L451 535 C444 535 438 531 433 523 L404 480 C366 500 327 510 284 510 C141 510 27 394 27 250 C27 169 61 96 124 45 L77 -26 C74 -30 74 -33 77 -35 C79 -37 82 -38 87 -38 L121 -38 C126 -38 132 -34 137 -26 L166 19 C202 -1 243 -10 284 -10 C427 -10 541 106 541 250 C541 328 507 403 446 452 L492 523 L492 523 Z M376 342 C389 331 398 317 405 301 C411 284 414 267 414 250 C414 177 360 114 284 114 C266 114 250 118 235 126 L376 342 Z M194 153 C167 181 154 213 154 250 C154 324 207 386 284 386 C293 386 303 385 313 383 C322 380 330 377 335 373 L194 153 Z " />
<glyph glyph-name="ugrave" unicode="&#xf9;" horiz-adv-x="606" d="M75 500 C64 500 59 495 59 484 L59 217 C59 91 110 -10 249 -10 C315 -10 373 25 408 81 L408 16 C408 5 413 0 424 0 L522 0 C533 0 538 5 538 16 L538 484 C538 495 533 500 522 500 L424 500 C413 500 408 495 408 484 L408 234 C408 173 357 114 294 114 C217 114 189 172 189 242 L189 484 C189 495 184 500 173 500 L75 500 L75 500 Z M340 574 C345 576 348 579 349 583 C349 587 348 591 347 594 L278 744 C275 752 271 756 264 756 C262 756 260 756 258 755 L179 728 C168 724 166 717 172 708 L266 557 C269 552 273 549 278 549 C281 549 284 550 287 551 L340 574 L340 574 Z " />
<glyph glyph-name="uacute" unicode="&#xfa;" horiz-adv-x="606" d="M75 500 C64 500 59 495 59 484 L59 217 C59 91 110 -10 249 -10 C315 -10 373 25 408 81 L408 16 C408 5 413 0 424 0 L522 0 C533 0 538 5 538 16 L538 484 C538 495 533 500 522 500 L424 500 C413 500 408 495 408 484 L408 234 C408 173 357 114 294 114 C217 114 189 172 189 242 L189 484 C189 495 184 500 173 500 L75 500 L75 500 Z M310 551 C313 550 316 549 318 549 C323 549 327 552 331 557 L425 708 C431 717 429 724 418 728 L340 755 C338 756 336 756 334 756 C327 756 322 752 319 744 L251 594 C247 585 249 578 258 574 L310 551 L310 551 Z " />
<glyph glyph-name="ucircumflex" unicode="&#xfb;" horiz-adv-x="606" d="M75 500 C64 500 59 495 59 484 L59 217 C59 91 110 -10 249 -10 C315 -10 373 25 408 81 L408 16 C408 5 413 0 424 0 L522 0 C533 0 538 5 538 16 L538 484 C538 495 533 500 522 500 L424 500 C413 500 408 495 408 484 L408 234 C408 173 357 114 294 114 C217 114 189 172 189 242 L189 484 C189 495 184 500 173 500 L75 500 L75 500 Z M271 747 C259 747 249 740 241 731 L133 611 C129 608 127 604 128 600 C129 595 131 591 134 588 L163 552 C166 549 170 547 173 547 C174 547 175 547 176 548 C180 549 184 550 187 553 L301 656 L415 553 C418 550 422 548 427 547 C432 546 436 548 439 552 L468 588 C476 596 477 604 470 611 L362 731 C353 742 346 747 331 747 L271 747 L271 747 Z " />
<glyph glyph-name="udieresis" unicode="&#xfc;" horiz-adv-x="606" d="M75 495 C64 495 59 490 59 479 L59 212 C59 86 110 -15 249 -15 C315 -15 373 20 408 76 L408 11 C408 0 413 -5 424 -5 L522 -5 C533 -5 538 0 538 11 L538 479 C538 490 533 495 522 495 L424 495 C413 495 408 490 408 479 L408 229 C408 168 357 109 294 109 C217 109 189 167 189 237 L189 479 C189 490 184 495 173 495 L75 495 L75 495 Z M118 643 C118 603 150 572 190 572 C230 572 263 603 263 643 C263 684 231 716 190 716 C149 716 118 684 118 643 L118 643 Z M339 643 C339 603 370 572 410 572 C450 572 484 602 484 643 C484 685 452 716 410 716 C368 716 339 684 339 643 L339 643 Z " />
<glyph glyph-name="yacute" unicode="&#xfd;" horiz-adv-x="607" d="M539 484 C539 495 534 500 523 500 L426 500 C415 500 409 495 409 484 L409 244 C409 180 362 124 295 124 C219 124 190 184 190 252 L190 484 C190 495 185 500 174 500 L76 500 C65 500 60 495 60 484 L60 227 C60 101 111 0 250 0 C306 0 384 33 409 84 L409 13 C409 -73 362 -131 270 -131 C225 -131 176 -114 147 -78 C144 -75 141 -74 138 -74 C135 -74 131 -76 127 -81 L76 -148 C70 -155 70 -162 77 -169 C124 -227 201 -255 274 -255 C437 -255 539 -138 539 25 L539 484 L539 484 Z M312 551 C315 550 318 549 320 549 C325 549 329 552 333 557 L427 708 C433 717 431 724 420 728 L342 755 C340 756 338 756 336 756 C329 756 324 752 321 744 L253 594 C249 585 251 578 260 574 L312 551 L312 551 Z " />
<glyph glyph-name="thorn" unicode="&#xfe;" horiz-adv-x="613" d="M455 250 C455 177 401 114 325 114 C251 114 196 177 196 250 C196 323 248 386 325 386 C361 386 393 371 418 346 C442 318 455 288 455 250 L455 250 Z M182 -250 C193 -250 198 -245 198 -234 L198 76 C234 22 295 -10 360 -10 C501 -10 586 117 586 250 C586 381 504 510 360 510 C294 510 235 478 198 424 L198 734 C198 745 193 750 182 750 L84 750 C73 750 68 745 68 734 L68 -234 C68 -245 73 -250 84 -250 L182 -250 L182 -250 Z " />
<glyph glyph-name="ydieresis" unicode="&#xff;" horiz-adv-x="607" d="M539 484 C539 495 534 500 523 500 L426 500 C415 500 409 495 409 484 L409 244 C409 180 362 124 295 124 C219 124 190 184 190 252 L190 484 C190 495 185 500 174 500 L76 500 C65 500 60 495 60 484 L60 227 C60 101 111 0 250 0 C306 0 384 33 409 84 L409 13 C409 -73 362 -131 270 -131 C225 -131 176 -114 147 -78 C144 -75 141 -74 138 -74 C135 -74 131 -76 127 -81 L76 -148 C70 -155 70 -162 77 -169 C124 -227 201 -255 274 -255 C437 -255 539 -138 539 25 L539 484 L539 484 Z M120 643 C120 603 152 572 192 572 C232 572 265 603 265 643 C265 684 233 716 192 716 C151 716 120 684 120 643 L120 643 Z M341 643 C341 603 372 572 412 572 C452 572 486 602 486 643 C486 685 454 716 412 716 C370 716 341 684 341 643 L341 643 Z " />
<glyph glyph-name="Amacron" unicode="&#x100;" horiz-adv-x="628" d="M129 0 C142 0 150 5 152 16 L194 151 L433 151 L475 17 C478 6 486 0 499 0 L603 0 C615 0 619 5 614 16 L400 684 C397 695 391 700 381 700 L247 700 C237 700 231 695 228 684 L14 16 C9 5 13 0 25 0 L129 0 L129 0 Z M224 274 L314 547 L404 274 L224 274 Z M165 816 C165 805 170 800 181 800 L449 800 C460 800 465 805 465 816 L465 891 C465 902 460 907 449 907 L181 907 C170 907 165 902 165 891 L165 816 L165 816 Z " />
<glyph glyph-name="amacron" unicode="&#x101;" horiz-adv-x="613" d="M164 250 C164 323 216 386 293 386 C369 386 423 326 423 250 C423 177 369 114 293 114 C219 114 164 177 164 250 L164 250 Z M535 0 C546 0 551 5 551 16 L551 484 C551 495 546 500 535 500 L437 500 C426 500 421 495 421 484 L421 424 C379 478 329 510 259 510 C118 510 33 383 33 250 C33 120 117 -10 259 -10 C326 -10 381 22 421 76 L421 16 C421 5 426 0 437 0 L535 0 L535 0 Z M152 619 C152 608 157 603 168 603 L436 603 C447 603 452 608 452 619 L452 694 C452 705 447 710 436 710 L168 710 C157 710 152 705 152 694 L152 619 L152 619 Z " />
<glyph glyph-name="Abreve" unicode="&#x102;" horiz-adv-x="628" d="M129 0 C142 0 150 5 152 16 L194 151 L433 151 L475 17 C478 6 486 0 499 0 L603 0 C615 0 619 5 614 16 L400 684 C397 695 391 700 381 700 L247 700 C237 700 231 695 228 684 L14 16 C9 5 13 0 25 0 L129 0 L129 0 Z M224 274 L314 547 L404 274 L224 274 Z M480 905 C480 910 476 914 469 916 L407 927 C400 928 396 924 395 917 C393 870 359 848 314 848 C270 848 238 872 233 917 C232 924 228 928 222 927 L160 916 C152 914 148 910 148 905 C154 807 218 755 314 755 C409 755 476 807 480 905 L480 905 Z " />
<glyph glyph-name="abreve" unicode="&#x103;" horiz-adv-x="613" d="M164 250 C164 323 216 386 293 386 C369 386 423 326 423 250 C423 177 369 114 293 114 C219 114 164 177 164 250 L164 250 Z M535 0 C546 0 551 5 551 16 L551 484 C551 495 546 500 535 500 L437 500 C426 500 421 495 421 484 L421 424 C379 478 329 510 259 510 C118 510 33 383 33 250 C33 120 117 -10 259 -10 C326 -10 381 22 421 76 L421 16 C421 5 426 0 437 0 L535 0 L535 0 Z M471 716 C471 721 467 725 460 727 L398 738 C391 739 387 735 386 728 C384 681 350 659 305 659 C261 659 229 683 224 728 C223 735 219 739 213 738 L151 727 C143 725 139 721 139 716 C145 618 209 566 305 566 C400 566 467 618 471 716 L471 716 Z " />
<glyph glyph-name="Aogonek" unicode="&#x104;" horiz-adv-x="627" d="M604 0 C614 0 617 5 614 16 L400 684 C397 695 391 700 381 700 L247 700 C237 700 231 695 228 684 L14 16 C9 5 13 0 25 0 L129 0 C142 0 150 5 152 16 L194 151 L433 151 L475 17 C477 7 485 0 495 0 L525 0 C502 -21 488 -44 483 -69 C478 -94 481 -118 492 -139 C514 -181 563 -201 609 -201 C619 -201 630 -200 642 -198 C649 -197 651 -193 650 -186 L650 -122 C649 -115 645 -112 638 -113 C631 -115 624 -115 617 -115 C607 -115 598 -113 591 -108 C580 -101 573 -91 570 -79 C567 -66 568 -53 574 -38 C579 -23 589 -11 604 0 L604 0 Z M224 274 L314 547 L404 274 L224 274 Z " />
<glyph glyph-name="aogonek" unicode="&#x105;" horiz-adv-x="613" d="M158 250 C158 323 210 386 287 386 C363 386 417 326 417 250 C417 177 363 114 287 114 C213 114 158 177 158 250 L158 250 Z M415 16 C415 11 416 8 418 5 C419 2 423 0 429 0 L456 0 C433 -21 419 -44 414 -69 C409 -94 412 -118 423 -139 C445 -182 493 -201 539 -201 C550 -201 561 -200 573 -198 C580 -197 582 -193 581 -186 L580 -122 C580 -114 576 -113 569 -113 C562 -115 555 -115 548 -115 C538 -115 529 -113 522 -108 C511 -101 504 -91 501 -79 C498 -66 499 -53 505 -38 C510 -23 520 -11 535 0 C540 0 543 2 544 5 C545 8 545 11 545 16 L545 484 C545 495 540 500 529 500 L431 500 C420 500 415 495 415 484 L415 424 C373 478 323 510 253 510 C112 510 27 383 27 250 C27 120 111 -10 253 -10 C320 -10 375 22 415 76 L415 16 L415 16 Z " />
<glyph glyph-name="Cacute" unicode="&#x106;" horiz-adv-x="640" d="M588 633 C593 642 591 650 581 657 C524 694 458 710 390 710 C187 710 32 555 32 349 C32 147 184 -10 390 -10 C427 -10 461 -5 493 5 C510 10 589 38 593 56 C594 60 592 64 589 69 L537 149 C534 154 530 157 526 158 C521 158 517 156 512 153 C477 129 432 118 390 118 C262 118 164 220 164 349 C164 476 258 582 390 582 C435 582 471 572 509 548 C513 546 517 545 520 545 C522 545 523 545 525 546 C530 547 533 550 536 554 L588 633 Z M390 752 C393 751 396 750 398 750 C403 750 407 753 411 758 L505 909 C511 918 509 925 498 929 L420 956 C418 957 416 957 414 957 C407 957 402 953 399 945 L331 795 C327 786 329 779 338 775 L390 752 L390 752 Z " />
<glyph glyph-name="cacute" unicode="&#x107;" horiz-adv-x="479" d="M385 132 C382 136 378 139 373 139 C371 139 367 138 364 136 C340 121 313 114 284 114 C251 114 213 129 192 154 C167 179 154 214 154 250 C154 324 207 386 284 386 C312 386 338 377 362 363 C366 361 369 359 372 359 C377 359 381 362 384 367 L438 441 C444 450 442 458 433 464 C386 494 340 510 284 510 C141 510 27 394 27 250 C27 108 139 -10 284 -10 C336 -10 389 5 433 34 C442 40 444 48 439 57 L385 132 L385 132 Z M286 551 C289 550 292 549 294 549 C299 549 303 552 307 557 L401 708 C407 717 405 724 394 728 L316 755 C314 756 312 756 310 756 C303 756 298 752 295 744 L227 594 C223 585 225 578 234 574 L286 551 L286 551 Z " />
<glyph glyph-name="Ccircumflex" unicode="&#x108;" horiz-adv-x="640" d="M588 633 C593 642 591 650 581 657 C524 694 458 710 390 710 C187 710 32 555 32 349 C32 147 184 -10 390 -10 C427 -10 461 -5 493 5 C510 10 589 38 593 56 C594 60 592 64 589 69 L537 149 C534 154 530 157 526 158 C521 158 517 156 512 153 C477 129 432 118 390 118 C262 118 164 220 164 349 C164 476 258 582 390 582 C435 582 471 572 509 548 C513 546 517 545 520 545 C522 545 523 545 525 546 C530 547 533 550 536 554 L588 633 Z M345 943 C333 943 323 936 315 927 L207 807 C203 804 201 800 202 796 C203 791 205 787 208 784 L237 748 C240 745 244 743 247 743 C248 743 249 743 250 744 C254 745 258 746 261 749 L375 852 L489 749 C492 746 496 744 501 743 C506 742 510 744 513 748 L542 784 C550 792 551 800 544 807 L436 927 C427 938 420 943 405 943 L345 943 L345 943 Z " />
<glyph glyph-name="ccircumflex" unicode="&#x109;" horiz-adv-x="479" d="M385 132 C382 136 378 139 373 139 C371 139 367 138 364 136 C340 121 313 114 284 114 C251 114 213 129 192 154 C167 179 154 214 154 250 C154 324 207 386 284 386 C312 386 338 377 362 363 C366 361 369 359 372 359 C377 359 381 362 384 367 L438 441 C444 450 442 458 433 464 C386 494 340 510 284 510 C141 510 27 394 27 250 C27 108 139 -10 284 -10 C336 -10 389 5 433 34 C442 40 444 48 439 57 L385 132 L385 132 Z M241 747 C229 747 219 740 211 731 L103 611 C99 608 97 604 98 600 C99 595 101 591 104 588 L133 552 C136 549 140 547 143 547 C144 547 145 547 146 548 C150 549 154 550 157 553 L271 656 L385 553 C388 550 392 548 397 547 C402 546 406 548 409 552 L438 588 C446 596 447 604 440 611 L332 731 C323 742 316 747 301 747 L241 747 L241 747 Z " />
<glyph glyph-name="Cdotaccent" unicode="&#x10a;" horiz-adv-x="640" d="M588 633 C593 642 591 650 581 657 C524 694 458 710 390 710 C187 710 32 555 32 349 C32 147 184 -10 390 -10 C427 -10 461 -5 493 5 C510 10 589 38 593 56 C594 60 592 64 589 69 L537 149 C534 154 530 157 526 158 C521 158 517 156 512 153 C477 129 432 118 390 118 C262 118 164 220 164 349 C164 476 258 582 390 582 C435 582 471 572 509 548 C513 546 517 545 520 545 C522 545 523 545 525 546 C530 547 533 550 536 554 L588 633 Z M300 850 C300 810 332 778 372 778 C413 778 446 808 446 850 C446 893 415 924 372 924 C330 924 300 891 300 850 L300 850 Z " />
<glyph glyph-name="cdotaccent" unicode="&#x10b;" horiz-adv-x="479" d="M385 132 C382 136 378 139 373 139 C371 139 367 138 364 136 C340 121 313 114 284 114 C251 114 213 129 192 154 C167 179 154 214 154 250 C154 324 207 386 284 386 C312 386 338 377 362 363 C366 361 369 359 372 359 C377 359 381 362 384 367 L438 441 C444 450 442 458 433 464 C386 494 340 510 284 510 C141 510 27 394 27 250 C27 108 139 -10 284 -10 C336 -10 389 5 433 34 C442 40 444 48 439 57 L385 132 L385 132 Z M197 659 C197 619 229 587 269 587 C310 587 343 617 343 659 C343 702 312 733 269 733 C227 733 197 700 197 659 L197 659 Z " />
<glyph glyph-name="Ccaron" unicode="&#x10c;" horiz-adv-x="640" d="M588 633 C593 642 591 650 581 657 C524 694 458 710 390 710 C187 710 32 555 32 349 C32 147 184 -10 390 -10 C427 -10 461 -5 493 5 C510 10 589 38 593 56 C594 60 592 64 589 69 L537 149 C534 154 530 157 526 158 C521 158 517 156 512 153 C477 129 432 118 390 118 C262 118 164 220 164 349 C164 476 258 582 390 582 C435 582 471 572 509 548 C513 546 517 545 520 545 C522 545 523 545 525 546 C530 547 533 550 536 554 L588 633 Z M403 759 C415 759 427 766 434 775 L542 895 C549 902 548 910 540 918 L511 954 C508 958 504 960 499 959 C494 958 490 956 487 953 L373 850 L259 953 C256 956 252 958 247 959 C242 960 238 958 235 954 L206 918 C203 915 201 911 201 907 C200 902 202 898 205 895 L313 775 C319 767 333 759 343 759 L403 759 L403 759 Z " />
<glyph glyph-name="ccaron" unicode="&#x10d;" horiz-adv-x="479" d="M385 132 C382 136 378 139 373 139 C371 139 367 138 364 136 C340 121 313 114 284 114 C251 114 213 129 192 154 C167 179 154 214 154 250 C154 324 207 386 284 386 C312 386 338 377 362 363 C366 361 369 359 372 359 C377 359 381 362 384 367 L438 441 C444 450 442 458 433 464 C386 494 340 510 284 510 C141 510 27 394 27 250 C27 108 139 -10 284 -10 C336 -10 389 5 433 34 C442 40 444 48 439 57 L385 132 L385 132 Z M307 547 C319 547 331 554 338 563 L446 683 C453 690 452 698 444 706 L415 742 C412 746 408 748 403 747 C398 746 394 744 391 741 L277 638 L163 741 C160 744 156 746 151 747 C146 748 142 746 139 742 L110 706 C107 703 105 699 105 695 C104 690 106 686 109 683 L217 563 C223 555 237 547 247 547 L307 547 L307 547 Z " />
<glyph glyph-name="Dcaron" unicode="&#x10e;" horiz-adv-x="720" d="M336 0 C529 0 688 151 688 349 C688 545 536 700 336 700 L89 700 C78 700 73 695 73 684 L73 16 C73 5 78 0 89 0 L336 0 L336 0 Z M205 571 L331 571 C457 571 557 479 557 349 C557 225 456 129 331 129 L205 129 L205 571 Z M358 759 C370 759 382 766 389 775 L497 895 C504 902 503 910 495 918 L466 954 C463 958 459 960 454 959 C449 958 445 956 442 953 L328 850 L214 953 C211 956 207 958 202 959 C197 960 193 958 190 954 L161 918 C158 915 156 911 156 907 C155 902 157 898 160 895 L268 775 C274 767 288 759 298 759 L358 759 L358 759 Z " />
<glyph glyph-name="dcaron" unicode="&#x10f;" horiz-adv-x="744" d="M607 543 C606 534 610 530 619 530 L698 530 C708 530 714 534 716 542 L757 737 C759 746 756 750 747 750 L651 750 C642 750 637 746 636 737 L607 543 L607 543 Z M158 250 C158 322 212 386 287 386 C325 386 353 374 380 347 C404 319 417 287 417 250 C417 177 363 114 287 114 C213 114 158 177 158 250 L158 250 Z M529 0 C540 0 545 5 545 16 L545 734 C545 745 540 750 529 750 L431 750 C420 750 415 745 415 734 L415 424 C378 479 319 510 253 510 C112 510 27 383 27 250 C27 120 111 -10 253 -10 C318 -10 379 22 415 76 L415 16 C415 5 420 0 431 0 L529 0 L529 0 Z " />
<glyph glyph-name="Dcroat" unicode="&#x110;" horiz-adv-x="720" d="M73 16 C73 5 78 0 89 0 L336 0 C529 0 688 151 688 349 C688 545 536 700 336 700 L89 700 C78 700 73 695 73 684 L73 401 L24 401 C14 401 9 395 9 384 L9 319 C9 308 14 302 24 302 L73 302 L73 16 Z M205 571 L331 571 C457 571 557 479 557 349 C557 225 456 129 331 129 L205 129 L205 302 L295 302 C306 302 311 307 311 318 L311 385 C311 396 306 401 295 401 L205 401 L205 571 Z " />
<glyph glyph-name="dcroat" unicode="&#x111;" horiz-adv-x="613" d="M597 545 C608 545 613 551 613 562 L613 622 C613 633 608 638 597 638 L545 638 L545 734 C545 745 540 750 529 750 L431 750 C420 750 415 745 415 734 L415 638 L325 638 C316 638 309 631 309 622 L309 562 C309 551 314 545 325 545 L415 545 L415 424 C378 479 319 510 253 510 C112 510 27 383 27 250 C27 120 111 -10 253 -10 C318 -10 379 22 415 76 L415 16 C415 5 420 0 431 0 L529 0 C540 0 545 5 545 16 L545 545 L597 545 Z M158 250 C158 322 212 386 287 386 C325 386 353 374 380 347 C404 319 417 287 417 250 C417 177 363 114 287 114 C213 114 158 177 158 250 L158 250 Z " />
<glyph glyph-name="Emacron" unicode="&#x112;" horiz-adv-x="541" d="M89 700 C78 700 73 695 73 684 L73 16 C73 5 78 0 89 0 L490 0 C501 0 506 5 506 16 L506 113 C506 124 501 129 490 129 L205 129 L205 287 L454 287 C465 287 470 293 470 304 L470 396 C470 407 465 413 454 413 L205 413 L205 571 L489 571 C500 571 505 576 505 587 L505 684 C505 695 500 700 489 700 L89 700 L89 700 Z M138 816 C138 805 143 800 154 800 L422 800 C433 800 438 805 438 816 L438 891 C438 902 433 907 422 907 L154 907 C143 907 138 902 138 891 L138 816 L138 816 Z " />
<glyph glyph-name="emacron" unicode="&#x113;" horiz-adv-x="546" d="M288 100 C221 100 163 142 150 209 L499 209 C511 209 518 214 518 227 C518 374 433 510 271 510 C128 510 27 390 27 250 C27 109 141 -10 284 -10 C352 -10 413 6 471 41 C475 44 477 47 478 51 C479 55 478 59 475 62 L431 124 C428 128 425 131 422 132 C421 132 420 133 419 133 C416 133 412 131 408 129 C367 110 333 100 288 100 L288 100 Z M153 305 C165 366 209 404 271 404 C338 404 378 370 392 305 L153 305 Z M128 619 C128 608 133 603 144 603 L412 603 C423 603 428 608 428 619 L428 694 C428 705 423 710 412 710 L144 710 C133 710 128 705 128 694 L128 619 L128 619 Z " />
<glyph glyph-name="Ebreve" unicode="&#x114;" horiz-adv-x="541" d="M89 700 C78 700 73 695 73 684 L73 16 C73 5 78 0 89 0 L490 0 C501 0 506 5 506 16 L506 113 C506 124 501 129 490 129 L205 129 L205 287 L454 287 C465 287 470 293 470 304 L470 396 C470 407 465 413 454 413 L205 413 L205 571 L489 571 C500 571 505 576 505 587 L505 684 C505 695 500 700 489 700 L89 700 L89 700 Z M456 905 C456 910 452 914 445 916 L383 927 C376 928 372 924 371 917 C369 870 335 848 290 848 C246 848 214 872 209 917 C208 924 204 928 198 927 L136 916 C128 914 124 910 124 905 C130 807 194 755 290 755 C385 755 452 807 456 905 L456 905 Z " />
<glyph glyph-name="ebreve" unicode="&#x115;" horiz-adv-x="546" d="M288 100 C221 100 163 142 150 209 L499 209 C511 209 518 214 518 227 C518 374 433 510 271 510 C128 510 27 390 27 250 C27 109 141 -10 284 -10 C352 -10 413 6 471 41 C475 44 477 47 478 51 C479 55 478 59 475 62 L431 124 C428 128 425 131 422 132 C421 132 420 133 419 133 C416 133 412 131 408 129 C367 110 333 100 288 100 L288 100 Z M153 305 C165 366 209 404 271 404 C338 404 378 370 392 305 L153 305 Z M442 716 C442 721 438 725 431 727 L369 738 C362 739 358 735 357 728 C355 681 321 659 276 659 C232 659 200 683 195 728 C194 735 190 739 184 738 L122 727 C114 725 110 721 110 716 C116 618 180 566 276 566 C371 566 438 618 442 716 L442 716 Z " />
<glyph glyph-name="Edotaccent" unicode="&#x116;" horiz-adv-x="541" d="M89 700 C78 700 73 695 73 684 L73 16 C73 5 78 0 89 0 L490 0 C501 0 506 5 506 16 L506 113 C506 124 501 129 490 129 L205 129 L205 287 L454 287 C465 287 470 293 470 304 L470 396 C470 407 465 413 454 413 L205 413 L205 571 L489 571 C500 571 505 576 505 587 L505 684 C505 695 500 700 489 700 L89 700 L89 700 Z M213 855 C213 815 245 783 285 783 C326 783 359 813 359 855 C359 898 328 929 285 929 C243 929 213 896 213 855 L213 855 Z " />
<glyph glyph-name="edotaccent" unicode="&#x117;" horiz-adv-x="546" d="M288 100 C221 100 163 142 150 209 L499 209 C511 209 518 214 518 227 C518 374 433 510 271 510 C128 510 27 390 27 250 C27 109 141 -10 284 -10 C352 -10 413 6 471 41 C475 44 477 47 478 51 C479 55 478 59 475 62 L431 124 C428 128 425 131 422 132 C421 132 420 133 419 133 C416 133 412 131 408 129 C367 110 333 100 288 100 L288 100 Z M153 305 C165 366 209 404 271 404 C338 404 378 370 392 305 L153 305 Z M196 669 C196 629 228 597 268 597 C309 597 342 627 342 669 C342 712 311 743 268 743 C226 743 196 710 196 669 L196 669 Z " />
<glyph glyph-name="Eogonek" unicode="&#x118;" horiz-adv-x="541" d="M492 0 C496 3 499 6 502 8 C505 10 506 13 506 16 L506 113 C506 124 501 129 490 129 L205 129 L205 287 L454 287 C465 287 470 293 470 304 L470 396 C470 407 465 413 454 413 L205 413 L205 571 L489 571 C500 571 505 576 505 587 L505 684 C505 695 500 700 489 700 L89 700 C78 700 73 695 73 684 L73 16 C73 5 78 0 89 0 L410 0 C388 -22 375 -46 371 -72 C366 -97 370 -120 381 -141 C402 -181 448 -201 491 -201 C503 -201 516 -200 530 -198 C537 -197 540 -193 539 -185 L539 -122 C538 -116 535 -112 531 -112 C530 -112 528 -113 527 -113 C520 -115 513 -115 506 -115 C496 -115 487 -113 480 -108 C469 -101 462 -91 459 -79 C456 -66 458 -53 464 -38 C469 -23 479 -11 492 0 L492 0 Z " />
<glyph glyph-name="eogonek" unicode="&#x119;" horiz-adv-x="546" d="M153 305 C166 367 207 404 271 404 C336 404 379 369 392 305 L153 305 Z M234 -4 C213 -27 201 -51 198 -76 C195 -101 199 -123 211 -143 C234 -184 283 -201 327 -201 C337 -201 348 -200 359 -198 C366 -197 369 -193 368 -185 L367 -122 C366 -115 363 -112 356 -113 C349 -115 342 -115 336 -115 C326 -115 317 -113 311 -110 C300 -103 292 -95 289 -84 C285 -73 285 -60 289 -47 C292 -33 300 -20 311 -9 C368 -4 422 11 471 41 C475 44 477 47 478 51 C479 55 478 59 475 62 L431 124 C428 128 425 131 422 132 C421 132 420 133 419 133 C416 133 412 131 408 129 C367 110 333 100 288 100 C219 100 165 141 150 209 L499 209 C511 209 518 214 518 227 C518 374 433 510 271 510 C128 510 27 390 27 250 C27 131 115 17 234 -4 L234 -4 Z " />
<glyph glyph-name="Ecaron" unicode="&#x11a;" horiz-adv-x="541" d="M89 700 C78 700 73 695 73 684 L73 16 C73 5 78 0 89 0 L490 0 C501 0 506 5 506 16 L506 113 C506 124 501 129 490 129 L205 129 L205 287 L454 287 C465 287 470 293 470 304 L470 396 C470 407 465 413 454 413 L205 413 L205 571 L489 571 C500 571 505 576 505 587 L505 684 C505 695 500 700 489 700 L89 700 L89 700 Z M320 758 C332 758 344 765 351 774 L459 894 C466 901 465 909 457 917 L428 953 C425 957 421 959 416 958 C411 957 407 955 404 952 L290 849 L176 952 C173 955 169 957 164 958 C159 959 155 957 152 953 L123 917 C120 914 118 910 118 906 C117 901 119 897 122 894 L230 774 C236 766 250 758 260 758 L320 758 L320 758 Z " />
<glyph glyph-name="ecaron" unicode="&#x11b;" horiz-adv-x="546" d="M306 553 C318 553 330 560 337 569 L445 689 C452 696 451 704 443 712 L414 748 C411 752 407 754 402 753 C397 752 393 750 390 747 L276 644 L162 747 C159 750 155 752 150 753 C145 754 141 752 138 748 L109 712 C106 709 104 705 104 701 C103 696 105 692 108 689 L216 569 C222 561 236 553 246 553 L306 553 L306 553 Z M288 100 C221 100 163 142 150 209 L499 209 C511 209 518 214 518 227 C518 374 433 510 271 510 C128 510 27 390 27 250 C27 109 141 -10 284 -10 C352 -10 413 6 471 41 C475 44 477 47 478 51 C479 55 478 59 475 62 L431 124 C428 128 425 131 422 132 C421 132 420 133 419 133 C416 133 412 131 408 129 C367 110 333 100 288 100 L288 100 Z M153 305 C165 366 209 404 271 404 C338 404 378 370 392 305 L153 305 Z " />
<glyph glyph-name="Gcircumflex" unicode="&#x11c;" horiz-adv-x="693" d="M499 142 C465 124 428 118 390 118 C263 118 164 221 164 349 C164 476 258 582 390 582 C438 582 477 569 518 544 C523 541 527 539 531 539 C532 539 533 539 535 540 C539 541 543 544 546 549 L597 628 C604 637 602 645 590 652 C528 690 464 710 391 710 C186 710 32 558 32 349 C32 147 184 -10 390 -10 C467 -10 546 6 615 42 C624 47 628 54 628 63 L628 361 C628 372 623 377 612 377 L385 377 C374 377 369 372 369 361 L369 283 C369 272 374 267 385 267 L499 267 L499 142 L499 142 Z M356 943 C344 943 334 936 326 927 L218 807 C214 804 212 800 213 796 C214 791 216 787 219 784 L248 748 C251 745 255 743 258 743 C259 743 260 743 261 744 C265 745 269 746 272 749 L386 852 L500 749 C503 746 507 744 512 743 C517 742 521 744 524 748 L553 784 C561 792 562 800 555 807 L447 927 C438 938 431 943 416 943 L356 943 L356 943 Z " />
<glyph glyph-name="gcircumflex" unicode="&#x11d;" horiz-adv-x="613" d="M158 252 C158 325 211 386 287 386 C363 386 418 329 418 252 C418 178 363 120 287 120 C213 120 158 177 158 252 L158 252 Z M545 484 C545 495 540 500 529 500 L431 500 C420 500 415 495 415 484 L415 424 C372 478 323 510 252 510 C111 510 27 386 27 252 C27 121 109 -4 252 -4 C320 -4 375 28 415 82 L415 11 C415 -77 354 -131 265 -131 C219 -131 171 -117 138 -84 C135 -81 131 -80 128 -80 C124 -80 120 -82 117 -87 L66 -154 C61 -161 61 -169 67 -176 C118 -229 196 -255 268 -255 C427 -255 545 -140 545 23 L545 484 L545 484 Z M275 747 C263 747 253 740 245 731 L137 611 C133 608 131 604 132 600 C133 595 135 591 138 588 L167 552 C170 549 174 547 177 547 C178 547 179 547 180 548 C184 549 188 550 191 553 L305 656 L419 553 C422 550 426 548 431 547 C436 546 440 548 443 552 L472 588 C480 596 481 604 474 611 L366 731 C357 742 350 747 335 747 L275 747 L275 747 Z " />
<glyph glyph-name="Gbreve" unicode="&#x11e;" horiz-adv-x="693" d="M499 142 C465 124 428 118 390 118 C263 118 164 221 164 349 C164 476 258 582 390 582 C438 582 477 569 518 544 C523 541 527 539 531 539 C532 539 533 539 535 540 C539 541 543 544 546 549 L597 628 C604 637 602 645 590 652 C528 690 464 710 391 710 C186 710 32 558 32 349 C32 147 184 -10 390 -10 C467 -10 546 6 615 42 C624 47 628 54 628 63 L628 361 C628 372 623 377 612 377 L385 377 C374 377 369 372 369 361 L369 283 C369 272 374 267 385 267 L499 267 L499 142 L499 142 Z M549 905 C549 910 545 914 538 916 L476 927 C469 928 465 924 464 917 C462 870 428 848 383 848 C339 848 307 872 302 917 C301 924 297 928 291 927 L229 916 C221 914 217 910 217 905 C223 807 287 755 383 755 C478 755 545 807 549 905 L549 905 Z " />
<glyph glyph-name="gbreve" unicode="&#x11f;" horiz-adv-x="613" d="M158 252 C158 325 211 386 287 386 C363 386 418 329 418 252 C418 178 363 120 287 120 C213 120 158 177 158 252 L158 252 Z M545 484 C545 495 540 500 529 500 L431 500 C420 500 415 495 415 484 L415 424 C372 478 323 510 252 510 C111 510 27 386 27 252 C27 121 109 -4 252 -4 C320 -4 375 28 415 82 L415 11 C415 -77 354 -131 265 -131 C219 -131 171 -117 138 -84 C135 -81 131 -80 128 -80 C124 -80 120 -82 117 -87 L66 -154 C61 -161 61 -169 67 -176 C118 -229 196 -255 268 -255 C427 -255 545 -140 545 23 L545 484 L545 484 Z M469 716 C469 721 465 725 458 727 L396 738 C389 739 385 735 384 728 C382 681 348 659 303 659 C259 659 227 683 222 728 C221 735 217 739 211 738 L149 727 C141 725 137 721 137 716 C143 618 207 566 303 566 C398 566 465 618 469 716 L469 716 Z " />
<glyph glyph-name="Gdotaccent" unicode="&#x120;" horiz-adv-x="693" d="M499 142 C465 124 428 118 390 118 C263 118 164 221 164 349 C164 476 258 582 390 582 C438 582 477 569 518 544 C523 541 527 539 531 539 C532 539 533 539 535 540 C539 541 543 544 546 549 L597 628 C604 637 602 645 590 652 C528 690 464 710 391 710 C186 710 32 558 32 349 C32 147 184 -10 390 -10 C467 -10 546 6 615 42 C624 47 628 54 628 63 L628 361 C628 372 623 377 612 377 L385 377 C374 377 369 372 369 361 L369 283 C369 272 374 267 385 267 L499 267 L499 142 L499 142 Z M304 850 C304 810 336 778 376 778 C417 778 450 808 450 850 C450 893 419 924 376 924 C334 924 304 891 304 850 L304 850 Z " />
<glyph glyph-name="gdotaccent" unicode="&#x121;" horiz-adv-x="613" d="M158 252 C158 325 211 386 287 386 C363 386 418 329 418 252 C418 178 363 120 287 120 C213 120 158 177 158 252 L158 252 Z M545 484 C545 495 540 500 529 500 L431 500 C420 500 415 495 415 484 L415 424 C372 478 323 510 252 510 C111 510 27 386 27 252 C27 121 109 -4 252 -4 C320 -4 375 28 415 82 L415 11 C415 -77 354 -131 265 -131 C219 -131 171 -117 138 -84 C135 -81 131 -80 128 -80 C124 -80 120 -82 117 -87 L66 -154 C61 -161 61 -169 67 -176 C118 -229 196 -255 268 -255 C427 -255 545 -140 545 23 L545 484 L545 484 Z M225 669 C225 629 257 597 297 597 C338 597 371 627 371 669 C371 712 340 743 297 743 C255 743 225 710 225 669 L225 669 Z " />
<glyph glyph-name="uni0122" unicode="&#x122;" horiz-adv-x="693" d="M499 142 C465 124 428 118 390 118 C263 118 164 221 164 349 C164 476 258 582 390 582 C438 582 478 569 518 542 C522 539 526 537 530 537 C531 537 533 537 534 538 C539 540 542 543 545 547 L597 628 C604 637 602 645 590 652 C528 690 464 710 391 710 C186 710 32 558 32 349 C32 147 184 -10 390 -10 C466 -10 548 5 615 42 C624 47 628 54 628 63 L628 361 C628 372 623 377 612 377 L385 377 C374 377 369 372 369 361 L369 283 C369 272 374 267 385 267 L499 267 L499 142 L499 142 Z M303 -256 C302 -265 306 -269 315 -269 L394 -269 C404 -269 410 -265 412 -257 L453 -62 C455 -53 452 -49 443 -49 L347 -49 C338 -49 333 -53 332 -62 L303 -256 L303 -256 Z " />
<glyph glyph-name="uni0123" unicode="&#x123;" horiz-adv-x="613" d="M158 252 C158 325 211 386 287 386 C363 386 418 329 418 252 C418 178 363 120 287 120 C213 120 158 177 158 252 L158 252 Z M545 484 C545 495 540 500 529 500 L431 500 C420 500 415 495 415 484 L415 424 C372 478 323 510 252 510 C111 510 27 386 27 252 C27 121 109 -4 252 -4 C320 -4 375 28 415 82 L415 11 C415 -77 354 -131 265 -131 C219 -131 171 -117 138 -84 C135 -81 131 -80 128 -80 C124 -80 120 -82 117 -87 L66 -154 C61 -161 61 -169 67 -176 C118 -229 196 -255 268 -255 C427 -255 545 -140 545 23 L545 484 L545 484 Z M381 775 C382 784 378 788 369 788 L290 788 C280 788 274 784 272 775 L231 581 C229 572 232 568 241 568 L337 568 C346 568 351 572 352 581 L381 775 L381 775 Z " />
<glyph glyph-name="Hcircumflex" unicode="&#x124;" horiz-adv-x="696" d="M189 0 C200 0 205 5 205 16 L205 288 L491 288 L491 16 C491 5 497 0 508 0 L607 0 C618 0 623 5 623 16 L623 684 C623 695 618 700 607 700 L508 700 C497 700 491 695 491 684 L491 420 L205 420 L205 684 C205 695 200 700 189 700 L89 700 C78 700 73 695 73 684 L73 16 C73 5 78 0 89 0 L189 0 L189 0 Z M318 943 C306 943 296 936 288 927 L180 807 C176 804 174 800 175 796 C176 791 178 787 181 784 L210 748 C213 745 217 743 220 743 C221 743 222 743 223 744 C227 745 231 746 234 749 L348 852 L462 749 C465 746 469 744 474 743 C479 742 483 744 486 748 L515 784 C523 792 524 800 517 807 L409 927 C400 938 393 943 378 943 L318 943 L318 943 Z " />
<glyph glyph-name="hcircumflex" unicode="&#x125;" horiz-adv-x="606" d="M182 0 C193 0 198 5 198 16 L198 261 C198 276 201 291 207 306 C221 349 266 386 312 386 C389 386 417 328 417 258 L417 16 C417 5 422 0 433 0 L531 0 C542 0 547 5 547 16 L547 283 C547 409 496 510 357 510 C294 510 232 478 198 424 L198 734 C198 745 193 750 182 750 L84 750 C73 750 68 745 68 734 L68 16 C68 5 73 0 84 0 L182 0 L182 0 Z M102 964 C90 964 80 957 72 948 L-36 828 C-40 825 -42 821 -41 817 C-40 812 -38 808 -35 805 L-6 769 C-3 766 1 764 4 764 C5 764 6 764 7 765 C11 766 15 767 18 770 L132 873 L246 770 C249 767 253 765 258 764 C263 763 267 765 270 769 L299 805 C307 813 308 821 301 828 L193 948 C184 959 177 964 162 964 L102 964 L102 964 Z " />
<glyph glyph-name="Hbar" unicode="&#x126;" horiz-adv-x="696" d="M493 418 L207 418 L207 500 L493 500 L493 418 Z M692 500 C704 500 707 505 707 517 L707 556 C707 567 702 572 692 572 L623 572 L623 684 C623 695 618 700 607 700 L508 700 C497 700 491 695 491 684 L491 572 L205 572 L205 684 C205 695 199 700 188 700 L91 700 C79 700 73 695 73 684 L73 572 L6 572 C0 572 -4 571 -6 569 C-8 566 -9 562 -9 556 L-9 517 C-9 507 -5 500 6 500 L73 500 L73 16 C73 5 79 0 90 0 L188 0 C199 0 205 5 205 16 L205 286 L491 286 L491 16 C491 5 497 0 508 0 L607 0 C618 0 623 5 623 16 L623 500 L692 500 Z " />
<glyph glyph-name="hbar" unicode="&#x127;" horiz-adv-x="606" d="M198 734 C198 745 193 750 182 750 L84 750 C73 750 68 745 68 734 L68 649 L16 649 C5 649 0 643 0 632 L0 572 C0 561 5 556 16 556 L68 556 L68 16 C68 5 73 0 84 0 L182 0 C193 0 198 5 198 16 L198 261 C198 276 201 291 207 306 C221 349 266 386 312 386 C389 386 417 328 417 258 L417 16 C417 5 422 0 433 0 L531 0 C542 0 547 5 547 16 L547 283 C547 409 496 510 357 510 C294 510 232 478 198 424 L198 556 L288 556 C299 556 305 561 305 572 L305 632 C305 643 299 649 288 649 L198 649 L198 734 Z " />
<glyph glyph-name="Itilde" unicode="&#x128;" horiz-adv-x="268" d="M184 -2 C195 -2 200 3 200 14 L200 682 C200 693 195 698 184 698 L84 698 C73 698 68 693 68 682 L68 14 C68 3 73 -2 84 -2 L184 -2 L184 -2 Z M205 874 C193 874 182 877 172 883 C162 889 152 896 141 903 C115 920 93 932 61 932 C24 932 -17 904 -41 878 C-48 872 -50 864 -47 854 L-31 793 C-30 789 -27 783 -23 783 C-21 783 -18 785 -15 788 C-2 801 11 812 24 823 C37 834 52 839 67 839 C79 839 90 836 100 830 C110 824 121 818 132 811 C159 794 178 782 211 782 C249 782 288 809 313 836 C319 842 321 850 318 860 L303 921 C301 927 298 930 295 930 C293 930 290 929 287 926 C274 913 261 902 248 891 C234 880 220 874 205 874 L205 874 Z " />
<glyph glyph-name="itilde" unicode="&#x129;" horiz-adv-x="266" d="M203 683 C191 683 180 686 170 692 C160 698 150 705 139 712 C113 729 91 741 59 741 C22 741 -19 713 -43 687 C-50 681 -52 673 -49 663 L-33 602 C-32 598 -29 592 -25 592 C-23 592 -20 594 -17 597 C-4 610 9 621 22 632 C35 643 50 648 65 648 C77 648 88 645 98 639 C108 633 119 627 130 620 C157 603 176 591 209 591 C247 591 286 618 311 645 C317 651 319 659 316 669 L301 730 C299 736 296 739 293 739 C291 739 288 738 285 735 C272 722 259 711 246 700 C232 689 218 683 203 683 L203 683 Z M182 0 C193 0 198 5 198 16 L198 484 C198 495 193 500 182 500 L84 500 C73 500 68 495 68 484 L68 16 C68 5 73 0 84 0 L182 0 L182 0 Z " />
<glyph glyph-name="Imacron" unicode="&#x12a;" horiz-adv-x="268" d="M184 0 C195 0 200 5 200 16 L200 684 C200 695 195 700 184 700 L84 700 C73 700 68 695 68 684 L68 16 C68 5 73 0 84 0 L184 0 L184 0 Z M-16 832 C-16 821 -11 816 0 816 L268 816 C279 816 284 821 284 832 L284 907 C284 918 279 923 268 923 L0 923 C-11 923 -16 918 -16 907 L-16 832 L-16 832 Z " />
<glyph glyph-name="imacron" unicode="&#x12b;" horiz-adv-x="266" d="M182 0 C193 0 198 5 198 16 L198 484 C198 495 193 500 182 500 L84 500 C73 500 68 495 68 484 L68 16 C68 5 73 0 84 0 L182 0 L182 0 Z M-16 619 C-16 608 -11 603 0 603 L268 603 C279 603 284 608 284 619 L284 694 C284 705 279 710 268 710 L0 710 C-11 710 -16 705 -16 694 L-16 619 L-16 619 Z " />
<glyph glyph-name="Iogonek" unicode="&#x12e;" horiz-adv-x="268" d="M90 0 C67 -22 53 -46 49 -72 C45 -97 49 -120 61 -141 C82 -180 129 -201 172 -201 C184 -201 197 -200 211 -198 C217 -197 220 -193 220 -185 L219 -122 C219 -114 215 -113 208 -113 C201 -114 195 -115 189 -115 C165 -115 142 -101 136 -76 C133 -63 136 -49 144 -35 C151 -21 164 -9 183 0 C194 0 199 5 199 16 L199 684 C199 695 194 700 183 700 L84 700 C73 700 68 695 68 684 L68 16 C68 5 73 0 84 0 L90 0 L90 0 Z " />
<glyph glyph-name="iogonek" unicode="&#x12f;" horiz-adv-x="266" d="M90 0 C67 -22 53 -46 49 -72 C45 -97 49 -120 61 -141 C82 -180 129 -201 172 -201 C184 -201 197 -200 211 -198 C217 -197 220 -193 220 -185 L219 -122 C219 -114 215 -113 208 -113 C201 -114 195 -115 189 -115 C165 -115 142 -101 136 -76 C133 -63 136 -49 143 -35 C150 -21 163 -9 182 0 C193 0 198 5 198 16 L198 484 C198 495 193 500 182 500 L84 500 C73 500 68 495 68 484 L68 16 C68 5 73 0 84 0 L90 0 L90 0 Z M57 684 C57 663 64 646 79 632 C93 617 111 610 132 610 C174 610 209 641 209 684 C209 729 177 762 132 762 C88 762 57 727 57 684 L57 684 Z " />
<glyph glyph-name="Idotaccent" unicode="&#x130;" horiz-adv-x="268" d="M184 0 C195 0 200 5 200 16 L200 684 C200 695 195 700 184 700 L84 700 C73 700 68 695 68 684 L68 16 C68 5 73 0 84 0 L184 0 L184 0 Z M61 855 C61 815 93 783 133 783 C174 783 207 813 207 855 C207 898 176 929 133 929 C91 929 61 896 61 855 L61 855 Z " />
<glyph glyph-name="dotlessi" unicode="&#x131;" horiz-adv-x="266" d="M182 0 C193 0 198 5 198 16 L198 484 C198 495 193 500 182 500 L84 500 C73 500 68 495 68 484 L68 16 C68 5 73 0 84 0 L182 0 L182 0 Z " />
<glyph glyph-name="IJ" unicode="&#x132;" horiz-adv-x="774" d="M189 0 C200 0 205 5 205 16 L205 684 C205 695 200 700 189 700 L89 700 C78 700 73 695 73 684 L73 16 C73 5 78 0 89 0 L189 0 L189 0 Z M701 684 C701 695 696 700 685 700 L585 700 C574 700 569 695 569 684 L569 228 C569 168 538 118 473 118 C440 118 407 128 380 146 C375 149 371 150 368 151 C363 151 359 149 356 144 L308 67 C305 62 304 57 306 54 C307 50 310 47 313 44 C363 7 422 -10 483 -10 C613 -10 701 83 701 215 L701 684 L701 684 Z " />
<glyph glyph-name="ij" unicode="&#x133;" horiz-adv-x="587" d="M202 0 C213 0 218 5 218 16 L218 484 C218 495 213 500 202 500 L104 500 C93 500 88 495 88 484 L88 16 C88 5 93 0 104 0 L202 0 L202 0 Z M77 684 C77 663 84 646 99 632 C113 617 131 610 152 610 C194 610 229 641 229 684 C229 729 197 762 152 762 C108 762 77 727 77 684 L77 684 Z M222 -205 C218 -215 220 -222 229 -225 C267 -245 296 -255 339 -255 C364 -255 386 -251 407 -243 C447 -225 476 -199 493 -158 C500 -138 504 -116 504 -93 L504 484 C504 495 498 500 487 500 L390 500 C379 500 374 495 374 484 L374 -69 C374 -90 369 -106 359 -116 C349 -125 337 -130 322 -130 C312 -130 304 -129 297 -128 C290 -126 284 -123 277 -120 C274 -119 272 -118 270 -118 C265 -118 262 -121 259 -126 L222 -205 L222 -205 Z M363 684 C363 663 370 646 385 632 C399 617 416 610 437 610 C478 610 515 642 515 684 C515 727 480 762 437 762 C395 762 363 725 363 684 L363 684 Z " />
<glyph glyph-name="Jcircumflex" unicode="&#x134;" horiz-adv-x="494" d="M421 684 C421 695 416 700 405 700 L306 700 C295 700 289 695 289 684 L289 228 C289 168 258 118 193 118 C159 118 129 129 100 146 C95 149 91 151 87 151 C83 151 80 149 77 144 L29 67 C26 62 25 57 26 54 C27 50 30 47 33 44 C82 8 143 -10 204 -10 C333 -10 421 84 421 215 L421 684 L421 684 Z M324 943 C312 943 302 936 294 927 L186 807 C182 804 180 800 181 796 C182 791 184 787 187 784 L216 748 C219 745 223 743 226 743 C227 743 228 743 229 744 C233 745 237 746 240 749 L354 852 L468 749 C471 746 475 744 480 743 C485 742 489 744 492 748 L521 784 C529 792 530 800 523 807 L415 927 C406 938 399 943 384 943 L324 943 L324 943 Z " />
<glyph glyph-name="jcircumflex" unicode="&#x135;" horiz-adv-x="303" d="M-56 -205 C-60 -215 -57 -222 -48 -225 C-11 -245 18 -255 61 -255 C86 -255 108 -251 129 -243 C169 -225 198 -199 215 -158 C222 -138 226 -116 226 -93 L226 484 C226 495 221 500 210 500 L112 500 C101 500 96 495 96 484 L96 -69 C96 -90 91 -106 81 -116 C71 -125 59 -130 44 -130 C35 -130 27 -129 20 -128 C13 -126 6 -123 -1 -120 C-4 -119 -6 -118 -8 -118 C-13 -118 -16 -121 -19 -126 L-56 -205 L-56 -205 Z M131 747 C119 747 109 740 101 731 L-7 611 C-11 608 -13 604 -12 600 C-11 595 -9 591 -6 588 L23 552 C26 549 30 547 33 547 C34 547 35 547 36 548 C40 549 44 550 47 553 L161 656 L275 553 C278 550 282 548 287 547 C292 546 296 548 299 552 L328 588 C336 596 337 604 330 611 L222 731 C213 742 206 747 191 747 L131 747 L131 747 Z " />
<glyph glyph-name="uni0136" unicode="&#x136;" horiz-adv-x="668" d="M639 0 C645 0 649 2 651 5 C652 8 651 12 648 16 L383 410 L627 684 C631 688 633 692 632 695 C631 698 627 700 622 700 L493 700 C478 700 470 694 460 684 L205 406 L205 684 C205 695 200 700 189 700 L89 700 C78 700 73 695 73 684 L73 16 C73 5 78 0 89 0 L189 0 C200 0 205 5 205 16 L205 228 L287 316 L489 16 C493 11 497 7 502 4 C506 1 512 0 519 0 L639 0 Z M253 -256 C252 -265 256 -269 265 -269 L344 -269 C353 -269 359 -265 362 -257 L403 -62 C404 -53 401 -49 393 -49 L297 -49 C288 -49 283 -53 282 -62 L253 -256 L253 -256 Z " />
<glyph glyph-name="uni0137" unicode="&#x137;" horiz-adv-x="548" d="M207 -256 C206 -265 210 -269 219 -269 L297 -269 C307 -269 313 -265 315 -257 L356 -62 C358 -53 355 -49 346 -49 L250 -49 C241 -49 236 -53 235 -62 L207 -256 L207 -256 Z M380 15 C386 4 400 0 412 0 L522 0 C527 0 530 2 531 5 C532 8 530 12 527 17 L350 292 L512 484 C515 487 517 491 517 495 C516 498 513 500 508 500 L389 500 C378 500 368 496 361 488 L198 311 L198 734 C198 745 193 750 182 750 L84 750 C73 750 68 745 68 734 L68 16 C68 5 73 0 84 0 L182 0 C193 0 198 5 198 16 L198 148 L252 206 L380 15 L380 15 Z " />
<glyph glyph-name="kgreenlandic" unicode="&#x138;" horiz-adv-x="548" d="M380 15 C386 4 400 0 412 0 L522 0 C527 0 530 2 531 5 C532 8 530 12 527 17 L350 292 L512 484 C515 487 517 491 517 495 C516 498 513 500 508 500 L389 500 C378 500 368 496 361 488 L198 311 L198 484 C198 495 193 500 182 500 L84 500 C73 500 68 495 68 484 L68 16 C68 5 73 0 84 0 L182 0 C193 0 198 5 198 16 L198 148 L252 206 L380 15 L380 15 Z " />
<glyph glyph-name="Lacute" unicode="&#x139;" horiz-adv-x="499" d="M454 0 C465 0 470 5 470 16 L470 112 C470 123 465 128 454 128 L205 128 L205 684 C205 695 200 700 189 700 L89 700 C78 700 73 695 73 684 L73 16 C73 5 78 0 89 0 L454 0 L454 0 Z M157 752 C160 751 163 750 165 750 C170 750 174 753 178 758 L272 909 C278 918 276 925 265 929 L187 956 C185 957 183 957 181 957 C174 957 169 953 166 945 L98 795 C94 786 96 779 105 775 L157 752 L157 752 Z " />
<glyph glyph-name="lacute" unicode="&#x13a;" horiz-adv-x="272" d="M188 0 C199 0 204 5 204 16 L204 734 C204 745 199 750 188 750 L90 750 C79 750 74 745 74 734 L74 16 C74 5 79 0 90 0 L188 0 L188 0 Z M158 776 C161 775 164 774 166 774 C171 774 175 777 179 782 L273 933 C279 942 277 949 266 953 L188 980 C186 981 184 981 182 981 C175 981 170 977 167 969 L99 819 C95 810 97 803 106 799 L158 776 L158 776 Z " />
<glyph glyph-name="uni013B" unicode="&#x13b;" horiz-adv-x="499" d="M454 0 C465 0 470 5 470 16 L470 112 C470 123 465 128 454 128 L205 128 L205 684 C205 695 200 700 189 700 L89 700 C78 700 73 695 73 684 L73 16 C73 5 78 0 89 0 L454 0 L454 0 Z M182 -256 C181 -265 184 -269 193 -269 L272 -269 C282 -269 288 -265 290 -257 L331 -62 C333 -53 330 -49 321 -49 L225 -49 C216 -49 211 -53 210 -62 L182 -256 L182 -256 Z " />
<glyph glyph-name="uni013C" unicode="&#x13c;" horiz-adv-x="266" d="M182 0 C193 0 198 5 198 16 L198 734 C198 745 193 750 182 750 L85 750 C74 750 68 745 68 734 L68 16 C68 5 74 0 85 0 L182 0 L182 0 Z M43 -256 C42 -265 46 -269 55 -269 L134 -269 C144 -269 150 -265 152 -257 L193 -62 C195 -53 192 -49 183 -49 L87 -49 C78 -49 73 -53 72 -62 L43 -256 L43 -256 Z " />
<glyph glyph-name="Lcaron" unicode="&#x13d;" horiz-adv-x="522" d="M454 0 C465 0 470 5 470 16 L470 112 C470 123 465 128 454 128 L205 128 L205 684 C205 695 200 700 189 700 L89 700 C78 700 73 695 73 684 L73 16 C73 5 78 0 89 0 L454 0 L454 0 Z M357 493 C356 484 360 480 369 480 L448 480 C458 480 464 484 466 492 L507 687 C509 696 506 700 497 700 L401 700 C392 700 387 696 386 687 L357 493 L357 493 Z " />
<glyph glyph-name="lcaron" unicode="&#x13e;" horiz-adv-x="387" d="M182 0 C193 0 198 5 198 16 L198 734 C198 745 193 750 182 750 L84 750 C73 750 68 745 68 734 L68 16 C68 5 73 0 84 0 L182 0 L182 0 Z M260 543 C259 534 263 530 272 530 L350 530 C360 530 366 534 368 542 L410 737 C411 746 408 750 399 750 L304 750 C295 750 290 746 289 737 L260 543 L260 543 Z " />
<glyph glyph-name="Ldot" unicode="&#x13f;" horiz-adv-x="521" d="M454 0 C465 0 470 5 470 16 L470 112 C470 123 465 128 454 128 L205 128 L205 684 C205 695 200 700 189 700 L89 700 C78 700 73 695 73 684 L73 16 C73 5 78 0 89 0 L454 0 L454 0 Z M347 420 C347 380 379 348 419 348 C460 348 493 378 493 420 C493 463 462 494 419 494 C377 494 347 461 347 420 L347 420 Z " />
<glyph glyph-name="ldot" unicode="&#x140;" horiz-adv-x="436" d="M191 0 C202 0 207 5 207 16 L207 734 C207 745 202 750 191 750 L93 750 C82 750 77 745 77 734 L77 16 C77 5 82 0 93 0 L191 0 L191 0 Z M305 379 C305 339 337 307 377 307 C418 307 451 337 451 379 C451 422 420 453 377 453 C335 453 305 420 305 379 L305 379 Z " />
<glyph glyph-name="Lslash" unicode="&#x141;" horiz-adv-x="499" d="M73 16 C73 5 78 0 89 0 L454 0 C465 0 470 5 470 16 L470 112 C470 123 465 128 454 128 L205 128 L205 331 L378 392 C388 397 392 404 389 413 L368 471 C366 478 362 482 356 482 C354 482 351 481 348 480 L205 430 L205 684 C205 695 200 700 189 700 L89 700 C78 700 73 695 73 684 L73 384 L-4 357 C-13 352 -17 345 -14 336 L7 278 C10 271 15 267 21 267 C23 267 26 267 28 268 L73 284 L73 16 Z " />
<glyph glyph-name="lslash" unicode="&#x142;" horiz-adv-x="390" d="M126 16 C126 5 131 0 142 0 L239 0 C250 0 256 5 256 16 L256 357 L391 405 C392 406 395 408 399 411 C402 414 403 419 401 426 L380 484 C378 491 375 495 370 495 C365 494 361 494 360 493 L256 455 L256 734 C256 745 250 750 239 750 L142 750 C131 750 126 745 126 734 L126 411 L-1 365 C-8 362 -12 359 -12 354 C-11 349 -11 345 -10 344 L10 286 C11 285 13 282 16 278 C18 275 20 273 24 273 C26 273 28 274 31 275 L126 311 L126 16 Z " />
<glyph glyph-name="Nacute" unicode="&#x143;" horiz-adv-x="744" d="M655 0 C666 0 671 5 671 16 L671 684 C671 695 666 700 655 700 L555 700 C544 700 539 695 539 684 L539 229 L217 684 C214 689 210 693 207 696 C203 699 197 700 190 700 L89 700 C78 700 73 695 73 684 L73 16 C73 5 78 0 89 0 L189 0 C200 0 205 5 205 16 L205 471 L527 16 C530 11 534 7 538 4 C541 1 547 0 554 0 L655 0 Z M379 752 C382 751 385 750 387 750 C392 750 396 753 400 758 L494 909 C500 918 498 925 487 929 L409 956 C407 957 405 957 403 957 C396 957 391 953 388 945 L320 795 C316 786 318 779 327 775 L379 752 L379 752 Z " />
<glyph glyph-name="nacute" unicode="&#x144;" horiz-adv-x="606" d="M531 0 C542 0 547 5 547 16 L547 283 C547 409 496 510 357 510 C292 510 233 473 198 419 L198 484 C198 495 193 500 182 500 L84 500 C73 500 68 495 68 484 L68 16 C68 5 73 0 84 0 L182 0 C193 0 198 5 198 16 L198 266 C198 281 201 295 207 310 C222 354 266 386 312 386 C389 386 417 328 417 258 L417 16 C417 5 422 0 433 0 L531 0 L531 0 Z M313 551 C316 550 319 549 321 549 C326 549 330 552 334 557 L428 708 C434 717 432 724 421 728 L343 755 C341 756 339 756 337 756 C330 756 325 752 322 744 L254 594 C250 585 252 578 261 574 L313 551 L313 551 Z " />
<glyph glyph-name="uni0145" unicode="&#x145;" horiz-adv-x="744" d="M655 0 C666 0 671 5 671 16 L671 684 C671 695 666 700 655 700 L555 700 C544 700 539 695 539 684 L539 229 L217 684 C214 689 210 693 207 696 C203 699 197 700 190 700 L89 700 C78 700 73 695 73 684 L73 16 C73 5 78 0 89 0 L189 0 C200 0 205 5 205 16 L205 471 L527 16 C530 11 534 7 538 4 C541 1 547 0 554 0 L655 0 Z M282 -256 C281 -265 285 -269 294 -269 L372 -269 C382 -269 388 -265 390 -257 L432 -62 C433 -53 430 -49 421 -49 L326 -49 C317 -49 312 -53 311 -62 L282 -256 L282 -256 Z " />
<glyph glyph-name="uni0146" unicode="&#x146;" horiz-adv-x="606" d="M531 0 C542 0 547 5 547 16 L547 283 C547 409 496 510 357 510 C292 510 233 473 198 419 L198 484 C198 495 193 500 182 500 L84 500 C73 500 68 495 68 484 L68 16 C68 5 73 0 84 0 L182 0 C193 0 198 5 198 16 L198 266 C198 281 201 295 207 310 C222 354 266 386 312 386 C389 386 417 328 417 258 L417 16 C417 5 422 0 433 0 L531 0 L531 0 Z M218 -256 C217 -265 220 -269 229 -269 L308 -269 C318 -269 324 -265 326 -257 L367 -62 C369 -53 366 -49 357 -49 L261 -49 C252 -49 247 -53 246 -62 L218 -256 L218 -256 Z " />
<glyph glyph-name="Ncaron" unicode="&#x147;" horiz-adv-x="744" d="M655 0 C666 0 671 5 671 16 L671 684 C671 695 666 700 655 700 L555 700 C544 700 539 695 539 684 L539 229 L217 684 C214 689 210 693 207 696 C203 699 197 700 190 700 L89 700 C78 700 73 695 73 684 L73 16 C73 5 78 0 89 0 L189 0 C200 0 205 5 205 16 L205 471 L527 16 C530 11 534 7 538 4 C541 1 547 0 554 0 L655 0 Z M402 758 C414 758 426 765 433 774 L541 894 C548 901 547 909 539 917 L510 953 C507 957 503 959 498 958 C493 957 489 955 486 952 L372 849 L258 952 C255 955 251 957 246 958 C241 959 237 957 234 953 L205 917 C202 914 200 910 200 906 C199 901 201 897 204 894 L312 774 C318 766 332 758 342 758 L402 758 L402 758 Z " />
<glyph glyph-name="ncaron" unicode="&#x148;" horiz-adv-x="606" d="M531 0 C542 0 547 5 547 16 L547 283 C547 409 496 510 357 510 C292 510 233 473 198 419 L198 484 C198 495 193 500 182 500 L84 500 C73 500 68 495 68 484 L68 16 C68 5 73 0 84 0 L182 0 C193 0 198 5 198 16 L198 266 C198 281 201 295 207 310 C222 354 266 386 312 386 C389 386 417 328 417 258 L417 16 C417 5 422 0 433 0 L531 0 L531 0 Z M335 547 C347 547 359 554 366 563 L474 683 C481 690 480 698 472 706 L443 742 C440 746 436 748 431 747 C426 746 422 744 419 741 L305 638 L191 741 C188 744 184 746 179 747 C174 748 170 746 167 742 L138 706 C135 703 133 699 133 695 C132 690 134 686 137 683 L245 563 C251 555 265 547 275 547 L335 547 L335 547 Z " />
<glyph glyph-name="napostrophe" unicode="&#x149;" horiz-adv-x="606" d="M531 0 C542 0 547 5 547 16 L547 283 C547 409 496 510 357 510 C292 510 233 473 198 419 L198 484 C198 495 193 500 182 500 L84 500 C73 500 68 495 68 484 L68 16 C68 5 73 0 84 0 L182 0 C193 0 198 5 198 16 L198 266 C198 281 201 295 207 310 C222 354 266 386 312 386 C389 386 417 328 417 258 L417 16 C417 5 422 0 433 0 L531 0 L531 0 Z M41 567 C40 558 44 554 53 554 L131 554 C141 554 147 558 149 566 L186 737 C188 746 185 750 176 750 L81 750 C72 750 67 746 66 737 L41 567 L41 567 Z " />
<glyph glyph-name="Omacron" unicode="&#x14c;" horiz-adv-x="782" d="M390 710 C189 710 32 553 32 349 C32 149 186 -10 390 -10 C590 -10 750 145 750 349 C750 551 596 710 390 710 L390 710 Z M390 118 C262 118 164 220 164 349 C164 476 258 582 390 582 C520 582 618 480 618 349 C618 222 520 118 390 118 L390 118 Z M242 816 C242 805 247 800 258 800 L526 800 C537 800 542 805 542 816 L542 891 C542 902 537 907 526 907 L258 907 C247 907 242 902 242 891 L242 816 L242 816 Z " />
<glyph glyph-name="omacron" unicode="&#x14d;" horiz-adv-x="568" d="M27 250 C27 108 139 -10 284 -10 C427 -10 541 106 541 250 C541 393 430 510 284 510 C141 510 27 394 27 250 L27 250 Z M154 250 C154 324 207 386 284 386 C360 386 414 326 414 250 C414 177 360 114 284 114 C251 114 213 129 192 154 C167 179 154 214 154 250 L154 250 Z M135 619 C135 608 140 603 151 603 L419 603 C430 603 435 608 435 619 L435 694 C435 705 430 710 419 710 L151 710 C140 710 135 705 135 694 L135 619 L135 619 Z " />
<glyph glyph-name="Obreve" unicode="&#x14e;" horiz-adv-x="782" d="M390 710 C189 710 32 553 32 349 C32 149 186 -10 390 -10 C590 -10 750 145 750 349 C750 551 596 710 390 710 L390 710 Z M390 118 C262 118 164 220 164 349 C164 476 258 582 390 582 C520 582 618 480 618 349 C618 222 520 118 390 118 L390 118 Z M557 905 C557 910 553 914 546 916 L484 927 C477 928 473 924 472 917 C470 870 436 848 391 848 C347 848 315 872 310 917 C309 924 305 928 299 927 L237 916 C229 914 225 910 225 905 C231 807 295 755 391 755 C486 755 553 807 557 905 L557 905 Z " />
<glyph glyph-name="obreve" unicode="&#x14f;" horiz-adv-x="568" d="M27 250 C27 108 139 -10 284 -10 C427 -10 541 106 541 250 C541 393 430 510 284 510 C141 510 27 394 27 250 L27 250 Z M154 250 C154 324 207 386 284 386 C360 386 414 326 414 250 C414 177 360 114 284 114 C251 114 213 129 192 154 C167 179 154 214 154 250 L154 250 Z M450 716 C450 721 446 725 439 727 L377 738 C370 739 366 735 365 728 C363 681 329 659 284 659 C240 659 208 683 203 728 C202 735 198 739 192 738 L130 727 C122 725 118 721 118 716 C124 618 188 566 284 566 C379 566 446 618 450 716 L450 716 Z " />
<glyph glyph-name="Ohungarumlaut" unicode="&#x150;" horiz-adv-x="782" d="M390 710 C189 710 32 553 32 349 C32 149 186 -10 390 -10 C590 -10 750 145 750 349 C750 551 596 710 390 710 L390 710 Z M390 118 C262 118 164 220 164 349 C164 476 258 582 390 582 C520 582 618 480 618 349 C618 222 520 118 390 118 L390 118 Z M321 751 C324 749 327 749 329 749 C331 749 333 749 335 750 C338 752 341 755 344 758 L434 909 C436 912 437 916 436 920 C435 924 432 927 427 928 L350 955 C347 956 345 956 342 956 C335 956 331 953 328 945 L261 793 C260 790 260 786 261 782 C262 777 265 774 270 772 L321 751 L321 751 Z M506 751 C509 749 512 749 514 749 C521 749 525 753 529 758 L624 908 C626 911 627 915 626 919 C625 923 622 926 617 927 L536 955 C533 956 531 956 529 956 C522 956 517 952 514 945 L447 793 C446 790 446 786 447 782 C448 777 451 774 456 772 L506 751 L506 751 Z " />
<glyph glyph-name="ohungarumlaut" unicode="&#x151;" horiz-adv-x="568" d="M27 250 C27 108 139 -10 284 -10 C427 -10 541 106 541 250 C541 393 430 510 284 510 C141 510 27 394 27 250 L27 250 Z M154 250 C154 324 207 386 284 386 C360 386 414 326 414 250 C414 177 360 114 284 114 C251 114 213 129 192 154 C167 179 154 214 154 250 L154 250 Z M215 543 C218 541 221 541 223 541 C225 541 227 541 229 542 C232 544 235 547 238 550 L328 701 C330 704 331 708 330 712 C329 716 326 719 321 720 L244 747 C241 748 239 748 236 748 C229 748 225 745 222 737 L155 585 C154 582 154 578 155 574 C156 569 159 566 164 564 L215 543 L215 543 Z M400 543 C403 541 406 541 408 541 C415 541 419 545 423 550 L518 700 C520 703 521 707 520 711 C519 715 516 718 511 719 L430 747 C427 748 425 748 423 748 C416 748 411 744 408 737 L341 585 C340 582 340 578 341 574 C342 569 345 566 350 564 L400 543 L400 543 Z " />
<glyph glyph-name="OE" unicode="&#x152;" horiz-adv-x="1130" d="M390 118 C264 118 164 223 164 349 C164 473 263 582 390 582 C516 582 618 475 618 349 C618 224 518 118 390 118 L390 118 Z M1078 -10 C1089 -10 1095 -4 1095 7 L1095 102 C1095 113 1089 118 1078 118 L640 118 C700 155 737 216 742 287 L1043 287 C1054 287 1060 292 1060 303 L1060 398 C1060 409 1054 415 1043 415 L742 415 C736 483 697 546 640 582 L1078 582 C1089 582 1095 587 1095 598 L1095 693 C1095 704 1089 710 1078 710 L391 710 C190 710 32 553 32 349 C32 146 195 -10 400 -10 L1078 -10 L1078 -10 Z " />
<glyph glyph-name="oe" unicode="&#x153;" horiz-adv-x="932" d="M414 250 C414 177 360 114 284 114 C251 114 213 129 192 154 C167 179 154 214 154 250 C154 324 207 386 284 386 C360 386 414 326 414 250 L414 250 Z M480 96 C521 30 594 -10 671 -10 C739 -10 798 6 857 41 C866 47 868 54 862 62 L818 124 C815 129 811 132 806 132 C802 132 799 131 795 129 C756 110 719 100 675 100 C607 100 552 142 537 209 L887 209 C899 209 905 215 905 227 C905 374 820 510 658 510 C579 510 519 472 476 407 C434 472 361 510 284 510 C141 510 27 394 27 250 C27 108 139 -10 284 -10 C365 -10 436 29 480 96 L480 96 Z M540 305 C552 366 595 404 658 404 C726 404 763 370 779 305 L540 305 Z " />
<glyph glyph-name="Racute" unicode="&#x154;" horiz-adv-x="599" d="M301 580 C372 580 429 544 429 468 C429 392 372 356 301 356 L205 356 L205 580 L301 580 L301 580 Z M413 257 C501 284 561 378 561 468 C561 601 470 700 332 700 L89 700 C78 700 73 695 73 684 L73 16 C73 5 78 0 89 0 L189 0 C200 0 205 5 205 16 L205 236 L277 236 L423 16 C430 5 439 0 452 0 L562 0 C576 0 579 6 571 17 L413 257 L413 257 Z M300 752 C303 751 306 750 308 750 C313 750 317 753 321 758 L415 909 C421 918 419 925 408 929 L330 956 C328 957 326 957 324 957 C317 957 312 953 309 945 L241 795 C237 786 239 779 248 775 L300 752 L300 752 Z " />
<glyph glyph-name="racute" unicode="&#x155;" horiz-adv-x="415" d="M84 500 C73 500 68 495 68 484 L68 16 C68 5 73 0 84 0 L182 0 C193 0 198 5 198 16 L198 232 C198 302 235 382 316 382 C337 382 341 381 361 374 C365 372 368 372 371 372 C376 372 380 375 382 381 L408 471 C410 476 411 481 411 485 C404 505 347 510 329 510 C314 510 299 507 285 502 C259 491 236 471 219 448 C210 437 204 425 199 413 L198 413 L198 484 C198 495 193 500 182 500 L84 500 L84 500 Z M254 551 C257 550 260 549 262 549 C267 549 271 552 275 557 L369 708 C375 717 373 724 362 728 L284 755 C282 756 280 756 278 756 C271 756 266 752 263 744 L195 594 C191 585 193 578 202 574 L254 551 L254 551 Z " />
<glyph glyph-name="uni0156" unicode="&#x156;" horiz-adv-x="599" d="M234 -256 C233 -265 237 -269 246 -269 L325 -269 C335 -269 341 -265 343 -257 L384 -62 C386 -53 383 -49 374 -49 L278 -49 C269 -49 264 -53 263 -62 L234 -256 L234 -256 Z M302 580 C373 580 430 544 430 468 C430 392 373 356 302 356 L205 356 L205 580 L302 580 L302 580 Z M413 257 C501 284 561 378 561 468 C561 601 470 700 332 700 L89 700 C78 700 73 695 73 684 L73 16 C73 5 78 0 89 0 L189 0 C200 0 205 5 205 16 L205 236 L277 236 L423 16 C430 5 439 0 452 0 L562 0 C576 0 579 6 571 17 L413 257 L413 257 Z " />
<glyph glyph-name="uni0157" unicode="&#x157;" horiz-adv-x="415" d="M43 -256 C42 -265 46 -269 55 -269 L133 -269 C143 -269 149 -265 151 -257 L193 -62 C194 -53 191 -49 182 -49 L87 -49 C78 -49 73 -53 72 -62 L43 -256 L43 -256 Z M84 500 C73 500 68 495 68 484 L68 16 C68 5 73 0 84 0 L182 0 C193 0 198 5 198 16 L198 232 C198 302 235 382 316 382 C337 382 341 381 361 374 C365 372 368 372 371 372 C376 372 380 375 382 381 L408 471 C410 476 411 481 411 485 C404 505 347 510 329 510 C314 510 299 507 285 502 C259 491 236 471 219 448 C210 437 204 425 199 413 L198 413 L198 484 C198 495 193 500 182 500 L84 500 L84 500 Z " />
<glyph glyph-name="Rcaron" unicode="&#x158;" horiz-adv-x="599" d="M301 580 C372 580 429 544 429 468 C429 392 372 356 301 356 L205 356 L205 580 L301 580 L301 580 Z M413 257 C501 284 561 378 561 468 C561 601 470 700 332 700 L89 700 C78 700 73 695 73 684 L73 16 C73 5 78 0 89 0 L189 0 C200 0 205 5 205 16 L205 236 L277 236 L423 16 C430 5 439 0 452 0 L562 0 C576 0 579 6 571 17 L413 257 L413 257 Z M323 758 C335 758 347 765 354 774 L462 894 C469 901 468 909 460 917 L431 953 C428 957 424 959 419 958 C414 957 410 955 407 952 L293 849 L179 952 C176 955 172 957 167 958 C162 959 158 957 155 953 L126 917 C123 914 121 910 121 906 C120 901 122 897 125 894 L233 774 C239 766 253 758 263 758 L323 758 L323 758 Z " />
<glyph glyph-name="rcaron" unicode="&#x159;" horiz-adv-x="415" d="M84 500 C73 500 68 495 68 484 L68 16 C68 5 73 0 84 0 L182 0 C193 0 198 5 198 16 L198 232 C198 302 235 382 316 382 C337 382 341 381 361 374 C365 372 368 372 371 372 C376 372 380 375 382 381 L408 471 C410 476 411 481 411 485 C404 505 347 510 329 510 C314 510 299 507 285 502 C259 491 236 471 219 448 C210 437 204 425 199 413 L198 413 L198 484 C198 495 193 500 182 500 L84 500 L84 500 Z M274 551 C286 551 298 558 305 567 L413 687 C420 694 419 702 411 710 L382 746 C379 750 375 752 370 751 C365 750 361 748 358 745 L244 642 L130 745 C127 748 123 750 118 751 C113 752 109 750 106 746 L77 710 C74 707 72 703 72 699 C71 694 73 690 76 687 L184 567 C190 559 204 551 214 551 L274 551 L274 551 Z " />
<glyph glyph-name="Sacute" unicode="&#x15a;" horiz-adv-x="540" d="M472 630 C477 639 476 647 467 654 C406 692 351 710 279 710 C164 710 48 643 48 515 C48 410 114 348 210 314 C237 303 263 293 287 283 C325 265 371 245 371 196 C371 138 316 116 266 116 C215 116 150 143 111 175 C106 179 104 179 98 179 C93 178 89 175 86 171 L36 95 C33 90 32 85 34 82 C35 79 38 75 41 72 C106 22 182 -10 265 -10 C387 -10 503 63 503 198 C503 307 439 365 342 405 C314 415 288 425 264 435 C229 449 180 471 180 515 C180 564 231 584 273 584 C316 584 357 568 393 545 C397 543 400 541 404 541 C405 541 407 542 408 542 C413 543 416 546 419 549 L472 630 L472 630 Z M290 752 C293 751 296 750 298 750 C303 750 307 753 311 758 L405 909 C411 918 409 925 398 929 L320 956 C318 957 316 957 314 957 C307 957 302 953 299 945 L231 795 C227 786 229 779 238 775 L290 752 L290 752 Z " />
<glyph glyph-name="sacute" unicode="&#x15b;" horiz-adv-x="438" d="M114 150 C109 154 104 156 100 156 C96 156 92 153 88 149 L35 93 C31 89 29 85 28 80 C27 75 29 71 32 67 C79 16 149 -10 217 -10 C309 -10 408 41 408 145 C408 224 358 266 290 297 C269 306 250 314 233 321 C215 328 200 335 189 342 C177 349 171 357 171 366 C171 392 203 399 224 399 C239 399 254 396 268 390 C281 383 294 376 305 369 C309 366 313 365 317 365 C322 365 325 366 329 370 L384 429 C392 437 392 444 384 451 C340 490 280 510 222 510 C136 510 42 461 42 364 C42 288 92 242 160 216 C181 208 200 201 217 194 C234 187 249 179 261 171 C272 163 278 153 278 140 C278 128 273 119 262 113 C251 106 237 103 220 103 C178 103 146 126 114 150 L114 150 Z M240 551 C243 550 246 549 248 549 C253 549 257 552 261 557 L355 708 C361 717 359 724 348 728 L270 755 C268 756 266 756 264 756 C257 756 252 752 249 744 L181 594 C177 585 179 578 188 574 L240 551 L240 551 Z " />
<glyph glyph-name="Scircumflex" unicode="&#x15c;" horiz-adv-x="540" d="M472 630 C477 639 476 647 467 654 C406 692 351 710 279 710 C164 710 48 643 48 515 C48 410 114 348 210 314 C237 303 263 293 287 283 C325 265 371 245 371 196 C371 138 316 116 266 116 C215 116 150 143 111 175 C106 179 104 179 98 179 C93 178 89 175 86 171 L36 95 C33 90 32 85 34 82 C35 79 38 75 41 72 C106 22 182 -10 265 -10 C387 -10 503 63 503 198 C503 307 439 365 342 405 C314 415 288 425 264 435 C229 449 180 471 180 515 C180 564 231 584 273 584 C316 584 357 568 393 545 C397 543 400 541 404 541 C405 541 407 542 408 542 C413 543 416 546 419 549 L472 630 L472 630 Z M241 943 C229 943 219 936 211 927 L103 807 C99 804 97 800 98 796 C99 791 101 787 104 784 L133 748 C136 745 140 743 143 743 C144 743 145 743 146 744 C150 745 154 746 157 749 L271 852 L385 749 C388 746 392 744 397 743 C402 742 406 744 409 748 L438 784 C446 792 447 800 440 807 L332 927 C323 938 316 943 301 943 L241 943 L241 943 Z " />
<glyph glyph-name="scircumflex" unicode="&#x15d;" horiz-adv-x="438" d="M114 150 C109 154 104 156 100 156 C96 156 92 153 88 149 L35 93 C31 89 29 85 28 80 C27 75 29 71 32 67 C79 16 149 -10 217 -10 C309 -10 408 41 408 145 C408 224 358 266 290 297 C269 306 250 314 233 321 C215 328 200 335 189 342 C177 349 171 357 171 366 C171 392 203 399 224 399 C239 399 254 396 268 390 C281 383 294 376 305 369 C309 366 313 365 317 365 C322 365 325 366 329 370 L384 429 C392 437 392 444 384 451 C340 490 280 510 222 510 C136 510 42 461 42 364 C42 288 92 242 160 216 C181 208 200 201 217 194 C234 187 249 179 261 171 C272 163 278 153 278 140 C278 128 273 119 262 113 C251 106 237 103 220 103 C178 103 146 126 114 150 L114 150 Z M191 747 C179 747 169 740 161 731 L53 611 C49 608 47 604 48 600 C49 595 51 591 54 588 L83 552 C86 549 90 547 93 547 C94 547 95 547 96 548 C100 549 104 550 107 553 L221 656 L335 553 C338 550 342 548 347 547 C352 546 356 548 359 552 L388 588 C396 596 397 604 390 611 L282 731 C273 742 266 747 251 747 L191 747 L191 747 Z " />
<glyph glyph-name="Scedilla" unicode="&#x15e;" horiz-adv-x="541" d="M185 -162 C184 -165 184 -168 187 -171 C189 -174 192 -175 197 -175 L283 -175 C293 -175 299 -171 301 -162 L330 -2 C428 16 503 95 503 198 C503 307 441 366 342 405 C314 415 288 425 264 435 C229 449 180 471 180 515 C180 564 231 584 273 584 C315 584 358 568 393 545 C397 543 400 541 404 541 C405 541 407 542 408 542 C413 543 416 546 419 549 L472 630 C477 639 476 647 467 654 C406 692 351 710 279 710 C164 710 48 643 48 515 C48 410 114 348 210 314 C237 303 263 293 287 283 C325 265 371 245 371 196 C371 138 316 116 266 116 C215 116 150 143 111 175 C106 179 104 179 98 179 C93 178 89 175 86 171 L36 95 C33 90 32 85 34 82 C35 79 38 75 41 72 C101 28 158 -1 233 -8 L185 -162 L185 -162 Z " />
<glyph glyph-name="scedilla" unicode="&#x15f;" horiz-adv-x="438" d="M277 -2 C349 13 408 68 408 145 C408 224 358 266 290 297 C269 306 250 314 233 321 C215 328 200 334 189 341 C177 348 171 356 171 366 C171 392 204 399 224 399 C254 399 281 386 305 369 C309 366 313 365 317 365 C322 365 325 366 329 370 L384 429 C392 437 392 444 384 451 C340 490 280 510 222 510 C136 510 42 461 42 364 C42 288 92 242 160 216 C181 208 200 200 217 193 C234 186 249 178 261 170 C272 162 278 152 278 140 C278 109 245 103 220 103 C180 103 145 126 114 150 C109 154 104 155 100 155 C96 155 92 153 88 149 L35 93 C31 89 29 85 28 80 C27 75 29 71 32 67 C73 26 123 1 181 -6 L132 -162 C131 -165 131 -168 134 -171 C137 -174 140 -175 144 -175 L230 -175 C241 -175 247 -171 248 -162 L277 -2 L277 -2 Z " />
<glyph glyph-name="Scaron" unicode="&#x160;" horiz-adv-x="540" d="M472 630 C477 639 476 647 467 654 C406 692 351 710 279 710 C164 710 48 643 48 515 C48 410 114 348 210 314 C237 303 263 293 287 283 C325 265 371 245 371 196 C371 138 316 116 266 116 C215 116 150 143 111 175 C106 179 104 179 98 179 C93 178 89 175 86 171 L36 95 C33 90 32 85 34 82 C35 79 38 75 41 72 C106 22 182 -10 265 -10 C387 -10 503 63 503 198 C503 307 439 365 342 405 C314 415 288 425 264 435 C229 449 180 471 180 515 C180 564 231 584 273 584 C316 584 357 568 393 545 C397 543 400 541 404 541 C405 541 407 542 408 542 C413 543 416 546 419 549 L472 630 L472 630 Z M303 758 C315 758 327 765 334 774 L442 894 C449 901 448 909 440 917 L411 953 C408 957 404 959 399 958 C394 957 390 955 387 952 L273 849 L159 952 C156 955 152 957 147 958 C142 959 138 957 135 953 L106 917 C103 914 101 910 101 906 C100 901 102 897 105 894 L213 774 C219 766 233 758 243 758 L303 758 L303 758 Z " />
<glyph glyph-name="scaron" unicode="&#x161;" horiz-adv-x="438" d="M114 150 C109 154 104 156 100 156 C96 156 92 153 88 149 L35 93 C31 89 29 85 28 80 C27 75 29 71 32 67 C79 16 149 -10 217 -10 C309 -10 408 41 408 145 C408 224 358 266 290 297 C269 306 250 314 233 321 C215 328 200 335 189 342 C177 349 171 357 171 366 C171 392 203 399 224 399 C239 399 254 396 268 390 C281 383 294 376 305 369 C309 366 313 365 317 365 C322 365 325 366 329 370 L384 429 C392 437 392 444 384 451 C340 490 280 510 222 510 C136 510 42 461 42 364 C42 288 92 242 160 216 C181 208 200 201 217 194 C234 187 249 179 261 171 C272 163 278 153 278 140 C278 128 273 119 262 113 C251 106 237 103 220 103 C178 103 146 126 114 150 L114 150 Z M252 552 C264 552 276 559 283 568 L391 688 C398 695 397 703 389 711 L360 747 C357 751 353 753 348 752 C343 751 339 749 336 746 L222 643 L108 746 C105 749 101 751 96 752 C91 753 87 751 84 747 L55 711 C52 708 50 704 50 700 C49 695 51 691 54 688 L162 568 C168 560 182 552 192 552 L252 552 L252 552 Z " />
<glyph glyph-name="uni0162" unicode="&#x162;" horiz-adv-x="578" d="M339 0 C350 0 355 5 355 16 L355 571 L540 571 C551 571 556 576 556 587 L556 684 C556 695 551 700 540 700 L38 700 C27 700 22 695 22 684 L22 587 C22 576 27 571 38 571 L223 571 L223 16 C223 5 228 0 239 0 L339 0 L339 0 Z M199 -256 C198 -265 201 -269 210 -269 L289 -269 C299 -269 305 -265 307 -257 L348 -62 C350 -53 347 -49 338 -49 L243 -49 C234 -49 229 -53 228 -62 L199 -256 L199 -256 Z " />
<glyph glyph-name="uni0163" unicode="&#x163;" horiz-adv-x="418" d="M348 123 C346 128 343 130 339 130 C337 130 335 129 332 128 C323 123 314 120 306 118 C298 115 289 114 278 114 C263 114 251 118 242 126 C233 133 228 146 228 163 L228 381 L346 381 C357 381 362 386 362 397 L362 484 C362 495 356 500 345 500 L228 500 L228 632 C228 643 222 648 211 648 L114 648 C103 648 98 643 98 632 L98 500 L50 500 C39 500 34 495 34 484 L34 397 C34 386 39 381 50 381 L98 381 L98 146 C98 46 156 -10 255 -10 C276 -10 297 -8 317 -3 C332 1 383 18 388 33 C388 36 387 39 386 43 L348 123 L348 123 Z M122 -256 C121 -265 125 -269 134 -269 L213 -269 C222 -269 228 -265 231 -257 L272 -62 C273 -53 270 -49 262 -49 L166 -49 C157 -49 152 -53 151 -62 L122 -256 L122 -256 Z " />
<glyph glyph-name="Tcaron" unicode="&#x164;" horiz-adv-x="578" d="M339 0 C350 0 355 5 355 16 L355 571 L540 571 C551 571 556 576 556 587 L556 684 C556 695 551 700 540 700 L38 700 C27 700 22 695 22 684 L22 587 C22 576 27 571 38 571 L223 571 L223 16 C223 5 228 0 239 0 L339 0 L339 0 Z M319 758 C331 758 343 765 350 774 L458 894 C465 901 464 909 456 917 L427 953 C424 957 420 959 415 958 C410 957 406 955 403 952 L289 849 L175 952 C172 955 168 957 163 958 C158 959 154 957 151 953 L122 917 C119 914 117 910 117 906 C116 901 118 897 121 894 L229 774 C235 766 249 758 259 758 L319 758 L319 758 Z " />
<glyph glyph-name="tcaron" unicode="&#x165;" horiz-adv-x="464" d="M291 570 C290 561 293 557 302 557 L381 557 C391 557 397 561 399 569 L440 764 C442 773 439 777 430 777 L334 777 C325 777 320 773 319 764 L291 570 L291 570 Z M348 123 C346 128 343 130 339 130 C337 130 335 129 332 128 C323 123 314 120 306 118 C298 115 289 114 278 114 C263 114 251 118 242 126 C233 133 228 146 228 163 L228 381 L346 381 C357 381 362 386 362 397 L362 484 C362 495 356 500 345 500 L228 500 L228 632 C228 643 222 648 211 648 L114 648 C103 648 98 643 98 632 L98 500 L50 500 C39 500 34 495 34 484 L34 397 C34 386 39 381 50 381 L98 381 L98 146 C98 46 156 -10 255 -10 C276 -10 297 -8 317 -3 C332 1 383 18 388 33 C388 36 387 39 386 43 L348 123 L348 123 Z " />
<glyph glyph-name="Tbar" unicode="&#x166;" horiz-adv-x="578" d="M223 16 C223 5 228 0 239 0 L339 0 C350 0 355 5 355 16 L355 260 L510 260 C521 260 526 265 526 276 L526 372 C526 383 521 388 510 388 L355 388 L355 571 L540 571 C551 571 556 576 556 587 L556 684 C556 695 551 700 540 700 L38 700 C27 700 22 695 22 684 L22 587 C22 576 27 571 38 571 L223 571 L223 388 L68 388 C57 388 52 383 52 372 L52 276 C52 265 57 260 68 260 L223 260 L223 16 Z " />
<glyph glyph-name="tbar" unicode="&#x167;" horiz-adv-x="418" d="M299 238 C310 238 315 243 315 254 L315 280 C315 291 309 296 298 296 L228 296 L228 381 L346 381 C357 381 362 386 362 397 L362 484 C362 495 356 500 345 500 L228 500 L228 632 C228 643 222 648 211 648 L114 648 C103 648 98 643 98 632 L98 500 L50 500 C39 500 34 495 34 484 L34 397 C34 386 39 381 50 381 L98 381 L98 296 L67 296 C56 296 51 291 51 280 L51 254 C51 243 56 238 67 238 L98 238 L98 146 C98 46 156 -10 255 -10 C276 -10 297 -8 317 -3 C332 1 383 18 388 33 C388 36 387 39 386 43 L348 123 C346 128 343 130 339 130 C337 130 335 129 332 128 C323 123 314 120 306 118 C298 115 289 114 278 114 C263 114 251 118 242 126 C233 133 228 146 228 163 L228 238 L299 238 Z " />
<glyph glyph-name="Utilde" unicode="&#x168;" horiz-adv-x="693" d="M83 700 C72 700 67 695 67 684 L67 272 C67 108 175 -10 346 -10 C511 -10 626 103 626 272 L626 684 C626 695 621 700 610 700 L510 700 C499 700 494 695 494 684 L494 295 C494 197 454 118 346 118 C238 118 199 198 199 295 L199 684 C199 695 194 700 183 700 L83 700 L83 700 Z M416 874 C404 874 393 877 383 883 C373 889 363 896 352 903 C326 920 304 932 272 932 C235 932 194 904 170 878 C163 872 161 864 164 854 L180 793 C181 789 183 786 186 784 C186 783 187 783 188 783 C190 783 193 785 196 788 C209 801 222 812 235 823 C248 834 263 839 278 839 C290 839 301 836 311 830 C321 824 332 818 343 811 C370 794 389 782 422 782 C460 782 499 809 524 836 C530 842 532 850 529 860 L514 921 C512 927 509 930 506 930 C504 930 501 929 498 926 C485 913 472 902 459 891 C445 880 431 874 416 874 L416 874 Z " />
<glyph glyph-name="utilde" unicode="&#x169;" horiz-adv-x="606" d="M75 500 C64 500 59 495 59 484 L59 217 C59 91 110 -10 249 -10 C315 -10 373 25 408 81 L408 16 C408 5 413 0 424 0 L522 0 C533 0 538 5 538 16 L538 484 C538 495 533 500 522 500 L424 500 C413 500 408 495 408 484 L408 234 C408 173 357 114 294 114 C217 114 189 172 189 242 L189 484 C189 495 184 500 173 500 L75 500 L75 500 Z M367 683 C355 683 344 686 334 692 C324 698 314 705 303 712 C277 729 255 741 223 741 C186 741 145 713 121 687 C114 681 112 673 115 663 L131 602 C132 598 134 595 137 593 C137 592 138 592 139 592 C141 592 144 594 147 597 C160 610 173 621 186 632 C199 643 214 648 229 648 C241 648 252 645 262 639 C272 633 283 627 294 620 C321 603 340 591 373 591 C411 591 450 618 475 645 C481 651 483 659 480 669 L465 730 C463 736 460 739 457 739 C455 739 452 738 449 735 C436 722 423 711 410 700 C396 689 382 683 367 683 L367 683 Z " />
<glyph glyph-name="Umacron" unicode="&#x16a;" horiz-adv-x="693" d="M83 700 C72 700 67 695 67 684 L67 272 C67 108 175 -10 346 -10 C511 -10 626 103 626 272 L626 684 C626 695 621 700 610 700 L510 700 C499 700 494 695 494 684 L494 295 C494 197 454 118 346 118 C238 118 199 198 199 295 L199 684 C199 695 194 700 183 700 L83 700 L83 700 Z M197 816 C197 805 202 800 213 800 L481 800 C492 800 497 805 497 816 L497 891 C497 902 492 907 481 907 L213 907 C202 907 197 902 197 891 L197 816 L197 816 Z " />
<glyph glyph-name="umacron" unicode="&#x16b;" horiz-adv-x="606" d="M75 500 C64 500 59 495 59 484 L59 217 C59 91 110 -10 249 -10 C315 -10 373 25 408 81 L408 16 C408 5 413 0 424 0 L522 0 C533 0 538 5 538 16 L538 484 C538 495 533 500 522 500 L424 500 C413 500 408 495 408 484 L408 234 C408 173 357 114 294 114 C217 114 189 172 189 242 L189 484 C189 495 184 500 173 500 L75 500 L75 500 Z M147 619 C147 608 152 603 163 603 L431 603 C442 603 447 608 447 619 L447 694 C447 705 442 710 431 710 L163 710 C152 710 147 705 147 694 L147 619 L147 619 Z " />
<glyph glyph-name="Ubreve" unicode="&#x16c;" horiz-adv-x="693" d="M83 700 C72 700 67 695 67 684 L67 272 C67 108 175 -10 346 -10 C511 -10 626 103 626 272 L626 684 C626 695 621 700 610 700 L510 700 C499 700 494 695 494 684 L494 295 C494 197 454 118 346 118 C238 118 199 198 199 295 L199 684 C199 695 194 700 183 700 L83 700 L83 700 Z M512 905 C512 910 508 914 501 916 L439 927 C432 928 428 924 427 917 C425 870 391 848 346 848 C302 848 270 872 265 917 C264 924 260 928 254 927 L192 916 C184 914 180 910 180 905 C186 807 250 755 346 755 C441 755 508 807 512 905 L512 905 Z " />
<glyph glyph-name="ubreve" unicode="&#x16d;" horiz-adv-x="606" d="M75 500 C64 500 59 495 59 484 L59 217 C59 91 110 -10 249 -10 C315 -10 373 25 408 81 L408 16 C408 5 413 0 424 0 L522 0 C533 0 538 5 538 16 L538 484 C538 495 533 500 522 500 L424 500 C413 500 408 495 408 484 L408 234 C408 173 357 114 294 114 C217 114 189 172 189 242 L189 484 C189 495 184 500 173 500 L75 500 L75 500 Z M468 703 C468 708 464 712 457 714 L395 725 C388 726 384 722 383 715 C381 668 347 646 302 646 C258 646 226 670 221 715 C220 722 216 726 210 725 L148 714 C140 712 136 708 136 703 C142 605 206 553 302 553 C397 553 464 605 468 703 L468 703 Z " />
<glyph glyph-name="Uring" unicode="&#x16e;" horiz-adv-x="693" d="M83 700 C72 700 67 695 67 684 L67 272 C67 108 175 -10 346 -10 C511 -10 626 103 626 272 L626 684 C626 695 621 700 610 700 L510 700 C499 700 494 695 494 684 L494 295 C494 197 454 118 346 118 C238 118 199 198 199 295 L199 684 C199 695 194 700 183 700 L83 700 L83 700 Z M223 861 C223 794 280 737 347 737 C397 737 440 768 461 813 C467 828 470 844 470 861 C470 878 467 894 461 909 C447 939 425 961 395 975 C380 981 364 984 347 984 C330 984 314 981 299 975 C254 954 223 911 223 861 L223 861 Z M303 861 C303 874 307 884 316 893 C324 902 334 906 347 906 C373 906 392 887 392 861 C392 848 388 838 379 830 C370 821 360 817 347 817 C334 817 324 821 316 830 C307 838 303 848 303 861 L303 861 Z " />
<glyph glyph-name="uring" unicode="&#x16f;" horiz-adv-x="606" d="M75 500 C64 500 59 495 59 484 L59 217 C59 91 110 -10 249 -10 C315 -10 373 25 408 81 L408 16 C408 5 413 0 424 0 L522 0 C533 0 538 5 538 16 L538 484 C538 495 533 500 522 500 L424 500 C413 500 408 495 408 484 L408 234 C408 173 357 114 294 114 C217 114 189 172 189 242 L189 484 C189 495 184 500 173 500 L75 500 L75 500 Z M173 671 C173 604 230 547 297 547 C347 547 390 578 411 623 C417 638 420 654 420 671 C420 688 417 704 411 719 C397 749 375 771 345 785 C330 791 314 794 297 794 C280 794 264 791 249 785 C204 764 173 721 173 671 L173 671 Z M253 671 C253 684 257 694 266 703 C274 712 284 716 297 716 C323 716 342 697 342 671 C342 658 338 648 329 640 C320 631 310 627 297 627 C284 627 274 631 266 640 C257 648 253 658 253 671 L253 671 Z " />
<glyph glyph-name="Uhungarumlaut" unicode="&#x170;" horiz-adv-x="693" d="M83 700 C72 700 67 695 67 684 L67 272 C67 108 175 -10 346 -10 C511 -10 626 103 626 272 L626 684 C626 695 621 700 610 700 L510 700 C499 700 494 695 494 684 L494 295 C494 197 454 118 346 118 C238 118 199 198 199 295 L199 684 C199 695 194 700 183 700 L83 700 L83 700 Z M261 751 C264 749 267 749 269 749 C271 749 273 749 275 750 C278 752 281 755 284 758 L374 909 C376 912 377 916 376 920 C375 924 372 927 367 928 L290 955 C287 956 285 956 282 956 C275 956 271 953 268 945 L201 793 C200 790 200 786 201 782 C202 777 205 774 210 772 L261 751 L261 751 Z M446 751 C449 749 452 749 454 749 C461 749 465 753 469 758 L564 908 C566 911 567 915 566 919 C565 923 562 926 557 927 L476 955 C473 956 471 956 469 956 C462 956 457 952 454 945 L387 793 C386 790 386 786 387 782 C388 777 391 774 396 772 L446 751 L446 751 Z " />
<glyph glyph-name="uhungarumlaut" unicode="&#x171;" horiz-adv-x="606" d="M75 500 C64 500 59 495 59 484 L59 217 C59 91 110 -10 249 -10 C315 -10 373 25 408 81 L408 16 C408 5 413 0 424 0 L522 0 C533 0 538 5 538 16 L538 484 C538 495 533 500 522 500 L424 500 C413 500 408 495 408 484 L408 234 C408 173 357 114 294 114 C217 114 189 172 189 242 L189 484 C189 495 184 500 173 500 L75 500 L75 500 Z M215 533 C218 531 221 531 223 531 C225 531 227 531 229 532 C232 534 235 537 238 540 L328 691 C330 694 331 698 330 702 C329 706 326 709 321 710 L244 737 C241 738 239 738 236 738 C229 738 225 735 222 727 L155 575 C154 572 154 568 155 564 C156 559 159 556 164 554 L215 533 L215 533 Z M400 533 C403 531 406 531 408 531 C415 531 419 535 423 540 L518 690 C520 693 521 697 520 701 C519 705 516 708 511 709 L430 737 C427 738 425 738 423 738 C416 738 411 734 408 727 L341 575 C340 572 340 568 341 564 C342 559 345 556 350 554 L400 533 L400 533 Z " />
<glyph glyph-name="Uogonek" unicode="&#x172;" horiz-adv-x="693" d="M307 -8 C285 -29 272 -52 269 -77 C266 -101 270 -123 282 -143 C307 -185 355 -201 401 -201 C411 -201 422 -200 434 -198 C440 -197 443 -193 443 -185 L443 -122 C443 -114 438 -113 431 -113 C423 -115 416 -115 409 -115 C387 -115 362 -104 354 -82 C350 -70 351 -57 356 -43 C361 -29 372 -17 388 -7 C535 10 626 123 626 272 L626 684 C626 695 621 700 610 700 L510 700 C499 700 494 695 494 684 L494 295 C494 197 454 118 346 118 C238 118 199 198 199 295 L199 684 C199 695 194 700 183 700 L83 700 C72 700 67 695 67 684 L67 272 C67 123 153 12 307 -8 L307 -8 Z " />
<glyph glyph-name="uogonek" unicode="&#x173;" horiz-adv-x="606" d="M408 16 C408 4 411 0 424 0 L450 0 C427 -21 413 -44 408 -69 C403 -94 406 -118 417 -139 C439 -182 487 -201 533 -201 C543 -201 554 -200 566 -198 C572 -197 575 -193 575 -186 L574 -122 C574 -114 570 -113 563 -113 C556 -115 549 -115 542 -115 C532 -115 523 -113 516 -108 C504 -101 497 -91 494 -79 C491 -66 492 -53 498 -38 C503 -23 513 -11 528 0 C533 0 536 2 537 5 C538 8 538 11 538 16 L538 483 C538 494 533 500 522 500 L424 500 C413 500 408 495 408 484 L408 234 C408 173 357 114 294 114 C217 114 189 172 189 242 L189 484 C189 495 184 500 173 500 L75 500 C64 500 59 495 59 484 L59 217 C59 91 110 -10 249 -10 C315 -10 373 25 408 81 L408 16 L408 16 Z " />
<glyph glyph-name="Wcircumflex" unicode="&#x174;" horiz-adv-x="941" d="M743 0 C756 0 760 5 764 17 L927 683 C930 694 927 700 916 700 L806 700 C793 700 788 696 785 683 L674 209 L547 688 C544 696 538 700 530 700 L412 700 C403 700 398 696 395 688 L268 209 L157 683 C154 696 149 700 136 700 L25 700 C14 700 11 694 14 683 L178 17 C181 6 188 0 199 0 L322 0 C335 0 342 6 345 17 L471 497 L597 17 C599 6 607 0 620 0 L743 0 L743 0 Z M441 943 C429 943 419 936 411 927 L303 807 C299 804 297 800 298 796 C299 791 301 787 304 784 L333 748 C336 745 340 743 343 743 C344 743 345 743 346 744 C350 745 354 746 357 749 L471 852 L585 749 C588 746 592 744 597 743 C602 742 606 744 609 748 L638 784 C646 792 647 800 640 807 L532 927 C523 938 516 943 501 943 L441 943 L441 943 Z " />
<glyph glyph-name="wcircumflex" unicode="&#x175;" horiz-adv-x="729" d="M140 484 C137 495 130 500 121 500 L23 500 C13 500 10 495 13 484 C32 397 50 319 66 251 C73 222 79 193 86 166 C92 138 98 113 103 91 C109 65 115 41 120 18 C123 6 130 0 140 0 L266 0 C278 0 286 6 288 18 L364 344 L441 18 C442 13 445 8 449 5 C452 2 457 0 463 0 L588 0 C594 0 599 2 602 6 C605 9 607 13 609 18 L716 484 C719 495 715 500 706 500 L608 500 C599 500 592 495 589 484 L517 166 L437 483 C435 494 429 500 418 500 L311 500 C300 500 294 494 292 483 C277 424 264 371 252 324 C247 304 242 285 237 266 C232 247 228 230 225 215 C221 200 218 188 216 179 L212 166 L140 484 L140 484 Z M334 732 C322 732 312 725 304 716 L196 596 C192 593 190 589 191 585 C192 580 194 576 197 573 L226 537 C229 534 233 532 236 532 C237 532 238 532 239 533 C243 534 247 535 250 538 L364 641 L478 538 C481 535 485 533 490 532 C495 531 499 533 502 537 L531 573 C539 581 540 589 533 596 L425 716 C416 727 409 732 394 732 L334 732 L334 732 Z " />
<glyph glyph-name="Ycircumflex" unicode="&#x176;" horiz-adv-x="604" d="M156 690 C153 697 147 700 138 700 L22 700 C18 700 15 698 14 695 C13 691 13 687 16 684 L237 340 L237 16 C237 5 242 0 253 0 L352 0 C363 0 368 5 368 16 L368 340 L588 684 C591 687 591 691 590 695 C589 698 586 700 582 700 L467 700 C459 700 453 697 449 690 L302 454 L156 690 L156 690 Z M272 943 C260 943 250 936 242 927 L134 807 C130 804 128 800 129 796 C130 791 132 787 135 784 L164 748 C167 745 171 743 174 743 C175 743 176 743 177 744 C181 745 185 746 188 749 L302 852 L416 749 C419 746 423 744 428 743 C433 742 437 744 440 748 L469 784 C477 792 478 800 471 807 L363 927 C354 938 347 943 332 943 L272 943 L272 943 Z " />
<glyph glyph-name="ycircumflex" unicode="&#x177;" horiz-adv-x="607" d="M539 484 C539 495 534 500 523 500 L426 500 C415 500 409 495 409 484 L409 244 C409 180 362 124 295 124 C219 124 190 184 190 252 L190 484 C190 495 185 500 174 500 L76 500 C65 500 60 495 60 484 L60 227 C60 101 111 0 250 0 C306 0 384 33 409 84 L409 13 C409 -73 362 -131 270 -131 C225 -131 176 -114 147 -78 C144 -75 141 -74 138 -74 C135 -74 131 -76 127 -81 L76 -148 C70 -155 70 -162 77 -169 C124 -227 201 -255 274 -255 C437 -255 539 -138 539 25 L539 484 L539 484 Z M270 747 C258 747 248 740 240 731 L132 611 C128 608 126 604 127 600 C128 595 130 591 133 588 L162 552 C165 549 169 547 172 547 C173 547 174 547 175 548 C179 549 183 550 186 553 L300 656 L414 553 C417 550 421 548 426 547 C431 546 435 548 438 552 L467 588 C475 596 476 604 469 611 L361 731 C352 742 345 747 330 747 L270 747 L270 747 Z " />
<glyph glyph-name="Ydieresis" unicode="&#x178;" horiz-adv-x="604" d="M156 690 C153 697 147 700 138 700 L22 700 C18 700 15 698 14 695 C13 691 13 687 16 684 L237 340 L237 16 C237 5 242 0 253 0 L352 0 C363 0 368 5 368 16 L368 340 L588 684 C591 687 591 691 590 695 C589 698 586 700 582 700 L467 700 C459 700 453 697 449 690 L302 454 L156 690 L156 690 Z M119 840 C119 800 151 769 191 769 C231 769 264 800 264 840 C264 881 232 913 191 913 C150 913 119 881 119 840 L119 840 Z M340 840 C340 800 371 769 411 769 C451 769 485 799 485 840 C485 882 453 913 411 913 C369 913 340 881 340 840 L340 840 Z " />
<glyph glyph-name="Zacute" unicode="&#x179;" horiz-adv-x="602" d="M41 16 C41 5 46 0 57 0 L544 0 C555 0 561 5 561 16 L561 113 C561 124 555 129 544 129 L217 129 L545 579 C547 582 548 585 549 587 C550 589 550 593 550 600 L550 684 C550 695 545 700 534 700 L71 700 C60 700 55 695 55 684 L55 587 C55 576 60 571 71 571 L377 571 L55 129 C46 118 41 105 41 91 L41 16 L41 16 Z M309 753 C312 752 315 751 317 751 C322 751 326 754 330 759 L424 910 C430 919 428 926 417 930 L339 957 C337 958 335 958 333 958 C326 958 321 954 318 946 L250 796 C246 787 248 780 257 776 L309 753 L309 753 Z " />
<glyph glyph-name="zacute" unicode="&#x17a;" horiz-adv-x="466" d="M32 16 C32 5 37 0 48 0 L417 0 C428 0 434 5 434 16 L434 101 C434 112 428 117 417 117 L203 117 L406 392 C411 399 415 405 418 412 C420 419 421 427 421 436 L421 484 C421 495 416 500 405 500 L61 500 C50 500 45 495 45 484 L45 399 C45 388 50 383 61 383 L252 383 L47 105 C42 99 38 93 36 88 C33 83 32 76 32 67 L32 16 L32 16 Z M246 551 C249 550 252 549 254 549 C259 549 263 552 267 557 L361 708 C367 717 365 724 354 728 L276 755 C274 756 272 756 270 756 C263 756 258 752 255 744 L187 594 C183 585 185 578 194 574 L246 551 L246 551 Z " />
<glyph glyph-name="Zdotaccent" unicode="&#x17b;" horiz-adv-x="602" d="M41 16 C41 5 46 0 57 0 L544 0 C555 0 561 5 561 16 L561 113 C561 124 555 129 544 129 L217 129 L545 579 C547 582 548 585 549 587 C550 589 550 593 550 600 L550 684 C550 695 545 700 534 700 L71 700 C60 700 55 695 55 684 L55 587 C55 576 60 571 71 571 L377 571 L55 129 C46 118 41 105 41 91 L41 16 L41 16 Z M229 872 C229 832 261 800 301 800 C342 800 375 830 375 872 C375 915 344 946 301 946 C259 946 229 913 229 872 L229 872 Z " />
<glyph glyph-name="zdotaccent" unicode="&#x17c;" horiz-adv-x="466" d="M32 16 C32 5 37 0 48 0 L417 0 C428 0 434 5 434 16 L434 101 C434 112 428 117 417 117 L203 117 L406 392 C411 399 415 405 418 412 C420 419 421 427 421 436 L421 484 C421 495 416 500 405 500 L61 500 C50 500 45 495 45 484 L45 399 C45 388 50 383 61 383 L252 383 L47 105 C42 99 38 93 36 88 C33 83 32 76 32 67 L32 16 L32 16 Z M157 669 C157 629 189 597 229 597 C270 597 303 627 303 669 C303 712 272 743 229 743 C187 743 157 710 157 669 L157 669 Z " />
<glyph glyph-name="Zcaron" unicode="&#x17d;" horiz-adv-x="602" d="M41 16 C41 5 46 0 57 0 L544 0 C555 0 561 5 561 16 L561 113 C561 124 555 129 544 129 L217 129 L545 579 C547 582 548 585 549 587 C550 589 550 593 550 600 L550 684 C550 695 545 700 534 700 L71 700 C60 700 55 695 55 684 L55 587 C55 576 60 571 71 571 L377 571 L55 129 C46 118 41 105 41 91 L41 16 L41 16 Z M335 758 C347 758 359 765 366 774 L474 894 C481 901 480 909 472 917 L443 953 C440 957 436 959 431 958 C426 957 422 955 419 952 L305 849 L191 952 C188 955 184 957 179 958 C174 959 170 957 167 953 L138 917 C135 914 133 910 133 906 C132 901 134 897 137 894 L245 774 C251 766 265 758 275 758 L335 758 L335 758 Z " />
<glyph glyph-name="zcaron" unicode="&#x17e;" horiz-adv-x="466" d="M32 16 C32 5 37 0 48 0 L417 0 C428 0 434 5 434 16 L434 101 C434 112 428 117 417 117 L203 117 L406 392 C411 399 415 405 418 412 C420 419 421 427 421 436 L421 484 C421 495 416 500 405 500 L61 500 C50 500 45 495 45 484 L45 399 C45 388 50 383 61 383 L252 383 L47 105 C42 99 38 93 36 88 C33 83 32 76 32 67 L32 16 L32 16 Z M266 547 C278 547 290 554 297 563 L405 683 C412 690 411 698 403 706 L374 742 C371 746 367 748 362 747 C357 746 353 744 350 741 L236 638 L122 741 C119 744 115 746 110 747 C105 748 101 746 98 742 L69 706 C66 703 64 699 64 695 C63 690 65 686 68 683 L176 563 C182 555 196 547 206 547 L266 547 L266 547 Z " />
<glyph glyph-name="longs" unicode="&#x17f;" horiz-adv-x="391" d="M233 567 C233 604 247 636 289 636 C299 636 308 635 317 633 C326 630 335 626 345 621 C347 620 350 620 351 620 C355 620 357 621 359 624 L401 696 C402 700 403 704 404 707 C405 710 402 713 397 716 C357 744 311 760 262 760 C162 760 103 697 103 598 L103 500 L46 500 C35 500 30 495 30 484 L30 397 C30 386 35 381 46 381 L103 381 L103 16 C103 5 108 0 119 0 L217 0 C228 0 233 5 233 16 L233 567 L233 567 Z " />
<glyph glyph-name="florin" unicode="&#x192;" horiz-adv-x="626" d="M198 119 C185 73 166 28 109 28 C107 28 105 28 104 29 C90 30 75 32 58 37 C56 38 53 38 51 38 C45 37 41 34 38 26 L25 -26 C22 -35 25 -42 36 -46 C65 -57 95 -63 126 -65 C155 -65 179 -64 205 -50 C262 -21 278 18 294 77 L390 443 L521 443 C531 443 536 449 536 460 L536 510 C536 520 530 525 519 525 L411 525 L429 592 C443 646 462 683 526 683 C539 681 554 678 569 674 C571 674 573 673 575 673 C578 673 581 674 583 676 C586 678 588 681 589 686 L601 737 C604 746 600 753 590 757 C562 768 534 772 504 774 C500 774 496 774 492 774 C481 774 470 774 460 772 C385 762 351 704 333 635 L305 525 L221 525 C211 525 206 519 206 507 L206 459 C206 448 211 443 222 443 L283 443 L198 119 L198 119 Z " />
<glyph glyph-name="uni0218" unicode="&#x218;" horiz-adv-x="540" d="M179 -256 C178 -265 182 -269 191 -269 L269 -269 C279 -269 285 -265 287 -257 L329 -62 C330 -53 327 -49 318 -49 L223 -49 C214 -49 209 -53 208 -62 L179 -256 L179 -256 Z M472 630 C477 639 476 647 467 654 C406 692 351 710 279 710 C164 710 48 643 48 515 C48 410 114 348 210 314 C237 303 263 293 287 283 C325 265 371 245 371 196 C371 138 316 116 266 116 C215 116 150 143 111 175 C106 179 104 179 98 179 C93 178 89 175 86 171 L36 95 C33 90 32 85 34 82 C35 79 38 75 41 72 C106 22 182 -10 265 -10 C387 -10 503 63 503 198 C503 307 439 365 342 405 C314 415 288 425 264 435 C229 449 180 471 180 515 C180 564 231 584 273 584 C316 584 357 568 393 545 C397 543 400 541 404 541 C405 541 407 542 408 542 C413 543 416 546 419 549 L472 630 L472 630 Z " />
<glyph glyph-name="uni0219" unicode="&#x219;" horiz-adv-x="438" d="M130 -256 C129 -265 133 -269 142 -269 L221 -269 C230 -269 236 -265 239 -257 L280 -62 C281 -53 278 -49 270 -49 L174 -49 C165 -49 160 -53 159 -62 L130 -256 L130 -256 Z M114 150 C109 154 104 156 100 156 C96 156 92 153 88 149 L35 93 C31 89 29 85 28 80 C27 75 29 71 32 67 C79 16 149 -10 217 -10 C309 -10 408 41 408 145 C408 224 358 266 290 297 C269 306 250 314 233 321 C215 328 200 335 189 342 C177 349 171 357 171 366 C171 392 203 399 224 399 C239 399 254 396 268 390 C281 383 294 376 305 369 C309 366 313 365 317 365 C322 365 325 366 329 370 L384 429 C392 437 392 444 384 451 C340 490 280 510 222 510 C136 510 42 461 42 364 C42 288 92 242 160 216 C181 208 200 201 217 194 C234 187 249 179 261 171 C272 163 278 153 278 140 C278 128 273 119 262 113 C251 106 237 103 220 103 C179 103 145 126 114 150 L114 150 Z " />
<glyph glyph-name="uni021A" unicode="&#x21a;" horiz-adv-x="578" d="M339 0 C350 0 355 5 355 16 L355 571 L540 571 C551 571 556 576 556 587 L556 684 C556 695 551 700 540 700 L38 700 C27 700 22 695 22 684 L22 587 C22 576 27 571 38 571 L223 571 L223 16 C223 5 228 0 239 0 L339 0 L339 0 Z M199 -256 C198 -265 201 -269 210 -269 L289 -269 C299 -269 305 -265 307 -257 L348 -62 C350 -53 347 -49 338 -49 L243 -49 C234 -49 229 -53 228 -62 L199 -256 L199 -256 Z " />
<glyph glyph-name="uni021B" unicode="&#x21b;" horiz-adv-x="418" d="M348 123 C346 128 343 130 339 130 C337 130 335 129 332 128 C323 123 314 120 306 118 C298 115 289 114 278 114 C263 114 251 118 242 126 C233 133 228 146 228 163 L228 381 L346 381 C357 381 362 386 362 397 L362 484 C362 495 356 500 345 500 L228 500 L228 632 C228 643 222 648 211 648 L114 648 C103 648 98 643 98 632 L98 500 L50 500 C39 500 34 495 34 484 L34 397 C34 386 39 381 50 381 L98 381 L98 146 C98 46 156 -10 255 -10 C276 -10 297 -8 317 -3 C332 1 383 18 388 33 C388 36 387 39 386 43 L348 123 L348 123 Z M122 -256 C121 -265 125 -269 134 -269 L213 -269 C222 -269 228 -265 231 -257 L272 -62 C273 -53 270 -49 262 -49 L166 -49 C157 -49 152 -53 151 -62 L122 -256 L122 -256 Z " />
<glyph glyph-name="circumflex" unicode="&#x2c6;" horiz-adv-x="370" d="M155 737 C143 737 133 730 125 721 L17 601 C13 598 11 594 12 590 C13 585 15 581 18 578 L47 542 C50 539 54 537 57 537 C58 537 59 537 60 538 C64 539 68 540 71 543 L185 646 L299 543 C302 540 306 538 311 537 C316 536 320 538 323 542 L352 578 C360 586 361 594 354 601 L246 721 C237 732 230 737 215 737 L155 737 L155 737 Z " />
<glyph glyph-name="caron" unicode="&#x2c7;" horiz-adv-x="370" d="M215 549 C227 549 239 556 246 565 L354 685 C361 692 360 700 352 708 L323 744 C320 748 316 750 311 749 C306 748 302 746 299 743 L185 640 L71 743 C68 746 64 748 59 749 C54 750 50 748 47 744 L18 708 C15 705 13 701 13 697 C12 692 14 688 17 685 L125 565 C131 557 145 549 155 549 L215 549 L215 549 Z " />
<glyph glyph-name="uni02C9" unicode="&#x2c9;" horiz-adv-x="420" d="M60 607 C60 596 65 591 76 591 L344 591 C355 591 360 596 360 607 L360 682 C360 693 355 698 344 698 L76 698 C65 698 60 693 60 682 L60 607 L60 607 Z " />
<glyph glyph-name="breve" unicode="&#x2d8;" horiz-adv-x="356" d="M344 716 C344 721 340 725 333 727 L271 738 C264 739 260 735 259 728 C257 681 223 659 178 659 C134 659 102 683 97 728 C96 735 92 739 86 738 L24 727 C16 725 12 721 12 716 C18 618 82 566 178 566 C273 566 340 618 344 716 L344 716 Z " />
<glyph glyph-name="dotaccent" unicode="&#x2d9;" horiz-adv-x="200" d="M27 647 C27 607 59 575 99 575 C140 575 173 605 173 647 C173 690 142 721 99 721 C57 721 27 688 27 647 L27 647 Z " />
<glyph glyph-name="ring" unicode="&#x2da;" horiz-adv-x="275" d="M14 639 C14 572 71 515 138 515 C188 515 231 546 252 591 C258 606 261 622 261 639 C261 656 258 672 252 687 C238 717 216 739 186 753 C171 759 155 762 138 762 C121 762 105 759 90 753 C45 732 14 689 14 639 L14 639 Z M94 639 C94 652 98 662 107 671 C115 680 125 684 138 684 C164 684 183 665 183 639 C183 626 179 616 170 608 C161 599 151 595 138 595 C125 595 115 599 107 608 C98 616 94 626 94 639 L94 639 Z " />
<glyph glyph-name="ogonek" unicode="&#x2db;" horiz-adv-x="184" d="M57 4 C34 -18 20 -42 15 -68 C10 -94 14 -118 25 -139 C47 -181 93 -201 139 -201 C150 -201 162 -200 174 -198 C180 -197 183 -193 183 -185 L182 -122 C182 -114 178 -113 171 -113 C164 -114 158 -115 152 -115 C140 -115 130 -112 122 -107 C111 -98 104 -87 102 -74 C100 -61 103 -46 111 -31 C118 -15 131 -2 148 8 L57 4 L57 4 Z " />
<glyph glyph-name="tilde" unicode="&#x2dc;" horiz-adv-x="412" d="M275 653 C263 653 252 656 242 662 C232 668 222 675 211 682 C185 699 163 711 131 711 C94 711 53 683 29 657 C22 651 20 643 23 633 L39 572 C40 568 42 565 45 563 C45 562 46 562 47 562 C49 562 52 564 55 567 C68 580 81 591 94 602 C107 613 122 618 137 618 C149 618 160 615 170 609 C180 603 191 597 202 590 C229 573 248 561 281 561 C319 561 358 588 383 615 C389 621 391 629 388 639 L373 700 C371 706 368 709 365 709 C363 709 360 708 357 705 C344 692 331 681 318 670 C304 659 290 653 275 653 L275 653 Z " />
<glyph glyph-name="hungarumlaut" unicode="&#x2dd;" horiz-adv-x="435" d="M95 537 C98 535 101 535 103 535 C105 535 107 535 109 536 C112 538 115 541 118 544 L208 695 C210 698 211 702 210 706 C209 710 206 713 201 714 L124 741 C121 742 119 742 116 742 C109 742 105 739 102 731 L35 579 C34 576 34 572 35 568 C36 563 39 560 44 558 L95 537 L95 537 Z M280 537 C283 535 286 535 288 535 C295 535 299 539 303 544 L398 694 C400 697 401 701 400 705 C399 709 396 712 391 713 L310 741 C307 742 305 742 303 742 C296 742 291 738 288 731 L221 579 C220 576 220 572 221 568 C222 563 225 560 230 558 L280 537 L280 537 Z " />
<glyph glyph-name="uni0394" unicode="&#x394;" horiz-adv-x="618" d="M308 632 L311 632 L473 111 L147 111 L308 632 Z M12 16 C12 5 17 0 28 0 L590 0 C601 0 606 5 606 16 L606 37 L399 732 C395 744 387 750 376 750 L244 750 C233 750 225 744 220 732 L12 37 L12 16 L12 16 Z " />
<glyph glyph-name="uni03A9" unicode="&#x3a9;" horiz-adv-x="770" d="M301 84 C197 150 136 235 136 364 C136 505 236 626 384 626 C533 626 633 509 633 361 C629 233 575 156 467 84 L467 1 L706 1 C716 1 721 6 721 15 L721 88 C721 99 716 104 706 104 L583 104 C680 167 735 266 737 381 C737 577 582 730 384 730 C191 730 32 578 32 381 C32 266 86 167 183 104 L62 104 C58 104 55 103 52 102 C49 100 47 97 47 92 L47 15 C47 6 52 1 62 1 L301 1 L301 84 Z " />
<glyph glyph-name="uni03BC" unicode="&#x3bc;" horiz-adv-x="606" d="M189 30 C212 9 240 -1 275 -1 C331 -1 381 25 408 76 L408 16 C408 5 413 0 424 0 L522 0 C533 0 538 5 538 16 L538 484 C538 495 533 500 522 500 L424 500 C413 500 408 495 408 484 L408 239 C408 224 405 209 400 194 C383 151 343 114 294 114 C219 114 189 175 189 242 L189 484 C189 495 184 500 173 500 L75 500 C64 500 59 495 59 484 L59 -234 C59 -245 64 -250 75 -250 L173 -250 C184 -250 189 -245 189 -234 L189 30 L189 30 Z " />
<glyph glyph-name="pi" unicode="&#x3c0;" horiz-adv-x="648" d="M610 497 C621 497 626 502 626 513 L626 607 C626 618 621 624 610 624 L38 624 C27 624 22 618 22 607 L22 513 C22 502 27 497 38 497 L128 497 L128 16 C128 5 133 0 144 0 L236 0 C247 0 253 5 253 16 L253 497 L396 497 L396 16 C396 5 401 0 412 0 L504 0 C515 0 520 5 520 16 L520 497 L610 497 Z " />
<glyph glyph-name="Wgrave" unicode="&#x1e80;" horiz-adv-x="941" d="M743 0 C756 0 760 5 764 17 L927 683 C930 694 927 700 916 700 L806 700 C793 700 788 696 785 683 L674 209 L547 688 C544 696 538 700 530 700 L412 700 C403 700 398 696 395 688 L268 209 L157 683 C154 696 149 700 136 700 L25 700 C14 700 11 694 14 683 L178 17 C181 6 188 0 199 0 L322 0 C335 0 342 6 345 17 L471 497 L597 17 C599 6 607 0 620 0 L743 0 L743 0 Z M500 775 C505 777 508 780 509 784 C509 788 508 792 507 795 L438 945 C435 953 431 957 424 957 C422 957 420 957 418 956 L339 929 C328 925 326 918 332 909 L426 758 C429 753 433 750 438 750 C441 750 444 751 447 752 L500 775 L500 775 Z " />
<glyph glyph-name="wgrave" unicode="&#x1e81;" horiz-adv-x="729" d="M140 484 C137 495 130 500 121 500 L23 500 C13 500 10 495 13 484 C32 397 50 319 66 251 C73 222 79 193 86 166 C92 138 98 113 103 91 C109 65 115 41 120 18 C123 6 130 0 140 0 L266 0 C278 0 286 6 288 18 L364 344 L441 18 C442 13 445 8 449 5 C452 2 457 0 463 0 L588 0 C594 0 599 2 602 6 C605 9 607 13 609 18 L716 484 C719 495 715 500 706 500 L608 500 C599 500 592 495 589 484 L517 166 L437 483 C435 494 429 500 418 500 L311 500 C300 500 294 494 292 483 C277 424 264 371 252 324 C247 304 242 285 237 266 C232 247 228 230 225 215 C221 200 218 188 216 179 L212 166 L140 484 L140 484 Z M391 574 C396 576 399 579 400 583 C400 587 399 591 398 594 L329 744 C326 752 322 756 315 756 C313 756 311 756 309 755 L230 728 C219 724 217 717 223 708 L317 557 C320 552 324 549 329 549 C332 549 335 550 338 551 L391 574 L391 574 Z " />
<glyph glyph-name="Wacute" unicode="&#x1e82;" horiz-adv-x="941" d="M743 0 C756 0 760 5 764 17 L927 683 C930 694 927 700 916 700 L806 700 C793 700 788 696 785 683 L674 209 L547 688 C544 696 538 700 530 700 L412 700 C403 700 398 696 395 688 L268 209 L157 683 C154 696 149 700 136 700 L25 700 C14 700 11 694 14 683 L178 17 C181 6 188 0 199 0 L322 0 C335 0 342 6 345 17 L471 497 L597 17 C599 6 607 0 620 0 L743 0 L743 0 Z M490 770 C493 769 496 768 498 768 C503 768 507 771 511 776 L605 927 C611 936 609 943 598 947 L520 974 C518 975 516 975 514 975 C507 975 502 971 499 963 L431 813 C427 804 429 797 438 793 L490 770 L490 770 Z " />
<glyph glyph-name="wacute" unicode="&#x1e83;" horiz-adv-x="729" d="M140 484 C137 495 130 500 121 500 L23 500 C13 500 10 495 13 484 C32 397 50 319 66 251 C73 222 79 193 86 166 C92 138 98 113 103 91 C109 65 115 41 120 18 C123 6 130 0 140 0 L266 0 C278 0 286 6 288 18 L364 344 L441 18 C442 13 445 8 449 5 C452 2 457 0 463 0 L588 0 C594 0 599 2 602 6 C605 9 607 13 609 18 L716 484 C719 495 715 500 706 500 L608 500 C599 500 592 495 589 484 L517 166 L437 483 C435 494 429 500 418 500 L311 500 C300 500 294 494 292 483 C277 424 264 371 252 324 C247 304 242 285 237 266 C232 247 228 230 225 215 C221 200 218 188 216 179 L212 166 L140 484 L140 484 Z M388 551 C391 550 394 549 396 549 C401 549 405 552 409 557 L503 708 C509 717 507 724 496 728 L418 755 C416 756 414 756 412 756 C405 756 400 752 397 744 L329 594 C325 585 327 578 336 574 L388 551 L388 551 Z " />
<glyph glyph-name="Wdieresis" unicode="&#x1e84;" horiz-adv-x="941" d="M743 0 C756 0 760 5 764 17 L927 683 C930 694 927 700 916 700 L806 700 C793 700 788 696 785 683 L674 209 L547 688 C544 696 538 700 530 700 L412 700 C403 700 398 696 395 688 L268 209 L157 683 C154 696 149 700 136 700 L25 700 C14 700 11 694 14 683 L178 17 C181 6 188 0 199 0 L322 0 C335 0 342 6 345 17 L471 497 L597 17 C599 6 607 0 620 0 L743 0 L743 0 Z M288 840 C288 800 320 769 360 769 C400 769 433 800 433 840 C433 881 401 913 360 913 C319 913 288 881 288 840 L288 840 Z M509 840 C509 800 540 769 580 769 C620 769 654 799 654 840 C654 882 622 913 580 913 C538 913 509 881 509 840 L509 840 Z " />
<glyph glyph-name="wdieresis" unicode="&#x1e85;" horiz-adv-x="729" d="M140 484 C137 495 130 500 121 500 L23 500 C13 500 10 495 13 484 C32 397 50 319 66 251 C73 222 79 193 86 166 C92 138 98 113 103 91 C109 65 115 41 120 18 C123 6 130 0 140 0 L266 0 C278 0 286 6 288 18 L364 344 L441 18 C442 13 445 8 449 5 C452 2 457 0 463 0 L588 0 C594 0 599 2 602 6 C605 9 607 13 609 18 L716 484 C719 495 715 500 706 500 L608 500 C599 500 592 495 589 484 L517 166 L437 483 C435 494 429 500 418 500 L311 500 C300 500 294 494 292 483 C277 424 264 371 252 324 C247 304 242 285 237 266 C232 247 228 230 225 215 C221 200 218 188 216 179 L212 166 L140 484 L140 484 Z M182 643 C182 603 214 572 254 572 C294 572 327 603 327 643 C327 684 295 716 254 716 C213 716 182 684 182 643 L182 643 Z M403 643 C403 603 434 572 474 572 C514 572 548 602 548 643 C548 685 516 716 474 716 C432 716 403 684 403 643 L403 643 Z " />
<glyph glyph-name="endash" unicode="&#x2013;" horiz-adv-x="574" d="M76 338 C65 338 60 332 60 321 L60 224 C60 213 65 208 76 208 L498 208 C509 208 514 213 514 224 L514 321 C514 332 509 338 498 338 L76 338 L76 338 Z " />
<glyph glyph-name="emdash" unicode="&#x2014;" horiz-adv-x="1098" d="M76 338 C65 338 60 332 60 321 L60 224 C60 213 65 208 76 208 L1022 208 C1033 208 1038 213 1038 224 L1038 321 C1038 332 1033 338 1022 338 L76 338 L76 338 Z " />
<glyph glyph-name="quoteleft" unicode="&#x2018;" horiz-adv-x="216" d="M176 697 C177 706 173 710 164 710 L85 710 C76 710 70 706 67 697 L26 503 C25 494 28 490 36 490 L132 490 C141 490 146 494 147 503 L176 697 L176 697 Z " />
<glyph glyph-name="quoteright" unicode="&#x2019;" horiz-adv-x="216" d="M27 503 C26 494 30 490 39 490 L118 490 C127 490 133 494 136 502 L177 697 C178 706 175 710 167 710 L71 710 C62 710 57 706 56 697 L27 503 L27 503 Z " />
<glyph glyph-name="quotesinglbase" unicode="&#x201a;" horiz-adv-x="216" d="M27 -108 C26 -111 27 -114 30 -117 C32 -120 35 -121 39 -121 L117 -121 C127 -121 133 -117 135 -108 L177 87 C178 96 175 100 166 100 L71 100 C62 100 57 95 56 86 L27 -108 L27 -108 Z " />
<glyph glyph-name="quotedblleft" unicode="&#x201c;" horiz-adv-x="427" d="M177 697 C178 706 174 710 165 710 L86 710 C76 710 70 706 68 697 L27 503 C25 494 28 490 37 490 L133 490 C142 490 147 494 148 503 L177 697 L177 697 Z M388 698 C389 701 388 704 386 707 C383 710 380 711 376 711 L297 711 C288 711 282 707 279 698 L238 503 C237 494 240 490 248 490 L344 490 C353 490 358 495 359 504 L388 698 L388 698 Z " />
<glyph glyph-name="quotedblright" unicode="&#x201d;" horiz-adv-x="430" d="M241 503 C240 494 244 490 253 490 L332 490 C341 490 347 494 350 502 L391 697 C392 706 389 710 381 710 L285 710 C276 710 271 706 270 697 L241 503 L241 503 Z M30 503 C29 494 33 490 42 490 L120 490 C130 490 136 494 138 502 L180 697 C181 706 178 710 169 710 L74 710 C65 710 60 706 59 697 L30 503 L30 503 Z " />
<glyph glyph-name="quotedblbase" unicode="&#x201e;" horiz-adv-x="427" d="M238 -108 C237 -111 238 -114 241 -117 C243 -120 246 -121 250 -121 L329 -121 C338 -121 344 -117 347 -108 L388 87 C389 96 386 100 378 100 L282 100 C273 100 268 95 267 86 L238 -108 L238 -108 Z M27 -108 C26 -117 30 -121 39 -121 L117 -121 C127 -121 133 -117 135 -109 L177 86 C178 95 175 99 166 99 L71 99 C62 99 57 95 56 86 L27 -108 L27 -108 Z " />
<glyph glyph-name="dagger" unicode="&#x2020;" horiz-adv-x="393" d="M40 487 C29 487 24 482 24 471 L24 391 C24 380 29 375 40 375 L140 375 L140 -168 C140 -179 146 -184 157 -184 L236 -184 C247 -184 252 -179 252 -168 L252 375 L353 375 C364 375 369 380 369 391 L369 471 C369 482 364 487 353 487 L252 487 L252 704 C252 715 247 720 236 720 L157 720 C146 720 140 715 140 704 L140 487 L40 487 Z " />
<glyph glyph-name="daggerdbl" unicode="&#x2021;" horiz-adv-x="493" d="M40 174 C29 174 24 169 24 158 L24 78 C24 67 29 62 40 62 L188 62 L188 -168 C188 -179 194 -184 205 -184 L284 -184 C295 -184 300 -179 300 -168 L300 62 L453 62 C464 62 469 67 469 78 L469 158 C469 169 464 174 453 174 L300 174 L300 361 L453 361 C464 361 469 366 469 377 L469 457 C469 468 464 473 453 473 L300 473 L300 704 C300 715 295 720 284 720 L205 720 C194 720 188 715 188 704 L188 473 L40 473 C29 473 24 468 24 457 L24 377 C24 366 29 361 40 361 L188 361 L188 174 L40 174 Z " />
<glyph glyph-name="bullet" unicode="&#x2022;" horiz-adv-x="244" d="M26 280 C26 253 35 231 54 213 C72 194 95 185 123 185 C178 185 219 225 219 280 C219 336 178 375 123 375 C68 375 26 335 26 280 L26 280 Z " />
<glyph glyph-name="ellipsis" unicode="&#x2026;" horiz-adv-x="871" d="M27 65 C27 44 34 26 49 12 C63 -3 81 -10 102 -10 C144 -10 180 22 180 65 C180 108 145 143 102 143 C59 143 27 107 27 65 L27 65 Z M357 65 C357 44 364 26 379 12 C393 -3 411 -10 432 -10 C475 -10 509 22 509 65 C509 108 476 143 432 143 C389 143 357 107 357 65 L357 65 Z M691 65 C691 44 698 26 713 12 C727 -3 745 -10 766 -10 C808 -10 844 22 844 65 C844 108 809 143 766 143 C723 143 691 107 691 65 L691 65 Z " />
<glyph glyph-name="perthousand" unicode="&#x2030;" horiz-adv-x="1121" d="M27 555 C27 472 98 400 182 400 C266 400 337 471 337 555 C337 639 267 710 182 710 C98 710 27 639 27 555 L27 555 Z M116 555 C116 594 142 622 181 622 C220 622 248 594 248 555 C248 516 220 490 181 490 C142 490 116 516 116 555 L116 555 Z M434 145 C434 62 505 -10 589 -10 C673 -10 744 61 744 145 C744 229 675 301 589 301 C505 301 434 230 434 145 L434 145 Z M523 145 C523 183 550 212 588 212 C627 212 655 184 655 145 C655 106 627 80 588 80 C550 80 523 107 523 145 L523 145 Z M783 145 C783 62 854 -10 938 -10 C1022 -10 1094 60 1094 145 C1094 230 1024 301 938 301 C854 301 783 230 783 145 L783 145 Z M872 145 C872 183 899 212 937 212 C976 212 1005 185 1005 145 C1005 105 976 80 937 80 C899 80 872 107 872 145 L872 145 Z M148 16 C145 11 144 7 147 4 C150 1 154 0 159 0 L231 0 C242 0 247 8 252 16 L637 684 C640 689 641 693 638 696 C635 699 631 700 626 700 L554 700 C543 700 538 693 533 684 L148 16 L148 16 Z " />
<glyph glyph-name="guilsinglleft" unicode="&#x2039;" horiz-adv-x="322" d="M281 437 C284 441 284 445 281 448 C278 451 273 453 266 453 L184 453 C179 453 174 452 170 449 C165 446 161 442 158 437 L28 239 C25 235 24 230 25 225 C26 222 27 220 28 218 L159 20 C162 15 165 12 170 9 C174 6 179 4 184 4 L267 4 C273 4 278 6 281 9 C284 12 284 16 282 20 L146 229 L281 437 Z " />
<glyph glyph-name="guilsinglright" unicode="&#x203a;" horiz-adv-x="322" d="M40 20 C37 16 38 12 41 9 C44 6 48 4 55 4 L138 4 C143 4 148 6 153 9 C157 12 160 15 163 20 L294 218 C295 220 296 222 297 225 C298 229 297 234 294 239 L163 437 C160 442 157 446 153 449 C148 452 143 453 138 453 L56 453 C49 453 45 451 42 448 C39 445 38 441 40 437 L176 229 L40 20 L40 20 Z " />
<glyph glyph-name="fraction" unicode="&#x2044;" horiz-adv-x="560" d="M35 16 C32 11 31 7 34 4 C37 1 41 0 46 0 L118 0 C129 0 134 8 139 16 L524 684 C527 689 528 693 525 696 C522 699 518 700 513 700 L441 700 C430 700 425 693 420 684 L35 16 L35 16 Z " />
<glyph glyph-name="franc" unicode="&#x20a3;" horiz-adv-x="550" d="M328 103 C339 103 344 108 344 119 L344 157 C344 168 339 173 328 173 L205 173 L205 270 L479 270 C490 270 495 276 495 287 L495 379 C495 390 490 396 479 396 L205 396 L205 571 L522 571 C533 571 538 576 538 587 L538 684 C538 695 533 700 522 700 L95 700 C82 700 74 692 74 679 L74 173 L27 173 C16 173 11 168 11 157 L11 119 C11 108 16 103 27 103 L74 103 L74 16 C74 5 79 0 90 0 L189 0 C200 0 205 5 205 16 L205 103 L328 103 Z " />
<glyph glyph-name="lira" unicode="&#x20a4;" horiz-adv-x="540" d="M25 357 C15 353 12 346 16 337 L31 297 C34 290 38 287 44 287 C46 287 49 287 51 288 L102 306 L102 18 C102 6 108 0 119 0 L126 0 C329 0 511 141 531 351 C532 362 526 367 514 367 L443 367 C434 367 428 362 427 351 C419 230 328 133 206 117 L206 343 L363 399 C374 402 377 409 372 419 L359 459 C357 466 353 470 346 470 C344 470 342 470 340 469 L206 421 L206 473 L363 528 C373 531 376 538 372 549 L359 588 C357 596 353 600 347 600 C345 600 343 599 340 598 L206 550 L206 684 C206 695 201 700 190 700 L119 700 C108 700 102 695 102 684 L102 513 L25 486 C15 482 12 475 16 466 L30 426 C33 419 38 415 44 415 C46 415 48 415 50 416 L102 435 L102 384 L25 357 L25 357 Z " />
<glyph glyph-name="Euro" unicode="&#x20ac;" horiz-adv-x="537" d="M487 118 C484 124 479 127 474 127 C471 127 467 126 463 124 C449 116 433 109 416 104 C399 98 380 95 360 95 C261 95 205 158 184 253 L447 253 C456 253 461 258 461 268 L461 309 C461 319 456 324 447 324 L173 324 C171 343 171 362 173 381 L447 381 C456 381 461 386 461 396 L461 437 C461 447 456 452 447 452 L185 452 C207 541 264 605 360 605 C396 605 435 593 466 575 C470 573 473 572 476 572 C482 572 487 575 490 582 L522 647 C525 656 522 664 513 669 C466 696 414 710 360 710 C197 710 105 606 76 452 L12 452 C2 452 -3 447 -3 437 L-3 396 C-3 386 2 381 12 381 L67 381 C66 370 66 360 66 353 C66 345 66 335 67 324 L12 324 C2 324 -3 319 -3 309 L-3 268 C-3 258 2 253 12 253 L74 253 C101 101 193 -10 360 -10 C413 -10 463 4 509 29 C522 36 525 44 520 54 L487 118 L487 118 Z " />
<glyph glyph-name="uni2113" unicode="&#x2113;" horiz-adv-x="383" d="M28 227 C33 220 39 217 44 217 C48 217 53 219 57 224 L95 261 L95 159 C95 70 141 -12 241 -12 C285 -12 333 9 365 39 C372 46 373 55 369 64 L356 111 C354 117 350 119 345 118 C343 118 340 116 336 113 C318 95 292 76 265 76 C253 76 240 77 230 85 C221 90 215 98 211 108 C206 117 203 129 202 142 C200 155 199 168 199 183 L199 342 C218 363 237 384 256 405 C308 463 354 529 357 610 C358 649 347 679 323 701 C299 723 269 734 232 734 C134 734 95 640 95 553 L95 364 L15 282 C11 277 9 273 8 268 C7 263 8 257 11 252 L28 227 L28 227 Z M282 598 C278 541 236 494 199 453 L199 536 C199 549 199 563 200 576 C202 605 208 647 245 647 C259 647 269 642 275 633 C281 623 283 611 282 598 L282 598 Z " />
<glyph glyph-name="trademark" unicode="&#x2122;" horiz-adv-x="871" d="M224 287 C227 288 228 291 228 296 L228 619 L346 619 C353 619 357 623 357 630 L357 690 C357 697 353 700 346 700 L32 700 C25 700 22 697 22 690 L22 630 C22 623 25 619 32 619 L147 619 L147 296 C147 291 149 288 158 285 L218 285 L224 287 Z M617 338 C622 338 625 341 627 347 L715 523 L715 296 C715 289 719 285 726 285 L786 285 C794 285 798 289 798 296 L798 689 C798 692 797 694 795 697 C793 699 790 700 786 700 L726 700 C720 700 715 697 712 690 L596 445 L479 690 C476 697 472 700 465 700 L405 700 C398 700 394 696 394 689 L394 296 C394 289 398 285 405 285 L464 285 C471 285 475 289 475 296 L475 523 L564 347 C567 341 570 338 575 338 L617 338 L617 338 Z " />
<glyph glyph-name="Omega" unicode="&#x2126;" horiz-adv-x="770" d="M301 84 C197 150 136 235 136 364 C136 505 236 626 384 626 C533 626 633 509 633 361 C629 233 575 156 467 84 L467 1 L706 1 C716 1 721 6 721 15 L721 88 C721 99 716 104 706 104 L583 104 C680 167 735 266 737 381 C737 577 582 730 384 730 C191 730 32 578 32 381 C32 266 86 167 183 104 L62 104 C58 104 55 103 52 102 C49 100 47 97 47 92 L47 15 C47 6 52 1 62 1 L301 1 L301 84 Z " />
</font>
</svg>
