<?xml version="1.0" encoding="UTF-8"?>
<svg xmlns="http://www.w3.org/2000/svg" xmlns:xlink="http://www.w3.org/1999/xlink" version="1.2" >
<font id="Crossten Book Italic">
<font-face  font-family="Crossten" units-per-em="1000" ascent="750" descent="-250" font-style="italic" font-weight="400" font-stretch="normal" cap-height="700" x-height="500" underline-position="-75" underline-thickness="50" />
<missing-glyph  horiz-adv-x="332" d="" />
<glyph glyph-name="NULL" d="" />
<glyph glyph-name="&amp;#x0;" horiz-adv-x="332" d="" />
<glyph glyph-name="&amp;#xd;" unicode="&#xd;" horiz-adv-x="332" d="" />
<glyph glyph-name="space" unicode="&#x20;" horiz-adv-x="332" d="" />
<glyph glyph-name="exclam" unicode="&#x21;" horiz-adv-x="248" d="M122 179 C131 179 136 184 137 193 L220 687 C221 696 217 700 209 700 L147 700 C137 700 132 696 131 687 L57 193 C56 184 59 179 68 179 L122 179 L122 179 Z M20 46 C20 14 44 -10 75 -10 C107 -10 132 14 132 46 C132 77 107 102 75 102 C44 102 20 77 20 46 L20 46 Z " />
<glyph glyph-name="quotedbl" unicode="&#x22;" horiz-adv-x="324" d="M124 480 C132 480 137 484 138 493 L173 683 C175 692 171 696 162 696 L113 696 C104 696 99 692 98 683 L72 493 C71 484 74 480 83 480 L124 480 L124 480 Z M269 480 C278 480 283 484 284 493 L319 683 C321 692 317 696 308 696 L259 696 C250 696 245 692 244 683 L218 493 C216 484 220 480 229 480 L269 480 L269 480 Z " />
<glyph glyph-name="numbersign" unicode="&#x23;" horiz-adv-x="603" d="M96 0 C105 0 112 5 115 14 L174 211 L343 211 L284 14 C281 5 284 0 294 0 L337 0 C345 0 350 5 353 14 L412 211 L516 211 C525 211 530 216 532 225 L538 267 C539 276 536 281 527 281 L433 281 L472 417 L576 417 C585 417 590 422 591 431 L598 473 C601 482 594 488 586 488 L493 488 L553 681 C556 690 553 695 543 695 L502 695 C494 695 488 690 485 681 L426 488 L255 488 L312 681 C315 690 312 695 303 695 L262 695 C253 695 247 688 244 681 L186 488 L89 488 C80 488 75 483 74 474 L67 431 C64 422 71 417 79 417 L166 417 L125 281 L30 281 C21 281 15 276 13 267 L7 225 C6 216 10 211 19 211 L103 211 L44 14 C41 7 43 0 54 0 L96 0 L96 0 Z M364 281 L194 281 L235 417 L405 417 L364 281 Z " />
<glyph glyph-name="dollar" unicode="&#x24;" horiz-adv-x="552" d="M177 520 C177 583 240 624 315 624 C360 624 405 612 457 581 C460 579 463 578 466 578 C471 578 475 580 478 584 L518 633 C523 642 523 649 517 652 C454 692 415 704 350 709 L365 800 C365 809 360 814 351 814 L310 814 C302 814 297 809 296 800 L281 704 C177 691 88 620 88 516 C88 301 389 361 389 202 C389 136 338 76 234 76 C178 76 116 95 65 142 C61 145 58 146 56 146 C51 146 48 143 45 139 L6 92 C-1 84 0 78 7 73 C64 22 123 -1 198 -8 L183 -102 C181 -111 185 -115 194 -115 L237 -115 C246 -115 251 -111 252 -102 L267 -7 C390 4 479 97 479 209 C479 432 177 376 177 520 L177 520 Z " />
<glyph glyph-name="percent" unicode="&#x25;" horiz-adv-x="1030" d="M562 176 C562 73 631 -10 748 -10 C888 -10 985 110 985 227 C985 335 914 414 803 414 C664 414 562 299 562 176 L562 176 Z M635 182 C635 258 698 341 794 341 C871 341 913 293 913 222 C913 145 853 62 756 62 C680 62 635 110 635 182 L635 182 Z M227 13 C220 5 224 0 235 0 L285 0 C293 0 297 5 304 13 L797 687 C804 695 800 700 791 700 L741 700 C734 700 728 696 721 687 L227 13 L227 13 Z M35 476 C35 372 104 289 220 289 C360 289 458 408 458 527 C458 635 387 713 276 713 C137 713 35 598 35 476 L35 476 Z M107 481 C107 558 171 641 267 641 C344 641 385 593 385 521 C385 445 325 362 228 362 C153 362 107 410 107 481 L107 481 Z " />
<glyph glyph-name="ampersand" unicode="&#x26;" horiz-adv-x="653" d="M294 426 C263 470 247 506 247 541 C247 590 285 631 344 631 C379 631 408 616 435 589 C438 586 441 584 444 584 C446 584 449 585 451 587 L495 620 C502 625 507 631 500 638 C459 685 399 710 338 710 C238 710 161 638 161 545 C161 494 178 454 215 394 C95 330 -4 272 -4 161 C-4 61 72 -10 168 -10 C270 -10 345 41 432 104 L524 -18 C528 -23 531 -26 536 -26 C539 -26 543 -24 548 -20 L584 8 C595 17 596 22 588 33 L498 153 L602 237 C611 246 612 254 605 261 L579 297 C576 301 572 302 568 302 C564 302 560 301 555 297 L452 215 L294 426 L294 426 Z M187 74 C130 74 85 115 85 174 C85 255 159 281 260 337 L384 167 C322 118 264 74 187 74 L187 74 Z " />
<glyph glyph-name="quotesingle" unicode="&#x27;" horiz-adv-x="193" d="M131 484 C141 484 147 489 148 500 L182 684 C184 695 180 700 169 700 L123 700 C112 700 109 692 106 684 L82 500 C79 489 83 484 94 484 L131 484 L131 484 Z " />
<glyph glyph-name="parenleft" unicode="&#x28;" horiz-adv-x="326" d="M330 778 C-6 479 -59 157 179 -132 C183 -136 186 -139 189 -139 C192 -139 195 -138 199 -135 L241 -107 C249 -101 250 -95 245 -88 C32 189 74 444 385 734 C392 741 393 747 386 752 L350 781 C348 783 345 784 342 784 C338 784 334 782 330 778 L330 778 Z " />
<glyph glyph-name="parenright" unicode="&#x29;" horiz-adv-x="313" d="M138 776 C135 781 131 783 127 783 C124 783 121 782 117 780 L75 754 C66 747 65 741 70 735 C288 451 247 196 -57 -87 C-63 -94 -64 -100 -59 -105 L-23 -136 C-20 -138 -18 -139 -15 -139 C-12 -139 -8 -137 -5 -134 C327 158 378 474 138 776 L138 776 Z " />
<glyph glyph-name="asterisk" unicode="&#x2a;" horiz-adv-x="340" d="M68 435 C60 427 59 420 66 415 L93 393 C96 391 99 389 102 389 C106 389 110 392 114 397 L192 488 L238 396 C240 391 243 388 248 388 C250 388 253 389 257 391 L290 411 C298 416 300 423 295 432 L237 526 L348 551 C357 554 364 558 363 569 L360 603 C359 609 355 612 349 612 C347 612 345 612 343 611 L237 585 L256 683 C259 692 258 698 245 698 L207 698 C195 698 192 694 191 683 L177 585 L80 613 C77 614 74 614 72 614 C66 614 62 612 60 606 L45 569 C41 559 44 553 53 552 L156 528 L68 435 Z " />
<glyph glyph-name="plus" unicode="&#x2b;" horiz-adv-x="501" d="M449 253 C458 253 463 257 465 266 L472 317 C474 326 471 331 462 331 L287 331 L315 505 C316 514 312 518 303 518 L252 518 C244 518 239 514 237 505 L209 331 L33 331 C24 331 19 326 18 317 L10 266 C9 257 12 253 20 253 L197 253 L169 77 C168 68 172 64 180 64 L231 64 C240 64 245 68 246 77 L274 253 L449 253 Z " />
<glyph glyph-name="comma" unicode="&#x2c;" horiz-adv-x="207" d="M-48 -169 C-51 -176 -48 -180 -39 -180 L11 -180 C20 -180 26 -176 29 -169 L117 85 C120 93 118 97 110 97 L49 97 C40 97 35 93 33 85 L-48 -169 Z " />
<glyph glyph-name="hyphen" unicode="&#x2d;" horiz-adv-x="371" d="M42 328 C33 328 28 324 27 315 L17 254 C16 245 19 241 27 241 L307 241 C316 241 321 245 322 254 L332 315 C333 324 330 328 321 328 L42 328 L42 328 Z " />
<glyph glyph-name="period" unicode="&#x2e;" horiz-adv-x="211" d="M3 46 C3 14 27 -10 59 -10 C90 -10 115 14 115 46 C115 77 90 102 59 102 C27 102 3 77 3 46 L3 46 Z " />
<glyph glyph-name="slash" unicode="&#x2f;" horiz-adv-x="430" d="M-15 13 C-20 5 -16 0 -5 0 L44 0 C51 0 56 4 61 13 L448 687 C453 695 448 700 439 700 L390 700 C381 700 377 695 372 687 L-15 13 L-15 13 Z " />
<glyph glyph-name="zero" unicode="0" horiz-adv-x="567" d="M44 236 C44 87 108 -10 228 -10 C411 -10 523 183 523 463 C523 614 459 710 340 710 C156 710 44 517 44 236 L44 236 Z M133 242 C133 456 207 624 327 624 C399 624 434 562 434 458 C434 244 360 76 240 76 C167 76 133 141 133 242 L133 242 Z " />
<glyph glyph-name="one" unicode="1" horiz-adv-x="306" d="M73 661 C66 660 62 656 62 648 L59 583 C59 578 61 575 66 575 C67 575 69 576 71 576 L174 604 L80 13 C79 4 83 0 92 0 L154 0 C163 0 168 4 169 13 L276 687 C277 696 273 700 265 700 L248 700 L73 661 L73 661 Z " />
<glyph glyph-name="two" unicode="2" horiz-adv-x="474" d="M102 577 C104 571 108 568 112 568 C115 568 119 570 123 573 C174 608 218 624 265 624 C342 624 367 578 367 528 C367 426 238 309 -18 45 C-23 40 -26 34 -27 27 C-28 24 -28 20 -29 13 C-30 4 -26 0 -18 0 L382 0 C391 0 396 4 398 13 L402 41 C405 56 406 71 407 75 C409 83 405 87 396 87 L127 87 C359 319 457 431 457 545 C457 637 405 710 281 710 C214 710 152 686 87 643 C78 638 76 631 79 623 L102 577 L102 577 Z " />
<glyph glyph-name="three" unicode="3" horiz-adv-x="477" d="M197 323 C291 322 338 285 338 213 C338 137 273 76 185 76 C134 76 82 96 50 127 C47 130 44 132 41 132 C36 132 32 129 28 123 L-9 77 C-16 69 -15 62 -7 57 C44 13 111 -10 187 -10 C318 -10 426 90 426 215 C426 300 383 342 315 365 C383 386 459 459 459 549 C459 650 402 710 290 710 C222 710 164 688 96 643 C87 638 84 631 87 623 L110 578 C112 573 114 569 120 569 C123 569 127 570 132 573 C173 604 223 624 272 624 C338 624 371 593 371 532 C371 463 295 403 210 403 C203 403 198 399 196 392 C196 388 195 373 192 360 L188 334 C187 327 190 323 197 323 L197 323 Z " />
<glyph glyph-name="four" unicode="4" horiz-adv-x="479" d="M253 13 C252 4 256 0 264 0 L321 0 C330 0 335 4 335 13 L356 143 L430 143 C439 143 444 147 446 156 L454 210 C455 219 451 223 443 223 L369 223 L393 374 C394 383 390 387 382 387 L326 387 C318 387 313 383 311 374 L288 228 L94 228 L375 686 C379 695 376 700 367 700 L308 700 C298 700 291 695 286 686 L-8 206 L-16 156 C-17 147 -14 143 -6 143 L273 143 L253 13 Z " />
<glyph glyph-name="five" unicode="5" horiz-adv-x="500" d="M85 319 C129 340 195 358 246 358 C330 358 362 313 362 241 C362 168 302 76 193 76 C148 76 90 89 51 124 C47 127 44 128 40 128 C36 128 32 126 29 121 L-9 74 C-16 65 -14 59 -7 54 C49 9 123 -10 191 -10 C353 -10 451 126 451 252 C451 373 397 439 281 439 C238 439 190 425 161 410 L194 616 L462 616 C471 616 477 621 479 630 L487 686 C489 695 485 700 476 700 L135 700 C126 700 120 695 119 686 L63 334 L85 319 L85 319 Z " />
<glyph glyph-name="six" unicode="6" horiz-adv-x="532" d="M140 384 C169 520 231 625 342 625 C389 625 418 616 466 580 C470 578 473 577 476 577 C480 577 484 579 488 584 L522 626 C527 634 529 639 520 647 C467 694 406 710 346 710 C200 710 90 595 47 335 L41 301 C4 94 95 -10 217 -10 C375 -10 475 128 475 264 C475 373 423 447 310 447 C251 447 192 423 140 384 L140 384 Z M127 300 C179 347 237 368 284 368 C361 368 388 319 388 254 C388 161 327 71 227 71 C150 71 102 145 122 270 L127 300 Z " />
<glyph glyph-name="seven" unicode="7" horiz-adv-x="464" d="M501 687 C501 696 497 700 489 700 L98 700 C89 700 84 696 83 687 L73 626 C72 617 76 613 84 613 L389 613 L23 14 C18 5 20 0 31 0 L94 0 C106 0 111 5 118 14 L490 623 L501 687 Z " />
<glyph glyph-name="eight" unicode="8" horiz-adv-x="513" d="M80 511 C80 444 109 404 164 375 C71 343 6 257 6 165 C6 50 82 -10 203 -10 C348 -10 462 99 462 219 C462 291 434 343 357 375 C418 399 488 461 488 552 C488 644 429 710 309 710 C176 710 80 621 80 511 L80 511 Z M159 501 C159 573 221 633 301 633 C377 633 409 595 409 535 C409 459 339 404 262 404 C203 404 159 441 159 501 L159 501 Z M92 177 C92 260 170 328 253 328 C334 328 376 285 376 220 C376 143 305 71 212 71 C136 71 92 105 92 177 L92 177 Z " />
<glyph glyph-name="nine" unicode="9" horiz-adv-x="523" d="M391 316 C362 180 299 75 188 75 C138 75 107 87 64 119 C60 122 57 124 54 124 C50 124 47 121 42 116 L9 74 C3 66 4 59 11 53 C64 6 130 -10 187 -10 C328 -10 439 103 484 365 L489 399 C523 606 437 710 314 710 C155 710 56 572 56 436 C56 311 113 253 221 253 C280 253 339 277 391 316 L391 316 Z M404 400 C352 353 298 332 247 332 C176 332 143 365 143 446 C143 539 203 629 304 629 C381 629 428 555 409 430 L404 400 Z " />
<glyph glyph-name="colon" unicode="&#x3a;" horiz-adv-x="222" d="M6 46 C6 14 30 -10 62 -10 C94 -10 119 14 119 46 C119 78 94 102 62 102 C30 102 6 78 6 46 L6 46 Z M70 453 C70 422 94 398 125 398 C157 398 182 422 182 453 C182 485 157 510 125 510 C94 510 70 485 70 453 L70 453 Z " />
<glyph glyph-name="semicolon" unicode="&#x3b;" horiz-adv-x="219" d="M-48 -169 C-51 -176 -45 -180 -38 -180 L12 -180 C21 -180 26 -176 29 -169 L118 85 C120 93 117 97 110 97 L49 97 C41 97 36 93 34 85 L-48 -169 L-48 -169 Z M71 453 C71 422 95 398 126 398 C158 398 183 422 183 453 C183 485 158 510 126 510 C95 510 71 485 71 453 L71 453 Z " />
<glyph glyph-name="less" unicode="&#x3c;" horiz-adv-x="499" d="M462 447 C471 450 476 455 477 462 L485 511 C486 518 484 523 478 523 C477 523 476 523 474 522 L30 347 C22 344 17 339 15 332 L4 260 C3 252 7 247 14 244 L403 68 C404 67 405 67 407 67 C412 67 415 72 416 79 L424 128 C425 136 422 139 414 143 L86 296 L462 447 Z " />
<glyph glyph-name="equal" unicode="&#x3d;" horiz-adv-x="552" d="M74 436 C66 436 61 432 60 423 L53 377 C51 368 54 364 63 364 L500 364 C508 364 513 368 515 377 L522 423 C523 432 520 436 511 436 L74 436 L74 436 Z M42 231 C34 231 29 227 27 218 L20 173 C19 164 22 159 30 159 L467 159 C476 159 481 164 482 173 L489 218 C491 227 488 231 479 231 L42 231 L42 231 Z " />
<glyph glyph-name="greater" unicode="&#x3e;" horiz-adv-x="502" d="M32 143 C23 139 19 136 18 128 L10 79 C9 72 12 67 17 67 C18 67 19 67 20 68 L464 244 C473 247 478 253 479 260 L491 332 C492 339 488 344 480 347 L92 522 C91 523 89 523 88 523 C82 523 79 518 78 511 L70 462 C69 455 73 450 81 447 L408 296 L32 143 Z " />
<glyph glyph-name="question" unicode="&#x3f;" horiz-adv-x="394" d="M85 580 C87 575 90 572 93 572 C96 572 99 574 103 576 C144 604 191 624 231 624 C294 624 318 593 318 550 C318 441 143 416 115 235 L108 195 C107 186 107 179 118 179 L178 179 C189 179 192 186 195 195 L201 235 C225 380 409 421 409 569 C409 645 357 710 251 710 C183 710 119 684 68 649 C57 642 57 637 60 630 L85 580 L85 580 Z M75 46 C75 14 100 -10 131 -10 C163 -10 187 14 187 46 C187 77 163 102 131 102 C100 102 75 77 75 46 L75 46 Z " />
<glyph glyph-name="at" unicode="&#x40;" horiz-adv-x="1043" d="M368 227 C368 322 444 382 516 382 C587 382 635 326 624 255 C613 181 558 122 483 122 C420 122 368 160 368 227 L368 227 Z M614 121 C609 52 671 9 745 9 C852 9 985 99 985 333 C985 560 838 725 579 725 C282 725 39 514 39 191 C39 -73 220 -218 512 -218 L844 -218 C853 -218 859 -213 861 -204 L867 -172 C868 -163 863 -159 853 -159 L515 -159 C230 -159 99 -12 99 192 C99 477 312 666 576 666 C812 666 926 521 926 332 C926 143 826 67 754 67 C710 67 676 96 684 145 L729 435 C730 439 729 448 720 448 L670 448 C665 448 656 446 655 435 C652 424 652 410 649 395 L645 370 C607 446 541 453 510 453 C403 453 292 368 292 220 C292 110 367 49 460 49 C557 49 604 123 616 132 L614 121 L614 121 Z " />
<glyph glyph-name="A" unicode="A" horiz-adv-x="633" d="M51 0 C64 0 68 4 72 13 L153 177 L429 177 L459 15 C462 3 465 0 476 0 L539 0 C549 0 553 5 551 15 L430 687 C429 696 425 700 416 700 L331 700 C323 700 317 696 313 687 L-22 13 C-27 4 -24 0 -14 0 L51 0 L51 0 Z M189 261 L358 596 L421 261 L189 261 Z " />
<glyph glyph-name="B" unicode="B" horiz-adv-x="599" d="M289 0 C430 0 534 100 534 212 C534 297 493 346 421 373 C486 400 545 462 545 540 C545 636 488 700 361 700 L152 700 C143 700 138 696 137 687 L29 13 C29 5 30 0 41 0 L289 0 L289 0 Z M168 329 L311 329 C399 329 443 287 443 215 C443 146 380 82 281 82 L130 82 L168 329 Z M214 618 L338 618 C422 618 451 581 451 524 C451 459 387 408 318 408 L181 408 L214 618 Z " />
<glyph glyph-name="C" unicode="C" horiz-adv-x="639" d="M634 635 C639 642 638 649 631 654 C584 686 525 710 450 710 C233 710 34 522 34 293 C34 116 167 -10 335 -10 C407 -10 473 9 537 44 C546 49 549 56 545 65 L521 115 C519 119 515 121 511 121 C508 121 504 120 500 118 C453 90 400 76 349 76 C216 76 123 169 123 302 C123 474 273 624 436 624 C492 624 532 610 572 583 C576 580 580 579 583 579 C588 579 592 583 595 587 L634 635 Z " />
<glyph glyph-name="D" unicode="D" horiz-adv-x="723" d="M278 0 C506 0 685 177 685 407 C685 584 580 700 386 700 L152 700 C143 700 138 696 137 687 L29 13 C29 4 33 0 41 0 L278 0 L278 0 Z M213 613 L371 613 C520 613 597 531 597 398 C597 226 464 87 288 87 L130 87 L213 613 Z " />
<glyph glyph-name="E" unicode="E" horiz-adv-x="555" d="M149 700 C139 700 134 696 134 687 L26 13 C26 4 30 0 38 0 L433 0 C442 0 447 4 448 13 L458 74 C459 83 456 87 447 87 L127 87 L161 308 L446 308 C455 308 460 312 462 321 L470 379 C472 388 469 392 460 392 L175 392 L210 613 L529 613 C538 613 543 617 545 626 L555 687 C555 696 551 700 543 700 L149 700 L149 700 Z " />
<glyph glyph-name="F" unicode="F" horiz-adv-x="554" d="M100 0 C109 0 114 4 115 13 L160 298 L470 298 C479 298 484 302 485 311 L494 370 C496 379 492 383 483 383 L174 383 L210 613 L565 613 C574 613 579 617 580 626 L590 687 C591 696 588 700 579 700 L149 700 C139 700 134 696 134 687 L26 13 C25 4 29 0 38 0 L100 0 Z " />
<glyph glyph-name="G" unicode="G" horiz-adv-x="680" d="M498 113 C453 90 409 76 349 76 C216 76 123 169 123 302 C123 474 273 624 436 624 C491 624 533 609 576 580 C580 577 583 576 586 576 C591 576 596 580 600 584 L638 631 C644 639 643 646 635 651 C588 683 527 710 450 710 C233 710 34 522 34 293 C34 116 167 -10 335 -10 C412 -10 488 9 562 46 C571 51 576 55 577 64 L621 345 C623 354 619 359 610 359 L385 359 C376 359 371 354 370 345 L362 296 C361 287 364 283 373 283 L524 283 L498 113 L498 113 Z " />
<glyph glyph-name="H" unicode="H" horiz-adv-x="696" d="M103 0 C112 0 116 4 117 13 L164 310 L518 310 L471 13 C470 4 473 0 482 0 L544 0 C554 0 559 4 559 13 L667 687 C668 696 664 700 655 700 L593 700 C584 700 579 696 578 687 L532 398 L178 398 L224 687 C225 696 221 700 213 700 L151 700 C142 700 137 696 136 687 L29 13 C29 4 33 0 41 0 L103 0 L103 0 Z " />
<glyph glyph-name="I" unicode="I" horiz-adv-x="255" d="M103 0 C112 0 117 4 118 13 L225 687 C226 696 222 700 214 700 L152 700 C143 700 138 696 137 687 L29 13 C29 4 33 0 41 0 L103 0 L103 0 Z " />
<glyph glyph-name="J" unicode="J" horiz-adv-x="474" d="M464 687 C466 696 463 700 454 700 L392 700 C382 700 377 696 376 687 L300 205 C287 124 234 76 161 76 C116 76 84 89 53 110 C49 113 46 114 43 114 C39 114 37 113 34 109 L-5 59 C-12 50 -9 45 -4 41 C37 8 94 -10 157 -10 C284 -10 367 71 387 198 L464 687 L464 687 Z " />
<glyph glyph-name="K" unicode="K" horiz-adv-x="646" d="M556 0 C565 0 568 4 564 13 L351 418 L647 687 C654 694 653 700 644 700 L561 700 C548 700 540 695 532 687 L175 369 L225 687 C226 696 222 700 214 700 L152 700 C143 700 138 696 137 687 L29 13 C29 4 33 0 41 0 L103 0 C112 0 117 4 118 13 L156 249 L279 358 L462 13 C467 4 474 0 485 0 L556 0 Z " />
<glyph glyph-name="L" unicode="L" horiz-adv-x="500" d="M408 0 C417 0 422 4 423 13 L433 73 C435 82 431 86 422 86 L130 86 L225 687 C226 696 222 700 214 700 L152 700 C143 700 138 696 137 687 L29 13 C29 4 33 0 41 0 L408 0 L408 0 Z " />
<glyph glyph-name="M" unicode="M" horiz-adv-x="861" d="M409 94 C416 94 422 98 427 105 L721 556 L635 13 C633 4 637 0 646 0 L708 0 C717 0 722 4 723 13 L831 687 C832 696 828 700 819 700 L733 700 C726 700 719 696 714 688 L410 223 L255 688 C252 696 247 700 239 700 L152 700 C143 700 139 696 138 687 L30 13 C29 4 33 0 41 0 L104 0 C112 0 117 4 119 13 L205 556 L357 105 C359 98 364 94 372 94 L409 94 L409 94 Z " />
<glyph glyph-name="N" unicode="N" horiz-adv-x="724" d="M572 0 C581 0 586 4 587 13 L695 687 C695 696 691 700 683 700 L621 700 C612 700 607 696 606 687 L521 150 L235 687 C230 695 226 700 214 700 L151 700 C142 700 137 696 137 687 L29 13 C29 4 33 0 40 0 L103 0 C112 0 117 4 118 13 L203 550 L489 13 C494 5 498 0 509 0 L572 0 Z " />
<glyph glyph-name="O" unicode="O" horiz-adv-x="788" d="M450 710 C233 710 34 522 34 293 C34 116 167 -10 335 -10 C551 -10 750 178 750 407 C750 584 617 710 450 710 L450 710 Z M349 76 C216 76 123 169 123 302 C123 474 273 624 436 624 C569 624 662 531 662 398 C662 226 512 76 349 76 L349 76 Z " />
<glyph glyph-name="P" unicode="P" horiz-adv-x="561" d="M103 0 C112 0 117 4 118 13 L154 242 L294 242 C434 242 558 346 558 495 C558 620 471 700 350 700 L152 700 C143 700 138 696 137 687 L29 13 C29 4 33 0 41 0 L103 0 L103 0 Z M214 618 L329 618 C418 618 469 567 469 491 C469 387 386 324 290 324 L167 324 L214 618 Z " />
<glyph glyph-name="Q" unicode="Q" horiz-adv-x="788" d="M533 -136 C534 -140 537 -142 541 -142 C544 -142 547 -141 552 -139 L609 -110 C615 -107 617 -101 615 -93 L554 58 C662 128 750 256 750 407 C750 584 617 710 449 710 C233 710 34 522 34 293 C34 116 167 -10 335 -10 C386 -10 425 -2 470 17 L533 -136 L533 -136 Z M348 76 C216 76 123 169 123 302 C123 474 273 624 436 624 C569 624 662 531 662 398 C662 226 512 76 348 76 L348 76 Z " />
<glyph glyph-name="R" unicode="R" horiz-adv-x="586" d="M333 618 C421 618 476 572 476 496 C476 402 393 328 292 328 L169 328 L214 618 L333 618 L333 618 Z M363 260 C431 276 565 351 565 502 C565 617 477 700 357 700 L152 700 C144 700 139 696 138 687 L30 13 C29 4 33 0 41 0 L104 0 C112 0 117 4 119 13 L156 247 L269 247 L398 13 C403 4 410 0 420 0 L488 0 C499 0 502 5 497 14 L363 260 L363 260 Z " />
<glyph glyph-name="S" unicode="S" horiz-adv-x="549" d="M518 633 C525 642 524 648 517 652 C456 692 397 710 325 710 C197 710 88 634 88 516 C88 296 389 358 389 202 C389 136 338 76 234 76 C174 76 112 99 65 142 C62 145 59 146 56 146 C52 146 48 144 45 139 L6 92 C0 84 0 78 7 73 C64 20 140 -10 228 -10 C390 -10 479 99 479 209 C479 438 177 377 177 520 C177 583 240 624 315 624 C371 624 406 610 457 581 C460 579 463 578 466 578 C471 578 475 580 478 584 L518 633 Z " />
<glyph glyph-name="T" unicode="T" horiz-adv-x="521" d="M237 0 C246 0 251 4 252 13 L348 613 L548 613 C557 613 562 617 564 626 L574 687 C575 696 571 700 562 700 L64 700 C55 700 50 696 49 687 L39 626 C37 617 41 613 50 613 L259 613 L164 13 C162 4 166 0 175 0 L237 0 L237 0 Z " />
<glyph glyph-name="U" unicode="U" horiz-adv-x="656" d="M129 700 C120 700 115 696 113 687 L47 266 C23 119 96 -10 274 -10 C442 -10 552 113 576 266 L642 687 C644 696 641 700 632 700 L570 700 C560 700 555 696 554 687 L490 280 C469 158 398 76 281 76 C168 76 116 158 137 280 L201 687 C203 696 200 700 191 700 L129 700 L129 700 Z " />
<glyph glyph-name="V" unicode="V" horiz-adv-x="606" d="M291 0 C301 0 309 5 314 16 L647 686 C651 693 651 700 640 700 L573 700 C563 700 556 695 552 686 L269 122 L166 686 C165 695 159 700 150 700 L86 700 C75 700 72 693 73 686 L194 16 C196 5 202 0 212 0 L291 0 L291 0 Z " />
<glyph glyph-name="W" unicode="W" horiz-adv-x="910" d="M644 0 C653 0 660 5 664 14 L942 686 C945 695 946 700 935 700 L866 700 C857 700 850 695 846 686 L622 141 L558 689 C557 696 553 700 545 700 L471 700 C462 700 456 696 453 689 L216 141 L165 686 C164 695 161 700 150 700 L82 700 C73 700 69 695 70 686 L136 14 C137 5 142 0 152 0 L229 0 C240 0 247 5 250 14 L487 564 L550 14 C551 5 556 0 567 0 L644 0 L644 0 Z " />
<glyph glyph-name="X" unicode="X" horiz-adv-x="646" d="M211 690 C208 697 202 700 193 700 L110 700 C101 700 98 694 102 687 L277 358 L-18 13 C-23 6 -21 0 -13 0 L72 0 C83 0 87 3 94 11 L318 280 L455 11 C458 4 464 0 474 0 L560 0 C571 0 574 4 569 13 L383 357 L664 687 C671 696 669 700 660 700 L573 700 C564 700 557 697 551 690 L342 436 L211 690 Z " />
<glyph glyph-name="Y" unicode="Y" horiz-adv-x="550" d="M153 692 C151 697 146 700 139 700 L68 700 C58 700 55 696 60 687 L227 342 L174 13 C174 4 178 0 186 0 L248 0 C257 0 262 4 263 13 L316 342 L591 687 C596 694 595 700 586 700 L512 700 C505 700 500 697 495 692 L281 424 L153 692 L153 692 Z " />
<glyph glyph-name="Z" unicode="Z" horiz-adv-x="609" d="M-10 13 C-11 4 -7 0 0 0 L496 0 C505 0 510 4 511 13 L521 74 C522 83 519 87 510 87 L119 87 L590 616 C594 621 596 623 597 634 L606 687 C607 696 603 700 595 700 L124 700 C115 700 110 696 109 687 L99 626 C98 617 101 613 110 613 L477 615 L11 89 C4 82 0 72 -3 61 L-10 13 L-10 13 Z " />
<glyph glyph-name="bracketleft" unicode="&#x5b;" horiz-adv-x="268" d="M160 -130 C168 -130 173 -126 174 -117 L182 -70 C184 -61 180 -57 171 -57 L73 -57 L189 676 L288 676 C296 676 301 681 302 690 L310 737 C311 746 308 750 299 750 L146 750 C134 750 125 741 122 729 L-9 -109 C-12 -122 -3 -130 8 -130 L160 -130 Z " />
<glyph glyph-name="backslash" unicode="&#x5c;" horiz-adv-x="440" d="M121 687 C118 696 113 700 106 700 L60 700 C49 700 44 695 48 687 L328 13 C332 5 335 0 344 0 L390 0 C399 0 405 5 401 13 L121 687 Z " />
<glyph glyph-name="bracketright" unicode="&#x5d;" horiz-adv-x="268" d="M120 -130 C132 -130 141 -122 144 -109 L277 729 C280 741 272 750 259 750 L107 750 C99 750 94 746 92 737 L84 690 C83 681 86 676 95 676 L194 676 L77 -57 L-20 -57 C-28 -57 -33 -61 -35 -70 L-42 -117 C-44 -126 -41 -130 -32 -130 L120 -130 L120 -130 Z " />
<glyph glyph-name="asciicircum" unicode="&#x5e;" horiz-adv-x="458" d="M365 315 C367 306 372 302 379 302 L430 302 C438 302 446 306 443 315 L332 687 C330 696 326 700 319 700 L253 700 C247 700 242 696 238 687 L6 315 C-1 306 8 302 16 302 L70 302 C76 302 82 306 89 315 L276 621 L365 315 Z " />
<glyph glyph-name="underscore" unicode="&#x5f;" horiz-adv-x="521" d="M-34 -59 C-43 -59 -48 -63 -49 -72 L-59 -132 C-60 -141 -57 -146 -49 -146 L432 -146 C441 -146 446 -141 447 -132 L456 -72 C458 -63 455 -59 446 -59 L-34 -59 L-34 -59 Z " />
<glyph glyph-name="grave" unicode="&#x60;" horiz-adv-x="159" d="M188 570 C197 574 197 580 194 587 L116 741 C114 747 110 750 104 750 C102 750 100 750 98 749 L48 732 C40 730 38 725 43 716 L136 561 C140 556 143 554 148 554 C150 554 153 554 155 555 L188 570 L188 570 Z " />
<glyph glyph-name="a" unicode="a" horiz-adv-x="611" d="M101 221 C101 332 189 426 298 426 C394 426 452 350 439 255 C426 154 342 74 243 74 C154 74 101 139 101 221 L101 221 Z M472 0 C481 0 486 4 487 13 L563 487 C564 496 560 500 551 500 L490 500 C482 500 477 496 475 487 C470 465 464 426 462 403 C431 467 376 510 292 510 C135 510 13 372 13 215 C13 92 84 -10 211 -10 C299 -10 370 38 413 97 L400 13 C398 4 402 0 411 0 L472 0 L472 0 Z " />
<glyph glyph-name="b" unicode="b" horiz-adv-x="616" d="M486 279 C486 168 398 74 289 74 C193 74 135 151 148 245 C161 346 246 426 344 426 C435 426 486 360 486 279 L486 279 Z M97 0 C106 0 111 4 112 13 L126 97 C151 38 208 -10 295 -10 C451 -10 573 128 573 285 C573 408 503 510 376 510 C292 510 222 470 175 407 L199 562 C210 641 224 723 227 737 C228 746 224 750 216 750 L155 750 C146 750 141 746 139 737 L25 13 C24 4 28 0 36 0 L97 0 L97 0 Z " />
<glyph glyph-name="c" unicode="c" horiz-adv-x="470" d="M360 99 C358 103 356 105 352 105 C350 105 347 104 343 102 C312 85 279 74 240 74 C149 74 98 140 98 221 C98 332 187 426 295 426 C314 426 349 424 388 397 C391 395 393 393 396 393 C400 393 403 395 407 399 L447 446 C455 454 454 461 445 466 C416 489 370 510 309 510 C146 510 13 377 13 215 C13 86 98 -10 226 -10 C286 -10 340 10 379 33 C388 38 391 45 387 52 L360 99 L360 99 Z " />
<glyph glyph-name="d" unicode="d" horiz-adv-x="628" d="M102 221 C102 332 190 426 299 426 C395 426 453 350 440 255 C427 154 343 74 244 74 C155 74 102 139 102 221 L102 221 Z M473 0 C482 0 487 4 488 13 L603 737 C604 746 601 750 592 750 L531 750 C522 750 517 746 515 737 C512 724 501 640 488 560 L463 403 C432 467 377 510 293 510 C136 510 14 372 14 215 C14 92 85 -10 212 -10 C300 -10 371 38 414 97 L401 13 C399 4 403 0 412 0 L473 0 L473 0 Z " />
<glyph glyph-name="e" unicode="e" horiz-adv-x="542" d="M240 66 C148 66 89 134 92 218 L480 218 C491 218 498 223 499 234 C518 395 442 510 299 510 C147 510 12 383 12 215 C12 87 98 -10 226 -10 C301 -10 366 10 418 41 C427 46 429 52 425 59 L404 98 C402 102 399 105 394 105 C392 105 388 104 385 102 C341 78 296 66 240 66 L240 66 Z M103 286 C124 369 194 440 287 440 C375 440 421 383 421 286 L103 286 Z " />
<glyph glyph-name="f" unicode="f" horiz-adv-x="339" d="M406 710 C411 717 412 720 405 727 C372 750 333 759 293 759 C213 759 150 712 134 608 L117 500 L51 500 C42 500 37 496 35 487 L27 432 C26 423 29 419 37 419 L104 419 L40 13 C38 4 41 0 50 0 L111 0 C120 0 125 4 127 13 L191 419 L297 419 C306 419 311 423 312 432 L321 487 C322 496 319 500 311 500 L204 500 L218 590 C229 659 265 675 300 675 C323 675 339 670 359 661 C361 660 363 659 365 659 C367 659 370 661 372 664 L406 710 Z " />
<glyph glyph-name="g" unicode="g" horiz-adv-x="620" d="M108 221 C108 332 196 426 305 426 C401 426 460 350 447 255 C434 154 349 77 250 77 C162 77 108 140 108 221 L108 221 Z M570 487 C571 496 567 500 558 500 L497 500 C489 500 484 496 482 487 C477 465 471 426 469 403 C440 467 383 510 299 510 C143 510 21 369 21 212 C21 91 92 -7 219 -7 C308 -7 378 42 421 101 L406 4 C390 -92 312 -171 200 -171 C139 -171 89 -149 58 -113 C56 -111 53 -109 51 -109 C47 -109 44 -111 40 -115 L1 -157 C-5 -163 -6 -169 -1 -175 C36 -220 106 -255 190 -255 C353 -255 471 -146 495 11 L570 487 L570 487 Z " />
<glyph glyph-name="h" unicode="h" horiz-adv-x="597" d="M97 0 C106 0 111 4 112 13 L151 256 C162 339 239 426 324 426 C416 426 446 359 430 262 L391 13 C390 4 393 0 402 0 L463 0 C472 0 477 4 478 13 L520 277 C541 416 493 510 364 510 C277 510 209 454 174 405 L226 737 C228 746 225 750 216 750 L154 750 C145 750 140 746 139 737 L25 13 C24 4 28 0 35 0 L97 0 L97 0 Z " />
<glyph glyph-name="i" unicode="i" horiz-adv-x="250" d="M96 0 C105 0 110 4 111 13 L187 487 C188 496 184 500 175 500 L114 500 C106 500 101 496 99 487 L24 13 C22 4 26 0 35 0 L96 0 L96 0 Z M119 701 C119 670 143 646 175 646 C207 646 231 670 231 701 C231 733 207 758 175 758 C143 758 119 733 119 701 L119 701 Z " />
<glyph glyph-name="j" unicode="j" horiz-adv-x="247" d="M-161 -216 C-166 -224 -163 -230 -158 -233 C-131 -245 -104 -255 -69 -255 C19 -255 76 -196 89 -116 L185 487 C186 496 182 500 173 500 L112 500 C104 500 99 496 97 487 L4 -102 C-3 -145 -29 -171 -69 -171 C-88 -171 -100 -167 -115 -160 C-117 -159 -119 -159 -120 -159 C-124 -159 -127 -161 -130 -166 L-161 -216 L-161 -216 Z M117 701 C117 670 141 646 172 646 C204 646 229 670 229 701 C229 733 204 758 172 758 C141 758 117 733 117 701 L117 701 Z " />
<glyph glyph-name="k" unicode="k" horiz-adv-x="524" d="M348 12 C353 4 357 0 372 0 L440 0 C451 0 453 5 447 14 L296 296 L502 487 C509 494 508 500 499 500 L421 500 C412 500 404 497 398 491 L154 277 L226 737 C228 746 225 750 216 750 L154 750 C145 750 140 746 139 737 L25 13 C24 4 28 0 35 0 L97 0 C106 0 111 4 112 13 L136 164 L221 239 L348 12 L348 12 Z " />
<glyph glyph-name="l" unicode="l" horiz-adv-x="251" d="M97 0 C106 0 111 4 112 13 L226 737 C228 746 225 750 216 750 L154 750 C145 750 140 746 139 737 L25 13 C24 4 28 0 35 0 L97 0 L97 0 Z " />
<glyph glyph-name="m" unicode="m" horiz-adv-x="913" d="M115 500 C106 500 101 496 100 487 L25 13 C24 4 27 0 36 0 L97 0 C106 0 111 4 112 13 L151 256 C164 339 241 426 315 426 C396 426 418 355 405 262 L365 13 C364 4 367 0 376 0 L437 0 C446 0 451 4 453 13 L491 256 C504 339 583 426 656 426 C736 426 758 355 745 262 L705 13 C704 4 707 0 716 0 L778 0 C787 0 792 4 793 13 L835 277 C858 420 809 510 696 510 C604 510 534 450 489 389 C477 457 436 510 355 510 C271 510 208 451 174 401 C174 403 187 484 187 487 C189 496 185 500 176 500 L115 500 Z " />
<glyph glyph-name="n" unicode="n" horiz-adv-x="597" d="M463 0 C472 0 477 4 479 13 L520 277 C541 416 495 510 364 510 C278 510 209 451 174 403 C174 404 187 485 187 487 C189 496 185 500 176 500 L115 500 C106 500 101 496 100 487 L25 13 C24 4 27 0 36 0 L97 0 C106 0 111 4 112 13 L151 256 C164 339 239 426 324 426 C416 426 446 359 431 262 L391 13 C390 4 393 0 402 0 L463 0 L463 0 Z " />
<glyph glyph-name="o" unicode="o" horiz-adv-x="564" d="M12 215 C12 87 98 -10 226 -10 C389 -10 523 123 523 285 C523 413 437 510 309 510 C145 510 12 377 12 215 L12 215 Z M98 221 C98 332 186 426 295 426 C386 426 437 360 437 279 C437 168 349 74 240 74 C149 74 98 140 98 221 L98 221 Z " />
<glyph glyph-name="p" unicode="p" horiz-adv-x="612" d="M482 279 C482 168 394 74 286 74 C189 74 131 151 144 245 C157 346 241 426 340 426 C429 426 482 360 482 279 L482 279 Z M111 500 C102 500 97 496 96 487 L-18 -237 C-20 -246 -17 -250 -8 -250 L53 -250 C62 -250 67 -246 69 -237 C69 -224 84 -140 97 -60 L122 97 C147 38 205 -10 292 -10 C449 -10 569 128 569 285 C569 408 502 510 371 510 C287 510 218 470 170 407 L183 487 C185 496 181 500 172 500 L111 500 Z " />
<glyph glyph-name="q" unicode="q" horiz-adv-x="614" d="M102 221 C102 332 190 426 299 426 C395 426 453 348 440 255 C427 155 343 74 244 74 C155 74 102 139 102 221 L102 221 Z M491 500 C483 500 478 496 476 487 L463 403 C432 467 377 510 293 510 C136 510 14 372 14 215 C14 92 85 -10 212 -10 C300 -10 371 38 414 97 L389 -60 C376 -139 362 -224 362 -237 C360 -246 363 -250 372 -250 L433 -250 C443 -250 448 -246 449 -237 L564 487 C565 496 561 500 552 500 L491 500 L491 500 Z " />
<glyph glyph-name="r" unicode="r" horiz-adv-x="390" d="M115 500 C106 500 101 496 100 487 C73 320 51 180 25 13 C24 4 28 0 36 0 L97 0 C106 0 111 4 112 13 L148 239 C164 343 245 424 312 424 C327 424 342 422 357 417 C360 416 362 416 364 416 C369 416 373 418 375 423 L402 479 C406 488 405 495 399 498 C380 507 353 510 330 510 C263 510 202 452 173 396 L187 487 C189 496 185 500 176 500 L115 500 L115 500 Z " />
<glyph glyph-name="s" unicode="s" horiz-adv-x="431" d="M49 115 C46 118 42 120 39 120 C35 120 32 118 28 115 L-8 83 C-15 76 -19 69 -12 62 C25 17 92 -10 163 -10 C284 -10 363 63 363 155 C363 327 128 278 128 365 C128 412 183 433 230 433 C267 433 294 424 329 399 C333 397 336 395 339 395 C342 395 346 397 350 400 L388 436 C395 443 395 449 390 454 C359 485 302 510 235 510 C136 510 46 448 46 360 C46 198 280 244 280 144 C280 97 235 66 167 66 C116 66 80 84 49 115 L49 115 Z " />
<glyph glyph-name="t" unicode="t" horiz-adv-x="357" d="M267 86 C265 90 263 92 259 92 C258 92 256 91 253 90 C230 79 213 74 190 74 C155 74 131 91 138 130 L184 419 L311 419 C319 419 324 423 325 432 L334 487 C335 496 331 500 322 500 L197 500 L218 635 C219 644 216 648 207 648 L146 648 C137 648 132 644 130 635 L109 500 L55 500 C47 500 42 496 40 487 L31 432 C30 423 34 419 43 419 L97 419 L49 121 C36 41 83 -10 167 -10 C202 -10 238 0 274 17 C281 22 284 27 282 34 L267 86 L267 86 Z " />
<glyph glyph-name="u" unicode="u" horiz-adv-x="582" d="M92 500 C83 500 78 496 77 487 L35 223 C14 84 62 -10 191 -10 C278 -10 345 48 382 100 C383 99 367 15 368 13 C366 4 370 0 379 0 L440 0 C449 0 454 4 455 13 L530 487 C532 496 528 500 519 500 L458 500 C449 500 444 496 443 487 L404 244 C391 161 317 74 231 74 C139 74 109 139 124 238 L164 487 C165 496 162 500 153 500 L92 500 L92 500 Z " />
<glyph glyph-name="v" unicode="v" horiz-adv-x="460" d="M116 487 C113 495 112 500 101 500 L37 500 C28 500 24 496 27 487 L123 16 C126 4 132 0 139 0 L208 0 C215 0 222 4 229 16 L474 487 C479 496 477 500 468 500 L399 500 C391 500 385 496 381 487 L190 120 L116 487 Z " />
<glyph glyph-name="w" unicode="w" horiz-adv-x="683" d="M119 487 C118 496 113 500 105 500 L43 500 C35 500 32 496 33 487 L73 16 C74 5 80 0 89 0 L167 0 C178 0 184 7 189 16 L345 390 L383 16 C386 7 388 0 399 0 L476 0 C485 0 492 5 497 16 L687 487 C691 496 689 500 680 500 L618 500 C610 500 604 496 601 487 L452 120 L409 485 C408 495 403 500 394 500 L328 500 C319 500 312 495 309 485 L230 302 C192 211 152 124 151 120 L119 487 L119 487 Z " />
<glyph glyph-name="x" unicode="x" horiz-adv-x="484" d="M310 10 C313 3 319 0 329 0 L396 0 C405 0 409 6 404 13 L279 251 L480 487 C484 494 484 500 475 500 L405 500 C394 500 390 496 383 489 L235 312 L140 489 C137 496 130 500 121 500 L53 500 C44 500 41 494 45 487 L171 254 L-32 13 C-37 6 -36 0 -27 0 L41 0 C52 0 57 3 64 10 L215 191 L310 10 Z " />
<glyph glyph-name="y" unicode="y" horiz-adv-x="586" d="M534 487 C536 496 532 500 523 500 L462 500 C453 500 448 496 447 487 L408 245 C394 172 323 84 237 84 C145 84 115 149 130 248 L168 487 C169 496 166 500 157 500 L95 500 C87 500 82 496 81 487 L40 233 C19 94 66 0 197 0 C280 0 357 57 387 106 L371 7 C355 -89 290 -171 181 -171 C120 -171 72 -146 48 -103 C46 -101 43 -99 41 -99 C38 -99 35 -101 31 -104 L-9 -147 C-15 -153 -16 -159 -11 -165 C21 -216 89 -255 172 -255 C335 -255 435 -140 459 15 L534 487 L534 487 Z " />
<glyph glyph-name="z" unicode="z" horiz-adv-x="469" d="M-18 13 C-19 4 -15 0 -7 0 L361 0 C369 0 374 4 376 13 L384 67 C386 76 382 80 373 80 L108 80 L416 424 C424 433 428 440 431 455 L436 487 C438 496 434 500 425 500 L86 500 C78 500 73 496 71 487 L63 433 C61 424 65 420 74 420 L310 420 L3 76 C-5 68 -11 61 -12 49 L-18 13 L-18 13 Z " />
<glyph glyph-name="braceleft" unicode="&#x7b;" horiz-adv-x="256" d="M6 267 C59 267 62 211 51 143 L27 -4 C19 -59 44 -95 105 -95 L159 -95 C167 -95 172 -91 173 -82 L178 -52 C179 -43 176 -39 168 -39 L138 -39 C112 -39 101 -25 105 2 L128 143 C139 209 141 301 74 301 C133 301 167 387 177 453 L200 600 C204 627 218 644 246 644 L275 644 C284 644 289 648 290 657 L295 687 C296 696 293 700 284 700 L230 700 C175 700 136 673 125 613 L100 453 C92 397 69 336 17 336 C9 336 4 331 2 322 L-5 280 C-6 271 -3 267 6 267 L6 267 Z " />
<glyph glyph-name="bar" unicode="&#x7c;" horiz-adv-x="238" d="M227 707 C228 716 224 720 215 720 L154 720 C146 720 141 716 139 707 L0 -171 C-1 -180 3 -184 12 -184 L72 -184 C81 -184 86 -180 87 -171 L227 707 L227 707 Z " />
<glyph glyph-name="braceright" unicode="&#x7d;" horiz-adv-x="256" d="M238 267 C246 267 251 271 252 280 L259 322 C260 331 257 336 248 336 C194 336 194 397 202 453 L228 613 C239 673 205 700 150 700 L96 700 C88 700 83 696 82 687 L77 657 C76 648 79 644 87 644 L117 644 C145 644 153 627 149 600 L125 453 C115 387 120 301 180 301 C113 301 87 209 76 143 L54 2 C50 -25 35 -39 9 -39 L-20 -39 C-29 -39 -34 -43 -35 -52 L-39 -82 C-40 -91 -37 -95 -29 -95 L25 -95 C86 -95 121 -59 130 -4 L153 143 C164 211 184 267 238 267 L238 267 Z " />
<glyph glyph-name="asciitilde" unicode="&#x7e;" horiz-adv-x="482" d="M42 230 C73 269 100 290 144 290 C205 290 272 223 339 223 C398 223 436 274 473 311 C479 317 479 323 473 329 L448 350 C445 352 443 353 440 353 C437 353 433 351 429 348 C408 325 386 296 353 296 C295 296 219 360 157 363 C86 363 39 320 -3 267 C-9 259 -8 253 -1 249 L25 228 C27 226 30 224 32 224 C36 224 39 226 42 230 L42 230 Z " />
<glyph glyph-name="exclamdown" unicode="&#xa1;" horiz-adv-x="206" d="M71 321 C62 321 57 316 56 307 L-27 -187 C-28 -196 -24 -200 -16 -200 L46 -200 C56 -200 61 -196 62 -187 L136 307 C137 316 134 321 125 321 L71 321 L71 321 Z M173 454 C173 486 149 510 118 510 C86 510 61 486 61 454 C61 423 86 398 118 398 C149 398 173 423 173 454 L173 454 Z " />
<glyph glyph-name="cent" unicode="&#xa2;" horiz-adv-x="469" d="M241 -8 C294 -5 340 10 377 33 C386 38 389 45 385 52 L359 99 C357 103 354 105 351 105 C348 105 345 104 341 102 C310 85 277 74 238 74 C148 74 97 140 97 221 C97 332 186 426 294 426 C313 426 349 424 386 397 C389 395 392 394 395 394 C399 394 403 396 406 400 L447 446 C453 453 452 460 445 466 C414 489 376 505 323 508 L352 690 C353 699 349 703 341 703 L311 703 C302 703 297 699 296 690 L267 507 C133 491 11 373 11 215 C11 103 74 11 185 -7 L156 -188 C155 -197 159 -201 168 -201 L198 -201 C207 -201 211 -197 212 -188 L241 -8 L241 -8 Z " />
<glyph glyph-name="sterling" unicode="&#xa3;" horiz-adv-x="511" d="M451 74 C452 79 451 82 448 82 C446 82 442 81 438 79 C410 62 378 57 346 57 C280 57 208 79 142 79 C130 79 118 79 107 77 L141 295 L337 295 C348 295 349 299 352 308 L357 341 C358 350 355 355 346 355 L150 355 C166 448 175 542 268 601 C299 620 333 627 368 627 C416 627 463 613 499 596 C501 595 502 595 503 595 C509 595 513 601 515 604 L538 647 C541 650 542 657 533 662 C489 683 433 698 376 698 C326 698 276 687 232 658 C121 587 99 488 78 355 L29 355 C21 355 16 350 14 341 L9 308 C8 299 12 295 20 295 L69 295 L24 12 C22 4 25 0 30 0 C31 0 33 0 35 1 C57 8 80 11 105 11 C179 11 262 -14 336 -14 C370 -14 402 -8 430 7 C441 12 441 15 444 26 L451 74 L451 74 Z " />
<glyph glyph-name="currency" unicode="&#xa4;" horiz-adv-x="529" d="M129 320 C140 396 210 456 284 456 C358 456 411 396 400 320 C387 245 318 185 242 185 C168 185 116 246 129 320 L129 320 Z M409 94 C412 92 414 90 417 90 C420 90 424 92 427 94 L461 122 C467 128 468 134 463 140 L414 199 C449 238 468 288 473 320 C478 353 477 402 452 441 L521 501 C528 508 529 514 524 520 L500 548 C498 551 495 553 492 553 C489 553 485 551 481 548 L413 489 C374 520 330 529 297 529 C274 529 227 527 171 490 L120 549 C118 552 115 554 111 554 C108 554 105 552 101 549 L68 521 C61 516 60 510 65 503 L117 443 C96 419 64 380 55 320 C50 287 50 243 77 199 L8 138 C1 132 0 126 5 120 L30 92 C33 89 35 87 38 87 C41 87 45 89 48 92 L115 151 C150 119 206 111 231 111 C263 111 315 118 359 153 L409 94 L409 94 Z " />
<glyph glyph-name="yen" unicode="&#xa5;" horiz-adv-x="552" d="M176 13 C175 4 179 0 188 0 L250 0 C259 0 264 4 265 13 L289 164 L473 164 C481 164 486 168 487 177 L495 223 C496 232 493 236 484 236 L300 236 L317 342 L501 342 C510 342 515 347 516 356 L523 401 C525 410 521 415 512 415 L374 415 L593 687 C597 694 597 700 589 700 L516 700 C509 700 504 697 499 692 L285 421 L156 692 C154 697 149 700 142 700 L69 700 C61 700 58 694 62 687 L194 415 L54 415 C47 415 42 410 40 401 L33 356 C32 347 35 342 43 342 L229 342 L212 236 L26 236 C18 236 13 232 12 223 L4 177 C3 168 6 164 15 164 L201 164 L176 13 Z " />
<glyph glyph-name="brokenbar" unicode="&#xa6;" horiz-adv-x="233" d="M218 708 C219 717 215 721 207 721 L146 721 C137 721 132 717 131 708 L68 310 C67 301 71 297 79 297 L140 297 C149 297 154 301 156 310 L218 708 L218 708 Z M141 224 C143 233 140 237 131 237 L70 237 C61 237 56 233 54 224 L-8 -174 C-10 -183 -6 -187 3 -187 L64 -187 C72 -187 77 -183 79 -174 L141 224 L141 224 Z " />
<glyph glyph-name="section" unicode="&#xa7;" horiz-adv-x="550" d="M399 46 C450 86 480 145 480 209 C480 432 179 376 179 520 C179 583 244 624 316 624 C373 624 415 608 458 581 C461 578 465 577 468 577 C472 577 476 579 479 584 L520 633 C525 642 525 648 518 652 C461 691 397 710 326 710 C198 710 89 634 89 516 C89 467 102 438 126 411 C70 376 33 326 33 257 C33 42 334 101 334 -58 C334 -130 276 -184 179 -184 C122 -184 55 -162 10 -118 C7 -115 4 -114 1 -114 C-3 -114 -7 -116 -10 -120 L-49 -168 C-55 -175 -55 -182 -48 -187 C9 -242 89 -270 173 -270 C329 -270 424 -166 424 -50 C424 -11 418 15 399 46 L399 46 Z M334 101 C263 164 122 160 122 261 C122 302 149 335 200 354 C277 306 391 301 391 202 C391 154 365 118 334 101 L334 101 Z " />
<glyph glyph-name="dieresis" unicode="&#xa8;" horiz-adv-x="375" d="M60 565 C60 534 82 511 113 511 C144 511 168 534 168 565 C168 596 144 619 113 619 C82 619 60 596 60 565 L60 565 Z M267 565 C267 534 289 511 320 511 C351 511 375 534 375 565 C375 596 351 619 320 619 C289 619 267 596 267 565 L267 565 Z " />
<glyph glyph-name="copyright" unicode="&#xa9;" horiz-adv-x="846" d="M426 765 C209 765 38 588 38 372 C38 160 209 -17 426 -17 C642 -17 809 160 809 372 C809 588 638 765 426 765 L426 765 Z M426 21 C232 21 76 185 76 372 C76 568 237 727 426 727 C625 727 771 560 771 372 C771 168 607 21 426 21 L426 21 Z M531 216 C538 220 539 227 534 234 L521 253 C518 257 515 259 511 259 C509 259 506 258 503 256 C484 245 462 238 435 238 C352 238 301 306 301 370 C301 441 355 504 435 504 C447 504 473 502 500 487 C503 485 506 484 509 484 C513 484 516 486 519 490 L533 509 C537 515 536 520 530 525 C510 540 473 553 434 553 C334 553 252 472 252 371 C252 270 334 189 434 189 C474 189 507 201 531 216 L531 216 Z " />
<glyph glyph-name="guillemotleft" unicode="&#xab;" horiz-adv-x="468" d="M449 412 C456 419 452 425 443 425 L382 425 C373 425 366 421 361 412 L218 239 C213 232 213 228 215 218 L303 47 C306 38 312 34 321 34 L381 34 C392 34 395 38 390 47 L295 229 L449 412 Z M229 412 C236 419 232 425 223 425 L162 425 C155 425 148 421 141 412 L-2 239 C-7 232 -7 228 -5 218 L84 47 C87 38 93 34 101 34 L161 34 C170 34 174 40 171 47 L76 229 L229 412 Z " />
<glyph glyph-name="logicalnot" unicode="&#xac;" horiz-adv-x="542" d="M433 41 C442 41 447 45 448 53 L493 335 L30 335 C21 335 16 331 16 322 L7 271 C6 262 9 258 18 258 L404 258 L371 53 C369 45 373 41 382 41 L433 41 L433 41 Z " />
<glyph glyph-name="uni00AD" unicode="&#xad;" horiz-adv-x="379" d="M45 297 C36 297 31 293 30 284 L20 223 C19 214 22 210 30 210 L312 210 C321 210 326 214 327 223 L337 284 C338 293 335 297 326 297 L45 297 L45 297 Z " />
<glyph glyph-name="registered" unicode="&#xae;" horiz-adv-x="846" d="M426 765 C209 765 38 588 38 372 C38 160 209 -17 426 -17 C642 -17 809 160 809 372 C809 588 638 765 426 765 L426 765 Z M426 21 C232 21 76 185 76 372 C76 568 237 727 426 727 C625 727 771 560 771 372 C771 168 607 21 426 21 L426 21 Z M424 550 C484 550 517 507 517 462 C517 411 484 371 424 371 L336 371 L336 550 L424 550 L424 550 Z M457 328 C490 336 563 367 563 462 C563 539 501 596 424 596 L299 596 C292 596 289 593 289 586 L289 178 C289 170 292 166 299 166 L325 166 C332 166 335 170 335 178 L335 324 L405 324 L514 176 C518 171 523 166 530 166 L565 166 C572 166 571 173 568 176 L457 328 L457 328 Z " />
<glyph glyph-name="degree" unicode="&#xb0;" horiz-adv-x="389" d="M46 526 C46 430 126 350 222 350 C318 350 398 430 398 526 C398 622 318 702 222 702 C126 702 46 622 46 526 L46 526 Z M107 525 C107 593 154 643 222 643 C287 643 339 592 339 525 C339 458 287 410 222 410 C154 410 107 458 107 525 L107 525 Z " />
<glyph glyph-name="plusminus" unicode="&#xb1;" horiz-adv-x="537" d="M15 124 C7 124 2 120 0 111 L-8 60 C-9 51 -6 47 3 47 L440 47 C448 47 453 51 455 60 L463 111 C465 120 461 124 452 124 L15 124 L15 124 Z M493 401 C502 401 507 405 508 414 L516 465 C517 474 514 478 506 478 L330 478 L358 653 C360 661 356 665 347 665 L296 665 C287 665 282 661 281 653 L253 478 L77 478 C68 478 63 474 62 465 L54 414 C52 405 55 401 64 401 L240 401 L213 225 C211 216 215 212 224 212 L275 212 C284 212 289 216 290 225 L318 401 L493 401 Z " />
<glyph glyph-name="acute" unicode="&#xb4;" horiz-adv-x="189" d="M90 553 C92 552 94 552 96 552 C101 552 106 554 109 559 L227 715 C233 722 232 728 224 731 L174 749 C172 750 170 750 168 750 C162 750 158 747 155 741 L53 587 C49 580 50 574 55 570 L90 553 L90 553 Z " />
<glyph glyph-name="mu" unicode="&#xb5;" horiz-adv-x="585" d="M112 53 C128 20 162 -5 224 -5 C296 -5 360 41 398 100 L384 13 C383 4 387 0 395 0 L457 0 C466 0 470 4 471 13 L546 487 C548 496 545 500 536 500 L474 500 C465 500 460 496 459 487 L420 244 C407 161 333 74 247 74 C155 74 125 145 141 238 L180 487 C181 496 178 500 169 500 L108 500 C99 500 94 496 93 487 L-21 -237 C-23 -246 -20 -250 -11 -250 L50 -250 C60 -250 65 -246 66 -237 L112 53 Z " />
<glyph glyph-name="paragraph" unicode="&#xb6;" horiz-adv-x="583" d="M324 -219 C323 -228 327 -232 336 -232 L381 -232 C390 -232 395 -228 396 -219 L527 610 L601 610 C610 610 615 614 617 623 L624 669 C625 678 622 682 613 682 L267 682 C144 682 33 578 33 454 C33 354 103 278 203 278 L124 -219 C123 -228 127 -232 135 -232 L181 -232 C190 -232 195 -228 196 -219 L327 610 L455 610 L324 -219 L324 -219 Z " />
<glyph glyph-name="periodcentered" unicode="&#xb7;" horiz-adv-x="176" d="M28 329 C28 297 52 273 83 273 C115 273 140 297 140 329 C140 360 115 385 83 385 C52 385 28 360 28 329 L28 329 Z " />
<glyph glyph-name="cedilla" unicode="&#xb8;" horiz-adv-x="165" d="M-49 -165 C-52 -172 -48 -176 -41 -176 L14 -176 C23 -176 29 -172 32 -165 L84 -5 C86 3 84 7 77 7 L30 7 C23 7 17 3 14 -5 L-49 -165 Z " />
<glyph glyph-name="ordmasculine" unicode="&#xba;" horiz-adv-x="566" d="M14 215 C14 87 100 -10 228 -10 C391 -10 525 123 525 285 C525 413 439 510 311 510 C147 510 14 377 14 215 L14 215 Z M100 221 C100 332 188 426 297 426 C388 426 439 360 439 279 C439 168 351 74 242 74 C151 74 100 140 100 221 L100 221 Z " />
<glyph glyph-name="guillemotright" unicode="&#xbb;" horiz-adv-x="470" d="M-9 47 C-16 40 -12 34 -3 34 L57 34 C66 34 73 38 78 47 L222 218 L225 224 C226 228 228 232 225 239 L136 412 C133 421 127 425 118 425 L57 425 C48 425 45 419 48 412 L143 229 L-9 47 Z M211 47 C204 40 208 34 217 34 L277 34 C284 34 291 38 298 47 L441 218 L444 224 C445 228 447 232 444 239 L355 412 C352 421 346 425 338 425 L277 425 C266 425 263 421 268 412 L362 229 L211 47 Z " />
<glyph glyph-name="questiondown" unicode="&#xbf;" horiz-adv-x="402" d="M319 120 C317 125 314 128 311 128 C308 128 305 126 301 124 C260 96 213 76 173 76 C110 76 86 107 86 150 C86 259 261 284 289 465 L296 505 C297 514 297 521 286 521 L226 521 C215 521 212 514 209 505 L203 465 C179 320 -5 279 -5 131 C-5 55 47 -10 153 -10 C221 -10 285 16 336 51 C347 58 347 63 344 70 L319 120 L319 120 Z M329 654 C329 686 304 710 273 710 C241 710 217 686 217 654 C217 623 241 598 273 598 C304 598 329 623 329 654 L329 654 Z " />
<glyph glyph-name="Agrave" unicode="&#xc0;" horiz-adv-x="633" d="M51 0 C64 0 68 4 72 13 L153 177 L429 177 L459 15 C462 3 465 0 476 0 L539 0 C549 0 553 5 551 15 L430 687 C429 696 425 700 416 700 L331 700 C323 700 317 696 313 687 L-22 13 C-27 4 -24 0 -14 0 L51 0 L51 0 Z M189 261 L358 596 L421 261 L189 261 Z M397 775 C406 779 406 785 403 792 L325 946 C323 952 319 955 313 955 C311 955 309 955 307 954 L257 937 C249 935 247 930 252 921 L345 766 C349 761 352 759 357 759 C359 759 362 759 364 760 L397 775 L397 775 Z " />
<glyph glyph-name="Aacute" unicode="&#xc1;" horiz-adv-x="633" d="M51 0 C64 0 68 4 72 13 L153 177 L429 177 L459 15 C462 3 465 0 476 0 L539 0 C549 0 553 5 551 15 L430 687 C429 696 425 700 416 700 L331 700 C323 700 317 696 313 687 L-22 13 C-27 4 -24 0 -14 0 L51 0 L51 0 Z M189 261 L358 596 L421 261 L189 261 Z M388 758 C390 757 392 757 394 757 C399 757 404 759 407 764 L525 920 C531 927 530 933 522 936 L472 954 C470 955 468 955 466 955 C460 955 456 952 453 946 L351 792 C347 785 348 779 353 775 L388 758 L388 758 Z " />
<glyph glyph-name="Acircumflex" unicode="&#xc2;" horiz-adv-x="633" d="M51 0 C64 0 68 4 72 13 L153 177 L429 177 L459 15 C462 3 465 0 476 0 L539 0 C549 0 553 5 551 15 L430 687 C429 696 425 700 416 700 L331 700 C323 700 317 696 313 687 L-22 13 C-27 4 -24 0 -14 0 L51 0 L51 0 Z M189 261 L358 596 L421 261 L189 261 Z M389 940 C379 940 370 936 361 927 L225 801 C218 794 218 788 223 782 L239 758 C242 755 245 753 249 753 C252 753 256 755 260 758 L400 874 L500 760 C503 756 506 754 510 754 C513 754 517 756 520 759 L543 782 C551 789 552 795 547 801 L450 927 C445 934 439 940 427 940 L389 940 L389 940 Z " />
<glyph glyph-name="Atilde" unicode="&#xc3;" horiz-adv-x="633" d="M51 0 C64 0 68 4 72 13 L153 177 L429 177 L459 15 C462 3 465 0 476 0 L539 0 C549 0 553 5 551 15 L430 687 C429 696 425 700 416 700 L331 700 C323 700 317 696 313 687 L-22 13 C-27 4 -24 0 -14 0 L51 0 L51 0 Z M189 261 L358 596 L421 261 L189 261 Z M464 863 C419 863 404 926 340 926 C305 926 258 900 221 868 C212 861 211 857 211 848 L208 807 C209 801 211 798 214 798 C216 798 219 799 222 802 C251 828 294 860 323 860 C372 860 383 797 448 797 C481 797 530 824 567 855 C575 862 576 866 576 875 L579 917 C579 922 577 925 573 925 C571 925 568 924 565 921 C536 894 495 863 464 863 L464 863 Z " />
<glyph glyph-name="Adieresis" unicode="&#xc4;" horiz-adv-x="629" d="M51 0 C64 0 68 4 72 13 L153 177 L429 177 L459 15 C462 3 465 0 476 0 L539 0 C549 0 553 5 551 15 L430 687 C429 696 425 700 416 700 L331 700 C323 700 317 696 313 687 L-22 13 C-27 4 -24 0 -14 0 L51 0 L51 0 Z M189 261 L358 596 L421 261 L189 261 Z M238 836 C238 805 260 782 291 782 C322 782 346 805 346 836 C346 867 322 890 291 890 C260 890 238 867 238 836 L238 836 Z M445 836 C445 805 467 782 498 782 C529 782 553 805 553 836 C553 867 529 890 498 890 C467 890 445 867 445 836 L445 836 Z " />
<glyph glyph-name="Aring" unicode="&#xc5;" horiz-adv-x="633" d="M51 0 C64 0 68 4 72 13 L153 177 L429 177 L459 15 C462 3 465 0 476 0 L539 0 C549 0 553 5 551 15 L430 687 C429 696 425 700 416 700 L331 700 C323 700 317 696 313 687 L-22 13 C-27 4 -24 0 -14 0 L51 0 L51 0 Z M189 261 L358 596 L421 261 L189 261 Z M283 861 C283 800 335 748 396 748 C457 748 508 800 508 861 C508 922 457 973 396 973 C335 973 283 922 283 861 L283 861 Z M341 861 C341 892 365 916 396 916 C427 916 451 892 451 861 C451 830 427 806 396 806 C365 806 341 830 341 861 L341 861 Z " />
<glyph glyph-name="AE" unicode="&#xc6;" horiz-adv-x="857" d="M234 260 L441 575 L442 575 L392 260 L234 260 Z M56 0 C65 0 70 6 75 13 L183 177 L378 177 L352 13 C352 9 352 0 364 0 L735 0 C744 0 749 4 750 13 L760 74 C761 83 758 87 749 87 L458 87 L492 308 L748 308 C758 308 763 312 764 321 L773 379 C774 388 771 392 762 392 L506 392 L540 613 L831 613 C840 613 846 617 847 626 L857 687 C857 696 853 700 845 700 L439 700 C430 700 422 696 417 687 L-21 13 C-26 4 -23 0 -12 0 L56 0 Z " />
<glyph glyph-name="Ccedilla" unicode="&#xc7;" horiz-adv-x="648" d="M240 -165 C237 -172 241 -176 248 -176 L302 -176 C310 -176 316 -172 319 -165 L370 -9 C441 -2 490 13 550 45 C558 50 560 56 557 65 L533 115 C531 119 527 121 523 121 C520 121 516 120 512 118 C465 90 412 76 361 76 C228 76 135 169 135 302 C135 474 285 624 448 624 C503 624 544 610 584 583 C587 581 591 580 593 580 C598 580 603 583 607 587 L645 635 C652 643 651 649 642 654 C595 686 536 710 461 710 C245 710 46 522 46 293 C46 146 141 16 305 -5 L240 -165 L240 -165 Z " />
<glyph glyph-name="Egrave" unicode="&#xc8;" horiz-adv-x="558" d="M149 700 C139 700 134 696 134 687 L26 13 C26 4 30 0 38 0 L433 0 C442 0 447 4 448 13 L458 74 C459 83 456 87 447 87 L127 87 L161 308 L446 308 C455 308 460 312 462 321 L470 379 C472 388 469 392 460 392 L175 392 L210 613 L529 613 C538 613 543 617 545 626 L555 687 C555 696 551 700 543 700 L149 700 L149 700 Z M381 776 C390 780 390 786 387 793 L309 947 C307 953 303 956 297 956 C295 956 293 956 291 955 L241 938 C233 936 231 931 236 922 L329 767 C333 762 336 760 341 760 C343 760 346 760 348 761 L381 776 L381 776 Z " />
<glyph glyph-name="Eacute" unicode="&#xc9;" horiz-adv-x="555" d="M149 700 C139 700 134 696 134 687 L26 13 C26 4 30 0 38 0 L433 0 C442 0 447 4 448 13 L458 74 C459 83 456 87 447 87 L127 87 L161 308 L446 308 C455 308 460 312 462 321 L470 379 C472 388 469 392 460 392 L175 392 L210 613 L529 613 C538 613 543 617 545 626 L555 687 C555 696 551 700 543 700 L149 700 L149 700 Z M352 760 C354 759 356 759 358 759 C363 759 368 761 371 766 L489 922 C495 929 494 935 486 938 L436 956 C434 957 432 957 430 957 C424 957 420 954 417 948 L315 794 C311 787 312 781 317 777 L352 760 L352 760 Z " />
<glyph glyph-name="Ecircumflex" unicode="&#xca;" horiz-adv-x="555" d="M149 700 C139 700 134 696 134 687 L26 13 C26 4 30 0 38 0 L433 0 C442 0 447 4 448 13 L458 74 C459 83 456 87 447 87 L127 87 L161 308 L446 308 C455 308 460 312 462 321 L470 379 C472 388 469 392 460 392 L175 392 L210 613 L529 613 C538 613 543 617 545 626 L555 687 C555 696 551 700 543 700 L149 700 L149 700 Z M362 940 C352 940 343 936 334 927 L198 801 C191 794 191 788 196 782 L212 758 C215 755 218 753 222 753 C225 753 229 755 233 758 L373 874 L473 760 C476 756 479 754 483 754 C486 754 490 756 493 759 L516 782 C524 789 525 795 520 801 L423 927 C418 934 412 940 400 940 L362 940 L362 940 Z " />
<glyph glyph-name="Edieresis" unicode="&#xcb;" horiz-adv-x="561" d="M149 700 C139 700 134 696 134 687 L26 13 C26 4 30 0 38 0 L433 0 C442 0 447 4 448 13 L458 74 C459 83 456 87 447 87 L127 87 L161 308 L446 308 C455 308 460 312 462 321 L470 379 C472 388 469 392 460 392 L175 392 L210 613 L529 613 C538 613 543 617 545 626 L555 687 C555 696 551 700 543 700 L149 700 L149 700 Z M206 836 C206 805 228 782 259 782 C290 782 314 805 314 836 C314 867 290 890 259 890 C228 890 206 867 206 836 L206 836 Z M413 836 C413 805 435 782 466 782 C497 782 521 805 521 836 C521 867 497 890 466 890 C435 890 413 867 413 836 L413 836 Z " />
<glyph glyph-name="Igrave" unicode="&#xcc;" horiz-adv-x="255" d="M103 0 C112 0 117 4 118 13 L225 687 C226 696 222 700 214 700 L152 700 C143 700 138 696 137 687 L29 13 C29 4 33 0 41 0 L103 0 L103 0 Z M213 776 C222 780 222 786 219 793 L141 947 C139 953 135 956 129 956 C127 956 125 956 123 955 L73 938 C65 936 63 931 68 922 L161 767 C165 762 168 760 173 760 C175 760 178 760 180 761 L213 776 L213 776 Z " />
<glyph glyph-name="Iacute" unicode="&#xcd;" horiz-adv-x="256" d="M103 0 C112 0 117 4 118 13 L225 687 C226 696 222 700 214 700 L152 700 C143 700 138 696 137 687 L29 13 C29 4 33 0 41 0 L103 0 L103 0 Z M205 760 C207 759 209 759 211 759 C216 759 221 761 224 766 L342 922 C348 929 347 935 339 938 L289 956 C287 957 285 957 283 957 C277 957 273 954 270 948 L168 794 C164 787 165 781 170 777 L205 760 L205 760 Z " />
<glyph glyph-name="Icircumflex" unicode="&#xce;" horiz-adv-x="254" d="M109 0 C118 0 123 4 124 13 L231 687 C232 696 228 700 220 700 L158 700 C149 700 144 696 143 687 L35 13 C35 4 39 0 47 0 L109 0 L109 0 Z M207 940 C197 940 188 936 179 927 L43 801 C36 794 36 788 41 782 L57 758 C60 755 63 753 67 753 C70 753 74 755 78 758 L218 874 L318 760 C321 756 324 754 328 754 C331 754 335 756 338 759 L361 782 C369 789 370 795 365 801 L268 927 C263 934 257 940 245 940 L207 940 L207 940 Z " />
<glyph glyph-name="Idieresis" unicode="&#xcf;" horiz-adv-x="253" d="M103 0 C112 0 117 4 118 13 L225 687 C226 696 222 700 214 700 L152 700 C143 700 138 696 137 687 L29 13 C29 4 33 0 41 0 L103 0 L103 0 Z M41 836 C41 805 63 782 94 782 C125 782 149 805 149 836 C149 867 125 890 94 890 C63 890 41 867 41 836 L41 836 Z M248 836 C248 805 270 782 301 782 C332 782 356 805 356 836 C356 867 332 890 301 890 C270 890 248 867 248 836 L248 836 Z " />
<glyph glyph-name="Eth" unicode="&#xd0;" horiz-adv-x="713" d="M19 13 C18 4 21 0 30 0 L268 0 C496 0 675 177 675 407 C675 584 570 700 375 700 L141 700 C132 700 127 696 127 687 L79 386 L17 386 C9 386 4 381 2 372 L-4 331 C-5 322 -2 317 6 317 L67 317 L19 13 Z M203 613 L361 613 C510 613 587 532 587 397 C587 226 451 87 278 87 L120 87 L156 317 L263 317 C273 317 278 321 279 330 L286 373 C287 382 283 386 274 386 L167 386 L203 613 Z " />
<glyph glyph-name="Ntilde" unicode="&#xd1;" horiz-adv-x="717" d="M569 0 C578 0 583 4 584 13 L692 687 C692 696 688 700 680 700 L618 700 C609 700 604 696 603 687 L518 150 L232 687 C227 695 223 700 211 700 L148 700 C139 700 134 696 134 687 L26 13 C26 4 30 0 37 0 L100 0 C109 0 114 4 115 13 L200 550 L486 13 C491 5 495 0 506 0 L569 0 Z M500 863 C455 863 440 926 376 926 C341 926 294 900 257 868 C248 861 247 857 247 848 L244 807 C245 801 247 798 250 798 C252 798 255 799 258 802 C287 828 330 860 359 860 C408 860 419 797 484 797 C517 797 566 824 603 855 C611 862 612 866 612 875 L615 917 C615 922 613 925 609 925 C607 925 604 924 601 921 C572 894 531 863 500 863 L500 863 Z " />
<glyph glyph-name="Ograve" unicode="&#xd2;" horiz-adv-x="788" d="M450 710 C233 710 34 522 34 293 C34 116 167 -10 335 -10 C551 -10 750 178 750 407 C750 584 617 710 450 710 L450 710 Z M349 76 C216 76 123 169 123 302 C123 474 273 624 436 624 C569 624 662 531 662 398 C662 226 512 76 349 76 L349 76 Z M482 776 C491 780 491 786 488 793 L410 947 C408 953 404 956 398 956 C396 956 394 956 392 955 L342 938 C334 936 332 931 337 922 L430 767 C434 762 437 760 442 760 C444 760 447 760 449 761 L482 776 L482 776 Z " />
<glyph glyph-name="Oacute" unicode="&#xd3;" horiz-adv-x="788" d="M450 710 C233 710 34 522 34 293 C34 116 167 -10 335 -10 C551 -10 750 178 750 407 C750 584 617 710 450 710 L450 710 Z M349 76 C216 76 123 169 123 302 C123 474 273 624 436 624 C569 624 662 531 662 398 C662 226 512 76 349 76 L349 76 Z M458 759 C460 758 462 758 464 758 C469 758 474 760 477 765 L595 921 C601 928 600 934 592 937 L542 955 C540 956 538 956 536 956 C530 956 526 953 523 947 L421 793 C417 786 418 780 423 776 L458 759 L458 759 Z " />
<glyph glyph-name="Ocircumflex" unicode="&#xd4;" horiz-adv-x="788" d="M450 710 C233 710 34 522 34 293 C34 116 167 -10 335 -10 C551 -10 750 178 750 407 C750 584 617 710 450 710 L450 710 Z M349 76 C216 76 123 169 123 302 C123 474 273 624 436 624 C569 624 662 531 662 398 C662 226 512 76 349 76 L349 76 Z M462 941 C452 941 443 937 434 928 L298 802 C291 795 291 789 296 783 L312 759 C315 756 318 754 322 754 C325 754 329 756 333 759 L473 875 L573 761 C576 757 579 755 583 755 C586 755 590 757 593 760 L616 783 C624 790 625 796 620 802 L523 928 C518 935 512 941 500 941 L462 941 L462 941 Z " />
<glyph glyph-name="Otilde" unicode="&#xd5;" horiz-adv-x="788" d="M450 710 C233 710 34 522 34 293 C34 116 167 -10 335 -10 C551 -10 750 178 750 407 C750 584 617 710 450 710 L450 710 Z M349 76 C216 76 123 169 123 302 C123 474 273 624 436 624 C569 624 662 531 662 398 C662 226 512 76 349 76 L349 76 Z M545 863 C500 863 485 926 421 926 C386 926 339 900 302 868 C293 861 292 857 292 848 L289 807 C290 801 292 798 295 798 C297 798 300 799 303 802 C332 828 375 860 404 860 C453 860 464 797 529 797 C562 797 611 824 648 855 C656 862 657 866 657 875 L660 917 C660 922 658 925 654 925 C652 925 649 924 646 921 C617 894 576 863 545 863 L545 863 Z " />
<glyph glyph-name="Odieresis" unicode="&#xd6;" horiz-adv-x="788" d="M450 710 C233 710 34 522 34 293 C34 116 167 -10 335 -10 C551 -10 750 178 750 407 C750 584 617 710 450 710 L450 710 Z M349 76 C216 76 123 169 123 302 C123 474 273 624 436 624 C569 624 662 531 662 398 C662 226 512 76 349 76 L349 76 Z M313 836 C313 805 335 782 366 782 C397 782 421 805 421 836 C421 867 397 890 366 890 C335 890 313 867 313 836 L313 836 Z M520 836 C520 805 542 782 573 782 C604 782 628 805 628 836 C628 867 604 890 573 890 C542 890 520 867 520 836 L520 836 Z " />
<glyph glyph-name="multiply" unicode="&#xd7;" horiz-adv-x="438" d="M391 416 C396 421 396 427 390 434 L354 470 C350 473 347 475 344 475 C341 475 338 473 336 471 L212 347 L89 470 C86 473 83 474 80 474 C77 474 74 473 70 470 L34 434 C29 427 27 422 34 415 L157 292 L32 167 C26 161 26 155 33 149 L69 113 C72 109 75 108 78 108 C81 108 84 109 87 112 L212 237 L337 112 C339 109 342 108 345 108 C348 108 351 109 355 113 L391 149 C397 156 397 162 392 167 L267 292 L391 416 Z " />
<glyph glyph-name="Oslash" unicode="&#xd8;" horiz-adv-x="788" d="M194 133 C143 178 123 238 123 302 C123 474 273 624 436 624 C483 624 525 613 560 590 L194 133 Z M720 728 C725 733 722 737 711 737 L689 737 C682 737 676 734 671 728 L618 661 C570 692 514 710 450 710 C233 710 34 522 34 293 C34 204 67 125 136 62 L70 -21 C65 -28 70 -30 78 -30 L103 -30 C108 -30 113 -27 118 -21 L166 39 C209 11 268 -10 335 -10 C563 -10 750 187 750 407 C750 487 724 570 649 638 L720 728 L720 728 Z M591 567 C643 520 662 455 662 398 C662 226 512 76 349 76 C304 76 259 88 224 111 L591 567 Z " />
<glyph glyph-name="Ugrave" unicode="&#xd9;" horiz-adv-x="657" d="M130 700 C121 700 116 696 114 687 L48 266 C24 119 97 -10 275 -10 C443 -10 553 113 577 266 L643 687 C645 696 642 700 633 700 L571 700 C561 700 556 696 555 687 L491 280 C470 158 399 76 282 76 C169 76 117 158 138 280 L202 687 C204 696 201 700 192 700 L130 700 L130 700 Z M422 776 C431 780 431 786 428 793 L350 947 C348 953 344 956 338 956 C336 956 334 956 332 955 L282 938 C274 936 272 931 277 922 L370 767 C374 762 377 760 382 760 C384 760 387 760 389 761 L422 776 L422 776 Z " />
<glyph glyph-name="Uacute" unicode="&#xda;" horiz-adv-x="657" d="M130 700 C121 700 116 696 114 687 L48 266 C24 119 97 -10 275 -10 C443 -10 553 113 577 266 L643 687 C645 696 642 700 633 700 L571 700 C561 700 556 696 555 687 L491 280 C470 158 399 76 282 76 C169 76 117 158 138 280 L202 687 C204 696 201 700 192 700 L130 700 L130 700 Z M384 759 C386 758 388 758 390 758 C395 758 400 760 403 765 L521 921 C527 928 526 934 518 937 L468 955 C466 956 464 956 462 956 C456 956 452 953 449 947 L347 793 C343 786 344 780 349 776 L384 759 L384 759 Z " />
<glyph glyph-name="Ucircumflex" unicode="&#xdb;" horiz-adv-x="657" d="M130 700 C121 700 116 696 114 687 L48 266 C24 119 97 -10 275 -10 C443 -10 553 113 577 266 L643 687 C645 696 642 700 633 700 L571 700 C561 700 556 696 555 687 L491 280 C470 158 399 76 282 76 C169 76 117 158 138 280 L202 687 C204 696 201 700 192 700 L130 700 L130 700 Z M398 940 C388 940 379 936 370 927 L234 801 C227 794 227 788 232 782 L248 758 C251 755 254 753 258 753 C261 753 265 755 269 758 L409 874 L509 760 C512 756 515 754 519 754 C522 754 526 756 529 759 L552 782 C560 789 561 795 556 801 L459 927 C454 934 448 940 436 940 L398 940 L398 940 Z " />
<glyph glyph-name="Udieresis" unicode="&#xdc;" horiz-adv-x="657" d="M130 700 C121 700 116 696 114 687 L48 266 C24 119 97 -10 275 -10 C443 -10 553 113 577 266 L643 687 C645 696 642 700 633 700 L571 700 C561 700 556 696 555 687 L491 280 C470 158 399 76 282 76 C169 76 117 158 138 280 L202 687 C204 696 201 700 192 700 L130 700 L130 700 Z M240 836 C240 805 262 782 293 782 C324 782 348 805 348 836 C348 867 324 890 293 890 C262 890 240 867 240 836 L240 836 Z M447 836 C447 805 469 782 500 782 C531 782 555 805 555 836 C555 867 531 890 500 890 C469 890 447 867 447 836 L447 836 Z " />
<glyph glyph-name="Yacute" unicode="&#xdd;" horiz-adv-x="550" d="M153 692 C151 697 146 700 139 700 L68 700 C58 700 55 696 60 687 L227 342 L174 13 C174 4 178 0 186 0 L248 0 C257 0 262 4 263 13 L316 342 L591 687 C596 694 595 700 586 700 L512 700 C505 700 500 697 495 692 L281 424 L153 692 L153 692 Z M340 759 C342 758 344 758 346 758 C351 758 356 760 359 765 L477 921 C483 928 482 934 474 937 L424 955 C422 956 420 956 418 956 C412 956 408 953 405 947 L303 793 C299 786 300 780 305 776 L340 759 L340 759 Z " />
<glyph glyph-name="Thorn" unicode="&#xde;" horiz-adv-x="536" d="M191 519 L306 519 C395 519 447 468 447 392 C447 288 364 225 268 225 L145 225 L191 519 Z M24 13 C22 4 25 0 33 0 L96 0 C105 0 110 4 111 13 L131 143 L272 143 C412 143 536 247 536 396 C536 521 449 601 328 601 L204 601 L225 737 C227 746 224 750 215 750 L152 750 C143 750 138 746 137 737 L24 13 L24 13 Z " />
<glyph glyph-name="germandbls" unicode="&#xdf;" horiz-adv-x="560" d="M162 0 C179 -2 196 -2 212 -2 C389 -2 506 91 506 244 C506 336 460 386 381 409 C463 438 515 518 515 588 C515 684 449 749 342 749 C214 749 127 669 107 542 L24 11 C21 4 25 0 34 0 L100 0 C109 0 113 4 114 11 L198 542 C209 604 253 663 325 663 C398 663 424 623 424 572 C424 496 351 449 259 449 C252 449 247 445 245 438 C244 431 243 416 240 401 L236 374 C234 365 237 360 244 360 C340 360 417 330 417 241 C417 141 335 88 217 88 C204 88 191 89 177 90 C167 90 165 89 163 79 C163 76 161 62 158 46 C156 37 154 26 153 15 C151 6 154 1 162 0 L162 0 Z " />
<glyph glyph-name="agrave" unicode="&#xe0;" horiz-adv-x="614" d="M100 221 C100 332 188 426 297 426 C393 426 451 350 438 255 C425 154 341 74 242 74 C153 74 100 139 100 221 L100 221 Z M471 0 C480 0 485 4 486 13 L562 487 C563 496 559 500 550 500 L489 500 C481 500 476 496 474 487 C469 465 463 426 461 403 C430 467 375 510 291 510 C134 510 12 372 12 215 C12 92 83 -10 210 -10 C298 -10 369 38 412 97 L399 13 C397 4 401 0 410 0 L471 0 L471 0 Z M358 570 C367 574 367 580 364 587 L286 741 C284 747 280 750 274 750 C272 750 270 750 268 749 L218 732 C210 730 208 725 213 716 L306 561 C310 556 313 554 318 554 C320 554 323 554 325 555 L358 570 L358 570 Z " />
<glyph glyph-name="aacute" unicode="&#xe1;" horiz-adv-x="614" d="M100 221 C100 332 188 426 297 426 C393 426 451 350 438 255 C425 154 341 74 242 74 C153 74 100 139 100 221 L100 221 Z M471 0 C480 0 485 4 486 13 L562 487 C563 496 559 500 550 500 L489 500 C481 500 476 496 474 487 C469 465 463 426 461 403 C430 467 375 510 291 510 C134 510 12 372 12 215 C12 92 83 -10 210 -10 C298 -10 369 38 412 97 L399 13 C397 4 401 0 410 0 L471 0 L471 0 Z M310 553 C312 552 314 552 316 552 C321 552 326 554 329 559 L447 715 C453 722 452 728 444 731 L394 749 C392 750 390 750 388 750 C382 750 378 747 375 741 L273 587 C269 580 270 574 275 570 L310 553 L310 553 Z " />
<glyph glyph-name="acircumflex" unicode="&#xe2;" horiz-adv-x="614" d="M100 221 C100 332 188 426 297 426 C393 426 451 350 438 255 C425 154 341 74 242 74 C153 74 100 139 100 221 L100 221 Z M471 0 C480 0 485 4 486 13 L562 487 C563 496 559 500 550 500 L489 500 C481 500 476 496 474 487 C469 465 463 426 461 403 C430 467 375 510 291 510 C134 510 12 372 12 215 C12 92 83 -10 210 -10 C298 -10 369 38 412 97 L399 13 C397 4 401 0 410 0 L471 0 L471 0 Z M334 745 C324 745 315 741 306 732 L170 606 C163 599 163 593 168 587 L184 563 C187 560 190 558 194 558 C197 558 201 560 205 563 L345 679 L445 565 C448 561 451 559 455 559 C458 559 462 561 465 564 L488 587 C496 594 497 600 492 606 L395 732 C390 739 384 745 372 745 L334 745 L334 745 Z " />
<glyph glyph-name="atilde" unicode="&#xe3;" horiz-adv-x="615" d="M101 221 C101 332 189 426 298 426 C394 426 452 350 439 255 C426 154 342 74 243 74 C154 74 101 139 101 221 L101 221 Z M472 0 C481 0 486 4 487 13 L563 487 C564 496 560 500 551 500 L490 500 C482 500 477 496 475 487 C470 465 464 426 462 403 C431 467 376 510 292 510 C135 510 13 372 13 215 C13 92 84 -10 211 -10 C299 -10 370 38 413 97 L400 13 C398 4 402 0 411 0 L472 0 L472 0 Z M415 671 C370 671 355 734 291 734 C256 734 209 708 172 676 C163 669 162 665 162 656 L159 615 C160 609 162 606 165 606 C167 606 170 607 173 610 C202 636 245 668 274 668 C323 668 334 605 399 605 C432 605 481 632 518 663 C526 670 527 674 527 683 L530 725 C530 730 528 733 524 733 C522 733 519 732 516 729 C487 702 446 671 415 671 L415 671 Z " />
<glyph glyph-name="adieresis" unicode="&#xe4;" horiz-adv-x="615" d="M101 221 C101 332 189 426 298 426 C394 426 452 350 439 255 C426 154 342 74 243 74 C154 74 101 139 101 221 L101 221 Z M472 0 C481 0 486 4 487 13 L563 487 C564 496 560 500 551 500 L490 500 C482 500 477 496 475 487 C470 465 464 426 462 403 C431 467 376 510 292 510 C135 510 13 372 13 215 C13 92 84 -10 211 -10 C299 -10 370 38 413 97 L400 13 C398 4 402 0 411 0 L472 0 L472 0 Z M183 643 C183 612 205 589 236 589 C267 589 291 612 291 643 C291 674 267 697 236 697 C205 697 183 674 183 643 L183 643 Z M390 643 C390 612 412 589 443 589 C474 589 498 612 498 643 C498 674 474 697 443 697 C412 697 390 674 390 643 L390 643 Z " />
<glyph glyph-name="aring" unicode="&#xe5;" horiz-adv-x="615" d="M101 221 C101 332 189 426 298 426 C394 426 452 350 439 255 C426 154 342 74 243 74 C154 74 101 139 101 221 L101 221 Z M472 0 C481 0 486 4 487 13 L563 487 C564 496 560 500 551 500 L490 500 C482 500 477 496 475 487 C470 465 464 426 462 403 C431 467 376 510 292 510 C135 510 13 372 13 215 C13 92 84 -10 211 -10 C299 -10 370 38 413 97 L400 13 C398 4 402 0 411 0 L472 0 L472 0 Z M230 669 C230 608 282 556 343 556 C404 556 455 608 455 669 C455 730 404 781 343 781 C282 781 230 730 230 669 L230 669 Z M288 669 C288 700 312 724 343 724 C374 724 398 700 398 669 C398 638 374 614 343 614 C312 614 288 638 288 669 L288 669 Z " />
<glyph glyph-name="ae" unicode="&#xe6;" horiz-adv-x="936" d="M494 286 C517 383 583 440 678 440 C766 440 812 382 811 286 L494 286 Z M420 132 C441 56 514 -10 616 -10 C680 -10 740 2 809 41 C816 44 821 51 816 59 L795 98 C793 102 790 104 785 104 C782 104 779 103 776 102 C721 74 682 66 631 66 C545 66 481 124 484 218 L870 218 C881 218 888 223 889 234 C908 393 834 510 689 510 C589 510 503 458 454 381 C431 461 378 509 277 509 C209 509 157 497 92 470 C83 467 80 460 82 451 L91 414 C92 408 96 404 101 404 C104 404 106 405 109 406 C162 427 208 440 260 440 C356 440 398 365 398 281 C353 316 295 329 234 329 C116 329 9 262 9 146 C9 54 68 -7 181 -7 C294 -7 375 56 420 132 L420 132 Z M388 221 C364 136 297 68 201 68 C133 68 92 97 92 158 C92 230 162 265 237 265 C296 265 347 250 388 221 L388 221 Z " />
<glyph glyph-name="ccedilla" unicode="&#xe7;" horiz-adv-x="470" d="M127 -165 C124 -172 127 -176 136 -176 L189 -176 C198 -176 203 -172 206 -165 L258 -8 C306 -1 346 13 379 33 C388 38 391 45 387 52 L360 99 C358 103 356 105 352 105 C350 105 347 104 343 102 C312 85 279 74 240 74 C149 74 98 140 98 221 C98 329 187 426 296 426 C315 426 350 424 387 397 C390 395 393 393 396 393 C400 393 403 395 407 399 L447 446 C455 454 454 461 445 466 C414 489 370 510 309 510 C146 510 13 377 13 215 C13 114 66 13 192 -6 L127 -165 Z " />
<glyph glyph-name="egrave" unicode="&#xe8;" horiz-adv-x="547" d="M347 570 C356 574 356 580 353 587 L275 741 C273 747 269 750 263 750 C261 750 259 750 257 749 L207 732 C199 730 197 725 202 716 L295 561 C299 556 302 554 307 554 C309 554 312 554 314 555 L347 570 L347 570 Z M243 66 C151 66 92 134 95 218 L483 218 C494 218 501 223 502 234 C521 395 445 510 302 510 C150 510 15 383 15 215 C15 87 101 -10 229 -10 C304 -10 369 10 421 41 C430 46 432 52 428 59 L407 98 C405 102 402 105 397 105 C395 105 391 104 388 102 C344 78 299 66 243 66 L243 66 Z M106 286 C127 369 197 440 290 440 C378 440 424 383 424 286 L106 286 Z " />
<glyph glyph-name="eacute" unicode="&#xe9;" horiz-adv-x="547" d="M243 66 C151 66 92 134 95 218 L483 218 C494 218 501 223 502 234 C521 395 445 510 302 510 C150 510 15 383 15 215 C15 87 101 -10 229 -10 C304 -10 369 10 421 41 C430 46 432 52 428 59 L407 98 C405 102 402 105 397 105 C395 105 391 104 388 102 C344 78 299 66 243 66 L243 66 Z M106 286 C127 369 197 440 290 440 C378 440 424 383 424 286 L106 286 Z M316 553 C318 552 320 552 322 552 C327 552 332 554 335 559 L453 715 C459 722 458 728 450 731 L400 749 C398 750 396 750 394 750 C388 750 384 747 381 741 L279 587 C275 580 276 574 281 570 L316 553 L316 553 Z " />
<glyph glyph-name="ecircumflex" unicode="&#xea;" horiz-adv-x="546" d="M323 745 C313 745 304 741 295 732 L159 606 C152 599 152 593 157 587 L173 563 C176 560 179 558 183 558 C186 558 190 560 194 563 L334 679 L434 565 C437 561 440 559 444 559 C447 559 451 561 454 564 L477 587 C485 594 486 600 481 606 L384 732 C379 739 373 745 361 745 L323 745 L323 745 Z M243 66 C151 66 92 134 95 218 L483 218 C494 218 501 223 502 234 C521 395 445 510 302 510 C150 510 15 383 15 215 C15 87 101 -10 229 -10 C304 -10 369 10 421 41 C430 46 432 52 428 59 L407 98 C405 102 402 105 397 105 C395 105 391 104 388 102 C344 78 299 66 243 66 L243 66 Z M106 286 C127 369 197 440 290 440 C378 440 424 383 424 286 L106 286 Z " />
<glyph glyph-name="edieresis" unicode="&#xeb;" horiz-adv-x="542" d="M168 643 C168 612 190 589 221 589 C252 589 276 612 276 643 C276 674 252 697 221 697 C190 697 168 674 168 643 L168 643 Z M375 643 C375 612 397 589 428 589 C459 589 483 612 483 643 C483 674 459 697 428 697 C397 697 375 674 375 643 L375 643 Z M243 66 C151 66 92 134 95 218 L483 218 C494 218 501 223 502 234 C521 395 445 510 302 510 C150 510 15 383 15 215 C15 87 101 -10 229 -10 C304 -10 369 10 421 41 C430 46 432 52 428 59 L407 98 C405 102 402 105 397 105 C395 105 391 104 388 102 C344 78 299 66 243 66 L243 66 Z M106 286 C127 369 197 440 290 440 C378 440 424 383 424 286 L106 286 Z " />
<glyph glyph-name="igrave" unicode="&#xec;" horiz-adv-x="247" d="M92 0 C101 0 106 4 107 13 L183 487 C184 496 180 500 171 500 L110 500 C102 500 97 496 95 487 L20 13 C18 4 22 0 31 0 L92 0 L92 0 Z M166 570 C175 574 175 580 172 587 L94 741 C92 747 88 750 82 750 C80 750 78 750 76 749 L26 732 C18 730 16 725 21 716 L114 561 C118 556 121 554 126 554 C128 554 131 554 133 555 L166 570 L166 570 Z " />
<glyph glyph-name="iacute" unicode="&#xed;" horiz-adv-x="252" d="M97 0 C106 0 111 4 112 13 L188 487 C189 496 185 500 176 500 L115 500 C107 500 102 496 100 487 L25 13 C23 4 27 0 36 0 L97 0 L97 0 Z M167 553 C169 552 171 552 173 552 C178 552 183 554 186 559 L304 715 C310 722 309 728 301 731 L251 749 C249 750 247 750 245 750 C239 750 235 747 232 741 L130 587 C126 580 127 574 132 570 L167 553 L167 553 Z " />
<glyph glyph-name="icircumflex" unicode="&#xee;" horiz-adv-x="245" d="M160 745 C150 745 141 741 132 732 L-4 606 C-11 599 -11 593 -6 587 L10 563 C13 560 16 558 20 558 C23 558 27 560 31 563 L171 679 L271 565 C274 561 277 559 281 559 C284 559 288 561 291 564 L314 587 C322 594 323 600 318 606 L221 732 C216 739 210 745 198 745 L160 745 L160 745 Z M93 0 C102 0 107 4 108 13 L184 487 C185 496 181 500 172 500 L111 500 C103 500 98 496 96 487 L21 13 C19 4 23 0 32 0 L93 0 L93 0 Z " />
<glyph glyph-name="idieresis" unicode="&#xef;" horiz-adv-x="254" d="M12 643 C12 612 34 589 65 589 C96 589 120 612 120 643 C120 674 96 697 65 697 C34 697 12 674 12 643 L12 643 Z M219 643 C219 612 241 589 272 589 C303 589 327 612 327 643 C327 674 303 697 272 697 C241 697 219 674 219 643 L219 643 Z M100 0 C109 0 114 4 115 13 L191 487 C192 496 188 500 179 500 L118 500 C110 500 105 496 103 487 L28 13 C26 4 30 0 39 0 L100 0 L100 0 Z " />
<glyph glyph-name="eth" unicode="&#xf0;" horiz-adv-x="577" d="M381 485 C347 503 313 504 276 504 C132 491 13 370 13 215 C13 86 99 -10 227 -10 C392 -10 523 124 523 285 C523 312 521 337 514 364 L439 598 L600 628 C609 629 613 634 612 643 L611 675 C611 682 608 687 602 687 C601 687 600 686 598 686 L421 655 L392 741 C389 749 385 750 376 750 L310 750 C300 750 296 746 298 738 L331 638 L172 610 C164 609 161 602 161 594 L162 563 C162 555 165 551 172 551 C172 551 173 551 174 551 L349 582 L381 485 Z M434 321 C437 306 438 297 437 274 C434 166 349 74 240 74 C151 74 98 140 98 221 C98 332 187 426 296 426 C368 426 421 385 434 321 L434 321 Z " />
<glyph glyph-name="ntilde" unicode="&#xf1;" horiz-adv-x="599" d="M463 0 C472 0 477 4 479 13 L520 277 C541 416 495 510 364 510 C278 510 209 451 174 403 C174 404 187 485 187 487 C189 496 185 500 176 500 L115 500 C106 500 101 496 100 487 L25 13 C24 4 27 0 36 0 L97 0 C106 0 111 4 112 13 L151 256 C164 339 239 426 324 426 C416 426 446 359 431 262 L391 13 C390 4 393 0 402 0 L463 0 L463 0 Z M419 671 C374 671 359 734 295 734 C260 734 213 708 176 676 C167 669 166 665 166 656 L163 615 C164 609 166 606 169 606 C171 606 174 607 177 610 C206 636 249 668 278 668 C327 668 338 605 403 605 C436 605 485 632 522 663 C530 670 531 674 531 683 L534 725 C534 730 532 733 528 733 C526 733 523 732 520 729 C491 702 450 671 419 671 L419 671 Z " />
<glyph glyph-name="ograve" unicode="&#xf2;" horiz-adv-x="564" d="M12 215 C12 87 98 -10 226 -10 C389 -10 523 123 523 285 C523 413 437 510 309 510 C145 510 12 377 12 215 L12 215 Z M98 221 C98 332 186 426 295 426 C386 426 437 360 437 279 C437 168 349 74 240 74 C149 74 98 140 98 221 L98 221 Z M345 570 C354 574 354 580 351 587 L273 741 C271 747 267 750 261 750 C259 750 257 750 255 749 L205 732 C197 730 195 725 200 716 L293 561 C297 556 300 554 305 554 C307 554 310 554 312 555 L345 570 L345 570 Z " />
<glyph glyph-name="oacute" unicode="&#xf3;" horiz-adv-x="564" d="M12 215 C12 87 98 -10 226 -10 C389 -10 523 123 523 285 C523 413 437 510 309 510 C145 510 12 377 12 215 L12 215 Z M98 221 C98 332 186 426 295 426 C386 426 437 360 437 279 C437 168 349 74 240 74 C149 74 98 140 98 221 L98 221 Z M323 553 C325 552 327 552 329 552 C334 552 339 554 342 559 L460 715 C466 722 465 728 457 731 L407 749 C405 750 403 750 401 750 C395 750 391 747 388 741 L286 587 C282 580 283 574 288 570 L323 553 L323 553 Z " />
<glyph glyph-name="ocircumflex" unicode="&#xf4;" horiz-adv-x="564" d="M12 215 C12 87 98 -10 226 -10 C389 -10 523 123 523 285 C523 413 437 510 309 510 C145 510 12 377 12 215 L12 215 Z M98 221 C98 332 186 426 295 426 C386 426 437 360 437 279 C437 168 349 74 240 74 C149 74 98 140 98 221 L98 221 Z M328 745 C318 745 309 741 300 732 L164 606 C157 599 157 593 162 587 L178 563 C181 560 184 558 188 558 C191 558 195 560 199 563 L339 679 L439 565 C442 561 445 559 449 559 C452 559 456 561 459 564 L482 587 C490 594 491 600 486 606 L389 732 C384 739 378 745 366 745 L328 745 L328 745 Z " />
<glyph glyph-name="otilde" unicode="&#xf5;" horiz-adv-x="564" d="M12 215 C12 87 98 -10 226 -10 C389 -10 523 123 523 285 C523 413 437 510 309 510 C145 510 12 377 12 215 L12 215 Z M98 221 C98 332 186 426 295 426 C386 426 437 360 437 279 C437 168 349 74 240 74 C149 74 98 140 98 221 L98 221 Z M406 671 C361 671 346 734 282 734 C247 734 200 708 163 676 C154 669 153 665 153 656 L150 615 C151 609 153 606 156 606 C158 606 161 607 164 610 C193 636 236 668 265 668 C314 668 325 605 390 605 C423 605 472 632 509 663 C517 670 518 674 518 683 L521 725 C521 730 519 733 515 733 C513 733 510 732 507 729 C478 702 437 671 406 671 L406 671 Z " />
<glyph glyph-name="odieresis" unicode="&#xf6;" horiz-adv-x="564" d="M12 215 C12 87 98 -10 226 -10 C389 -10 523 123 523 285 C523 413 437 510 309 510 C145 510 12 377 12 215 L12 215 Z M98 221 C98 332 186 426 295 426 C386 426 437 360 437 279 C437 168 349 74 240 74 C149 74 98 140 98 221 L98 221 Z M176 643 C176 612 198 589 229 589 C260 589 284 612 284 643 C284 674 260 697 229 697 C198 697 176 674 176 643 L176 643 Z M383 643 C383 612 405 589 436 589 C467 589 491 612 491 643 C491 674 467 697 436 697 C405 697 383 674 383 643 L383 643 Z " />
<glyph glyph-name="divide" unicode="&#xf7;" horiz-adv-x="472" d="M33 335 C24 335 19 331 17 322 L11 276 C9 267 12 263 21 263 L423 263 C432 263 437 267 438 276 L445 322 C447 331 444 335 435 335 L33 335 L33 335 Z M203 470 C203 439 226 417 255 417 C286 417 308 439 308 470 C308 501 286 523 255 523 C226 523 203 501 203 470 L203 470 Z M149 129 C149 98 170 76 201 76 C232 76 254 98 254 129 C254 160 232 182 201 182 C170 182 149 160 149 129 L149 129 Z " />
<glyph glyph-name="oslash" unicode="&#xf8;" horiz-adv-x="570" d="M520 524 C525 531 522 535 511 535 L489 535 C482 535 476 531 471 524 L432 477 C397 500 357 510 314 510 C151 510 18 377 18 215 C18 155 35 96 86 45 L25 -28 C20 -35 25 -39 33 -39 L58 -39 C63 -39 69 -35 74 -28 L116 22 C149 1 188 -10 232 -10 C402 -10 529 130 529 285 C529 344 514 402 463 453 L520 524 L520 524 Z M403 380 C434 349 442 314 442 279 C442 168 354 74 245 74 C218 74 194 80 173 93 L403 380 Z M143 117 C114 146 103 182 103 221 C103 332 192 426 301 426 C329 426 358 418 375 405 L143 117 Z " />
<glyph glyph-name="ugrave" unicode="&#xf9;" horiz-adv-x="582" d="M92 500 C83 500 78 496 77 487 L35 223 C14 84 62 -10 191 -10 C278 -10 345 48 382 100 C383 99 367 15 368 13 C366 4 370 0 379 0 L440 0 C449 0 454 4 455 13 L530 487 C532 496 528 500 519 500 L458 500 C449 500 444 496 443 487 L404 244 C391 161 317 74 231 74 C139 74 109 139 124 238 L164 487 C165 496 162 500 153 500 L92 500 L92 500 Z M339 570 C348 574 348 580 345 587 L267 741 C265 747 261 750 255 750 C253 750 251 750 249 749 L199 732 C191 730 189 725 194 716 L287 561 C291 556 294 554 299 554 C301 554 304 554 306 555 L339 570 L339 570 Z " />
<glyph glyph-name="uacute" unicode="&#xfa;" horiz-adv-x="582" d="M92 500 C83 500 78 496 77 487 L35 223 C14 84 62 -10 191 -10 C278 -10 345 48 382 100 C383 99 367 15 368 13 C366 4 370 0 379 0 L440 0 C449 0 454 4 455 13 L530 487 C532 496 528 500 519 500 L458 500 C449 500 444 496 443 487 L404 244 C391 161 317 74 231 74 C139 74 109 139 124 238 L164 487 C165 496 162 500 153 500 L92 500 L92 500 Z M316 553 C318 552 320 552 322 552 C327 552 332 554 335 559 L453 715 C459 722 458 728 450 731 L400 749 C398 750 396 750 394 750 C388 750 384 747 381 741 L279 587 C275 580 276 574 281 570 L316 553 L316 553 Z " />
<glyph glyph-name="ucircumflex" unicode="&#xfb;" horiz-adv-x="582" d="M92 500 C83 500 78 496 77 487 L35 223 C14 84 62 -10 191 -10 C278 -10 345 48 382 100 C383 99 367 15 368 13 C366 4 370 0 379 0 L440 0 C449 0 454 4 455 13 L530 487 C532 496 528 500 519 500 L458 500 C449 500 444 496 443 487 L404 244 C391 161 317 74 231 74 C139 74 109 139 124 238 L164 487 C165 496 162 500 153 500 L92 500 L92 500 Z M327 745 C317 745 308 741 299 732 L163 606 C156 599 156 593 161 587 L177 563 C180 560 183 558 187 558 C190 558 194 560 198 563 L338 679 L438 565 C441 561 444 559 448 559 C451 559 455 561 458 564 L481 587 C489 594 490 600 485 606 L388 732 C383 739 377 745 365 745 L327 745 L327 745 Z " />
<glyph glyph-name="udieresis" unicode="&#xfc;" horiz-adv-x="582" d="M92 494 C83 494 78 490 77 481 L35 217 C14 78 62 -16 191 -16 C278 -16 345 42 382 94 C383 93 367 9 368 7 C366 -2 370 -6 379 -6 L440 -6 C449 -6 454 -2 455 7 L530 481 C532 490 528 494 519 494 L458 494 C449 494 444 490 443 481 L404 238 C391 155 317 68 231 68 C139 68 109 133 124 232 L164 481 C165 490 162 494 153 494 L92 494 L92 494 Z M167 643 C167 612 189 589 220 589 C251 589 275 612 275 643 C275 674 251 697 220 697 C189 697 167 674 167 643 L167 643 Z M374 643 C374 612 396 589 427 589 C458 589 482 612 482 643 C482 674 458 697 427 697 C396 697 374 674 374 643 L374 643 Z " />
<glyph glyph-name="yacute" unicode="&#xfd;" horiz-adv-x="586" d="M534 487 C536 496 532 500 523 500 L462 500 C453 500 448 496 447 487 L408 245 C394 172 323 84 237 84 C145 84 115 149 130 248 L168 487 C169 496 166 500 157 500 L95 500 C87 500 82 496 81 487 L40 233 C19 94 66 0 197 0 C280 0 357 57 387 106 L371 7 C355 -89 290 -171 181 -171 C120 -171 72 -146 48 -103 C46 -101 43 -99 41 -99 C38 -99 35 -101 31 -104 L-9 -147 C-15 -153 -16 -159 -11 -165 C21 -216 89 -255 172 -255 C335 -255 435 -140 459 15 L534 487 L534 487 Z M317 553 C319 552 321 552 323 552 C328 552 333 554 336 559 L454 715 C460 722 459 728 451 731 L401 749 C399 750 397 750 395 750 C389 750 385 747 382 741 L280 587 C276 580 277 574 282 570 L317 553 L317 553 Z " />
<glyph glyph-name="thorn" unicode="&#xfe;" horiz-adv-x="615" d="M485 279 C485 168 397 74 289 74 C192 74 135 151 148 245 C161 346 245 426 343 426 C434 426 485 360 485 279 L485 279 Z M57 -250 C66 -250 71 -246 73 -237 L125 97 C150 38 208 -10 295 -10 C452 -10 572 128 572 285 C572 408 505 510 375 510 C290 510 221 470 174 407 L198 562 C209 641 223 723 226 737 C227 746 224 750 216 750 L153 750 C145 750 140 746 138 737 L-14 -237 C-16 -246 -13 -250 -5 -250 L57 -250 Z " />
<glyph glyph-name="ydieresis" unicode="&#xff;" horiz-adv-x="590" d="M537 487 C539 496 535 500 526 500 L465 500 C456 500 451 496 450 487 L411 245 C397 172 326 84 240 84 C148 84 118 149 133 248 L171 487 C172 496 169 500 160 500 L98 500 C90 500 85 496 84 487 L43 233 C22 94 69 0 200 0 C283 0 360 57 390 106 L374 7 C358 -89 293 -171 184 -171 C123 -171 75 -146 51 -103 C49 -101 46 -99 44 -99 C41 -99 38 -101 34 -104 L-6 -147 C-12 -153 -13 -159 -8 -165 C24 -216 92 -255 175 -255 C338 -255 438 -140 462 15 L537 487 L537 487 Z M174 643 C174 612 196 589 227 589 C258 589 282 612 282 643 C282 674 258 697 227 697 C196 697 174 674 174 643 L174 643 Z M381 643 C381 612 403 589 434 589 C465 589 489 612 489 643 C489 674 465 697 434 697 C403 697 381 674 381 643 L381 643 Z " />
<glyph glyph-name="Amacron" unicode="&#x100;" horiz-adv-x="640" d="M51 0 C64 0 68 4 72 13 L153 177 L429 177 L459 15 C462 3 465 0 476 0 L539 0 C549 0 553 5 551 15 L430 687 C429 696 425 700 416 700 L331 700 C323 700 317 696 313 687 L-22 13 C-27 4 -24 0 -14 0 L51 0 L51 0 Z M189 261 L358 596 L421 261 L189 261 Z M245 835 C244 826 247 821 256 821 L525 821 C534 821 539 826 540 835 L548 882 C549 891 545 895 537 895 L268 895 C259 895 254 891 252 883 L245 835 L245 835 Z " />
<glyph glyph-name="amacron" unicode="&#x101;" horiz-adv-x="611" d="M101 221 C101 332 189 426 298 426 C394 426 452 350 439 255 C426 154 342 74 243 74 C154 74 101 139 101 221 L101 221 Z M472 0 C481 0 486 4 487 13 L563 487 C564 496 560 500 551 500 L490 500 C482 500 477 496 475 487 C470 465 464 426 462 403 C431 467 376 510 292 510 C135 510 13 372 13 215 C13 92 84 -10 211 -10 C299 -10 370 38 413 97 L400 13 C398 4 402 0 411 0 L472 0 L472 0 Z M193 637 C192 628 195 623 204 623 L473 623 C482 623 487 628 488 637 L496 684 C497 693 493 697 485 697 L216 697 C207 697 202 693 200 685 L193 637 L193 637 Z " />
<glyph glyph-name="Abreve" unicode="&#x102;" horiz-adv-x="638" d="M51 0 C64 0 68 4 72 13 L153 177 L429 177 L459 15 C462 3 465 0 476 0 L539 0 C549 0 553 5 551 15 L430 687 C429 696 425 700 416 700 L331 700 C323 700 317 696 313 687 L-22 13 C-27 4 -24 0 -14 0 L51 0 L51 0 Z M189 261 L358 596 L421 261 L189 261 Z M556 904 C556 909 553 913 548 914 L508 922 C501 922 498 920 496 913 C487 870 451 833 388 833 C327 833 302 870 307 913 C308 919 306 922 300 922 C300 922 299 922 298 922 L256 914 C249 913 245 909 245 904 C237 816 294 768 379 768 C467 768 537 816 556 904 L556 904 Z " />
<glyph glyph-name="abreve" unicode="&#x103;" horiz-adv-x="611" d="M101 221 C101 332 189 426 298 426 C394 426 452 350 439 255 C426 154 342 74 243 74 C154 74 101 139 101 221 L101 221 Z M472 0 C481 0 486 4 487 13 L563 487 C564 496 560 500 551 500 L490 500 C482 500 477 496 475 487 C470 465 464 426 462 403 C431 467 376 510 292 510 C135 510 13 372 13 215 C13 92 84 -10 211 -10 C299 -10 370 38 413 97 L400 13 C398 4 402 0 411 0 L472 0 L472 0 Z M501 718 C501 723 498 727 493 728 L453 736 C446 736 443 734 441 727 C432 684 396 647 333 647 C272 647 247 684 252 727 C253 733 251 736 245 736 C245 736 244 736 243 736 L201 728 C194 727 190 723 190 718 C182 630 239 582 324 582 C412 582 482 630 501 718 L501 718 Z " />
<glyph glyph-name="Aogonek" unicode="&#x104;" horiz-adv-x="642" d="M540 0 C549 0 553 5 551 15 L430 687 C429 696 425 700 416 700 L331 700 C323 700 317 696 313 687 L-22 13 C-27 4 -24 0 -15 0 L51 0 C62 0 69 4 72 13 L154 177 L430 177 L459 15 C462 3 465 1 468 0 L486 0 C391 -68 406 -195 524 -195 C533 -195 544 -194 555 -192 C562 -191 565 -187 566 -180 L571 -139 C572 -133 570 -131 565 -131 C564 -131 563 -131 562 -131 C554 -133 547 -133 540 -133 C468 -133 477 -46 540 0 L540 0 Z M189 261 L358 596 L422 261 L189 261 Z " />
<glyph glyph-name="aogonek" unicode="&#x105;" horiz-adv-x="611" d="M101 221 C101 332 189 426 298 426 C394 426 452 350 439 255 C426 154 342 74 243 74 C154 74 101 139 101 221 L101 221 Z M402 24 C399 13 401 3 405 0 L422 0 C326 -71 342 -195 460 -195 C470 -195 481 -194 492 -192 C498 -191 501 -187 502 -180 L508 -139 C509 -133 506 -131 501 -131 C500 -131 499 -131 498 -131 C491 -132 484 -133 478 -133 C403 -133 413 -44 477 0 C482 1 486 5 488 13 L563 487 C564 496 560 500 552 500 L491 500 C482 500 477 496 475 487 C470 465 464 426 462 403 C433 467 376 510 292 510 C135 510 13 372 13 215 C13 92 84 -10 211 -10 C299 -10 370 38 414 97 L402 24 L402 24 Z " />
<glyph glyph-name="Cacute" unicode="&#x106;" horiz-adv-x="639" d="M634 635 C639 642 638 649 631 654 C584 686 525 710 450 710 C233 710 34 522 34 293 C34 116 167 -10 335 -10 C407 -10 473 9 537 44 C546 49 549 56 545 65 L521 115 C519 119 515 121 511 121 C508 121 504 120 500 118 C453 90 400 76 349 76 C216 76 123 169 123 302 C123 474 273 624 436 624 C492 624 532 610 572 583 C576 580 580 579 583 579 C588 579 592 583 595 587 L634 635 Z M448 760 C450 759 452 759 454 759 C459 759 464 761 467 766 L585 922 C591 929 590 935 582 938 L532 956 C530 957 528 957 526 957 C520 957 516 954 513 948 L411 794 C407 787 408 781 413 777 L448 760 L448 760 Z " />
<glyph glyph-name="cacute" unicode="&#x107;" horiz-adv-x="478" d="M360 99 C358 103 356 105 352 105 C350 105 347 104 343 102 C312 85 279 74 240 74 C149 74 98 140 98 221 C98 332 187 426 295 426 C314 426 349 424 388 397 C391 395 393 393 396 393 C400 393 403 395 407 399 L447 446 C455 454 454 461 445 466 C416 489 370 510 309 510 C146 510 13 377 13 215 C13 86 98 -10 226 -10 C286 -10 340 10 379 33 C388 38 391 45 387 52 L360 99 L360 99 Z M313 553 C315 552 317 552 319 552 C324 552 329 554 332 559 L450 715 C456 722 455 728 447 731 L397 749 C395 750 393 750 391 750 C385 750 381 747 378 741 L276 587 C272 580 273 574 278 570 L313 553 L313 553 Z " />
<glyph glyph-name="Ccircumflex" unicode="&#x108;" horiz-adv-x="640" d="M634 635 C639 642 638 649 631 654 C584 686 525 710 450 710 C233 710 34 522 34 293 C34 116 167 -10 335 -10 C407 -10 473 9 537 44 C546 49 549 56 545 65 L521 115 C519 119 515 121 511 121 C508 121 504 120 500 118 C453 90 400 76 349 76 C216 76 123 169 123 302 C123 474 273 624 436 624 C492 624 532 610 572 583 C576 580 580 579 583 579 C588 579 592 583 595 587 L634 635 Z M457 940 C447 940 438 936 429 927 L293 801 C286 794 286 788 291 782 L307 758 C310 755 313 753 317 753 C320 753 324 755 328 758 L468 874 L568 760 C571 756 574 754 578 754 C581 754 585 756 588 759 L611 782 C619 789 620 795 615 801 L518 927 C513 934 507 940 495 940 L457 940 L457 940 Z " />
<glyph glyph-name="ccircumflex" unicode="&#x109;" horiz-adv-x="496" d="M360 99 C358 103 356 105 352 105 C350 105 347 104 343 102 C312 85 279 74 240 74 C149 74 98 140 98 221 C98 332 187 426 295 426 C314 426 349 424 388 397 C391 395 393 393 396 393 C400 393 403 395 407 399 L447 446 C455 454 454 461 445 466 C416 489 370 510 309 510 C146 510 13 377 13 215 C13 86 98 -10 226 -10 C286 -10 340 10 379 33 C388 38 391 45 387 52 L360 99 L360 99 Z M317 745 C307 745 298 741 289 732 L153 606 C146 599 146 593 151 587 L167 563 C170 560 173 558 177 558 C180 558 184 560 188 563 L328 679 L428 565 C431 561 434 559 438 559 C441 559 445 561 448 564 L471 587 C479 594 480 600 475 606 L378 732 C373 739 367 745 355 745 L317 745 L317 745 Z " />
<glyph glyph-name="Cdotaccent" unicode="&#x10a;" horiz-adv-x="639" d="M634 635 C639 642 638 649 631 654 C584 686 525 710 450 710 C233 710 34 522 34 293 C34 116 167 -10 335 -10 C407 -10 473 9 537 44 C546 49 549 56 545 65 L521 115 C519 119 515 121 511 121 C508 121 504 120 500 118 C453 90 400 76 349 76 C216 76 123 169 123 302 C123 474 273 624 436 624 C492 624 532 610 572 583 C576 580 580 579 583 579 C588 579 592 583 595 587 L634 635 Z M403 851 C403 820 426 797 457 797 C488 797 511 820 511 851 C511 882 488 906 457 906 C426 906 403 882 403 851 L403 851 Z " />
<glyph glyph-name="cdotaccent" unicode="&#x10b;" horiz-adv-x="470" d="M360 99 C358 103 356 105 352 105 C350 105 347 104 343 102 C312 85 279 74 240 74 C149 74 98 140 98 221 C98 332 187 426 295 426 C314 426 349 424 388 397 C391 395 393 393 396 393 C400 393 403 395 407 399 L447 446 C455 454 454 461 445 466 C416 489 370 510 309 510 C146 510 13 377 13 215 C13 86 98 -10 226 -10 C286 -10 340 10 379 33 C388 38 391 45 387 52 L360 99 L360 99 Z M272 656 C272 625 295 602 326 602 C357 602 380 625 380 656 C380 687 357 711 326 711 C295 711 272 687 272 656 L272 656 Z " />
<glyph glyph-name="Ccaron" unicode="&#x10c;" horiz-adv-x="645" d="M634 635 C639 642 638 649 631 654 C584 686 525 710 450 710 C233 710 34 522 34 293 C34 116 167 -10 335 -10 C407 -10 473 9 537 44 C546 49 549 56 545 65 L521 115 C519 119 515 121 511 121 C508 121 504 120 500 118 C453 90 400 76 349 76 C216 76 123 169 123 302 C123 474 273 624 436 624 C492 624 532 610 572 583 C576 580 580 579 583 579 C588 579 592 583 595 587 L634 635 Z M474 765 C486 765 493 771 501 778 L637 904 C645 910 646 916 639 923 L624 947 C622 950 619 952 616 952 C612 952 608 950 603 946 L463 829 L363 945 C360 949 357 951 353 951 C350 951 346 949 343 946 L320 923 C313 916 311 910 316 904 L413 778 C420 770 425 765 436 765 L474 765 L474 765 Z " />
<glyph glyph-name="ccaron" unicode="&#x10d;" horiz-adv-x="486" d="M360 99 C358 103 356 105 352 105 C350 105 347 104 343 102 C312 85 279 74 240 74 C149 74 98 140 98 221 C98 332 187 426 295 426 C314 426 349 424 388 397 C391 395 393 393 396 393 C400 393 403 395 407 399 L447 446 C455 454 454 461 445 466 C416 489 370 510 309 510 C146 510 13 377 13 215 C13 86 98 -10 226 -10 C286 -10 340 10 379 33 C388 38 391 45 387 52 L360 99 L360 99 Z M331 553 C343 553 350 559 358 566 L494 692 C502 698 503 704 496 711 L481 735 C479 738 476 740 473 740 C469 740 465 738 460 734 L320 617 L220 733 C217 737 214 739 210 739 C207 739 203 737 200 734 L177 711 C170 704 168 698 173 692 L270 566 C277 558 282 553 293 553 L331 553 L331 553 Z " />
<glyph glyph-name="Dcaron" unicode="&#x10e;" horiz-adv-x="723" d="M278 0 C506 0 685 177 685 407 C685 584 580 700 386 700 L152 700 C143 700 138 696 137 687 L29 13 C29 4 33 0 41 0 L278 0 L278 0 Z M213 613 L371 613 C520 613 597 531 597 398 C597 226 464 87 288 87 L130 87 L213 613 Z M408 764 C420 764 427 770 435 777 L571 903 C579 909 580 915 573 922 L558 946 C556 949 553 951 550 951 C546 951 542 949 537 945 L397 828 L297 944 C294 948 291 950 287 950 C284 950 280 948 277 945 L254 922 C247 915 245 909 250 903 L347 777 C354 769 359 764 370 764 L408 764 L408 764 Z " />
<glyph glyph-name="dcaron" unicode="&#x10f;" horiz-adv-x="715" d="M655 558 C654 551 657 547 666 547 L715 547 C724 547 729 551 730 558 L766 738 C767 746 764 750 756 750 L697 750 C689 750 684 746 683 738 L655 558 Z M102 221 C102 332 190 426 299 426 C395 426 453 350 440 255 C427 154 343 74 244 74 C155 74 102 139 102 221 L102 221 Z M473 0 C482 0 487 4 488 13 L603 737 C604 746 601 750 592 750 L531 750 C522 750 517 746 515 737 C512 724 501 640 488 560 L463 403 C432 467 377 510 293 510 C136 510 14 372 14 215 C14 92 85 -10 212 -10 C300 -10 371 38 414 97 L401 13 C399 4 403 0 412 0 L473 0 Z " />
<glyph glyph-name="Dcroat" unicode="&#x110;" horiz-adv-x="718" d="M24 13 C23 4 26 0 35 0 L273 0 C501 0 680 177 680 407 C680 584 584 700 384 700 L146 700 C137 700 132 696 132 687 L84 386 L22 386 C14 386 9 381 7 372 L1 331 C0 322 3 317 11 317 L72 317 L24 13 Z M208 613 L366 613 C515 613 592 530 592 397 C592 226 456 87 283 87 L125 87 L161 317 L268 317 C278 317 283 321 284 330 L291 373 C292 382 288 386 279 386 L172 386 L208 613 Z " />
<glyph glyph-name="dcroat" unicode="&#x111;" horiz-adv-x="618" d="M640 556 C649 556 654 561 656 570 L662 609 C663 618 660 623 651 623 L585 623 L603 737 C604 746 601 750 592 750 L531 750 C522 750 517 746 515 737 C515 723 509 703 498 623 L391 623 C383 623 378 618 376 609 L370 571 C369 563 369 556 380 556 L487 556 L471 458 L463 403 C434 466 376 510 292 510 C136 510 14 372 14 215 C14 92 85 -10 212 -10 C300 -10 370 38 414 97 L401 13 C399 4 403 0 412 0 L473 0 C482 0 487 4 488 13 L574 556 L640 556 Z M102 221 C102 332 190 426 299 426 C395 426 453 350 440 255 C427 154 342 74 243 74 C156 74 102 139 102 221 L102 221 Z " />
<glyph glyph-name="Emacron" unicode="&#x112;" horiz-adv-x="555" d="M149 700 C139 700 134 696 134 687 L26 13 C26 4 30 0 38 0 L433 0 C442 0 447 4 448 13 L458 74 C459 83 456 87 447 87 L127 87 L161 308 L446 308 C455 308 460 312 462 321 L470 379 C472 388 469 392 460 392 L175 392 L210 613 L529 613 C538 613 543 617 545 626 L555 687 C555 696 551 700 543 700 L149 700 L149 700 Z M218 835 C217 826 220 821 229 821 L498 821 C507 821 512 826 513 835 L521 882 C522 891 518 895 510 895 L241 895 C232 895 227 891 225 883 L218 835 L218 835 Z " />
<glyph glyph-name="emacron" unicode="&#x113;" horiz-adv-x="544" d="M240 66 C148 66 89 134 92 218 L480 218 C491 218 498 223 499 234 C518 395 442 510 299 510 C147 510 12 383 12 215 C12 87 98 -10 226 -10 C301 -10 366 10 418 41 C427 46 429 52 425 59 L404 98 C402 102 399 105 394 105 C392 105 388 104 385 102 C341 78 296 66 240 66 L240 66 Z M103 286 C124 369 194 440 287 440 C375 440 421 383 421 286 L103 286 Z M172 637 C171 628 174 623 183 623 L452 623 C461 623 466 628 467 637 L475 684 C476 693 472 697 464 697 L195 697 C186 697 181 693 179 685 L172 637 L172 637 Z " />
<glyph glyph-name="Ebreve" unicode="&#x114;" horiz-adv-x="563" d="M156 700 C146 700 141 696 141 687 L33 13 C33 4 37 0 45 0 L440 0 C449 0 454 4 455 13 L465 74 C466 83 463 87 454 87 L134 87 L168 308 L453 308 C462 308 467 312 469 321 L477 379 C479 388 476 392 467 392 L182 392 L217 613 L536 613 C545 613 550 617 552 626 L562 687 C562 696 558 700 550 700 L156 700 L156 700 Z M535 905 C535 910 532 914 527 915 L487 923 C480 923 477 921 475 914 C466 871 430 834 367 834 C306 834 281 871 286 914 C287 920 285 923 279 923 C279 923 278 923 277 923 L235 915 C228 914 224 910 224 905 C216 817 273 769 358 769 C446 769 516 817 535 905 L535 905 Z " />
<glyph glyph-name="ebreve" unicode="&#x115;" horiz-adv-x="547" d="M240 66 C148 66 89 134 92 218 L480 218 C491 218 498 223 499 234 C518 395 442 510 299 510 C147 510 12 383 12 215 C12 87 98 -10 226 -10 C301 -10 366 10 418 41 C427 46 429 52 425 59 L404 98 C402 102 399 105 394 105 C392 105 388 104 385 102 C341 78 296 66 240 66 L240 66 Z M103 286 C124 369 194 440 287 440 C375 440 421 383 421 286 L103 286 Z M485 718 C485 723 482 727 477 728 L437 736 C430 736 427 734 425 727 C416 684 380 647 317 647 C256 647 231 684 236 727 C237 733 235 736 229 736 C229 736 228 736 227 736 L185 728 C178 727 174 723 174 718 C166 630 223 582 308 582 C396 582 466 630 485 718 L485 718 Z " />
<glyph glyph-name="Edotaccent" unicode="&#x116;" horiz-adv-x="555" d="M149 700 C139 700 134 696 134 687 L26 13 C26 4 30 0 38 0 L433 0 C442 0 447 4 448 13 L458 74 C459 83 456 87 447 87 L127 87 L161 308 L446 308 C455 308 460 312 462 321 L470 379 C472 388 469 392 460 392 L175 392 L210 613 L529 613 C538 613 543 617 545 626 L555 687 C555 696 551 700 543 700 L149 700 L149 700 Z M308 858 C308 827 331 804 362 804 C393 804 416 827 416 858 C416 889 393 913 362 913 C331 913 308 889 308 858 L308 858 Z " />
<glyph glyph-name="edotaccent" unicode="&#x117;" horiz-adv-x="544" d="M240 66 C148 66 89 134 92 218 L480 218 C491 218 498 223 499 234 C518 395 442 510 299 510 C147 510 12 383 12 215 C12 87 98 -10 226 -10 C301 -10 366 10 418 41 C427 46 429 52 425 59 L404 98 C402 102 399 105 394 105 C392 105 388 104 385 102 C341 78 296 66 240 66 L240 66 Z M103 286 C124 369 194 440 287 440 C375 440 421 383 421 286 L103 286 Z M274 673 C274 642 297 619 328 619 C359 619 382 642 382 673 C382 704 359 728 328 728 C297 728 274 704 274 673 L274 673 Z " />
<glyph glyph-name="Eogonek" unicode="&#x118;" horiz-adv-x="555" d="M458 74 C459 83 456 87 447 87 L127 87 L162 308 L446 308 C455 308 460 312 461 321 L471 379 C472 388 468 392 459 392 L175 392 L210 613 L529 613 C538 613 543 617 545 626 L554 687 C556 696 552 700 543 700 L148 700 C140 700 135 696 133 687 L27 13 C25 4 28 0 37 0 L372 0 C283 -79 301 -195 415 -195 C425 -195 436 -194 448 -192 C456 -191 460 -187 460 -180 L465 -139 C466 -133 464 -131 459 -131 C458 -131 457 -131 456 -131 C448 -133 441 -133 434 -133 C363 -133 373 -46 435 0 C442 5 447 6 448 13 L458 74 L458 74 Z " />
<glyph glyph-name="eogonek" unicode="&#x119;" horiz-adv-x="544" d="M103 286 C124 369 194 440 287 440 C375 440 421 369 421 286 L103 286 Z M188 -6 C106 -88 130 -195 240 -195 C250 -195 261 -194 272 -192 C279 -191 283 -187 284 -180 L289 -139 C290 -133 287 -131 282 -131 C281 -131 280 -131 279 -131 C270 -133 263 -134 256 -134 C189 -134 194 -57 247 -9 C315 -6 367 12 418 41 C427 46 429 52 425 59 L404 98 C402 102 398 104 394 104 C391 104 388 104 385 102 C341 78 299 66 243 66 C144 66 89 132 92 218 L480 218 C492 218 496 225 499 234 C515 379 455 510 299 510 C144 510 12 380 12 215 C12 97 83 10 188 -6 L188 -6 Z " />
<glyph glyph-name="Ecaron" unicode="&#x11a;" horiz-adv-x="555" d="M149 700 C139 700 134 696 134 687 L26 13 C26 4 30 0 38 0 L433 0 C442 0 447 4 448 13 L458 74 C459 83 456 87 447 87 L127 87 L161 308 L446 308 C455 308 460 312 462 321 L470 379 C472 388 469 392 460 392 L175 392 L210 613 L529 613 C538 613 543 617 545 626 L555 687 C555 696 551 700 543 700 L149 700 L149 700 Z M372 764 C384 764 391 770 399 777 L535 903 C543 909 544 915 537 922 L522 946 C520 949 517 951 514 951 C510 951 506 949 501 945 L361 828 L261 944 C258 948 255 950 251 950 C248 950 244 948 241 945 L218 922 C211 915 209 909 214 903 L311 777 C318 769 323 764 334 764 L372 764 L372 764 Z " />
<glyph glyph-name="ecaron" unicode="&#x11b;" horiz-adv-x="548" d="M327 559 C339 559 346 565 354 572 L490 698 C498 704 499 710 492 717 L477 741 C475 744 472 746 469 746 C465 746 461 744 456 740 L316 623 L216 739 C213 743 210 745 206 745 C203 745 199 743 196 740 L173 717 C166 710 164 704 169 698 L266 572 C273 564 278 559 289 559 L327 559 L327 559 Z M240 66 C148 66 89 134 92 218 L480 218 C491 218 498 223 499 234 C518 395 442 510 299 510 C147 510 12 383 12 215 C12 87 98 -10 226 -10 C301 -10 366 10 418 41 C427 46 429 52 425 59 L404 98 C402 102 399 105 394 105 C392 105 388 104 385 102 C341 78 296 66 240 66 L240 66 Z M103 286 C124 369 194 440 287 440 C375 440 421 383 421 286 L103 286 Z " />
<glyph glyph-name="Gcircumflex" unicode="&#x11c;" horiz-adv-x="680" d="M498 113 C453 90 409 76 349 76 C216 76 123 169 123 302 C123 474 273 624 436 624 C491 624 533 609 576 580 C580 577 583 576 586 576 C591 576 596 580 600 584 L638 631 C644 639 643 646 635 651 C588 683 527 710 450 710 C233 710 34 522 34 293 C34 116 167 -10 335 -10 C412 -10 488 9 562 46 C571 51 576 55 577 64 L621 345 C623 354 619 359 610 359 L385 359 C376 359 371 354 370 345 L362 296 C361 287 364 283 373 283 L524 283 L498 113 L498 113 Z M462 940 C452 940 443 936 434 927 L298 801 C291 794 291 788 296 782 L312 758 C315 755 318 753 322 753 C325 753 329 755 333 758 L473 874 L573 760 C576 756 579 754 583 754 C586 754 590 756 593 759 L616 782 C624 789 625 795 620 801 L523 927 C518 934 512 940 500 940 L462 940 L462 940 Z " />
<glyph glyph-name="gcircumflex" unicode="&#x11d;" horiz-adv-x="620" d="M108 221 C108 332 196 426 305 426 C401 426 460 350 447 255 C434 154 349 77 250 77 C162 77 108 140 108 221 L108 221 Z M570 487 C571 496 567 500 558 500 L497 500 C489 500 484 496 482 487 C477 465 471 426 469 403 C440 467 383 510 299 510 C143 510 21 369 21 212 C21 91 92 -7 219 -7 C308 -7 378 42 421 101 L406 4 C390 -92 312 -171 200 -171 C139 -171 89 -149 58 -113 C56 -111 53 -109 51 -109 C47 -109 44 -111 40 -115 L1 -157 C-5 -163 -6 -169 -1 -175 C36 -220 106 -255 190 -255 C353 -255 471 -146 495 11 L570 487 L570 487 Z M346 745 C336 745 327 741 318 732 L182 606 C175 599 175 593 180 587 L196 563 C199 560 202 558 206 558 C209 558 213 560 217 563 L357 679 L457 565 C460 561 463 559 467 559 C470 559 474 561 477 564 L500 587 C508 594 509 600 504 606 L407 732 C402 739 396 745 384 745 L346 745 L346 745 Z " />
<glyph glyph-name="Gbreve" unicode="&#x11e;" horiz-adv-x="680" d="M498 113 C453 90 409 76 349 76 C216 76 123 169 123 302 C123 474 273 624 436 624 C491 624 533 609 576 580 C580 577 583 576 586 576 C591 576 596 580 600 584 L638 631 C644 639 643 646 635 651 C588 683 527 710 450 710 C233 710 34 522 34 293 C34 116 167 -10 335 -10 C412 -10 488 9 562 46 C571 51 576 55 577 64 L621 345 C623 354 619 359 610 359 L385 359 C376 359 371 354 370 345 L362 296 C361 287 364 283 373 283 L524 283 L498 113 L498 113 Z M612 905 C612 910 609 914 604 915 L564 923 C557 923 554 921 552 914 C543 871 507 834 444 834 C383 834 358 871 363 914 C364 920 362 923 356 923 C356 923 355 923 354 923 L312 915 C305 914 301 910 301 905 C293 817 350 769 435 769 C523 769 593 817 612 905 L612 905 Z " />
<glyph glyph-name="gbreve" unicode="&#x11f;" horiz-adv-x="620" d="M108 221 C108 332 196 426 305 426 C401 426 460 350 447 255 C434 154 349 77 250 77 C162 77 108 140 108 221 L108 221 Z M570 487 C571 496 567 500 558 500 L497 500 C489 500 484 496 482 487 C477 465 471 426 469 403 C440 467 383 510 299 510 C143 510 21 369 21 212 C21 91 92 -7 219 -7 C308 -7 378 42 421 101 L406 4 C390 -92 312 -171 200 -171 C139 -171 89 -149 58 -113 C56 -111 53 -109 51 -109 C47 -109 44 -111 40 -115 L1 -157 C-5 -163 -6 -169 -1 -175 C36 -220 106 -255 190 -255 C353 -255 471 -146 495 11 L570 487 L570 487 Z M515 718 C515 723 512 727 507 728 L467 736 C460 736 457 734 455 727 C446 684 410 647 347 647 C286 647 261 684 266 727 C267 733 265 736 259 736 C259 736 258 736 257 736 L215 728 C208 727 204 723 204 718 C196 630 253 582 338 582 C426 582 496 630 515 718 L515 718 Z " />
<glyph glyph-name="Gdotaccent" unicode="&#x120;" horiz-adv-x="680" d="M498 113 C453 90 409 76 349 76 C216 76 123 169 123 302 C123 474 273 624 436 624 C491 624 533 609 576 580 C580 577 583 576 586 576 C591 576 596 580 600 584 L638 631 C644 639 643 646 635 651 C588 683 527 710 450 710 C233 710 34 522 34 293 C34 116 167 -10 335 -10 C412 -10 488 9 562 46 C571 51 576 55 577 64 L621 345 C623 354 619 359 610 359 L385 359 C376 359 371 354 370 345 L362 296 C361 287 364 283 373 283 L524 283 L498 113 L498 113 Z M397 851 C397 820 420 797 451 797 C482 797 505 820 505 851 C505 882 482 906 451 906 C420 906 397 882 397 851 L397 851 Z " />
<glyph glyph-name="gdotaccent" unicode="&#x121;" horiz-adv-x="620" d="M108 221 C108 332 196 426 305 426 C401 426 460 350 447 255 C434 154 349 77 250 77 C162 77 108 140 108 221 L108 221 Z M570 487 C571 496 567 500 558 500 L497 500 C489 500 484 496 482 487 C477 465 471 426 469 403 C440 467 383 510 299 510 C143 510 21 369 21 212 C21 91 92 -7 219 -7 C308 -7 378 42 421 101 L406 4 C390 -92 312 -171 200 -171 C139 -171 89 -149 58 -113 C56 -111 53 -109 51 -109 C47 -109 44 -111 40 -115 L1 -157 C-5 -163 -6 -169 -1 -175 C36 -220 106 -255 190 -255 C353 -255 471 -146 495 11 L570 487 L570 487 Z M296 673 C296 642 319 619 350 619 C381 619 404 642 404 673 C404 704 381 728 350 728 C319 728 296 704 296 673 L296 673 Z " />
<glyph glyph-name="uni0122" unicode="&#x122;" horiz-adv-x="680" d="M238 -241 C235 -248 238 -252 247 -252 L296 -252 C306 -252 312 -248 313 -241 L378 -61 C380 -53 377 -49 370 -49 L311 -49 C302 -49 297 -53 295 -61 L238 -241 Z M498 113 C453 90 409 76 349 76 C216 76 123 169 123 302 C123 474 273 624 436 624 C491 624 533 609 576 580 C580 577 583 576 586 576 C591 576 596 580 600 584 L638 631 C644 639 643 646 635 651 C588 683 527 710 450 710 C233 710 34 522 34 293 C34 116 167 -10 335 -10 C412 -10 488 9 562 46 C571 51 576 55 577 64 L621 345 C623 354 619 359 610 359 L385 359 C376 359 371 354 370 345 L362 296 C361 287 364 283 373 283 L524 283 L498 113 Z " />
<glyph glyph-name="uni0123" unicode="&#x123;" horiz-adv-x="620" d="M431 767 C433 775 430 779 422 779 L374 779 C365 779 359 775 356 768 L292 588 C290 580 293 576 300 576 L359 576 C367 576 372 580 374 588 L431 767 L431 767 Z M108 221 C108 332 196 426 305 426 C401 426 460 350 447 255 C434 154 349 77 250 77 C162 77 108 140 108 221 L108 221 Z M570 487 C571 496 567 500 558 500 L497 500 C489 500 484 496 482 487 C477 465 471 426 469 403 C440 467 383 510 299 510 C143 510 21 369 21 212 C21 91 92 -7 219 -7 C308 -7 378 42 421 101 L406 4 C390 -92 312 -171 200 -171 C139 -171 89 -149 58 -113 C56 -111 53 -109 51 -109 C47 -109 44 -111 40 -115 L1 -157 C-5 -163 -6 -169 -1 -175 C36 -220 106 -255 190 -255 C353 -255 471 -146 495 11 L570 487 L570 487 Z " />
<glyph glyph-name="Hcircumflex" unicode="&#x124;" horiz-adv-x="696" d="M103 0 C112 0 116 4 117 13 L164 310 L518 310 L471 13 C470 4 473 0 482 0 L544 0 C554 0 559 4 559 13 L667 687 C668 696 664 700 655 700 L593 700 C584 700 579 696 578 687 L532 398 L178 398 L224 687 C225 696 221 700 213 700 L151 700 C142 700 137 696 136 687 L29 13 C29 4 33 0 41 0 L103 0 L103 0 Z M423 940 C413 940 404 936 395 927 L259 801 C252 794 252 788 257 782 L273 758 C276 755 279 753 283 753 C286 753 290 755 294 758 L434 874 L534 760 C537 756 540 754 544 754 C547 754 551 756 554 759 L577 782 C585 789 586 795 581 801 L484 927 C479 934 473 940 461 940 L423 940 L423 940 Z " />
<glyph glyph-name="hcircumflex" unicode="&#x125;" horiz-adv-x="599" d="M100 0 C109 0 114 4 115 13 L154 256 C165 339 242 426 327 426 C419 426 449 359 433 262 L394 13 C393 4 396 0 405 0 L466 0 C475 0 480 4 481 13 L523 277 C544 416 496 510 367 510 C280 510 212 454 177 405 L229 737 C231 746 228 750 219 750 L157 750 C148 750 143 746 142 737 L28 13 C27 4 31 0 38 0 L100 0 L100 0 Z M200 952 C190 952 181 948 172 939 L36 813 C29 806 29 800 34 794 L50 770 C53 767 56 765 60 765 C63 765 67 767 71 770 L211 886 L311 772 C314 768 317 766 321 766 C324 766 328 768 331 771 L354 794 C362 801 363 807 358 813 L261 939 C256 946 250 952 238 952 L200 952 L200 952 Z " />
<glyph glyph-name="Hbar" unicode="&#x126;" horiz-adv-x="689" d="M529 398 L176 398 L191 500 L544 500 L529 398 Z M712 500 C723 500 725 505 728 514 L732 540 C733 551 732 554 721 554 L642 554 L664 687 C664 695 663 700 652 700 L591 700 C582 700 576 696 575 687 L554 554 L200 554 L221 687 C222 696 218 700 209 700 L149 700 C138 700 133 696 133 687 L111 554 L31 554 C20 554 19 550 16 541 L12 514 C11 505 11 500 22 500 L102 500 L25 13 C24 4 28 0 37 0 L98 0 C107 0 112 4 114 13 L161 310 L515 310 L468 13 C466 4 470 0 480 0 L541 0 C550 0 555 4 556 13 L633 500 L712 500 Z " />
<glyph glyph-name="hbar" unicode="&#x127;" horiz-adv-x="595" d="M224 737 C226 746 223 750 214 750 L153 750 C143 750 138 746 137 737 L121 632 L55 632 C46 632 41 628 40 619 L34 580 C31 571 35 566 44 566 L110 566 L23 13 C22 4 26 0 34 0 L95 0 C104 0 109 4 110 13 L149 256 C160 339 237 426 322 426 C414 426 444 359 428 262 L389 13 C388 4 391 0 400 0 L461 0 C470 0 475 4 476 13 L518 277 C539 416 491 510 362 510 C275 510 207 454 172 405 L197 566 L304 566 C313 566 319 571 321 580 L327 619 C328 628 324 632 315 632 L208 632 L224 737 Z " />
<glyph glyph-name="Itilde" unicode="&#x128;" horiz-adv-x="251" d="M101 0 C110 0 115 4 116 13 L223 687 C224 696 220 700 212 700 L150 700 C141 700 136 696 135 687 L27 13 C27 4 31 0 39 0 L101 0 L101 0 Z M273 863 C228 863 213 926 149 926 C114 926 67 900 30 868 C21 861 20 857 20 848 L17 807 C18 801 20 798 23 798 C25 798 28 799 31 802 C60 828 103 860 132 860 C181 860 192 797 257 797 C290 797 339 824 376 855 C384 862 385 866 385 875 L388 917 C388 922 386 925 382 925 C380 925 377 924 374 921 C345 894 304 863 273 863 L273 863 Z " />
<glyph glyph-name="itilde" unicode="&#x129;" horiz-adv-x="233" d="M227 671 C182 671 167 734 103 734 C68 734 21 708 -16 676 C-25 669 -26 665 -26 656 L-29 615 C-28 609 -26 606 -23 606 C-21 606 -18 607 -15 610 C14 636 57 668 86 668 C135 668 146 605 211 605 C244 605 293 632 330 663 C338 670 339 674 339 683 L342 725 C342 730 340 733 336 733 C334 733 331 732 328 729 C299 702 258 671 227 671 L227 671 Z M86 0 C95 0 100 4 101 13 L177 487 C178 496 174 500 165 500 L104 500 C96 500 91 496 89 487 L14 13 C12 4 16 0 25 0 L86 0 L86 0 Z " />
<glyph glyph-name="Imacron" unicode="&#x12a;" horiz-adv-x="253" d="M103 0 C112 0 117 4 118 13 L225 687 C226 696 222 700 214 700 L152 700 C143 700 138 696 137 687 L29 13 C29 4 33 0 41 0 L103 0 L103 0 Z M56 845 C55 836 58 831 67 831 L336 831 C345 831 350 836 351 845 L359 892 C360 901 356 905 348 905 L79 905 C70 905 65 901 63 893 L56 845 L56 845 Z " />
<glyph glyph-name="imacron" unicode="&#x12b;" horiz-adv-x="239" d="M93 0 C102 0 107 4 108 13 L184 487 C185 496 181 500 172 500 L111 500 C103 500 98 496 96 487 L21 13 C19 4 23 0 32 0 L93 0 L93 0 Z M12 637 C11 628 14 623 23 623 L292 623 C301 623 306 628 307 637 L315 684 C316 693 312 697 304 697 L35 697 C26 697 21 693 19 685 L12 637 L12 637 Z " />
<glyph glyph-name="Iogonek" unicode="&#x12e;" horiz-adv-x="254" d="M106 0 C113 1 116 5 117 11 L224 687 C225 696 221 700 212 700 L150 700 C141 700 136 696 135 687 L27 8 C26 3 28 0 33 0 L35 0 C-66 -76 -42 -195 78 -195 C89 -195 100 -194 112 -192 C119 -191 123 -187 124 -180 L129 -139 C130 -133 128 -131 123 -131 C122 -131 121 -131 120 -131 C114 -132 108 -133 103 -133 C32 -133 41 -37 106 0 L106 0 Z " />
<glyph glyph-name="iogonek" unicode="&#x12f;" horiz-adv-x="246" d="M97 0 C104 1 107 4 108 11 L183 487 C184 496 180 500 171 500 L110 500 C101 500 96 496 95 487 L19 8 C18 3 20 0 25 0 L27 0 C-72 -75 -51 -195 67 -195 C79 -195 91 -194 104 -192 C111 -191 115 -187 116 -180 L121 -139 C121 -132 117 -131 111 -131 C105 -132 99 -133 93 -133 C22 -133 27 -40 97 0 L97 0 Z M115 701 C115 670 139 646 170 646 C202 646 227 670 227 701 C227 733 202 758 170 758 C139 758 115 733 115 701 L115 701 Z " />
<glyph glyph-name="Idotaccent" unicode="&#x130;" horiz-adv-x="257" d="M103 0 C112 0 117 4 118 13 L225 687 C226 696 222 700 214 700 L152 700 C143 700 138 696 137 687 L29 13 C29 4 33 0 41 0 L103 0 L103 0 Z M153 858 C153 827 176 804 207 804 C238 804 261 827 261 858 C261 889 238 913 207 913 C176 913 153 889 153 858 L153 858 Z " />
<glyph glyph-name="dotlessi" unicode="&#x131;" horiz-adv-x="250" d="M96 0 C105 0 110 4 111 13 L187 487 C188 496 184 500 175 500 L114 500 C106 500 101 496 99 487 L24 13 C22 4 26 0 35 0 L96 0 L96 0 Z " />
<glyph glyph-name="IJ" unicode="&#x132;" horiz-adv-x="726" d="M104 0 C112 0 117 4 119 13 L225 687 C227 696 224 700 215 700 L152 700 C143 700 138 696 137 687 L30 13 C29 4 33 0 41 0 L104 0 L104 0 Z M716 687 C718 696 715 700 706 700 L643 700 C634 700 629 696 628 687 L552 205 C539 124 486 76 413 76 C368 76 336 89 305 110 C301 113 298 114 295 114 C291 114 289 113 286 109 L247 59 C240 50 243 45 247 41 C287 9 346 -10 409 -10 C536 -10 619 71 639 198 L716 687 L716 687 Z " />
<glyph glyph-name="ij" unicode="&#x133;" horiz-adv-x="524" d="M96 0 C105 0 110 4 111 13 L186 487 C187 496 183 500 175 500 L114 500 C105 500 100 496 99 487 L24 13 C23 4 26 0 35 0 L96 0 L96 0 Z M119 701 C119 670 143 646 175 646 C207 646 231 670 231 701 C231 733 207 758 175 758 C143 758 119 733 119 701 L119 701 Z M114 -216 C109 -223 111 -229 118 -233 C143 -245 171 -255 206 -255 C295 -255 352 -196 364 -116 L460 487 C461 496 457 500 448 500 L387 500 C379 500 374 496 372 487 L279 -102 C272 -145 246 -171 206 -171 C186 -171 174 -167 161 -160 C159 -159 157 -159 156 -159 C152 -159 149 -161 145 -166 L114 -216 L114 -216 Z M393 701 C393 670 417 646 448 646 C480 646 505 670 505 701 C505 733 480 758 448 758 C417 758 393 733 393 701 L393 701 Z " />
<glyph glyph-name="Jcircumflex" unicode="&#x134;" horiz-adv-x="479" d="M464 687 C466 696 463 700 454 700 L392 700 C382 700 377 696 376 687 L300 205 C287 124 234 76 161 76 C116 76 84 89 53 110 C49 113 46 114 43 114 C39 114 37 113 34 109 L-5 59 C-12 50 -9 45 -4 41 C37 8 94 -10 157 -10 C284 -10 367 71 387 198 L464 687 L464 687 Z M438 940 C428 940 419 936 410 927 L274 801 C267 794 267 788 272 782 L288 758 C291 755 294 753 298 753 C301 753 305 755 309 758 L449 874 L549 760 C552 756 555 754 559 754 C562 754 566 756 569 759 L592 782 C600 789 601 795 596 801 L499 927 C494 934 488 940 476 940 L438 940 L438 940 Z " />
<glyph glyph-name="jcircumflex" unicode="&#x135;" horiz-adv-x="237" d="M-161 -216 C-166 -224 -163 -230 -158 -233 C-131 -245 -102 -255 -69 -255 C19 -255 76 -196 89 -116 L185 487 C186 496 182 500 173 500 L112 500 C104 500 99 496 97 487 L4 -102 C-3 -145 -29 -171 -69 -171 C-89 -171 -100 -167 -115 -160 C-117 -159 -119 -159 -120 -159 C-124 -159 -127 -161 -130 -166 L-161 -216 L-161 -216 Z M162 745 C152 745 143 741 134 732 L-2 606 C-9 599 -9 593 -4 587 L12 563 C15 560 18 558 22 558 C25 558 29 560 33 563 L173 679 L273 565 C276 561 279 559 283 559 C286 559 290 561 293 564 L316 587 C324 594 325 600 320 606 L223 732 C218 739 212 745 200 745 L162 745 L162 745 Z " />
<glyph glyph-name="uni0136" unicode="&#x136;" horiz-adv-x="646" d="M180 -241 C177 -248 180 -252 189 -252 L237 -252 C246 -252 252 -248 255 -241 L319 -61 C321 -53 318 -49 311 -49 L252 -49 C244 -49 239 -53 237 -61 L180 -241 Z M556 0 C565 0 568 4 564 13 L351 418 L647 687 C654 694 653 700 644 700 L561 700 C548 700 540 695 532 687 L175 369 L225 687 C226 696 222 700 214 700 L152 700 C143 700 138 696 137 687 L29 13 C29 4 33 0 41 0 L103 0 C112 0 117 4 118 13 L156 249 L279 358 L462 13 C467 4 474 0 485 0 L556 0 Z " />
<glyph glyph-name="uni0137" unicode="&#x137;" horiz-adv-x="524" d="M128 -241 C125 -248 129 -252 136 -252 L185 -252 C194 -252 200 -248 203 -241 L267 -61 C269 -53 266 -49 259 -49 L200 -49 C191 -49 186 -53 184 -61 L128 -241 Z M348 12 C353 4 357 0 372 0 L440 0 C451 0 453 5 447 14 L296 296 L502 487 C509 494 508 500 499 500 L421 500 C412 500 404 497 398 491 L154 277 L226 737 C228 746 225 750 216 750 L154 750 C145 750 140 746 139 737 L25 13 C24 4 28 0 35 0 L97 0 C106 0 111 4 112 13 L136 164 L221 239 L348 12 Z " />
<glyph glyph-name="kgreenlandic" unicode="&#x138;" horiz-adv-x="521" d="M344 12 C349 4 357 0 368 0 L437 0 C448 0 450 5 444 14 L293 296 L499 487 C506 494 505 500 496 500 L421 500 C412 500 404 497 397 491 L151 277 L184 487 C186 496 182 500 173 500 L112 500 C103 500 98 496 97 487 L22 13 C20 4 24 0 33 0 L94 0 C103 0 108 4 109 13 L133 164 L218 238 L344 12 L344 12 Z " />
<glyph glyph-name="Lacute" unicode="&#x139;" horiz-adv-x="500" d="M408 0 C417 0 422 4 423 13 L433 73 C435 82 431 86 422 86 L130 86 L225 687 C226 696 222 700 214 700 L152 700 C143 700 138 696 137 687 L29 13 C29 4 33 0 41 0 L408 0 L408 0 Z M205 759 C207 758 209 758 211 758 C216 758 221 760 224 765 L342 921 C348 928 347 934 339 937 L289 955 C287 956 285 956 283 956 C277 956 273 953 270 947 L168 793 C164 786 165 780 170 776 L205 759 L205 759 Z " />
<glyph glyph-name="lacute" unicode="&#x13a;" horiz-adv-x="245" d="M100 0 C109 0 114 4 115 13 L229 737 C231 746 228 750 219 750 L157 750 C148 750 143 746 142 737 L28 13 C27 4 31 0 38 0 L100 0 L100 0 Z M204 773 C206 772 208 772 210 772 C215 772 220 774 223 779 L341 935 C347 942 346 948 338 951 L288 969 C286 970 284 970 282 970 C276 970 272 967 269 961 L167 807 C163 800 164 794 169 790 L204 773 L204 773 Z " />
<glyph glyph-name="uni013B" unicode="&#x13b;" horiz-adv-x="500" d="M131 -241 C128 -248 132 -252 139 -252 L189 -252 C199 -252 205 -248 206 -241 L270 -61 C273 -53 271 -49 263 -49 L204 -49 C195 -49 190 -53 188 -61 L131 -241 Z M408 0 C417 0 422 4 423 13 L433 73 C435 82 431 86 422 86 L130 86 L225 687 C226 696 222 700 214 700 L152 700 C143 700 138 696 137 687 L29 13 C29 4 33 0 41 0 L408 0 Z " />
<glyph glyph-name="uni013C" unicode="&#x13c;" horiz-adv-x="252" d="M-40 -241 C-43 -248 -40 -252 -33 -252 L17 -252 C27 -252 33 -248 34 -241 L98 -61 C101 -53 99 -49 91 -49 L32 -49 C23 -49 18 -53 16 -61 L-40 -241 Z M97 0 C106 0 111 4 112 13 L226 737 C228 746 225 750 216 750 L154 750 C145 750 140 746 139 737 L25 13 C24 4 28 0 35 0 L97 0 Z " />
<glyph glyph-name="Lcaron" unicode="&#x13d;" horiz-adv-x="504" d="M382 508 C379 501 383 497 390 497 L440 497 C449 497 454 501 457 508 L521 688 C524 696 522 700 514 700 L455 700 C446 700 441 696 439 688 L382 508 Z M408 0 C417 0 422 4 423 13 L433 73 C435 82 431 86 422 86 L130 86 L225 687 C226 696 222 700 214 700 L152 700 C143 700 138 696 137 687 L29 13 C29 4 33 0 41 0 L408 0 Z " />
<glyph glyph-name="lcaron" unicode="&#x13e;" horiz-adv-x="347" d="M274 558 C271 551 274 547 282 547 L331 547 C340 547 346 551 349 558 L413 738 C415 746 412 750 405 750 L346 750 C337 750 332 746 330 738 L274 558 Z M97 0 C106 0 111 4 112 13 L226 737 C228 746 225 750 216 750 L154 750 C145 750 140 746 139 737 L25 13 C24 4 28 0 35 0 L97 0 Z " />
<glyph glyph-name="Ldot" unicode="&#x13f;" horiz-adv-x="504" d="M408 0 C417 0 422 4 423 13 L433 73 C435 82 431 86 422 86 L130 86 L225 687 C226 696 222 700 214 700 L152 700 C143 700 138 696 137 687 L29 13 C29 4 33 0 41 0 L408 0 L408 0 Z M376 396 C376 365 399 342 430 342 C461 342 484 365 484 396 C484 427 461 451 430 451 C399 451 376 427 376 396 L376 396 Z " />
<glyph glyph-name="ldot" unicode="&#x140;" horiz-adv-x="410" d="M97 0 C106 0 111 4 112 13 L226 737 C228 746 225 750 216 750 L154 750 C145 750 140 746 139 737 L25 13 C24 4 28 0 35 0 L97 0 L97 0 Z M282 384 C282 353 305 330 336 330 C367 330 390 353 390 384 C390 415 367 439 336 439 C305 439 282 415 282 384 L282 384 Z " />
<glyph glyph-name="Lslash" unicode="&#x141;" horiz-adv-x="513" d="M26 13 C26 4 30 0 38 0 L405 0 C415 0 420 4 420 13 L430 73 C432 82 428 86 419 86 L127 86 L166 335 L361 400 C370 404 374 410 372 417 L366 456 C365 462 362 464 357 464 C355 464 353 464 350 463 L177 405 L222 687 C223 696 219 700 211 700 L149 700 C140 700 135 696 134 687 L84 374 L3 347 C-5 344 -9 339 -8 331 L0 293 C2 286 5 283 10 283 C11 283 13 283 15 284 L72 304 L26 13 Z " />
<glyph glyph-name="lslash" unicode="&#x142;" horiz-adv-x="312" d="M50 13 C49 4 53 0 61 0 L122 0 C131 0 136 4 138 13 L191 358 L332 406 C335 407 343 412 342 423 L334 463 C332 470 328 472 324 472 C322 472 320 471 319 471 L203 432 L252 737 C253 746 249 750 241 750 L180 750 C171 750 166 746 164 737 L112 402 L-19 357 C-30 353 -30 343 -29 340 L-21 298 C-20 295 -18 289 -11 289 C-10 289 -8 289 -6 290 L99 326 L50 13 Z " />
<glyph glyph-name="Nacute" unicode="&#x143;" horiz-adv-x="724" d="M572 0 C581 0 586 4 587 13 L695 687 C695 696 691 700 683 700 L621 700 C612 700 607 696 606 687 L521 150 L235 687 C230 695 226 700 214 700 L151 700 C142 700 137 696 137 687 L29 13 C29 4 33 0 40 0 L103 0 C112 0 117 4 118 13 L203 550 L489 13 C494 5 498 0 509 0 L572 0 Z M417 760 C419 759 421 759 423 759 C428 759 433 761 436 766 L554 922 C560 929 559 935 551 938 L501 956 C499 957 497 957 495 957 C489 957 485 954 482 948 L380 794 C376 787 377 781 382 777 L417 760 L417 760 Z " />
<glyph glyph-name="nacute" unicode="&#x144;" horiz-adv-x="597" d="M463 0 C472 0 477 4 479 13 L520 277 C541 416 495 510 364 510 C278 510 209 451 174 403 C174 404 187 485 187 487 C189 496 185 500 176 500 L115 500 C106 500 101 496 100 487 L25 13 C24 4 27 0 36 0 L97 0 C106 0 111 4 112 13 L151 256 C164 339 239 426 324 426 C416 426 446 359 431 262 L391 13 C390 4 393 0 402 0 L463 0 L463 0 Z M331 553 C333 552 335 552 337 552 C342 552 347 554 350 559 L468 715 C474 722 473 728 465 731 L415 749 C413 750 411 750 409 750 C403 750 399 747 396 741 L294 587 C290 580 291 574 296 570 L331 553 L331 553 Z " />
<glyph glyph-name="uni0145" unicode="&#x145;" horiz-adv-x="724" d="M219 -241 C216 -248 219 -252 228 -252 L277 -252 C287 -252 293 -248 294 -241 L359 -61 C361 -53 358 -49 351 -49 L292 -49 C283 -49 278 -53 276 -61 L219 -241 Z M572 0 C581 0 586 4 587 13 L695 687 C695 696 691 700 683 700 L621 700 C612 700 607 696 606 687 L521 150 L235 687 C230 695 226 700 214 700 L151 700 C142 700 137 696 137 687 L29 13 C29 4 33 0 40 0 L103 0 C112 0 117 4 118 13 L203 550 L489 13 C494 5 498 0 509 0 L572 0 Z " />
<glyph glyph-name="uni0146" unicode="&#x146;" horiz-adv-x="597" d="M156 -241 C153 -248 157 -252 164 -252 L214 -252 C222 -252 228 -250 231 -241 L295 -61 C298 -53 296 -49 288 -49 L229 -49 C220 -49 215 -53 213 -61 L156 -241 Z M463 0 C472 0 477 4 479 13 L520 277 C541 416 495 510 364 510 C278 510 209 451 174 403 C174 404 187 485 187 487 C189 496 185 500 176 500 L115 500 C106 500 101 496 100 487 L25 13 C24 4 27 0 36 0 L97 0 C106 0 111 4 112 13 L151 256 C164 339 239 426 324 426 C416 426 446 359 431 262 L391 13 C390 4 393 0 402 0 L463 0 Z " />
<glyph glyph-name="Ncaron" unicode="&#x147;" horiz-adv-x="724" d="M572 0 C581 0 586 4 587 13 L695 687 C695 696 691 700 683 700 L621 700 C612 700 607 696 606 687 L521 150 L235 687 C230 695 226 700 214 700 L151 700 C142 700 137 696 137 687 L29 13 C29 4 33 0 40 0 L103 0 C112 0 117 4 118 13 L203 550 L489 13 C494 5 498 0 509 0 L572 0 Z M440 764 C452 764 459 770 467 777 L603 903 C611 909 612 915 605 922 L590 946 C588 949 585 951 582 951 C578 951 574 949 569 945 L429 828 L329 944 C326 948 323 950 319 950 C316 950 312 948 309 945 L286 922 C279 915 277 909 282 903 L379 777 C386 769 391 764 402 764 L440 764 L440 764 Z " />
<glyph glyph-name="ncaron" unicode="&#x148;" horiz-adv-x="599" d="M463 0 C472 0 477 4 479 13 L520 277 C541 416 495 510 364 510 C278 510 209 451 174 403 C174 404 187 485 187 487 C189 496 185 500 176 500 L115 500 C106 500 101 496 100 487 L25 13 C24 4 27 0 36 0 L97 0 C106 0 111 4 112 13 L151 256 C164 339 239 426 324 426 C416 426 446 359 431 262 L391 13 C390 4 393 0 402 0 L463 0 L463 0 Z M351 553 C363 553 370 559 378 566 L514 692 C522 698 523 704 516 711 L501 735 C499 738 496 740 493 740 C489 740 485 738 480 734 L340 617 L240 733 C237 737 234 739 230 739 C227 739 223 737 220 734 L197 711 C190 704 188 698 193 692 L290 566 C297 558 302 553 313 553 L351 553 L351 553 Z " />
<glyph glyph-name="napostrophe" unicode="&#x149;" horiz-adv-x="742" d="M70 558 C69 551 72 547 81 547 L130 547 C139 547 144 551 145 558 L181 738 C182 746 179 750 171 750 L112 750 C105 750 100 746 99 738 L70 558 Z M608 0 C617 0 622 4 624 13 L665 277 C686 416 640 510 509 510 C423 510 354 451 319 403 C319 404 332 485 332 487 C334 496 330 500 321 500 L260 500 C251 500 246 496 245 487 L170 13 C169 4 172 0 181 0 L242 0 C251 0 256 4 257 13 L296 256 C309 339 384 426 469 426 C561 426 591 359 576 262 L536 13 C535 4 538 0 547 0 L608 0 Z " />
<glyph glyph-name="Omacron" unicode="&#x14c;" horiz-adv-x="788" d="M450 710 C233 710 34 522 34 293 C34 116 167 -10 335 -10 C551 -10 750 178 750 407 C750 584 617 710 450 710 L450 710 Z M349 76 C216 76 123 169 123 302 C123 474 273 624 436 624 C569 624 662 531 662 398 C662 226 512 76 349 76 L349 76 Z M322 835 C321 826 324 821 333 821 L602 821 C611 821 616 826 617 835 L625 882 C626 891 622 895 614 895 L345 895 C336 895 331 891 329 883 L322 835 L322 835 Z " />
<glyph glyph-name="omacron" unicode="&#x14d;" horiz-adv-x="564" d="M12 215 C12 87 98 -10 226 -10 C389 -10 523 123 523 285 C523 413 437 510 309 510 C145 510 12 377 12 215 L12 215 Z M98 221 C98 332 186 426 295 426 C386 426 437 360 437 279 C437 168 349 74 240 74 C149 74 98 140 98 221 L98 221 Z M182 637 C181 628 184 623 193 623 L462 623 C471 623 476 628 477 637 L485 684 C486 693 482 697 474 697 L205 697 C196 697 191 693 189 685 L182 637 L182 637 Z " />
<glyph glyph-name="Obreve" unicode="&#x14e;" horiz-adv-x="788" d="M450 710 C233 710 34 522 34 293 C34 116 167 -10 335 -10 C551 -10 750 178 750 407 C750 584 617 710 450 710 L450 710 Z M349 76 C216 76 123 169 123 302 C123 474 273 624 436 624 C569 624 662 531 662 398 C662 226 512 76 349 76 L349 76 Z M630 904 C630 909 627 913 622 914 L582 922 C575 922 572 920 570 913 C561 870 525 833 462 833 C401 833 376 870 381 913 C382 919 380 922 374 922 C374 922 373 922 372 922 L330 914 C323 913 319 909 319 904 C311 816 368 768 453 768 C541 768 611 816 630 904 L630 904 Z " />
<glyph glyph-name="obreve" unicode="&#x14f;" horiz-adv-x="564" d="M12 215 C12 87 98 -10 226 -10 C389 -10 523 123 523 285 C523 413 437 510 309 510 C145 510 12 377 12 215 L12 215 Z M98 221 C98 332 186 426 295 426 C386 426 437 360 437 279 C437 168 349 74 240 74 C149 74 98 140 98 221 L98 221 Z M494 718 C494 723 491 727 486 728 L446 736 C439 736 436 734 434 727 C425 684 389 647 326 647 C265 647 240 684 245 727 C246 733 244 736 238 736 C238 736 237 736 236 736 L194 728 C187 727 183 723 183 718 C175 630 232 582 317 582 C405 582 475 630 494 718 L494 718 Z " />
<glyph glyph-name="Ohungarumlaut" unicode="&#x150;" horiz-adv-x="788" d="M450 710 C233 710 34 522 34 293 C34 116 167 -10 335 -10 C551 -10 750 178 750 407 C750 584 617 710 450 710 L450 710 Z M349 76 C216 76 123 169 123 302 C123 474 273 624 436 624 C569 624 662 531 662 398 C662 226 512 76 349 76 L349 76 Z M371 761 C374 759 377 759 380 759 C385 759 388 762 391 767 L482 922 C487 929 485 935 476 938 L428 955 C426 955 424 956 423 956 C416 956 411 953 409 947 L332 792 C329 784 331 778 339 774 L371 761 L371 761 Z M543 761 C546 759 549 759 552 759 C557 759 560 762 563 767 L657 921 C660 928 659 934 651 937 L600 955 C598 955 596 956 595 956 C588 956 583 953 581 947 L504 792 C501 784 503 778 511 774 L543 761 L543 761 Z " />
<glyph glyph-name="ohungarumlaut" unicode="&#x151;" horiz-adv-x="564" d="M12 215 C12 87 98 -10 226 -10 C389 -10 523 123 523 285 C523 413 437 510 309 510 C145 510 12 377 12 215 L12 215 Z M98 221 C98 332 186 426 295 426 C386 426 437 360 437 279 C437 168 349 74 240 74 C149 74 98 140 98 221 L98 221 Z M230 551 C233 549 236 549 239 549 C244 549 247 552 250 557 L341 712 C346 719 344 725 335 728 L287 745 C285 745 283 746 282 746 C275 746 270 743 268 737 L191 582 C188 574 190 568 198 564 L230 551 L230 551 Z M402 551 C405 549 408 549 411 549 C416 549 419 552 422 557 L516 711 C519 718 518 724 510 727 L459 745 C457 745 455 746 454 746 C447 746 442 743 440 737 L363 582 C360 574 362 568 370 564 L402 551 L402 551 Z " />
<glyph glyph-name="OE" unicode="&#x152;" horiz-adv-x="1148" d="M347 76 C216 76 124 169 124 302 C124 474 274 624 434 624 C570 624 661 531 661 398 C661 237 511 76 347 76 L347 76 Z M1020 -10 C1031 -10 1037 -5 1038 4 L1047 63 C1048 72 1044 76 1034 76 L552 76 C663 132 720 229 736 307 L1035 307 C1045 307 1051 312 1053 321 L1062 380 C1063 389 1059 394 1049 394 L749 394 C757 489 720 576 637 624 L1121 624 C1131 624 1137 628 1138 637 L1147 696 C1149 705 1145 710 1135 710 L450 710 C233 710 34 522 34 293 C34 116 167 -10 340 -10 L1020 -10 L1020 -10 Z " />
<glyph glyph-name="oe" unicode="&#x153;" horiz-adv-x="966" d="M435 255 C422 154 337 74 239 74 C150 74 98 140 98 221 C98 332 186 426 294 426 C393 426 446 348 435 255 L435 255 Z M457 117 C482 42 553 -10 649 -10 C724 -10 787 10 839 41 C847 46 849 52 846 59 L825 98 C823 102 820 105 815 105 C813 105 809 104 806 102 C761 78 719 66 663 66 C568 66 515 134 515 218 L903 218 C914 218 921 223 922 234 C941 377 878 510 719 510 C630 510 545 465 493 389 C461 464 400 510 308 510 C145 510 12 377 12 215 C12 87 97 -10 225 -10 C324 -10 406 37 457 117 L457 117 Z M524 286 C545 369 615 440 708 440 C796 440 842 383 842 286 L524 286 Z " />
<glyph glyph-name="Racute" unicode="&#x154;" horiz-adv-x="586" d="M333 618 C421 618 476 572 476 496 C476 402 393 328 292 328 L169 328 L214 618 L333 618 L333 618 Z M363 260 C431 276 565 351 565 502 C565 617 477 700 357 700 L152 700 C144 700 139 696 138 687 L30 13 C29 4 33 0 41 0 L104 0 C112 0 117 4 119 13 L156 247 L269 247 L398 13 C403 4 410 0 420 0 L488 0 C499 0 502 5 497 14 L363 260 L363 260 Z M343 760 C345 759 347 759 349 759 C354 759 359 761 362 766 L480 922 C486 929 485 935 477 938 L427 956 C425 957 423 957 421 957 C415 957 411 954 408 948 L306 794 C302 787 303 781 308 777 L343 760 L343 760 Z " />
<glyph glyph-name="racute" unicode="&#x155;" horiz-adv-x="395" d="M115 500 C106 500 101 496 100 487 C73 320 51 180 25 13 C24 4 28 0 36 0 L97 0 C106 0 111 4 112 13 L148 239 C164 343 245 424 312 424 C327 424 342 422 357 417 C360 416 362 416 364 416 C369 416 373 418 375 423 L402 479 C406 488 405 495 399 498 C380 507 353 510 330 510 C263 510 202 452 173 396 L187 487 C189 496 185 500 176 500 L115 500 L115 500 Z M266 553 C268 552 270 552 272 552 C277 552 282 554 285 559 L403 715 C409 722 408 728 400 731 L350 749 C348 750 346 750 344 750 C338 750 334 747 331 741 L229 587 C225 580 226 574 231 570 L266 553 L266 553 Z " />
<glyph glyph-name="uni0156" unicode="&#x156;" horiz-adv-x="586" d="M154 -241 C151 -248 155 -252 162 -252 L212 -252 C222 -252 228 -248 229 -241 L293 -61 C296 -53 294 -49 286 -49 L227 -49 C218 -49 213 -53 211 -61 L154 -241 Z M333 618 C421 618 476 572 476 496 C476 402 393 328 292 328 L169 328 L214 618 L333 618 Z M363 260 C431 276 565 351 565 502 C565 617 477 700 357 700 L152 700 C144 700 139 696 138 687 L30 13 C29 4 33 0 41 0 L104 0 C112 0 117 4 119 13 L156 247 L269 247 L398 13 C403 4 410 0 420 0 L488 0 C499 0 502 5 497 14 L363 260 Z " />
<glyph glyph-name="uni0157" unicode="&#x157;" horiz-adv-x="399" d="M-35 -241 C-38 -248 -35 -252 -27 -252 L22 -252 C31 -252 37 -248 40 -241 L104 -61 C106 -53 103 -49 96 -49 L37 -49 C28 -49 23 -53 21 -61 L-35 -241 Z M120 500 C111 500 106 496 105 487 C78 320 56 180 30 13 C29 4 33 0 41 0 L102 0 C111 0 116 4 117 13 L153 239 C169 343 250 424 317 424 C332 424 347 422 362 417 C365 416 367 416 369 416 C374 416 378 418 380 423 L407 479 C411 488 410 495 404 498 C385 507 358 510 335 510 C268 510 207 452 178 396 L192 487 C194 496 190 500 181 500 L120 500 Z " />
<glyph glyph-name="Rcaron" unicode="&#x158;" horiz-adv-x="587" d="M333 618 C421 618 476 572 476 496 C476 402 393 328 292 328 L169 328 L214 618 L333 618 L333 618 Z M363 260 C431 276 565 351 565 502 C565 617 477 700 357 700 L152 700 C144 700 139 696 138 687 L30 13 C29 4 33 0 41 0 L104 0 C112 0 117 4 119 13 L156 247 L269 247 L398 13 C403 4 410 0 420 0 L488 0 C499 0 502 5 497 14 L363 260 L363 260 Z M381 764 C393 764 400 770 408 777 L544 903 C552 909 553 915 546 922 L531 946 C529 949 526 951 523 951 C519 951 515 949 510 945 L370 828 L270 944 C267 948 264 950 260 950 C257 950 253 948 250 945 L227 922 C220 915 218 909 223 903 L320 777 C327 769 332 764 343 764 L381 764 L381 764 Z " />
<glyph glyph-name="rcaron" unicode="&#x159;" horiz-adv-x="399" d="M115 500 C106 500 101 496 100 487 C73 320 51 180 25 13 C24 4 28 0 36 0 L97 0 C106 0 111 4 112 13 L148 239 C164 343 245 424 312 424 C327 424 342 422 357 417 C360 416 362 416 364 416 C369 416 373 418 375 423 L402 479 C406 488 405 495 399 498 C380 507 353 510 330 510 C263 510 202 452 173 396 L187 487 C189 496 185 500 176 500 L115 500 L115 500 Z M279 560 C291 560 298 566 306 573 L442 699 C450 705 451 711 444 718 L429 742 C427 745 424 747 421 747 C417 747 413 745 408 741 L268 624 L168 740 C165 744 162 746 158 746 C155 746 151 744 148 741 L125 718 C118 711 116 705 121 699 L218 573 C225 565 230 560 241 560 L279 560 L279 560 Z " />
<glyph glyph-name="Sacute" unicode="&#x15a;" horiz-adv-x="549" d="M518 633 C525 642 524 648 517 652 C456 692 397 710 325 710 C197 710 88 634 88 516 C88 296 389 358 389 202 C389 136 338 76 234 76 C174 76 112 99 65 142 C62 145 59 146 56 146 C52 146 48 144 45 139 L6 92 C0 84 0 78 7 73 C64 20 140 -10 228 -10 C390 -10 479 99 479 209 C479 438 177 377 177 520 C177 583 240 624 315 624 C371 624 406 610 457 581 C460 579 463 578 466 578 C471 578 475 580 478 584 L518 633 Z M348 759 C350 758 352 758 354 758 C359 758 364 760 367 765 L485 921 C491 928 490 934 482 937 L432 955 C430 956 428 956 426 956 C420 956 416 953 413 947 L311 793 C307 786 308 780 313 776 L348 759 L348 759 Z " />
<glyph glyph-name="sacute" unicode="&#x15b;" horiz-adv-x="428" d="M49 115 C46 118 42 120 39 120 C35 120 32 118 28 115 L-8 83 C-15 76 -19 69 -12 62 C25 17 92 -10 163 -10 C284 -10 363 63 363 155 C363 327 128 278 128 365 C128 412 183 433 230 433 C267 433 294 424 329 399 C333 397 336 395 339 395 C342 395 346 397 350 400 L388 436 C395 443 395 449 390 454 C359 485 302 510 235 510 C136 510 46 448 46 360 C46 198 280 244 280 144 C280 97 235 66 167 66 C116 66 80 84 49 115 L49 115 Z M256 553 C258 552 260 552 262 552 C267 552 272 554 275 559 L393 715 C399 722 398 728 390 731 L340 749 C338 750 336 750 334 750 C328 750 324 747 321 741 L219 587 C215 580 216 574 221 570 L256 553 L256 553 Z " />
<glyph glyph-name="Scircumflex" unicode="&#x15c;" horiz-adv-x="550" d="M518 633 C525 642 524 648 517 652 C456 692 397 710 325 710 C197 710 88 634 88 516 C88 296 389 358 389 202 C389 136 338 76 234 76 C174 76 112 99 65 142 C62 145 59 146 56 146 C52 146 48 144 45 139 L6 92 C0 84 0 78 7 73 C64 20 140 -10 228 -10 C390 -10 479 99 479 209 C479 438 177 377 177 520 C177 583 240 624 315 624 C371 624 406 610 457 581 C460 579 463 578 466 578 C471 578 475 580 478 584 L518 633 Z M358 940 C348 940 339 936 330 927 L194 801 C187 794 187 788 192 782 L208 758 C211 755 214 753 218 753 C221 753 225 755 229 758 L369 874 L469 760 C472 756 475 754 479 754 C482 754 486 756 489 759 L512 782 C520 789 521 795 516 801 L419 927 C414 934 408 940 396 940 L358 940 L358 940 Z " />
<glyph glyph-name="scircumflex" unicode="&#x15d;" horiz-adv-x="448" d="M49 115 C46 118 42 120 39 120 C35 120 32 118 28 115 L-8 83 C-15 76 -19 69 -12 62 C25 17 92 -10 163 -10 C284 -10 363 63 363 155 C363 327 128 278 128 365 C128 412 183 433 230 433 C267 433 294 424 329 399 C333 397 336 395 339 395 C342 395 346 397 350 400 L388 436 C395 443 395 449 390 454 C359 485 302 510 235 510 C136 510 46 448 46 360 C46 198 280 244 280 144 C280 97 235 66 167 66 C116 66 80 84 49 115 L49 115 Z M263 745 C253 745 244 741 235 732 L99 606 C92 599 92 593 97 587 L113 563 C116 560 119 558 123 558 C126 558 130 560 134 563 L274 679 L374 565 C377 561 380 559 384 559 C387 559 391 561 394 564 L417 587 C425 594 426 600 421 606 L324 732 C319 739 313 745 301 745 L263 745 L263 745 Z " />
<glyph glyph-name="Scedilla" unicode="&#x15e;" horiz-adv-x="549" d="M137 -165 C134 -172 137 -176 146 -176 L201 -176 C210 -176 216 -172 219 -165 L271 -6 C399 7 479 105 479 209 C479 438 177 377 177 520 C177 583 244 624 313 624 C377 624 420 604 457 581 C460 579 463 578 466 578 C471 578 475 580 478 584 L518 633 C525 642 524 648 517 652 C457 691 396 710 324 710 C196 710 88 632 88 516 C88 296 389 358 389 202 C389 141 343 76 229 76 C168 76 105 103 65 142 C62 144 59 145 56 145 C52 145 49 143 45 139 L6 92 C-1 84 2 77 7 73 C54 30 113 -1 201 -8 L137 -165 L137 -165 Z " />
<glyph glyph-name="scedilla" unicode="&#x15f;" horiz-adv-x="431" d="M210 -6 C295 7 363 71 363 155 C363 327 128 278 128 365 C128 412 183 433 230 433 C267 433 294 424 329 399 C333 397 336 395 340 395 C343 395 346 397 350 400 L388 436 C395 443 395 449 390 454 C359 485 302 510 235 510 C136 510 46 448 46 360 C46 198 280 244 280 144 C280 97 235 66 167 66 C116 66 80 84 49 115 C46 119 42 120 39 120 C35 120 32 119 28 115 L-8 83 C-16 76 -17 69 -12 62 C19 26 71 -4 142 -9 L79 -165 C76 -172 80 -176 87 -176 L140 -176 C150 -176 156 -172 157 -165 L210 -6 L210 -6 Z " />
<glyph glyph-name="Scaron" unicode="&#x160;" horiz-adv-x="563" d="M518 633 C525 642 524 648 517 652 C456 692 397 710 325 710 C197 710 88 634 88 516 C88 296 389 358 389 202 C389 136 338 76 234 76 C174 76 112 99 65 142 C62 145 59 146 56 146 C52 146 48 144 45 139 L6 92 C0 84 0 78 7 73 C64 20 140 -10 228 -10 C390 -10 479 99 479 209 C479 438 177 377 177 520 C177 583 240 624 315 624 C371 624 406 610 457 581 C460 579 463 578 466 578 C471 578 475 580 478 584 L518 633 Z M367 764 C379 764 386 770 394 777 L530 903 C538 909 539 915 532 922 L517 946 C515 949 512 951 509 951 C505 951 501 949 496 945 L356 828 L256 944 C253 948 250 950 246 950 C243 950 239 948 236 945 L213 922 C206 915 204 909 209 903 L306 777 C313 769 318 764 329 764 L367 764 L367 764 Z " />
<glyph glyph-name="scaron" unicode="&#x161;" horiz-adv-x="432" d="M49 115 C46 118 42 120 39 120 C35 120 32 118 28 115 L-8 83 C-15 76 -19 69 -12 62 C25 17 92 -10 163 -10 C284 -10 363 63 363 155 C363 327 128 278 128 365 C128 412 183 433 230 433 C267 433 294 424 329 399 C333 397 336 395 339 395 C342 395 346 397 350 400 L388 436 C395 443 395 449 390 454 C359 485 302 510 235 510 C136 510 46 448 46 360 C46 198 280 244 280 144 C280 97 235 66 167 66 C116 66 80 84 49 115 L49 115 Z M275 558 C287 558 294 564 302 571 L438 697 C446 703 447 709 440 716 L425 740 C423 743 420 745 417 745 C413 745 409 743 404 739 L264 622 L164 738 C161 742 158 744 154 744 C151 744 147 742 144 739 L121 716 C114 709 112 703 117 697 L214 571 C221 563 226 558 237 558 L275 558 L275 558 Z " />
<glyph glyph-name="uni0162" unicode="&#x162;" horiz-adv-x="528" d="M98 -241 C95 -248 98 -252 106 -252 L155 -252 C164 -252 170 -248 173 -241 L237 -61 C239 -53 236 -49 229 -49 L170 -49 C162 -49 157 -53 155 -61 L98 -241 Z M237 0 C246 0 251 4 252 13 L348 613 L548 613 C557 613 562 617 564 626 L574 687 C575 696 571 700 562 700 L64 700 C55 700 50 696 49 687 L39 626 C37 617 41 613 50 613 L259 613 L164 13 C162 4 166 0 175 0 L237 0 Z " />
<glyph glyph-name="uni0163" unicode="&#x163;" horiz-adv-x="357" d="M42 -241 C39 -248 42 -252 50 -252 L99 -252 C108 -252 114 -248 117 -241 L181 -61 C183 -53 180 -49 173 -49 L114 -49 C105 -49 100 -53 98 -61 L42 -241 Z M267 86 C265 90 263 92 259 92 C258 92 256 91 253 90 C230 79 213 74 190 74 C155 74 131 91 138 130 L184 419 L311 419 C319 419 324 423 325 432 L334 487 C335 496 331 500 322 500 L197 500 L218 635 C219 644 216 648 207 648 L146 648 C137 648 132 644 130 635 L109 500 L55 500 C47 500 42 496 40 487 L31 432 C30 423 34 419 43 419 L97 419 L49 121 C36 41 83 -10 167 -10 C202 -10 238 0 274 17 C281 22 284 27 282 34 L267 86 Z " />
<glyph glyph-name="Tcaron" unicode="&#x164;" horiz-adv-x="528" d="M237 0 C246 0 251 4 252 13 L348 613 L548 613 C557 613 562 617 564 626 L574 687 C575 696 571 700 562 700 L64 700 C55 700 50 696 49 687 L39 626 C37 617 41 613 50 613 L259 613 L164 13 C162 4 166 0 175 0 L237 0 L237 0 Z M343 764 C355 764 362 770 370 777 L506 903 C514 909 515 915 508 922 L493 946 C491 949 488 951 485 951 C481 951 477 949 472 945 L332 828 L232 944 C229 948 226 950 222 950 C219 950 215 948 212 945 L189 922 C182 915 180 909 185 903 L282 777 C289 769 294 764 305 764 L343 764 L343 764 Z " />
<glyph glyph-name="tcaron" unicode="&#x165;" horiz-adv-x="400" d="M291 574 C290 567 295 562 302 562 L351 562 C360 562 365 566 366 573 L402 754 C403 762 400 766 392 766 L333 766 C325 766 320 762 319 753 L291 574 Z M267 86 C265 90 263 92 259 92 C258 92 256 91 253 90 C230 79 213 74 190 74 C155 74 131 91 138 130 L184 419 L311 419 C319 419 324 423 325 432 L334 487 C335 496 331 500 322 500 L197 500 L218 635 C219 644 216 648 207 648 L146 648 C137 648 132 644 130 635 L109 500 L55 500 C47 500 42 496 40 487 L31 432 C30 423 34 419 43 419 L97 419 L49 121 C36 41 83 -10 167 -10 C202 -10 238 0 274 17 C281 22 284 27 282 34 L267 86 Z " />
<glyph glyph-name="Tbar" unicode="&#x166;" horiz-adv-x="541" d="M177 13 C176 4 180 0 189 0 L251 0 C259 0 264 4 266 13 L310 288 L482 288 C491 288 496 292 497 301 L507 362 C508 371 505 375 496 375 L323 375 L361 613 L561 613 C570 613 576 617 577 626 L587 687 C588 696 584 700 575 700 L77 700 C68 700 63 696 62 687 L52 626 C51 617 54 613 63 613 L272 613 L234 375 L64 375 C55 375 50 371 49 362 L39 301 C37 292 41 288 50 288 L221 288 L177 13 Z " />
<glyph glyph-name="tbar" unicode="&#x167;" horiz-adv-x="365" d="M248 252 C257 252 262 256 263 265 L266 285 C267 294 264 298 255 298 L172 298 L192 419 L318 419 C325 419 330 423 333 432 L342 487 C343 496 339 500 330 500 L204 500 L226 635 C227 644 224 648 215 648 L154 648 C145 648 140 644 138 635 L117 500 L63 500 C54 500 49 496 48 487 L39 432 C38 423 42 419 51 419 L105 419 L85 298 L49 298 C41 298 36 294 34 285 L31 265 C30 256 34 252 42 252 L78 252 L57 121 C45 41 91 -10 175 -10 C212 -10 242 -2 281 17 C289 22 292 27 290 34 L275 86 C273 90 271 92 267 92 C266 92 264 91 261 90 C238 79 222 74 198 74 C163 74 139 91 146 130 L165 252 L248 252 Z " />
<glyph glyph-name="Utilde" unicode="&#x168;" horiz-adv-x="656" d="M129 700 C120 700 115 696 113 687 L47 266 C23 119 96 -10 274 -10 C442 -10 552 113 576 266 L642 687 C644 696 641 700 632 700 L570 700 C560 700 555 696 554 687 L490 280 C469 158 398 76 281 76 C168 76 116 158 137 280 L201 687 C203 696 200 700 191 700 L129 700 L129 700 Z M475 863 C430 863 415 926 351 926 C316 926 269 900 232 868 C223 861 222 857 222 848 L219 807 C220 801 222 798 225 798 C227 798 230 799 233 802 C262 828 305 860 334 860 C383 860 394 797 459 797 C492 797 541 824 578 855 C586 862 587 866 587 875 L590 917 C590 922 588 925 584 925 C582 925 579 924 576 921 C547 894 506 863 475 863 L475 863 Z " />
<glyph glyph-name="utilde" unicode="&#x169;" horiz-adv-x="585" d="M92 500 C83 500 78 496 77 487 L35 223 C14 84 62 -10 191 -10 C278 -10 345 48 382 100 C383 99 367 15 368 13 C366 4 370 0 379 0 L440 0 C449 0 454 4 455 13 L530 487 C532 496 528 500 519 500 L458 500 C449 500 444 496 443 487 L404 244 C391 161 317 74 231 74 C139 74 109 139 124 238 L164 487 C165 496 162 500 153 500 L92 500 L92 500 Z M402 671 C357 671 342 734 278 734 C243 734 196 708 159 676 C150 669 149 665 149 656 L146 615 C147 609 149 606 152 606 C154 606 157 607 160 610 C189 636 232 668 261 668 C310 668 321 605 386 605 C419 605 468 632 505 663 C513 670 514 674 514 683 L517 725 C517 730 515 733 511 733 C509 733 506 732 503 729 C474 702 433 671 402 671 L402 671 Z " />
<glyph glyph-name="Umacron" unicode="&#x16a;" horiz-adv-x="656" d="M129 700 C120 700 115 696 113 687 L47 266 C23 119 96 -10 274 -10 C442 -10 552 113 576 266 L642 687 C644 696 641 700 632 700 L570 700 C560 700 555 696 554 687 L490 280 C469 158 398 76 281 76 C168 76 116 158 137 280 L201 687 C203 696 200 700 191 700 L129 700 L129 700 Z M252 835 C251 826 254 821 263 821 L532 821 C541 821 546 826 547 835 L555 882 C556 891 552 895 544 895 L275 895 C266 895 261 891 259 883 L252 835 L252 835 Z " />
<glyph glyph-name="umacron" unicode="&#x16b;" horiz-adv-x="582" d="M92 500 C83 500 78 496 77 487 L35 223 C14 84 62 -10 191 -10 C278 -10 345 48 382 100 C383 99 367 15 368 13 C366 4 370 0 379 0 L440 0 C449 0 454 4 455 13 L530 487 C532 496 528 500 519 500 L458 500 C449 500 444 496 443 487 L404 244 C391 161 317 74 231 74 C139 74 109 139 124 238 L164 487 C165 496 162 500 153 500 L92 500 L92 500 Z M173 637 C172 628 175 623 184 623 L453 623 C462 623 467 628 468 637 L476 684 C477 693 473 697 465 697 L196 697 C187 697 182 693 180 685 L173 637 L173 637 Z " />
<glyph glyph-name="Ubreve" unicode="&#x16c;" horiz-adv-x="656" d="M129 700 C120 700 115 696 113 687 L47 266 C23 119 96 -10 274 -10 C442 -10 552 113 576 266 L642 687 C644 696 641 700 632 700 L570 700 C560 700 555 696 554 687 L490 280 C469 158 398 76 281 76 C168 76 116 158 137 280 L201 687 C203 696 200 700 191 700 L129 700 L129 700 Z M559 904 C559 909 556 913 551 914 L511 922 C504 922 501 920 499 913 C490 870 454 833 391 833 C330 833 305 870 310 913 C311 919 309 922 303 922 C303 922 302 922 301 922 L259 914 C252 913 248 909 248 904 C240 816 297 768 382 768 C470 768 540 816 559 904 L559 904 Z " />
<glyph glyph-name="ubreve" unicode="&#x16d;" horiz-adv-x="582" d="M92 500 C83 500 78 496 77 487 L35 223 C14 84 62 -10 191 -10 C278 -10 345 48 382 100 C383 99 367 15 368 13 C366 4 370 0 379 0 L440 0 C449 0 454 4 455 13 L530 487 C532 496 528 500 519 500 L458 500 C449 500 444 496 443 487 L404 244 C391 161 317 74 231 74 C139 74 109 139 124 238 L164 487 C165 496 162 500 153 500 L92 500 L92 500 Z M485 705 C485 710 482 714 477 715 L437 723 C430 723 427 721 425 714 C416 671 380 634 317 634 C256 634 231 671 236 714 C237 720 235 723 229 723 C229 723 228 723 227 723 L185 715 C178 714 174 710 174 705 C166 617 223 569 308 569 C396 569 466 617 485 705 L485 705 Z " />
<glyph glyph-name="Uring" unicode="&#x16e;" horiz-adv-x="656" d="M129 700 C120 700 115 696 113 687 L47 266 C23 119 96 -10 274 -10 C442 -10 552 113 576 266 L642 687 C644 696 641 700 632 700 L570 700 C560 700 555 696 554 687 L490 280 C469 158 398 76 281 76 C168 76 116 158 137 280 L201 687 C203 696 200 700 191 700 L129 700 L129 700 Z M274 861 C274 800 326 748 387 748 C448 748 499 800 499 861 C499 922 448 973 387 973 C326 973 274 922 274 861 L274 861 Z M332 861 C332 892 356 916 387 916 C418 916 442 892 442 861 C442 830 418 806 387 806 C356 806 332 830 332 861 L332 861 Z " />
<glyph glyph-name="uring" unicode="&#x16f;" horiz-adv-x="582" d="M92 500 C83 500 78 496 77 487 L35 223 C14 84 62 -10 191 -10 C278 -10 345 48 382 100 C383 99 367 15 368 13 C366 4 370 0 379 0 L440 0 C449 0 454 4 455 13 L530 487 C532 496 528 500 519 500 L458 500 C449 500 444 496 443 487 L404 244 C391 161 317 74 231 74 C139 74 109 139 124 238 L164 487 C165 496 162 500 153 500 L92 500 L92 500 Z M206 669 C206 608 258 556 319 556 C380 556 431 608 431 669 C431 730 380 781 319 781 C258 781 206 730 206 669 L206 669 Z M264 669 C264 700 288 724 319 724 C350 724 374 700 374 669 C374 638 350 614 319 614 C288 614 264 638 264 669 L264 669 Z " />
<glyph glyph-name="Uhungarumlaut" unicode="&#x170;" horiz-adv-x="656" d="M129 700 C120 700 115 696 113 687 L47 266 C23 119 96 -10 274 -10 C442 -10 552 113 576 266 L642 687 C644 696 641 700 632 700 L570 700 C560 700 555 696 554 687 L490 280 C469 158 398 76 281 76 C168 76 116 158 137 280 L201 687 C203 696 200 700 191 700 L129 700 L129 700 Z M298 761 C301 759 304 759 307 759 C312 759 315 762 318 767 L409 922 C414 929 412 935 403 938 L355 955 C353 955 351 956 350 956 C343 956 338 953 336 947 L259 792 C256 784 258 778 266 774 L298 761 L298 761 Z M470 761 C473 759 476 759 479 759 C484 759 487 762 490 767 L584 921 C587 928 586 934 578 937 L527 955 C525 955 523 956 522 956 C515 956 510 953 508 947 L431 792 C428 784 430 778 438 774 L470 761 L470 761 Z " />
<glyph glyph-name="uhungarumlaut" unicode="&#x171;" horiz-adv-x="582" d="M92 500 C83 500 78 496 77 487 L35 223 C14 84 62 -10 191 -10 C278 -10 345 48 382 100 C383 99 367 15 368 13 C366 4 370 0 379 0 L440 0 C449 0 454 4 455 13 L530 487 C532 496 528 500 519 500 L458 500 C449 500 444 496 443 487 L404 244 C391 161 317 74 231 74 C139 74 109 139 124 238 L164 487 C165 496 162 500 153 500 L92 500 L92 500 Z M223 539 C226 537 229 537 232 537 C237 537 240 540 243 545 L334 700 C339 707 337 713 328 716 L280 733 C278 733 276 734 275 734 C268 734 263 731 261 725 L184 570 C181 562 183 556 191 552 L223 539 L223 539 Z M395 539 C398 537 401 537 404 537 C409 537 412 540 415 545 L509 699 C512 706 511 712 503 715 L452 733 C450 733 448 734 447 734 C440 734 435 731 433 725 L356 570 C353 562 355 556 363 552 L395 539 L395 539 Z " />
<glyph glyph-name="Uogonek" unicode="&#x172;" horiz-adv-x="657" d="M239 -8 C153 -81 176 -195 289 -195 C299 -195 310 -194 322 -192 C329 -191 333 -187 334 -180 L340 -139 C341 -133 338 -131 333 -131 C332 -131 331 -131 330 -131 C322 -133 314 -133 307 -133 C235 -133 242 -50 298 -9 C467 4 555 132 576 266 L643 687 C645 696 641 700 632 700 L570 700 C561 700 556 696 555 687 L490 280 C469 153 395 76 282 76 C169 76 118 155 138 280 L202 687 C204 696 200 700 191 700 L129 700 C120 700 115 696 114 687 L47 266 C23 117 101 5 239 -8 L239 -8 Z " />
<glyph glyph-name="uogonek" unicode="&#x173;" horiz-adv-x="582" d="M367 11 C366 4 368 0 374 0 L387 0 C293 -68 307 -195 424 -195 C435 -195 447 -194 459 -192 C466 -191 469 -187 470 -180 L475 -139 C476 -133 474 -131 469 -131 C468 -131 467 -131 466 -131 C458 -133 451 -133 444 -133 C370 -133 377 -41 446 0 C451 0 454 4 455 13 L530 486 C531 495 527 500 518 500 L457 500 C449 500 444 496 442 487 L404 244 C391 159 315 74 230 74 C139 74 108 143 124 238 L163 487 C165 496 161 500 152 500 L91 500 C83 500 78 496 76 487 L35 223 C11 84 63 -10 191 -10 C279 -10 346 49 381 100 L367 11 L367 11 Z " />
<glyph glyph-name="Wcircumflex" unicode="&#x174;" horiz-adv-x="914" d="M646 0 C655 0 662 5 666 14 L944 686 C947 695 948 700 937 700 L868 700 C859 700 852 695 848 686 L624 141 L560 689 C559 696 555 700 547 700 L473 700 C464 700 458 696 455 689 L218 141 L167 686 C166 695 163 700 152 700 L84 700 C75 700 71 695 72 686 L138 14 C139 5 144 0 154 0 L231 0 C242 0 249 5 252 14 L489 564 L552 14 C553 5 558 0 569 0 L646 0 L646 0 Z M527 940 C517 940 508 936 499 927 L363 801 C356 794 356 788 361 782 L377 758 C380 755 383 753 387 753 C390 753 394 755 398 758 L538 874 L638 760 C641 756 644 754 648 754 C651 754 655 756 658 759 L681 782 C689 789 690 795 685 801 L588 927 C583 934 577 940 565 940 L527 940 L527 940 Z " />
<glyph glyph-name="wcircumflex" unicode="&#x175;" horiz-adv-x="683" d="M119 487 C118 496 113 500 105 500 L43 500 C35 500 32 496 33 487 L73 16 C74 5 80 0 89 0 L167 0 C178 0 184 7 189 16 L345 390 L383 16 C386 7 388 0 399 0 L476 0 C485 0 492 5 497 16 L687 487 C691 496 689 500 680 500 L618 500 C610 500 604 496 601 487 L452 120 L409 485 C408 495 403 500 394 500 L328 500 C319 500 312 495 309 485 L230 302 C192 211 152 124 151 120 L119 487 L119 487 Z M381 729 C371 729 362 725 353 716 L217 590 C210 583 210 577 215 571 L231 547 C234 544 237 542 241 542 C244 542 248 544 252 547 L392 663 L492 549 C495 545 498 543 502 543 C505 543 509 545 512 548 L535 571 C543 578 544 584 539 590 L442 716 C437 723 431 729 419 729 L381 729 L381 729 Z " />
<glyph glyph-name="Ycircumflex" unicode="&#x176;" horiz-adv-x="550" d="M153 692 C151 697 146 700 139 700 L68 700 C58 700 55 696 60 687 L227 342 L174 13 C174 4 178 0 186 0 L248 0 C257 0 262 4 263 13 L316 342 L591 687 C596 694 595 700 586 700 L512 700 C505 700 500 697 495 692 L281 424 L153 692 L153 692 Z M347 940 C337 940 328 936 319 927 L183 801 C176 794 176 788 181 782 L197 758 C200 755 203 753 207 753 C210 753 214 755 218 758 L358 874 L458 760 C461 756 464 754 468 754 C471 754 475 756 478 759 L501 782 C509 789 510 795 505 801 L408 927 C403 934 397 940 385 940 L347 940 L347 940 Z " />
<glyph glyph-name="ycircumflex" unicode="&#x177;" horiz-adv-x="586" d="M534 487 C536 496 532 500 523 500 L462 500 C453 500 448 496 447 487 L408 245 C394 172 323 84 237 84 C145 84 115 149 130 248 L168 487 C169 496 166 500 157 500 L95 500 C87 500 82 496 81 487 L40 233 C19 94 66 0 197 0 C280 0 357 57 387 106 L371 7 C355 -89 290 -171 181 -171 C120 -171 72 -146 48 -103 C46 -101 43 -99 41 -99 C38 -99 35 -101 31 -104 L-9 -147 C-15 -153 -16 -159 -11 -165 C21 -216 89 -255 172 -255 C335 -255 435 -140 459 15 L534 487 L534 487 Z M328 745 C318 745 309 741 300 732 L164 606 C157 599 157 593 162 587 L178 563 C181 560 184 558 188 558 C191 558 195 560 199 563 L339 679 L439 565 C442 561 445 559 449 559 C452 559 456 561 459 564 L482 587 C490 594 491 600 486 606 L389 732 C384 739 378 745 366 745 L328 745 L328 745 Z " />
<glyph glyph-name="Ydieresis" unicode="&#x178;" horiz-adv-x="550" d="M153 692 C151 697 146 700 139 700 L68 700 C58 700 55 696 60 687 L227 342 L174 13 C174 4 178 0 186 0 L248 0 C257 0 262 4 263 13 L316 342 L591 687 C596 694 595 700 586 700 L512 700 C505 700 500 697 495 692 L281 424 L153 692 L153 692 Z M187 836 C187 805 209 782 240 782 C271 782 295 805 295 836 C295 867 271 890 240 890 C209 890 187 867 187 836 L187 836 Z M394 836 C394 805 416 782 447 782 C478 782 502 805 502 836 C502 867 478 890 447 890 C416 890 394 867 394 836 L394 836 Z " />
<glyph glyph-name="Zacute" unicode="&#x179;" horiz-adv-x="609" d="M-10 13 C-11 4 -7 0 0 0 L496 0 C505 0 510 4 511 13 L521 74 C522 83 519 87 510 87 L119 87 L590 616 C594 621 596 623 597 634 L606 687 C607 696 603 700 595 700 L124 700 C115 700 110 696 109 687 L99 626 C98 617 101 613 110 613 L477 615 L11 89 C4 82 0 72 -3 61 L-10 13 L-10 13 Z M359 760 C361 759 363 759 365 759 C370 759 375 761 378 766 L496 922 C502 929 501 935 493 938 L443 956 C441 957 439 957 437 957 C431 957 427 954 424 948 L322 794 C318 787 319 781 324 777 L359 760 L359 760 Z " />
<glyph glyph-name="zacute" unicode="&#x17a;" horiz-adv-x="469" d="M-18 13 C-19 4 -15 0 -7 0 L361 0 C369 0 374 4 376 13 L384 67 C386 76 382 80 373 80 L108 80 L416 424 C424 433 428 440 431 455 L436 487 C438 496 434 500 425 500 L86 500 C78 500 73 496 71 487 L63 433 C61 424 65 420 74 420 L310 420 L3 76 C-5 68 -11 61 -12 49 L-18 13 L-18 13 Z M263 553 C265 552 267 552 269 552 C274 552 279 554 282 559 L400 715 C406 722 405 728 397 731 L347 749 C345 750 343 750 341 750 C335 750 331 747 328 741 L226 587 C222 580 223 574 228 570 L263 553 L263 553 Z " />
<glyph glyph-name="Zdotaccent" unicode="&#x17b;" horiz-adv-x="609" d="M-10 13 C-11 4 -7 0 0 0 L496 0 C505 0 510 4 511 13 L521 74 C522 83 519 87 510 87 L119 87 L590 616 C594 621 596 623 597 634 L606 687 C607 696 603 700 595 700 L124 700 C115 700 110 696 109 687 L99 626 C98 617 101 613 110 613 L477 615 L11 89 C4 82 0 72 -3 61 L-10 13 L-10 13 Z M319 886 C319 855 342 832 373 832 C404 832 427 855 427 886 C427 917 404 941 373 941 C342 941 319 917 319 886 L319 886 Z " />
<glyph glyph-name="zdotaccent" unicode="&#x17c;" horiz-adv-x="469" d="M-18 13 C-19 4 -15 0 -7 0 L361 0 C369 0 374 4 376 13 L384 67 C386 76 382 80 373 80 L108 80 L416 424 C424 433 428 440 431 455 L436 487 C438 496 434 500 425 500 L86 500 C78 500 73 496 71 487 L63 433 C61 424 65 420 74 420 L310 420 L3 76 C-5 68 -11 61 -12 49 L-18 13 L-18 13 Z M214 673 C214 642 237 619 268 619 C299 619 322 642 322 673 C322 704 299 728 268 728 C237 728 214 704 214 673 L214 673 Z " />
<glyph glyph-name="Zcaron" unicode="&#x17d;" horiz-adv-x="609" d="M-10 13 C-11 4 -7 0 0 0 L496 0 C505 0 510 4 511 13 L521 74 C522 83 519 87 510 87 L119 87 L590 616 C594 621 596 623 597 634 L606 687 C607 696 603 700 595 700 L124 700 C115 700 110 696 109 687 L99 626 C98 617 101 613 110 613 L477 615 L11 89 C4 82 0 72 -3 61 L-10 13 L-10 13 Z M386 764 C398 764 405 770 413 777 L549 903 C557 909 558 915 551 922 L536 946 C534 949 531 951 528 951 C524 951 520 949 515 945 L375 828 L275 944 C272 948 269 950 265 950 C262 950 258 948 255 945 L232 922 C225 915 223 909 228 903 L325 777 C332 769 337 764 348 764 L386 764 L386 764 Z " />
<glyph glyph-name="zcaron" unicode="&#x17e;" horiz-adv-x="477" d="M-18 13 C-19 4 -15 0 -7 0 L361 0 C369 0 374 4 376 13 L384 67 C386 76 382 80 373 80 L108 80 L416 424 C424 433 428 440 431 455 L436 487 C438 496 434 500 425 500 L86 500 C78 500 73 496 71 487 L63 433 C61 424 65 420 74 420 L310 420 L3 76 C-5 68 -11 61 -12 49 L-18 13 L-18 13 Z M282 553 C294 553 301 559 309 566 L445 692 C453 698 454 704 447 711 L432 735 C430 738 427 740 424 740 C420 740 416 738 411 734 L271 617 L171 733 C168 737 165 739 161 739 C158 739 154 737 151 734 L128 711 C121 704 119 698 124 692 L221 566 C228 558 233 553 244 553 L282 553 L282 553 Z " />
<glyph glyph-name="longs" unicode="&#x17f;" horiz-adv-x="339" d="M218 590 C229 659 265 675 300 675 C323 675 339 670 359 661 C361 660 363 659 365 659 C367 659 370 661 372 664 L406 710 C411 717 412 720 405 727 C372 750 333 759 293 759 C209 759 150 712 134 608 L117 500 L51 500 C42 500 37 496 35 487 L27 432 C26 423 29 419 37 419 L104 419 L40 13 C38 4 41 0 50 0 L111 0 C120 0 125 4 127 13 L218 590 L218 590 Z " />
<glyph glyph-name="florin" unicode="&#x192;" horiz-adv-x="447" d="M126 110 C111 56 95 5 31 5 C15 5 -2 8 -20 13 C-22 13 -23 14 -25 14 C-31 14 -35 10 -37 4 L-46 -30 C-48 -38 -45 -43 -36 -46 C-9 -55 19 -61 46 -61 C135 -61 170 -2 192 78 L294 465 L419 465 C428 465 433 470 433 479 L433 512 C432 521 427 525 418 525 L309 525 L329 602 C344 656 360 709 425 709 C441 709 457 705 475 700 C477 699 479 699 481 699 C487 699 491 702 492 709 L500 743 C502 751 499 756 490 759 C465 768 435 774 407 774 C318 774 285 714 263 635 L235 525 L151 525 C142 525 137 520 137 510 L137 479 C137 470 142 465 151 465 L219 465 L126 110 Z " />
<glyph glyph-name="uni0218" unicode="&#x218;" horiz-adv-x="549" d="M132 -241 C129 -248 133 -252 140 -252 L190 -252 C200 -252 206 -248 207 -241 L271 -61 C274 -53 272 -49 264 -49 L205 -49 C196 -49 191 -53 189 -61 L132 -241 Z M518 633 C525 642 524 648 517 652 C456 692 397 710 325 710 C197 710 88 634 88 516 C88 296 389 358 389 202 C389 136 338 76 234 76 C174 76 112 99 65 142 C62 145 59 146 56 146 C52 146 48 144 45 139 L6 92 C0 84 0 78 7 73 C64 20 140 -10 228 -10 C390 -10 479 99 479 209 C479 438 177 377 177 520 C177 583 240 624 315 624 C371 624 406 610 457 581 C460 579 463 578 466 578 C471 578 475 580 478 584 L518 633 Z " />
<glyph glyph-name="uni0219" unicode="&#x219;" horiz-adv-x="427" d="M68 -241 C65 -248 68 -252 76 -252 L125 -252 C134 -252 140 -248 143 -241 L207 -61 C209 -53 206 -49 199 -49 L140 -49 C131 -49 126 -53 124 -61 L68 -241 Z M49 115 C46 118 42 120 39 120 C35 120 32 118 28 115 L-8 83 C-15 76 -19 69 -12 62 C25 17 92 -10 163 -10 C284 -10 363 63 363 155 C363 327 128 278 128 365 C128 412 183 433 230 433 C267 433 294 424 329 399 C333 397 336 395 339 395 C342 395 346 397 350 400 L388 436 C395 443 395 449 390 454 C359 485 302 510 235 510 C136 510 46 448 46 360 C46 198 280 244 280 144 C280 97 235 66 167 66 C116 66 80 84 49 115 L49 115 Z " />
<glyph glyph-name="uni021A" unicode="&#x21a;" horiz-adv-x="528" d="M99 -241 C96 -248 100 -252 107 -252 L157 -252 C165 -252 171 -250 174 -241 L238 -61 C241 -53 239 -49 231 -49 L172 -49 C163 -49 158 -53 156 -61 L99 -241 Z M237 0 C246 0 251 4 252 13 L348 613 L548 613 C557 613 562 617 564 626 L574 687 C575 696 571 700 562 700 L64 700 C55 700 50 696 49 687 L39 626 C37 617 41 613 50 613 L259 613 L164 13 C162 4 166 0 175 0 L237 0 Z " />
<glyph glyph-name="uni021B" unicode="&#x21b;" horiz-adv-x="357" d="M53 -241 C50 -248 54 -252 61 -252 L111 -252 C121 -252 127 -248 128 -241 L192 -61 C195 -53 193 -49 185 -49 L126 -49 C117 -49 112 -53 110 -61 L53 -241 Z M267 86 C265 90 263 92 259 92 C258 92 256 91 253 90 C230 79 213 74 190 74 C155 74 131 91 138 130 L184 419 L311 419 C319 419 324 423 325 432 L334 487 C335 496 331 500 322 500 L197 500 L218 635 C219 644 216 648 207 648 L146 648 C137 648 132 644 130 635 L109 500 L55 500 C47 500 42 496 40 487 L31 432 C30 423 34 419 43 419 L97 419 L49 121 C36 41 83 -10 167 -10 C202 -10 238 0 274 17 C281 22 284 27 282 34 L267 86 Z " />
<glyph glyph-name="circumflex" unicode="&#x2c6;" horiz-adv-x="309" d="M188 737 C178 737 169 733 160 724 L24 598 C17 591 17 585 22 579 L38 555 C41 552 44 550 48 550 C51 550 55 552 59 555 L199 671 L299 557 C302 553 305 551 309 551 C312 551 316 553 319 556 L342 579 C350 586 351 592 346 598 L249 724 C244 731 238 737 226 737 L188 737 L188 737 Z " />
<glyph glyph-name="caron" unicode="&#x2c7;" horiz-adv-x="299" d="M203 558 C215 558 222 564 230 571 L366 697 C374 703 375 709 368 716 L353 740 C351 743 348 745 345 745 C341 745 337 743 332 739 L192 622 L92 738 C89 742 86 744 82 744 C79 744 75 742 72 739 L49 716 C42 709 40 703 45 697 L142 571 C149 563 154 558 165 558 L203 558 L203 558 Z " />
<glyph glyph-name="uni02C9" unicode="&#x2c9;" horiz-adv-x="317" d="M44 618 C43 609 46 604 55 604 L324 604 C333 604 338 609 339 618 L347 665 C348 674 344 678 336 678 L67 678 C58 678 53 674 51 666 L44 618 L44 618 Z " />
<glyph glyph-name="breve" unicode="&#x2d8;" horiz-adv-x="305" d="M365 718 C365 723 362 727 357 728 L317 736 C310 736 307 734 305 727 C296 684 260 647 197 647 C136 647 111 684 116 727 C117 733 115 736 109 736 C109 736 108 736 107 736 L65 728 C58 727 54 723 54 718 C46 630 103 582 188 582 C276 582 346 630 365 718 L365 718 Z " />
<glyph glyph-name="dotaccent" unicode="&#x2d9;" horiz-adv-x="128" d="M53 646 C53 615 76 592 107 592 C138 592 161 615 161 646 C161 677 138 701 107 701 C76 701 53 677 53 646 L53 646 Z " />
<glyph glyph-name="ring" unicode="&#x2da;" horiz-adv-x="225" d="M40 639 C40 578 92 526 153 526 C214 526 265 578 265 639 C265 700 214 751 153 751 C92 751 40 700 40 639 L40 639 Z M98 639 C98 670 122 694 153 694 C184 694 208 670 208 639 C208 608 184 584 153 584 C122 584 98 608 98 639 L98 639 Z " />
<glyph glyph-name="ogonek" unicode="&#x2db;" horiz-adv-x="132" d="M24 6 C-76 -72 -79 -195 40 -195 C50 -195 61 -194 73 -192 C80 -191 85 -187 86 -180 L91 -139 C92 -134 90 -131 86 -131 C85 -131 85 -131 84 -131 C77 -132 70 -133 64 -133 C-13 -133 10 -36 89 6 L24 6 L24 6 Z " />
<glyph glyph-name="tilde" unicode="&#x2dc;" horiz-adv-x="355" d="M293 637 C248 637 233 700 169 700 C134 700 87 674 50 642 C41 635 40 631 40 622 L37 581 C38 575 40 572 43 572 C45 572 48 573 51 576 C80 602 123 634 152 634 C201 634 212 571 277 571 C310 571 359 598 396 629 C404 636 405 640 405 649 L408 691 C408 696 406 699 402 699 C400 699 397 698 394 695 C365 668 324 637 293 637 L293 637 Z " />
<glyph glyph-name="hungarumlaut" unicode="&#x2dd;" horiz-adv-x="310" d="M72 541 C75 539 78 539 81 539 C86 539 89 542 92 547 L183 702 C188 709 186 715 177 718 L129 735 C127 735 125 736 124 736 C117 736 112 733 110 727 L33 572 C30 564 32 558 40 554 L72 541 L72 541 Z M244 541 C247 539 250 539 253 539 C258 539 261 542 264 547 L358 701 C361 708 360 714 352 717 L301 735 C299 735 297 736 296 736 C289 736 284 733 282 727 L205 572 C202 564 204 558 212 554 L244 541 L244 541 Z " />
<glyph glyph-name="uni0394" unicode="&#x394;" horiz-adv-x="640" d="M370 657 L373 657 L478 76 L83 76 L370 657 Z M-23 13 C-25 4 -21 0 -12 0 L541 0 C550 0 555 4 556 13 L560 31 L442 734 C440 745 434 750 425 750 L344 750 C334 750 326 745 321 734 L-20 31 L-23 13 L-23 13 Z " />
<glyph glyph-name="uni03A9" unicode="&#x3a9;" horiz-adv-x="780" d="M261 69 C144 125 107 222 112 326 C120 502 268 657 439 657 C583 657 681 550 673 401 C668 252 563 122 427 69 L417 0 L655 0 C663 0 668 4 669 12 L677 59 C678 68 674 72 666 72 L512 72 C644 131 742 268 747 413 C755 580 642 729 450 729 C237 729 51 541 40 336 C36 227 81 125 181 72 L25 72 C18 72 13 68 11 61 L4 12 C2 4 5 0 14 0 L251 0 L261 69 Z " />
<glyph glyph-name="uni03BC" unicode="&#x3bc;" horiz-adv-x="601" d="M115 55 C133 19 166 -4 224 -4 C299 -4 361 39 401 100 L387 13 C386 4 390 0 398 0 L460 0 C469 0 473 4 474 13 L549 487 C551 496 548 500 539 500 L477 500 C468 500 463 496 462 487 L423 244 C410 161 336 74 250 74 C155 74 128 145 144 238 L183 487 C184 496 181 500 172 500 L111 500 C102 500 97 496 96 487 L-18 -237 C-20 -246 -17 -250 -8 -250 L53 -250 C63 -250 68 -246 69 -237 L115 55 Z " />
<glyph glyph-name="pi" unicode="&#x3c0;" horiz-adv-x="614" d="M628 538 C636 538 641 542 643 551 L652 610 C654 619 651 623 642 623 L71 623 C62 623 57 619 56 610 L47 551 C45 542 48 538 57 538 L167 538 L83 13 C82 4 86 0 95 0 L153 0 C161 0 166 4 168 13 L251 538 L442 538 L358 13 C357 4 361 0 370 0 L428 0 C436 0 441 4 443 13 L526 538 L628 538 Z " />
<glyph glyph-name="Wgrave" unicode="&#x1e80;" horiz-adv-x="914" d="M646 0 C655 0 662 5 666 14 L944 686 C947 695 948 700 937 700 L868 700 C859 700 852 695 848 686 L624 141 L560 689 C559 696 555 700 547 700 L473 700 C464 700 458 696 455 689 L218 141 L167 686 C166 695 163 700 152 700 L84 700 C75 700 71 695 72 686 L138 14 C139 5 144 0 154 0 L231 0 C242 0 249 5 252 14 L489 564 L552 14 C553 5 558 0 569 0 L646 0 L646 0 Z M536 777 C545 781 545 787 542 794 L464 948 C462 954 458 957 452 957 C450 957 448 957 446 956 L396 939 C388 937 386 932 391 923 L484 768 C487 763 491 761 496 761 C498 761 501 761 503 762 L536 777 L536 777 Z " />
<glyph glyph-name="wgrave" unicode="&#x1e81;" horiz-adv-x="683" d="M119 487 C118 496 113 500 105 500 L43 500 C35 500 32 496 33 487 L73 16 C74 5 80 0 89 0 L167 0 C178 0 184 7 189 16 L345 390 L383 16 C386 7 388 0 399 0 L476 0 C485 0 492 5 497 16 L687 487 C691 496 689 500 680 500 L618 500 C610 500 604 496 601 487 L452 120 L409 485 C408 495 403 500 394 500 L328 500 C319 500 312 495 309 485 L230 302 C192 211 152 124 151 120 L119 487 L119 487 Z M389 570 C398 574 398 580 395 587 L317 741 C315 747 311 750 305 750 C303 750 301 750 299 749 L249 732 C241 730 239 725 244 716 L337 561 C341 556 344 554 349 554 C351 554 354 554 356 555 L389 570 L389 570 Z " />
<glyph glyph-name="Wacute" unicode="&#x1e82;" horiz-adv-x="914" d="M646 0 C655 0 662 5 666 14 L944 686 C947 695 948 700 937 700 L868 700 C859 700 852 695 848 686 L624 141 L560 689 C559 696 555 700 547 700 L473 700 C464 700 458 696 455 689 L218 141 L167 686 C166 695 163 700 152 700 L84 700 C75 700 71 695 72 686 L138 14 C139 5 144 0 154 0 L231 0 C242 0 249 5 252 14 L489 564 L552 14 C553 5 558 0 569 0 L646 0 L646 0 Z M534 770 C536 769 538 769 540 769 C545 769 550 771 553 776 L671 932 C677 939 676 945 668 948 L618 966 C616 967 614 967 612 967 C606 967 602 964 599 958 L497 804 C493 797 494 791 499 787 L534 770 L534 770 Z " />
<glyph glyph-name="wacute" unicode="&#x1e83;" horiz-adv-x="683" d="M119 487 C118 496 113 500 105 500 L43 500 C35 500 32 496 33 487 L73 16 C74 5 80 0 89 0 L167 0 C178 0 184 7 189 16 L345 390 L383 16 C386 7 388 0 399 0 L476 0 C485 0 492 5 497 16 L687 487 C691 496 689 500 680 500 L618 500 C610 500 604 496 601 487 L452 120 L409 485 C408 495 403 500 394 500 L328 500 C319 500 312 495 309 485 L230 302 C192 211 152 124 151 120 L119 487 L119 487 Z M377 553 C379 552 381 552 383 552 C388 552 393 554 396 559 L514 715 C520 722 519 728 511 731 L461 749 C459 750 457 750 455 750 C449 750 445 747 442 741 L340 587 C336 580 337 574 342 570 L377 553 L377 553 Z " />
<glyph glyph-name="Wdieresis" unicode="&#x1e84;" horiz-adv-x="914" d="M646 0 C655 0 662 5 666 14 L944 686 C947 695 948 700 937 700 L868 700 C859 700 852 695 848 686 L624 141 L560 689 C559 696 555 700 547 700 L473 700 C464 700 458 696 455 689 L218 141 L167 686 C166 695 163 700 152 700 L84 700 C75 700 71 695 72 686 L138 14 C139 5 144 0 154 0 L231 0 C242 0 249 5 252 14 L489 564 L552 14 C553 5 558 0 569 0 L646 0 L646 0 Z M371 836 C371 805 393 782 424 782 C455 782 479 805 479 836 C479 867 455 890 424 890 C393 890 371 867 371 836 L371 836 Z M578 836 C578 805 600 782 631 782 C662 782 686 805 686 836 C686 867 662 890 631 890 C600 890 578 867 578 836 L578 836 Z " />
<glyph glyph-name="wdieresis" unicode="&#x1e85;" horiz-adv-x="683" d="M119 487 C118 496 113 500 105 500 L43 500 C35 500 32 496 33 487 L73 16 C74 5 80 0 89 0 L167 0 C178 0 184 7 189 16 L345 390 L383 16 C386 7 388 0 399 0 L476 0 C485 0 492 5 497 16 L687 487 C691 496 689 500 680 500 L618 500 C610 500 604 496 601 487 L452 120 L409 485 C408 495 403 500 394 500 L328 500 C319 500 312 495 309 485 L230 302 C192 211 152 124 151 120 L119 487 L119 487 Z M227 643 C227 612 249 589 280 589 C311 589 335 612 335 643 C335 674 311 697 280 697 C249 697 227 674 227 643 L227 643 Z M434 643 C434 612 456 589 487 589 C518 589 542 612 542 643 C542 674 518 697 487 697 C456 697 434 674 434 643 L434 643 Z " />
<glyph glyph-name="endash" unicode="&#x2013;" horiz-adv-x="520" d="M42 316 C33 316 28 312 27 303 L17 242 C16 233 19 229 27 229 L456 229 C465 229 470 233 471 242 L481 303 C482 312 479 316 470 316 L42 316 L42 316 Z " />
<glyph glyph-name="emdash" unicode="&#x2014;" horiz-adv-x="1043" d="M42 316 C33 316 28 312 27 303 L17 242 C16 233 19 229 27 229 L980 229 C989 229 994 233 995 242 L1004 303 C1006 312 1003 316 994 316 L42 316 L42 316 Z " />
<glyph glyph-name="quoteleft" unicode="&#x2018;" horiz-adv-x="179" d="M195 688 C197 696 194 700 186 700 L138 700 C129 700 123 696 120 689 L56 509 C54 501 57 497 64 497 L123 497 C131 497 136 501 138 509 L195 688 Z " />
<glyph glyph-name="quoteright" unicode="&#x2019;" horiz-adv-x="179" d="M57 508 C54 501 58 497 65 497 L114 497 C123 497 128 501 131 508 L195 688 C198 696 196 700 188 700 L129 700 C120 700 115 696 113 688 L57 508 Z " />
<glyph glyph-name="quotesinglbase" unicode="&#x201a;" horiz-adv-x="180" d="M-40 -112 C-42 -120 -39 -124 -31 -124 L18 -124 C27 -124 32 -120 35 -113 L99 67 C102 75 99 79 92 79 L32 79 C24 79 19 75 17 67 L-40 -112 Z " />
<glyph glyph-name="quotedblleft" unicode="&#x201c;" horiz-adv-x="374" d="M190 688 C192 696 189 700 181 700 L133 700 C124 700 118 696 115 689 L51 509 C49 501 52 497 59 497 L118 497 C127 497 132 501 134 509 L190 688 Z M384 688 C386 696 383 700 376 700 L327 700 C318 700 312 696 309 689 L245 509 C243 501 246 497 253 497 L312 497 C321 497 326 501 328 509 L384 688 Z " />
<glyph glyph-name="quotedblright" unicode="&#x201d;" horiz-adv-x="374" d="M244 508 C241 501 244 497 253 497 L302 497 C311 497 316 501 319 508 L383 688 C386 696 384 700 376 700 L316 700 C308 700 303 696 301 688 L244 508 Z M50 508 C47 501 50 497 59 497 L107 497 C116 497 122 501 125 508 L189 688 C192 696 190 700 181 700 L122 700 C114 700 109 696 107 688 L50 508 Z " />
<glyph glyph-name="quotedblbase" unicode="&#x201e;" horiz-adv-x="373" d="M154 -112 C152 -120 155 -124 163 -124 L211 -124 C220 -124 226 -120 229 -113 L293 67 C295 75 292 79 285 79 L226 79 C217 79 212 75 210 67 L154 -112 Z M-40 -113 C-43 -120 -40 -124 -31 -124 L18 -124 C27 -124 32 -120 35 -113 L99 67 C101 75 98 79 91 79 L32 79 C23 79 18 75 16 67 L-40 -113 Z " />
<glyph glyph-name="dagger" unicode="&#x2020;" horiz-adv-x="354" d="M40 470 C31 470 26 466 25 457 L17 407 C16 398 19 393 28 393 L141 393 L51 -171 C50 -180 54 -184 63 -184 L113 -184 C122 -184 127 -180 128 -171 L218 393 L330 393 C339 393 344 398 345 407 L353 457 C354 466 351 470 343 470 L230 470 L268 707 C269 716 265 720 256 720 L206 720 C197 720 192 716 191 707 L153 470 L40 470 Z " />
<glyph glyph-name="daggerdbl" unicode="&#x2021;" horiz-adv-x="509" d="M17 164 C8 164 4 160 4 151 L-4 100 C-6 91 -3 87 5 87 L178 87 L137 -171 C136 -180 140 -184 149 -184 L199 -184 C208 -184 213 -180 214 -171 L255 87 L432 87 C440 87 445 91 447 100 L455 151 C456 160 453 164 444 164 L267 164 L300 371 L477 371 C486 371 491 375 491 384 L500 435 C501 444 498 448 489 448 L312 448 L354 707 C355 716 351 720 342 720 L292 720 C283 720 278 716 277 707 L235 448 L62 448 C54 448 49 444 48 435 L39 384 C39 375 43 371 50 371 L223 371 L190 164 L17 164 Z " />
<glyph glyph-name="bullet" unicode="&#x2022;" horiz-adv-x="176" d="M5 280 C5 243 35 213 74 213 C113 213 141 243 141 280 C141 317 113 347 74 347 C35 347 5 317 5 280 L5 280 Z " />
<glyph glyph-name="ellipsis" unicode="&#x2026;" horiz-adv-x="908" d="M29 46 C29 14 54 -10 85 -10 C117 -10 142 14 142 46 C142 77 117 102 85 102 C54 102 29 77 29 46 L29 46 Z M359 46 C359 14 383 -10 414 -10 C446 -10 471 14 471 46 C471 77 446 102 414 102 C383 102 359 77 359 46 L359 46 Z M693 46 C693 14 718 -10 749 -10 C781 -10 806 14 806 46 C806 77 781 102 749 102 C718 102 693 77 693 46 L693 46 Z " />
<glyph glyph-name="perthousand" unicode="&#x2030;" horiz-adv-x="1500" d="M1033 176 C1033 73 1102 -10 1218 -10 C1358 -10 1455 110 1455 227 C1455 335 1385 414 1273 414 C1134 414 1033 299 1033 176 L1033 176 Z M1105 182 C1105 258 1169 341 1265 341 C1342 341 1383 293 1383 222 C1383 145 1323 62 1226 62 C1151 62 1105 110 1105 182 L1105 182 Z M562 176 C562 73 631 -10 748 -10 C888 -10 985 110 985 227 C985 335 914 414 803 414 C664 414 562 299 562 176 L562 176 Z M635 182 C635 258 698 341 794 341 C871 341 913 293 913 222 C913 145 853 62 756 62 C680 62 635 110 635 182 L635 182 Z M227 13 C220 5 224 0 235 0 L285 0 C293 0 297 5 304 13 L797 687 C804 695 800 700 791 700 L741 700 C734 700 728 696 721 687 L227 13 L227 13 Z M35 476 C35 372 104 289 220 289 C360 289 458 408 458 527 C458 635 387 713 276 713 C137 713 35 598 35 476 L35 476 Z M107 481 C107 558 171 641 267 641 C344 641 385 593 385 521 C385 445 325 362 228 362 C153 362 107 410 107 481 L107 481 Z " />
<glyph glyph-name="guilsinglleft" unicode="&#x2039;" horiz-adv-x="280" d="M259 440 C262 447 261 453 248 453 L186 453 C179 453 172 449 165 440 L0 239 C-5 232 -5 228 -3 218 L98 17 C101 8 107 4 116 4 L170 4 C181 4 187 10 183 17 L82 225 L259 440 Z " />
<glyph glyph-name="guilsinglright" unicode="&#x203a;" horiz-adv-x="282" d="M-5 17 C-10 8 -7 4 4 4 L68 4 C75 4 82 8 89 17 L254 218 C257 222 263 230 256 239 L156 440 C153 449 147 453 138 453 L83 453 C72 453 67 447 70 440 L172 232 L-5 17 Z " />
<glyph glyph-name="fraction" unicode="&#x2044;" horiz-adv-x="545" d="M-7 13 C-14 5 -9 0 0 0 L49 0 C56 0 63 4 68 13 L563 687 C568 696 566 700 555 700 L505 700 C498 700 491 696 486 687 L-7 13 L-7 13 Z " />
<glyph glyph-name="franc" unicode="&#x20a3;" horiz-adv-x="551" d="M274 124 C282 124 287 128 289 137 L292 164 C294 173 291 177 283 177 L151 177 L170 298 L480 298 C488 298 493 302 495 311 L504 370 C505 379 502 383 494 383 L183 383 L219 613 L575 613 C583 613 588 617 590 626 L600 687 C601 696 598 700 589 700 L166 700 C151 700 143 690 142 679 L62 177 L11 177 C2 177 -3 173 -4 164 L-8 137 C-9 128 -6 124 2 124 L53 124 L36 13 C34 4 38 0 47 0 L109 0 C118 0 123 4 124 13 L142 124 L274 124 Z " />
<glyph glyph-name="lira" unicode="&#x20a4;" horiz-adv-x="498" d="M11 350 C4 347 0 342 1 334 L8 306 C9 301 13 298 17 298 C19 298 21 298 23 299 L84 319 L35 16 C34 7 36 0 48 0 L59 0 C294 0 451 149 496 352 C499 361 493 365 485 365 L440 365 C431 365 426 361 424 352 C397 208 274 88 118 80 L160 345 L345 407 C354 410 357 415 355 424 L351 451 C350 457 348 460 343 460 C341 460 339 460 337 459 L169 403 L179 468 L364 530 C373 533 376 538 374 547 L370 574 C369 580 367 583 362 583 C360 583 358 583 356 582 L188 526 L214 687 C216 696 212 700 203 700 L157 700 C149 700 144 696 142 687 L112 500 L31 473 C22 470 19 465 20 457 L27 429 C28 423 31 420 36 420 C38 420 40 420 42 421 L103 442 L92 377 L11 350 Z " />
<glyph glyph-name="Euro" unicode="&#x20ac;" horiz-adv-x="527" d="M451 91 C449 96 446 99 442 99 C440 99 436 97 432 95 C396 76 358 63 311 63 C180 63 133 151 133 263 L432 262 C443 262 444 267 445 275 L450 302 C451 311 448 315 440 315 L133 315 C134 340 139 365 144 389 L452 389 C459 389 464 393 465 402 L470 429 C471 438 467 442 460 442 L161 442 C201 554 278 637 402 637 C445 637 485 624 514 605 C517 603 519 602 522 602 C526 602 530 605 534 610 L561 653 C568 661 564 666 557 671 C518 694 469 710 414 710 C255 710 143 616 84 443 L20 442 C13 442 8 438 6 429 L1 402 C0 393 3 389 11 389 L69 389 C64 358 61 346 58 315 L0 315 C-9 315 -13 311 -14 302 L-19 275 C-20 266 -17 262 -8 262 L56 262 C56 105 128 -10 299 -10 C355 -10 410 5 454 28 C465 35 470 39 466 50 L451 91 Z " />
<glyph glyph-name="uni2113" unicode="&#x2113;" horiz-adv-x="354" d="M6 257 C9 252 13 250 17 250 C20 250 23 251 27 255 L76 298 L55 169 C39 69 61 -11 154 -11 C197 -11 241 8 272 32 C279 37 281 44 279 53 L274 84 C273 88 271 91 267 91 C264 91 261 89 257 86 C233 67 207 53 176 53 C117 53 118 114 129 183 L157 357 C241 439 339 519 355 621 C364 693 330 734 265 734 C184 734 134 664 117 560 L88 375 L2 297 C-7 289 -9 281 -5 274 L6 257 L6 257 Z M297 609 C281 545 221 488 170 440 L186 541 C197 603 210 671 263 671 C298 671 305 644 297 609 L297 609 Z " />
<glyph glyph-name="trademark" unicode="&#x2122;" horiz-adv-x="815" d="M167 285 C174 285 177 289 178 296 L233 641 L361 641 C368 641 372 645 373 652 L379 691 C380 698 377 701 370 701 L55 701 C49 701 45 698 44 691 L38 652 C37 645 39 641 46 641 L174 641 L119 296 C118 287 124 285 128 285 L167 285 L167 285 Z M568 340 C572 340 575 342 578 347 L728 570 L685 295 C682 287 688 285 693 285 L733 285 C739 285 743 288 744 295 L807 689 C807 696 804 700 797 700 L759 700 C754 700 749 697 744 691 L567 422 L476 691 C473 696 471 700 463 700 L424 700 C418 700 414 696 413 689 L350 296 C349 289 352 285 359 285 L398 285 C406 285 407 289 410 296 L453 570 L534 347 C535 342 538 340 542 340 L568 340 L568 340 Z " />
<glyph glyph-name="Omega" unicode="&#x2126;" horiz-adv-x="787" d="M265 69 C148 122 110 222 115 326 C123 502 271 657 443 657 C586 657 684 550 676 401 C671 247 563 122 431 69 L420 0 L658 0 C666 0 671 4 673 12 L680 59 C681 68 677 72 669 72 L515 72 C653 132 746 272 751 413 C759 580 646 729 454 729 C236 729 52 536 44 336 C39 227 85 125 185 72 L29 72 C20 72 16 68 15 61 L7 12 C6 4 9 0 18 0 L254 0 L265 69 Z " />
<glyph glyph-name="estimated" unicode="&#x212e;" horiz-adv-x="533" d="M126 247 L496 247 C503 247 512 253 512 264 C515 401 418 547 257 547 C108 547 3 423 3 275 C3 135 117 5 257 5 C348 5 425 48 469 117 C474 124 474 132 466 137 L439 150 C437 152 434 152 432 152 C427 152 423 149 418 143 C381 92 328 62 257 62 C206 62 155 88 126 125 L126 247 Z M126 303 L126 435 C161 471 206 489 257 489 C308 489 357 471 388 435 L388 303 L126 303 Z " />
<glyph glyph-name="partialdiff" unicode="&#x2202;" horiz-adv-x="517" d="M305 710 C258 710 206 696 173 681 C165 677 163 671 166 663 L183 623 C186 618 189 615 194 615 C196 615 199 616 202 617 C229 628 264 638 293 638 C426 638 443 537 422 401 C393 456 319 491 257 491 C117 491 22 357 15 205 C7 65 87 -10 194 -10 C348 -10 428 141 465 285 C521 503 523 710 305 710 L305 710 Z M198 65 C118 65 82 130 87 212 C92 308 155 417 259 417 C324 417 384 378 400 312 C373 192 306 65 198 65 L198 65 Z " />
<glyph glyph-name="Delta" unicode="&#x2206;" horiz-adv-x="653" d="M374 657 L377 657 L483 76 L88 76 L374 657 Z M-19 13 C-20 4 -16 0 -7 0 L546 0 C554 0 559 4 561 13 L564 31 L447 734 C444 745 438 750 429 750 L348 750 C339 750 332 745 325 734 L-15 31 L-19 13 L-19 13 Z " />
<glyph glyph-name="product" unicode="&#x220f;" horiz-adv-x="690" d="M156 700 C147 700 142 696 141 687 L14 -115 C12 -124 16 -128 25 -128 L76 -128 C85 -128 89 -124 90 -115 L208 623 L572 623 L455 -115 C454 -124 458 -128 467 -128 L517 -128 C526 -128 531 -124 532 -115 L660 687 C661 696 657 700 648 700 L156 700 L156 700 Z " />
<glyph glyph-name="summation" unicode="&#x2211;" horiz-adv-x="684" d="M-31 -214 C-32 -219 -30 -230 -18 -230 L537 -230 C547 -230 553 -225 554 -216 L563 -165 C564 -156 560 -151 549 -151 L105 -151 L473 212 C490 229 489 240 481 251 C433 320 390 381 353 436 L225 622 L672 622 C682 622 688 626 689 635 L697 686 C698 695 694 700 684 700 L129 700 C125 700 113 697 110 684 L106 659 C104 648 106 640 111 633 L387 234 L-15 -164 C-23 -172 -27 -183 -27 -187 L-31 -214 L-31 -214 Z " />
<glyph glyph-name="minus" unicode="&#x2212;" horiz-adv-x="512" d="M56 316 C48 316 43 312 42 303 L32 242 C31 233 34 229 42 229 L446 229 C455 229 460 233 461 242 L471 303 C472 312 469 316 460 316 L56 316 L56 316 Z " />
<glyph glyph-name="uni2215" unicode="&#x2215;" horiz-adv-x="441" d="M-8 13 C-13 5 -9 0 2 0 L48 0 C55 0 60 4 65 13 L452 687 C457 695 452 700 443 700 L397 700 C388 700 384 695 379 687 L-8 13 L-8 13 Z " />
<glyph glyph-name="uni2219" unicode="&#x2219;" horiz-adv-x="180" d="M32 337 C32 306 55 285 84 285 C115 285 137 306 137 337 C137 368 115 390 84 390 C55 390 32 368 32 337 L32 337 Z " />
<glyph glyph-name="radical" unicode="&#x221a;" horiz-adv-x="469" d="M223 -12 C232 -12 235 -5 238 2 C298 163 449 550 510 712 C515 723 512 728 501 728 L450 728 C441 728 434 723 431 712 L205 124 L144 404 C143 411 139 415 132 415 C130 415 127 414 124 413 L10 352 C2 347 -1 340 1 332 L16 289 C18 283 22 281 27 281 C29 281 33 282 36 284 L78 307 C82 292 86 276 89 259 C96 230 103 193 112 154 L146 1 C149 -8 153 -12 160 -12 L223 -12 L223 -12 Z " />
<glyph glyph-name="infinity" unicode="&#x221e;" horiz-adv-x="690" d="M608 293 C597 228 553 184 485 184 C435 184 380 218 385 293 C401 346 451 398 519 398 C587 398 616 349 608 293 L608 293 Z M302 293 C288 233 230 184 167 184 C99 184 67 232 78 292 C86 343 127 398 203 398 C258 398 305 361 302 293 L302 293 Z M351 367 C338 423 288 469 207 469 C107 469 23 396 7 292 C-9 184 53 113 153 113 C222 113 288 157 335 219 L335 217 C351 157 409 113 481 113 C582 113 664 189 680 293 C696 397 627 469 534 469 C443 469 386 407 351 365 L351 367 L351 367 Z " />
<glyph glyph-name="integral" unicode="&#x222b;" horiz-adv-x="287" d="M24 -98 C16 -139 -2 -160 -32 -160 C-44 -160 -59 -156 -75 -149 C-78 -148 -80 -147 -82 -147 C-87 -147 -90 -150 -93 -156 L-104 -177 C-109 -184 -107 -190 -100 -194 C-71 -211 -44 -219 -18 -219 C42 -219 88 -175 99 -99 L213 613 C219 655 238 676 268 676 C281 676 295 672 312 665 C315 664 317 663 319 663 C324 663 327 666 330 672 L341 693 C346 700 344 706 337 710 C308 727 280 735 255 735 C195 735 148 691 137 615 L24 -98 L24 -98 Z " />
<glyph glyph-name="approxequal" unicode="&#x2248;" horiz-adv-x="500" d="M56 209 C87 248 114 269 158 269 C219 269 286 202 353 202 C412 202 450 253 487 290 C493 296 493 302 487 308 L462 329 C459 331 457 332 454 332 C451 332 447 330 443 327 C422 304 400 275 367 275 C309 275 233 339 171 342 C100 342 53 299 11 246 C5 238 6 232 13 228 L39 207 C41 205 44 203 46 203 C50 203 53 205 56 209 L56 209 Z M56 410 C87 449 114 470 158 470 C219 470 286 403 353 403 C412 403 450 454 487 491 C493 497 493 503 487 509 L462 530 C459 532 457 533 454 533 C451 533 447 531 443 528 C422 505 400 476 367 476 C309 476 233 540 171 543 C100 543 53 500 11 447 C5 439 6 433 13 429 L39 408 C41 406 44 404 46 404 C50 404 53 406 56 410 L56 410 Z " />
<glyph glyph-name="notequal" unicode="&#x2260;" horiz-adv-x="513" d="M209 163 L451 163 C460 163 465 167 466 176 L473 222 C475 231 472 235 463 235 L253 235 L333 368 L483 368 C492 368 497 372 499 381 L506 427 C507 436 504 440 495 440 L378 440 L455 564 C460 573 458 577 447 577 L393 577 C385 577 379 573 374 564 L297 440 L58 440 C50 440 45 436 43 428 L36 381 C35 372 38 368 46 368 L253 368 L172 235 L26 235 C17 235 12 231 11 223 L3 176 C3 167 7 163 14 163 L128 163 L52 40 C47 31 49 27 60 27 L114 27 C122 27 128 31 133 40 L209 163 Z " />
<glyph glyph-name="lessequal" unicode="&#x2264;" horiz-adv-x="435" d="M9 72 C1 72 -4 68 -5 59 L-13 13 C-14 4 -11 0 -2 0 L332 0 C340 0 345 4 346 13 L354 60 C354 68 350 72 343 72 L9 72 L9 72 Z M421 543 C430 547 434 552 435 559 L444 613 C445 621 443 625 438 625 C437 625 435 625 433 624 L75 478 C66 474 62 469 61 462 L52 402 C50 395 53 389 61 385 L373 239 C375 238 376 238 377 238 C382 238 385 243 386 250 L395 303 C396 311 392 316 385 319 L140 431 L421 543 Z " />
<glyph glyph-name="greaterequal" unicode="&#x2265;" horiz-adv-x="411" d="M9 72 C1 72 -4 68 -6 60 L-13 13 C-14 4 -11 0 -2 0 L331 0 C340 0 345 4 345 13 L353 59 C354 68 351 72 342 72 L9 72 Z M48 319 C39 316 34 311 33 303 L25 250 C23 244 25 238 30 238 C32 238 33 238 35 239 L393 385 C402 389 406 395 407 402 L417 462 C418 469 414 474 407 478 L96 624 C95 625 93 625 92 625 C87 625 83 620 83 613 L74 559 C73 552 76 546 83 543 L328 431 L48 319 Z " />
<glyph glyph-name="lozenge" unicode="&#x25ca;" horiz-adv-x="453" d="M267 618 L270 618 L359 350 L184 81 L182 81 L95 350 L267 618 Z M114 13 C116 4 121 0 128 0 L212 0 C223 0 225 4 230 13 L430 329 C441 345 442 355 437 371 L338 687 C335 696 334 700 323 700 L239 700 C232 700 226 696 221 687 L24 371 C13 355 11 345 16 329 L114 13 L114 13 Z " />
</font>
</svg>
