<?xml version="1.0" encoding="UTF-8"?>
<svg xmlns="http://www.w3.org/2000/svg" xmlns:xlink="http://www.w3.org/1999/xlink" version="1.2" >
<font id="Crossten ExtraBold Italic">
<font-face  font-family="Crossten" units-per-em="1000" ascent="750" descent="-250" font-style="italic" font-weight="800" font-stretch="normal" cap-height="700" x-height="500" underline-position="-75" underline-thickness="50" />
<missing-glyph  horiz-adv-x="310" d="" />
<glyph glyph-name="NULL" d="" />
<glyph glyph-name="&amp;#x0;" horiz-adv-x="310" d="" />
<glyph glyph-name="&amp;#xd;" unicode="&#xd;" horiz-adv-x="310" d="" />
<glyph glyph-name="space" unicode="&#x20;" horiz-adv-x="310" d="" />
<glyph glyph-name="exclam" unicode="&#x21;" horiz-adv-x="271" d="M172 229 C183 229 192 237 193 248 L272 681 C274 694 269 700 256 700 L127 700 C114 700 107 694 105 681 L46 248 C43 236 47 229 62 229 L172 229 L172 229 Z M3 81 C3 30 43 -10 94 -10 C146 -10 187 30 187 81 C187 133 146 174 94 174 C43 174 3 133 3 81 L3 81 Z " />
<glyph glyph-name="quotedbl" unicode="&#x22;" horiz-adv-x="367" d="M149 459 C160 459 169 467 170 478 L213 677 C214 690 209 696 197 696 L97 696 C85 696 78 690 76 677 L54 478 C51 466 55 459 70 459 L149 459 L149 459 Z M325 459 C337 459 345 467 346 478 L389 677 C391 690 386 696 373 696 L273 696 C261 696 254 690 252 677 L230 478 C229 466 231 459 246 459 L325 459 L325 459 Z " />
<glyph glyph-name="numbersign" unicode="&#x23;" horiz-adv-x="620" d="M130 0 C142 0 150 6 153 19 L201 182 L320 182 L272 19 C267 6 271 0 284 0 L370 0 C381 0 388 6 393 19 L441 182 L533 182 C546 182 553 188 555 201 L568 287 C571 298 564 306 553 306 L478 306 L503 393 L593 393 C606 393 614 399 615 412 L628 498 C631 509 625 517 612 517 L539 517 L588 676 C591 688 586 695 575 695 L491 695 C480 695 472 689 468 676 L420 517 L299 517 L346 676 C350 687 344 695 333 695 L249 695 C240 695 230 687 227 676 L178 517 L91 517 C79 517 72 511 70 498 L56 412 C54 399 59 393 72 393 L142 393 L117 306 L31 306 C18 306 11 300 9 287 L-4 201 C-6 188 -1 182 11 182 L78 182 L30 19 C26 8 31 0 42 0 L130 0 L130 0 Z M357 306 L238 306 L263 393 L384 393 L357 306 Z " />
<glyph glyph-name="dollar" unicode="&#x24;" horiz-adv-x="530" d="M230 504 C230 533 260 551 299 551 C342 551 373 532 400 517 C404 515 408 514 412 514 C418 514 424 516 429 522 L516 627 C523 639 522 648 514 653 C456 690 415 703 358 708 L370 787 C373 799 364 806 352 806 L271 806 C258 806 251 800 250 787 L235 697 C128 669 64 591 64 496 C64 287 313 308 313 207 C313 176 287 149 231 149 C184 149 134 170 98 201 C94 204 90 206 85 206 C79 206 72 202 68 197 L-11 98 C-19 88 -18 79 -9 72 C44 27 88 9 156 -4 L143 -89 C141 -102 146 -108 159 -108 L244 -108 C256 -108 263 -102 265 -89 L279 -3 C388 16 480 108 480 225 C480 441 230 419 230 504 L230 504 Z " />
<glyph glyph-name="percent" unicode="&#x25;" horiz-adv-x="1070" d="M593 184 C593 79 661 -10 781 -10 C936 -10 1032 115 1032 235 C1032 351 954 430 846 430 C695 430 593 312 593 184 L593 184 Z M722 196 C722 247 761 300 826 300 C875 300 903 270 903 223 C903 172 864 120 799 120 C756 120 722 151 722 196 L722 196 Z M222 18 C213 7 220 0 232 0 L329 0 C341 0 348 7 356 18 L844 682 C855 693 848 700 835 700 L738 700 C726 700 719 693 711 682 L222 18 L222 18 Z M35 469 C35 365 104 273 224 273 C376 273 475 397 475 519 C475 635 396 713 288 713 C137 713 35 597 35 469 L35 469 Z M165 480 C165 531 204 583 268 583 C317 583 345 553 345 506 C345 455 306 403 241 403 C198 403 165 433 165 480 L165 480 Z " />
<glyph glyph-name="ampersand" unicode="&#x26;" horiz-adv-x="676" d="M334 456 C315 480 301 501 301 524 C301 547 319 564 346 564 C369 564 385 553 400 538 C405 534 408 532 412 532 C416 532 420 534 425 538 L511 601 C522 609 527 616 519 627 C479 678 411 710 332 710 C229 710 141 638 141 534 C141 487 154 451 185 398 C70 337 -8 272 -8 165 C-8 60 73 -10 167 -10 C262 -10 326 23 425 85 L502 -17 C508 -24 515 -27 522 -27 C528 -27 535 -25 543 -19 L614 40 C629 55 633 64 621 77 L548 174 L624 234 C639 246 637 256 628 268 L573 343 C569 349 565 352 559 352 C553 352 547 349 540 345 L528 336 C521 331 510 324 501 317 C489 309 476 299 462 288 L334 456 L334 456 Z M211 145 C182 145 158 164 158 195 C158 235 199 257 267 294 L335 202 C290 167 254 145 211 145 L211 145 Z " />
<glyph glyph-name="quotesingle" unicode="&#x27;" horiz-adv-x="194" d="M150 463 C162 463 171 472 172 483 L214 680 C216 693 211 700 198 700 L100 700 C87 700 81 691 78 680 L57 483 C54 471 58 463 73 463 L150 463 L150 463 Z " />
<glyph glyph-name="parenleft" unicode="&#x28;" horiz-adv-x="362" d="M315 782 C-16 478 -67 151 159 -133 C164 -139 168 -142 172 -142 C176 -142 180 -140 186 -136 L270 -80 C281 -73 283 -64 277 -53 C95 220 128 418 413 708 C422 717 421 728 413 735 L345 789 C341 792 337 793 334 793 C328 793 322 789 315 782 L315 782 Z " />
<glyph glyph-name="parenright" unicode="&#x29;" horiz-adv-x="346" d="M182 782 C177 789 173 793 167 793 C163 793 159 791 153 788 L70 735 C57 727 54 718 61 709 C254 419 220 221 -46 -53 C-55 -63 -56 -72 -48 -79 L19 -137 C23 -140 26 -142 30 -142 C35 -142 40 -139 46 -133 C364 150 416 476 182 782 L182 782 Z " />
<glyph glyph-name="asterisk" unicode="&#x2a;" horiz-adv-x="341" d="M55 452 C46 444 45 435 53 428 L108 381 C112 378 116 376 120 376 C125 376 130 379 135 386 L188 459 L218 384 C220 377 224 374 229 374 C232 374 236 375 241 378 L309 421 C320 427 322 435 315 446 L270 510 L350 526 C363 529 369 537 368 549 L362 618 C361 626 357 630 350 630 C348 630 345 629 342 628 L263 606 L282 679 C285 690 283 698 267 698 L190 698 C177 698 171 692 170 679 L162 606 L92 632 C88 634 85 634 82 634 C75 634 70 631 67 623 L37 549 C31 536 34 528 47 527 L121 514 L55 452 Z " />
<glyph glyph-name="plus" unicode="&#x2b;" horiz-adv-x="468" d="M417 216 C430 216 437 222 439 235 L455 339 C457 351 452 357 439 357 L308 357 L329 487 C331 499 326 505 313 505 L210 505 C197 505 190 499 189 487 L168 357 L34 357 C22 357 15 351 13 339 L-3 235 C-5 222 0 216 12 216 L145 216 L124 83 C122 71 127 65 140 65 L244 65 C256 65 263 71 265 83 L286 216 L417 216 Z " />
<glyph glyph-name="comma" unicode="&#x2c;" horiz-adv-x="247" d="M-59 -140 C-62 -147 -57 -154 -48 -154 L58 -154 C69 -154 76 -149 80 -140 L190 160 C193 169 190 173 181 173 L52 173 C42 173 36 168 34 159 L-59 -140 Z " />
<glyph glyph-name="hyphen" unicode="&#x2d;" horiz-adv-x="361" d="M47 353 C35 353 28 347 26 334 L6 208 C4 196 9 190 22 190 L290 190 C302 190 309 196 311 208 L331 334 C333 347 328 353 316 353 L47 353 L47 353 Z " />
<glyph glyph-name="period" unicode="&#x2e;" horiz-adv-x="250" d="M-6 81 C-6 30 34 -10 85 -10 C137 -10 179 30 179 81 C179 133 137 175 85 175 C34 175 -6 133 -6 81 L-6 81 Z " />
<glyph glyph-name="slash" unicode="&#x2f;" horiz-adv-x="433" d="M-36 18 C-43 7 -36 0 -24 0 L70 0 C82 0 87 7 94 18 L477 682 C484 693 477 700 465 700 L371 700 C359 700 354 693 347 682 L-36 18 L-36 18 Z " />
<glyph glyph-name="zero" unicode="0" horiz-adv-x="565" d="M31 250 C31 89 101 -10 224 -10 C414 -10 534 153 534 450 C534 611 464 710 341 710 C151 710 31 547 31 250 L31 250 Z M197 264 C197 435 244 548 311 548 C349 548 368 511 368 436 C368 265 321 152 254 152 C216 152 197 189 197 264 L197 264 Z " />
<glyph glyph-name="one" unicode="1" horiz-adv-x="344" d="M70 665 C57 663 51 656 51 644 L46 513 C46 501 53 500 63 500 L147 516 L68 19 C66 6 71 0 84 0 L213 0 C225 0 232 6 234 19 L340 681 C341 694 335 700 324 700 L305 700 L70 665 L70 665 Z " />
<glyph glyph-name="two" unicode="2" horiz-adv-x="485" d="M110 518 C114 511 119 506 125 506 C129 506 134 508 140 512 C175 536 208 548 239 548 C286 548 304 518 304 483 C304 399 193 308 -23 60 C-30 53 -34 46 -35 38 C-36 31 -36 27 -37 19 C-40 6 -35 0 -22 0 L389 0 C402 0 409 6 411 19 L420 76 C425 107 428 137 431 145 C432 157 427 163 415 163 L263 163 C418 334 473 422 473 522 C473 631 413 710 277 710 C201 710 141 687 73 642 C60 633 58 626 62 615 L110 518 L110 518 Z " />
<glyph glyph-name="three" unicode="3" horiz-adv-x="485" d="M178 290 C253 287 277 262 277 223 C277 182 245 152 190 152 C151 152 116 167 96 186 C92 190 87 192 83 192 C76 192 70 188 65 180 L-13 85 C-20 76 -21 66 -10 58 C41 17 109 -10 197 -10 C338 -10 440 99 440 228 C440 292 412 340 352 364 C412 396 476 455 476 543 C476 647 417 710 300 710 C229 710 169 690 92 642 C79 635 75 626 80 615 L127 522 C130 517 132 511 140 511 C144 511 150 512 157 516 C184 532 221 548 260 548 C295 548 312 533 312 504 C312 467 270 437 202 437 C195 437 188 433 185 422 L166 303 C165 294 169 290 178 290 L178 290 Z " />
<glyph glyph-name="four" unicode="4" horiz-adv-x="507" d="M231 19 C230 6 236 0 247 0 L364 0 C376 0 383 6 385 19 L403 129 L449 129 C462 129 469 135 471 148 L488 257 C490 270 485 276 472 276 L426 276 L441 368 C443 381 438 387 425 387 L311 387 C298 387 291 381 290 368 L277 287 L181 287 L408 679 C417 693 413 700 397 700 L282 700 C267 700 256 693 249 679 L-11 238 L-25 148 C-27 135 -22 129 -9 129 L250 129 L231 19 Z " />
<glyph glyph-name="five" unicode="5" horiz-adv-x="502" d="M66 271 C100 284 167 297 217 297 C277 297 295 270 295 233 C295 197 267 152 195 152 C160 152 114 161 85 181 C80 184 75 186 71 186 C65 186 60 183 54 175 L-25 77 C-34 66 -30 57 -21 50 C37 8 123 -10 190 -10 C363 -10 461 125 461 259 C461 373 412 447 297 447 C272 447 240 438 228 433 L245 543 L452 543 C466 543 474 550 475 563 L494 681 C496 694 490 700 477 700 L129 700 C116 700 109 691 106 680 L44 288 L66 271 L66 271 Z " />
<glyph glyph-name="six" unicode="6" horiz-adv-x="524" d="M203 415 C220 494 263 552 332 552 C372 552 390 542 422 522 C427 519 431 517 436 517 C441 517 447 521 453 528 L525 618 C534 630 532 636 523 645 C466 693 405 710 341 710 C193 710 77 598 32 346 L27 317 C-13 93 83 -10 209 -10 C374 -10 476 132 476 268 C476 383 421 449 324 449 C277 449 244 438 203 415 L203 415 Z M180 275 C207 294 235 304 262 304 C301 304 313 282 313 243 C313 190 283 140 232 140 C192 140 163 177 179 265 L180 275 Z " />
<glyph glyph-name="seven" unicode="7" horiz-adv-x="468" d="M506 681 C508 694 503 700 490 700 L97 700 C84 700 77 694 75 681 L55 556 C53 544 58 538 71 538 L300 538 L-5 19 C-12 6 -7 0 9 0 L138 0 C154 0 161 7 168 19 L486 560 L506 681 Z " />
<glyph glyph-name="eight" unicode="8" horiz-adv-x="510" d="M69 511 C69 450 94 409 142 380 C51 343 2 251 2 175 C2 58 77 -10 200 -10 C352 -10 468 98 468 226 C468 287 447 345 378 380 C433 404 492 470 492 551 C492 636 433 710 307 710 C160 710 69 615 69 511 L69 511 Z M212 488 C212 536 247 569 290 569 C330 569 346 546 346 514 C346 467 312 430 267 430 C236 430 212 451 212 488 L212 488 Z M160 203 C160 254 201 292 246 292 C289 292 309 267 309 228 C309 181 273 140 222 140 C183 140 160 160 160 203 L160 203 Z " />
<glyph glyph-name="nine" unicode="9" horiz-adv-x="519" d="M318 285 C301 206 258 148 189 148 C148 148 130 159 99 178 C94 181 90 183 86 183 C80 183 75 179 68 172 L-3 82 C-11 72 -10 63 -1 55 C55 7 122 -10 185 -10 C320 -10 441 93 489 354 L494 383 C534 607 437 710 312 710 C148 710 46 568 46 432 C46 317 102 251 199 251 C244 251 277 262 318 285 L318 285 Z M341 425 C314 406 286 396 259 396 C224 396 208 413 208 457 C208 510 238 560 289 560 C330 560 358 523 342 435 L341 425 Z " />
<glyph glyph-name="colon" unicode="&#x3a;" horiz-adv-x="259" d="M-5 81 C-5 30 35 -10 86 -10 C139 -10 180 30 180 81 C180 134 139 175 86 175 C35 175 -5 134 -5 81 L-5 81 Z M48 416 C48 365 88 325 139 325 C191 325 233 365 233 416 C233 468 191 510 139 510 C88 510 48 468 48 416 L48 416 Z " />
<glyph glyph-name="semicolon" unicode="&#x3b;" horiz-adv-x="252" d="M-59 -140 C-62 -147 -57 -154 -48 -154 L58 -154 C69 -154 76 -149 80 -140 L190 160 C193 169 190 173 181 173 L52 173 C43 173 37 168 35 159 L-59 -140 L-59 -140 Z M49 416 C49 365 89 325 140 325 C192 325 234 365 234 416 C234 468 192 510 140 510 C89 510 49 468 49 416 L49 416 Z " />
<glyph glyph-name="less" unicode="&#x3c;" horiz-adv-x="489" d="M447 406 C459 410 466 414 469 427 L484 526 C487 535 484 543 475 543 C473 543 470 543 468 542 L40 391 C28 387 20 382 19 369 L-5 222 C-7 211 -2 204 10 200 L390 49 C392 48 393 48 395 48 C403 48 408 57 411 66 L427 164 C428 176 423 180 412 184 L137 295 L447 406 Z " />
<glyph glyph-name="equal" unicode="&#x3d;" horiz-adv-x="519" d="M69 467 C56 467 49 461 48 449 L33 357 C31 344 36 338 48 338 L473 338 C486 338 493 344 495 357 L510 449 C511 461 505 467 494 467 L69 467 L69 467 Z M36 263 C23 263 16 257 15 244 L0 153 C-2 140 3 134 16 134 L441 134 C453 134 460 140 462 153 L477 244 C478 257 473 263 462 263 L36 263 L36 263 Z " />
<glyph glyph-name="greater" unicode="&#x3e;" horiz-adv-x="496" d="M33 184 C21 180 13 176 12 164 L-3 66 C-6 57 -2 48 7 48 C8 48 10 48 12 49 L440 200 C453 204 460 211 462 222 L485 369 C488 382 481 387 470 391 L90 542 C88 543 86 543 85 543 C76 543 72 535 69 526 L53 427 C52 414 57 410 68 406 L343 295 L33 184 Z " />
<glyph glyph-name="question" unicode="&#x3f;" horiz-adv-x="408" d="M102 518 C105 512 109 509 113 509 C117 509 121 511 126 514 C159 535 192 548 219 548 C248 548 259 535 259 516 C259 459 122 443 95 269 L92 253 C89 240 90 229 105 229 L230 229 C247 229 251 238 254 253 L256 269 C276 383 430 433 430 559 C430 648 365 710 258 710 C189 710 124 686 61 647 C50 639 47 631 52 622 L102 518 L102 518 Z M58 81 C58 30 98 -10 149 -10 C201 -10 242 30 242 81 C242 133 201 174 149 174 C98 174 58 133 58 81 L58 81 Z " />
<glyph glyph-name="at" unicode="&#x40;" horiz-adv-x="1023" d="M412 237 C412 296 454 335 501 335 C546 335 570 304 567 260 C564 212 529 172 478 172 C439 172 412 196 412 237 L412 237 Z M559 93 C562 27 626 -13 703 -13 C821 -13 969 84 969 340 C969 565 821 725 567 725 C269 725 25 507 25 191 C25 -73 196 -218 488 -218 L825 -218 C838 -218 846 -212 848 -199 L859 -135 C860 -124 852 -119 840 -119 L491 -119 C248 -119 125 -10 125 193 C125 446 315 626 559 626 C777 626 869 498 869 337 C869 164 781 86 727 86 C700 86 681 106 686 144 L733 443 C733 444 736 458 721 458 L614 458 C611 458 598 458 595 442 L590 409 C561 452 523 466 484 466 C377 466 273 376 273 221 C273 113 338 41 432 41 C495 41 537 76 560 97 L559 93 L559 93 Z " />
<glyph glyph-name="A" unicode="A" horiz-adv-x="632" d="M98 0 C113 0 123 6 127 19 L176 131 L388 131 L401 19 C404 4 412 0 425 0 L561 0 C574 0 578 6 575 19 L478 681 C476 694 469 700 458 700 L287 700 C275 700 267 694 262 681 L-46 19 C-53 6 -50 0 -37 0 L98 0 L98 0 Z M237 285 L343 510 L377 285 L237 285 Z " />
<glyph glyph-name="B" unicode="B" horiz-adv-x="589" d="M292 0 C435 0 545 103 545 219 C545 290 513 340 449 369 C506 396 562 461 562 535 C562 635 499 700 372 700 L130 700 C117 700 110 694 109 681 L3 19 C1 6 6 0 19 0 L292 0 L292 0 Z M212 289 L294 289 C351 289 376 268 376 225 C376 182 337 152 276 152 L191 152 L212 289 Z M253 548 L319 548 C370 548 385 529 385 498 C385 461 352 435 305 435 L236 435 L253 548 Z " />
<glyph glyph-name="C" unicode="C" horiz-adv-x="606" d="M624 630 C632 639 633 649 621 656 C574 688 516 710 440 710 C223 710 21 536 21 296 C21 109 162 -10 325 -10 C398 -10 464 10 527 45 C538 51 542 60 537 73 L485 176 C482 183 477 186 472 186 C468 186 463 185 459 182 C420 158 377 152 350 152 C250 152 187 221 187 316 C187 447 300 548 414 548 C454 548 483 538 510 521 C514 519 518 518 522 518 C530 518 537 522 542 528 L624 630 Z " />
<glyph glyph-name="D" unicode="D" horiz-adv-x="703" d="M273 0 C499 0 681 163 681 404 C681 591 563 700 376 700 L130 700 C117 700 110 694 109 681 L3 19 C1 6 6 0 19 0 L273 0 L273 0 Z M252 538 L352 538 C456 538 515 480 515 384 C515 253 423 162 293 162 L192 162 L252 538 Z " />
<glyph glyph-name="E" unicode="E" horiz-adv-x="535" d="M129 700 C116 700 109 694 108 681 L2 19 C1 8 5 0 18 0 L423 0 C435 0 443 8 444 19 L464 144 C466 156 461 162 448 162 L191 162 L208 271 L429 271 C442 271 449 277 451 290 L469 410 C471 423 466 429 454 429 L234 429 L251 538 L506 538 C519 538 526 544 528 556 L548 681 C549 692 544 700 532 700 L129 700 L129 700 Z " />
<glyph glyph-name="F" unicode="F" horiz-adv-x="534" d="M147 0 C160 0 167 6 168 19 L205 248 L450 248 C462 248 469 254 471 267 L491 387 C492 400 487 406 475 406 L230 406 L251 538 L536 538 C548 538 555 544 557 556 L578 681 C579 694 574 700 562 700 L129 700 C116 700 109 694 108 681 L2 19 C0 6 5 0 18 0 L147 0 Z " />
<glyph glyph-name="G" unicode="G" horiz-adv-x="663" d="M435 169 C410 158 383 152 350 152 C250 152 187 221 187 316 C187 447 300 548 414 548 C453 548 485 540 520 513 C524 510 529 508 533 508 C540 508 547 513 552 520 L634 621 C642 630 644 641 631 648 C583 681 523 710 440 710 C223 710 21 536 21 296 C21 109 162 -10 325 -10 C404 -10 491 9 563 44 C573 49 579 56 581 67 L629 373 C632 384 626 391 614 391 L386 391 C373 391 366 385 364 373 L349 272 C346 261 352 254 364 254 L448 254 L435 169 L435 169 Z " />
<glyph glyph-name="H" unicode="H" horiz-adv-x="676" d="M147 0 C160 0 167 6 168 19 L208 270 L441 270 L401 19 C399 6 404 0 417 0 L546 0 C559 0 566 6 567 19 L673 681 C675 694 670 700 657 700 L528 700 C515 700 508 694 507 681 L468 437 L235 437 L274 681 C276 694 271 700 258 700 L129 700 C116 700 109 694 108 681 L3 19 C1 6 6 0 19 0 L147 0 L147 0 Z " />
<glyph glyph-name="I" unicode="I" horiz-adv-x="278" d="M148 0 C161 0 168 6 169 19 L275 681 C277 694 272 700 259 700 L130 700 C117 700 110 694 109 681 L3 19 C1 6 6 0 19 0 L148 0 L148 0 Z " />
<glyph glyph-name="J" unicode="J" horiz-adv-x="479" d="M489 681 C492 694 487 700 474 700 L345 700 C332 700 325 694 323 681 L254 246 C245 186 215 152 166 152 C137 152 111 160 88 175 C83 178 78 180 73 180 C68 180 64 178 60 173 L-17 73 C-26 60 -22 53 -15 46 C30 7 89 -10 156 -10 C311 -10 396 94 417 229 L489 681 L489 681 Z " />
<glyph glyph-name="K" unicode="K" horiz-adv-x="672" d="M597 0 C610 0 615 8 610 19 L417 403 L699 681 C708 692 707 700 696 700 L528 700 C511 700 499 693 488 682 L236 436 L275 681 C277 694 272 700 259 700 L130 700 C117 700 110 694 109 681 L3 19 C1 6 6 0 19 0 L148 0 C161 0 168 6 169 19 L200 211 L282 289 L418 19 C425 6 433 0 450 0 L597 0 Z " />
<glyph glyph-name="L" unicode="L" horiz-adv-x="472" d="M382 0 C394 0 401 6 403 19 L423 144 C425 156 420 162 407 162 L192 162 L275 681 C277 694 272 700 259 700 L130 700 C117 700 110 694 109 681 L3 19 C1 6 6 0 19 0 L382 0 L382 0 Z " />
<glyph glyph-name="M" unicode="M" horiz-adv-x="879" d="M436 94 C447 94 457 100 464 112 L671 439 L604 19 C602 6 607 0 620 0 L749 0 C761 0 768 6 770 19 L876 681 C878 694 873 700 860 700 L687 700 C676 700 667 697 656 682 L438 337 L328 682 C323 697 314 700 303 700 L130 700 C118 700 111 694 109 681 L3 19 C1 6 6 0 19 0 L148 0 C161 0 168 6 169 19 L236 439 L340 112 C343 100 350 94 362 94 L436 94 L436 94 Z " />
<glyph glyph-name="N" unicode="N" horiz-adv-x="741" d="M611 0 C623 0 630 6 632 19 L738 681 C739 694 733 700 722 700 L593 700 C580 700 573 694 571 681 L508 280 L289 681 C282 693 276 700 260 700 L129 700 C116 700 109 694 108 681 L3 19 C1 6 6 0 18 0 L147 0 C160 0 167 6 168 19 L233 422 L451 19 C458 7 464 0 480 0 L611 0 Z " />
<glyph glyph-name="O" unicode="O" horiz-adv-x="765" d="M440 710 C223 710 21 536 21 296 C21 109 162 -10 325 -10 C541 -10 743 164 743 404 C743 591 603 710 440 710 L440 710 Z M350 152 C250 152 187 221 187 316 C187 447 300 548 414 548 C514 548 577 479 577 384 C577 253 464 152 350 152 L350 152 Z " />
<glyph glyph-name="P" unicode="P" horiz-adv-x="576" d="M148 0 C161 0 168 6 169 19 L203 226 L316 226 C452 226 582 337 582 485 C582 621 489 700 366 700 L130 700 C117 700 110 694 109 681 L3 19 C1 6 6 0 19 0 L148 0 L148 0 Z M253 550 L323 550 C384 550 414 519 414 475 C414 415 366 377 298 377 L226 377 L253 550 Z " />
<glyph glyph-name="Q" unicode="Q" horiz-adv-x="765" d="M487 -152 C489 -158 493 -161 499 -161 C503 -161 508 -159 514 -156 L633 -98 C642 -92 645 -84 641 -73 L580 78 C671 148 743 261 743 404 C743 591 603 710 439 710 C223 710 21 536 21 296 C21 109 162 -10 325 -10 C364 -10 387 -7 424 4 L487 -152 L487 -152 Z M350 152 C250 152 187 221 187 316 C187 447 300 548 414 548 C514 548 577 479 577 384 C577 253 464 152 350 152 L350 152 Z " />
<glyph glyph-name="R" unicode="R" horiz-adv-x="594" d="M329 550 C388 550 416 520 416 477 C416 421 368 378 299 378 L226 378 C231 405 235 429 238 452 C245 491 251 534 254 550 L329 550 L329 550 Z M419 254 C474 277 584 357 584 492 C584 606 501 700 378 700 L130 700 C118 700 111 694 109 681 L3 19 C1 6 6 0 19 0 L148 0 C161 0 168 6 169 19 L203 228 L246 228 L341 19 C348 6 355 0 371 0 L514 0 C527 0 531 8 526 19 L419 254 L419 254 Z " />
<glyph glyph-name="S" unicode="S" horiz-adv-x="530" d="M516 627 C525 638 524 646 514 653 C458 692 398 710 322 710 C171 710 64 620 64 496 C64 285 313 305 313 207 C313 178 288 149 231 149 C187 149 134 170 98 201 C94 204 89 206 85 206 C79 206 73 202 68 197 L-11 98 C-20 87 -16 79 -9 72 C50 21 126 -10 217 -10 C389 -10 480 114 480 225 C480 444 230 420 230 504 C230 533 260 551 299 551 C339 551 364 540 400 517 C405 514 409 513 413 513 C419 513 425 516 429 522 L516 627 Z " />
<glyph glyph-name="T" unicode="T" horiz-adv-x="528" d="M277 0 C289 0 296 6 298 19 L380 538 L543 538 C556 538 563 544 565 556 L585 681 C587 694 582 700 569 700 L65 700 C52 700 45 694 43 681 L23 556 C21 544 26 538 39 538 L214 538 L131 19 C130 6 136 0 147 0 L277 0 L277 0 Z " />
<glyph glyph-name="U" unicode="U" horiz-adv-x="669" d="M116 700 C103 700 96 694 94 681 L30 276 C6 123 93 -10 285 -10 C457 -10 585 108 612 276 L676 681 C679 694 674 700 661 700 L532 700 C519 700 512 694 510 681 L450 307 C435 207 388 152 301 152 C214 152 185 207 201 307 L260 681 C263 694 258 700 245 700 L116 700 L116 700 Z " />
<glyph glyph-name="V" unicode="V" horiz-adv-x="614" d="M336 0 C351 0 360 7 365 20 L673 681 C680 692 676 700 664 700 L526 700 C511 700 501 694 497 681 L288 231 L225 681 C222 694 217 700 201 700 L66 700 C54 700 48 692 51 681 L148 20 C150 7 158 0 172 0 L336 0 L336 0 Z " />
<glyph glyph-name="W" unicode="W" horiz-adv-x="951" d="M712 0 C724 0 732 6 737 19 L1000 681 C1004 692 1004 700 991 700 L847 700 C831 700 825 692 820 681 L665 271 L623 687 C621 696 616 700 607 700 L456 700 C446 700 439 696 436 687 L260 271 L237 681 C236 692 232 700 216 700 L72 700 C60 700 54 692 57 681 L110 19 C111 6 117 0 130 0 L288 0 C303 0 312 6 317 19 L491 443 L531 19 C532 6 539 0 554 0 L712 0 L712 0 Z " />
<glyph glyph-name="X" unicode="X" horiz-adv-x="657" d="M273 684 C269 695 262 700 245 700 L79 700 C67 700 63 690 70 681 L236 353 L-43 19 C-51 8 -49 0 -36 0 L131 0 C148 0 157 7 166 18 L309 209 L386 18 C391 7 398 0 417 0 L590 0 C601 0 608 8 601 19 L428 352 L699 681 C710 694 706 700 695 700 L524 700 C507 700 498 695 490 684 L354 497 L273 684 Z " />
<glyph glyph-name="Y" unicode="Y" horiz-adv-x="591" d="M221 689 C218 696 212 700 203 700 L55 700 C42 700 38 694 45 681 L209 338 L158 19 C157 6 163 0 174 0 L303 0 C316 0 323 6 325 19 L375 338 L649 681 C656 689 654 700 642 700 L490 700 C481 700 474 696 468 689 L310 489 L221 689 L221 689 Z " />
<glyph glyph-name="Z" unicode="Z" horiz-adv-x="578" d="M-23 19 C-25 6 -20 0 -8 0 L472 0 C485 0 492 6 494 19 L514 144 C516 156 511 162 498 162 L222 162 L563 549 C570 556 569 557 572 572 L590 681 C592 694 587 700 574 700 L118 700 C105 700 98 694 97 681 L76 556 C74 544 79 538 92 538 L348 538 L17 161 C4 146 -5 135 -8 116 L-23 19 L-23 19 Z " />
<glyph glyph-name="bracketleft" unicode="&#x5b;" horiz-adv-x="305" d="M190 -130 C202 -130 209 -124 211 -111 L226 -17 C228 -4 223 2 211 2 L130 2 L227 618 L308 618 C320 618 327 624 329 637 L345 731 C346 744 340 750 329 750 L133 750 C121 750 112 742 109 729 L-23 -109 C-26 -122 -17 -130 -6 -130 L190 -130 Z " />
<glyph glyph-name="backslash" unicode="&#x5c;" horiz-adv-x="492" d="M173 682 C168 693 164 700 152 700 L59 700 C47 700 39 693 44 682 L322 18 C326 7 331 0 343 0 L436 0 C448 0 456 7 451 18 L173 682 Z " />
<glyph glyph-name="bracketright" unicode="&#x5d;" horiz-adv-x="305" d="M171 -130 C183 -130 192 -122 195 -109 L328 729 C331 742 322 750 310 750 L114 750 C102 750 95 744 93 731 L77 637 C75 624 80 618 93 618 L174 618 L76 2 L-4 2 C-16 2 -23 -4 -25 -17 L-40 -111 C-42 -124 -37 -130 -25 -130 L171 -130 L171 -130 Z " />
<glyph glyph-name="asciicircum" unicode="&#x5e;" horiz-adv-x="549" d="M397 320 C401 308 409 302 420 302 L523 302 C535 302 543 309 540 320 L421 682 C418 693 414 700 402 700 L270 700 C259 700 256 691 249 682 L11 320 C4 309 13 302 25 302 L134 302 C143 302 152 308 161 320 L319 569 L397 320 Z " />
<glyph glyph-name="underscore" unicode="&#x5f;" horiz-adv-x="535" d="M-11 -45 C-23 -45 -30 -51 -32 -64 L-52 -190 C-54 -202 -49 -208 -36 -208 L432 -208 C444 -208 451 -202 453 -190 L473 -64 C475 -51 470 -45 458 -45 L-11 -45 L-11 -45 Z " />
<glyph glyph-name="grave" unicode="&#x60;" horiz-adv-x="207" d="M229 577 C240 582 240 591 237 600 L176 747 C173 756 167 760 160 760 C158 760 155 760 153 759 L52 724 C39 720 37 710 44 702 L138 553 C142 548 147 545 152 545 C155 545 158 546 161 547 L229 577 L229 577 Z " />
<glyph glyph-name="a" unicode="a" horiz-adv-x="583" d="M163 232 C163 300 216 354 278 354 C333 354 364 313 360 260 C355 193 306 146 246 146 C195 146 163 183 163 232 L163 232 Z M462 0 C475 0 482 6 484 19 L557 481 C559 494 554 500 541 500 L415 500 C402 500 395 494 393 481 L386 441 C359 484 317 510 257 510 C107 510 -1 372 -1 217 C-1 91 60 -10 179 -10 C239 -10 290 19 327 59 L320 19 C318 6 323 0 336 0 L462 0 L462 0 Z " />
<glyph glyph-name="b" unicode="b" horiz-adv-x="590" d="M392 268 C392 200 337 146 276 146 C223 146 190 188 194 240 C199 307 250 354 309 354 C361 354 392 316 392 268 L392 268 Z M140 0 C152 0 159 6 161 19 L168 59 C195 18 238 -10 298 -10 C446 -10 556 128 556 283 C556 408 495 510 375 510 C315 510 267 485 228 442 C236 493 243 540 250 581 C261 650 274 723 274 731 C277 744 272 750 259 750 L132 750 C120 750 113 744 110 731 L-2 19 C-4 6 1 0 13 0 L140 0 L140 0 Z " />
<glyph glyph-name="c" unicode="c" horiz-adv-x="450" d="M329 159 C326 164 322 166 318 166 C315 166 311 165 307 163 C284 152 262 146 239 146 C184 146 157 184 157 232 C157 300 212 354 272 354 C288 354 308 351 332 335 C336 332 340 331 343 331 C348 331 352 334 356 340 L442 436 C450 445 449 457 441 462 C410 485 362 510 297 510 C133 510 -3 380 -3 217 C-3 78 91 -10 214 -10 C275 -10 331 10 374 35 C385 42 388 51 383 60 L329 159 L329 159 Z " />
<glyph glyph-name="d" unicode="d" horiz-adv-x="597" d="M165 232 C165 300 218 354 280 354 C335 354 367 313 362 260 C357 193 308 146 248 146 C197 146 165 183 165 232 L165 232 Z M465 0 C477 0 484 6 486 19 L599 731 C601 744 596 750 584 750 L457 750 C444 750 437 744 435 731 C435 723 421 651 411 580 C404 539 397 492 389 441 C362 484 319 510 259 510 C111 510 1 372 1 217 C1 91 62 -10 182 -10 C242 -10 292 19 329 59 L322 19 C320 6 325 0 338 0 L465 0 L465 0 Z " />
<glyph glyph-name="e" unicode="e" horiz-adv-x="520" d="M239 128 C186 128 152 158 144 197 L464 197 C479 197 484 206 487 217 C514 387 438 510 283 510 C132 510 -5 382 -5 217 C-5 78 90 -10 213 -10 C290 -10 355 10 411 41 C422 46 425 57 421 65 L376 145 C373 150 370 154 363 154 C360 154 356 153 351 151 C312 135 283 128 239 128 L239 128 Z M162 312 C183 359 220 385 263 385 C306 385 335 363 342 312 L162 312 Z " />
<glyph glyph-name="f" unicode="f" horiz-adv-x="391" d="M458 685 C465 694 469 700 458 708 C415 743 366 760 310 760 C199 760 129 693 112 589 L99 500 L49 500 C36 500 29 494 27 481 L9 369 C7 356 12 350 25 350 L75 350 L23 19 C20 6 25 0 38 0 L164 0 C177 0 184 6 187 19 L239 350 L326 350 C339 350 346 356 347 369 L365 481 C367 494 362 500 350 500 L263 500 L270 549 C277 592 302 604 326 604 C341 604 358 599 375 590 C377 589 379 588 381 588 C384 588 387 590 390 593 L458 685 Z " />
<glyph glyph-name="g" unicode="g" horiz-adv-x="596" d="M171 232 C171 300 224 354 286 354 C341 354 373 313 369 260 C364 194 313 154 255 154 C203 154 171 185 171 232 L171 232 Z M566 481 C568 494 563 500 550 500 L423 500 C411 500 404 494 402 481 L396 441 C368 484 325 510 265 510 C116 510 9 365 9 210 C9 87 70 -2 189 -2 C254 -2 300 28 337 67 L329 16 C321 -40 276 -99 183 -99 C140 -99 103 -84 80 -61 C77 -58 75 -56 71 -56 C67 -56 62 -59 56 -65 L-22 -152 C-29 -161 -30 -169 -25 -176 C12 -221 87 -255 167 -255 C355 -255 468 -136 495 33 L566 481 L566 481 Z " />
<glyph glyph-name="h" unicode="h" horiz-adv-x="594" d="M140 0 C152 0 159 6 161 19 L201 264 C206 307 254 354 302 354 C361 354 379 310 371 254 L333 19 C332 8 334 0 349 0 L475 0 C488 0 495 6 497 19 L539 287 C560 422 503 510 387 510 C319 510 266 478 229 442 L275 731 C276 744 270 750 259 750 L132 750 C119 750 112 744 111 731 L-2 19 C-4 6 1 0 13 0 L140 0 L140 0 Z " />
<glyph glyph-name="i" unicode="i" horiz-adv-x="273" d="M140 0 C153 0 160 6 162 19 L235 481 C237 494 232 500 219 500 L93 500 C80 500 73 494 71 481 L-2 19 C-4 6 1 0 14 0 L140 0 L140 0 Z M90 671 C90 620 129 581 180 581 C233 581 274 620 274 671 C274 724 233 765 180 765 C129 765 90 724 90 671 L90 671 Z " />
<glyph glyph-name="j" unicode="j" horiz-adv-x="273" d="M-185 -196 C-191 -207 -190 -215 -181 -219 C-149 -238 -108 -255 -61 -255 C59 -255 135 -176 151 -75 L240 481 C241 492 239 500 224 500 L97 500 C84 500 77 492 76 481 L-7 -42 C-14 -83 -35 -98 -60 -98 C-79 -98 -90 -94 -101 -87 C-103 -86 -106 -85 -108 -85 C-113 -85 -117 -88 -122 -94 L-185 -196 L-185 -196 Z M94 671 C94 620 134 581 185 581 C237 581 278 620 278 671 C278 723 237 765 185 765 C134 765 94 723 94 671 L94 671 Z " />
<glyph glyph-name="k" unicode="k" horiz-adv-x="544" d="M301 18 C306 6 318 0 335 0 L478 0 C490 0 492 8 485 19 L366 288 L549 481 C558 489 558 500 547 500 L393 500 C378 500 370 496 359 485 L213 341 L275 731 C276 744 270 750 259 750 L132 750 C119 750 112 744 111 731 L-2 19 C-4 6 1 0 13 0 L140 0 C152 0 159 6 161 19 L180 136 L226 181 L301 18 L301 18 Z " />
<glyph glyph-name="l" unicode="l" horiz-adv-x="273" d="M140 0 C152 0 159 6 161 19 L275 731 C276 744 270 750 259 750 L132 750 C119 750 112 744 111 731 L-2 19 C-4 6 1 0 13 0 L140 0 L140 0 Z " />
<glyph glyph-name="m" unicode="m" horiz-adv-x="915" d="M93 500 C80 500 73 494 72 481 L-2 19 C-4 6 1 0 14 0 L141 0 C153 0 160 6 162 19 L202 264 C207 307 256 354 301 354 C354 354 372 310 363 254 L326 19 C324 6 329 0 341 0 L468 0 C481 0 488 6 490 19 L529 264 C537 308 582 354 628 354 C681 354 700 309 691 254 L653 19 C651 6 656 0 669 0 L797 0 C808 0 816 8 817 19 L860 287 C881 422 824 510 713 510 C632 510 565 471 513 430 C486 483 443 510 386 510 C321 510 269 476 229 439 C229 440 236 479 236 481 C237 494 231 500 220 500 L93 500 Z " />
<glyph glyph-name="n" unicode="n" horiz-adv-x="595" d="M476 0 C489 0 496 6 498 19 L540 287 C561 420 504 510 388 510 C319 510 266 475 229 436 L236 481 C237 494 231 500 220 500 L93 500 C80 500 73 494 72 481 L-2 19 C-4 6 1 0 14 0 L141 0 C153 0 160 6 162 19 L202 264 C207 307 255 354 303 354 C362 354 380 310 371 254 L334 19 C332 6 337 0 349 0 L476 0 L476 0 Z " />
<glyph glyph-name="o" unicode="o" horiz-adv-x="543" d="M-5 217 C-5 78 90 -10 213 -10 C377 -10 513 120 513 283 C513 422 418 510 296 510 C132 510 -5 380 -5 217 L-5 217 Z M155 232 C155 300 210 354 271 354 C323 354 353 316 353 268 C353 200 299 146 238 146 C186 146 155 184 155 232 L155 232 Z " />
<glyph glyph-name="p" unicode="p" horiz-adv-x="588" d="M390 268 C390 200 336 146 275 146 C220 146 188 188 193 240 C196 307 249 354 307 354 C359 354 390 316 390 268 L390 268 Z M90 500 C78 500 71 494 69 481 L-43 -231 C-46 -244 -41 -250 -29 -250 L98 -250 C111 -250 118 -244 120 -231 C120 -224 133 -152 144 -80 C151 -39 158 8 166 59 C193 18 236 -10 296 -10 C446 -10 554 128 554 283 C554 408 501 510 373 510 C313 510 265 485 226 442 L233 481 C235 494 230 500 217 500 L90 500 Z " />
<glyph glyph-name="q" unicode="q" horiz-adv-x="590" d="M165 232 C165 300 218 354 280 354 C335 354 366 312 363 260 C358 193 307 146 248 146 C197 146 165 183 165 232 L165 232 Z M417 500 C405 500 398 494 396 481 L389 441 C362 484 319 510 259 510 C111 510 1 372 1 217 C1 91 62 -10 182 -10 C242 -10 292 19 329 59 C321 8 314 -39 307 -80 C296 -152 283 -224 283 -231 C280 -244 285 -250 298 -250 L425 -250 C437 -250 444 -244 447 -231 L560 481 C562 494 557 500 544 500 L417 500 L417 500 Z " />
<glyph glyph-name="r" unicode="r" horiz-adv-x="420" d="M93 500 C80 500 73 494 72 481 L-2 19 C-4 6 1 0 14 0 L141 0 C153 0 160 6 162 19 L195 226 C208 309 264 349 320 349 C335 349 349 347 362 342 C366 340 370 339 373 339 C379 339 385 343 388 349 L440 465 C447 478 449 486 438 493 C415 506 386 510 362 510 C307 510 251 466 228 427 L227 427 L236 481 C237 492 235 500 220 500 L93 500 L93 500 Z " />
<glyph glyph-name="s" unicode="s" horiz-adv-x="424" d="M78 162 C73 167 68 169 63 169 C58 169 53 167 47 162 L-18 102 C-29 93 -32 82 -25 71 C14 19 90 -10 165 -10 C290 -10 374 70 374 169 C374 326 179 306 179 352 C179 367 193 374 216 374 C239 374 263 367 286 352 C291 349 295 347 299 347 C303 347 307 349 313 354 L389 423 C399 432 401 440 395 449 C366 481 299 510 227 510 C125 510 29 447 29 347 C29 188 221 205 221 153 C221 136 202 126 173 126 C140 126 113 133 78 162 L78 162 Z " />
<glyph glyph-name="t" unicode="t" horiz-adv-x="401" d="M313 153 C311 158 307 160 302 160 C299 160 297 160 294 159 C277 151 263 146 244 146 C220 146 202 157 209 189 L235 350 L346 350 C358 350 365 356 367 369 L385 481 C387 494 382 500 369 500 L258 500 L278 629 C281 640 278 648 263 648 L136 648 C123 648 116 642 114 629 L94 500 L52 500 C41 500 33 496 30 481 L12 369 C11 357 17 350 28 350 L71 350 L41 167 C25 63 84 -10 194 -10 C235 -10 286 0 333 27 C346 34 347 41 344 50 L313 153 L313 153 Z " />
<glyph glyph-name="u" unicode="u" horiz-adv-x="590" d="M78 500 C66 500 59 494 57 481 L14 213 C-8 79 52 -10 166 -10 C235 -10 287 26 326 65 L319 19 C317 6 322 0 335 0 L462 0 C474 0 481 6 483 19 L556 481 C558 494 553 500 541 500 L414 500 C401 500 394 494 392 481 L353 236 C345 193 301 146 251 146 C194 146 174 190 183 246 L221 481 C223 494 218 500 205 500 L78 500 L78 500 Z " />
<glyph glyph-name="v" unicode="v" horiz-adv-x="502" d="M175 481 C173 494 167 500 157 500 L27 500 C15 500 10 494 12 481 L106 20 C111 1 122 0 125 0 L267 0 C270 0 282 1 291 20 L532 481 C539 492 534 500 523 500 L387 500 C378 500 370 494 364 481 L228 221 L175 481 Z " />
<glyph glyph-name="w" unicode="w" horiz-adv-x="740" d="M181 481 C180 494 173 500 162 500 L35 500 C24 500 20 494 21 481 L35 251 C38 192 42 135 45 92 C47 67 48 43 49 20 C50 7 57 0 68 0 L231 0 C246 0 253 9 257 20 L361 306 L374 20 C377 9 383 0 395 0 L558 0 C569 0 577 9 582 20 L757 481 C762 494 759 500 748 500 L621 500 C610 500 602 494 597 481 L498 209 L479 481 C478 494 472 500 461 500 L323 500 C310 500 302 494 299 481 L246 344 C219 276 193 209 193 209 L181 481 L181 481 Z " />
<glyph glyph-name="x" unicode="x" horiz-adv-x="506" d="M266 15 C269 5 277 0 291 0 L428 0 C439 0 443 10 438 19 L332 250 L512 481 C519 489 517 500 506 500 L369 500 C354 500 347 496 339 485 L251 359 L202 485 C198 495 189 500 176 500 L40 500 C29 500 24 489 29 481 L136 252 L-44 19 C-51 10 -51 0 -40 0 L97 0 C110 0 120 5 128 15 L216 141 L266 15 Z " />
<glyph glyph-name="y" unicode="y" horiz-adv-x="594" d="M560 481 C562 494 557 500 544 500 L418 500 C405 500 398 494 396 481 L358 243 C353 203 305 156 257 156 C200 156 180 200 189 256 L225 481 C227 494 222 500 209 500 L82 500 C70 500 63 494 61 481 L20 223 C-2 89 53 0 172 0 C233 0 304 31 331 66 L322 17 C314 -38 274 -99 182 -99 C139 -99 103 -83 83 -58 C80 -55 77 -53 74 -53 C69 -53 64 -56 59 -62 L-20 -149 C-28 -158 -29 -166 -23 -173 C12 -220 87 -255 167 -255 C354 -255 463 -134 490 34 L560 481 L560 481 Z " />
<glyph glyph-name="z" unicode="z" horiz-adv-x="462" d="M-29 19 C-31 6 -26 0 -14 0 L357 0 C369 0 376 6 378 19 L395 128 C398 140 393 146 380 146 L207 146 L405 367 C420 382 428 397 431 421 L441 481 C443 494 438 500 425 500 L78 500 C65 500 58 494 57 481 L39 372 C37 360 42 354 55 354 L208 354 L6 128 C-9 113 -16 102 -20 81 L-29 19 L-29 19 Z " />
<glyph glyph-name="braceleft" unicode="&#x7b;" horiz-adv-x="315" d="M5 241 C49 241 55 195 47 143 L29 27 C17 -50 52 -95 133 -95 L213 -95 C225 -95 232 -89 234 -76 L242 -22 C245 -9 240 -3 227 -3 L204 -3 C179 -3 167 14 171 39 L187 143 C198 206 194 301 127 301 C189 301 225 388 236 453 L254 564 C258 589 272 608 300 608 L324 608 C336 608 343 614 345 627 L354 681 C356 694 351 700 338 700 L258 700 C186 700 131 669 119 594 L96 453 C89 402 69 362 24 362 C12 362 5 356 2 344 L-11 259 C-13 247 -8 241 5 241 L5 241 Z " />
<glyph glyph-name="bar" unicode="&#x7c;" horiz-adv-x="264" d="M270 702 C272 714 267 720 254 720 L128 720 C115 720 108 714 107 702 L-30 -166 C-32 -178 -27 -184 -14 -184 L111 -184 C123 -184 130 -178 132 -166 L270 702 L270 702 Z " />
<glyph glyph-name="braceright" unicode="&#x7d;" horiz-adv-x="317" d="M290 241 C302 241 309 247 311 259 L324 344 C327 356 322 362 309 362 C265 362 256 402 264 453 L287 594 C299 669 252 700 180 700 L101 700 C89 700 82 694 80 681 L71 627 C69 614 74 608 86 608 L110 608 C138 608 146 589 142 564 L124 453 C113 388 125 301 185 301 C120 301 86 206 75 143 L59 39 C55 14 39 -3 14 -3 L-10 -3 C-22 -3 -29 -9 -31 -22 L-39 -76 C-41 -89 -36 -95 -24 -95 L55 -95 C136 -95 185 -50 197 27 L215 143 C224 195 245 241 290 241 L290 241 Z " />
<glyph glyph-name="asciitilde" unicode="&#x7e;" horiz-adv-x="524" d="M65 193 C89 224 110 238 149 238 C216 238 261 174 335 174 C410 174 463 240 508 287 C517 297 517 306 508 313 L460 354 C456 358 452 359 448 359 C443 359 438 357 433 351 C413 328 393 303 361 303 C302 303 233 364 171 369 C166 369 162 370 157 370 C90 370 32 315 -10 258 C-18 247 -18 239 -9 232 L39 190 C42 187 46 185 50 185 C55 185 60 188 65 193 L65 193 Z " />
<glyph glyph-name="exclamdown" unicode="&#xa1;" horiz-adv-x="237" d="M51 271 C40 271 31 263 30 252 L-49 -181 C-51 -194 -46 -200 -33 -200 L96 -200 C109 -200 116 -194 118 -181 L177 252 C180 264 176 271 161 271 L51 271 L51 271 Z M220 419 C220 470 180 510 129 510 C77 510 36 470 36 419 C36 367 77 326 129 326 C180 326 220 367 220 419 L220 419 Z " />
<glyph glyph-name="cent" unicode="&#xa2;" horiz-adv-x="453" d="M262 -5 C305 2 345 16 376 35 C388 42 391 50 386 60 L332 159 C329 164 325 166 321 166 C318 166 314 165 310 163 C287 152 265 146 242 146 C187 146 160 184 160 232 C160 300 215 354 275 354 C291 354 311 351 334 335 C338 332 342 331 345 331 C350 331 355 334 360 340 L445 436 C453 445 452 456 444 463 C420 482 386 498 343 505 L371 685 C373 697 368 703 355 703 L301 703 C288 703 281 697 279 685 L251 506 C120 487 0 372 0 217 C0 101 62 17 170 -6 L142 -183 C140 -195 145 -201 158 -201 L212 -201 C225 -201 232 -195 234 -183 L262 -5 L262 -5 Z " />
<glyph glyph-name="sterling" unicode="&#xa3;" horiz-adv-x="507" d="M455 126 C457 132 454 135 450 135 C446 135 442 134 437 131 C409 115 382 110 354 110 C298 110 241 130 176 130 C172 130 167 130 162 130 L185 279 L339 279 C350 279 357 285 359 298 L369 361 C371 374 366 380 354 380 L201 380 C215 475 240 573 354 573 C394 573 434 560 468 546 C471 545 473 545 475 545 C486 545 492 556 492 557 L535 641 C536 642 540 656 527 663 C480 684 425 700 369 700 C317 700 265 687 217 655 C116 586 91 502 72 380 L30 380 C19 380 12 374 10 361 L0 298 C-3 286 4 279 15 279 L57 279 L14 14 C12 6 13 0 21 0 C23 0 26 1 30 2 C51 9 73 12 96 12 C168 12 247 -14 323 -14 C356 -14 389 -9 420 6 C435 13 437 19 440 34 L455 126 L455 126 Z " />
<glyph glyph-name="currency" unicode="&#xa4;" horiz-adv-x="535" d="M188 320 C195 363 234 398 277 398 C320 398 350 361 343 320 C336 277 296 243 253 243 C210 243 181 277 188 320 L188 320 Z M388 81 C392 77 396 75 400 75 C405 75 409 77 414 82 L477 134 C486 143 487 152 480 161 L433 221 C456 252 470 288 475 320 C480 353 479 388 464 419 L535 480 C545 488 546 496 539 505 L492 560 C489 565 485 567 480 567 C476 567 471 565 465 560 L396 501 C365 521 332 529 299 529 C270 529 233 523 196 503 L145 563 C141 568 137 570 132 570 C128 570 123 568 118 563 L54 508 C44 499 42 491 49 482 L101 422 C82 395 64 361 57 320 C52 287 54 253 69 220 L0 161 C-11 152 -12 144 -5 135 L42 80 C46 76 51 74 55 74 C59 74 64 76 68 79 L136 138 C163 118 202 111 233 111 C265 111 303 118 338 138 L388 81 L388 81 Z " />
<glyph glyph-name="yen" unicode="&#xa5;" horiz-adv-x="592" d="M159 19 C158 6 164 0 175 0 L305 0 C317 0 324 6 326 19 L345 136 L498 136 C510 136 517 142 519 155 L534 247 C535 259 529 265 518 265 L365 265 L377 338 L529 338 C542 338 549 344 551 357 L565 448 C568 461 563 467 550 467 L479 467 L650 681 C657 689 655 700 646 700 L497 700 C488 700 481 696 476 689 L315 481 L223 689 C220 696 214 700 204 700 L55 700 C46 700 41 689 46 681 L150 467 L77 467 C66 467 58 461 55 448 L41 357 C39 344 44 338 56 338 L210 338 L199 265 L45 265 C32 265 25 259 24 247 L9 155 C7 142 12 136 25 136 L179 136 L159 19 Z " />
<glyph glyph-name="brokenbar" unicode="&#xa6;" horiz-adv-x="262" d="M267 703 C269 715 264 721 251 721 L125 721 C113 721 106 715 104 703 L43 315 C41 303 46 297 58 297 L184 297 C197 297 204 303 206 315 L267 703 L267 703 Z M190 219 C193 231 188 237 175 237 L49 237 C37 237 30 231 27 219 L-33 -169 C-35 -181 -30 -187 -17 -187 L108 -187 C121 -187 128 -181 129 -169 L190 219 L190 219 Z " />
<glyph glyph-name="section" unicode="&#xa7;" horiz-adv-x="521" d="M400 65 C439 104 472 165 472 225 C472 441 222 417 222 504 C222 535 255 551 290 551 C331 551 357 538 392 517 C396 514 400 513 404 513 C411 513 417 516 421 522 L507 627 C516 638 515 646 505 653 C449 692 389 710 314 710 C162 710 55 620 55 496 C55 443 66 418 86 387 C37 348 9 299 9 232 C9 23 258 44 258 -57 C258 -88 232 -115 176 -115 C133 -115 79 -94 43 -63 C39 -60 34 -58 30 -58 C24 -58 18 -62 13 -67 L-66 -166 C-75 -177 -71 -185 -64 -192 C-5 -243 73 -274 162 -274 C330 -274 425 -151 425 -39 C425 4 419 33 400 65 L400 65 Z M274 160 C235 188 175 196 175 240 C175 261 195 277 226 284 C263 263 304 247 304 207 C304 187 291 169 274 160 L274 160 Z " />
<glyph glyph-name="dieresis" unicode="&#xa8;" horiz-adv-x="445" d="M53 571 C53 523 91 485 139 485 C188 485 227 523 227 571 C227 620 188 659 139 659 C91 659 53 620 53 571 L53 571 Z M284 571 C284 523 321 485 370 485 C421 485 459 523 459 571 C459 620 421 659 370 659 C321 659 284 620 284 571 L284 571 Z " />
<glyph glyph-name="copyright" unicode="&#xa9;" horiz-adv-x="815" d="M410 765 C195 765 22 588 22 372 C22 161 195 -17 410 -17 C630 -17 793 161 793 372 C793 588 622 765 410 765 L410 765 Z M410 34 C218 34 73 196 73 372 C73 570 236 714 410 714 C608 714 742 549 742 372 C742 158 575 34 410 34 L410 34 Z M518 206 C526 210 530 220 523 227 L497 263 C493 268 489 270 485 270 C482 270 479 269 475 267 C459 259 441 252 418 252 C350 252 299 306 299 371 C299 436 348 490 418 490 C435 490 457 486 474 477 C477 475 480 474 483 474 C489 474 493 477 497 482 L522 517 C528 525 526 532 517 538 C498 551 461 565 418 565 C311 565 226 479 226 372 C226 265 311 179 418 179 C461 179 493 191 518 206 L518 206 Z " />
<glyph glyph-name="guillemotleft" unicode="&#xab;" horiz-adv-x="539" d="M529 407 C538 416 535 425 523 425 L401 425 C390 425 380 416 372 407 L232 239 C227 234 227 229 227 225 C227 222 228 220 229 218 L316 52 C321 43 329 34 340 34 L461 34 C472 34 477 43 472 52 L380 229 L529 407 Z M286 407 C295 416 292 425 280 425 L157 425 C146 425 137 416 129 407 L-11 239 C-16 234 -16 229 -16 225 C-16 222 -15 220 -14 218 L73 52 C77 43 85 34 96 34 L217 34 C229 34 235 43 228 52 L136 229 L286 407 Z " />
<glyph glyph-name="logicalnot" unicode="&#xac;" horiz-adv-x="548" d="M442 10 C454 10 461 16 463 29 L512 335 L40 335 C28 335 21 329 19 316 L3 213 C1 200 6 194 19 194 L349 194 L322 29 C321 16 327 10 338 10 L442 10 L442 10 Z " />
<glyph glyph-name="uni00AD" unicode="&#xad;" horiz-adv-x="353" d="M41 322 C29 322 22 316 20 303 L0 177 C-2 165 3 159 16 159 L286 159 C298 159 305 165 307 177 L327 303 C329 316 324 322 312 322 L41 322 L41 322 Z " />
<glyph glyph-name="registered" unicode="&#xae;" horiz-adv-x="815" d="M410 765 C195 765 22 588 22 372 C22 161 195 -17 410 -17 C630 -17 793 161 793 372 C793 588 622 765 410 765 L410 765 Z M410 34 C218 34 73 196 73 372 C73 570 236 714 410 714 C608 714 742 549 742 372 C742 158 575 34 410 34 L410 34 Z M417 526 C456 526 482 498 482 463 C482 427 456 399 417 399 L335 399 L335 526 L417 526 L417 526 Z M464 334 C511 350 555 395 555 463 C555 538 494 598 417 598 L275 598 C267 598 263 594 263 586 L263 181 C263 172 267 168 275 168 L323 168 C331 168 335 172 335 181 L335 326 L386 326 L486 180 C491 173 498 168 505 168 L564 168 C571 168 571 175 567 180 L464 334 L464 334 Z " />
<glyph glyph-name="degree" unicode="&#xb0;" horiz-adv-x="367" d="M35 526 C35 430 115 350 211 350 C307 350 387 430 387 526 C387 622 307 702 211 702 C115 702 35 622 35 526 L35 526 Z M135 526 C135 570 167 604 211 604 C255 604 289 570 289 526 C289 482 255 450 211 450 C167 450 135 482 135 526 L135 526 Z " />
<glyph glyph-name="plusminus" unicode="&#xb1;" horiz-adv-x="513" d="M11 154 C-1 154 -8 148 -10 136 L-26 33 C-28 20 -23 14 -11 14 L415 14 C426 14 434 20 437 33 L453 136 C455 148 450 154 438 154 L11 154 L11 154 Z M461 364 C474 364 481 370 483 382 L499 486 C501 498 496 504 484 504 L353 504 L373 634 C376 647 371 653 358 653 L254 653 C242 653 235 647 232 634 L212 504 L79 504 C67 504 60 498 58 486 L42 382 C39 370 43 364 56 364 L190 364 L169 230 C167 218 172 212 185 212 L288 212 C301 212 308 218 309 230 L330 364 L461 364 Z " />
<glyph glyph-name="acute" unicode="&#xb4;" horiz-adv-x="206" d="M118 544 C121 542 124 542 126 542 C132 542 137 545 142 551 L259 700 C266 709 266 718 254 722 L155 759 C153 760 150 760 148 760 C141 760 135 756 130 747 L47 600 C42 589 43 582 51 577 L118 544 L118 544 Z " />
<glyph glyph-name="mu" unicode="&#xb5;" horiz-adv-x="591" d="M165 9 C178 3 194 -1 215 -1 C270 -1 308 26 345 65 L338 19 C336 6 341 0 354 0 L480 0 C493 0 500 6 502 19 L575 481 C577 494 572 500 559 500 L433 500 C420 500 413 494 411 481 L372 236 C364 193 320 146 270 146 C211 146 193 191 202 246 L240 481 C241 492 239 500 224 500 L97 500 C84 500 77 494 76 481 L-37 -231 C-39 -244 -34 -250 -22 -250 L105 -250 C117 -250 124 -244 126 -231 L165 9 Z " />
<glyph glyph-name="paragraph" unicode="&#xb6;" horiz-adv-x="634" d="M336 -214 C334 -226 339 -232 352 -232 L443 -232 C456 -232 463 -226 465 -214 L586 553 L641 553 C654 553 661 559 663 572 L677 663 C679 676 674 682 662 682 L265 682 C143 682 31 583 31 453 C31 354 101 278 201 278 L123 -214 C121 -226 126 -232 139 -232 L230 -232 C243 -232 250 -226 251 -214 L373 553 L457 553 L336 -214 L336 -214 Z " />
<glyph glyph-name="periodcentered" unicode="&#xb7;" horiz-adv-x="215" d="M12 325 C12 274 52 234 103 234 C155 234 197 274 197 325 C197 377 155 419 103 419 C52 419 12 377 12 325 L12 325 Z " />
<glyph glyph-name="cedilla" unicode="&#xb8;" horiz-adv-x="204" d="M-62 -160 C-66 -168 -61 -174 -52 -174 L62 -174 C73 -174 81 -169 85 -160 L137 1 C140 10 137 14 129 14 L35 14 C26 14 20 7 16 0 L-62 -160 Z " />
<glyph glyph-name="ordmasculine" unicode="&#xba;" horiz-adv-x="549" d="M1 217 C1 78 96 -10 219 -10 C383 -10 519 120 519 283 C519 422 424 510 302 510 C138 510 1 380 1 217 L1 217 Z M161 232 C161 300 216 354 277 354 C329 354 359 316 359 268 C359 200 305 146 244 146 C192 146 161 184 161 232 L161 232 Z " />
<glyph glyph-name="guillemotright" unicode="&#xbb;" horiz-adv-x="528" d="M-23 52 C-32 43 -29 34 -17 34 L104 34 C115 34 125 43 133 52 L272 218 L275 225 C276 229 278 234 275 239 L189 407 C184 416 176 425 165 425 L43 425 C31 425 26 416 31 407 L124 229 L-23 52 Z M221 52 C212 43 215 34 227 34 L348 34 C359 34 368 43 376 52 L516 218 L519 225 C520 229 522 234 519 239 L432 407 C428 416 420 425 409 425 L286 425 C274 425 270 416 275 407 L368 229 L221 52 Z " />
<glyph glyph-name="questiondown" unicode="&#xbf;" horiz-adv-x="414" d="M316 182 C313 188 309 191 305 191 C301 191 297 189 292 186 C259 165 226 152 199 152 C170 152 159 165 159 184 C159 241 296 257 323 431 L326 447 C329 460 328 471 313 471 L188 471 C171 471 167 462 164 447 L162 431 C142 317 -12 267 -12 141 C-12 52 53 -10 160 -10 C229 -10 294 14 357 53 C368 61 371 69 366 78 L316 182 L316 182 Z M360 619 C360 670 320 710 269 710 C217 710 176 670 176 619 C176 567 217 526 269 526 C320 526 360 567 360 619 L360 619 Z " />
<glyph glyph-name="Agrave" unicode="&#xc0;" horiz-adv-x="632" d="M98 0 C113 0 123 6 127 19 L176 131 L388 131 L401 19 C404 4 412 0 425 0 L561 0 C574 0 578 6 575 19 L478 681 C476 694 469 700 458 700 L287 700 C275 700 267 694 262 681 L-46 19 C-53 6 -50 0 -37 0 L98 0 L98 0 Z M237 285 L343 510 L377 285 L237 285 Z M413 774 C424 779 424 788 421 797 L360 944 C357 953 351 957 344 957 C342 957 339 957 337 956 L236 921 C223 917 221 907 228 899 L322 750 C326 745 331 742 336 742 C339 742 342 743 345 744 L413 774 L413 774 Z " />
<glyph glyph-name="Aacute" unicode="&#xc1;" horiz-adv-x="632" d="M98 0 C113 0 123 6 127 19 L176 131 L388 131 L401 19 C404 4 412 0 425 0 L561 0 C574 0 578 6 575 19 L478 681 C476 694 469 700 458 700 L287 700 C275 700 267 694 262 681 L-46 19 C-53 6 -50 0 -37 0 L98 0 L98 0 Z M237 285 L343 510 L377 285 L237 285 Z M393 741 C396 739 399 739 401 739 C407 739 412 742 417 748 L534 897 C541 906 541 915 529 919 L430 956 C428 957 425 957 423 957 C416 957 410 953 405 944 L322 797 C317 786 318 779 326 774 L393 741 L393 741 Z " />
<glyph glyph-name="Acircumflex" unicode="&#xc2;" horiz-adv-x="632" d="M98 0 C113 0 123 6 127 19 L176 131 L388 131 L401 19 C404 4 412 0 425 0 L561 0 C574 0 578 6 575 19 L478 681 C476 694 469 700 458 700 L287 700 C275 700 267 694 262 681 L-46 19 C-53 6 -50 0 -37 0 L98 0 L98 0 Z M237 285 L343 510 L377 285 L237 285 Z M367 945 C352 945 341 937 330 926 L210 811 C202 804 201 795 208 785 L238 739 C241 735 245 733 249 733 C255 733 261 736 265 740 L389 830 L482 740 C486 736 491 733 496 733 C501 733 505 735 509 739 L553 785 C561 792 567 802 560 811 L476 926 C469 937 459 945 444 945 L367 945 L367 945 Z " />
<glyph glyph-name="Atilde" unicode="&#xc3;" horiz-adv-x="632" d="M98 0 C113 0 123 6 127 19 L176 131 L388 131 L401 19 C404 4 412 0 425 0 L561 0 C574 0 578 6 575 19 L478 681 C476 694 469 700 458 700 L287 700 C275 700 267 694 262 681 L-46 19 C-53 6 -50 0 -37 0 L98 0 L98 0 Z M237 285 L343 510 L377 285 L237 285 Z M465 886 C418 886 407 937 337 937 C302 937 257 913 218 886 C206 879 204 872 203 859 L198 782 C197 775 198 770 202 770 C205 770 209 772 214 775 C249 800 278 822 309 822 C356 822 366 771 436 771 C471 771 518 794 557 821 C568 829 569 835 570 848 L576 926 C576 933 574 937 570 937 C568 937 564 935 560 932 C525 908 494 886 465 886 L465 886 Z " />
<glyph glyph-name="Adieresis" unicode="&#xc4;" horiz-adv-x="625" d="M98 0 C113 0 123 6 127 19 L176 131 L388 131 L401 19 C404 4 412 0 425 0 L561 0 C574 0 578 6 575 19 L478 681 C476 694 469 700 458 700 L287 700 C275 700 267 694 262 681 L-46 19 C-53 6 -50 0 -37 0 L98 0 L98 0 Z M237 285 L343 510 L377 285 L237 285 Z M196 843 C196 795 234 757 282 757 C331 757 370 795 370 843 C370 892 331 931 282 931 C234 931 196 892 196 843 L196 843 Z M427 843 C427 795 464 757 513 757 C564 757 602 795 602 843 C602 892 564 931 513 931 C464 931 427 892 427 843 L427 843 Z " />
<glyph glyph-name="Aring" unicode="&#xc5;" horiz-adv-x="632" d="M98 0 C113 0 123 6 127 19 L176 131 L388 131 L401 19 C404 4 412 0 425 0 L561 0 C574 0 578 6 575 19 L478 681 C476 694 469 700 458 700 L287 700 C275 700 267 694 262 681 L-46 19 C-53 6 -50 0 -37 0 L98 0 L98 0 Z M237 285 L343 510 L377 285 L237 285 Z M259 861 C259 788 319 728 392 728 C464 728 524 788 524 861 C524 933 464 993 392 993 C319 993 259 933 259 861 L259 861 Z M356 861 C356 881 372 897 392 897 C412 897 428 881 428 861 C428 841 412 825 392 825 C372 825 356 841 356 861 L356 861 Z " />
<glyph glyph-name="AE" unicode="&#xc6;" horiz-adv-x="880" d="M291 284 L433 522 L435 522 L397 284 L291 284 Z M105 0 C116 0 123 8 130 19 L199 131 L373 131 L355 19 C355 16 353 0 371 0 L767 0 C779 0 786 6 788 19 L808 144 C809 153 806 162 793 162 L555 162 L572 271 L774 271 C787 271 795 277 797 290 L815 410 C817 423 812 429 800 429 L597 429 L614 538 L851 538 C864 538 871 544 873 556 L893 681 C894 692 889 700 877 700 L383 700 C371 700 366 694 362 687 L-45 19 C-52 6 -48 0 -34 0 L105 0 Z " />
<glyph glyph-name="Ccedilla" unicode="&#xc7;" horiz-adv-x="609" d="M170 -160 C166 -167 172 -174 181 -174 L294 -174 C304 -174 311 -169 316 -160 L365 -8 C433 -1 478 16 531 45 C543 52 545 62 540 73 L489 176 C485 183 480 186 474 186 C471 186 466 185 462 182 C425 158 381 152 354 152 C253 152 190 221 190 316 C190 447 304 548 417 548 C458 548 486 538 514 521 C518 519 522 518 525 518 C533 518 540 522 545 528 L628 630 C635 639 636 649 625 656 C577 688 518 710 442 710 C226 710 25 536 25 296 C25 153 109 35 252 0 L170 -160 L170 -160 Z " />
<glyph glyph-name="Egrave" unicode="&#xc8;" horiz-adv-x="536" d="M129 700 C116 700 109 694 108 681 L2 19 C1 8 5 0 18 0 L423 0 C435 0 443 8 444 19 L464 144 C466 156 461 162 448 162 L191 162 L208 271 L429 271 C442 271 449 277 451 290 L469 410 C471 423 466 429 454 429 L234 429 L251 538 L506 538 C519 538 526 544 528 556 L548 681 C549 692 544 700 532 700 L129 700 L129 700 Z M386 774 C397 779 397 788 394 797 L333 944 C330 953 324 957 317 957 C315 957 312 957 310 956 L209 921 C196 917 194 907 201 899 L295 750 C299 745 304 742 309 742 C312 742 315 743 318 744 L386 774 L386 774 Z " />
<glyph glyph-name="Eacute" unicode="&#xc9;" horiz-adv-x="535" d="M129 700 C116 700 109 694 108 681 L2 19 C1 8 5 0 18 0 L423 0 C435 0 443 8 444 19 L464 144 C466 156 461 162 448 162 L191 162 L208 271 L429 271 C442 271 449 277 451 290 L469 410 C471 423 466 429 454 429 L234 429 L251 538 L506 538 C519 538 526 544 528 556 L548 681 C549 692 544 700 532 700 L129 700 L129 700 Z M349 741 C352 739 355 739 357 739 C363 739 368 742 373 748 L490 897 C497 906 497 915 485 919 L386 956 C384 957 381 957 379 957 C372 957 366 953 361 944 L278 797 C273 786 274 779 282 774 L349 741 L349 741 Z " />
<glyph glyph-name="Ecircumflex" unicode="&#xca;" horiz-adv-x="535" d="M129 700 C116 700 109 694 108 681 L2 19 C1 8 5 0 18 0 L423 0 C435 0 443 8 444 19 L464 144 C466 156 461 162 448 162 L191 162 L208 271 L429 271 C442 271 449 277 451 290 L469 410 C471 423 466 429 454 429 L234 429 L251 538 L506 538 C519 538 526 544 528 556 L548 681 C549 692 544 700 532 700 L129 700 L129 700 Z M326 946 C311 946 300 938 289 927 L169 812 C161 805 160 796 167 786 L197 740 C200 736 204 734 208 734 C214 734 220 737 224 741 L348 831 L441 741 C445 737 450 734 455 734 C460 734 464 736 468 740 L512 786 C520 793 526 803 519 812 L435 927 C428 938 418 946 403 946 L326 946 L326 946 Z " />
<glyph glyph-name="Edieresis" unicode="&#xcb;" horiz-adv-x="549" d="M129 700 C116 700 109 694 108 681 L2 19 C1 8 5 0 18 0 L423 0 C435 0 443 8 444 19 L464 144 C466 156 461 162 448 162 L191 162 L208 271 L429 271 C442 271 449 277 451 290 L469 410 C471 423 466 429 454 429 L234 429 L251 538 L506 538 C519 538 526 544 528 556 L548 681 C549 692 544 700 532 700 L129 700 L129 700 Z M145 843 C145 795 183 757 231 757 C280 757 319 795 319 843 C319 892 280 931 231 931 C183 931 145 892 145 843 L145 843 Z M376 843 C376 795 413 757 462 757 C513 757 551 795 551 843 C551 892 513 931 462 931 C413 931 376 892 376 843 L376 843 Z " />
<glyph glyph-name="Igrave" unicode="&#xcc;" horiz-adv-x="278" d="M148 0 C161 0 168 6 169 19 L275 681 C277 694 272 700 259 700 L130 700 C117 700 110 694 109 681 L3 19 C1 6 6 0 19 0 L148 0 L148 0 Z M241 774 C252 779 252 788 249 797 L188 944 C185 953 179 957 172 957 C170 957 167 957 165 956 L64 921 C51 917 49 907 56 899 L150 750 C154 745 159 742 164 742 C167 742 170 743 173 744 L241 774 L241 774 Z " />
<glyph glyph-name="Iacute" unicode="&#xcd;" horiz-adv-x="280" d="M148 0 C161 0 168 6 169 19 L275 681 C277 694 272 700 259 700 L130 700 C117 700 110 694 109 681 L3 19 C1 6 6 0 19 0 L148 0 L148 0 Z M223 742 C226 740 229 740 231 740 C237 740 242 743 247 749 L364 898 C371 907 371 916 359 920 L260 957 C258 958 255 958 253 958 C246 958 240 954 235 945 L152 798 C147 787 148 780 156 775 L223 742 L223 742 Z " />
<glyph glyph-name="Icircumflex" unicode="&#xce;" horiz-adv-x="275" d="M150 0 C163 0 170 6 171 19 L277 681 C279 694 274 700 261 700 L132 700 C119 700 112 694 111 681 L5 19 C3 6 8 0 21 0 L150 0 L150 0 Z M198 946 C183 946 172 938 161 927 L41 812 C33 805 32 796 39 786 L69 740 C72 736 76 734 80 734 C86 734 92 737 96 741 L220 831 L313 741 C317 737 322 734 327 734 C332 734 336 736 340 740 L384 786 C392 793 398 803 391 812 L307 927 C300 938 290 946 275 946 L198 946 L198 946 Z " />
<glyph glyph-name="Idieresis" unicode="&#xcf;" horiz-adv-x="275" d="M148 0 C161 0 168 6 169 19 L275 681 C277 694 272 700 259 700 L130 700 C117 700 110 694 109 681 L3 19 C1 6 6 0 19 0 L148 0 L148 0 Z M11 843 C11 795 49 757 97 757 C146 757 185 795 185 843 C185 892 146 931 97 931 C49 931 11 892 11 843 L11 843 Z M242 843 C242 795 279 757 328 757 C379 757 417 795 417 843 C417 892 379 931 328 931 C279 931 242 892 242 843 L242 843 Z " />
<glyph glyph-name="Eth" unicode="&#xd0;" horiz-adv-x="705" d="M5 19 C4 6 10 0 21 0 L276 0 C502 0 683 163 683 404 C683 589 567 700 379 700 L132 700 C120 700 113 694 111 681 L68 412 L30 412 C18 412 12 405 9 394 L-4 309 C-6 297 -1 291 11 291 L48 291 L5 19 Z M254 538 L355 538 C459 538 518 480 518 384 C518 253 426 162 295 162 L195 162 L215 291 L291 291 C302 291 311 298 314 309 L327 394 C329 406 324 412 311 412 L234 412 L254 538 Z " />
<glyph glyph-name="Ntilde" unicode="&#xd1;" horiz-adv-x="739" d="M611 0 C623 0 630 6 632 19 L738 681 C739 694 733 700 722 700 L593 700 C580 700 573 694 571 681 L508 280 L289 681 C282 693 276 700 260 700 L129 700 C116 700 109 694 108 681 L3 19 C1 6 6 0 18 0 L147 0 C160 0 167 6 168 19 L233 422 L451 19 C458 7 464 0 480 0 L611 0 Z M513 886 C466 886 455 937 385 937 C350 937 305 913 266 886 C254 879 252 872 251 859 L246 782 C245 775 246 770 250 770 C253 770 257 772 262 775 C297 800 326 822 357 822 C404 822 414 771 484 771 C519 771 566 794 605 821 C616 829 617 835 618 848 L624 926 C624 933 622 937 618 937 C616 937 612 935 608 932 C573 908 542 886 513 886 L513 886 Z " />
<glyph glyph-name="Ograve" unicode="&#xd2;" horiz-adv-x="765" d="M440 710 C223 710 21 536 21 296 C21 109 162 -10 325 -10 C541 -10 743 164 743 404 C743 591 603 710 440 710 L440 710 Z M350 152 C250 152 187 221 187 316 C187 447 300 548 414 548 C514 548 577 479 577 384 C577 253 464 152 350 152 L350 152 Z M488 775 C499 780 499 789 496 798 L435 945 C432 954 426 958 419 958 C417 958 414 958 412 957 L311 922 C298 918 296 908 303 900 L397 751 C401 746 406 743 411 743 C414 743 417 744 420 745 L488 775 L488 775 Z " />
<glyph glyph-name="Oacute" unicode="&#xd3;" horiz-adv-x="765" d="M440 710 C223 710 21 536 21 296 C21 109 162 -10 325 -10 C541 -10 743 164 743 404 C743 591 603 710 440 710 L440 710 Z M350 152 C250 152 187 221 187 316 C187 447 300 548 414 548 C514 548 577 479 577 384 C577 253 464 152 350 152 L350 152 Z M462 742 C465 740 468 740 470 740 C476 740 481 743 486 749 L603 898 C610 907 610 916 598 920 L499 957 C497 958 494 958 492 958 C485 958 479 954 474 945 L391 798 C386 787 387 780 395 775 L462 742 L462 742 Z " />
<glyph glyph-name="Ocircumflex" unicode="&#xd4;" horiz-adv-x="765" d="M440 710 C223 710 21 536 21 296 C21 109 162 -10 325 -10 C541 -10 743 164 743 404 C743 591 603 710 440 710 L440 710 Z M350 152 C250 152 187 221 187 316 C187 447 300 548 414 548 C514 548 577 479 577 384 C577 253 464 152 350 152 L350 152 Z M437 946 C422 946 411 938 400 927 L280 812 C272 805 271 796 278 786 L308 740 C311 736 315 734 319 734 C325 734 331 737 335 741 L459 831 L552 741 C556 737 561 734 566 734 C571 734 575 736 579 740 L623 786 C631 793 637 803 630 812 L546 927 C539 938 529 946 514 946 L437 946 L437 946 Z " />
<glyph glyph-name="Otilde" unicode="&#xd5;" horiz-adv-x="765" d="M440 710 C223 710 21 536 21 296 C21 109 162 -10 325 -10 C541 -10 743 164 743 404 C743 591 603 710 440 710 L440 710 Z M350 152 C250 152 187 221 187 316 C187 447 300 548 414 548 C514 548 577 479 577 384 C577 253 464 152 350 152 L350 152 Z M540 886 C493 886 482 937 412 937 C377 937 332 913 293 886 C281 879 279 872 278 859 L273 782 C272 775 273 770 277 770 C280 770 284 772 289 775 C324 800 353 822 384 822 C431 822 441 771 511 771 C546 771 593 794 632 821 C643 829 644 835 645 848 L651 926 C651 933 649 937 645 937 C643 937 639 935 635 932 C600 908 569 886 540 886 L540 886 Z " />
<glyph glyph-name="Odieresis" unicode="&#xd6;" horiz-adv-x="765" d="M440 710 C223 710 21 536 21 296 C21 109 162 -10 325 -10 C541 -10 743 164 743 404 C743 591 603 710 440 710 L440 710 Z M350 152 C250 152 187 221 187 316 C187 447 300 548 414 548 C514 548 577 479 577 384 C577 253 464 152 350 152 L350 152 Z M262 843 C262 795 300 757 348 757 C397 757 436 795 436 843 C436 892 397 931 348 931 C300 931 262 892 262 843 L262 843 Z M493 843 C493 795 530 757 579 757 C630 757 668 795 668 843 C668 892 630 931 579 931 C530 931 493 892 493 843 L493 843 Z " />
<glyph glyph-name="multiply" unicode="&#xd7;" horiz-adv-x="443" d="M405 379 C414 388 414 397 405 406 L331 479 C327 484 322 486 318 486 C314 486 310 484 306 479 L213 386 L122 478 C118 483 113 485 109 485 C104 485 100 483 95 478 L22 405 C13 396 13 388 22 379 L113 287 L19 193 C10 184 10 175 19 167 L93 94 C97 89 102 87 106 87 C110 87 115 89 119 93 L213 187 L307 93 C311 89 316 87 320 87 C325 87 329 89 334 94 L406 167 C415 175 415 184 406 193 L313 287 L405 379 Z " />
<glyph glyph-name="Oslash" unicode="&#xd8;" horiz-adv-x="765" d="M231 200 C199 232 187 273 187 316 C187 447 300 548 414 548 C446 548 471 542 495 530 L231 200 Z M721 724 C726 733 722 737 709 737 L674 737 C666 737 659 733 652 724 L604 665 C557 693 503 710 439 710 C223 710 21 536 21 296 C21 212 49 129 121 65 L55 -17 C48 -26 56 -30 64 -30 L104 -30 C111 -30 117 -26 123 -17 L163 34 C206 9 260 -10 325 -10 C569 -10 743 185 743 404 C743 487 716 566 647 633 L721 724 L721 724 Z M537 497 C566 465 577 427 577 384 C577 253 464 152 350 152 C323 152 293 158 273 169 L537 497 Z " />
<glyph glyph-name="Ugrave" unicode="&#xd9;" horiz-adv-x="670" d="M118 700 C105 700 98 694 96 681 L32 276 C8 123 95 -10 287 -10 C459 -10 587 108 614 276 L678 681 C681 694 676 700 663 700 L534 700 C521 700 514 694 512 681 L452 307 C437 207 390 152 303 152 C216 152 187 207 203 307 L262 681 C265 694 260 700 247 700 L118 700 L118 700 Z M448 774 C459 779 459 788 456 797 L395 944 C392 953 386 957 379 957 C377 957 374 957 372 956 L271 921 C258 917 256 907 263 899 L357 750 C361 745 366 742 371 742 C374 742 377 743 380 744 L448 774 L448 774 Z " />
<glyph glyph-name="Uacute" unicode="&#xda;" horiz-adv-x="670" d="M118 700 C105 700 98 694 96 681 L32 276 C8 123 95 -10 287 -10 C459 -10 587 108 614 276 L678 681 C681 694 676 700 663 700 L534 700 C521 700 514 694 512 681 L452 307 C437 207 390 152 303 152 C216 152 187 207 203 307 L262 681 C265 694 260 700 247 700 L118 700 L118 700 Z M405 742 C408 740 411 740 413 740 C419 740 424 743 429 749 L546 898 C553 907 553 916 541 920 L442 957 C440 958 437 958 435 958 C428 958 422 954 417 945 L334 798 C329 787 330 780 338 775 L405 742 L405 742 Z " />
<glyph glyph-name="Ucircumflex" unicode="&#xdb;" horiz-adv-x="670" d="M118 700 C105 700 98 694 96 681 L32 276 C8 123 95 -10 287 -10 C459 -10 587 108 614 276 L678 681 C681 694 676 700 663 700 L534 700 C521 700 514 694 512 681 L452 307 C437 207 390 152 303 152 C216 152 187 207 203 307 L262 681 C265 694 260 700 247 700 L118 700 L118 700 Z M388 946 C373 946 362 938 351 927 L231 812 C223 805 222 796 229 786 L259 740 C262 736 266 734 270 734 C276 734 282 737 286 741 L410 831 L503 741 C507 737 512 734 517 734 C522 734 526 736 530 740 L574 786 C582 793 588 803 581 812 L497 927 C490 938 480 946 465 946 L388 946 L388 946 Z " />
<glyph glyph-name="Udieresis" unicode="&#xdc;" horiz-adv-x="670" d="M118 700 C105 700 98 694 96 681 L32 276 C8 123 95 -10 287 -10 C459 -10 587 108 614 276 L678 681 C681 694 676 700 663 700 L534 700 C521 700 514 694 512 681 L452 307 C437 207 390 152 303 152 C216 152 187 207 203 307 L262 681 C265 694 260 700 247 700 L118 700 L118 700 Z M205 843 C205 795 243 757 291 757 C340 757 379 795 379 843 C379 892 340 931 291 931 C243 931 205 892 205 843 L205 843 Z M436 843 C436 795 473 757 522 757 C573 757 611 795 611 843 C611 892 573 931 522 931 C473 931 436 892 436 843 L436 843 Z " />
<glyph glyph-name="Yacute" unicode="&#xdd;" horiz-adv-x="591" d="M221 689 C218 696 212 700 203 700 L55 700 C42 700 38 694 45 681 L209 338 L158 19 C157 6 163 0 174 0 L303 0 C316 0 323 6 325 19 L375 338 L649 681 C656 689 654 700 642 700 L490 700 C481 700 474 696 468 689 L310 489 L221 689 L221 689 Z M371 740 C374 738 377 738 379 738 C385 738 390 741 395 747 L512 896 C519 905 519 914 507 918 L408 955 C406 956 403 956 401 956 C394 956 388 952 383 943 L300 796 C295 785 296 778 304 773 L371 740 L371 740 Z " />
<glyph glyph-name="Thorn" unicode="&#xde;" horiz-adv-x="565" d="M235 454 L307 454 C367 454 398 423 398 379 C398 319 350 281 282 281 L209 281 L235 454 Z M1 19 C-1 6 4 0 16 0 L145 0 C158 0 165 6 166 19 L184 131 L299 131 C438 131 565 241 565 390 C565 526 472 604 349 604 L259 604 L280 731 C282 744 277 750 264 750 L135 750 C122 750 115 744 113 731 L1 19 L1 19 Z " />
<glyph glyph-name="germandbls" unicode="&#xdf;" horiz-adv-x="583" d="M203 0 C218 -1 232 -2 246 -2 C433 -2 546 98 546 256 C546 336 505 388 440 411 C504 443 546 517 546 580 C546 684 466 750 358 750 C201 750 103 672 78 505 L1 15 C0 7 4 0 12 0 L151 0 C160 0 166 5 167 15 L245 505 C253 554 277 590 324 590 C361 590 377 571 377 544 C377 505 334 483 290 483 C281 483 275 479 273 470 L252 334 C249 325 253 317 261 317 C324 317 381 304 381 248 C381 194 334 165 262 165 C253 165 243 166 232 167 C221 167 217 162 215 152 C214 149 209 116 204 83 L194 18 C191 7 194 1 203 0 L203 0 Z " />
<glyph glyph-name="agrave" unicode="&#xe0;" horiz-adv-x="583" d="M161 232 C161 300 214 354 276 354 C331 354 362 313 358 260 C353 193 304 146 244 146 C193 146 161 183 161 232 L161 232 Z M460 0 C473 0 480 6 482 19 L555 481 C557 494 552 500 539 500 L413 500 C400 500 393 494 391 481 L384 441 C357 484 315 510 255 510 C105 510 -3 372 -3 217 C-3 91 58 -10 177 -10 C237 -10 288 19 325 59 L318 19 C316 6 321 0 334 0 L460 0 L460 0 Z M363 577 C374 582 374 591 371 600 L310 747 C307 756 301 760 294 760 C292 760 289 760 287 759 L186 724 C173 720 171 710 178 702 L272 553 C276 548 281 545 286 545 C289 545 292 546 295 547 L363 577 L363 577 Z " />
<glyph glyph-name="aacute" unicode="&#xe1;" horiz-adv-x="583" d="M161 232 C161 300 214 354 276 354 C331 354 362 313 358 260 C353 193 304 146 244 146 C193 146 161 183 161 232 L161 232 Z M460 0 C473 0 480 6 482 19 L555 481 C557 494 552 500 539 500 L413 500 C400 500 393 494 391 481 L384 441 C357 484 315 510 255 510 C105 510 -3 372 -3 217 C-3 91 58 -10 177 -10 C237 -10 288 19 325 59 L318 19 C316 6 321 0 334 0 L460 0 L460 0 Z M307 544 C310 542 313 542 315 542 C321 542 326 545 331 551 L448 700 C455 709 455 718 443 722 L344 759 C342 760 339 760 337 760 C330 760 324 756 319 747 L236 600 C231 589 232 582 240 577 L307 544 L307 544 Z " />
<glyph glyph-name="acircumflex" unicode="&#xe2;" horiz-adv-x="583" d="M161 232 C161 300 214 354 276 354 C331 354 362 313 358 260 C353 193 304 146 244 146 C193 146 161 183 161 232 L161 232 Z M460 0 C473 0 480 6 482 19 L555 481 C557 494 552 500 539 500 L413 500 C400 500 393 494 391 481 L384 441 C357 484 315 510 255 510 C105 510 -3 372 -3 217 C-3 91 58 -10 177 -10 C237 -10 288 19 325 59 L318 19 C316 6 321 0 334 0 L460 0 L460 0 Z M304 749 C289 749 278 741 267 730 L147 615 C139 608 138 599 145 589 L175 543 C178 539 182 537 186 537 C192 537 198 540 202 544 L326 634 L419 544 C423 540 428 537 433 537 C438 537 442 539 446 543 L490 589 C498 596 504 606 497 615 L413 730 C406 741 396 749 381 749 L304 749 L304 749 Z " />
<glyph glyph-name="atilde" unicode="&#xe3;" horiz-adv-x="584" d="M163 232 C163 300 216 354 278 354 C333 354 364 313 360 260 C355 193 306 146 246 146 C195 146 163 183 163 232 L163 232 Z M462 0 C475 0 482 6 484 19 L557 481 C559 494 554 500 541 500 L415 500 C402 500 395 494 393 481 L386 441 C359 484 317 510 257 510 C107 510 -1 372 -1 217 C-1 91 60 -10 179 -10 C239 -10 290 19 327 59 L320 19 C318 6 323 0 336 0 L462 0 L462 0 Z M409 694 C362 694 351 745 281 745 C246 745 201 721 162 694 C150 687 148 680 147 667 L142 590 C141 583 142 578 146 578 C149 578 153 580 158 583 C193 608 222 630 253 630 C300 630 310 579 380 579 C415 579 462 602 501 629 C512 637 513 643 514 656 L520 734 C520 741 518 745 514 745 C512 745 508 743 504 740 C469 716 438 694 409 694 L409 694 Z " />
<glyph glyph-name="adieresis" unicode="&#xe4;" horiz-adv-x="584" d="M163 232 C163 300 216 354 278 354 C333 354 364 313 360 260 C355 193 306 146 246 146 C195 146 163 183 163 232 L163 232 Z M462 0 C475 0 482 6 484 19 L557 481 C559 494 554 500 541 500 L415 500 C402 500 395 494 393 481 L386 441 C359 484 317 510 257 510 C107 510 -1 372 -1 217 C-1 91 60 -10 179 -10 C239 -10 290 19 327 59 L320 19 C318 6 323 0 336 0 L462 0 L462 0 Z M130 645 C130 597 168 559 216 559 C265 559 304 597 304 645 C304 694 265 733 216 733 C168 733 130 694 130 645 L130 645 Z M361 645 C361 597 398 559 447 559 C498 559 536 597 536 645 C536 694 498 733 447 733 C398 733 361 694 361 645 L361 645 Z " />
<glyph glyph-name="aring" unicode="&#xe5;" horiz-adv-x="584" d="M163 232 C163 300 216 354 278 354 C333 354 364 313 360 260 C355 193 306 146 246 146 C195 146 163 183 163 232 L163 232 Z M462 0 C475 0 482 6 484 19 L557 481 C559 494 554 500 541 500 L415 500 C402 500 395 494 393 481 L386 441 C359 484 317 510 257 510 C107 510 -1 372 -1 217 C-1 91 60 -10 179 -10 C239 -10 290 19 327 59 L320 19 C318 6 323 0 336 0 L462 0 L462 0 Z M199 673 C199 600 259 540 332 540 C404 540 464 600 464 673 C464 745 404 805 332 805 C259 805 199 745 199 673 L199 673 Z M296 673 C296 693 312 709 332 709 C352 709 368 693 368 673 C368 653 352 637 332 637 C312 637 296 653 296 673 L296 673 Z " />
<glyph glyph-name="ae" unicode="&#xe6;" horiz-adv-x="874" d="M510 312 C531 359 568 385 611 385 C654 385 683 363 690 312 L510 312 Z M377 94 C406 43 469 -10 561 -10 C634 -10 691 5 760 41 C768 45 775 54 770 65 L725 145 C722 151 717 154 711 154 C708 154 704 153 700 151 C663 135 633 128 588 128 C548 128 505 146 493 197 L813 197 C828 197 833 206 836 217 C863 393 784 510 632 510 C545 510 478 467 427 411 C396 472 346 510 261 510 C193 510 140 496 77 469 C67 465 63 457 66 444 L84 369 C86 361 91 357 97 357 C100 357 103 358 106 359 C157 378 192 385 229 385 C293 385 319 346 322 303 C289 323 242 329 207 329 C94 329 -4 260 -4 145 C-4 66 46 -9 164 -9 C262 -9 336 48 377 94 L377 94 Z M307 205 C288 161 254 125 202 125 C167 125 146 140 146 171 C146 208 183 232 226 232 C263 232 286 224 307 205 L307 205 Z " />
<glyph glyph-name="ccedilla" unicode="&#xe7;" horiz-adv-x="450" d="M72 -160 C69 -169 72 -174 83 -174 L195 -174 C206 -174 213 -169 218 -160 L268 -4 C311 4 343 16 374 35 C385 42 388 51 383 60 L329 159 C326 164 322 166 318 166 C315 166 311 165 307 163 C284 152 262 146 239 146 C184 146 157 184 157 232 C157 296 212 354 272 354 C288 354 308 351 331 335 C335 332 339 331 342 331 C347 331 352 334 356 340 L442 436 C450 445 449 457 441 462 C410 485 362 510 297 510 C133 510 -3 380 -3 217 C-3 119 44 31 152 -1 L72 -160 Z " />
<glyph glyph-name="egrave" unicode="&#xe8;" horiz-adv-x="522" d="M344 577 C355 582 355 591 352 600 L291 747 C288 756 282 760 275 760 C273 760 270 760 268 759 L167 724 C154 720 152 710 159 702 L253 553 C257 548 262 545 267 545 C270 545 273 546 276 547 L344 577 L344 577 Z M240 128 C187 128 153 158 145 197 L465 197 C480 197 485 206 488 217 C515 387 439 510 284 510 C133 510 -4 382 -4 217 C-4 78 91 -10 214 -10 C291 -10 356 10 412 41 C423 46 426 57 422 65 L377 145 C374 150 371 154 364 154 C361 154 357 153 352 151 C313 135 284 128 240 128 L240 128 Z M163 312 C184 359 221 385 264 385 C307 385 336 363 343 312 L163 312 Z " />
<glyph glyph-name="eacute" unicode="&#xe9;" horiz-adv-x="522" d="M240 128 C187 128 153 158 145 197 L465 197 C480 197 485 206 488 217 C515 387 439 510 284 510 C133 510 -4 382 -4 217 C-4 78 91 -10 214 -10 C291 -10 356 10 412 41 C423 46 426 57 422 65 L377 145 C374 150 371 154 364 154 C361 154 357 153 352 151 C313 135 284 128 240 128 L240 128 Z M163 312 C184 359 221 385 264 385 C307 385 336 363 343 312 L163 312 Z M314 544 C317 542 320 542 322 542 C328 542 333 545 338 551 L455 700 C462 709 462 718 450 722 L351 759 C349 760 346 760 344 760 C337 760 331 756 326 747 L243 600 C238 589 239 582 247 577 L314 544 L314 544 Z " />
<glyph glyph-name="ecircumflex" unicode="&#xea;" horiz-adv-x="520" d="M291 749 C276 749 265 741 254 730 L134 615 C126 608 125 599 132 589 L162 543 C165 539 169 537 173 537 C179 537 185 540 189 544 L313 634 L406 544 C410 540 415 537 420 537 C425 537 429 539 433 543 L477 589 C485 596 491 606 484 615 L400 730 C393 741 383 749 368 749 L291 749 L291 749 Z M240 128 C187 128 153 158 145 197 L465 197 C480 197 485 206 488 217 C515 387 439 510 284 510 C133 510 -4 382 -4 217 C-4 78 91 -10 214 -10 C291 -10 356 10 412 41 C423 46 426 57 422 65 L377 145 C374 150 371 154 364 154 C361 154 357 153 352 151 C313 135 284 128 240 128 L240 128 Z M163 312 C184 359 221 385 264 385 C307 385 336 363 343 312 L163 312 Z " />
<glyph glyph-name="edieresis" unicode="&#xeb;" horiz-adv-x="511" d="M108 644 C108 596 146 558 194 558 C243 558 282 596 282 644 C282 693 243 732 194 732 C146 732 108 693 108 644 L108 644 Z M339 644 C339 596 376 558 425 558 C476 558 514 596 514 644 C514 693 476 732 425 732 C376 732 339 693 339 644 L339 644 Z M240 128 C187 128 153 158 145 197 L465 197 C480 197 485 206 488 217 C515 387 439 510 284 510 C133 510 -4 382 -4 217 C-4 78 91 -10 214 -10 C291 -10 356 10 412 41 C423 46 426 57 422 65 L377 145 C374 150 371 154 364 154 C361 154 357 153 352 151 C313 135 284 128 240 128 L240 128 Z M163 312 C184 359 221 385 264 385 C307 385 336 363 343 312 L163 312 Z " />
<glyph glyph-name="igrave" unicode="&#xec;" horiz-adv-x="272" d="M139 0 C152 0 159 6 161 19 L234 481 C236 494 231 500 218 500 L92 500 C79 500 72 494 70 481 L-3 19 C-5 6 0 0 13 0 L139 0 L139 0 Z M197 577 C208 582 208 591 205 600 L144 747 C141 756 135 760 128 760 C126 760 123 760 121 759 L20 724 C7 720 5 710 12 702 L106 553 C110 548 115 545 120 545 C123 545 126 546 129 547 L197 577 L197 577 Z " />
<glyph glyph-name="iacute" unicode="&#xed;" horiz-adv-x="273" d="M140 0 C153 0 160 6 162 19 L235 481 C237 494 232 500 219 500 L93 500 C80 500 73 494 71 481 L-2 19 C-4 6 1 0 14 0 L140 0 L140 0 Z M189 544 C192 542 195 542 197 542 C203 542 208 545 213 551 L330 700 C337 709 337 718 325 722 L226 759 C224 760 221 760 219 760 C212 760 206 756 201 747 L118 600 C113 589 114 582 122 577 L189 544 L189 544 Z " />
<glyph glyph-name="icircumflex" unicode="&#xee;" horiz-adv-x="271" d="M156 749 C141 749 130 741 119 730 L-1 615 C-9 608 -10 599 -3 589 L27 543 C30 539 34 537 38 537 C44 537 50 540 54 544 L178 634 L271 544 C275 540 280 537 285 537 C290 537 294 539 298 543 L342 589 C350 596 356 606 349 615 L265 730 C258 741 248 749 233 749 L156 749 L156 749 Z M139 0 C152 0 159 6 161 19 L234 481 C236 494 231 500 218 500 L92 500 C79 500 72 494 70 481 L-3 19 C-5 6 0 0 13 0 L139 0 L139 0 Z " />
<glyph glyph-name="idieresis" unicode="&#xef;" horiz-adv-x="279" d="M-17 644 C-17 596 21 558 69 558 C118 558 157 596 157 644 C157 693 118 732 69 732 C21 732 -17 693 -17 644 L-17 644 Z M214 644 C214 596 251 558 300 558 C351 558 389 596 389 644 C389 693 351 732 300 732 C251 732 214 693 214 644 L214 644 Z M146 0 C159 0 166 6 168 19 L241 481 C243 494 238 500 225 500 L99 500 C86 500 79 494 77 481 L4 19 C2 6 7 0 20 0 L146 0 L146 0 Z " />
<glyph glyph-name="eth" unicode="&#xf0;" horiz-adv-x="552" d="M285 499 C276 500 267 501 259 501 C246 501 234 499 221 497 C101 468 -3 367 -3 217 C-3 78 91 -11 214 -11 C382 -11 515 123 515 282 C515 309 513 326 506 357 L435 585 L551 606 C564 609 570 616 569 629 L567 689 C567 700 563 705 555 705 C553 705 551 705 549 704 L405 678 L385 737 C382 748 374 750 361 750 L225 750 C213 750 206 744 209 732 L237 647 L123 627 C111 625 105 617 105 604 L107 544 C107 533 111 528 119 528 C121 528 124 528 126 529 L267 554 L285 499 Z M352 293 C355 284 355 272 354 257 C349 195 299 146 239 146 C188 146 157 184 157 232 C157 300 210 354 272 354 C313 354 344 330 352 293 L352 293 Z " />
<glyph glyph-name="ntilde" unicode="&#xf1;" horiz-adv-x="596" d="M476 0 C489 0 496 6 498 19 L540 287 C561 420 504 510 388 510 C319 510 266 475 229 436 L236 481 C237 494 231 500 220 500 L93 500 C80 500 73 494 72 481 L-2 19 C-4 6 1 0 14 0 L141 0 C153 0 160 6 162 19 L202 264 C207 307 255 354 303 354 C362 354 380 310 371 254 L334 19 C332 6 337 0 349 0 L476 0 L476 0 Z M419 694 C372 694 361 745 291 745 C256 745 211 721 172 694 C160 687 158 680 157 667 L152 590 C151 583 152 578 156 578 C159 578 163 580 168 583 C203 608 232 630 263 630 C310 630 320 579 390 579 C425 579 472 602 511 629 C522 637 523 643 524 656 L530 734 C530 741 528 745 524 745 C522 745 518 743 514 740 C479 716 448 694 419 694 L419 694 Z " />
<glyph glyph-name="ograve" unicode="&#xf2;" horiz-adv-x="544" d="M-5 217 C-5 78 90 -10 213 -10 C377 -10 513 120 513 283 C513 422 418 510 296 510 C132 510 -5 380 -5 217 L-5 217 Z M155 232 C155 300 210 354 271 354 C323 354 353 316 353 268 C353 200 299 146 238 146 C186 146 155 184 155 232 L155 232 Z M352 577 C363 582 363 591 360 600 L299 747 C296 756 290 760 283 760 C281 760 278 760 276 759 L175 724 C162 720 160 710 167 702 L261 553 C265 548 270 545 275 545 C278 545 281 546 284 547 L352 577 L352 577 Z " />
<glyph glyph-name="oacute" unicode="&#xf3;" horiz-adv-x="543" d="M-5 217 C-5 78 90 -10 213 -10 C377 -10 513 120 513 283 C513 422 418 510 296 510 C132 510 -5 380 -5 217 L-5 217 Z M155 232 C155 300 210 354 271 354 C323 354 353 316 353 268 C353 200 299 146 238 146 C186 146 155 184 155 232 L155 232 Z M322 544 C325 542 328 542 330 542 C336 542 341 545 346 551 L463 700 C470 709 470 718 458 722 L359 759 C357 760 354 760 352 760 C345 760 339 756 334 747 L251 600 C246 589 247 582 255 577 L322 544 L322 544 Z " />
<glyph glyph-name="ocircumflex" unicode="&#xf4;" horiz-adv-x="543" d="M-5 217 C-5 78 90 -10 213 -10 C377 -10 513 120 513 283 C513 422 418 510 296 510 C132 510 -5 380 -5 217 L-5 217 Z M155 232 C155 300 210 354 271 354 C323 354 353 316 353 268 C353 200 299 146 238 146 C186 146 155 184 155 232 L155 232 Z M301 749 C286 749 275 741 264 730 L144 615 C136 608 135 599 142 589 L172 543 C175 539 179 537 183 537 C189 537 195 540 199 544 L323 634 L416 544 C420 540 425 537 430 537 C435 537 439 539 443 543 L487 589 C495 596 501 606 494 615 L410 730 C403 741 393 749 378 749 L301 749 L301 749 Z " />
<glyph glyph-name="otilde" unicode="&#xf5;" horiz-adv-x="544" d="M-5 217 C-5 78 90 -10 213 -10 C377 -10 513 120 513 283 C513 422 418 510 296 510 C132 510 -5 380 -5 217 L-5 217 Z M155 232 C155 300 210 354 271 354 C323 354 353 316 353 268 C353 200 299 146 238 146 C186 146 155 184 155 232 L155 232 Z M402 694 C355 694 344 745 274 745 C239 745 194 721 155 694 C143 687 141 680 140 667 L135 590 C134 583 135 578 139 578 C142 578 146 580 151 583 C186 608 215 630 246 630 C293 630 303 579 373 579 C408 579 455 602 494 629 C505 637 506 643 507 656 L513 734 C513 741 511 745 507 745 C505 745 501 743 497 740 C462 716 431 694 402 694 L402 694 Z " />
<glyph glyph-name="odieresis" unicode="&#xf6;" horiz-adv-x="542" d="M-5 217 C-5 78 90 -10 213 -10 C377 -10 513 120 513 283 C513 422 418 510 296 510 C132 510 -5 380 -5 217 L-5 217 Z M155 232 C155 300 210 354 271 354 C323 354 353 316 353 268 C353 200 299 146 238 146 C186 146 155 184 155 232 L155 232 Z M119 644 C119 596 157 558 205 558 C254 558 293 596 293 644 C293 693 254 732 205 732 C157 732 119 693 119 644 L119 644 Z M350 644 C350 596 387 558 436 558 C487 558 525 596 525 644 C525 693 487 732 436 732 C387 732 350 693 350 644 L350 644 Z " />
<glyph glyph-name="divide" unicode="&#xf7;" horiz-adv-x="495" d="M40 363 C27 363 20 357 18 344 L4 253 C1 240 6 234 19 234 L436 234 C449 234 456 240 458 253 L472 344 C475 357 470 363 457 363 L40 363 L40 363 Z M182 495 C182 448 218 412 265 412 C313 412 351 448 351 495 C351 543 313 580 265 580 C218 580 182 543 182 495 L182 495 Z M120 100 C120 53 156 17 203 17 C251 17 289 53 289 100 C289 148 251 185 203 185 C156 185 120 148 120 100 L120 100 Z " />
<glyph glyph-name="oslash" unicode="&#xf8;" horiz-adv-x="558" d="M523 522 C528 529 523 535 511 535 L476 535 C469 535 462 531 455 522 L422 481 C385 502 345 510 308 510 C146 510 9 380 9 217 C9 161 23 101 74 49 L13 -25 C6 -34 13 -38 22 -38 L63 -38 C69 -38 75 -34 82 -25 L117 17 C150 -2 190 -10 226 -10 C392 -10 527 122 527 283 C527 342 512 398 464 449 L523 522 L523 522 Z M353 311 C364 296 366 284 366 268 C366 200 312 146 251 146 C241 146 232 148 224 152 L353 311 Z M182 184 C173 197 168 213 168 232 C168 300 223 354 284 354 C297 354 307 352 313 347 L182 184 Z " />
<glyph glyph-name="ugrave" unicode="&#xf9;" horiz-adv-x="590" d="M78 500 C66 500 59 494 57 481 L14 213 C-8 79 52 -10 166 -10 C235 -10 287 26 326 65 L319 19 C317 6 322 0 335 0 L462 0 C474 0 481 6 483 19 L556 481 C558 494 553 500 541 500 L414 500 C401 500 394 494 392 481 L353 236 C345 193 301 146 251 146 C194 146 174 190 183 246 L221 481 C223 494 218 500 205 500 L78 500 L78 500 Z M363 577 C374 582 374 591 371 600 L310 747 C307 756 301 760 294 760 C292 760 289 760 287 759 L186 724 C173 720 171 710 178 702 L272 553 C276 548 281 545 286 545 C289 545 292 546 295 547 L363 577 L363 577 Z " />
<glyph glyph-name="uacute" unicode="&#xfa;" horiz-adv-x="590" d="M78 500 C66 500 59 494 57 481 L14 213 C-8 79 52 -10 166 -10 C235 -10 287 26 326 65 L319 19 C317 6 322 0 335 0 L462 0 C474 0 481 6 483 19 L556 481 C558 494 553 500 541 500 L414 500 C401 500 394 494 392 481 L353 236 C345 193 301 146 251 146 C194 146 174 190 183 246 L221 481 C223 494 218 500 205 500 L78 500 L78 500 Z M331 544 C334 542 337 542 339 542 C345 542 350 545 355 551 L472 700 C479 709 479 718 467 722 L368 759 C366 760 363 760 361 760 C354 760 348 756 343 747 L260 600 C255 589 256 582 264 577 L331 544 L331 544 Z " />
<glyph glyph-name="ucircumflex" unicode="&#xfb;" horiz-adv-x="590" d="M78 500 C66 500 59 494 57 481 L14 213 C-8 79 52 -10 166 -10 C235 -10 287 26 326 65 L319 19 C317 6 322 0 335 0 L462 0 C474 0 481 6 483 19 L556 481 C558 494 553 500 541 500 L414 500 C401 500 394 494 392 481 L353 236 C345 193 301 146 251 146 C194 146 174 190 183 246 L221 481 C223 494 218 500 205 500 L78 500 L78 500 Z M312 749 C297 749 286 741 275 730 L155 615 C147 608 146 599 153 589 L183 543 C186 539 190 537 194 537 C200 537 206 540 210 544 L334 634 L427 544 C431 540 436 537 441 537 C446 537 450 539 454 543 L498 589 C506 596 512 606 505 615 L421 730 C414 741 404 749 389 749 L312 749 L312 749 Z " />
<glyph glyph-name="udieresis" unicode="&#xfc;" horiz-adv-x="590" d="M78 495 C66 495 59 489 57 476 L14 208 C-8 74 52 -15 166 -15 C235 -15 287 21 326 60 L319 14 C317 1 322 -5 335 -5 L462 -5 C474 -5 481 1 483 14 L556 476 C558 489 553 495 541 495 L414 495 C401 495 394 489 392 476 L353 231 C345 188 301 141 251 141 C194 141 174 185 183 241 L221 476 C223 489 218 495 205 495 L78 495 L78 495 Z M127 644 C127 596 165 558 213 558 C262 558 301 596 301 644 C301 693 262 732 213 732 C165 732 127 693 127 644 L127 644 Z M358 644 C358 596 395 558 444 558 C495 558 533 596 533 644 C533 693 495 732 444 732 C395 732 358 693 358 644 L358 644 Z " />
<glyph glyph-name="yacute" unicode="&#xfd;" horiz-adv-x="594" d="M560 481 C562 494 557 500 544 500 L418 500 C405 500 398 494 396 481 L358 243 C353 203 305 156 257 156 C200 156 180 200 189 256 L225 481 C227 494 222 500 209 500 L82 500 C70 500 63 494 61 481 L20 223 C-2 89 53 0 172 0 C233 0 304 31 331 66 L322 17 C314 -38 274 -99 182 -99 C139 -99 103 -83 83 -58 C80 -55 77 -53 74 -53 C69 -53 64 -56 59 -62 L-20 -149 C-28 -158 -29 -166 -23 -173 C12 -220 87 -255 167 -255 C354 -255 463 -134 490 34 L560 481 L560 481 Z M333 544 C336 542 339 542 341 542 C347 542 352 545 357 551 L474 700 C481 709 481 718 469 722 L370 759 C368 760 365 760 363 760 C356 760 350 756 345 747 L262 600 C257 589 258 582 266 577 L333 544 L333 544 Z " />
<glyph glyph-name="thorn" unicode="&#xfe;" horiz-adv-x="596" d="M398 268 C398 200 344 146 283 146 C230 146 197 188 201 240 C204 307 258 354 316 354 C368 354 398 316 398 268 L398 268 Z M107 -250 C119 -250 126 -244 129 -231 L175 59 C202 18 245 -10 305 -10 C454 -10 562 131 562 283 C562 408 510 510 382 510 C322 510 274 485 235 442 C243 493 250 540 257 581 C268 650 281 723 281 731 C283 744 278 750 266 750 L139 750 C126 750 118 744 117 731 L-34 -231 C-37 -244 -32 -250 -19 -250 L107 -250 Z " />
<glyph glyph-name="ydieresis" unicode="&#xff;" horiz-adv-x="595" d="M561 481 C563 494 558 500 545 500 L419 500 C406 500 399 494 397 481 L359 243 C354 203 306 156 258 156 C201 156 181 200 190 256 L226 481 C228 494 223 500 210 500 L83 500 C71 500 64 494 62 481 L21 223 C-1 89 54 0 173 0 C234 0 305 31 332 66 L323 17 C315 -38 275 -99 183 -99 C140 -99 104 -83 84 -58 C81 -55 78 -53 75 -53 C70 -53 65 -56 60 -62 L-19 -149 C-27 -158 -28 -166 -22 -173 C13 -220 88 -255 168 -255 C355 -255 464 -134 491 34 L561 481 L561 481 Z M129 644 C129 596 167 558 215 558 C264 558 303 596 303 644 C303 693 264 732 215 732 C167 732 129 693 129 644 L129 644 Z M360 644 C360 596 397 558 446 558 C497 558 535 596 535 644 C535 693 497 732 446 732 C397 732 360 693 360 644 L360 644 Z " />
<glyph glyph-name="Amacron" unicode="&#x100;" horiz-adv-x="634" d="M98 0 C113 0 123 6 127 19 L176 131 L388 131 L401 19 C404 4 412 0 425 0 L561 0 C574 0 578 6 575 19 L478 681 C476 694 469 700 458 700 L287 700 C275 700 267 694 262 681 L-46 19 C-53 6 -50 0 -37 0 L98 0 L98 0 Z M237 285 L343 510 L377 285 L237 285 Z M235 801 C233 789 238 783 251 783 L517 783 C530 783 537 789 538 801 L554 897 C556 909 551 915 538 915 L272 915 C259 915 252 909 250 897 L235 801 L235 801 Z " />
<glyph glyph-name="amacron" unicode="&#x101;" horiz-adv-x="583" d="M163 232 C163 300 216 354 278 354 C333 354 364 313 360 260 C355 193 306 146 246 146 C195 146 163 183 163 232 L163 232 Z M462 0 C475 0 482 6 484 19 L557 481 C559 494 554 500 541 500 L415 500 C402 500 395 494 393 481 L386 441 C359 484 317 510 257 510 C107 510 -1 372 -1 217 C-1 91 60 -10 179 -10 C239 -10 290 19 327 59 L320 19 C318 6 323 0 336 0 L462 0 L462 0 Z M172 605 C170 593 175 587 188 587 L454 587 C467 587 474 593 475 605 L491 701 C493 713 488 719 475 719 L209 719 C196 719 189 713 187 701 L172 605 L172 605 Z " />
<glyph glyph-name="Abreve" unicode="&#x102;" horiz-adv-x="634" d="M98 0 C113 0 123 6 127 19 L176 131 L388 131 L401 19 C404 4 412 0 425 0 L561 0 C574 0 578 6 575 19 L478 681 C476 694 469 700 458 700 L287 700 C275 700 267 694 262 681 L-46 19 C-53 6 -50 0 -37 0 L98 0 L98 0 Z M237 285 L343 510 L377 285 L237 285 Z M574 905 C575 913 571 914 563 917 L486 930 C485 931 483 931 482 931 C477 931 474 926 472 919 C461 883 439 859 392 859 C345 859 331 883 332 919 C332 930 329 930 321 930 L241 917 C232 915 227 911 226 905 C217 800 277 745 374 745 C481 745 554 800 574 905 L574 905 Z " />
<glyph glyph-name="abreve" unicode="&#x103;" horiz-adv-x="582" d="M163 232 C163 300 216 354 278 354 C333 354 364 313 360 260 C355 193 306 146 246 146 C195 146 163 183 163 232 L163 232 Z M462 0 C475 0 482 6 484 19 L557 481 C559 494 554 500 541 500 L415 500 C402 500 395 494 393 481 L386 441 C359 484 317 510 257 510 C107 510 -1 372 -1 217 C-1 91 60 -10 179 -10 C239 -10 290 19 327 59 L320 19 C318 6 323 0 336 0 L462 0 L462 0 Z M509 714 C510 722 506 723 498 726 L421 739 C420 740 418 740 417 740 C412 740 409 735 407 728 C396 692 374 668 327 668 C280 668 266 692 267 728 C267 739 264 739 256 739 L176 726 C167 724 162 720 161 714 C152 609 212 554 309 554 C416 554 489 609 509 714 L509 714 Z " />
<glyph glyph-name="Aogonek" unicode="&#x104;" horiz-adv-x="631" d="M559 0 C572 0 577 6 576 19 L479 681 C477 694 470 700 459 700 L287 700 C276 700 268 694 263 681 L-45 19 C-52 6 -49 0 -37 0 L98 0 C114 0 124 6 128 19 L177 131 L388 131 L402 19 C403 4 412 0 423 0 L464 0 C363 -80 395 -206 526 -206 C537 -206 549 -205 561 -203 C569 -202 571 -197 572 -190 L584 -108 C585 -102 582 -99 576 -99 C576 -99 575 -99 574 -99 C568 -100 563 -101 558 -101 C504 -101 508 -37 559 0 L559 0 Z M238 285 L344 510 L378 285 L238 285 Z " />
<glyph glyph-name="aogonek" unicode="&#x105;" horiz-adv-x="583" d="M163 232 C163 300 216 354 278 354 C333 354 364 313 360 260 C355 193 306 146 246 146 C195 146 163 183 163 232 L163 232 Z M320 22 C318 9 323 1 334 0 L371 0 C271 -87 299 -207 428 -207 C441 -207 455 -205 469 -203 C477 -202 479 -197 480 -190 L492 -108 C493 -102 490 -99 484 -99 C484 -99 483 -99 482 -99 C478 -99 474 -100 471 -100 C411 -100 418 -39 464 0 C475 0 482 6 484 19 L557 481 C560 494 555 500 542 500 L415 500 C402 500 395 494 393 481 L387 441 C360 484 317 510 257 510 C107 510 -1 369 -1 217 C-1 91 60 -10 179 -10 C239 -10 290 19 327 59 L320 22 L320 22 Z " />
<glyph glyph-name="Cacute" unicode="&#x106;" horiz-adv-x="606" d="M624 630 C632 639 633 649 621 656 C574 688 516 710 440 710 C223 710 21 536 21 296 C21 109 162 -10 325 -10 C398 -10 464 10 527 45 C538 51 542 60 537 73 L485 176 C482 183 477 186 472 186 C468 186 463 185 459 182 C420 158 377 152 350 152 C250 152 187 221 187 316 C187 447 300 548 414 548 C454 548 483 538 510 521 C514 519 518 518 522 518 C530 518 537 522 542 528 L624 630 Z M445 741 C448 739 451 739 453 739 C459 739 464 742 469 748 L586 897 C593 906 593 915 581 919 L482 956 C480 957 477 957 475 957 C468 957 462 953 457 944 L374 797 C369 786 370 779 378 774 L445 741 L445 741 Z " />
<glyph glyph-name="cacute" unicode="&#x107;" horiz-adv-x="470" d="M329 159 C326 164 322 166 318 166 C315 166 311 165 307 163 C284 152 262 146 239 146 C184 146 157 184 157 232 C157 300 212 354 272 354 C288 354 308 351 332 335 C336 332 340 331 343 331 C348 331 352 334 356 340 L442 436 C450 445 449 457 441 462 C410 485 362 510 297 510 C133 510 -3 380 -3 217 C-3 78 91 -10 214 -10 C275 -10 331 10 374 35 C385 42 388 51 383 60 L329 159 L329 159 Z M319 544 C322 542 325 542 327 542 C333 542 338 545 343 551 L460 700 C467 709 467 718 455 722 L356 759 C354 760 351 760 349 760 C342 760 336 756 331 747 L248 600 C243 589 244 582 252 577 L319 544 L319 544 Z " />
<glyph glyph-name="Ccircumflex" unicode="&#x108;" horiz-adv-x="610" d="M624 630 C632 639 633 649 621 656 C574 688 516 710 440 710 C223 710 21 536 21 296 C21 109 162 -10 325 -10 C398 -10 464 10 527 45 C538 51 542 60 537 73 L485 176 C482 183 477 186 472 186 C468 186 463 185 459 182 C420 158 377 152 350 152 C250 152 187 221 187 316 C187 447 300 548 414 548 C454 548 483 538 510 521 C514 519 518 518 522 518 C530 518 537 522 542 528 L624 630 Z M431 945 C416 945 405 937 394 926 L274 811 C266 804 265 795 272 785 L302 739 C305 735 309 733 313 733 C319 733 325 736 329 740 L453 830 L546 740 C550 736 555 733 560 733 C565 733 569 735 573 739 L617 785 C625 792 631 802 624 811 L540 926 C533 937 523 945 508 945 L431 945 L431 945 Z " />
<glyph glyph-name="ccircumflex" unicode="&#x109;" horiz-adv-x="488" d="M329 159 C326 164 322 166 318 166 C315 166 311 165 307 163 C284 152 262 146 239 146 C184 146 157 184 157 232 C157 300 212 354 272 354 C288 354 308 351 332 335 C336 332 340 331 343 331 C348 331 352 334 356 340 L442 436 C450 445 449 457 441 462 C410 485 362 510 297 510 C133 510 -3 380 -3 217 C-3 78 91 -10 214 -10 C275 -10 331 10 374 35 C385 42 388 51 383 60 L329 159 L329 159 Z M290 749 C275 749 264 741 253 730 L133 615 C125 608 124 599 131 589 L161 543 C164 539 168 537 172 537 C178 537 184 540 188 544 L312 634 L405 544 C409 540 414 537 419 537 C424 537 428 539 432 543 L476 589 C484 596 490 606 483 615 L399 730 C392 741 382 749 367 749 L290 749 L290 749 Z " />
<glyph glyph-name="Cdotaccent" unicode="&#x10a;" horiz-adv-x="606" d="M624 630 C632 639 633 649 621 656 C574 688 516 710 440 710 C223 710 21 536 21 296 C21 109 162 -10 325 -10 C398 -10 464 10 527 45 C538 51 542 60 537 73 L485 176 C482 183 477 186 472 186 C468 186 463 185 459 182 C420 158 377 152 350 152 C250 152 187 221 187 316 C187 447 300 548 414 548 C454 548 483 538 510 521 C514 519 518 518 522 518 C530 518 537 522 542 528 L624 630 Z M351 849 C351 800 389 762 438 762 C489 762 527 800 527 849 C527 900 489 938 438 938 C389 938 351 900 351 849 L351 849 Z " />
<glyph glyph-name="cdotaccent" unicode="&#x10b;" horiz-adv-x="450" d="M329 159 C326 164 322 166 318 166 C315 166 311 165 307 163 C284 152 262 146 239 146 C184 146 157 184 157 232 C157 300 212 354 272 354 C288 354 308 351 332 335 C336 332 340 331 343 331 C348 331 352 334 356 340 L442 436 C450 445 449 457 441 462 C410 485 362 510 297 510 C133 510 -3 380 -3 217 C-3 78 91 -10 214 -10 C275 -10 331 10 374 35 C385 42 388 51 383 60 L329 159 L329 159 Z M223 662 C223 613 261 575 310 575 C361 575 399 613 399 662 C399 713 361 751 310 751 C261 751 223 713 223 662 L223 662 Z " />
<glyph glyph-name="Ccaron" unicode="&#x10c;" horiz-adv-x="621" d="M624 630 C632 639 633 649 621 656 C574 688 516 710 440 710 C223 710 21 536 21 296 C21 109 162 -10 325 -10 C398 -10 464 10 527 45 C538 51 542 60 537 73 L485 176 C482 183 477 186 472 186 C468 186 463 185 459 182 C420 158 377 152 350 152 C250 152 187 221 187 316 C187 447 300 548 414 548 C454 548 483 538 510 521 C514 519 518 518 522 518 C530 518 537 522 542 528 L624 630 Z M480 754 C495 754 506 762 517 773 L637 888 C646 897 644 907 639 915 L609 961 C606 965 602 967 598 967 C593 967 587 964 582 960 L458 869 L365 959 C361 963 356 966 351 966 C346 966 342 964 338 960 L294 915 C286 907 280 897 287 888 L371 773 C378 762 388 754 403 754 L480 754 L480 754 Z " />
<glyph glyph-name="ccaron" unicode="&#x10d;" horiz-adv-x="466" d="M329 159 C326 164 322 166 318 166 C315 166 311 165 307 163 C284 152 262 146 239 146 C184 146 157 184 157 232 C157 300 212 354 272 354 C288 354 308 351 332 335 C336 332 340 331 343 331 C348 331 352 334 356 340 L442 436 C450 445 449 457 441 462 C410 485 362 510 297 510 C133 510 -3 380 -3 217 C-3 78 91 -10 214 -10 C275 -10 331 10 374 35 C385 42 388 51 383 60 L329 159 L329 159 Z M334 541 C349 541 360 549 371 560 L491 675 C500 684 498 694 493 702 L463 748 C460 752 456 754 452 754 C447 754 441 751 436 747 L312 656 L219 746 C215 750 210 753 205 753 C200 753 196 751 192 747 L148 702 C140 694 134 684 141 675 L225 560 C232 549 242 541 257 541 L334 541 L334 541 Z " />
<glyph glyph-name="Dcaron" unicode="&#x10e;" horiz-adv-x="703" d="M273 0 C499 0 681 163 681 404 C681 591 563 700 376 700 L130 700 C117 700 110 694 109 681 L3 19 C1 6 6 0 19 0 L273 0 L273 0 Z M252 538 L352 538 C456 538 515 480 515 384 C515 253 423 162 293 162 L192 162 L252 538 Z M408 754 C423 754 434 762 445 773 L565 888 C574 897 572 907 567 915 L537 961 C534 965 530 967 526 967 C521 967 515 964 510 960 L386 869 L293 959 C289 963 284 966 279 966 C274 966 270 964 266 960 L222 915 C214 907 208 897 215 888 L299 773 C306 762 316 754 331 754 L408 754 L408 754 Z " />
<glyph glyph-name="dcaron" unicode="&#x10f;" horiz-adv-x="750" d="M636 530 C635 523 640 516 649 516 L752 516 C763 516 769 521 772 530 L817 737 C820 746 816 750 807 750 L682 750 C673 750 667 745 666 736 L636 530 Z M165 232 C165 300 218 354 280 354 C335 354 367 313 362 260 C357 193 308 146 248 146 C197 146 165 183 165 232 L165 232 Z M465 0 C477 0 484 6 486 19 L599 731 C601 744 596 750 584 750 L457 750 C444 750 437 744 435 731 C435 723 421 651 411 580 C404 539 397 492 389 441 C362 484 319 510 259 510 C111 510 1 372 1 217 C1 91 62 -10 182 -10 C242 -10 292 19 329 59 L322 19 C320 6 325 0 338 0 L465 0 Z " />
<glyph glyph-name="Dcroat" unicode="&#x110;" horiz-adv-x="710" d="M10 19 C9 6 15 0 26 0 L281 0 C507 0 688 163 688 404 C688 591 592 700 392 700 L137 700 C125 700 118 694 116 681 L73 412 L35 412 C23 412 17 405 14 394 L1 309 C-1 297 4 291 16 291 L53 291 L10 19 Z M259 538 L360 538 C464 538 523 479 523 384 C523 253 431 162 300 162 L200 162 L220 291 L296 291 C307 291 316 298 319 309 L332 394 C334 406 329 412 316 412 L239 412 L259 538 Z " />
<glyph glyph-name="dcroat" unicode="&#x111;" horiz-adv-x="592" d="M609 536 C622 536 629 542 631 555 L643 632 C644 643 637 651 628 651 L586 651 L599 731 C601 744 596 750 584 750 L457 750 C444 750 437 744 435 731 C435 723 433 721 422 651 L347 651 C336 651 327 644 326 632 L313 555 C311 542 316 536 328 536 L404 536 C401 527 398 503 395 482 L389 441 C364 482 319 510 259 510 C111 510 1 372 1 217 C1 91 62 -10 181 -10 C241 -10 290 16 329 59 L322 19 C320 6 325 0 338 0 L465 0 C477 0 484 6 486 19 L568 536 L609 536 Z M165 232 C165 300 218 354 280 354 C335 354 367 313 362 260 C357 193 308 146 248 146 C197 146 165 183 165 232 L165 232 Z " />
<glyph glyph-name="Emacron" unicode="&#x112;" horiz-adv-x="535" d="M129 700 C116 700 109 694 108 681 L2 19 C1 8 5 0 18 0 L423 0 C435 0 443 8 444 19 L464 144 C466 156 461 162 448 162 L191 162 L208 271 L429 271 C442 271 449 277 451 290 L469 410 C471 423 466 429 454 429 L234 429 L251 538 L506 538 C519 538 526 544 528 556 L548 681 C549 692 544 700 532 700 L129 700 L129 700 Z M193 801 C191 789 196 783 209 783 L475 783 C488 783 495 789 496 801 L512 897 C514 909 509 915 496 915 L230 915 C217 915 210 909 208 897 L193 801 L193 801 Z " />
<glyph glyph-name="emacron" unicode="&#x113;" horiz-adv-x="521" d="M239 128 C186 128 152 158 144 197 L464 197 C479 197 484 206 487 217 C514 387 438 510 283 510 C132 510 -5 382 -5 217 C-5 78 90 -10 213 -10 C290 -10 355 10 411 41 C422 46 425 57 421 65 L376 145 C373 150 370 154 363 154 C360 154 356 153 351 151 C312 135 283 128 239 128 L239 128 Z M162 312 C183 359 220 385 263 385 C306 385 335 363 342 312 L162 312 Z M152 605 C150 593 155 587 168 587 L434 587 C447 587 454 593 455 605 L471 701 C473 713 468 719 455 719 L189 719 C176 719 169 713 167 701 L152 605 L152 605 Z " />
<glyph glyph-name="Ebreve" unicode="&#x114;" horiz-adv-x="553" d="M146 700 C133 700 126 694 125 681 L19 19 C18 8 22 0 35 0 L440 0 C452 0 460 8 461 19 L481 144 C483 156 478 162 465 162 L208 162 L225 271 L446 271 C459 271 466 277 468 290 L486 410 C488 423 483 429 471 429 L251 429 L268 538 L523 538 C536 538 543 544 545 556 L565 681 C566 692 561 700 549 700 L146 700 L146 700 Z M546 905 C547 913 543 914 535 917 L458 930 C457 931 455 931 454 931 C449 931 446 926 444 919 C433 883 411 859 364 859 C317 859 303 883 304 919 C304 930 301 930 293 930 L213 917 C204 915 199 911 198 905 C189 800 249 745 346 745 C453 745 526 800 546 905 L546 905 Z " />
<glyph glyph-name="ebreve" unicode="&#x115;" horiz-adv-x="527" d="M239 128 C186 128 152 158 144 197 L464 197 C479 197 484 206 487 217 C514 387 438 510 283 510 C132 510 -5 382 -5 217 C-5 78 90 -10 213 -10 C290 -10 355 10 411 41 C422 46 425 57 421 65 L376 145 C373 150 370 154 363 154 C360 154 356 153 351 151 C312 135 283 128 239 128 L239 128 Z M162 312 C183 359 220 385 263 385 C306 385 335 363 342 312 L162 312 Z M494 714 C495 722 491 723 483 726 L406 739 C405 740 403 740 402 740 C397 740 394 735 392 728 C381 692 359 668 312 668 C265 668 251 692 252 728 C252 739 249 739 241 739 L161 726 C152 724 147 720 146 714 C137 609 197 554 294 554 C401 554 474 609 494 714 L494 714 Z " />
<glyph glyph-name="Edotaccent" unicode="&#x116;" horiz-adv-x="535" d="M129 700 C116 700 109 694 108 681 L2 19 C1 8 5 0 18 0 L423 0 C435 0 443 8 444 19 L464 144 C466 156 461 162 448 162 L191 162 L208 271 L429 271 C442 271 449 277 451 290 L469 410 C471 423 466 429 454 429 L234 429 L251 538 L506 538 C519 538 526 544 528 556 L548 681 C549 692 544 700 532 700 L129 700 L129 700 Z M256 852 C256 803 294 765 343 765 C394 765 432 803 432 852 C432 903 394 941 343 941 C294 941 256 903 256 852 L256 852 Z " />
<glyph glyph-name="edotaccent" unicode="&#x117;" horiz-adv-x="521" d="M239 128 C186 128 152 158 144 197 L464 197 C479 197 484 206 487 217 C514 387 438 510 283 510 C132 510 -5 382 -5 217 C-5 78 90 -10 213 -10 C290 -10 355 10 411 41 C422 46 425 57 421 65 L376 145 C373 150 370 154 363 154 C360 154 356 153 351 151 C312 135 283 128 239 128 L239 128 Z M162 312 C183 359 220 385 263 385 C306 385 335 363 342 312 L162 312 Z M228 667 C228 618 266 580 315 580 C366 580 404 618 404 667 C404 718 366 756 315 756 C266 756 228 718 228 667 L228 667 Z " />
<glyph glyph-name="Eogonek" unicode="&#x118;" horiz-adv-x="534" d="M433 1 C438 4 442 6 443 14 L463 144 C465 156 460 162 448 162 L191 162 L208 271 L429 271 C441 271 448 277 450 290 L470 410 C471 423 466 429 454 429 L233 429 L250 538 L506 538 C517 538 525 545 528 556 L547 681 C550 692 544 700 531 700 L128 700 C116 700 109 694 107 681 L2 19 C-1 8 5 0 17 0 L326 0 C230 -86 255 -207 383 -207 C396 -207 410 -206 425 -203 C434 -200 436 -197 437 -190 L449 -108 C450 -102 447 -99 441 -99 C441 -99 440 -99 439 -99 C433 -100 428 -101 424 -101 C369 -101 370 -35 433 1 L433 1 Z " />
<glyph glyph-name="eogonek" unicode="&#x119;" horiz-adv-x="522" d="M162 312 C183 359 220 385 263 385 C306 385 335 361 342 312 L162 312 Z M157 -3 C62 -88 94 -206 224 -206 C235 -206 247 -205 260 -203 C267 -202 271 -198 271 -190 L283 -108 C284 -102 282 -99 276 -99 C276 -99 275 -99 274 -99 C268 -100 262 -101 257 -101 C205 -101 207 -44 248 -8 C312 -3 360 13 411 41 C422 46 425 57 421 65 L376 145 C373 150 369 154 363 154 C360 154 356 153 351 151 C312 135 284 128 241 128 C185 128 153 156 144 197 L464 197 C479 197 484 206 487 217 C514 380 442 510 283 510 C131 510 -5 381 -5 217 C-5 98 63 21 157 -3 L157 -3 Z " />
<glyph glyph-name="Ecaron" unicode="&#x11a;" horiz-adv-x="535" d="M129 700 C116 700 109 694 108 681 L2 19 C1 8 5 0 18 0 L423 0 C435 0 443 8 444 19 L464 144 C466 156 461 162 448 162 L191 162 L208 271 L429 271 C442 271 449 277 451 290 L469 410 C471 423 466 429 454 429 L234 429 L251 538 L506 538 C519 538 526 544 528 556 L548 681 C549 692 544 700 532 700 L129 700 L129 700 Z M371 753 C386 753 397 761 408 772 L528 887 C537 896 535 906 530 914 L500 960 C497 964 493 966 489 966 C484 966 478 963 473 959 L349 868 L256 958 C252 962 247 965 242 965 C237 965 233 963 229 959 L185 914 C177 906 171 896 178 887 L262 772 C269 761 279 753 294 753 L371 753 L371 753 Z " />
<glyph glyph-name="ecaron" unicode="&#x11b;" horiz-adv-x="529" d="M333 548 C348 548 359 556 370 567 L490 682 C499 691 497 701 492 709 L462 755 C459 759 455 761 451 761 C446 761 440 758 435 754 L311 663 L218 753 C214 757 209 760 204 760 C199 760 195 758 191 754 L147 709 C139 701 133 691 140 682 L224 567 C231 556 241 548 256 548 L333 548 L333 548 Z M239 128 C186 128 152 158 144 197 L464 197 C479 197 484 206 487 217 C514 387 438 510 283 510 C132 510 -5 382 -5 217 C-5 78 90 -10 213 -10 C290 -10 355 10 411 41 C422 46 425 57 421 65 L376 145 C373 150 370 154 363 154 C360 154 356 153 351 151 C312 135 283 128 239 128 L239 128 Z M162 312 C183 359 220 385 263 385 C306 385 335 363 342 312 L162 312 Z " />
<glyph glyph-name="Gcircumflex" unicode="&#x11c;" horiz-adv-x="663" d="M435 169 C410 158 383 152 350 152 C250 152 187 221 187 316 C187 447 300 548 414 548 C453 548 485 540 520 513 C524 510 529 508 533 508 C540 508 547 513 552 520 L634 621 C642 630 644 641 631 648 C583 681 523 710 440 710 C223 710 21 536 21 296 C21 109 162 -10 325 -10 C404 -10 491 9 563 44 C573 49 579 56 581 67 L629 373 C632 384 626 391 614 391 L386 391 C373 391 366 385 364 373 L349 272 C346 261 352 254 364 254 L448 254 L435 169 L435 169 Z M428 945 C413 945 402 937 391 926 L271 811 C263 804 262 795 269 785 L299 739 C302 735 306 733 310 733 C316 733 322 736 326 740 L450 830 L543 740 C547 736 552 733 557 733 C562 733 566 735 570 739 L614 785 C622 792 628 802 621 811 L537 926 C530 937 520 945 505 945 L428 945 L428 945 Z " />
<glyph glyph-name="gcircumflex" unicode="&#x11d;" horiz-adv-x="596" d="M171 232 C171 300 224 354 286 354 C341 354 373 313 369 260 C364 194 313 154 255 154 C203 154 171 185 171 232 L171 232 Z M566 481 C568 494 563 500 550 500 L423 500 C411 500 404 494 402 481 L396 441 C368 484 325 510 265 510 C116 510 9 365 9 210 C9 87 70 -2 189 -2 C254 -2 300 28 337 67 L329 16 C321 -40 276 -99 183 -99 C140 -99 103 -84 80 -61 C77 -58 75 -56 71 -56 C67 -56 62 -59 56 -65 L-22 -152 C-29 -161 -30 -169 -25 -176 C12 -221 87 -255 167 -255 C355 -255 468 -136 495 33 L566 481 L566 481 Z M325 749 C310 749 299 741 288 730 L168 615 C160 608 159 599 166 589 L196 543 C199 539 203 537 207 537 C213 537 219 540 223 544 L347 634 L440 544 C444 540 449 537 454 537 C459 537 463 539 467 543 L511 589 C519 596 525 606 518 615 L434 730 C427 741 417 749 402 749 L325 749 L325 749 Z " />
<glyph glyph-name="Gbreve" unicode="&#x11e;" horiz-adv-x="663" d="M435 169 C410 158 383 152 350 152 C250 152 187 221 187 316 C187 447 300 548 414 548 C453 548 485 540 520 513 C524 510 529 508 533 508 C540 508 547 513 552 520 L634 621 C642 630 644 641 631 648 C583 681 523 710 440 710 C223 710 21 536 21 296 C21 109 162 -10 325 -10 C404 -10 491 9 563 44 C573 49 579 56 581 67 L629 373 C632 384 626 391 614 391 L386 391 C373 391 366 385 364 373 L349 272 C346 261 352 254 364 254 L448 254 L435 169 L435 169 Z M614 905 C615 913 611 914 603 917 L526 930 C525 931 523 931 522 931 C517 931 514 926 512 919 C501 883 479 859 432 859 C385 859 371 883 372 919 C372 930 369 930 361 930 L281 917 C272 915 267 911 266 905 C257 800 317 745 414 745 C521 745 594 800 614 905 L614 905 Z " />
<glyph glyph-name="gbreve" unicode="&#x11f;" horiz-adv-x="596" d="M171 232 C171 300 224 354 286 354 C341 354 373 313 369 260 C364 194 313 154 255 154 C203 154 171 185 171 232 L171 232 Z M566 481 C568 494 563 500 550 500 L423 500 C411 500 404 494 402 481 L396 441 C368 484 325 510 265 510 C116 510 9 365 9 210 C9 87 70 -2 189 -2 C254 -2 300 28 337 67 L329 16 C321 -40 276 -99 183 -99 C140 -99 103 -84 80 -61 C77 -58 75 -56 71 -56 C67 -56 62 -59 56 -65 L-22 -152 C-29 -161 -30 -169 -25 -176 C12 -221 87 -255 167 -255 C355 -255 468 -136 495 33 L566 481 L566 481 Z M523 714 C524 722 520 723 512 726 L435 739 C434 740 432 740 431 740 C426 740 423 735 421 728 C410 692 388 668 341 668 C294 668 280 692 281 728 C281 739 278 739 270 739 L190 726 C181 724 176 720 175 714 C166 609 226 554 323 554 C430 554 503 609 523 714 L523 714 Z " />
<glyph glyph-name="Gdotaccent" unicode="&#x120;" horiz-adv-x="663" d="M435 169 C410 158 383 152 350 152 C250 152 187 221 187 316 C187 447 300 548 414 548 C453 548 485 540 520 513 C524 510 529 508 533 508 C540 508 547 513 552 520 L634 621 C642 630 644 641 631 648 C583 681 523 710 440 710 C223 710 21 536 21 296 C21 109 162 -10 325 -10 C404 -10 491 9 563 44 C573 49 579 56 581 67 L629 373 C632 384 626 391 614 391 L386 391 C373 391 366 385 364 373 L349 272 C346 261 352 254 364 254 L448 254 L435 169 L435 169 Z M347 849 C347 800 385 762 434 762 C485 762 523 800 523 849 C523 900 485 938 434 938 C385 938 347 900 347 849 L347 849 Z " />
<glyph glyph-name="gdotaccent" unicode="&#x121;" horiz-adv-x="596" d="M171 232 C171 300 224 354 286 354 C341 354 373 313 369 260 C364 194 313 154 255 154 C203 154 171 185 171 232 L171 232 Z M566 481 C568 494 563 500 550 500 L423 500 C411 500 404 494 402 481 L396 441 C368 484 325 510 265 510 C116 510 9 365 9 210 C9 87 70 -2 189 -2 C254 -2 300 28 337 67 L329 16 C321 -40 276 -99 183 -99 C140 -99 103 -84 80 -61 C77 -58 75 -56 71 -56 C67 -56 62 -59 56 -65 L-22 -152 C-29 -161 -30 -169 -25 -176 C12 -221 87 -255 167 -255 C355 -255 468 -136 495 33 L566 481 L566 481 Z M255 667 C255 618 293 580 342 580 C393 580 431 618 431 667 C431 718 393 756 342 756 C293 756 255 718 255 667 L255 667 Z " />
<glyph glyph-name="uni0122" unicode="&#x122;" horiz-adv-x="663" d="M188 -269 C185 -276 190 -283 199 -283 L301 -283 C312 -283 319 -278 323 -269 L401 -62 C404 -55 401 -49 393 -49 L268 -49 C258 -49 252 -54 250 -63 L188 -269 Z M435 169 C410 158 383 152 350 152 C250 152 187 221 187 316 C187 447 300 548 414 548 C453 548 485 540 520 513 C524 510 529 508 533 508 C540 508 547 513 552 520 L634 621 C642 630 644 641 631 648 C583 681 523 710 440 710 C223 710 21 536 21 296 C21 109 162 -10 325 -10 C404 -10 491 9 563 44 C573 49 579 56 581 67 L629 373 C632 384 626 391 614 391 L386 391 C373 391 366 385 364 373 L349 272 C346 261 352 254 364 254 L448 254 L435 169 Z " />
<glyph glyph-name="uni0123" unicode="&#x123;" horiz-adv-x="596" d="M459 781 C462 788 457 795 448 795 L346 795 C335 795 328 790 324 781 L246 575 C243 566 245 561 254 561 L379 561 C388 561 394 568 397 576 L459 781 L459 781 Z M171 232 C171 300 224 354 286 354 C341 354 373 313 369 260 C364 194 313 154 255 154 C203 154 171 185 171 232 L171 232 Z M566 481 C568 494 563 500 550 500 L423 500 C411 500 404 494 402 481 L396 441 C368 484 325 510 265 510 C116 510 9 365 9 210 C9 87 70 -2 189 -2 C254 -2 300 28 337 67 L329 16 C321 -40 276 -99 183 -99 C140 -99 103 -84 80 -61 C77 -58 75 -56 71 -56 C67 -56 62 -59 56 -65 L-22 -152 C-29 -161 -30 -169 -25 -176 C12 -221 87 -255 167 -255 C355 -255 468 -136 495 33 L566 481 L566 481 Z " />
<glyph glyph-name="Hcircumflex" unicode="&#x124;" horiz-adv-x="676" d="M147 0 C160 0 167 6 168 19 L208 270 L441 270 L401 19 C399 6 404 0 417 0 L546 0 C559 0 566 6 567 19 L673 681 C675 694 670 700 657 700 L528 700 C515 700 508 694 507 681 L468 437 L235 437 L274 681 C276 694 271 700 258 700 L129 700 C116 700 109 694 108 681 L3 19 C1 6 6 0 19 0 L147 0 L147 0 Z M394 945 C379 945 368 937 357 926 L237 811 C229 804 228 795 235 785 L265 739 C268 735 272 733 276 733 C282 733 288 736 292 740 L416 830 L509 740 C513 736 518 733 523 733 C528 733 532 735 536 739 L580 785 C588 792 594 802 587 811 L503 926 C496 937 486 945 471 945 L394 945 L394 945 Z " />
<glyph glyph-name="hcircumflex" unicode="&#x125;" horiz-adv-x="595" d="M141 0 C153 0 160 6 162 19 L202 264 C207 307 255 354 303 354 C362 354 380 310 372 254 L334 19 C333 8 335 0 350 0 L476 0 C489 0 496 6 498 19 L540 287 C561 422 504 510 388 510 C320 510 267 478 230 442 L276 731 C277 744 271 750 260 750 L133 750 C120 750 113 744 112 731 L-1 19 C-3 6 2 0 14 0 L141 0 L141 0 Z M194 974 C179 974 168 966 157 955 L37 840 C29 833 28 824 35 814 L65 768 C68 764 72 762 76 762 C82 762 88 765 92 769 L216 859 L309 769 C313 765 318 762 323 762 C328 762 332 764 336 768 L380 814 C388 821 394 831 387 840 L303 955 C296 966 286 974 271 974 L194 974 L194 974 Z " />
<glyph glyph-name="Hbar" unicode="&#x126;" horiz-adv-x="677" d="M468 437 L235 437 L244 500 L477 500 L468 437 Z M702 500 C714 500 721 506 723 519 L731 568 C732 581 727 587 716 587 L658 587 L674 681 C675 694 670 700 657 700 L529 700 C516 700 509 694 507 681 L492 587 L259 587 L274 681 C275 692 271 700 258 700 L131 700 C118 700 110 694 108 681 L92 587 L34 587 C21 587 18 584 15 569 L7 519 C4 507 7 500 20 500 L79 500 L3 19 C1 6 6 0 18 0 L147 0 C160 0 167 6 169 19 L209 270 L442 270 L401 19 C400 6 405 0 418 0 L546 0 C559 0 566 6 568 19 L644 500 L702 500 Z " />
<glyph glyph-name="hbar" unicode="&#x127;" horiz-adv-x="594" d="M274 731 C276 744 271 750 258 750 L131 750 C119 750 112 744 110 731 L99 662 L58 662 C45 662 38 656 36 643 L24 566 C22 553 27 547 39 547 L80 547 L-3 19 C-4 6 1 0 12 0 L139 0 C152 0 159 6 161 19 L200 264 C208 307 252 354 302 354 C359 354 379 310 370 254 L332 19 C331 8 333 0 348 0 L475 0 C487 0 494 6 496 19 L539 287 C560 422 502 510 387 510 C319 510 265 478 228 442 L244 547 L321 547 C334 547 341 553 344 566 L356 643 C358 656 353 662 340 662 L263 662 L274 731 Z " />
<glyph glyph-name="Itilde" unicode="&#x128;" horiz-adv-x="274" d="M147 0 C160 0 167 6 168 19 L274 681 C276 694 271 700 258 700 L129 700 C116 700 109 694 108 681 L2 19 C0 6 5 0 18 0 L147 0 L147 0 Z M295 886 C248 886 237 937 167 937 C132 937 87 913 48 886 C36 879 34 872 33 859 L28 782 C27 775 28 770 32 770 C35 770 39 772 44 775 C79 800 108 822 139 822 C186 822 196 771 266 771 C301 771 348 794 387 821 C398 829 399 835 400 848 L406 926 C406 933 404 937 400 937 C398 937 394 935 390 932 C355 908 324 886 295 886 L295 886 Z " />
<glyph glyph-name="itilde" unicode="&#x129;" horiz-adv-x="263" d="M247 694 C200 694 189 745 119 745 C84 745 39 721 0 694 C-12 687 -14 680 -15 667 L-20 590 C-21 583 -20 578 -16 578 C-13 578 -9 580 -4 583 C31 608 60 630 91 630 C138 630 148 579 218 579 C253 579 300 602 339 629 C350 637 351 643 352 656 L358 734 C358 741 356 745 352 745 C350 745 346 743 342 740 C307 716 276 694 247 694 L247 694 Z M134 0 C147 0 154 6 156 19 L229 481 C231 494 226 500 213 500 L87 500 C74 500 67 494 65 481 L-8 19 C-10 6 -5 0 8 0 L134 0 L134 0 Z " />
<glyph glyph-name="Imacron" unicode="&#x12a;" horiz-adv-x="277" d="M148 0 C161 0 168 6 169 19 L275 681 C277 694 272 700 259 700 L130 700 C117 700 110 694 109 681 L3 19 C1 6 6 0 19 0 L148 0 L148 0 Z M59 822 C57 810 62 804 75 804 L341 804 C354 804 361 810 362 822 L378 918 C380 930 375 936 362 936 L96 936 C83 936 76 930 74 918 L59 822 L59 822 Z " />
<glyph glyph-name="imacron" unicode="&#x12b;" horiz-adv-x="262" d="M139 0 C152 0 159 6 161 19 L234 481 C236 494 231 500 218 500 L92 500 C79 500 72 494 70 481 L-3 19 C-5 6 0 0 13 0 L139 0 L139 0 Z M14 605 C12 593 17 587 30 587 L296 587 C309 587 316 593 317 605 L333 701 C335 713 330 719 317 719 L51 719 C38 719 31 713 29 701 L14 605 L14 605 Z " />
<glyph glyph-name="Iogonek" unicode="&#x12e;" horiz-adv-x="270" d="M141 0 C153 0 160 6 162 18 L267 681 C269 694 264 700 251 700 L122 700 C109 700 102 694 100 681 L-5 17 C-7 6 -2 0 9 0 L26 0 C-73 -82 -50 -207 82 -207 C95 -207 109 -206 124 -203 C133 -202 135 -197 136 -190 L148 -108 C149 -102 147 -99 141 -99 C141 -99 140 -99 139 -99 C133 -100 127 -101 122 -101 C69 -101 75 -38 121 0 L141 0 L141 0 Z " />
<glyph glyph-name="iogonek" unicode="&#x12f;" horiz-adv-x="265" d="M134 0 C145 0 152 6 154 18 L227 481 C229 494 224 500 211 500 L84 500 C72 500 65 494 63 481 L-10 17 C-13 6 -9 0 3 0 L20 0 C-79 -82 -56 -207 76 -207 C89 -207 103 -206 118 -203 C125 -202 129 -198 130 -190 L142 -108 C143 -102 141 -99 135 -99 C135 -99 134 -99 133 -99 C127 -100 122 -101 117 -101 C64 -101 66 -39 114 0 L134 0 L134 0 Z M82 671 C82 620 122 581 173 581 C226 581 266 620 266 671 C266 724 226 765 173 765 C122 765 82 724 82 671 L82 671 Z " />
<glyph glyph-name="Idotaccent" unicode="&#x130;" horiz-adv-x="278" d="M148 0 C161 0 168 6 169 19 L275 681 C277 694 272 700 259 700 L130 700 C117 700 110 694 109 681 L3 19 C1 6 6 0 19 0 L148 0 L148 0 Z M131 852 C131 803 169 765 218 765 C269 765 307 803 307 852 C307 903 269 941 218 941 C169 941 131 903 131 852 L131 852 Z " />
<glyph glyph-name="dotlessi" unicode="&#x131;" horiz-adv-x="269" d="M140 0 C153 0 160 6 162 19 L235 481 C237 494 232 500 219 500 L93 500 C80 500 73 494 71 481 L-2 19 C-4 6 1 0 14 0 L140 0 L140 0 Z " />
<glyph glyph-name="IJ" unicode="&#x132;" horiz-adv-x="764" d="M148 0 C161 0 168 6 169 19 L274 681 C277 694 272 700 259 700 L130 700 C117 700 110 694 108 681 L3 19 C1 6 6 0 19 0 L148 0 L148 0 Z M774 681 C777 694 772 700 759 700 L630 700 C617 700 610 694 608 681 L539 246 C530 186 502 152 451 152 C422 152 396 160 373 175 C368 178 363 180 359 180 C354 180 349 177 345 173 L268 73 C259 60 263 53 270 46 C310 10 374 -10 441 -10 C595 -10 682 94 703 229 L774 681 L774 681 Z " />
<glyph glyph-name="ij" unicode="&#x133;" horiz-adv-x="568" d="M140 0 C153 0 160 6 162 19 L235 481 C237 494 232 500 219 500 L92 500 C80 500 73 494 71 481 L-2 19 C-3 8 -2 0 13 0 L140 0 L140 0 Z M90 671 C90 620 129 581 180 581 C233 581 274 620 274 671 C274 724 233 765 180 765 C129 765 90 724 90 671 L90 671 Z M106 -196 C100 -207 101 -215 110 -219 C142 -238 183 -255 230 -255 C350 -255 426 -176 442 -75 L531 481 C532 492 530 500 515 500 L388 500 C375 500 368 492 367 481 L284 -42 C277 -83 256 -98 231 -98 C212 -98 201 -94 190 -87 C188 -86 185 -85 183 -85 C178 -85 174 -88 169 -94 L106 -196 L106 -196 Z M385 671 C385 620 425 581 476 581 C528 581 569 620 569 671 C569 723 528 765 476 765 C425 765 385 723 385 671 L385 671 Z " />
<glyph glyph-name="Jcircumflex" unicode="&#x134;" horiz-adv-x="484" d="M489 681 C492 694 487 700 474 700 L345 700 C332 700 325 694 323 681 L254 246 C245 186 215 152 166 152 C137 152 111 160 88 175 C83 178 78 180 73 180 C68 180 64 178 60 173 L-17 73 C-26 60 -22 53 -15 46 C30 7 89 -10 156 -10 C311 -10 396 94 417 229 L489 681 L489 681 Z M408 945 C393 945 382 937 371 926 L251 811 C243 804 242 795 249 785 L279 739 C282 735 286 733 290 733 C296 733 302 736 306 740 L430 830 L523 740 C527 736 532 733 537 733 C542 733 546 735 550 739 L594 785 C602 792 608 802 601 811 L517 926 C510 937 500 945 485 945 L408 945 L408 945 Z " />
<glyph glyph-name="jcircumflex" unicode="&#x135;" horiz-adv-x="269" d="M-185 -196 C-191 -207 -190 -215 -181 -219 C-149 -238 -108 -255 -61 -255 C59 -255 135 -176 151 -75 L240 481 C241 492 239 500 224 500 L97 500 C84 500 77 492 76 481 L-7 -42 C-14 -83 -35 -98 -60 -98 C-79 -98 -90 -94 -101 -87 C-103 -86 -106 -85 -108 -85 C-113 -85 -117 -88 -122 -94 L-185 -196 L-185 -196 Z M162 749 C147 749 136 741 125 730 L5 615 C-3 608 -4 599 3 589 L33 543 C36 539 40 537 44 537 C50 537 56 540 60 544 L184 634 L277 544 C281 540 286 537 291 537 C296 537 300 539 304 543 L348 589 C356 596 362 606 355 615 L271 730 C264 741 254 749 239 749 L162 749 L162 749 Z " />
<glyph glyph-name="uni0136" unicode="&#x136;" horiz-adv-x="672" d="M153 -269 C150 -276 155 -283 164 -283 L266 -283 C278 -283 285 -278 288 -269 L367 -62 C370 -55 367 -49 358 -49 L233 -49 C223 -49 217 -54 215 -63 L153 -269 Z M597 0 C610 0 615 8 610 19 L417 403 L699 681 C708 692 707 700 696 700 L528 700 C511 700 499 693 488 682 L236 436 L275 681 C277 694 272 700 259 700 L130 700 C117 700 110 694 109 681 L3 19 C1 6 6 0 19 0 L148 0 C161 0 168 6 169 19 L200 211 L282 289 L418 19 C425 6 433 0 450 0 L597 0 Z " />
<glyph glyph-name="uni0137" unicode="&#x137;" horiz-adv-x="544" d="M94 -269 C91 -276 96 -283 105 -283 L207 -283 C219 -283 226 -278 229 -269 L308 -62 C311 -55 308 -49 299 -49 L174 -49 C164 -49 158 -54 156 -63 L94 -269 Z M301 18 C306 6 318 0 335 0 L478 0 C490 0 492 8 485 19 L366 288 L549 481 C558 489 558 500 547 500 L393 500 C378 500 370 496 359 485 L213 341 L275 731 C276 744 270 750 259 750 L132 750 C119 750 112 744 111 731 L-2 19 C-4 6 1 0 13 0 L140 0 C152 0 159 6 161 19 L180 136 L226 181 L301 18 Z " />
<glyph glyph-name="kgreenlandic" unicode="&#x138;" horiz-adv-x="543" d="M300 18 C307 5 315 0 334 0 L477 0 C489 0 491 8 484 19 L365 288 L548 481 C557 489 557 500 546 500 L394 500 C381 500 369 495 359 485 L212 341 L235 481 C236 494 230 500 219 500 L92 500 C79 500 72 494 71 481 L-3 19 C-5 6 0 0 13 0 L139 0 C151 0 158 6 160 19 L179 136 L225 181 L300 18 L300 18 Z " />
<glyph glyph-name="Lacute" unicode="&#x139;" horiz-adv-x="472" d="M382 0 C394 0 401 6 403 19 L423 144 C425 156 420 162 407 162 L192 162 L275 681 C277 694 272 700 259 700 L130 700 C117 700 110 694 109 681 L3 19 C1 6 6 0 19 0 L382 0 L382 0 Z M228 740 C231 738 234 738 236 738 C242 738 247 741 252 747 L369 896 C376 905 376 914 364 918 L265 955 C263 956 260 956 258 956 C251 956 245 952 240 943 L157 796 C152 785 153 778 161 773 L228 740 L228 740 Z " />
<glyph glyph-name="lacute" unicode="&#x13a;" horiz-adv-x="253" d="M146 0 C158 0 165 6 167 19 L281 731 C282 744 276 750 265 750 L138 750 C125 750 118 744 117 731 L4 19 C2 6 7 0 19 0 L146 0 L146 0 Z M233 772 C236 770 239 770 241 770 C247 770 252 773 257 779 L374 928 C381 937 381 946 369 950 L270 987 C268 988 265 988 263 988 C256 988 250 984 245 975 L162 828 C157 817 158 810 166 805 L233 772 L233 772 Z " />
<glyph glyph-name="uni013B" unicode="&#x13b;" horiz-adv-x="472" d="M70 -269 C67 -276 72 -283 81 -283 L183 -283 C195 -283 202 -278 205 -269 L284 -62 C287 -55 284 -49 275 -49 L151 -49 C141 -49 135 -54 133 -63 L70 -269 Z M382 0 C394 0 401 6 403 19 L423 144 C425 156 420 162 407 162 L192 162 L275 681 C277 694 272 700 259 700 L130 700 C117 700 110 694 109 681 L3 19 C1 6 6 0 19 0 L382 0 Z " />
<glyph glyph-name="uni013C" unicode="&#x13c;" horiz-adv-x="271" d="M-74 -269 C-77 -276 -72 -283 -64 -283 L38 -283 C50 -283 57 -278 60 -269 L139 -62 C142 -55 139 -49 130 -49 L6 -49 C-4 -49 -10 -54 -12 -63 L-74 -269 Z M138 0 C150 0 157 6 159 19 L273 731 C274 744 268 750 257 750 L130 750 C117 750 110 744 109 731 L-4 19 C-6 6 -1 0 11 0 L138 0 Z " />
<glyph glyph-name="Lcaron" unicode="&#x13d;" horiz-adv-x="482" d="M327 480 C324 473 329 466 338 466 L441 466 C452 466 459 471 463 480 L541 687 C544 694 541 700 533 700 L408 700 C398 700 392 695 390 686 L327 480 Z M382 0 C394 0 401 6 403 19 L423 144 C425 156 420 162 407 162 L192 162 L275 681 C277 694 272 700 259 700 L130 700 C117 700 110 694 109 681 L3 19 C1 6 6 0 19 0 L382 0 Z " />
<glyph glyph-name="lcaron" unicode="&#x13e;" horiz-adv-x="449" d="M309 530 C306 523 311 516 320 516 L422 516 C434 516 441 521 444 530 L523 737 C526 744 523 750 514 750 L390 750 C380 750 374 745 372 736 L309 530 Z M140 0 C152 0 159 6 161 19 L275 731 C276 744 270 750 259 750 L132 750 C119 750 112 744 111 731 L-2 19 C-4 6 1 0 13 0 L140 0 Z " />
<glyph glyph-name="Ldot" unicode="&#x13f;" horiz-adv-x="481" d="M382 0 C394 0 401 6 403 19 L423 144 C425 156 420 162 407 162 L192 162 L275 681 C277 694 272 700 259 700 L130 700 C117 700 110 694 109 681 L3 19 C1 6 6 0 19 0 L382 0 L382 0 Z M320 421 C320 372 358 334 407 334 C458 334 496 372 496 421 C496 472 458 510 407 510 C358 510 320 472 320 421 L320 421 Z " />
<glyph glyph-name="ldot" unicode="&#x140;" horiz-adv-x="472" d="M140 0 C152 0 159 6 161 19 L275 731 C276 744 270 750 259 750 L132 750 C119 750 112 744 111 731 L-2 19 C-4 6 1 0 13 0 L140 0 L140 0 Z M290 376 C290 327 328 289 377 289 C428 289 466 327 466 376 C466 427 428 465 377 465 C328 465 290 427 290 376 L290 376 Z " />
<glyph glyph-name="Lslash" unicode="&#x141;" horiz-adv-x="494" d="M18 19 C16 6 21 0 34 0 L397 0 C409 0 416 6 418 19 L438 144 C440 156 435 162 422 162 L207 162 L233 327 L407 386 C419 390 424 398 423 409 L409 484 C407 492 402 496 395 496 C393 496 390 495 387 494 L253 449 L290 681 C292 694 287 700 274 700 L145 700 C132 700 125 694 124 681 L77 391 L-4 364 C-16 359 -21 352 -19 341 L-5 267 C-3 258 2 253 9 253 C11 253 14 254 17 255 L58 269 L18 19 Z " />
<glyph glyph-name="lslash" unicode="&#x142;" horiz-adv-x="397" d="M51 19 C50 6 56 0 67 0 L194 0 C207 0 214 6 215 19 L267 345 L417 396 C417 397 434 403 433 419 L416 500 C414 510 407 512 402 512 C398 512 395 511 395 511 L288 474 L329 731 C331 744 326 750 313 750 L186 750 C174 750 167 744 165 731 L115 419 L-21 371 C-40 364 -36 348 -36 347 L-20 265 C-20 262 -17 252 -5 252 C-3 252 -1 252 2 253 L94 285 L51 19 Z " />
<glyph glyph-name="Nacute" unicode="&#x143;" horiz-adv-x="741" d="M612 0 C624 0 631 6 633 19 L739 681 C740 694 734 700 723 700 L594 700 C581 700 574 694 572 681 L509 280 L290 681 C283 693 277 700 261 700 L130 700 C117 700 110 694 109 681 L4 19 C2 6 7 0 19 0 L148 0 C161 0 168 6 169 19 L234 422 L452 19 C459 7 465 0 481 0 L612 0 Z M435 741 C438 739 441 739 443 739 C449 739 454 742 459 748 L576 897 C583 906 583 915 571 919 L472 956 C470 957 467 957 465 957 C458 957 452 953 447 944 L364 797 C359 786 360 779 368 774 L435 741 L435 741 Z " />
<glyph glyph-name="nacute" unicode="&#x144;" horiz-adv-x="595" d="M476 0 C489 0 496 6 498 19 L540 287 C561 420 504 510 388 510 C319 510 266 475 229 436 L236 481 C237 494 231 500 220 500 L93 500 C80 500 73 494 72 481 L-2 19 C-4 6 1 0 14 0 L141 0 C153 0 160 6 162 19 L202 264 C207 307 255 354 303 354 C362 354 380 310 371 254 L334 19 C332 6 337 0 349 0 L476 0 L476 0 Z M340 544 C343 542 346 542 348 542 C354 542 359 545 364 551 L481 700 C488 709 488 718 476 722 L377 759 C375 760 372 760 370 760 C363 760 357 756 352 747 L269 600 C264 589 265 582 273 577 L340 544 L340 544 Z " />
<glyph glyph-name="uni0145" unicode="&#x145;" horiz-adv-x="741" d="M188 -269 C185 -276 190 -283 199 -283 L301 -283 C313 -283 320 -278 323 -269 L402 -62 C405 -55 402 -49 393 -49 L268 -49 C258 -49 252 -54 250 -63 L188 -269 Z M612 0 C624 0 631 6 633 19 L739 681 C740 694 734 700 723 700 L594 700 C581 700 574 694 572 681 L509 280 L290 681 C283 693 277 700 261 700 L130 700 C117 700 110 694 109 681 L4 19 C2 6 7 0 19 0 L148 0 C161 0 168 6 169 19 L234 422 L452 19 C459 7 465 0 481 0 L612 0 Z " />
<glyph glyph-name="uni0146" unicode="&#x146;" horiz-adv-x="595" d="M112 -269 C109 -276 114 -283 123 -283 L225 -283 C236 -283 243 -278 247 -269 L326 -62 C329 -53 326 -49 317 -49 L192 -49 C182 -49 176 -54 174 -63 L112 -269 Z M476 0 C489 0 496 6 498 19 L540 287 C561 420 504 510 388 510 C319 510 266 475 229 436 L236 481 C237 494 231 500 220 500 L93 500 C80 500 73 494 72 481 L-2 19 C-4 6 1 0 14 0 L141 0 C153 0 160 6 162 19 L202 264 C207 307 255 354 303 354 C362 354 380 310 371 254 L334 19 C332 6 337 0 349 0 L476 0 Z " />
<glyph glyph-name="Ncaron" unicode="&#x147;" horiz-adv-x="741" d="M612 0 C624 0 631 6 633 19 L739 681 C740 694 734 700 723 700 L594 700 C581 700 574 694 572 681 L509 280 L290 681 C283 693 277 700 261 700 L130 700 C117 700 110 694 109 681 L4 19 C2 6 7 0 19 0 L148 0 C161 0 168 6 169 19 L234 422 L452 19 C459 7 465 0 481 0 L612 0 Z M464 753 C479 753 490 761 501 772 L621 887 C630 896 628 906 623 914 L593 960 C590 964 586 966 582 966 C577 966 571 963 566 959 L442 868 L349 958 C345 962 340 965 335 965 C330 965 326 963 322 959 L278 914 C270 906 264 896 271 887 L355 772 C362 761 372 753 387 753 L464 753 L464 753 Z " />
<glyph glyph-name="ncaron" unicode="&#x148;" horiz-adv-x="595" d="M476 0 C489 0 496 6 498 19 L540 287 C561 420 504 510 388 510 C319 510 266 475 229 436 L236 481 C237 494 231 500 220 500 L93 500 C80 500 73 494 72 481 L-2 19 C-4 6 1 0 14 0 L141 0 C153 0 160 6 162 19 L202 264 C207 307 255 354 303 354 C362 354 380 310 371 254 L334 19 C332 6 337 0 349 0 L476 0 L476 0 Z M367 541 C382 541 393 549 404 560 L524 675 C533 684 531 694 526 702 L496 748 C493 752 489 754 485 754 C480 754 474 751 469 747 L345 656 L252 746 C248 750 243 753 238 753 C233 753 229 751 225 747 L181 702 C173 694 167 684 174 675 L258 560 C265 549 275 541 290 541 L367 541 L367 541 Z " />
<glyph glyph-name="napostrophe" unicode="&#x149;" horiz-adv-x="766" d="M57 530 C56 523 61 516 70 516 L172 516 C183 516 190 521 192 530 L238 737 C241 746 237 750 227 750 L102 750 C93 750 87 745 86 736 L57 530 Z M647 0 C660 0 667 6 669 19 L711 287 C732 420 675 510 559 510 C490 510 437 475 400 436 L407 481 C408 494 402 500 391 500 L264 500 C251 500 244 494 243 481 L169 19 C167 6 172 0 185 0 L312 0 C324 0 331 6 333 19 L373 264 C378 307 426 354 474 354 C533 354 551 310 542 254 L505 19 C503 6 508 0 520 0 L647 0 Z " />
<glyph glyph-name="Omacron" unicode="&#x14c;" horiz-adv-x="765" d="M440 710 C223 710 21 536 21 296 C21 109 162 -10 325 -10 C541 -10 743 164 743 404 C743 591 603 710 440 710 L440 710 Z M350 152 C250 152 187 221 187 316 C187 447 300 548 414 548 C514 548 577 479 577 384 C577 253 464 152 350 152 L350 152 Z M304 801 C302 789 307 783 320 783 L586 783 C599 783 606 789 607 801 L623 897 C625 909 620 915 607 915 L341 915 C328 915 321 909 319 897 L304 801 L304 801 Z " />
<glyph glyph-name="omacron" unicode="&#x14d;" horiz-adv-x="543" d="M-5 217 C-5 78 90 -10 213 -10 C377 -10 513 120 513 283 C513 422 418 510 296 510 C132 510 -5 380 -5 217 L-5 217 Z M155 232 C155 300 210 354 271 354 C323 354 353 316 353 268 C353 200 299 146 238 146 C186 146 155 184 155 232 L155 232 Z M160 605 C158 593 163 587 176 587 L442 587 C455 587 462 593 463 605 L479 701 C481 713 476 719 463 719 L197 719 C184 719 177 713 175 701 L160 605 L160 605 Z " />
<glyph glyph-name="Obreve" unicode="&#x14e;" horiz-adv-x="765" d="M440 710 C223 710 21 536 21 296 C21 109 162 -10 325 -10 C541 -10 743 164 743 404 C743 591 603 710 440 710 L440 710 Z M350 152 C250 152 187 221 187 316 C187 447 300 548 414 548 C514 548 577 479 577 384 C577 253 464 152 350 152 L350 152 Z M638 905 C639 913 635 914 627 917 L550 930 C549 931 547 931 546 931 C541 931 538 926 536 919 C525 883 503 859 456 859 C409 859 395 883 396 919 C396 930 393 930 385 930 L305 917 C296 915 291 911 290 905 C281 800 341 745 438 745 C545 745 618 800 638 905 L638 905 Z " />
<glyph glyph-name="obreve" unicode="&#x14f;" horiz-adv-x="543" d="M-5 217 C-5 78 90 -10 213 -10 C377 -10 513 120 513 283 C513 422 418 510 296 510 C132 510 -5 380 -5 217 L-5 217 Z M155 232 C155 300 210 354 271 354 C323 354 353 316 353 268 C353 200 299 146 238 146 C186 146 155 184 155 232 L155 232 Z M500 714 C501 722 497 723 489 726 L412 739 C411 740 409 740 408 740 C403 740 400 735 398 728 C387 692 365 668 318 668 C271 668 257 692 258 728 C258 739 255 739 247 739 L167 726 C158 724 153 720 152 714 C143 609 203 554 300 554 C407 554 480 609 500 714 L500 714 Z " />
<glyph glyph-name="Ohungarumlaut" unicode="&#x150;" horiz-adv-x="765" d="M440 710 C223 710 21 536 21 296 C21 109 162 -10 325 -10 C541 -10 743 164 743 404 C743 591 603 710 440 710 L440 710 Z M350 152 C250 152 187 221 187 316 C187 447 300 548 414 548 C514 548 577 479 577 384 C577 253 464 152 350 152 L350 152 Z M366 744 C369 743 372 742 375 742 C382 742 388 746 392 752 L481 899 C486 908 485 917 473 921 L374 956 C371 957 368 958 365 958 C357 958 351 953 349 945 L290 795 C287 787 290 776 301 771 L366 744 L366 744 Z M562 744 C565 743 568 742 571 742 C578 742 584 746 588 752 L683 898 C687 906 687 916 675 919 L570 956 C567 957 564 958 561 958 C553 958 547 953 545 945 L486 795 C483 787 486 776 497 771 L562 744 L562 744 Z " />
<glyph glyph-name="ohungarumlaut" unicode="&#x151;" horiz-adv-x="543" d="M-5 217 C-5 78 90 -10 213 -10 C377 -10 513 120 513 283 C513 422 418 510 296 510 C132 510 -5 380 -5 217 L-5 217 Z M155 232 C155 300 210 354 271 354 C323 354 353 316 353 268 C353 200 299 146 238 146 C186 146 155 184 155 232 L155 232 Z M219 536 C222 535 225 534 228 534 C235 534 241 538 245 544 L334 691 C339 700 338 709 326 713 L227 748 C224 749 221 750 218 750 C210 750 204 745 202 737 L143 587 C140 579 143 568 154 563 L219 536 L219 536 Z M415 536 C418 535 421 534 424 534 C431 534 437 538 441 544 L536 690 C540 698 540 708 528 711 L423 748 C420 749 417 750 414 750 C406 750 400 745 398 737 L339 587 C336 579 339 568 350 563 L415 536 L415 536 Z " />
<glyph glyph-name="OE" unicode="&#x152;" horiz-adv-x="1130" d="M349 152 C249 152 188 221 188 316 C188 447 301 548 413 548 C518 548 576 479 576 384 C576 279 469 152 349 152 L349 152 Z M1012 -10 C1025 -10 1033 -4 1035 9 L1055 133 C1056 146 1051 152 1038 152 L636 152 C683 189 705 227 718 270 L1022 270 C1034 270 1042 276 1045 289 L1064 413 C1066 426 1061 432 1048 432 L744 432 C743 480 730 520 699 548 L1102 548 C1115 548 1122 554 1124 567 L1143 691 C1145 704 1140 710 1127 710 L440 710 C222 710 21 536 21 296 C21 109 162 -10 337 -10 L1012 -10 L1012 -10 Z " />
<glyph glyph-name="oe" unicode="&#x153;" horiz-adv-x="877" d="M353 260 C348 193 297 146 238 146 C186 146 155 184 155 232 C155 300 210 354 271 354 C326 354 356 312 353 260 L353 260 Z M408 73 C440 24 497 -10 569 -10 C646 -10 711 10 767 41 C778 46 781 57 777 65 L732 145 C729 150 726 154 719 154 C716 154 712 153 707 151 C668 135 639 128 596 128 C540 128 503 162 498 206 L821 206 C836 206 841 215 844 226 C868 381 797 510 639 510 C573 510 513 484 459 431 C420 483 360 510 295 510 C132 510 -5 380 -5 217 C-5 78 89 -10 212 -10 C288 -10 355 22 408 73 L408 73 Z M515 303 C534 354 574 385 619 385 C670 385 695 354 699 303 L515 303 Z " />
<glyph glyph-name="Racute" unicode="&#x154;" horiz-adv-x="594" d="M329 550 C388 550 416 520 416 477 C416 421 368 378 299 378 L226 378 C231 405 235 429 238 452 C245 491 251 534 254 550 L329 550 L329 550 Z M419 254 C474 277 584 357 584 492 C584 606 501 700 378 700 L130 700 C118 700 111 694 109 681 L3 19 C1 6 6 0 19 0 L148 0 C161 0 168 6 169 19 L203 228 L246 228 L341 19 C348 6 355 0 371 0 L514 0 C527 0 531 8 526 19 L419 254 L419 254 Z M344 741 C347 739 350 739 352 739 C358 739 363 742 368 748 L485 897 C492 906 492 915 480 919 L381 956 C379 957 376 957 374 957 C367 957 361 953 356 944 L273 797 C268 786 269 779 277 774 L344 741 L344 741 Z " />
<glyph glyph-name="racute" unicode="&#x155;" horiz-adv-x="421" d="M93 500 C80 500 73 494 72 481 L-2 19 C-4 6 1 0 14 0 L141 0 C153 0 160 6 162 19 L195 226 C208 309 264 349 320 349 C335 349 349 347 362 342 C366 340 370 339 373 339 C379 339 385 343 388 349 L440 465 C447 478 449 486 438 493 C415 506 386 510 362 510 C307 510 251 466 228 427 L227 427 L236 481 C237 492 235 500 220 500 L93 500 L93 500 Z M293 544 C296 542 299 542 301 542 C307 542 312 545 317 551 L434 700 C441 709 441 718 429 722 L330 759 C328 760 325 760 323 760 C316 760 310 756 305 747 L222 600 C217 589 218 582 226 577 L293 544 L293 544 Z " />
<glyph glyph-name="uni0156" unicode="&#x156;" horiz-adv-x="594" d="M120 -269 C117 -276 122 -283 131 -283 L233 -283 C245 -283 252 -278 255 -269 L334 -62 C337 -55 334 -49 325 -49 L201 -49 C191 -49 185 -54 183 -63 L120 -269 Z M329 550 C388 550 416 520 416 477 C416 421 368 378 299 378 L226 378 C231 405 235 429 238 452 C245 491 251 534 254 550 L329 550 Z M419 254 C474 277 584 357 584 492 C584 606 501 700 378 700 L130 700 C118 700 111 694 109 681 L3 19 C1 6 6 0 19 0 L148 0 C161 0 168 6 169 19 L203 228 L246 228 L341 19 C348 6 355 0 371 0 L514 0 C527 0 531 8 526 19 L419 254 Z " />
<glyph glyph-name="uni0157" unicode="&#x157;" horiz-adv-x="423" d="M-69 -269 C-72 -276 -67 -283 -58 -283 L44 -283 C56 -283 63 -278 66 -269 L145 -62 C148 -55 145 -49 136 -49 L11 -49 C1 -49 -5 -54 -7 -63 L-69 -269 Z M94 500 C81 500 74 494 73 481 L-1 19 C-3 6 2 0 15 0 L142 0 C154 0 161 6 163 19 L196 226 C209 309 265 349 321 349 C336 349 350 347 363 342 C367 340 371 339 374 339 C380 339 386 343 389 349 L441 465 C448 478 450 486 439 493 C416 506 387 510 363 510 C308 510 252 466 229 427 L228 427 L237 481 C238 492 236 500 221 500 L94 500 Z " />
<glyph glyph-name="Rcaron" unicode="&#x158;" horiz-adv-x="594" d="M329 550 C388 550 416 520 416 477 C416 421 368 378 299 378 L226 378 C231 405 235 429 238 452 C245 491 251 534 254 550 L329 550 L329 550 Z M419 254 C474 277 584 357 584 492 C584 606 501 700 378 700 L130 700 C118 700 111 694 109 681 L3 19 C1 6 6 0 19 0 L148 0 C161 0 168 6 169 19 L203 228 L246 228 L341 19 C348 6 355 0 371 0 L514 0 C527 0 531 8 526 19 L419 254 L419 254 Z M387 753 C402 753 413 761 424 772 L544 887 C553 896 551 906 546 914 L516 960 C513 964 509 966 505 966 C500 966 494 963 489 959 L365 868 L272 958 C268 962 263 965 258 965 C253 965 249 963 245 959 L201 914 C193 906 187 896 194 887 L278 772 C285 761 295 753 310 753 L387 753 L387 753 Z " />
<glyph glyph-name="rcaron" unicode="&#x159;" horiz-adv-x="432" d="M93 500 C80 500 73 494 72 481 L-2 19 C-4 6 1 0 14 0 L141 0 C153 0 160 6 162 19 L195 226 C208 309 264 349 320 349 C335 349 349 347 362 342 C366 340 370 339 373 339 C379 339 385 343 388 349 L440 465 C447 478 449 486 438 493 C415 506 386 510 362 510 C307 510 251 466 228 427 L227 427 L236 481 C237 492 235 500 220 500 L93 500 L93 500 Z M307 544 C322 544 333 552 344 563 L464 678 C473 687 471 697 466 705 L436 751 C433 755 429 757 425 757 C420 757 414 754 409 750 L285 659 L192 749 C188 753 183 756 178 756 C173 756 169 754 165 750 L121 705 C113 697 107 687 114 678 L198 563 C205 552 215 544 230 544 L307 544 L307 544 Z " />
<glyph glyph-name="Sacute" unicode="&#x15a;" horiz-adv-x="530" d="M516 627 C525 638 524 646 514 653 C458 692 398 710 322 710 C171 710 64 620 64 496 C64 285 313 305 313 207 C313 178 288 149 231 149 C187 149 134 170 98 201 C94 204 89 206 85 206 C79 206 73 202 68 197 L-11 98 C-20 87 -16 79 -9 72 C50 21 126 -10 217 -10 C389 -10 480 114 480 225 C480 444 230 420 230 504 C230 533 260 551 299 551 C339 551 364 540 400 517 C405 514 409 513 413 513 C419 513 425 516 429 522 L516 627 Z M347 740 C350 738 353 738 355 738 C361 738 366 741 371 747 L488 896 C495 905 495 914 483 918 L384 955 C382 956 379 956 377 956 C370 956 364 952 359 943 L276 796 C271 785 272 778 280 773 L347 740 L347 740 Z " />
<glyph glyph-name="sacute" unicode="&#x15b;" horiz-adv-x="418" d="M78 162 C73 167 68 169 63 169 C58 169 53 167 47 162 L-18 102 C-29 93 -32 82 -25 71 C14 19 90 -10 165 -10 C290 -10 374 70 374 169 C374 326 179 306 179 352 C179 367 193 374 216 374 C239 374 263 367 286 352 C291 349 295 347 299 347 C303 347 307 349 313 354 L389 423 C399 432 401 440 395 449 C366 481 299 510 227 510 C125 510 29 447 29 347 C29 188 221 205 221 153 C221 136 202 126 173 126 C140 126 113 133 78 162 L78 162 Z M269 544 C272 542 275 542 277 542 C283 542 288 545 293 551 L410 700 C417 709 417 718 405 722 L306 759 C304 760 301 760 299 760 C292 760 286 756 281 747 L198 600 C193 589 194 582 202 577 L269 544 L269 544 Z " />
<glyph glyph-name="Scircumflex" unicode="&#x15c;" horiz-adv-x="531" d="M516 627 C525 638 524 646 514 653 C458 692 398 710 322 710 C171 710 64 620 64 496 C64 285 313 305 313 207 C313 178 288 149 231 149 C187 149 134 170 98 201 C94 204 89 206 85 206 C79 206 73 202 68 197 L-11 98 C-20 87 -16 79 -9 72 C50 21 126 -10 217 -10 C389 -10 480 114 480 225 C480 444 230 420 230 504 C230 533 260 551 299 551 C339 551 364 540 400 517 C405 514 409 513 413 513 C419 513 425 516 429 522 L516 627 Z M326 945 C311 945 300 937 289 926 L169 811 C161 804 160 795 167 785 L197 739 C200 735 204 733 208 733 C214 733 220 736 224 740 L348 830 L441 740 C445 736 450 733 455 733 C460 733 464 735 468 739 L512 785 C520 792 526 802 519 811 L435 926 C428 937 418 945 403 945 L326 945 L326 945 Z " />
<glyph glyph-name="scircumflex" unicode="&#x15d;" horiz-adv-x="429" d="M78 162 C73 167 68 169 63 169 C58 169 53 167 47 162 L-18 102 C-29 93 -32 82 -25 71 C14 19 90 -10 165 -10 C290 -10 374 70 374 169 C374 326 179 306 179 352 C179 367 193 374 216 374 C239 374 263 367 286 352 C291 349 295 347 299 347 C303 347 307 349 313 354 L389 423 C399 432 401 440 395 449 C366 481 299 510 227 510 C125 510 29 447 29 347 C29 188 221 205 221 153 C221 136 202 126 173 126 C140 126 113 133 78 162 L78 162 Z M236 749 C221 749 210 741 199 730 L79 615 C71 608 70 599 77 589 L107 543 C110 539 114 537 118 537 C124 537 130 540 134 544 L258 634 L351 544 C355 540 360 537 365 537 C370 537 374 539 378 543 L422 589 C430 596 436 606 429 615 L345 730 C338 741 328 749 313 749 L236 749 L236 749 Z " />
<glyph glyph-name="Scedilla" unicode="&#x15e;" horiz-adv-x="530" d="M85 -160 C82 -169 85 -174 96 -174 L213 -174 C223 -174 230 -169 235 -160 L286 -2 C395 19 480 114 480 225 C480 444 230 420 230 504 C230 535 264 551 299 551 C342 551 371 536 399 517 C404 514 409 513 414 513 C420 513 425 516 429 522 L516 627 C524 637 523 646 514 653 C458 692 398 710 322 710 C170 710 64 620 64 496 C64 285 313 305 313 207 C313 180 289 149 229 149 C185 149 133 172 98 201 C94 204 89 206 85 206 C79 206 73 202 68 197 L-11 98 C-20 87 -16 77 -9 72 C38 32 88 6 164 -5 L85 -160 L85 -160 Z " />
<glyph glyph-name="scedilla" unicode="&#x15f;" horiz-adv-x="424" d="M232 -1 C315 18 374 87 374 169 C374 326 179 306 179 352 C179 367 193 374 216 374 C240 374 257 369 286 352 C292 349 296 347 300 347 C304 347 307 349 313 354 L389 423 C399 432 401 440 395 449 C366 481 299 510 227 510 C125 510 29 447 29 347 C29 188 221 205 221 153 C221 136 202 126 173 126 C138 126 114 133 78 162 C73 167 67 169 62 169 C57 169 52 167 47 162 L-18 102 C-29 93 -32 82 -25 71 C2 36 50 7 113 -4 L35 -160 C31 -168 36 -174 45 -174 L157 -174 C168 -174 176 -169 180 -160 L232 -1 L232 -1 Z " />
<glyph glyph-name="Scaron" unicode="&#x160;" horiz-adv-x="539" d="M516 627 C525 638 524 646 514 653 C458 692 398 710 322 710 C171 710 64 620 64 496 C64 285 313 305 313 207 C313 178 288 149 231 149 C187 149 134 170 98 201 C94 204 89 206 85 206 C79 206 73 202 68 197 L-11 98 C-20 87 -16 79 -9 72 C50 21 126 -10 217 -10 C389 -10 480 114 480 225 C480 444 230 420 230 504 C230 533 260 551 299 551 C339 551 364 540 400 517 C405 514 409 513 413 513 C419 513 425 516 429 522 L516 627 Z M367 753 C382 753 393 761 404 772 L524 887 C533 896 531 906 526 914 L496 960 C493 964 489 966 485 966 C480 966 474 963 469 959 L345 868 L252 958 C248 962 243 965 238 965 C233 965 229 963 225 959 L181 914 C173 906 167 896 174 887 L258 772 C265 761 275 753 290 753 L367 753 L367 753 Z " />
<glyph glyph-name="scaron" unicode="&#x161;" horiz-adv-x="428" d="M78 162 C73 167 68 169 63 169 C58 169 53 167 47 162 L-18 102 C-29 93 -32 82 -25 71 C14 19 90 -10 165 -10 C290 -10 374 70 374 169 C374 326 179 306 179 352 C179 367 193 374 216 374 C239 374 263 367 286 352 C291 349 295 347 299 347 C303 347 307 349 313 354 L389 423 C399 432 401 440 395 449 C366 481 299 510 227 510 C125 510 29 447 29 347 C29 188 221 205 221 153 C221 136 202 126 173 126 C140 126 113 133 78 162 L78 162 Z M288 547 C303 547 314 555 325 566 L445 681 C454 690 452 700 447 708 L417 754 C414 758 410 760 406 760 C401 760 395 757 390 753 L266 662 L173 752 C169 756 164 759 159 759 C154 759 150 757 146 753 L102 708 C94 700 88 690 95 681 L179 566 C186 555 196 547 211 547 L288 547 L288 547 Z " />
<glyph glyph-name="uni0162" unicode="&#x162;" horiz-adv-x="530" d="M63 -269 C60 -276 65 -283 74 -283 L177 -283 C188 -283 195 -278 199 -269 L277 -62 C280 -55 277 -49 269 -49 L144 -49 C134 -49 128 -54 126 -63 L63 -269 Z M277 0 C289 0 296 6 298 19 L380 538 L543 538 C556 538 563 544 565 556 L585 681 C587 694 582 700 569 700 L65 700 C52 700 45 694 43 681 L23 556 C21 544 26 538 39 538 L214 538 L131 19 C130 6 136 0 147 0 L277 0 Z " />
<glyph glyph-name="uni0163" unicode="&#x163;" horiz-adv-x="401" d="M21 -269 C18 -276 23 -283 32 -283 L134 -283 C146 -283 153 -278 156 -269 L235 -62 C238 -55 235 -49 226 -49 L102 -49 C92 -49 86 -54 84 -63 L21 -269 Z M313 153 C311 158 307 160 302 160 C299 160 297 160 294 159 C277 151 263 146 244 146 C220 146 202 157 209 189 L235 350 L346 350 C358 350 365 356 367 369 L385 481 C387 494 382 500 369 500 L258 500 L278 629 C281 640 278 648 263 648 L136 648 C123 648 116 642 114 629 L94 500 L52 500 C41 500 33 496 30 481 L12 369 C11 357 17 350 28 350 L71 350 L41 167 C25 63 84 -10 194 -10 C235 -10 286 0 333 27 C346 34 347 41 344 50 L313 153 Z " />
<glyph glyph-name="Tcaron" unicode="&#x164;" horiz-adv-x="530" d="M277 0 C289 0 296 6 298 19 L380 538 L543 538 C556 538 563 544 565 556 L585 681 C587 694 582 700 569 700 L65 700 C52 700 45 694 43 681 L23 556 C21 544 26 538 39 538 L214 538 L131 19 C130 6 136 0 147 0 L277 0 L277 0 Z M361 753 C376 753 387 761 398 772 L518 887 C527 896 525 906 520 914 L490 960 C487 964 483 966 479 966 C474 966 468 963 463 959 L339 868 L246 958 C242 962 237 965 232 965 C227 965 223 963 219 959 L175 914 C167 906 161 896 168 887 L252 772 C259 761 269 753 284 753 L361 753 L361 753 Z " />
<glyph glyph-name="tcaron" unicode="&#x165;" horiz-adv-x="479" d="M340 566 C339 559 343 552 352 552 L455 552 C466 552 472 557 475 566 L520 773 C523 782 519 786 510 786 L385 786 C376 786 370 781 369 772 L340 566 Z M313 153 C311 158 307 160 302 160 C299 160 297 160 294 159 C277 151 263 146 244 146 C220 146 202 157 209 189 L235 350 L346 350 C358 350 365 356 367 369 L385 481 C387 494 382 500 369 500 L258 500 L278 629 C281 640 278 648 263 648 L136 648 C123 648 116 642 114 629 L94 500 L52 500 C41 500 33 496 30 481 L12 369 C11 357 17 350 28 350 L71 350 L41 167 C25 63 84 -10 194 -10 C235 -10 286 0 333 27 C346 34 347 41 344 50 L313 153 Z " />
<glyph glyph-name="Tbar" unicode="&#x166;" horiz-adv-x="541" d="M142 19 C141 6 147 0 158 0 L288 0 C300 0 307 6 309 19 L344 237 L477 237 C490 237 497 243 498 255 L519 381 C521 393 516 399 503 399 L369 399 L391 538 L554 538 C567 538 574 544 576 556 L596 681 C598 694 593 700 580 700 L76 700 C63 700 56 694 54 681 L34 556 C32 544 37 538 50 538 L225 538 L203 399 L65 399 C52 399 45 393 43 381 L23 255 C21 243 26 237 39 237 L177 237 L142 19 Z " />
<glyph glyph-name="tbar" unicode="&#x167;" horiz-adv-x="405" d="M280 226 C292 226 299 232 301 245 L306 277 C309 288 303 295 291 295 L230 295 L238 350 L350 350 C362 350 369 356 371 369 L389 481 C391 494 386 500 373 500 L262 500 L282 629 C285 640 282 648 267 648 L140 648 C127 648 120 642 118 629 L98 500 L55 500 C44 500 37 496 34 481 L16 369 C13 357 21 350 32 350 L74 350 L66 295 L39 295 C28 295 20 290 17 277 L12 245 C11 233 17 226 28 226 L54 226 L45 167 C29 63 88 -10 198 -10 C241 -10 281 0 337 27 C350 34 351 41 348 50 L316 153 C314 158 310 160 305 160 C303 160 301 160 298 159 C281 151 267 146 248 146 C224 146 207 157 212 189 L218 226 L280 226 Z " />
<glyph glyph-name="Utilde" unicode="&#x168;" horiz-adv-x="669" d="M116 700 C103 700 96 694 94 681 L30 276 C6 123 93 -10 285 -10 C457 -10 585 108 612 276 L676 681 C679 694 674 700 661 700 L532 700 C519 700 512 694 510 681 L450 307 C435 207 388 152 301 152 C214 152 185 207 201 307 L260 681 C263 694 258 700 245 700 L116 700 L116 700 Z M487 886 C440 886 429 937 359 937 C324 937 279 913 240 886 C228 879 226 872 225 859 L220 782 C219 775 220 770 224 770 C227 770 231 772 236 775 C271 800 300 822 331 822 C378 822 388 771 458 771 C493 771 540 794 579 821 C590 829 591 835 592 848 L598 926 C598 933 596 937 592 937 C590 937 586 935 582 932 C547 908 516 886 487 886 L487 886 Z " />
<glyph glyph-name="utilde" unicode="&#x169;" horiz-adv-x="591" d="M78 500 C66 500 59 494 57 481 L14 213 C-8 79 52 -10 166 -10 C235 -10 287 26 326 65 L319 19 C317 6 322 0 335 0 L462 0 C474 0 481 6 483 19 L556 481 C558 494 553 500 541 500 L414 500 C401 500 394 494 392 481 L353 236 C345 193 301 146 251 146 C194 146 174 190 183 246 L221 481 C223 494 218 500 205 500 L78 500 L78 500 Z M408 694 C361 694 350 745 280 745 C245 745 200 721 161 694 C149 687 147 680 146 667 L141 590 C140 583 141 578 145 578 C148 578 152 580 157 583 C192 608 221 630 252 630 C299 630 309 579 379 579 C414 579 461 602 500 629 C511 637 512 643 513 656 L519 734 C519 741 517 745 513 745 C511 745 507 743 503 740 C468 716 437 694 408 694 L408 694 Z " />
<glyph glyph-name="Umacron" unicode="&#x16a;" horiz-adv-x="669" d="M116 700 C103 700 96 694 94 681 L30 276 C6 123 93 -10 285 -10 C457 -10 585 108 612 276 L676 681 C679 694 674 700 661 700 L532 700 C519 700 512 694 510 681 L450 307 C435 207 388 152 301 152 C214 152 185 207 201 307 L260 681 C263 694 258 700 245 700 L116 700 L116 700 Z M248 801 C246 789 251 783 264 783 L530 783 C543 783 550 789 551 801 L567 897 C569 909 564 915 551 915 L285 915 C272 915 265 909 263 897 L248 801 L248 801 Z " />
<glyph glyph-name="umacron" unicode="&#x16b;" horiz-adv-x="590" d="M78 500 C66 500 59 494 57 481 L14 213 C-8 79 52 -10 166 -10 C235 -10 287 26 326 65 L319 19 C317 6 322 0 335 0 L462 0 C474 0 481 6 483 19 L556 481 C558 494 553 500 541 500 L414 500 C401 500 394 494 392 481 L353 236 C345 193 301 146 251 146 C194 146 174 190 183 246 L221 481 C223 494 218 500 205 500 L78 500 L78 500 Z M168 605 C166 593 171 587 184 587 L450 587 C463 587 470 593 471 605 L487 701 C489 713 484 719 471 719 L205 719 C192 719 185 713 183 701 L168 605 L168 605 Z " />
<glyph glyph-name="Ubreve" unicode="&#x16c;" horiz-adv-x="669" d="M116 700 C103 700 96 694 94 681 L30 276 C6 123 93 -10 285 -10 C457 -10 585 108 612 276 L676 681 C679 694 674 700 661 700 L532 700 C519 700 512 694 510 681 L450 307 C435 207 388 152 301 152 C214 152 185 207 201 307 L260 681 C263 694 258 700 245 700 L116 700 L116 700 Z M585 905 C586 913 582 914 574 917 L497 930 C496 931 494 931 493 931 C488 931 485 926 483 919 C472 883 450 859 403 859 C356 859 342 883 343 919 C343 930 340 930 332 930 L252 917 C243 915 238 911 237 905 C228 800 288 745 385 745 C492 745 565 800 585 905 L585 905 Z " />
<glyph glyph-name="ubreve" unicode="&#x16d;" horiz-adv-x="590" d="M78 500 C66 500 59 494 57 481 L14 213 C-8 79 52 -10 166 -10 C235 -10 287 26 326 65 L319 19 C317 6 322 0 335 0 L462 0 C474 0 481 6 483 19 L556 481 C558 494 553 500 541 500 L414 500 C401 500 394 494 392 481 L353 236 C345 193 301 146 251 146 C194 146 174 190 183 246 L221 481 C223 494 218 500 205 500 L78 500 L78 500 Z M508 701 C509 709 505 710 497 713 L420 726 C419 727 417 727 416 727 C411 727 408 722 406 715 C395 679 373 655 326 655 C279 655 265 679 266 715 C266 726 263 726 255 726 L175 713 C166 711 161 707 160 701 C151 596 211 541 308 541 C415 541 488 596 508 701 L508 701 Z " />
<glyph glyph-name="Uring" unicode="&#x16e;" horiz-adv-x="669" d="M116 700 C103 700 96 694 94 681 L30 276 C6 123 93 -10 285 -10 C457 -10 585 108 612 276 L676 681 C679 694 674 700 661 700 L532 700 C519 700 512 694 510 681 L450 307 C435 207 388 152 301 152 C214 152 185 207 201 307 L260 681 C263 694 258 700 245 700 L116 700 L116 700 Z M267 861 C267 788 327 728 400 728 C472 728 532 788 532 861 C532 933 472 993 400 993 C327 993 267 933 267 861 L267 861 Z M364 861 C364 881 380 897 400 897 C420 897 436 881 436 861 C436 841 420 825 400 825 C380 825 364 841 364 861 L364 861 Z " />
<glyph glyph-name="uring" unicode="&#x16f;" horiz-adv-x="590" d="M78 500 C66 500 59 494 57 481 L14 213 C-8 79 52 -10 166 -10 C235 -10 287 26 326 65 L319 19 C317 6 322 0 335 0 L462 0 C474 0 481 6 483 19 L556 481 C558 494 553 500 541 500 L414 500 C401 500 394 494 392 481 L353 236 C345 193 301 146 251 146 C194 146 174 190 183 246 L221 481 C223 494 218 500 205 500 L78 500 L78 500 Z M191 673 C191 600 251 540 324 540 C396 540 456 600 456 673 C456 745 396 805 324 805 C251 805 191 745 191 673 L191 673 Z M288 673 C288 693 304 709 324 709 C344 709 360 693 360 673 C360 653 344 637 324 637 C304 637 288 653 288 673 L288 673 Z " />
<glyph glyph-name="Uhungarumlaut" unicode="&#x170;" horiz-adv-x="669" d="M116 700 C103 700 96 694 94 681 L30 276 C6 123 93 -10 285 -10 C457 -10 585 108 612 276 L676 681 C679 694 674 700 661 700 L532 700 C519 700 512 694 510 681 L450 307 C435 207 388 152 301 152 C214 152 185 207 201 307 L260 681 C263 694 258 700 245 700 L116 700 L116 700 Z M302 744 C305 743 308 742 311 742 C318 742 324 746 328 752 L417 899 C422 908 421 917 409 921 L310 956 C307 957 304 958 301 958 C293 958 287 953 285 945 L226 795 C223 787 226 776 237 771 L302 744 L302 744 Z M498 744 C501 743 504 742 507 742 C514 742 520 746 524 752 L619 898 C623 906 623 916 611 919 L506 956 C503 957 500 958 497 958 C489 958 483 953 481 945 L422 795 C419 787 422 776 433 771 L498 744 L498 744 Z " />
<glyph glyph-name="uhungarumlaut" unicode="&#x171;" horiz-adv-x="590" d="M78 500 C66 500 59 494 57 481 L14 213 C-8 79 52 -10 166 -10 C235 -10 287 26 326 65 L319 19 C317 6 322 0 335 0 L462 0 C474 0 481 6 483 19 L556 481 C558 494 553 500 541 500 L414 500 C401 500 394 494 392 481 L353 236 C345 193 301 146 251 146 C194 146 174 190 183 246 L221 481 C223 494 218 500 205 500 L78 500 L78 500 Z M225 529 C228 528 231 527 234 527 C241 527 247 531 251 537 L340 684 C345 693 344 702 332 706 L233 741 C230 742 227 743 224 743 C216 743 210 738 208 730 L149 580 C146 572 149 561 160 556 L225 529 L225 529 Z M421 529 C424 528 427 527 430 527 C437 527 443 531 447 537 L542 683 C546 691 546 701 534 704 L429 741 C426 742 423 743 420 743 C412 743 406 738 404 730 L345 580 C342 572 345 561 356 556 L421 529 L421 529 Z " />
<glyph glyph-name="Uogonek" unicode="&#x172;" horiz-adv-x="670" d="M231 -6 C137 -90 171 -207 294 -207 C307 -207 321 -206 336 -203 C343 -201 347 -197 348 -190 L360 -108 C361 -102 358 -99 352 -99 C352 -99 351 -99 350 -99 C345 -100 340 -100 336 -100 C281 -100 283 -40 326 -8 C502 13 592 145 613 276 L677 681 C679 694 674 700 661 700 L532 700 C519 700 512 694 511 681 L451 307 C435 207 387 152 302 152 C217 152 186 207 202 307 L261 681 C263 694 258 700 245 700 L116 700 C103 700 96 694 95 681 L30 276 C6 122 95 13 231 -6 L231 -6 Z " />
<glyph glyph-name="uogonek" unicode="&#x173;" horiz-adv-x="590" d="M318 22 C317 10 321 1 332 0 L366 0 C267 -80 294 -207 426 -207 C438 -207 452 -206 467 -203 C473 -202 477 -198 478 -190 L490 -108 C491 -102 488 -99 482 -99 C482 -99 481 -99 480 -99 C474 -100 469 -101 464 -101 C410 -101 414 -36 465 0 C478 0 479 7 482 19 L556 480 C557 493 552 500 540 500 L413 500 C400 500 393 494 392 481 L352 236 C344 192 300 146 250 146 C193 146 173 190 182 246 L219 481 C221 494 216 500 203 500 L77 500 C65 500 58 494 56 481 L13 213 C-8 77 53 -10 165 -10 C234 -10 288 26 325 65 L318 22 L318 22 Z " />
<glyph glyph-name="Wcircumflex" unicode="&#x174;" horiz-adv-x="952" d="M713 0 C725 0 733 6 738 19 L1001 681 C1005 692 1005 700 992 700 L848 700 C832 700 826 692 821 681 L666 271 L624 687 C622 696 617 700 608 700 L457 700 C447 700 440 696 437 687 L261 271 L238 681 C237 692 233 700 217 700 L73 700 C61 700 55 692 58 681 L111 19 C112 6 118 0 131 0 L289 0 C304 0 313 6 318 19 L492 443 L532 19 C533 6 540 0 555 0 L713 0 L713 0 Z M533 945 C518 945 507 937 496 926 L376 811 C368 804 367 795 374 785 L404 739 C407 735 411 733 415 733 C421 733 427 736 431 740 L555 830 L648 740 C652 736 657 733 662 733 C667 733 671 735 675 739 L719 785 C727 792 733 802 726 811 L642 926 C635 937 625 945 610 945 L533 945 L533 945 Z " />
<glyph glyph-name="wcircumflex" unicode="&#x175;" horiz-adv-x="740" d="M181 481 C180 494 173 500 162 500 L35 500 C24 500 20 494 21 481 L35 251 C38 192 42 135 45 92 C47 67 48 43 49 20 C50 7 57 0 68 0 L231 0 C246 0 253 9 257 20 L361 306 L374 20 C377 9 383 0 395 0 L558 0 C569 0 577 9 582 20 L757 481 C762 494 759 500 748 500 L621 500 C610 500 602 494 597 481 L498 209 L479 481 C478 494 472 500 461 500 L323 500 C310 500 302 494 299 481 L246 344 C219 276 193 209 193 209 L181 481 L181 481 Z M393 734 C378 734 367 726 356 715 L236 600 C228 593 227 584 234 574 L264 528 C267 524 271 522 275 522 C281 522 287 525 291 529 L415 619 L508 529 C512 525 517 522 522 522 C527 522 531 524 535 528 L579 574 C587 581 593 591 586 600 L502 715 C495 726 485 734 470 734 L393 734 L393 734 Z " />
<glyph glyph-name="Ycircumflex" unicode="&#x176;" horiz-adv-x="591" d="M221 689 C218 696 212 700 203 700 L55 700 C42 700 38 694 45 681 L209 338 L158 19 C157 6 163 0 174 0 L303 0 C316 0 323 6 325 19 L375 338 L649 681 C656 689 654 700 642 700 L490 700 C481 700 474 696 468 689 L310 489 L221 689 L221 689 Z M353 945 C338 945 327 937 316 926 L196 811 C188 804 187 795 194 785 L224 739 C227 735 231 733 235 733 C241 733 247 736 251 740 L375 830 L468 740 C472 736 477 733 482 733 C487 733 491 735 495 739 L539 785 C547 792 553 802 546 811 L462 926 C455 937 445 945 430 945 L353 945 L353 945 Z " />
<glyph glyph-name="ycircumflex" unicode="&#x177;" horiz-adv-x="594" d="M560 481 C562 494 557 500 544 500 L418 500 C405 500 398 494 396 481 L358 243 C353 203 305 156 257 156 C200 156 180 200 189 256 L225 481 C227 494 222 500 209 500 L82 500 C70 500 63 494 61 481 L20 223 C-2 89 53 0 172 0 C233 0 304 31 331 66 L322 17 C314 -38 274 -99 182 -99 C139 -99 103 -83 83 -58 C80 -55 77 -53 74 -53 C69 -53 64 -56 59 -62 L-20 -149 C-28 -158 -29 -166 -23 -173 C12 -220 87 -255 167 -255 C354 -255 463 -134 490 34 L560 481 L560 481 Z M312 749 C297 749 286 741 275 730 L155 615 C147 608 146 599 153 589 L183 543 C186 539 190 537 194 537 C200 537 206 540 210 544 L334 634 L427 544 C431 540 436 537 441 537 C446 537 450 539 454 543 L498 589 C506 596 512 606 505 615 L421 730 C414 741 404 749 389 749 L312 749 L312 749 Z " />
<glyph glyph-name="Ydieresis" unicode="&#x178;" horiz-adv-x="591" d="M221 689 C218 696 212 700 203 700 L55 700 C42 700 38 694 45 681 L209 338 L158 19 C157 6 163 0 174 0 L303 0 C316 0 323 6 325 19 L375 338 L649 681 C656 689 654 700 642 700 L490 700 C481 700 474 696 468 689 L310 489 L221 689 L221 689 Z M165 843 C165 795 203 757 251 757 C300 757 339 795 339 843 C339 892 300 931 251 931 C203 931 165 892 165 843 L165 843 Z M396 843 C396 795 433 757 482 757 C533 757 571 795 571 843 C571 892 533 931 482 931 C433 931 396 892 396 843 L396 843 Z " />
<glyph glyph-name="Zacute" unicode="&#x179;" horiz-adv-x="578" d="M-23 19 C-25 6 -20 0 -8 0 L472 0 C485 0 492 6 494 19 L514 144 C516 156 511 162 498 162 L222 162 L563 549 C570 556 569 557 572 572 L590 681 C592 694 587 700 574 700 L118 700 C105 700 98 694 97 681 L76 556 C74 544 79 538 92 538 L348 538 L17 161 C4 146 -5 135 -8 116 L-23 19 L-23 19 Z M362 742 C365 740 368 740 370 740 C376 740 381 743 386 749 L503 898 C510 907 510 916 498 920 L399 957 C397 958 394 958 392 958 C385 958 379 954 374 945 L291 798 C286 787 287 780 295 775 L362 742 L362 742 Z " />
<glyph glyph-name="zacute" unicode="&#x17a;" horiz-adv-x="462" d="M-29 19 C-31 6 -26 0 -14 0 L357 0 C369 0 376 6 378 19 L395 128 C398 140 393 146 380 146 L207 146 L405 367 C420 382 428 397 431 421 L441 481 C443 494 438 500 425 500 L78 500 C65 500 58 494 57 481 L39 372 C37 360 42 354 55 354 L208 354 L6 128 C-9 113 -16 102 -20 81 L-29 19 L-29 19 Z M271 544 C274 542 277 542 279 542 C285 542 290 545 295 551 L412 700 C419 709 419 718 407 722 L308 759 C306 760 303 760 301 760 C294 760 288 756 283 747 L200 600 C195 589 196 582 204 577 L271 544 L271 544 Z " />
<glyph glyph-name="Zdotaccent" unicode="&#x17b;" horiz-adv-x="578" d="M-23 19 C-25 6 -20 0 -8 0 L472 0 C485 0 492 6 494 19 L514 144 C516 156 511 162 498 162 L222 162 L563 549 C570 556 569 557 572 572 L590 681 C592 694 587 700 574 700 L118 700 C105 700 98 694 97 681 L76 556 C74 544 79 538 92 538 L348 538 L17 161 C4 146 -5 135 -8 116 L-23 19 L-23 19 Z M267 860 C267 811 305 773 354 773 C405 773 443 811 443 860 C443 911 405 949 354 949 C305 949 267 911 267 860 L267 860 Z " />
<glyph glyph-name="zdotaccent" unicode="&#x17c;" horiz-adv-x="462" d="M-29 19 C-31 6 -26 0 -14 0 L357 0 C369 0 376 6 378 19 L395 128 C398 140 393 146 380 146 L207 146 L405 367 C420 382 428 397 431 421 L441 481 C443 494 438 500 425 500 L78 500 C65 500 58 494 57 481 L39 372 C37 360 42 354 55 354 L208 354 L6 128 C-9 113 -16 102 -20 81 L-29 19 L-29 19 Z M177 667 C177 618 215 580 264 580 C315 580 353 618 353 667 C353 718 315 756 264 756 C215 756 177 718 177 667 L177 667 Z " />
<glyph glyph-name="Zcaron" unicode="&#x17d;" horiz-adv-x="578" d="M-23 19 C-25 6 -20 0 -8 0 L472 0 C485 0 492 6 494 19 L514 144 C516 156 511 162 498 162 L222 162 L563 549 C570 556 569 557 572 572 L590 681 C592 694 587 700 574 700 L118 700 C105 700 98 694 97 681 L76 556 C74 544 79 538 92 538 L348 538 L17 161 C4 146 -5 135 -8 116 L-23 19 L-23 19 Z M388 753 C403 753 414 761 425 772 L545 887 C554 896 552 906 547 914 L517 960 C514 964 510 966 506 966 C501 966 495 963 490 959 L366 868 L273 958 C269 962 264 965 259 965 C254 965 250 963 246 959 L202 914 C194 906 188 896 195 887 L279 772 C286 761 296 753 311 753 L388 753 L388 753 Z " />
<glyph glyph-name="zcaron" unicode="&#x17e;" horiz-adv-x="465" d="M-29 19 C-31 6 -26 0 -14 0 L357 0 C369 0 376 6 378 19 L395 128 C398 140 393 146 380 146 L207 146 L405 367 C420 382 428 397 431 421 L441 481 C443 494 438 500 425 500 L78 500 C65 500 58 494 57 481 L39 372 C37 360 42 354 55 354 L208 354 L6 128 C-9 113 -16 102 -20 81 L-29 19 L-29 19 Z M293 541 C308 541 319 549 330 560 L450 675 C459 684 457 694 452 702 L422 748 C419 752 415 754 411 754 C406 754 400 751 395 747 L271 656 L178 746 C174 750 169 753 164 753 C159 753 155 751 151 747 L107 702 C99 694 93 684 100 675 L184 560 C191 549 201 541 216 541 L293 541 L293 541 Z " />
<glyph glyph-name="longs" unicode="&#x17f;" horiz-adv-x="391" d="M270 549 C277 592 302 604 326 604 C341 604 358 599 375 590 C377 589 379 588 381 588 C384 588 387 590 390 593 L458 685 C465 694 469 700 458 708 C415 743 366 760 310 760 C199 760 129 693 112 589 L99 500 L49 500 C36 500 29 494 27 481 L9 369 C7 356 12 350 25 350 L75 350 L23 19 C20 6 25 0 38 0 L164 0 C177 0 184 6 187 19 L270 549 L270 549 Z " />
<glyph glyph-name="florin" unicode="&#x192;" horiz-adv-x="503" d="M133 126 C121 79 96 47 45 47 C31 47 16 50 -2 56 C-4 57 -7 57 -9 57 C-18 57 -22 52 -24 43 L-41 -23 C-44 -34 -40 -41 -28 -45 C9 -59 48 -66 84 -66 C178 -66 230 -13 254 77 L345 425 L481 425 C492 425 497 431 497 444 L497 509 C496 520 489 525 478 525 L371 525 L387 583 C399 632 420 662 473 662 C489 662 504 658 521 654 C524 653 527 653 529 653 C538 653 542 658 544 667 L560 732 C563 743 559 750 548 755 C516 768 476 776 438 776 C344 776 289 727 267 634 L238 525 L155 525 C144 525 138 516 138 505 L138 443 C138 431 144 425 156 425 L212 425 L133 126 Z " />
<glyph glyph-name="uni0218" unicode="&#x218;" horiz-adv-x="530" d="M80 -269 C77 -276 82 -283 91 -283 L193 -283 C205 -283 212 -278 215 -269 L294 -62 C297 -55 294 -49 285 -49 L161 -49 C151 -49 145 -54 143 -63 L80 -269 Z M516 627 C525 638 524 646 514 653 C458 692 398 710 322 710 C171 710 64 620 64 496 C64 285 313 305 313 207 C313 178 288 149 231 149 C187 149 134 170 98 201 C94 204 89 206 85 206 C79 206 73 202 68 197 L-11 98 C-20 87 -16 79 -9 72 C50 21 126 -10 217 -10 C389 -10 480 114 480 225 C480 444 230 420 230 504 C230 533 260 551 299 551 C339 551 364 540 400 517 C405 514 409 513 413 513 C419 513 425 516 429 522 L516 627 Z " />
<glyph glyph-name="uni0219" unicode="&#x219;" horiz-adv-x="423" d="M22 -269 C19 -276 24 -283 33 -283 L135 -283 C147 -283 154 -278 157 -269 L236 -62 C239 -55 236 -49 227 -49 L103 -49 C93 -49 87 -54 85 -63 L22 -269 Z M78 162 C73 167 68 169 63 169 C58 169 53 167 47 162 L-18 102 C-29 93 -32 82 -25 71 C14 19 90 -10 165 -10 C290 -10 374 70 374 169 C374 326 179 306 179 352 C179 367 193 374 216 374 C239 374 263 367 286 352 C291 349 295 347 299 347 C303 347 307 349 313 354 L389 423 C399 432 401 440 395 449 C366 481 299 510 227 510 C125 510 29 447 29 347 C29 188 221 205 221 153 C221 136 202 126 173 126 C140 126 113 133 78 162 L78 162 Z " />
<glyph glyph-name="uni021A" unicode="&#x21a;" horiz-adv-x="530" d="M64 -269 C61 -276 66 -283 75 -283 L177 -283 C188 -283 195 -278 199 -269 L278 -62 C281 -53 278 -49 269 -49 L144 -49 C134 -49 128 -54 126 -63 L64 -269 Z M277 0 C289 0 296 6 298 19 L380 538 L543 538 C556 538 563 544 565 556 L585 681 C587 694 582 700 569 700 L65 700 C52 700 45 694 43 681 L23 556 C21 544 26 538 39 538 L214 538 L131 19 C130 6 136 0 147 0 L277 0 Z " />
<glyph glyph-name="uni021B" unicode="&#x21b;" horiz-adv-x="401" d="M37 -269 C34 -276 39 -283 48 -283 L150 -283 C162 -283 169 -278 172 -269 L251 -62 C254 -55 251 -49 242 -49 L118 -49 C108 -49 102 -54 100 -63 L37 -269 Z M313 153 C311 158 307 160 302 160 C299 160 297 160 294 159 C277 151 263 146 244 146 C220 146 202 157 209 189 L235 350 L346 350 C358 350 365 356 367 369 L385 481 C387 494 382 500 369 500 L258 500 L278 629 C281 640 278 648 263 648 L136 648 C123 648 116 642 114 629 L94 500 L52 500 C41 500 33 496 30 481 L12 369 C11 357 17 350 28 350 L71 350 L41 167 C25 63 84 -10 194 -10 C235 -10 286 0 333 27 C346 34 347 41 344 50 L313 153 Z " />
<glyph glyph-name="circumflex" unicode="&#x2c6;" horiz-adv-x="336" d="M180 737 C165 737 154 729 143 718 L23 603 C15 596 14 587 21 577 L51 531 C54 527 58 525 62 525 C68 525 74 528 78 532 L202 622 L295 532 C299 528 304 525 309 525 C314 525 318 527 322 531 L366 577 C374 584 380 594 373 603 L289 718 C282 729 272 737 257 737 L180 737 L180 737 Z " />
<glyph glyph-name="caron" unicode="&#x2c7;" horiz-adv-x="340" d="M240 541 C255 541 266 549 277 560 L397 675 C406 684 404 694 399 702 L369 748 C366 752 362 754 358 754 C353 754 347 751 342 747 L218 656 L125 746 C121 750 116 753 111 753 C106 753 102 751 98 747 L54 702 C46 694 40 684 47 675 L131 560 C138 549 148 541 163 541 L240 541 L240 541 Z " />
<glyph glyph-name="uni02C9" unicode="&#x2c9;" horiz-adv-x="311" d="M35 599 C33 587 38 581 51 581 L317 581 C330 581 337 587 338 599 L354 695 C356 707 351 713 338 713 L72 713 C59 713 52 707 50 695 L35 599 L35 599 Z " />
<glyph glyph-name="breve" unicode="&#x2d8;" horiz-adv-x="320" d="M393 714 C394 722 390 723 382 726 L305 739 C304 740 302 740 301 740 C296 740 293 735 291 728 C280 692 258 668 211 668 C164 668 150 692 151 728 C151 739 148 739 140 739 L60 726 C51 724 46 720 45 714 C36 609 96 554 193 554 C300 554 373 609 393 714 L393 714 Z " />
<glyph glyph-name="dotaccent" unicode="&#x2d9;" horiz-adv-x="182" d="M44 648 C44 599 82 561 131 561 C182 561 220 599 220 648 C220 699 182 737 131 737 C82 737 44 699 44 648 L44 648 Z " />
<glyph glyph-name="ring" unicode="&#x2da;" horiz-adv-x="265" d="M40 639 C40 566 100 506 173 506 C245 506 305 566 305 639 C305 711 245 771 173 771 C100 771 40 711 40 639 L40 639 Z M137 639 C137 659 153 675 173 675 C193 675 209 659 209 639 C209 619 193 603 173 603 C153 603 137 619 137 639 L137 639 Z " />
<glyph glyph-name="ogonek" unicode="&#x2db;" horiz-adv-x="177" d="M22 2 C-78 -81 -61 -207 70 -207 C83 -207 97 -206 112 -203 C119 -202 123 -198 124 -190 L137 -108 C138 -102 135 -99 129 -99 C129 -99 128 -99 127 -99 C122 -100 117 -100 112 -100 C52 -100 65 -25 133 10 L22 2 L22 2 Z " />
<glyph glyph-name="tilde" unicode="&#x2dc;" horiz-adv-x="381" d="M314 668 C267 668 256 719 186 719 C151 719 106 695 67 668 C55 661 53 654 52 641 L47 564 C46 557 47 552 51 552 C54 552 58 554 63 557 C98 582 127 604 158 604 C205 604 215 553 285 553 C320 553 367 576 406 603 C417 611 418 617 419 630 L425 708 C425 715 423 719 419 719 C417 719 413 717 409 714 C374 690 343 668 314 668 L314 668 Z " />
<glyph glyph-name="hungarumlaut" unicode="&#x2dd;" horiz-adv-x="381" d="M111 534 C114 533 117 532 120 532 C127 532 133 536 137 542 L226 689 C231 698 230 707 218 711 L119 746 C116 747 113 748 110 748 C102 748 96 743 94 735 L35 585 C32 577 35 566 46 561 L111 534 L111 534 Z M307 534 C310 533 313 532 316 532 C323 532 329 536 333 542 L428 688 C432 696 432 706 420 709 L315 746 C312 747 309 748 306 748 C298 748 292 743 290 735 L231 585 C228 577 231 566 242 561 L307 534 L307 534 Z " />
<glyph glyph-name="uni0394" unicode="&#x394;" horiz-adv-x="615" d="M348 602 L351 602 L407 138 L147 138 L348 602 Z M-48 18 C-50 6 -45 0 -32 0 L534 0 C547 0 554 6 555 18 L559 41 L481 730 C478 743 470 750 457 750 L284 750 C272 750 262 743 255 730 L-44 41 L-48 18 L-48 18 Z " />
<glyph glyph-name="uni03A9" unicode="&#x3a9;" horiz-adv-x="745" d="M250 96 C169 164 138 238 153 347 C169 487 279 601 413 601 C541 601 611 502 595 366 C583 249 516 165 416 96 L401 1 L642 1 C653 1 660 6 661 17 L676 111 C678 124 673 130 662 130 L571 130 C661 191 720 297 728 393 C747 557 651 730 433 730 C225 730 48 557 27 369 C16 277 39 189 104 130 L15 130 C6 130 -2 127 -3 116 L-19 17 C-21 6 -16 1 -5 1 L235 1 L250 96 Z " />
<glyph glyph-name="uni03BC" unicode="&#x3bc;" horiz-adv-x="603" d="M159 10 C171 3 187 -1 206 -1 C261 -1 302 25 339 65 L332 19 C330 6 335 0 348 0 L474 0 C487 0 494 6 496 19 L569 481 C571 494 566 500 553 500 L427 500 C414 500 407 494 405 481 L366 236 C358 193 314 146 264 146 C205 146 187 191 196 246 L234 481 C235 492 233 500 218 500 L91 500 C78 500 71 494 70 481 L-43 -231 C-45 -244 -40 -250 -28 -250 L99 -250 C111 -250 118 -244 120 -231 L159 10 Z " />
<glyph glyph-name="pi" unicode="&#x3c0;" horiz-adv-x="613" d="M618 464 C629 464 637 470 640 482 L659 605 C661 618 656 624 643 624 L70 624 C57 624 50 618 48 605 L29 482 C26 470 31 464 44 464 L123 464 L52 18 C50 6 55 0 68 0 L188 0 C200 0 207 6 209 18 L279 464 L384 464 L314 18 C312 6 317 0 330 0 L449 0 C462 0 469 6 471 18 L541 464 L618 464 Z " />
<glyph glyph-name="Wgrave" unicode="&#x1e80;" horiz-adv-x="952" d="M713 0 C725 0 733 6 738 19 L1001 681 C1005 692 1005 700 992 700 L848 700 C832 700 826 692 821 681 L666 271 L624 687 C622 696 617 700 608 700 L457 700 C447 700 440 696 437 687 L261 271 L238 681 C237 692 233 700 217 700 L73 700 C61 700 55 692 58 681 L111 19 C112 6 118 0 131 0 L289 0 C304 0 313 6 318 19 L492 443 L532 19 C533 6 540 0 555 0 L713 0 L713 0 Z M576 774 C587 779 587 788 584 797 L523 944 C520 953 514 957 507 957 C505 957 502 957 500 956 L399 921 C386 917 384 907 391 899 L485 750 C489 745 494 742 499 742 C502 742 505 743 508 744 L576 774 L576 774 Z " />
<glyph glyph-name="wgrave" unicode="&#x1e81;" horiz-adv-x="740" d="M181 481 C180 494 173 500 162 500 L35 500 C24 500 20 494 21 481 L35 251 C38 192 42 135 45 92 C47 67 48 43 49 20 C50 7 57 0 68 0 L231 0 C246 0 253 9 257 20 L361 306 L374 20 C377 9 383 0 395 0 L558 0 C569 0 577 9 582 20 L757 481 C762 494 759 500 748 500 L621 500 C610 500 602 494 597 481 L498 209 L479 481 C478 494 472 500 461 500 L323 500 C310 500 302 494 299 481 L246 344 C219 276 193 209 193 209 L181 481 L181 481 Z M435 577 C446 582 446 591 443 600 L382 747 C379 756 373 760 366 760 C364 760 361 760 359 759 L258 724 C245 720 243 710 250 702 L344 553 C348 548 353 545 358 545 C361 545 364 546 367 547 L435 577 L435 577 Z " />
<glyph glyph-name="Wacute" unicode="&#x1e82;" horiz-adv-x="952" d="M713 0 C725 0 733 6 738 19 L1001 681 C1005 692 1005 700 992 700 L848 700 C832 700 826 692 821 681 L666 271 L624 687 C622 696 617 700 608 700 L457 700 C447 700 440 696 437 687 L261 271 L238 681 C237 692 233 700 217 700 L73 700 C61 700 55 692 58 681 L111 19 C112 6 118 0 131 0 L289 0 C304 0 313 6 318 19 L492 443 L532 19 C533 6 540 0 555 0 L713 0 L713 0 Z M570 764 C573 762 576 762 578 762 C584 762 589 765 594 771 L711 920 C718 929 718 938 706 942 L607 979 C605 980 602 980 600 980 C593 980 587 976 582 967 L499 820 C494 809 495 802 503 797 L570 764 L570 764 Z " />
<glyph glyph-name="wacute" unicode="&#x1e83;" horiz-adv-x="740" d="M181 481 C180 494 173 500 162 500 L35 500 C24 500 20 494 21 481 L35 251 C38 192 42 135 45 92 C47 67 48 43 49 20 C50 7 57 0 68 0 L231 0 C246 0 253 9 257 20 L361 306 L374 20 C377 9 383 0 395 0 L558 0 C569 0 577 9 582 20 L757 481 C762 494 759 500 748 500 L621 500 C610 500 602 494 597 481 L498 209 L479 481 C478 494 472 500 461 500 L323 500 C310 500 302 494 299 481 L246 344 C219 276 193 209 193 209 L181 481 L181 481 Z M417 544 C420 542 423 542 425 542 C431 542 436 545 441 551 L558 700 C565 709 565 718 553 722 L454 759 C452 760 449 760 447 760 C440 760 434 756 429 747 L346 600 C341 589 342 582 350 577 L417 544 L417 544 Z " />
<glyph glyph-name="Wdieresis" unicode="&#x1e84;" horiz-adv-x="952" d="M713 0 C725 0 733 6 738 19 L1001 681 C1005 692 1005 700 992 700 L848 700 C832 700 826 692 821 681 L666 271 L624 687 C622 696 617 700 608 700 L457 700 C447 700 440 696 437 687 L261 271 L238 681 C237 692 233 700 217 700 L73 700 C61 700 55 692 58 681 L111 19 C112 6 118 0 131 0 L289 0 C304 0 313 6 318 19 L492 443 L532 19 C533 6 540 0 555 0 L713 0 L713 0 Z M349 843 C349 795 387 757 435 757 C484 757 523 795 523 843 C523 892 484 931 435 931 C387 931 349 892 349 843 L349 843 Z M580 843 C580 795 617 757 666 757 C717 757 755 795 755 843 C755 892 717 931 666 931 C617 931 580 892 580 843 L580 843 Z " />
<glyph glyph-name="wdieresis" unicode="&#x1e85;" horiz-adv-x="740" d="M181 481 C180 494 173 500 162 500 L35 500 C24 500 20 494 21 481 L35 251 C38 192 42 135 45 92 C47 67 48 43 49 20 C50 7 57 0 68 0 L231 0 C246 0 253 9 257 20 L361 306 L374 20 C377 9 383 0 395 0 L558 0 C569 0 577 9 582 20 L757 481 C762 494 759 500 748 500 L621 500 C610 500 602 494 597 481 L498 209 L479 481 C478 494 472 500 461 500 L323 500 C310 500 302 494 299 481 L246 344 C219 276 193 209 193 209 L181 481 L181 481 Z M213 644 C213 596 251 558 299 558 C348 558 387 596 387 644 C387 693 348 732 299 732 C251 732 213 693 213 644 L213 644 Z M444 644 C444 596 481 558 530 558 C581 558 619 596 619 644 C619 693 581 732 530 732 C481 732 444 693 444 644 L444 644 Z " />
<glyph glyph-name="endash" unicode="&#x2013;" horiz-adv-x="510" d="M47 355 C35 355 28 349 26 336 L6 210 C4 198 9 192 22 192 L439 192 C451 192 458 198 460 210 L480 336 C482 349 477 355 465 355 L47 355 L47 355 Z " />
<glyph glyph-name="emdash" unicode="&#x2014;" horiz-adv-x="1035" d="M47 355 C35 355 28 349 26 336 L6 210 C4 198 9 192 22 192 L963 192 C976 192 983 198 985 210 L1005 336 C1007 349 1002 355 989 355 L47 355 L47 355 Z " />
<glyph glyph-name="quoteleft" unicode="&#x2018;" horiz-adv-x="207" d="M241 686 C244 693 239 700 230 700 L128 700 C117 700 110 695 106 686 L28 480 C25 471 28 466 37 466 L161 466 C170 466 176 473 179 481 L241 686 Z " />
<glyph glyph-name="quoteright" unicode="&#x2019;" horiz-adv-x="207" d="M29 480 C26 473 31 466 40 466 L142 466 C153 466 160 471 164 480 L242 687 C245 694 242 700 234 700 L109 700 C100 700 94 695 92 686 L29 480 Z " />
<glyph glyph-name="quotesinglbase" unicode="&#x201a;" horiz-adv-x="214" d="M-53 -104 C-56 -111 -51 -118 -42 -118 L59 -118 C71 -118 78 -113 81 -104 L160 102 C163 111 160 116 151 116 L27 116 C18 116 12 109 9 102 L-53 -104 Z " />
<glyph glyph-name="quotedblleft" unicode="&#x201c;" horiz-adv-x="432" d="M250 686 C253 693 248 700 239 700 L136 700 C125 700 118 695 114 686 L36 480 C33 471 35 466 44 466 L169 466 C178 466 184 473 187 481 L250 686 Z M473 686 C476 693 471 700 462 700 L360 700 C350 700 343 695 338 686 L260 480 C257 471 259 466 268 466 L393 466 C402 466 408 473 411 481 L473 686 Z " />
<glyph glyph-name="quotedblright" unicode="&#x201d;" horiz-adv-x="432" d="M259 480 C256 473 261 466 270 466 L372 466 C383 466 390 471 394 480 L472 687 C475 694 472 700 464 700 L339 700 C329 700 323 695 321 686 L259 480 Z M35 480 C32 473 37 466 46 466 L148 466 C159 466 166 471 170 480 L249 687 C252 696 249 700 240 700 L115 700 C105 700 99 695 97 686 L35 480 Z " />
<glyph glyph-name="quotedblbase" unicode="&#x201e;" horiz-adv-x="438" d="M171 -104 C168 -111 173 -118 182 -118 L284 -118 C295 -118 302 -113 306 -104 L384 102 C387 111 385 116 376 116 L251 116 C242 116 236 109 233 102 L171 -104 Z M-53 -105 C-56 -112 -51 -119 -42 -119 L59 -119 C70 -119 77 -114 81 -105 L160 102 C163 109 160 115 151 115 L27 115 C17 115 11 110 9 101 L-53 -105 Z " />
<glyph glyph-name="dagger" unicode="&#x2020;" horiz-adv-x="378" d="M50 501 C38 501 31 495 29 482 L13 379 C11 367 16 361 29 361 L119 361 L36 -166 C34 -178 39 -184 52 -184 L155 -184 C167 -184 174 -178 176 -166 L259 361 L350 361 C363 361 370 367 371 379 L388 482 C389 495 384 501 372 501 L281 501 L314 702 C315 714 309 720 298 720 L195 720 C182 720 175 714 174 702 L141 501 L50 501 Z " />
<glyph glyph-name="daggerdbl" unicode="&#x2021;" horiz-adv-x="493" d="M25 181 C12 181 6 175 5 163 L-11 60 C-14 47 -10 41 3 41 L135 41 L102 -166 C101 -178 106 -184 118 -184 L221 -184 C234 -184 241 -178 242 -166 L275 41 L406 41 C417 41 425 47 428 60 L444 163 C446 175 441 181 428 181 L298 181 L325 353 L456 353 C468 353 475 359 477 372 L493 474 C495 487 490 493 477 493 L347 493 L380 702 C382 714 377 720 364 720 L261 720 C249 720 242 714 240 702 L207 493 L74 493 C62 493 55 487 53 474 L37 372 C35 359 40 353 53 353 L185 353 L158 181 L25 181 Z " />
<glyph glyph-name="bullet" unicode="&#x2022;" horiz-adv-x="291" d="M12 280 C12 216 65 162 133 162 C202 162 250 216 250 280 C250 344 202 398 133 398 C65 398 12 344 12 280 L12 280 Z " />
<glyph glyph-name="ellipsis" unicode="&#x2026;" horiz-adv-x="945" d="M16 81 C16 30 56 -10 107 -10 C159 -10 201 30 201 81 C201 133 159 175 107 175 C56 175 16 133 16 81 L16 81 Z M346 81 C346 30 386 -10 437 -10 C489 -10 531 30 531 81 C531 133 489 175 437 175 C386 175 346 133 346 81 L346 81 Z M680 81 C680 30 720 -10 771 -10 C823 -10 865 30 865 81 C865 133 823 175 771 175 C720 175 680 133 680 81 L680 81 Z " />
<glyph glyph-name="perthousand" unicode="&#x2030;" horiz-adv-x="1543" d="M1065 184 C1065 79 1134 -10 1254 -10 C1409 -10 1505 115 1505 235 C1505 351 1426 430 1319 430 C1168 430 1065 312 1065 184 L1065 184 Z M1195 196 C1195 247 1234 300 1299 300 C1347 300 1375 270 1375 223 C1375 172 1337 120 1272 120 C1229 120 1195 151 1195 196 L1195 196 Z M593 184 C593 79 661 -10 781 -10 C936 -10 1032 115 1032 235 C1032 351 954 430 846 430 C695 430 593 312 593 184 L593 184 Z M722 196 C722 247 761 300 826 300 C875 300 903 270 903 223 C903 172 864 120 799 120 C756 120 722 151 722 196 L722 196 Z M222 18 C213 7 220 0 232 0 L329 0 C341 0 348 7 356 18 L844 682 C855 693 848 700 835 700 L738 700 C726 700 719 693 711 682 L222 18 L222 18 Z M35 469 C35 365 104 273 224 273 C376 273 475 397 475 519 C475 635 396 713 288 713 C137 713 35 597 35 469 L35 469 Z M165 480 C165 531 204 583 268 583 C317 583 345 553 345 506 C345 455 306 403 241 403 C198 403 165 433 165 480 L165 480 Z " />
<glyph glyph-name="guilsinglleft" unicode="&#x2039;" horiz-adv-x="327" d="M318 435 C325 444 320 453 303 453 L186 453 C173 453 161 446 153 435 L-7 239 C-10 235 -12 230 -12 225 C-12 222 -11 220 -10 218 L88 22 C92 11 102 4 115 4 L220 4 C235 4 245 13 241 22 L144 222 L318 435 Z " />
<glyph glyph-name="guilsinglright" unicode="&#x203a;" horiz-adv-x="332" d="M-13 22 C-20 13 -15 4 2 4 L119 4 C132 4 144 11 152 22 L312 218 C313 219 322 228 315 239 L218 435 C213 446 203 453 190 453 L85 453 C70 453 60 444 65 435 L161 235 L-13 22 Z " />
<glyph glyph-name="fraction" unicode="&#x2044;" horiz-adv-x="559" d="M-20 18 C-28 7 -22 0 -10 0 L86 0 C99 0 105 7 113 18 L602 682 C611 693 605 700 592 700 L495 700 C483 700 477 693 469 682 L-20 18 L-20 18 Z " />
<glyph glyph-name="franc" unicode="&#x20a3;" horiz-adv-x="557" d="M322 86 C335 86 342 92 344 105 L351 151 C353 164 348 170 336 170 L220 170 L232 248 L477 248 C490 248 497 254 498 267 L518 387 C520 400 515 406 502 406 L257 406 L278 538 L563 538 C576 538 583 544 584 556 L605 681 C606 694 600 700 589 700 L158 700 C146 700 137 691 134 679 L54 170 L10 170 C-3 170 -10 164 -12 151 L-19 105 C-21 92 -16 86 -3 86 L40 86 L29 18 C27 6 32 0 45 0 L174 0 C187 0 194 6 195 18 L206 86 L322 86 Z " />
<glyph glyph-name="lira" unicode="&#x20a4;" horiz-adv-x="537" d="M16 362 C4 357 -1 350 1 339 L13 290 C15 282 18 277 24 277 C27 277 30 278 33 279 L83 296 L39 20 C36 8 39 0 55 0 L58 0 C329 0 475 129 536 350 C540 362 535 368 520 368 L429 368 C417 368 410 362 407 350 C380 243 314 163 188 147 L219 342 L368 392 C382 395 387 403 383 416 L375 465 C374 473 370 478 363 478 C361 478 359 477 356 476 L233 435 L240 476 L390 527 C403 530 408 538 405 550 L396 600 C395 608 391 613 385 613 C382 613 380 612 377 611 L255 570 L273 682 C275 694 270 700 257 700 L165 700 C153 700 146 694 144 682 L119 524 L37 497 C25 492 20 484 22 474 L32 423 C34 415 39 411 46 411 C48 411 50 411 53 412 L104 430 L97 389 L16 362 Z " />
<glyph glyph-name="Euro" unicode="&#x20ac;" horiz-adv-x="541" d="M458 140 C456 147 451 151 445 151 C441 151 437 150 432 147 C404 132 370 121 335 121 C252 121 215 170 208 246 L440 245 C452 245 455 252 458 263 L466 314 C467 325 463 331 454 331 L208 331 C208 346 211 359 214 374 L460 374 C471 374 477 380 478 392 L486 443 C488 454 484 460 474 460 L243 460 C278 539 333 579 408 579 C443 579 477 566 501 551 C505 549 508 547 511 547 C517 547 523 552 529 560 L583 643 C590 655 588 661 577 668 C540 692 485 710 429 710 C270 710 162 620 106 460 L42 460 C31 460 25 454 23 443 L15 392 C14 380 18 374 28 374 L82 374 L75 331 L22 331 C11 331 4 325 3 314 L-5 263 C-7 251 -2 245 9 245 L70 245 C75 96 149 -10 314 -10 C370 -10 426 6 470 29 C485 36 490 46 487 58 L458 140 Z " />
<glyph glyph-name="uni2113" unicode="&#x2113;" horiz-adv-x="411" d="M3 203 C7 195 13 191 19 191 C24 191 30 194 35 199 L77 232 L63 152 C50 57 100 -13 198 -13 C247 -13 302 14 341 45 C349 52 352 61 350 72 L344 133 C342 138 340 141 336 141 C332 141 328 139 323 135 C300 116 273 94 242 94 C196 94 189 134 197 183 L221 329 C317 417 420 503 425 610 C428 694 386 734 306 734 C221 734 146 678 127 553 L96 355 L-2 270 C-14 259 -20 246 -13 235 L3 203 L3 203 Z M332 593 C327 546 285 502 241 463 L253 532 C261 577 266 627 306 627 C325 627 334 616 332 593 L332 593 Z " />
<glyph glyph-name="trademark" unicode="&#x2122;" horiz-adv-x="820" d="M182 285 C185 285 194 286 195 297 L243 601 L351 601 C359 601 364 605 365 613 L376 689 C379 696 374 700 367 700 L54 700 C47 700 42 696 41 689 L30 612 C29 605 32 601 39 601 L144 601 L96 297 C93 286 105 285 106 285 L182 285 L182 285 Z M593 336 C598 336 603 339 606 346 L694 486 L665 296 C662 289 669 285 674 285 L752 285 C759 285 763 289 766 296 L827 688 C828 695 825 700 816 700 L740 700 C735 700 729 696 723 689 L586 463 L519 689 C516 696 514 700 506 700 L429 700 C422 700 417 696 415 688 L354 297 C352 289 355 285 364 285 L440 285 C447 285 451 289 453 297 L482 486 L528 346 C529 339 533 336 538 336 L593 336 L593 336 Z " />
<glyph glyph-name="Omega" unicode="&#x2126;" horiz-adv-x="761" d="M258 96 C177 164 146 238 161 347 C177 487 287 601 421 601 C549 601 619 502 603 366 C590 245 524 164 424 96 L409 1 L650 1 C661 1 668 6 669 17 L684 111 C686 124 681 130 670 130 L579 130 C671 192 728 298 736 393 C755 557 659 730 441 730 C220 730 56 542 35 369 C24 277 48 186 112 130 L23 130 C14 130 6 127 5 116 L-11 17 C-13 6 -8 1 3 1 L243 1 L258 96 Z " />
<glyph glyph-name="estimated" unicode="&#x212e;" horiz-adv-x="544" d="M159 232 L497 232 C513 232 516 248 516 251 C527 399 421 547 262 547 C107 547 8 420 8 276 C8 136 122 6 262 6 C355 6 430 52 473 116 C480 125 478 136 467 140 L418 165 C415 166 412 167 409 167 C402 167 395 163 389 157 C360 122 318 97 262 97 C223 97 182 119 159 148 L159 232 Z M159 322 L159 413 C183 440 223 455 262 455 C301 455 339 441 362 413 L362 322 L159 322 Z " />
<glyph glyph-name="partialdiff" unicode="&#x2202;" horiz-adv-x="504" d="M315 710 C259 710 202 693 163 674 C152 669 149 662 153 651 L188 568 C191 562 196 559 202 559 C205 559 209 560 213 562 C236 573 261 583 288 583 C365 583 385 516 369 433 C344 460 291 481 253 484 C249 484 245 484 241 484 C101 484 14 344 11 186 C8 73 84 -10 186 -10 C356 -10 424 144 460 286 C512 497 516 710 315 710 L315 710 Z M204 124 C161 124 141 162 142 209 C145 280 182 352 249 352 C253 352 256 351 260 351 C295 347 325 325 334 293 C318 216 279 124 204 124 L204 124 Z " />
<glyph glyph-name="Delta" unicode="&#x2206;" horiz-adv-x="643" d="M359 602 L361 602 L418 138 L157 138 L359 602 Z M-38 18 C-39 6 -34 0 -22 0 L545 0 C557 0 564 6 566 18 L570 41 L491 730 C488 743 481 750 468 750 L295 750 C283 750 273 743 266 730 L-34 41 L-38 18 L-38 18 Z " />
<glyph glyph-name="product" unicode="&#x220f;" horiz-adv-x="639" d="M138 700 C126 700 119 694 117 682 L-9 -110 C-10 -122 -5 -128 7 -128 L110 -128 C122 -128 129 -122 131 -110 L237 560 L477 560 L371 -110 C369 -122 374 -128 387 -128 L489 -128 C502 -128 509 -122 511 -110 L636 682 C638 694 633 700 620 700 L138 700 L138 700 Z " />
<glyph glyph-name="summation" unicode="&#x2211;" horiz-adv-x="634" d="M-57 -210 C-57 -212 -61 -230 -41 -230 L498 -230 C509 -230 518 -222 519 -211 L537 -105 C538 -94 532 -86 520 -86 L200 -86 L514 216 C534 235 524 249 521 252 L301 557 L622 557 C635 557 642 563 644 576 L661 681 C662 690 656 700 645 700 L105 700 C96 700 86 693 83 681 L75 630 C72 615 72 604 81 593 L341 235 L-32 -123 C-45 -135 -49 -158 -49 -159 L-57 -210 L-57 -210 Z " />
<glyph glyph-name="minus" unicode="&#x2212;" horiz-adv-x="491" d="M52 355 C40 355 33 349 31 336 L11 210 C9 198 14 192 26 192 L418 192 C431 192 438 198 440 210 L460 336 C462 349 457 355 444 355 L52 355 L52 355 Z " />
<glyph glyph-name="uni2215" unicode="&#x2215;" horiz-adv-x="464" d="M-20 18 C-27 7 -20 0 -8 0 L85 0 C97 0 102 7 109 18 L492 682 C499 693 492 700 480 700 L387 700 C375 700 370 693 363 682 L-20 18 L-20 18 Z " />
<glyph glyph-name="uni2219" unicode="&#x2219;" horiz-adv-x="244" d="M41 365 C41 318 78 281 124 281 C172 281 210 318 210 365 C210 413 172 450 124 450 C77 450 41 413 41 365 L41 365 Z " />
<glyph glyph-name="radical" unicode="&#x221a;" horiz-adv-x="531" d="M291 -12 C302 -12 309 -4 312 7 C333 54 556 661 577 708 C581 721 576 728 565 728 L456 728 C446 728 438 721 433 708 L249 223 L208 448 C207 456 203 460 196 460 C193 460 190 459 186 457 L12 367 C3 360 -1 351 2 340 L33 249 C36 242 39 239 45 239 C48 239 51 240 55 242 L92 262 L138 6 C141 -5 147 -12 156 -12 L291 -12 L291 -12 Z " />
<glyph glyph-name="infinity" unicode="&#x221e;" horiz-adv-x="709" d="M568 292 C561 253 535 223 492 223 C457 223 427 247 422 292 C442 331 474 359 514 359 C557 359 573 328 568 292 L568 292 Z M280 292 C261 256 227 223 187 223 C147 223 126 252 133 291 C140 326 165 359 210 359 C245 359 273 332 280 292 L280 292 Z M362 390 C340 441 298 488 217 488 C117 488 24 409 5 291 C-13 172 54 94 157 94 C226 94 287 137 339 194 C362 134 413 94 485 94 C585 94 678 173 697 293 C716 410 644 488 544 488 C461 488 402 433 362 388 L362 390 Z " />
<glyph glyph-name="integral" unicode="&#x222b;" horiz-adv-x="353" d="M29 -70 C22 -113 4 -134 -27 -134 C-38 -134 -52 -131 -67 -125 C-70 -123 -73 -123 -76 -123 C-82 -123 -87 -127 -92 -135 L-112 -174 C-118 -185 -116 -193 -106 -198 C-67 -223 -29 -235 7 -235 C86 -235 151 -177 167 -73 L272 591 C279 634 298 655 329 655 C340 655 354 652 369 646 C372 644 375 644 378 644 C384 644 389 648 394 656 L415 695 C421 706 419 714 409 719 C369 744 330 757 293 757 C215 757 151 700 135 593 L29 -71 L29 -70 Z " />
<glyph glyph-name="approxequal" unicode="&#x2248;" horiz-adv-x="564" d="M97 179 C121 210 142 224 181 224 C248 224 293 160 367 160 C442 160 495 226 540 273 C549 283 549 292 540 299 L492 340 C488 344 484 345 480 345 C475 345 470 343 465 337 C445 314 425 289 393 289 C334 289 265 350 203 355 C198 355 194 356 189 356 C122 356 64 301 22 244 C14 233 14 225 23 218 L71 176 C74 173 78 171 82 171 C87 171 92 174 97 179 L97 179 Z M97 392 C121 423 142 437 181 437 C248 437 293 373 367 373 C442 373 495 439 540 486 C549 496 549 505 540 512 L492 553 C488 557 484 558 480 558 C475 558 470 556 465 550 C445 527 425 502 393 502 C334 502 265 563 203 568 C198 568 194 569 189 569 C122 569 64 514 22 457 C14 446 14 438 23 431 L71 389 C74 386 78 384 82 384 C87 384 92 387 97 392 L97 392 Z " />
<glyph glyph-name="notequal" unicode="&#x2260;" horiz-adv-x="508" d="M219 135 L437 135 C449 135 456 141 458 154 L472 246 C474 258 469 264 457 264 L298 264 L343 340 L469 340 C482 340 489 346 491 358 L505 450 C507 462 502 468 490 468 L422 468 L476 559 C484 570 479 577 466 577 L362 577 C350 577 342 570 335 559 L280 468 L64 468 C51 468 44 462 42 451 L28 358 C26 346 31 340 43 340 L201 340 L156 264 L31 264 C18 264 11 258 10 247 L-5 154 C-7 141 -2 135 11 135 L78 135 L23 45 C15 34 20 27 33 27 L138 27 C150 27 157 34 164 45 L219 135 Z " />
<glyph glyph-name="lessequal" unicode="&#x2264;" horiz-adv-x="429" d="M19 129 C6 129 -1 123 -2 110 L-17 19 C-18 6 -12 0 -1 0 L320 0 C332 0 339 6 341 19 L356 112 C358 123 353 129 340 129 L19 129 L19 129 Z M399 494 C414 501 418 505 421 517 L438 625 C440 634 436 641 430 641 C427 641 425 640 422 638 L79 507 C67 502 61 498 58 486 L39 363 C36 348 40 346 51 339 L354 207 C357 206 360 205 362 205 C368 205 373 210 374 221 L391 329 C394 341 389 346 377 351 L183 423 L399 494 Z " />
<glyph glyph-name="greaterequal" unicode="&#x2265;" horiz-adv-x="415" d="M19 129 C6 129 -1 123 -2 112 L-17 19 C-18 6 -12 0 -1 0 L320 0 C332 0 339 6 341 19 L356 110 C358 123 353 129 340 129 L19 129 Z M54 351 C39 346 35 341 32 329 L15 221 C13 212 17 205 25 205 C27 205 29 206 32 207 L375 339 C387 346 393 348 396 363 L416 486 C417 498 412 502 401 507 L99 638 C97 640 94 641 92 641 C86 641 81 634 79 625 L62 517 C59 505 65 501 77 494 L270 423 L54 351 Z " />
<glyph glyph-name="lozenge" unicode="&#x25ca;" horiz-adv-x="494" d="M278 556 L282 556 L339 350 L216 144 L212 144 L156 350 L278 556 Z M88 18 C91 7 94 0 107 0 L276 0 C288 0 293 7 300 18 L481 328 C490 343 492 358 487 371 L406 682 C403 693 399 700 387 700 L218 700 C205 700 200 693 193 682 L14 371 C3 354 3 346 7 329 L88 18 L88 18 Z " />
</font>
</svg>
