<?xml version="1.0" encoding="UTF-8"?>
<svg xmlns="http://www.w3.org/2000/svg" xmlns:xlink="http://www.w3.org/1999/xlink" version="1.2" >
<font id="Crossten Medium Italic">
<font-face  font-family="Crossten" units-per-em="1000" ascent="750" descent="-250" font-style="italic" font-weight="500" font-stretch="normal" cap-height="700" x-height="500" underline-position="-75" underline-thickness="50" />
<missing-glyph  horiz-adv-x="325" d="" />
<glyph glyph-name="NULL" d="" />
<glyph glyph-name="&amp;#x0;" horiz-adv-x="325" d="" />
<glyph glyph-name="&amp;#xd;" unicode="&#xd;" horiz-adv-x="325" d="" />
<glyph glyph-name="space" unicode="&#x20;" horiz-adv-x="325" d="" />
<glyph glyph-name="exclam" unicode="&#x21;" horiz-adv-x="255" d="M138 196 C149 196 155 201 156 211 L237 685 C238 695 233 700 224 700 L140 700 C130 700 124 695 122 685 L53 211 C52 200 54 196 66 196 L138 196 L138 196 Z M14 57 C14 18 42 -10 81 -10 C120 -10 150 18 150 57 C150 96 120 126 81 126 C42 126 14 96 14 57 L14 57 Z " />
<glyph glyph-name="quotedbl" unicode="&#x22;" horiz-adv-x="338" d="M132 473 C142 473 148 478 149 488 L186 681 C188 691 184 696 173 696 L107 696 C98 696 92 691 90 681 L66 488 C64 478 68 473 79 473 L132 473 L132 473 Z M288 473 C298 473 304 478 305 488 L342 681 C344 691 340 696 329 696 L263 696 C254 696 248 691 246 681 L222 488 C220 478 224 473 235 473 L288 473 L288 473 Z " />
<glyph glyph-name="numbersign" unicode="&#x23;" horiz-adv-x="609" d="M107 0 C118 0 124 7 127 15 L183 201 L335 201 L280 15 C277 7 279 0 290 0 L348 0 C357 0 363 7 366 15 L422 201 L521 201 C532 201 538 206 539 217 L548 274 C549 284 545 289 535 289 L448 289 L482 409 L581 409 C592 409 598 414 599 424 L608 481 C610 492 606 497 595 497 L508 497 L564 679 C567 690 564 695 554 695 L498 695 C489 695 482 690 479 679 L424 497 L270 497 L323 679 C326 690 323 695 313 695 L257 695 C248 695 241 687 238 679 L183 497 L90 497 C80 497 74 492 72 482 L63 424 C60 415 68 409 76 409 L158 409 L122 289 L30 289 C20 289 14 284 12 274 L3 217 C2 206 6 201 16 201 L95 201 L39 15 C36 7 39 0 50 0 L107 0 L107 0 Z M361 289 L208 289 L244 409 L398 409 L361 289 Z " />
<glyph glyph-name="dollar" unicode="&#x24;" horiz-adv-x="544" d="M195 515 C195 567 247 600 309 600 C353 600 394 586 438 559 C442 557 445 556 448 556 C453 556 457 558 461 563 L517 631 C523 640 523 647 516 652 C456 691 413 704 352 709 L366 796 C367 806 362 811 351 811 L297 811 C286 811 281 806 280 796 L265 702 C161 683 80 609 80 509 C80 297 364 343 364 203 C364 149 321 100 233 100 C181 100 121 121 76 161 C72 164 68 165 65 165 C60 165 56 162 52 158 L0 94 C-7 85 -6 78 1 72 C57 23 112 2 184 -7 L169 -98 C168 -108 172 -113 182 -113 L239 -113 C249 -113 255 -108 256 -98 L271 -6 C388 7 479 100 479 214 C479 435 195 389 195 515 L195 515 Z " />
<glyph glyph-name="percent" unicode="&#x25;" horiz-adv-x="1043" d="M572 179 C572 75 641 -10 759 -10 C904 -10 1001 110 1001 230 C1001 340 926 419 817 419 C676 419 572 303 572 179 L572 179 Z M664 186 C664 254 720 327 805 327 C873 327 909 285 909 222 C909 154 856 81 770 81 C706 81 664 123 664 186 L664 186 Z M225 14 C218 5 223 0 234 0 L299 0 C310 0 314 6 321 14 L813 685 C820 694 816 700 805 700 L740 700 C729 700 724 694 717 685 L225 14 L225 14 Z M35 474 C35 370 104 284 221 284 C365 284 463 404 463 524 C463 634 388 713 280 713 C136 713 35 597 35 474 L35 474 Z M126 480 C126 548 182 621 267 621 C335 621 372 579 372 516 C372 448 320 375 232 375 C168 375 126 417 126 480 L126 480 Z " />
<glyph glyph-name="ampersand" unicode="&#x26;" horiz-adv-x="660" d="M307 436 C280 473 265 504 265 535 C265 575 297 608 344 608 C375 608 400 595 423 572 C426 569 429 567 433 567 C436 567 439 569 442 571 L500 614 C510 621 512 627 506 634 C466 682 404 710 336 710 C236 710 154 637 154 541 C154 492 170 452 205 395 C87 330 -5 274 -5 162 C-5 60 72 -10 167 -10 C268 -10 337 36 430 97 L516 -18 C521 -24 526 -27 531 -27 C535 -27 540 -25 546 -20 L594 19 C606 30 608 36 599 47 L514 160 L609 236 C619 245 620 254 612 263 L577 312 C573 317 569 319 565 319 C560 319 555 317 550 313 L455 239 L307 436 L307 436 Z M195 97 C147 97 109 132 109 181 C109 248 171 274 262 322 L368 178 C312 134 260 97 195 97 L195 97 Z " />
<glyph glyph-name="quotesingle" unicode="&#x27;" horiz-adv-x="193" d="M137 477 C148 477 155 485 156 494 L192 682 C194 694 190 700 179 700 L115 700 C104 700 98 693 97 682 L73 494 C72 483 74 477 87 477 L137 477 L137 477 Z " />
<glyph glyph-name="parenleft" unicode="&#x28;" horiz-adv-x="338" d="M325 779 C-10 478 -62 154 172 -133 C176 -138 179 -140 183 -140 C186 -140 189 -139 194 -136 L250 -98 C259 -92 261 -85 256 -77 C54 200 91 435 394 725 C402 732 402 739 395 746 L348 783 C345 786 342 787 339 787 C334 787 330 784 325 779 L325 779 Z " />
<glyph glyph-name="parenright" unicode="&#x29;" horiz-adv-x="324" d="M153 778 C149 784 145 787 140 787 C137 787 133 786 129 783 L73 747 C64 741 62 734 67 726 C277 439 238 205 -54 -76 C-61 -84 -61 -91 -55 -97 L-9 -136 C-6 -139 -3 -141 0 -141 C4 -141 8 -138 12 -134 C339 153 390 477 153 778 L153 778 Z " />
<glyph glyph-name="asterisk" unicode="&#x2a;" horiz-adv-x="340" d="M64 441 C55 432 54 425 61 419 L98 389 C101 386 105 385 108 385 C112 385 117 388 121 393 L190 478 L231 392 C233 387 236 383 242 383 C244 383 247 384 251 386 L296 414 C307 419 308 428 301 436 L248 521 L348 543 C359 545 365 551 364 562 L360 608 C359 614 356 618 350 618 C348 618 345 617 342 616 L246 592 L264 681 C267 692 267 698 252 698 L201 698 C188 698 185 693 184 681 L172 592 L84 619 C80 620 77 621 74 621 C69 621 65 618 62 611 L42 562 C38 551 41 545 51 543 L144 523 L64 441 Z " />
<glyph glyph-name="plus" unicode="&#x2b;" horiz-adv-x="490" d="M438 241 C448 241 454 246 456 256 L466 324 C468 334 464 339 454 339 L294 339 L319 499 C321 508 317 513 306 513 L238 513 C227 513 222 508 221 499 L195 339 L33 339 C24 339 18 334 16 324 L6 256 C4 246 8 241 17 241 L179 241 L154 79 C152 69 156 64 167 64 L235 64 C245 64 251 69 252 79 L278 241 L438 241 Z " />
<glyph glyph-name="comma" unicode="&#x2c;" horiz-adv-x="220" d="M-52 -159 C-55 -168 -51 -172 -42 -172 L27 -172 C36 -172 43 -168 46 -160 L141 110 C144 118 142 122 133 122 L50 122 C41 122 35 118 33 109 L-52 -159 Z " />
<glyph glyph-name="hyphen" unicode="&#x2d;" horiz-adv-x="367" d="M43 336 C34 336 28 331 26 321 L13 239 C12 229 16 224 25 224 L301 224 C311 224 317 229 318 239 L331 321 C333 331 329 336 319 336 L43 336 L43 336 Z " />
<glyph glyph-name="period" unicode="&#x2e;" horiz-adv-x="224" d="M0 57 C0 18 28 -10 67 -10 C106 -10 136 18 136 57 C136 96 106 126 67 126 C28 126 0 96 0 57 L0 57 Z " />
<glyph glyph-name="slash" unicode="&#x2f;" horiz-adv-x="431" d="M-22 14 C-29 5 -23 0 -12 0 L52 0 C63 0 67 6 72 14 L458 685 C463 695 460 700 447 700 L383 700 C376 700 369 695 364 685 L-22 14 L-22 14 Z " />
<glyph glyph-name="zero" unicode="0" horiz-adv-x="566" d="M40 241 C40 86 106 -10 226 -10 C413 -10 526 173 526 459 C526 614 460 710 340 710 C153 710 40 527 40 241 L40 241 Z M154 249 C154 449 219 598 321 598 C382 598 412 546 412 450 C412 251 346 101 245 101 C184 101 154 157 154 249 L154 249 Z " />
<glyph glyph-name="one" unicode="1" horiz-adv-x="319" d="M72 662 C63 661 58 656 58 646 L55 560 C55 553 58 549 63 549 C65 549 66 550 68 550 L165 574 L76 15 C75 5 79 0 89 0 L173 0 C183 0 189 5 190 15 L297 685 C298 695 293 700 284 700 L267 700 L72 662 L72 662 Z " />
<glyph glyph-name="two" unicode="2" horiz-adv-x="477" d="M104 557 C107 550 111 547 116 547 C120 547 124 549 128 552 C175 583 213 598 256 598 C324 598 346 558 346 513 C346 417 223 309 -20 50 C-25 43 -29 37 -30 31 C-31 28 -31 24 -32 15 C-34 5 -30 0 -20 0 L384 0 C394 0 400 5 402 15 L415 98 C416 107 412 112 402 112 L172 112 C380 323 462 429 462 537 C462 635 407 710 280 710 C209 710 149 686 82 643 C71 635 70 628 73 620 L104 557 L104 557 Z " />
<glyph glyph-name="three" unicode="3" horiz-adv-x="479" d="M190 312 C275 310 318 278 318 216 C318 152 262 101 186 101 C139 101 93 120 65 147 C61 150 58 152 54 152 C49 152 45 149 40 142 L-11 79 C-18 71 -17 64 -8 57 C43 14 110 -10 190 -10 C324 -10 430 93 430 219 C430 298 392 341 327 364 C394 388 464 459 464 547 C464 650 406 710 293 710 C225 710 166 688 94 643 C83 636 80 629 85 620 L115 559 C118 554 120 550 127 550 C130 550 134 551 140 554 C177 579 223 598 268 598 C323 598 351 573 351 522 C351 463 286 414 207 414 C199 414 194 410 192 402 L180 323 C179 316 182 312 190 312 L190 312 Z " />
<glyph glyph-name="four" unicode="4" horiz-adv-x="488" d="M245 15 C244 5 248 0 258 0 L335 0 C345 0 351 5 352 15 L372 138 L436 138 C446 138 452 143 454 153 L465 225 C466 235 461 240 452 240 L388 240 L409 372 C410 382 405 387 396 387 L321 387 C310 387 305 382 304 372 L284 247 L123 247 L386 684 C391 695 388 700 377 700 L299 700 C287 700 279 693 274 684 L-9 217 L-19 153 C-21 143 -17 138 -7 138 L265 138 L245 15 Z " />
<glyph glyph-name="five" unicode="5" horiz-adv-x="500" d="M78 303 C121 322 185 337 236 337 C312 337 339 298 339 238 C339 178 290 101 193 101 C153 101 97 114 62 143 C57 146 53 148 50 148 C46 148 42 145 37 139 L-15 75 C-21 66 -20 59 -12 52 C44 8 122 -10 190 -10 C355 -10 454 125 454 254 C454 373 402 441 286 441 C250 441 206 429 183 417 L211 592 L459 592 C470 592 476 597 477 607 L489 684 C491 695 487 700 476 700 L133 700 C123 700 117 695 114 684 L56 318 L78 303 L78 303 Z " />
<glyph glyph-name="six" unicode="6" horiz-adv-x="529" d="M161 394 C185 510 243 601 339 601 C384 601 408 591 451 561 C456 558 460 556 463 556 C468 556 472 559 476 565 L523 623 C530 634 530 638 521 646 C465 693 405 710 344 710 C197 710 86 595 42 338 L36 306 C-1 93 91 -10 214 -10 C375 -10 475 129 475 265 C475 377 423 447 315 447 C260 447 209 427 161 394 L161 394 Z M144 292 C188 328 237 346 276 346 C341 346 363 306 363 250 C363 171 312 94 228 94 C164 94 122 155 141 268 L144 292 Z " />
<glyph glyph-name="seven" unicode="7" horiz-adv-x="465" d="M502 685 C503 695 498 700 489 700 L97 700 C86 700 81 695 80 685 L67 603 C65 593 69 588 79 588 L359 588 L13 16 C8 5 11 0 24 0 L109 0 C120 0 129 5 134 16 L488 602 L502 685 Z " />
<glyph glyph-name="eight" unicode="8" horiz-adv-x="512" d="M76 511 C76 446 104 405 157 376 C65 342 5 257 5 168 C5 52 79 -10 202 -10 C349 -10 464 98 464 221 C464 289 439 344 364 376 C424 400 489 465 489 551 C489 642 428 710 308 710 C170 710 76 619 76 511 L76 511 Z M176 496 C176 560 229 611 297 611 C361 611 388 579 388 528 C388 460 330 412 263 412 C215 412 176 445 176 496 L176 496 Z M114 185 C114 258 181 316 250 316 C319 316 354 278 354 222 C354 155 294 94 215 94 C151 94 114 124 114 185 L114 185 Z " />
<glyph glyph-name="nine" unicode="9" horiz-adv-x="521" d="M366 305 C342 190 284 99 188 99 C141 99 115 111 76 139 C71 142 68 143 65 143 C60 143 56 140 51 134 L5 76 C-2 68 -2 61 7 54 C62 7 126 -10 186 -10 C325 -10 440 101 485 361 L491 393 C528 606 436 710 313 710 C152 710 52 570 52 434 C52 313 109 252 213 252 C268 252 318 273 366 305 L366 305 Z M383 408 C338 371 294 353 251 353 C191 353 164 381 164 450 C164 529 215 606 299 606 C363 606 405 544 386 431 L383 408 Z " />
<glyph glyph-name="colon" unicode="&#x3a;" horiz-adv-x="234" d="M2 57 C2 18 31 -10 70 -10 C109 -10 139 18 139 57 C139 96 109 126 70 126 C31 126 2 96 2 57 L2 57 Z M62 441 C62 402 91 373 130 373 C169 373 199 402 199 441 C199 480 169 510 130 510 C91 510 62 480 62 441 L62 441 Z " />
<glyph glyph-name="semicolon" unicode="&#x3b;" horiz-adv-x="230" d="M-52 -159 C-55 -166 -49 -172 -42 -172 L27 -172 C36 -172 43 -168 46 -160 L142 110 C144 118 141 122 133 122 L50 122 C41 122 36 118 34 109 L-52 -159 L-52 -159 Z M63 441 C63 402 92 373 131 373 C170 373 200 402 200 441 C200 480 170 510 131 510 C92 510 63 480 63 441 L63 441 Z " />
<glyph glyph-name="less" unicode="&#x3c;" horiz-adv-x="495" d="M457 433 C468 436 473 439 474 450 L484 516 C487 524 484 530 477 530 C475 530 474 529 472 529 L33 362 C24 358 19 355 16 344 L1 247 C-2 236 4 233 12 229 L398 61 C408 61 412 61 414 74 L425 140 C426 149 422 152 413 156 L103 295 L457 433 Z " />
<glyph glyph-name="equal" unicode="&#x3d;" horiz-adv-x="541" d="M72 446 C62 446 57 441 56 431 L46 370 C44 360 48 355 58 355 L491 355 C500 355 506 360 508 370 L518 431 C519 441 514 446 505 446 L72 446 L72 446 Z M40 242 C30 242 24 237 23 227 L13 166 C12 156 16 151 25 151 L458 151 C468 151 474 156 475 166 L485 227 C486 237 482 242 473 242 L40 242 L40 242 Z " />
<glyph glyph-name="greater" unicode="&#x3e;" horiz-adv-x="500" d="M32 156 C21 152 17 149 16 140 L6 74 C3 66 7 60 13 60 C14 60 16 61 17 61 L456 229 C465 233 472 236 473 247 L489 344 C490 355 485 358 477 362 L91 529 C81 529 77 529 75 516 L64 450 C63 441 67 436 76 433 L386 295 L32 156 Z " />
<glyph glyph-name="question" unicode="&#x3f;" horiz-adv-x="398" d="M90 559 C92 553 96 550 100 550 C103 550 106 552 110 555 C149 582 191 598 227 598 C278 598 298 572 298 539 C298 447 136 425 108 246 L103 214 C100 203 102 196 113 196 L195 196 C208 196 211 203 214 214 L219 246 C239 382 416 424 416 565 C416 645 360 710 253 710 C185 710 121 684 65 648 C56 641 53 634 57 627 L90 559 L90 559 Z M69 57 C69 18 98 -10 137 -10 C176 -10 205 18 205 57 C205 96 176 126 137 126 C98 126 69 96 69 57 L69 57 Z " />
<glyph glyph-name="at" unicode="&#x40;" horiz-adv-x="1036" d="M382 230 C382 313 446 366 511 366 C574 366 612 319 605 256 C597 192 548 139 481 139 C426 139 382 171 382 230 L382 230 Z M595 112 C593 44 656 1 731 1 C842 1 980 94 980 335 C980 562 832 725 575 725 C279 725 34 511 34 191 C34 -73 212 -218 504 -218 L837 -218 C848 -218 855 -213 856 -203 L864 -160 C865 -151 859 -146 848 -146 L507 -146 C236 -146 107 -11 107 192 C107 466 313 652 570 652 C799 652 907 513 907 333 C907 148 811 73 744 73 C705 73 677 99 684 144 L730 437 C731 441 731 451 720 451 L651 451 C647 451 638 449 635 437 C632 428 632 415 629 404 L626 383 C593 448 533 457 501 457 C393 457 285 369 285 220 C285 112 357 46 451 46 C536 46 582 107 597 120 L595 112 L595 112 Z " />
<glyph glyph-name="A" unicode="A" horiz-adv-x="632" d="M67 0 C78 0 86 5 90 15 L161 161 L415 161 L439 16 C442 3 447 0 459 0 L546 0 C557 0 561 5 559 16 L446 685 C444 695 439 700 430 700 L316 700 C307 700 300 695 296 685 L-30 15 C-35 5 -33 0 -22 0 L67 0 L67 0 Z M205 269 L353 567 L406 269 L205 269 Z " />
<glyph glyph-name="B" unicode="B" horiz-adv-x="595" d="M290 0 C432 0 537 101 537 214 C537 295 501 344 430 371 C493 397 550 463 550 538 C550 635 492 700 365 700 L144 700 C133 700 128 695 127 685 L20 15 C19 5 23 0 33 0 L290 0 L290 0 Z M183 315 L305 315 C384 315 421 281 421 218 C421 157 366 105 279 105 L150 105 L183 315 Z M227 594 L331 594 C404 594 429 563 429 515 C429 460 375 417 314 417 L199 417 L227 594 Z " />
<glyph glyph-name="C" unicode="C" horiz-adv-x="628" d="M630 633 C637 642 636 649 627 655 C580 687 522 710 446 710 C229 710 30 527 30 294 C30 114 165 -10 331 -10 C403 -10 470 9 534 44 C543 50 546 58 542 67 L509 135 C506 140 502 143 498 143 C494 143 491 141 486 139 C443 112 392 101 349 101 C227 101 144 186 144 306 C144 465 283 598 428 598 C479 598 516 585 551 562 C555 560 558 559 561 559 C567 559 572 562 577 567 L630 633 Z " />
<glyph glyph-name="D" unicode="D" horiz-adv-x="716" d="M276 0 C503 0 684 171 684 406 C684 586 574 700 382 700 L144 700 C133 700 128 695 127 685 L20 15 C19 5 23 0 33 0 L276 0 L276 0 Z M226 588 L365 588 C498 588 570 514 570 393 C570 235 449 112 290 112 L151 112 L226 588 Z " />
<glyph glyph-name="E" unicode="E" horiz-adv-x="548" d="M142 700 C132 700 126 695 125 685 L18 15 C17 5 21 0 31 0 L429 0 C440 0 446 5 446 15 L460 97 C461 107 457 112 447 112 L148 112 L177 295 L440 295 C450 295 456 300 458 310 L470 389 C471 399 467 404 458 404 L195 404 L223 588 L521 588 C531 588 537 593 539 603 L552 685 C553 693 550 700 539 700 L142 700 L142 700 Z " />
<glyph glyph-name="F" unicode="F" horiz-adv-x="547" d="M115 0 C125 0 131 5 132 15 L175 281 L463 281 C472 281 479 288 480 296 L493 375 C494 385 490 390 480 390 L192 390 L223 588 L555 588 C565 588 571 593 572 603 L586 685 C587 695 583 700 573 700 L142 700 C132 700 126 695 125 685 L18 15 C17 5 21 0 31 0 L115 0 Z " />
<glyph glyph-name="G" unicode="G" horiz-adv-x="674" d="M477 131 C438 112 400 101 349 101 C227 101 144 186 144 306 C144 465 283 598 428 598 C477 598 517 586 557 557 C561 554 565 553 568 553 C574 553 579 557 584 562 L636 627 C643 635 644 643 633 650 C586 682 526 710 447 710 C228 710 30 527 30 294 C30 114 165 -10 331 -10 C412 -10 489 8 562 45 C572 50 577 56 578 65 L624 354 C625 364 621 369 611 369 L385 369 C375 369 369 364 368 354 L358 288 C356 278 360 273 370 273 L499 273 L477 131 L477 131 Z " />
<glyph glyph-name="H" unicode="H" horiz-adv-x="689" d="M117 0 C127 0 133 5 134 15 L179 296 L492 296 L447 15 C446 5 450 0 460 0 L545 0 C555 0 561 5 562 15 L669 685 C670 695 665 700 656 700 L571 700 C560 700 555 695 554 685 L510 411 L197 411 L241 685 C242 695 237 700 228 700 L143 700 C132 700 127 695 126 685 L20 15 C19 5 23 0 33 0 L117 0 L117 0 Z " />
<glyph glyph-name="I" unicode="I" horiz-adv-x="262" d="M118 0 C128 0 134 5 135 15 L242 685 C243 695 238 700 229 700 L144 700 C133 700 128 695 127 685 L20 15 C19 5 23 0 33 0 L118 0 L118 0 Z " />
<glyph glyph-name="J" unicode="J" horiz-adv-x="476" d="M472 685 C474 695 470 700 460 700 L376 700 C366 700 360 695 358 685 L284 219 C273 144 229 101 162 101 C122 101 92 113 64 132 C61 134 57 136 53 136 C50 136 46 134 42 130 L-9 63 C-15 54 -15 47 -8 42 C35 7 92 -10 156 -10 C293 -10 375 79 397 208 L472 685 L472 685 Z " />
<glyph glyph-name="K" unicode="K" horiz-adv-x="654" d="M569 0 C581 0 584 5 579 15 L373 413 L664 685 C671 693 672 700 661 700 L550 700 C535 700 526 694 517 685 L195 391 L242 685 C243 695 238 700 229 700 L144 700 C133 700 128 695 127 685 L20 15 C19 5 23 0 33 0 L118 0 C128 0 134 5 135 15 L170 236 L280 335 L447 15 C454 4 458 0 473 0 L569 0 Z " />
<glyph glyph-name="L" unicode="L" horiz-adv-x="491" d="M399 0 C409 0 415 5 416 15 L430 96 C431 106 426 111 417 111 L150 111 L242 685 C243 695 238 700 229 700 L144 700 C133 700 128 695 127 685 L20 15 C19 5 23 0 33 0 L399 0 L399 0 Z " />
<glyph glyph-name="M" unicode="M" horiz-adv-x="867" d="M418 94 C429 94 432 98 439 107 L704 517 L624 15 C623 5 627 0 637 0 L722 0 C731 0 737 5 739 15 L846 685 C847 695 842 700 833 700 L718 700 C709 700 702 697 694 686 L419 261 L279 686 C276 695 269 700 260 700 L145 700 C134 700 129 695 128 685 L21 15 C19 5 23 0 34 0 L118 0 C128 0 134 5 135 15 L215 517 L351 107 C354 98 360 94 369 94 L418 94 L418 94 Z " />
<glyph glyph-name="N" unicode="N" horiz-adv-x="729" d="M585 0 C595 0 601 5 602 15 L709 685 C710 695 705 700 696 700 L611 700 C600 700 595 695 594 685 L516 193 L253 685 C246 694 242 700 229 700 L144 700 C133 700 128 695 127 685 L20 15 C19 5 23 0 33 0 L117 0 C127 0 133 5 134 15 L213 507 L476 15 C481 4 486 0 499 0 L585 0 Z " />
<glyph glyph-name="O" unicode="O" horiz-adv-x="780" d="M446 710 C229 710 30 527 30 294 C30 114 165 -10 331 -10 C548 -10 748 171 748 406 C748 586 611 710 446 710 L446 710 Z M349 101 C227 101 144 186 144 306 C144 465 283 598 428 598 C552 598 633 513 633 393 C633 236 495 101 349 101 L349 101 Z " />
<glyph glyph-name="P" unicode="P" horiz-adv-x="566" d="M118 0 C128 0 134 5 135 15 L170 237 L301 237 C439 237 566 342 566 492 C566 620 477 700 355 700 L144 700 C133 700 128 695 127 685 L20 15 C19 5 23 0 33 0 L118 0 L118 0 Z M227 595 L327 595 C407 595 451 552 451 485 C451 395 379 341 292 341 L187 341 L227 595 Z " />
<glyph glyph-name="Q" unicode="Q" horiz-adv-x="780" d="M517 -142 C519 -147 522 -149 527 -149 C530 -149 534 -148 539 -145 L617 -106 C624 -103 626 -96 624 -87 L563 64 C665 134 748 257 748 406 C748 586 612 710 445 710 C229 710 30 527 30 294 C30 114 165 -10 331 -10 C378 -10 411 -3 454 13 L517 -142 L517 -142 Z M349 101 C227 101 144 186 144 306 C144 465 283 598 428 598 C552 598 633 513 633 393 C633 236 495 101 349 101 L349 101 Z " />
<glyph glyph-name="R" unicode="R" horiz-adv-x="588" d="M331 595 C410 595 456 554 456 489 C456 408 385 345 294 345 L188 345 L203 440 C211 493 220 555 227 595 L331 595 L331 595 Z M381 258 C445 274 571 354 571 499 C571 613 484 700 364 700 L145 700 C135 700 129 695 128 685 L21 15 C19 5 23 0 34 0 L118 0 C128 0 134 5 135 15 L172 240 L261 240 L379 15 C384 5 392 0 403 0 L496 0 C509 0 512 5 507 16 L381 258 L381 258 Z " />
<glyph glyph-name="S" unicode="S" horiz-adv-x="542" d="M517 631 C524 639 524 646 516 652 C456 692 396 710 324 710 C188 710 80 629 80 509 C80 293 364 339 364 203 C364 150 321 100 233 100 C177 100 119 122 76 161 C72 164 68 166 65 166 C60 166 56 163 52 158 L0 94 C-7 85 -6 78 1 72 C60 20 136 -10 224 -10 C389 -10 479 104 479 214 C479 438 195 392 195 515 C195 567 248 600 309 600 C360 600 391 586 438 559 C442 557 446 556 449 556 C454 556 458 558 461 563 L517 631 Z " />
<glyph glyph-name="T" unicode="T" horiz-adv-x="523" d="M250 0 C260 0 266 5 267 15 L358 588 L546 588 C556 588 562 593 564 603 L577 685 C579 695 575 700 564 700 L64 700 C53 700 48 695 47 685 L33 603 C32 593 36 588 46 588 L244 588 L153 15 C151 5 155 0 166 0 L250 0 L250 0 Z " />
<glyph glyph-name="U" unicode="U" horiz-adv-x="660" d="M124 700 C114 700 108 695 106 685 L41 269 C17 120 94 -10 278 -10 C446 -10 564 112 588 269 L653 685 C655 695 651 700 641 700 L557 700 C547 700 541 695 539 685 L476 289 C457 173 395 101 288 101 C183 101 139 173 158 289 L221 685 C223 695 219 700 209 700 L124 700 L124 700 Z " />
<glyph glyph-name="V" unicode="V" horiz-adv-x="608" d="M306 0 C317 0 326 6 331 17 L656 684 C660 692 659 700 648 700 L557 700 C545 700 537 695 533 684 L275 158 L186 684 C184 695 178 700 167 700 L79 700 C68 700 63 692 66 684 L179 17 C181 6 188 0 199 0 L306 0 L306 0 Z " />
<glyph glyph-name="W" unicode="W" horiz-adv-x="924" d="M667 0 C678 0 685 5 688 15 L961 684 C966 695 963 700 953 700 L859 700 C848 700 841 695 837 684 L636 184 L580 688 C578 696 573 700 565 700 L466 700 C457 700 450 696 447 688 L231 184 L189 684 C188 695 184 700 172 700 L78 700 C67 700 63 695 66 684 L127 15 C128 5 133 0 144 0 L249 0 C261 0 269 5 272 15 L488 524 L543 15 C544 5 550 0 562 0 L667 0 L667 0 Z " />
<glyph glyph-name="X" unicode="X" horiz-adv-x="650" d="M232 688 C228 696 223 700 210 700 L99 700 C88 700 87 692 91 685 L263 356 L-26 15 C-33 7 -30 0 -21 0 L91 0 C104 0 110 4 118 13 L315 256 L432 13 C436 4 444 0 455 0 L570 0 C579 0 584 7 579 15 L398 355 L675 685 C683 694 680 700 671 700 L557 700 C546 700 537 696 531 688 L346 456 L232 688 Z " />
<glyph glyph-name="Y" unicode="Y" horiz-adv-x="564" d="M176 691 C173 697 167 700 160 700 L63 700 C52 700 50 693 55 685 L221 341 L169 15 C168 5 172 0 182 0 L266 0 C276 0 282 5 283 15 L335 341 L610 685 C615 692 616 700 605 700 L504 700 C497 700 491 697 486 691 L290 446 L176 691 L176 691 Z " />
<glyph glyph-name="Z" unicode="Z" horiz-adv-x="599" d="M-15 15 C-16 5 -12 0 -3 0 L488 0 C498 0 504 5 505 15 L518 97 C520 107 516 112 506 112 L153 112 L581 593 C586 600 586 602 589 613 L601 685 C602 695 597 700 588 700 L122 700 C111 700 106 695 105 685 L91 603 C90 593 94 588 104 588 L434 589 L13 113 C4 102 -2 94 -5 79 L-15 15 L-15 15 Z " />
<glyph glyph-name="bracketleft" unicode="&#x5b;" horiz-adv-x="280" d="M170 -130 C179 -130 185 -125 186 -115 L197 -52 C198 -42 194 -37 184 -37 L92 -37 L202 657 L294 657 C303 657 309 662 311 672 L321 735 C323 745 319 750 309 750 L142 750 C129 750 121 741 118 729 L-14 -109 C-17 -122 -8 -130 3 -130 L170 -130 Z " />
<glyph glyph-name="backslash" unicode="&#x5c;" horiz-adv-x="457" d="M138 685 C134 694 130 700 121 700 L59 700 C48 700 42 694 47 685 L326 14 C330 6 334 0 343 0 L405 0 C416 0 422 5 417 14 L138 685 Z " />
<glyph glyph-name="bracketright" unicode="&#x5d;" horiz-adv-x="280" d="M137 -130 C149 -130 158 -122 161 -109 L294 729 C297 741 288 750 276 750 L109 750 C100 750 94 745 92 735 L82 672 C80 662 84 657 94 657 L187 657 L77 -37 L-15 -37 C-24 -37 -30 -42 -32 -52 L-42 -115 C-43 -125 -39 -130 -30 -130 L137 -130 L137 -130 Z " />
<glyph glyph-name="asciicircum" unicode="&#x5e;" horiz-adv-x="488" d="M375 316 C378 307 384 302 393 302 L461 302 C470 302 478 307 475 316 L362 685 C359 694 357 700 346 700 L259 700 C250 700 246 693 241 685 L7 316 C0 307 8 302 19 302 L91 302 C98 302 106 307 113 316 L290 604 L375 316 Z " />
<glyph glyph-name="underscore" unicode="&#x5f;" horiz-adv-x="525" d="M-27 -54 C-36 -54 -42 -59 -44 -69 L-57 -152 C-58 -162 -54 -167 -45 -167 L432 -167 C441 -167 447 -162 449 -152 L462 -69 C463 -59 459 -54 450 -54 L-27 -54 L-27 -54 Z " />
<glyph glyph-name="grave" unicode="&#x60;" horiz-adv-x="175" d="M202 572 C211 576 211 584 208 591 L136 743 C133 750 128 753 122 753 C120 753 118 753 116 752 L49 729 C40 726 38 718 43 711 L137 558 C140 553 144 550 149 550 C151 550 154 551 157 552 L202 572 L202 572 Z " />
<glyph glyph-name="a" unicode="a" horiz-adv-x="602" d="M121 225 C121 321 198 402 291 402 C372 402 424 337 413 256 C402 167 328 98 244 98 C167 98 121 153 121 225 L121 225 Z M469 0 C478 0 484 5 486 15 L561 485 C562 495 557 500 548 500 L465 500 C454 500 449 495 448 485 C442 463 439 438 436 415 C408 471 356 510 280 510 C124 510 8 372 8 215 C8 92 76 -10 200 -10 C279 -10 343 32 384 84 L373 15 C371 5 375 0 386 0 L469 0 L469 0 Z " />
<glyph glyph-name="b" unicode="b" horiz-adv-x="607" d="M454 275 C454 178 377 98 284 98 C202 98 152 163 163 243 C174 334 247 402 332 402 C409 402 454 344 454 275 L454 275 Z M111 0 C121 0 127 5 128 15 L140 84 C167 32 217 -10 296 -10 C451 -10 567 128 567 284 C567 408 500 510 375 510 C299 510 237 474 192 418 L216 568 C227 643 240 724 242 735 C244 745 240 750 230 750 L147 750 C137 750 131 745 129 735 L16 15 C14 5 18 0 28 0 L111 0 L111 0 Z " />
<glyph glyph-name="c" unicode="c" horiz-adv-x="463" d="M350 119 C348 123 345 125 341 125 C338 125 335 124 331 122 C303 107 272 98 239 98 C162 98 118 154 118 225 C118 321 196 402 287 402 C306 402 336 399 369 376 C372 374 375 373 378 373 C382 373 386 375 390 379 L445 442 C452 451 452 458 444 464 C413 487 368 510 305 510 C141 510 7 379 7 215 C7 83 94 -10 222 -10 C282 -10 337 10 377 34 C387 39 390 46 385 55 L350 119 L350 119 Z " />
<glyph glyph-name="d" unicode="d" horiz-adv-x="617" d="M123 225 C123 321 200 402 293 402 C375 402 425 337 414 256 C403 167 330 98 245 98 C169 98 123 153 123 225 L123 225 Z M470 0 C480 0 486 5 487 15 L601 735 C603 745 599 750 589 750 L506 750 C496 750 490 745 488 735 C485 722 473 644 462 566 L438 415 C409 471 357 510 281 510 C126 510 10 372 10 215 C10 92 77 -10 202 -10 C282 -10 345 32 386 84 L374 15 C373 5 377 0 387 0 L470 0 L470 0 Z " />
<glyph glyph-name="e" unicode="e" horiz-adv-x="534" d="M240 86 C156 86 108 139 109 211 L475 211 C487 211 494 218 495 229 C514 392 442 510 293 510 C141 510 6 383 6 215 C6 83 96 -10 221 -10 C297 -10 361 10 416 41 C425 46 427 52 424 61 L395 114 C393 118 389 121 384 121 C381 121 378 120 374 118 C331 97 291 86 240 86 L240 86 Z M123 294 C142 363 202 421 279 421 C352 421 392 375 395 294 L123 294 Z " />
<glyph glyph-name="f" unicode="f" horiz-adv-x="356" d="M423 702 C428 709 431 713 422 720 C386 746 345 759 299 759 C207 759 143 705 126 602 L111 500 L50 500 C40 500 34 495 32 485 L21 411 C19 401 23 396 33 396 L94 396 L34 15 C32 5 36 0 46 0 L129 0 C139 0 145 5 147 15 L207 396 L307 396 C316 396 322 401 324 411 L335 485 C337 495 333 500 324 500 L224 500 L235 576 C246 636 277 651 308 651 C329 651 345 646 364 637 C366 636 368 635 369 635 C372 635 375 637 378 640 L423 702 Z " />
<glyph glyph-name="g" unicode="g" horiz-adv-x="612" d="M129 225 C129 321 206 402 298 402 C380 402 432 337 421 256 C410 167 336 103 252 103 C175 103 129 154 129 225 L129 225 Z M568 485 C570 495 566 500 555 500 L472 500 C463 500 457 495 455 485 C452 473 451 456 448 441 L444 415 C416 471 363 510 287 510 C132 510 17 368 17 211 C17 88 84 -5 209 -5 C290 -5 352 38 393 89 L380 8 C367 -75 299 -147 194 -147 C138 -147 93 -127 65 -96 C63 -93 60 -92 57 -92 C54 -92 49 -94 45 -98 L-7 -156 C-13 -163 -14 -169 -9 -176 C28 -221 99 -255 182 -255 C354 -255 468 -143 495 18 L568 485 L568 485 Z " />
<glyph glyph-name="h" unicode="h" horiz-adv-x="596" d="M111 0 C121 0 127 5 128 15 L167 259 C178 327 243 402 316 402 C397 402 423 343 410 259 L371 15 C370 5 374 0 384 0 L467 0 C477 0 483 5 484 15 L526 280 C547 419 496 510 371 510 C292 510 227 462 192 417 L242 735 C244 745 240 750 230 750 L147 750 C137 750 131 745 129 735 L16 15 C14 5 18 0 28 0 L111 0 L111 0 Z " />
<glyph glyph-name="i" unicode="i" horiz-adv-x="258" d="M111 0 C120 0 126 5 128 15 L203 485 C204 495 199 500 190 500 L107 500 C96 500 91 495 90 485 L15 15 C13 5 17 0 28 0 L111 0 L111 0 Z M109 691 C109 652 139 624 176 624 C215 624 245 652 245 691 C245 730 215 760 176 760 C139 760 109 730 109 691 L109 691 Z " />
<glyph glyph-name="j" unicode="j" horiz-adv-x="255" d="M-169 -209 C-174 -218 -173 -224 -166 -229 C-138 -244 -106 -255 -67 -255 C33 -255 96 -190 109 -103 L203 485 C204 495 200 500 190 500 L107 500 C96 500 91 493 90 485 L0 -82 C-7 -125 -29 -147 -66 -147 C-85 -147 -98 -143 -110 -136 C-112 -135 -114 -135 -116 -135 C-121 -135 -125 -137 -128 -142 L-169 -209 L-169 -209 Z M109 691 C109 652 139 624 176 624 C215 624 245 652 245 691 C245 730 215 760 176 760 C139 760 109 730 109 691 L109 691 Z " />
<glyph glyph-name="k" unicode="k" horiz-adv-x="531" d="M332 14 C337 5 346 0 359 0 L452 0 C463 0 466 7 459 16 L319 293 L517 485 C525 492 524 500 515 500 L412 500 C401 500 392 496 385 489 L173 298 L242 735 C244 745 240 750 230 750 L147 750 C137 750 131 745 129 735 L16 15 C14 5 18 0 28 0 L111 0 C121 0 127 5 128 15 L151 154 L223 219 L332 14 L332 14 Z " />
<glyph glyph-name="l" unicode="l" horiz-adv-x="258" d="M111 0 C121 0 127 5 128 15 L242 735 C244 745 240 750 230 750 L147 750 C137 750 131 745 129 735 L16 15 C14 5 18 0 28 0 L111 0 L111 0 Z " />
<glyph glyph-name="m" unicode="m" horiz-adv-x="914" d="M107 500 C98 500 92 495 90 485 L16 15 C14 5 18 0 28 0 L111 0 C121 0 127 5 129 15 L168 259 C179 327 245 402 310 402 C383 402 402 339 391 259 L352 15 C350 5 354 0 364 0 L447 0 C457 0 463 5 465 15 L504 259 C515 328 583 402 646 402 C719 402 738 339 727 259 L688 15 C686 5 690 0 700 0 L784 0 C794 0 800 5 801 15 L843 280 C864 420 814 510 701 510 C612 510 545 458 497 402 C478 466 440 510 365 510 C288 510 229 459 192 414 C191 415 204 483 203 485 C205 495 201 500 190 500 L107 500 Z " />
<glyph glyph-name="n" unicode="n" horiz-adv-x="596" d="M467 0 C477 0 483 5 485 15 L527 280 C548 417 497 510 372 510 C292 510 227 459 192 414 C191 415 204 483 203 485 C205 495 201 500 190 500 L107 500 C98 500 92 495 90 485 L16 15 C14 5 18 0 28 0 L111 0 C121 0 127 5 129 15 L168 259 C179 327 244 402 317 402 C397 402 424 343 411 259 L372 15 C370 5 374 0 384 0 L467 0 L467 0 Z " />
<glyph glyph-name="o" unicode="o" horiz-adv-x="557" d="M6 215 C6 83 96 -10 221 -10 C385 -10 519 121 519 284 C519 415 432 510 304 510 C140 510 6 379 6 215 L6 215 Z M117 225 C117 321 194 402 287 402 C364 402 409 344 409 275 C409 178 332 98 239 98 C162 98 117 154 117 225 L117 225 Z " />
<glyph glyph-name="p" unicode="p" horiz-adv-x="604" d="M451 275 C451 178 374 98 282 98 C200 98 149 163 160 243 C171 334 244 402 329 402 C406 402 451 344 451 275 L451 275 Z M104 500 C93 500 88 495 87 485 L-27 -235 C-29 -245 -25 -250 -15 -250 L68 -250 C78 -250 84 -245 86 -235 C86 -225 99 -144 112 -67 L136 84 C163 32 214 -10 293 -10 C448 -10 564 128 564 284 C564 408 503 510 372 510 C296 510 233 474 189 418 L200 485 C201 495 196 500 187 500 L104 500 Z " />
<glyph glyph-name="q" unicode="q" horiz-adv-x="606" d="M123 225 C123 321 200 402 292 402 C375 402 425 336 414 256 C403 168 330 98 245 98 C169 98 123 153 123 225 L123 225 Z M466 500 C457 500 451 495 449 485 L438 415 C409 471 357 510 281 510 C126 510 10 372 10 215 C10 92 77 -10 202 -10 C281 -10 345 32 386 84 L362 -67 C349 -144 335 -224 335 -235 C333 -245 337 -250 347 -250 L430 -250 C440 -250 446 -245 448 -235 L562 485 C564 495 560 500 549 500 L466 500 L466 500 Z " />
<glyph glyph-name="r" unicode="r" horiz-adv-x="400" d="M107 500 C98 500 92 495 90 485 C63 318 43 182 16 15 C14 5 18 0 28 0 L111 0 C121 0 127 5 129 15 L164 235 C180 331 249 399 314 399 C329 399 344 397 358 392 C361 391 364 390 366 390 C371 390 376 393 379 398 L414 474 C419 485 419 493 412 496 C391 507 364 510 341 510 C278 510 218 457 191 406 L203 485 C206 493 201 500 190 500 L107 500 L107 500 Z " />
<glyph glyph-name="s" unicode="s" horiz-adv-x="428" d="M60 132 C56 136 52 137 48 137 C44 137 40 136 36 132 L-12 89 C-20 81 -24 72 -17 65 C22 17 91 -10 163 -10 C286 -10 366 65 366 159 C366 326 145 289 145 363 C145 398 180 412 219 412 C252 412 282 406 313 383 C317 380 320 378 324 378 C328 378 331 380 336 384 L388 431 C395 438 396 445 391 452 C362 483 300 510 232 510 C133 510 40 447 40 356 C40 194 260 232 260 144 C260 109 225 87 169 87 C125 87 92 101 60 132 L60 132 Z " />
<glyph glyph-name="t" unicode="t" horiz-adv-x="372" d="M282 108 C280 113 277 115 274 115 C272 115 269 114 267 113 C246 102 229 98 208 98 C176 98 154 113 161 150 L201 396 L322 396 C331 396 337 401 339 411 L351 485 C352 495 348 500 338 500 L217 500 L238 633 C239 641 237 648 226 648 L143 648 C132 648 126 643 125 633 L104 500 L54 500 C43 500 38 495 37 485 L25 411 C23 401 27 396 38 396 L88 396 L46 136 C31 48 83 -10 176 -10 C215 -10 254 0 293 20 C302 25 305 32 303 39 L282 108 L282 108 Z " />
<glyph glyph-name="u" unicode="u" horiz-adv-x="585" d="M87 500 C77 500 71 495 70 485 L28 219 C7 82 58 -10 183 -10 C264 -10 326 40 363 88 C364 87 351 16 351 15 C350 5 354 0 364 0 L447 0 C457 0 463 5 464 15 L539 485 C540 495 536 500 526 500 L443 500 C433 500 427 495 426 485 L387 241 C376 172 311 98 238 98 C157 98 131 157 144 240 L183 485 C184 495 180 500 170 500 L87 500 L87 500 Z " />
<glyph glyph-name="v" unicode="v" horiz-adv-x="474" d="M135 485 C132 494 131 500 120 500 L33 500 C22 500 19 493 22 485 L117 17 C121 2 130 0 134 0 L228 0 C232 0 242 2 249 17 L493 485 C498 493 495 500 486 500 L395 500 C384 500 380 494 375 485 L202 153 L135 485 Z " />
<glyph glyph-name="w" unicode="w" horiz-adv-x="702" d="M139 485 C138 495 133 500 124 500 L40 500 C31 500 28 495 29 485 L65 17 C66 6 72 0 82 0 L188 0 C200 0 207 8 211 17 L350 362 L380 17 C383 8 387 0 398 0 L503 0 C514 0 520 6 525 17 L710 485 C715 495 712 500 703 500 L619 500 C610 500 604 495 599 485 L467 149 L432 483 C431 494 425 500 416 500 L326 500 C317 500 310 494 305 483 L235 315 C201 229 165 149 165 149 L139 485 L139 485 Z " />
<glyph glyph-name="x" unicode="x" horiz-adv-x="491" d="M295 12 C298 4 305 0 316 0 L407 0 C416 0 420 8 415 15 L297 250 L490 485 C495 492 496 500 485 500 L391 500 C378 500 373 496 366 487 L240 330 L160 487 C157 496 150 500 139 500 L48 500 C39 500 35 492 39 485 L159 253 L-36 15 C-43 7 -41 0 -32 0 L62 0 C73 0 81 4 87 12 L215 172 L295 12 Z " />
<glyph glyph-name="y" unicode="y" horiz-adv-x="589" d="M543 485 C544 495 540 500 530 500 L447 500 C437 500 431 495 430 485 L391 244 C380 182 317 108 243 108 C163 108 136 166 149 250 L187 485 C188 495 184 500 174 500 L91 500 C81 500 75 495 74 485 L33 229 C12 92 61 0 188 0 C265 0 339 48 368 93 L354 10 C341 -73 285 -147 181 -147 C125 -147 82 -124 59 -88 C57 -86 54 -84 51 -84 C48 -84 45 -86 40 -90 L-13 -148 C-20 -155 -20 -161 -15 -168 C17 -217 89 -255 170 -255 C341 -255 445 -138 469 21 L543 485 L543 485 Z " />
<glyph glyph-name="z" unicode="z" horiz-adv-x="466" d="M-22 15 C-23 5 -19 0 -9 0 L359 0 C369 0 375 5 376 15 L388 87 C390 97 386 102 375 102 L141 102 L412 405 C423 416 428 426 431 443 L438 485 C439 495 434 500 425 500 L83 500 C74 500 68 495 66 485 L55 413 C53 403 57 398 67 398 L276 398 L4 93 C-7 82 -12 74 -15 59 L-22 15 L-22 15 Z " />
<glyph glyph-name="braceleft" unicode="&#x7b;" horiz-adv-x="275" d="M5 258 C55 258 59 206 49 143 L28 6 C17 -57 46 -95 114 -95 L177 -95 C186 -95 192 -90 193 -80 L199 -42 C201 -32 197 -27 187 -27 L160 -27 C135 -27 123 -11 127 14 L147 143 C158 208 158 301 92 301 C152 301 186 387 196 453 L218 588 C222 615 236 632 264 632 L291 632 C301 632 307 637 308 647 L314 685 C316 695 312 700 302 700 L239 700 C179 700 134 671 123 607 L98 453 C90 398 69 344 19 344 C10 344 4 339 2 329 L-7 273 C-8 263 -4 258 5 258 L5 258 Z " />
<glyph glyph-name="bar" unicode="&#x7c;" horiz-adv-x="246" d="M241 705 C242 715 237 720 228 720 L145 720 C136 720 130 715 128 705 L-10 -170 C-12 -179 -8 -184 3 -184 L85 -184 C94 -184 100 -179 102 -170 L241 705 L241 705 Z " />
<glyph glyph-name="braceright" unicode="&#x7d;" horiz-adv-x="276" d="M255 258 C264 258 270 263 271 273 L280 329 C282 339 278 344 268 344 C217 344 215 398 223 453 L247 607 C258 671 220 700 160 700 L97 700 C88 700 82 695 81 685 L75 647 C73 637 77 632 87 632 L114 632 C142 632 150 615 146 588 L125 453 C115 387 122 301 181 301 C114 301 87 208 76 143 L55 14 C51 -11 35 -27 10 -27 L-17 -27 C-26 -27 -32 -32 -34 -42 L-39 -80 C-41 -90 -37 -95 -27 -95 L35 -95 C103 -95 141 -57 152 6 L174 143 C184 206 205 258 255 258 L255 258 Z " />
<glyph glyph-name="asciitilde" unicode="&#x7e;" horiz-adv-x="496" d="M50 218 C78 253 104 273 145 273 C209 273 268 207 338 207 C401 207 444 262 485 303 C492 310 492 317 485 323 L452 351 C449 354 446 355 442 355 C438 355 434 353 430 349 C409 326 388 298 356 298 C296 298 225 360 161 365 C87 365 38 320 -5 264 C-12 255 -11 248 -4 243 L29 215 C32 212 35 210 38 210 C42 210 46 213 50 218 L50 218 Z " />
<glyph glyph-name="exclamdown" unicode="&#xa1;" horiz-adv-x="216" d="M65 304 C54 304 48 299 47 289 L-34 -185 C-35 -195 -30 -200 -21 -200 L63 -200 C73 -200 79 -195 81 -185 L150 289 C151 300 149 304 137 304 L65 304 L65 304 Z M189 443 C189 482 161 510 122 510 C83 510 53 482 53 443 C53 404 83 374 122 374 C161 374 189 404 189 443 L189 443 Z " />
<glyph glyph-name="cent" unicode="&#xa2;" horiz-adv-x="463" d="M248 -7 C297 -3 341 11 377 34 C386 39 389 46 385 55 L350 119 C348 123 345 125 341 125 C338 125 334 124 330 122 C303 107 272 98 239 98 C162 98 118 154 118 225 C118 321 196 402 287 402 C306 402 336 399 368 376 C371 374 374 373 377 373 C382 373 386 375 390 380 L446 443 C453 450 451 460 444 465 C416 486 379 502 330 507 L358 688 C360 698 356 703 345 703 L307 703 C298 703 292 698 290 688 L261 506 C128 490 7 372 7 215 C7 100 69 14 180 -7 L151 -187 C150 -196 155 -201 164 -201 L202 -201 C213 -201 218 -196 219 -187 L248 -7 L248 -7 Z " />
<glyph glyph-name="sterling" unicode="&#xa3;" horiz-adv-x="509" d="M452 91 C453 97 452 100 448 100 C446 100 442 99 438 96 C410 80 379 75 348 75 C286 75 220 96 156 96 C145 96 135 95 125 94 L156 289 L338 289 C347 289 352 294 354 304 L361 348 C362 358 358 363 349 363 L167 363 C180 448 191 535 273 585 C301 603 332 609 363 609 C409 609 454 595 489 579 C491 578 492 578 494 578 C502 578 506 585 507 588 L537 645 C538 648 542 657 531 662 C486 683 430 699 373 699 C323 699 272 687 227 657 C119 586 95 493 76 363 L29 363 C19 363 14 358 13 348 L6 304 C3 293 10 289 18 289 L65 289 L21 12 C19 5 21 0 27 0 C29 0 31 0 33 1 C54 8 78 11 102 11 C175 11 257 -14 331 -14 C365 -14 398 -9 427 7 C438 12 441 17 442 28 L452 91 L452 91 Z " />
<glyph glyph-name="currency" unicode="&#xa4;" horiz-adv-x="531" d="M148 320 C159 384 218 437 282 437 C346 437 392 384 381 320 C370 256 310 204 245 204 C182 204 137 256 148 320 L148 320 Z M402 89 C405 86 408 85 411 85 C415 85 419 86 423 90 L466 126 C473 133 474 140 468 147 L420 206 C451 241 467 288 474 320 C479 353 479 397 456 433 L526 494 C533 501 534 508 529 515 L497 552 C494 556 491 557 487 557 C484 557 480 556 476 552 L407 493 C371 520 331 529 298 529 C273 529 228 525 179 494 L128 554 C125 558 122 559 118 559 C115 559 111 558 107 554 L63 517 C55 510 54 503 59 496 L111 436 C91 411 64 375 56 320 C49 287 51 246 74 206 L5 146 C-3 139 -4 132 2 125 L34 88 C37 84 39 83 43 83 C46 83 50 84 54 87 L122 147 C154 118 204 111 231 111 C263 111 311 119 352 148 L402 89 L402 89 Z " />
<glyph glyph-name="yen" unicode="&#xa5;" horiz-adv-x="565" d="M170 15 C169 5 173 0 183 0 L268 0 C278 0 284 5 285 15 L308 155 L481 155 C490 155 496 160 498 170 L508 231 C509 241 505 246 495 246 L322 246 L337 341 L510 341 C520 341 526 346 527 356 L537 417 C539 427 535 432 525 432 L409 432 L612 685 C617 692 616 700 608 700 L510 700 C502 700 496 697 491 691 L295 441 L178 691 C175 697 170 700 163 700 L64 700 C56 700 52 692 56 685 L179 432 L62 432 C53 432 47 427 45 417 L35 356 C34 346 38 341 47 341 L222 341 L207 246 L32 246 C23 246 17 241 16 231 L6 170 C4 160 8 155 18 155 L193 155 L170 15 Z " />
<glyph glyph-name="brokenbar" unicode="&#xa6;" horiz-adv-x="243" d="M234 706 C236 716 232 721 221 721 L139 721 C128 721 123 716 122 706 L60 311 C58 302 62 297 72 297 L154 297 C164 297 170 302 172 311 L234 706 L234 706 Z M157 222 C159 232 155 237 145 237 L63 237 C53 237 47 232 45 222 L-17 -173 C-18 -182 -13 -187 -4 -187 L78 -187 C89 -187 94 -182 95 -173 L157 222 L157 222 Z " />
<glyph glyph-name="section" unicode="&#xa7;" horiz-adv-x="540" d="M399 52 C446 92 477 151 477 214 C477 435 193 389 193 515 C193 567 247 600 307 600 C359 600 396 584 436 559 C439 557 442 556 446 556 C451 556 456 559 459 563 L515 631 C522 639 522 646 514 652 C457 691 393 710 322 710 C186 710 78 629 78 509 C78 458 89 431 112 403 C59 367 25 316 25 248 C25 36 309 82 309 -58 C309 -115 262 -161 178 -161 C125 -161 64 -139 21 -100 C18 -97 14 -96 11 -96 C6 -96 1 -98 -3 -103 L-55 -167 C-63 -178 -61 -182 -54 -189 C5 -242 84 -271 169 -271 C330 -271 424 -160 424 -47 C424 -7 418 21 399 52 L399 52 Z M314 120 C255 171 140 172 140 254 C140 289 165 315 208 330 C273 290 362 284 362 203 C362 164 339 135 314 120 L314 120 Z " />
<glyph glyph-name="dieresis" unicode="&#xa8;" horiz-adv-x="398" d="M57 567 C57 531 86 502 122 502 C158 502 187 531 187 567 C187 603 158 632 122 632 C86 632 57 603 57 567 L57 567 Z M273 567 C273 531 300 502 337 502 C374 502 403 531 403 567 C403 603 374 632 337 632 C300 632 273 603 273 567 L273 567 Z " />
<glyph glyph-name="copyright" unicode="&#xa9;" horiz-adv-x="836" d="M420 765 C203 765 32 588 32 372 C32 160 203 -17 420 -17 C639 -17 803 160 803 372 C803 588 632 765 420 765 L420 765 Z M420 25 C228 25 75 189 75 372 C75 568 236 722 420 722 C619 722 761 555 761 372 C761 164 597 25 420 25 L420 25 Z M526 213 C534 218 535 224 530 232 L513 256 C510 260 506 263 502 263 C499 263 496 262 493 260 C476 249 456 242 429 242 C351 242 300 306 300 370 C300 439 353 499 429 499 C444 499 468 496 491 483 C494 481 498 480 500 480 C505 480 509 483 512 487 L529 512 C533 519 532 524 525 529 C506 544 468 557 429 557 C326 557 243 474 243 371 C243 268 326 186 429 186 C469 186 502 198 526 213 L526 213 Z " />
<glyph glyph-name="guillemotleft" unicode="&#xab;" horiz-adv-x="492" d="M475 410 C482 418 480 425 469 425 L388 425 C379 425 371 418 364 410 L222 239 C217 232 217 228 219 218 L307 48 C312 39 318 34 327 34 L407 34 C418 34 421 41 417 48 L323 229 L475 410 Z M248 410 C255 418 253 425 242 425 L160 425 C152 425 144 418 137 410 L-5 239 C-10 232 -10 228 -8 218 L80 48 C83 39 90 34 99 34 L180 34 C191 34 194 41 190 48 L96 229 L248 410 Z " />
<glyph glyph-name="logicalnot" unicode="&#xac;" horiz-adv-x="544" d="M436 30 C445 30 451 35 453 45 L499 335 L33 335 C24 335 18 330 17 320 L6 251 C4 241 8 236 18 236 L385 236 L354 45 C353 35 357 30 367 30 L436 30 L436 30 Z " />
<glyph glyph-name="uni00AD" unicode="&#xad;" horiz-adv-x="370" d="M43 305 C34 305 28 300 26 290 L13 208 C12 198 16 193 25 193 L303 193 C313 193 319 198 320 208 L333 290 C335 300 331 305 321 305 L43 305 L43 305 Z " />
<glyph glyph-name="registered" unicode="&#xae;" horiz-adv-x="836" d="M420 765 C203 765 32 588 32 372 C32 160 203 -17 420 -17 C639 -17 803 160 803 372 C803 588 632 765 420 765 L420 765 Z M420 25 C228 25 75 189 75 372 C75 568 236 722 420 722 C619 722 761 555 761 372 C761 164 597 25 420 25 L420 25 Z M421 542 C473 542 505 503 505 462 C505 415 473 380 421 380 L335 380 L335 542 L421 542 L421 542 Z M459 330 C496 338 560 379 560 462 C560 538 498 597 421 597 L291 597 C284 597 280 593 280 586 L280 179 C280 171 284 167 291 167 L324 167 C331 167 335 171 335 179 L335 325 L398 325 L505 177 C509 172 515 167 522 167 L565 167 C572 167 570 173 567 177 L459 330 L459 330 Z " />
<glyph glyph-name="degree" unicode="&#xb0;" horiz-adv-x="382" d="M42 526 C42 430 122 350 218 350 C314 350 394 430 394 526 C394 622 314 702 218 702 C122 702 42 622 42 526 L42 526 Z M116 525 C116 585 158 630 218 630 C277 630 322 585 322 525 C322 465 277 423 218 423 C158 423 116 465 116 525 L116 525 Z " />
<glyph glyph-name="plusminus" unicode="&#xb1;" horiz-adv-x="529" d="M13 134 C4 134 -2 129 -3 119 L-14 51 C-16 41 -12 36 -2 36 L432 36 C441 36 447 41 449 51 L460 119 C461 129 457 134 447 134 L13 134 L13 134 Z M482 388 C492 388 498 393 500 403 L510 472 C512 482 508 487 498 487 L338 487 L363 646 C365 656 361 661 350 661 L282 661 C272 661 266 656 264 646 L239 487 L77 487 C68 487 62 482 60 472 L50 403 C48 393 52 388 61 388 L223 388 L198 226 C196 217 200 212 211 212 L279 212 C290 212 295 217 296 226 L322 388 L482 388 Z " />
<glyph glyph-name="acute" unicode="&#xb4;" horiz-adv-x="194" d="M99 550 C101 549 104 548 106 548 C111 548 115 551 120 556 L238 710 C243 717 243 725 234 728 L167 752 C165 753 163 753 161 753 C155 753 150 750 146 743 L51 591 C46 582 47 576 54 572 L99 550 L99 550 Z " />
<glyph glyph-name="mu" unicode="&#xb5;" horiz-adv-x="587" d="M129 38 C158 -1 194 -3 238 -3 C302 2 353 51 380 88 L368 15 C367 5 371 0 381 0 L464 0 C474 0 480 5 481 15 L556 485 C557 495 552 500 543 500 L460 500 C449 500 444 495 443 485 L404 241 C393 172 328 98 255 98 C172 98 148 160 161 240 L200 485 C201 495 197 500 187 500 L104 500 C93 500 88 495 87 485 L-27 -235 C-28 -245 -24 -250 -15 -250 L68 -250 C78 -250 84 -245 86 -235 L129 38 Z " />
<glyph glyph-name="paragraph" unicode="&#xb6;" horiz-adv-x="600" d="M328 -218 C326 -227 330 -232 341 -232 L402 -232 C411 -232 417 -227 419 -218 L547 591 L614 591 C624 591 630 596 632 606 L641 667 C643 677 639 682 629 682 L266 682 C144 682 32 580 32 453 C32 353 102 278 202 278 L123 -218 C122 -227 127 -232 136 -232 L197 -232 C208 -232 213 -227 214 -218 L342 591 L456 591 L328 -218 L328 -218 Z " />
<glyph glyph-name="periodcentered" unicode="&#xb7;" horiz-adv-x="189" d="M22 327 C22 288 51 260 90 260 C129 260 159 288 159 327 C159 366 129 396 90 396 C51 396 22 366 22 327 L22 327 Z " />
<glyph glyph-name="cedilla" unicode="&#xb8;" horiz-adv-x="178" d="M-54 -163 C-57 -170 -53 -176 -45 -176 L30 -176 C40 -176 46 -172 49 -164 L101 -3 C104 5 102 9 94 9 L32 9 C23 9 18 3 15 -4 L-54 -163 Z " />
<glyph glyph-name="ordmasculine" unicode="&#xba;" horiz-adv-x="560" d="M9 215 C9 83 99 -10 224 -10 C388 -10 522 121 522 284 C522 415 435 510 307 510 C143 510 9 379 9 215 L9 215 Z M120 225 C120 321 197 402 290 402 C367 402 412 344 412 275 C412 178 335 98 242 98 C165 98 120 154 120 225 L120 225 Z " />
<glyph glyph-name="guillemotright" unicode="&#xbb;" horiz-adv-x="489" d="M-14 48 C-21 41 -19 34 -8 34 L73 34 C81 34 89 40 96 48 L238 218 L241 224 C242 228 244 232 241 239 L153 410 C150 418 142 425 134 425 L52 425 C41 425 38 418 42 410 L136 229 L-14 48 Z M214 48 C207 41 209 34 220 34 L300 34 C308 34 316 39 324 48 L466 218 L469 224 C470 228 472 232 469 239 L381 410 C377 418 370 425 361 425 L280 425 C269 425 266 418 270 410 L364 229 L214 48 Z " />
<glyph glyph-name="questiondown" unicode="&#xbf;" horiz-adv-x="406" d="M318 141 C316 147 312 150 308 150 C305 150 302 148 298 145 C259 118 217 102 181 102 C130 102 110 128 110 161 C110 253 272 275 300 454 L305 486 C308 497 306 504 295 504 L213 504 C200 504 197 497 194 486 L189 454 C169 318 -8 276 -8 135 C-8 55 48 -10 155 -10 C223 -10 287 16 343 52 C352 59 355 66 351 73 L318 141 L318 141 Z M339 643 C339 682 310 710 271 710 C232 710 203 682 203 643 C203 604 232 574 271 574 C310 574 339 604 339 643 L339 643 Z " />
<glyph glyph-name="Agrave" unicode="&#xc0;" horiz-adv-x="632" d="M67 0 C78 0 86 5 90 15 L161 161 L415 161 L439 16 C442 3 447 0 459 0 L546 0 C557 0 561 5 559 16 L446 685 C444 695 439 700 430 700 L316 700 C307 700 300 695 296 685 L-30 15 C-35 5 -33 0 -22 0 L67 0 L67 0 Z M205 269 L353 567 L406 269 L205 269 Z M402 774 C411 778 411 786 408 793 L336 945 C333 952 328 955 322 955 C320 955 318 955 316 954 L249 931 C240 928 238 920 243 913 L337 760 C340 755 344 752 349 752 C351 752 354 753 357 754 L402 774 L402 774 Z " />
<glyph glyph-name="Aacute" unicode="&#xc1;" horiz-adv-x="632" d="M67 0 C78 0 86 5 90 15 L161 161 L415 161 L439 16 C442 3 447 0 459 0 L546 0 C557 0 561 5 559 16 L446 685 C444 695 439 700 430 700 L316 700 C307 700 300 695 296 685 L-30 15 C-35 5 -33 0 -22 0 L67 0 L67 0 Z M205 269 L353 567 L406 269 L205 269 Z M389 752 C391 751 394 750 396 750 C401 750 405 753 410 758 L528 912 C533 919 533 927 524 930 L457 954 C455 955 453 955 451 955 C445 955 440 952 436 945 L341 793 C336 784 337 778 344 774 L389 752 L389 752 Z " />
<glyph glyph-name="Acircumflex" unicode="&#xc2;" horiz-adv-x="632" d="M67 0 C78 0 86 5 90 15 L161 161 L415 161 L439 16 C442 3 447 0 459 0 L546 0 C557 0 561 5 559 16 L446 685 C444 695 439 700 430 700 L316 700 C307 700 300 695 296 685 L-30 15 C-35 5 -33 0 -22 0 L67 0 L67 0 Z M205 269 L353 567 L406 269 L205 269 Z M381 941 C369 941 359 934 350 926 L220 804 C212 797 211 790 218 782 L238 751 C241 747 245 745 249 745 C253 745 257 747 261 751 L396 859 L493 752 C497 748 501 746 505 746 C509 746 512 748 516 751 L546 782 C553 789 556 797 551 804 L458 926 C451 934 445 941 432 941 L381 941 L381 941 Z " />
<glyph glyph-name="Atilde" unicode="&#xc3;" horiz-adv-x="632" d="M67 0 C78 0 86 5 90 15 L161 161 L415 161 L439 16 C442 3 447 0 459 0 L546 0 C557 0 561 5 559 16 L446 685 C444 695 439 700 430 700 L316 700 C307 700 300 695 296 685 L-30 15 C-35 5 -33 0 -22 0 L67 0 L67 0 Z M205 269 L353 567 L406 269 L205 269 Z M464 870 C416 870 406 929 338 929 C303 929 257 905 220 874 C209 867 208 862 208 851 L204 798 C204 792 206 788 210 788 C212 788 215 790 219 793 C250 818 287 847 318 847 C365 847 379 788 443 788 C478 788 524 812 563 843 C572 850 573 855 574 866 L577 919 C577 925 575 928 571 928 C569 928 566 927 563 924 C532 899 493 870 464 870 L464 870 Z " />
<glyph glyph-name="Adieresis" unicode="&#xc4;" horiz-adv-x="628" d="M67 0 C78 0 86 5 90 15 L161 161 L415 161 L439 16 C442 3 447 0 459 0 L546 0 C557 0 561 5 559 16 L446 685 C444 695 439 700 430 700 L316 700 C307 700 300 695 296 685 L-30 15 C-35 5 -33 0 -22 0 L67 0 L67 0 Z M205 269 L353 567 L406 269 L205 269 Z M223 838 C223 802 252 773 288 773 C324 773 353 802 353 838 C353 874 324 903 288 903 C252 903 223 874 223 838 L223 838 Z M439 838 C439 802 466 773 503 773 C540 773 569 802 569 838 C569 874 540 903 503 903 C466 903 439 874 439 838 L439 838 Z " />
<glyph glyph-name="Aring" unicode="&#xc5;" horiz-adv-x="632" d="M67 0 C78 0 86 5 90 15 L161 161 L415 161 L439 16 C442 3 447 0 459 0 L546 0 C557 0 561 5 559 16 L446 685 C444 695 439 700 430 700 L316 700 C307 700 300 695 296 685 L-30 15 C-35 5 -33 0 -22 0 L67 0 L67 0 Z M205 269 L353 567 L406 269 L205 269 Z M275 861 C275 795 329 741 394 741 C460 741 513 795 513 861 C513 926 460 980 394 980 C329 980 275 926 275 861 L275 861 Z M346 861 C346 888 367 910 394 910 C421 910 443 888 443 861 C443 834 421 812 394 812 C367 812 346 834 346 861 L346 861 Z " />
<glyph glyph-name="AE" unicode="&#xc6;" horiz-adv-x="864" d="M253 268 L438 557 L439 557 L393 268 L253 268 Z M72 0 C83 0 88 7 93 15 L188 161 L376 161 L353 15 C353 12 351 0 366 0 L745 0 C755 0 761 5 762 15 L776 97 C777 105 774 112 763 112 L490 112 L518 295 L757 295 C767 295 773 300 775 310 L787 389 C788 399 784 404 775 404 L536 404 L565 588 L838 588 C848 588 854 593 855 603 L869 685 C869 693 867 700 856 700 L420 700 C409 700 403 694 398 687 L-29 15 C-35 5 -32 0 -20 0 L72 0 Z " />
<glyph glyph-name="Ccedilla" unicode="&#xc7;" horiz-adv-x="635" d="M216 -163 C213 -170 218 -176 226 -176 L299 -176 C308 -176 315 -172 318 -164 L368 -9 C437 -2 485 14 544 45 C555 50 555 59 551 67 L518 135 C516 140 511 142 507 142 C503 142 499 141 495 139 C452 112 401 101 358 101 C236 101 153 186 153 306 C153 465 291 598 437 598 C488 598 524 585 560 562 C564 560 567 559 570 559 C576 559 581 562 586 567 L639 633 C646 642 645 650 636 655 C589 687 530 710 455 710 C238 710 39 527 39 294 C39 149 130 23 287 -4 L216 -163 L216 -163 Z " />
<glyph glyph-name="Egrave" unicode="&#xc8;" horiz-adv-x="551" d="M142 700 C132 700 126 695 125 685 L18 15 C17 5 21 0 31 0 L429 0 C440 0 446 5 446 15 L460 97 C461 107 457 112 447 112 L148 112 L177 295 L440 295 C450 295 456 300 458 310 L470 389 C471 399 467 404 458 404 L195 404 L223 588 L521 588 C531 588 537 593 539 603 L552 685 C553 693 550 700 539 700 L142 700 L142 700 Z M383 775 C392 779 392 787 389 794 L317 946 C314 953 309 956 303 956 C301 956 299 956 297 955 L230 932 C221 929 219 921 224 914 L318 761 C321 756 325 753 330 753 C332 753 335 754 338 755 L383 775 L383 775 Z " />
<glyph glyph-name="Eacute" unicode="&#xc9;" horiz-adv-x="548" d="M142 700 C132 700 126 695 125 685 L18 15 C17 5 21 0 31 0 L429 0 C440 0 446 5 446 15 L460 97 C461 107 457 112 447 112 L148 112 L177 295 L440 295 C450 295 456 300 458 310 L470 389 C471 399 467 404 458 404 L195 404 L223 588 L521 588 C531 588 537 593 539 603 L552 685 C553 693 550 700 539 700 L142 700 L142 700 Z M350 753 C352 752 355 751 357 751 C362 751 366 754 371 759 L489 913 C494 920 494 928 485 931 L418 955 C416 956 414 956 412 956 C406 956 401 953 397 946 L302 794 C297 785 298 779 305 775 L350 753 L350 753 Z " />
<glyph glyph-name="Ecircumflex" unicode="&#xca;" horiz-adv-x="548" d="M142 700 C132 700 126 695 125 685 L18 15 C17 5 21 0 31 0 L429 0 C440 0 446 5 446 15 L460 97 C461 107 457 112 447 112 L148 112 L177 295 L440 295 C450 295 456 300 458 310 L470 389 C471 399 467 404 458 404 L195 404 L223 588 L521 588 C531 588 537 593 539 603 L552 685 C553 693 550 700 539 700 L142 700 L142 700 Z M349 942 C337 942 327 935 318 927 L188 805 C180 798 179 791 186 783 L206 752 C209 748 213 746 217 746 C221 746 225 748 229 752 L364 860 L461 753 C465 749 469 747 473 747 C477 747 480 749 484 752 L514 783 C521 790 524 798 519 805 L426 927 C419 935 413 942 400 942 L349 942 L349 942 Z " />
<glyph glyph-name="Edieresis" unicode="&#xcb;" horiz-adv-x="557" d="M142 700 C132 700 126 695 125 685 L18 15 C17 5 21 0 31 0 L429 0 C440 0 446 5 446 15 L460 97 C461 107 457 112 447 112 L148 112 L177 295 L440 295 C450 295 456 300 458 310 L470 389 C471 399 467 404 458 404 L195 404 L223 588 L521 588 C531 588 537 593 539 603 L552 685 C553 693 550 700 539 700 L142 700 L142 700 Z M185 838 C185 802 214 773 250 773 C286 773 315 802 315 838 C315 874 286 903 250 903 C214 903 185 874 185 838 L185 838 Z M401 838 C401 802 428 773 465 773 C502 773 531 802 531 838 C531 874 502 903 465 903 C428 903 401 874 401 838 L401 838 Z " />
<glyph glyph-name="Igrave" unicode="&#xcc;" horiz-adv-x="262" d="M118 0 C128 0 134 5 135 15 L242 685 C243 695 238 700 229 700 L144 700 C133 700 128 695 127 685 L20 15 C19 5 23 0 33 0 L118 0 L118 0 Z M223 775 C232 779 232 787 229 794 L157 946 C154 953 149 956 143 956 C141 956 139 956 137 955 L70 932 C61 929 59 921 64 914 L158 761 C161 756 165 753 170 753 C172 753 175 754 178 755 L223 775 L223 775 Z " />
<glyph glyph-name="Iacute" unicode="&#xcd;" horiz-adv-x="264" d="M118 0 C128 0 134 5 135 15 L242 685 C243 695 238 700 229 700 L144 700 C133 700 128 695 127 685 L20 15 C19 5 23 0 33 0 L118 0 L118 0 Z M211 754 C213 753 216 752 218 752 C223 752 227 755 232 760 L350 914 C355 921 355 929 346 932 L279 956 C277 957 275 957 273 957 C267 957 262 954 258 947 L163 795 C158 786 159 780 166 776 L211 754 L211 754 Z " />
<glyph glyph-name="Icircumflex" unicode="&#xce;" horiz-adv-x="261" d="M122 0 C132 0 138 5 139 15 L246 685 C247 695 242 700 233 700 L148 700 C137 700 132 695 131 685 L24 15 C23 5 27 0 37 0 L122 0 L122 0 Z M203 942 C191 942 181 935 172 927 L42 805 C34 798 33 791 40 783 L60 752 C63 748 67 746 71 746 C75 746 79 748 83 752 L218 860 L315 753 C319 749 323 747 327 747 C331 747 334 749 338 752 L368 783 C375 790 378 798 373 805 L280 927 C273 935 267 942 254 942 L203 942 L203 942 Z " />
<glyph glyph-name="Idieresis" unicode="&#xcf;" horiz-adv-x="260" d="M118 0 C128 0 134 5 135 15 L242 685 C243 695 238 700 229 700 L144 700 C133 700 128 695 127 685 L20 15 C19 5 23 0 33 0 L118 0 L118 0 Z M30 838 C30 802 59 773 95 773 C131 773 160 802 160 838 C160 874 131 903 95 903 C59 903 30 874 30 838 L30 838 Z M246 838 C246 802 273 773 310 773 C347 773 376 802 376 838 C376 874 347 903 310 903 C273 903 246 874 246 838 L246 838 Z " />
<glyph glyph-name="Eth" unicode="&#xd0;" horiz-adv-x="710" d="M14 15 C13 5 17 0 27 0 L270 0 C497 0 678 171 678 406 C678 585 568 700 376 700 L138 700 C127 700 122 695 121 685 L75 395 L21 395 C12 395 7 390 4 379 L-4 323 C-6 313 -2 308 7 308 L61 308 L14 15 Z M220 588 L359 588 C492 588 564 514 564 393 C564 235 443 112 284 112 L145 112 L175 308 L272 308 C283 308 289 313 290 323 L299 380 C301 390 297 395 286 395 L189 395 L220 588 Z " />
<glyph glyph-name="Ntilde" unicode="&#xd1;" horiz-adv-x="724" d="M583 0 C593 0 599 5 600 15 L707 685 C708 695 703 700 694 700 L609 700 C598 700 593 695 592 685 L514 193 L251 685 C244 694 240 700 227 700 L142 700 C131 700 126 695 125 685 L18 15 C17 5 21 0 31 0 L115 0 C125 0 131 5 132 15 L211 507 L474 15 C479 4 484 0 497 0 L583 0 Z M504 870 C456 870 446 929 378 929 C343 929 297 905 260 874 C249 867 248 862 248 851 L244 798 C244 792 246 788 250 788 C252 788 255 790 259 793 C290 818 327 847 358 847 C405 847 419 788 483 788 C518 788 564 812 603 843 C612 850 613 855 614 866 L617 919 C617 925 615 928 611 928 C609 928 606 927 603 924 C572 899 533 870 504 870 L504 870 Z " />
<glyph glyph-name="Ograve" unicode="&#xd2;" horiz-adv-x="780" d="M446 710 C229 710 30 527 30 294 C30 114 165 -10 331 -10 C548 -10 748 171 748 406 C748 586 611 710 446 710 L446 710 Z M349 101 C227 101 144 186 144 306 C144 465 283 598 428 598 C552 598 633 513 633 393 C633 236 495 101 349 101 L349 101 Z M484 775 C493 779 493 787 490 794 L418 946 C415 953 410 956 404 956 C402 956 400 956 398 955 L331 932 C322 929 320 921 325 914 L419 761 C422 756 426 753 431 753 C433 753 436 754 439 755 L484 775 L484 775 Z " />
<glyph glyph-name="Oacute" unicode="&#xd3;" horiz-adv-x="780" d="M446 710 C229 710 30 527 30 294 C30 114 165 -10 331 -10 C548 -10 748 171 748 406 C748 586 611 710 446 710 L446 710 Z M349 101 C227 101 144 186 144 306 C144 465 283 598 428 598 C552 598 633 513 633 393 C633 236 495 101 349 101 L349 101 Z M459 753 C461 752 464 751 466 751 C471 751 475 754 480 759 L598 913 C603 920 603 928 594 931 L527 955 C525 956 523 956 521 956 C515 956 510 953 506 946 L411 794 C406 785 407 779 414 775 L459 753 L459 753 Z " />
<glyph glyph-name="Ocircumflex" unicode="&#xd4;" horiz-adv-x="780" d="M446 710 C229 710 30 527 30 294 C30 114 165 -10 331 -10 C548 -10 748 171 748 406 C748 586 611 710 446 710 L446 710 Z M349 101 C227 101 144 186 144 306 C144 465 283 598 428 598 C552 598 633 513 633 393 C633 236 495 101 349 101 L349 101 Z M453 942 C441 942 431 935 422 927 L292 805 C284 798 283 791 290 783 L310 752 C313 748 317 746 321 746 C325 746 329 748 333 752 L468 860 L565 753 C569 749 573 747 577 747 C581 747 584 749 588 752 L618 783 C625 790 628 798 623 805 L530 927 C523 935 517 942 504 942 L453 942 L453 942 Z " />
<glyph glyph-name="Otilde" unicode="&#xd5;" horiz-adv-x="780" d="M446 710 C229 710 30 527 30 294 C30 114 165 -10 331 -10 C548 -10 748 171 748 406 C748 586 611 710 446 710 L446 710 Z M349 101 C227 101 144 186 144 306 C144 465 283 598 428 598 C552 598 633 513 633 393 C633 236 495 101 349 101 L349 101 Z M543 870 C495 870 485 929 417 929 C382 929 336 905 299 874 C288 867 287 862 287 851 L283 798 C283 792 285 788 289 788 C291 788 294 790 298 793 C329 818 366 847 397 847 C444 847 458 788 522 788 C557 788 603 812 642 843 C651 850 652 855 653 866 L656 919 C656 925 654 928 650 928 C648 928 645 927 642 924 C611 899 572 870 543 870 L543 870 Z " />
<glyph glyph-name="Odieresis" unicode="&#xd6;" horiz-adv-x="780" d="M446 710 C229 710 30 527 30 294 C30 114 165 -10 331 -10 C548 -10 748 171 748 406 C748 586 611 710 446 710 L446 710 Z M349 101 C227 101 144 186 144 306 C144 465 283 598 428 598 C552 598 633 513 633 393 C633 236 495 101 349 101 L349 101 Z M295 838 C295 802 324 773 360 773 C396 773 425 802 425 838 C425 874 396 903 360 903 C324 903 295 874 295 838 L295 838 Z M511 838 C511 802 538 773 575 773 C612 773 641 802 641 838 C641 874 612 903 575 903 C538 903 511 874 511 838 L511 838 Z " />
<glyph glyph-name="multiply" unicode="&#xd7;" horiz-adv-x="439" d="M395 403 C402 410 402 417 395 424 L346 473 C343 477 340 478 336 478 C333 478 330 477 326 473 L212 360 L100 472 C97 476 93 477 89 477 C85 477 82 476 78 472 L30 424 C23 417 23 410 30 403 L142 290 L28 175 C21 168 21 161 28 155 L77 106 C81 103 84 101 88 101 C91 101 95 103 98 106 L212 220 L327 106 C331 103 334 101 338 101 C341 101 345 103 348 106 L396 155 C403 162 403 168 396 175 L282 290 L395 403 Z " />
<glyph glyph-name="Oslash" unicode="&#xd8;" horiz-adv-x="780" d="M206 155 C162 196 144 250 144 306 C144 465 283 598 428 598 C469 598 506 589 538 570 L206 155 Z M720 726 C726 733 723 737 710 737 L684 737 C677 737 670 733 665 726 L613 662 C566 693 510 710 446 710 C229 710 30 527 30 294 C30 206 60 126 131 63 L65 -20 C58 -27 65 -30 73 -30 L103 -30 C108 -30 114 -27 120 -20 L165 37 C208 10 266 -10 331 -10 C565 -10 748 186 748 406 C748 486 721 569 648 636 L720 726 L720 726 Z M573 543 C617 500 633 445 633 393 C633 236 495 101 349 101 C310 101 269 111 240 130 L573 543 Z " />
<glyph glyph-name="Ugrave" unicode="&#xd9;" horiz-adv-x="661" d="M125 700 C115 700 109 695 107 685 L42 269 C18 120 95 -10 279 -10 C447 -10 565 112 589 269 L654 685 C656 695 652 700 642 700 L558 700 C548 700 542 695 540 685 L477 289 C458 173 396 101 289 101 C184 101 140 173 159 289 L222 685 C224 695 220 700 210 700 L125 700 L125 700 Z M431 775 C440 779 440 787 437 794 L365 946 C362 953 357 956 351 956 C349 956 347 956 345 955 L278 932 C269 929 267 921 272 914 L366 761 C369 756 373 753 378 753 C380 753 383 754 386 755 L431 775 L431 775 Z " />
<glyph glyph-name="Uacute" unicode="&#xda;" horiz-adv-x="661" d="M125 700 C115 700 109 695 107 685 L42 269 C18 120 95 -10 279 -10 C447 -10 565 112 589 269 L654 685 C656 695 652 700 642 700 L558 700 C548 700 542 695 540 685 L477 289 C458 173 396 101 289 101 C184 101 140 173 159 289 L222 685 C224 695 220 700 210 700 L125 700 L125 700 Z M390 753 C392 752 395 751 397 751 C402 751 406 754 411 759 L529 913 C534 920 534 928 525 931 L458 955 C456 956 454 956 452 956 C446 956 441 953 437 946 L342 794 C337 785 338 779 345 775 L390 753 L390 753 Z " />
<glyph glyph-name="Ucircumflex" unicode="&#xdb;" horiz-adv-x="661" d="M125 700 C115 700 109 695 107 685 L42 269 C18 120 95 -10 279 -10 C447 -10 565 112 589 269 L654 685 C656 695 652 700 642 700 L558 700 C548 700 542 695 540 685 L477 289 C458 173 396 101 289 101 C184 101 140 173 159 289 L222 685 C224 695 220 700 210 700 L125 700 L125 700 Z M394 942 C382 942 372 935 363 927 L233 805 C225 798 224 791 231 783 L251 752 C254 748 258 746 262 746 C266 746 270 748 274 752 L409 860 L506 753 C510 749 514 747 518 747 C522 747 525 749 529 752 L559 783 C566 790 569 798 564 805 L471 927 C464 935 458 942 445 942 L394 942 L394 942 Z " />
<glyph glyph-name="Udieresis" unicode="&#xdc;" horiz-adv-x="661" d="M125 700 C115 700 109 695 107 685 L42 269 C18 120 95 -10 279 -10 C447 -10 565 112 589 269 L654 685 C656 695 652 700 642 700 L558 700 C548 700 542 695 540 685 L477 289 C458 173 396 101 289 101 C184 101 140 173 159 289 L222 685 C224 695 220 700 210 700 L125 700 L125 700 Z M227 838 C227 802 256 773 292 773 C328 773 357 802 357 838 C357 874 328 903 292 903 C256 903 227 874 227 838 L227 838 Z M443 838 C443 802 470 773 507 773 C544 773 573 802 573 838 C573 874 544 903 507 903 C470 903 443 874 443 838 L443 838 Z " />
<glyph glyph-name="Yacute" unicode="&#xdd;" horiz-adv-x="564" d="M176 691 C173 697 167 700 160 700 L63 700 C52 700 50 693 55 685 L221 341 L169 15 C168 5 172 0 182 0 L266 0 C276 0 282 5 283 15 L335 341 L610 685 C615 692 616 700 605 700 L504 700 C497 700 491 697 486 691 L290 446 L176 691 L176 691 Z M350 752 C352 751 355 750 357 750 C362 750 366 753 371 758 L489 912 C494 919 494 927 485 930 L418 954 C416 955 414 955 412 955 C406 955 401 952 397 945 L302 793 C297 784 298 778 305 774 L350 752 L350 752 Z " />
<glyph glyph-name="Thorn" unicode="&#xde;" horiz-adv-x="545" d="M205 497 L306 497 C386 497 430 454 430 387 C430 297 359 243 272 243 L166 243 L205 497 Z M16 15 C14 5 18 0 27 0 L112 0 C122 0 128 5 129 15 L149 139 L281 139 C421 139 545 244 545 394 C545 522 455 602 335 602 L222 602 L243 735 C245 745 241 750 231 750 L146 750 C136 750 130 745 129 735 L16 15 L16 15 Z " />
<glyph glyph-name="germandbls" unicode="&#xdf;" horiz-adv-x="567" d="M175 0 C192 -2 208 -2 224 -2 C404 -2 519 95 519 248 C519 336 475 387 400 410 C476 440 525 517 525 585 C525 685 455 749 347 749 C210 749 120 669 97 530 L16 12 C15 4 18 0 26 0 L117 0 C125 0 130 4 131 12 L213 530 C224 586 261 638 324 638 C385 638 408 605 408 562 C408 499 345 460 269 460 C261 460 256 456 254 448 L241 360 C238 352 242 345 250 345 C334 345 405 320 405 243 C405 158 332 114 230 114 C219 114 207 115 195 116 C185 116 182 112 180 103 C180 100 176 79 173 58 C170 46 168 32 166 16 C165 7 168 1 175 0 L175 0 Z " />
<glyph glyph-name="agrave" unicode="&#xe0;" horiz-adv-x="603" d="M120 225 C120 321 197 402 290 402 C371 402 423 337 412 256 C401 167 327 98 243 98 C166 98 120 153 120 225 L120 225 Z M468 0 C477 0 483 5 485 15 L560 485 C561 495 556 500 547 500 L464 500 C453 500 448 495 447 485 C441 463 438 438 435 415 C407 471 355 510 279 510 C123 510 7 372 7 215 C7 92 75 -10 199 -10 C278 -10 342 32 383 84 L372 15 C370 5 374 0 385 0 L468 0 L468 0 Z M360 572 C369 576 369 584 366 591 L294 743 C291 750 286 753 280 753 C278 753 276 753 274 752 L207 729 C198 726 196 718 201 711 L295 558 C298 553 302 550 307 550 C309 550 312 551 315 552 L360 572 L360 572 Z " />
<glyph glyph-name="aacute" unicode="&#xe1;" horiz-adv-x="603" d="M120 225 C120 321 197 402 290 402 C371 402 423 337 412 256 C401 167 327 98 243 98 C166 98 120 153 120 225 L120 225 Z M468 0 C477 0 483 5 485 15 L560 485 C561 495 556 500 547 500 L464 500 C453 500 448 495 447 485 C441 463 438 438 435 415 C407 471 355 510 279 510 C123 510 7 372 7 215 C7 92 75 -10 199 -10 C278 -10 342 32 383 84 L372 15 C370 5 374 0 385 0 L468 0 L468 0 Z M308 550 C310 549 313 548 315 548 C320 548 324 551 329 556 L447 710 C452 717 452 725 443 728 L376 752 C374 753 372 753 370 753 C364 753 359 750 355 743 L260 591 C255 582 256 576 263 572 L308 550 L308 550 Z " />
<glyph glyph-name="acircumflex" unicode="&#xe2;" horiz-adv-x="603" d="M120 225 C120 321 197 402 290 402 C371 402 423 337 412 256 C401 167 327 98 243 98 C166 98 120 153 120 225 L120 225 Z M468 0 C477 0 483 5 485 15 L560 485 C561 495 556 500 547 500 L464 500 C453 500 448 495 447 485 C441 463 438 438 435 415 C407 471 355 510 279 510 C123 510 7 372 7 215 C7 92 75 -10 199 -10 C278 -10 342 32 383 84 L372 15 C370 5 374 0 385 0 L468 0 L468 0 Z M324 746 C312 746 302 739 293 731 L163 609 C155 602 154 595 161 587 L181 556 C184 552 188 550 192 550 C196 550 200 552 204 556 L339 664 L436 557 C440 553 444 551 448 551 C452 551 455 553 459 556 L489 587 C496 594 499 602 494 609 L401 731 C394 739 388 746 375 746 L324 746 L324 746 Z " />
<glyph glyph-name="atilde" unicode="&#xe3;" horiz-adv-x="604" d="M121 225 C121 321 198 402 291 402 C372 402 424 337 413 256 C402 167 328 98 244 98 C167 98 121 153 121 225 L121 225 Z M469 0 C478 0 484 5 486 15 L561 485 C562 495 557 500 548 500 L465 500 C454 500 449 495 448 485 C442 463 439 438 436 415 C408 471 356 510 280 510 C124 510 8 372 8 215 C8 92 76 -10 200 -10 C279 -10 343 32 384 84 L373 15 C371 5 375 0 386 0 L469 0 L469 0 Z M413 678 C365 678 355 737 287 737 C252 737 206 713 169 682 C158 675 157 670 157 659 L153 606 C153 600 155 596 159 596 C161 596 164 598 168 601 C199 626 236 655 267 655 C314 655 328 596 392 596 C427 596 473 620 512 651 C521 658 522 663 523 674 L526 727 C526 733 524 736 520 736 C518 736 515 735 512 732 C481 707 442 678 413 678 L413 678 Z " />
<glyph glyph-name="adieresis" unicode="&#xe4;" horiz-adv-x="604" d="M121 225 C121 321 198 402 291 402 C372 402 424 337 413 256 C402 167 328 98 244 98 C167 98 121 153 121 225 L121 225 Z M469 0 C478 0 484 5 486 15 L561 485 C562 495 557 500 548 500 L465 500 C454 500 449 495 448 485 C442 463 439 438 436 415 C408 471 356 510 280 510 C124 510 8 372 8 215 C8 92 76 -10 200 -10 C279 -10 343 32 384 84 L373 15 C371 5 375 0 386 0 L469 0 L469 0 Z M164 644 C164 608 193 579 229 579 C265 579 294 608 294 644 C294 680 265 709 229 709 C193 709 164 680 164 644 L164 644 Z M380 644 C380 608 407 579 444 579 C481 579 510 608 510 644 C510 680 481 709 444 709 C407 709 380 680 380 644 L380 644 Z " />
<glyph glyph-name="aring" unicode="&#xe5;" horiz-adv-x="604" d="M121 225 C121 321 198 402 291 402 C372 402 424 337 413 256 C402 167 328 98 244 98 C167 98 121 153 121 225 L121 225 Z M469 0 C478 0 484 5 486 15 L561 485 C562 495 557 500 548 500 L465 500 C454 500 449 495 448 485 C442 463 439 438 436 415 C408 471 356 510 280 510 C124 510 8 372 8 215 C8 92 76 -10 200 -10 C279 -10 343 32 384 84 L373 15 C371 5 375 0 386 0 L469 0 L469 0 Z M219 670 C219 604 273 550 338 550 C404 550 457 604 457 670 C457 735 404 789 338 789 C273 789 219 735 219 670 L219 670 Z M290 670 C290 697 311 719 338 719 C365 719 387 697 387 670 C387 643 365 621 338 621 C311 621 290 643 290 670 L290 670 Z " />
<glyph glyph-name="ae" unicode="&#xe6;" horiz-adv-x="915" d="M499 294 C518 363 578 421 655 421 C728 421 768 374 771 294 L499 294 Z M405 119 C429 51 499 -10 598 -10 C665 -10 724 4 792 41 C799 44 805 52 800 61 L771 114 C769 118 765 121 760 121 C757 121 754 120 750 118 C702 94 665 86 616 86 C543 86 487 131 486 211 L851 211 C864 211 871 218 872 229 C891 392 819 510 670 510 C571 510 492 463 444 391 C417 467 368 509 272 509 C204 509 151 497 87 470 C78 466 74 459 76 449 L89 399 C90 392 94 388 100 388 C102 388 105 389 108 390 C160 410 203 421 250 421 C333 421 372 357 372 288 C331 317 277 329 225 329 C108 329 5 261 5 145 C5 57 60 -8 175 -8 C282 -8 362 52 405 119 L405 119 Z M361 216 C338 143 284 87 201 87 C144 87 110 111 110 162 C110 222 170 258 236 258 C288 258 325 247 361 216 L361 216 Z " />
<glyph glyph-name="ccedilla" unicode="&#xe7;" horiz-adv-x="463" d="M109 -163 C106 -170 110 -176 118 -176 L191 -176 C200 -176 207 -172 210 -164 L261 -7 C306 0 344 13 377 34 C387 39 390 46 385 55 L350 119 C348 123 345 125 341 125 C338 125 335 124 331 122 C303 107 272 98 239 98 C162 98 118 154 118 225 C118 317 196 402 288 402 C305 402 336 399 368 376 C371 374 374 373 378 373 C382 373 386 375 390 379 L445 442 C452 451 452 458 444 464 C413 487 368 510 305 510 C141 510 7 379 7 215 C7 116 58 19 178 -5 L109 -163 Z " />
<glyph glyph-name="egrave" unicode="&#xe8;" horiz-adv-x="539" d="M346 572 C355 576 355 584 352 591 L280 743 C277 750 272 753 266 753 C264 753 262 753 260 752 L193 729 C184 726 182 718 187 711 L281 558 C284 553 288 550 293 550 C295 550 298 551 301 552 L346 572 L346 572 Z M242 86 C158 86 110 139 111 211 L477 211 C489 211 496 218 497 229 C516 392 444 510 295 510 C143 510 8 383 8 215 C8 83 98 -10 223 -10 C299 -10 363 10 418 41 C427 46 429 52 426 61 L397 114 C395 118 391 121 386 121 C383 121 380 120 376 118 C333 97 293 86 242 86 L242 86 Z M125 294 C144 363 204 421 281 421 C354 421 394 375 397 294 L125 294 Z " />
<glyph glyph-name="eacute" unicode="&#xe9;" horiz-adv-x="539" d="M242 86 C158 86 110 139 111 211 L477 211 C489 211 496 218 497 229 C516 392 444 510 295 510 C143 510 8 383 8 215 C8 83 98 -10 223 -10 C299 -10 363 10 418 41 C427 46 429 52 426 61 L397 114 C395 118 391 121 386 121 C383 121 380 120 376 118 C333 97 293 86 242 86 L242 86 Z M125 294 C144 363 204 421 281 421 C354 421 394 375 397 294 L125 294 Z M315 550 C317 549 320 548 322 548 C327 548 331 551 336 556 L454 710 C459 717 459 725 450 728 L383 752 C381 753 379 753 377 753 C371 753 366 750 362 743 L267 591 C262 582 263 576 270 572 L315 550 L315 550 Z " />
<glyph glyph-name="ecircumflex" unicode="&#xea;" horiz-adv-x="537" d="M312 746 C300 746 290 739 281 731 L151 609 C143 602 142 595 149 587 L169 556 C172 552 176 550 180 550 C184 550 188 552 192 556 L327 664 L424 557 C428 553 432 551 436 551 C440 551 443 553 447 556 L477 587 C484 594 487 602 482 609 L389 731 C382 739 376 746 363 746 L312 746 L312 746 Z M242 86 C158 86 110 139 111 211 L477 211 C489 211 496 218 497 229 C516 392 444 510 295 510 C143 510 8 383 8 215 C8 83 98 -10 223 -10 C299 -10 363 10 418 41 C427 46 429 52 426 61 L397 114 C395 118 391 121 386 121 C383 121 380 120 376 118 C333 97 293 86 242 86 L242 86 Z M125 294 C144 363 204 421 281 421 C354 421 394 375 397 294 L125 294 Z " />
<glyph glyph-name="edieresis" unicode="&#xeb;" horiz-adv-x="532" d="M147 643 C147 607 176 578 212 578 C248 578 277 607 277 643 C277 679 248 708 212 708 C176 708 147 679 147 643 L147 643 Z M363 643 C363 607 390 578 427 578 C464 578 493 607 493 643 C493 679 464 708 427 708 C390 708 363 679 363 643 L363 643 Z M242 86 C158 86 110 139 111 211 L477 211 C489 211 496 218 497 229 C516 392 444 510 295 510 C143 510 8 383 8 215 C8 83 98 -10 223 -10 C299 -10 363 10 418 41 C427 46 429 52 426 61 L397 114 C395 118 391 121 386 121 C383 121 380 120 376 118 C333 97 293 86 242 86 L242 86 Z M125 294 C144 363 204 421 281 421 C354 421 394 375 397 294 L125 294 Z " />
<glyph glyph-name="igrave" unicode="&#xec;" horiz-adv-x="255" d="M108 0 C117 0 123 5 125 15 L200 485 C201 495 197 500 187 500 L104 500 C93 500 88 495 87 485 L12 15 C10 5 14 0 25 0 L108 0 L108 0 Z M176 572 C185 576 185 584 182 591 L110 743 C107 750 102 753 96 753 C94 753 92 753 90 752 L23 729 C14 726 12 718 17 711 L111 558 C114 553 118 550 123 550 C125 550 128 551 131 552 L176 572 L176 572 Z " />
<glyph glyph-name="iacute" unicode="&#xed;" horiz-adv-x="259" d="M112 0 C121 0 127 5 129 15 L204 485 C205 495 201 500 191 500 L108 500 C97 500 92 495 91 485 L16 15 C14 5 18 0 29 0 L112 0 L112 0 Z M174 550 C176 549 179 548 181 548 C186 548 190 551 195 556 L313 710 C318 717 318 725 309 728 L242 752 C240 753 238 753 236 753 C230 753 225 750 221 743 L126 591 C121 582 122 576 129 572 L174 550 L174 550 Z " />
<glyph glyph-name="icircumflex" unicode="&#xee;" horiz-adv-x="254" d="M158 746 C146 746 136 739 127 731 L-3 609 C-11 602 -12 595 -5 587 L15 556 C18 552 22 550 26 550 C30 550 34 552 38 556 L173 664 L270 557 C274 553 278 551 282 551 C286 551 289 553 293 556 L323 587 C330 594 333 602 328 609 L235 731 C228 739 222 746 209 746 L158 746 L158 746 Z M109 0 C118 0 124 5 126 15 L201 485 C202 495 198 500 188 500 L105 500 C94 500 89 495 88 485 L13 15 C11 5 15 0 26 0 L109 0 L109 0 Z " />
<glyph glyph-name="idieresis" unicode="&#xef;" horiz-adv-x="262" d="M2 643 C2 607 31 578 67 578 C103 578 132 607 132 643 C132 679 103 708 67 708 C31 708 2 679 2 643 L2 643 Z M218 643 C218 607 245 578 282 578 C319 578 348 607 348 643 C348 679 319 708 282 708 C245 708 218 679 218 643 L218 643 Z M115 0 C124 0 130 5 132 15 L207 485 C208 495 204 500 194 500 L111 500 C100 500 95 495 94 485 L19 15 C17 5 21 0 32 0 L115 0 L115 0 Z " />
<glyph glyph-name="eth" unicode="&#xf0;" horiz-adv-x="568" d="M349 491 C331 499 306 503 281 503 C126 503 7 367 7 215 C7 82 97 -11 222 -11 C389 -11 520 123 520 284 C520 311 518 334 511 361 L437 594 L583 620 C593 622 598 628 598 638 L596 679 C596 690 592 692 582 692 L415 662 L390 739 C387 746 381 750 371 750 L281 750 C270 750 266 745 268 736 L299 641 L156 615 C147 614 142 608 142 597 L143 556 C143 544 148 544 158 544 L322 573 L349 491 Z M406 311 C409 300 410 285 409 268 C406 176 332 98 240 98 C163 98 118 154 118 225 C118 321 195 402 288 402 C349 402 395 367 406 311 L406 311 Z " />
<glyph glyph-name="ntilde" unicode="&#xf1;" horiz-adv-x="598" d="M467 0 C477 0 483 5 485 15 L527 280 C548 417 497 510 372 510 C292 510 227 459 192 414 C191 415 204 483 203 485 C205 495 201 500 190 500 L107 500 C98 500 92 495 90 485 L16 15 C14 5 18 0 28 0 L111 0 C121 0 127 5 129 15 L168 259 C179 327 244 402 317 402 C397 402 424 343 411 259 L372 15 C370 5 374 0 384 0 L467 0 L467 0 Z M419 678 C371 678 361 737 293 737 C258 737 212 713 175 682 C164 675 163 670 163 659 L159 606 C159 600 161 596 165 596 C167 596 170 598 174 601 C205 626 242 655 273 655 C320 655 334 596 398 596 C433 596 479 620 518 651 C527 658 528 663 529 674 L532 727 C532 733 530 736 526 736 C524 736 521 735 518 732 C487 707 448 678 419 678 L419 678 Z " />
<glyph glyph-name="ograve" unicode="&#xf2;" horiz-adv-x="557" d="M6 215 C6 83 96 -10 221 -10 C385 -10 519 121 519 284 C519 415 432 510 304 510 C140 510 6 379 6 215 L6 215 Z M117 225 C117 321 194 402 287 402 C364 402 409 344 409 275 C409 178 332 98 239 98 C162 98 117 154 117 225 L117 225 Z M347 572 C356 576 356 584 353 591 L281 743 C278 750 273 753 267 753 C265 753 263 753 261 752 L194 729 C185 726 183 718 188 711 L282 558 C285 553 289 550 294 550 C296 550 299 551 302 552 L347 572 L347 572 Z " />
<glyph glyph-name="oacute" unicode="&#xf3;" horiz-adv-x="557" d="M6 215 C6 83 96 -10 221 -10 C385 -10 519 121 519 284 C519 415 432 510 304 510 C140 510 6 379 6 215 L6 215 Z M117 225 C117 321 194 402 287 402 C364 402 409 344 409 275 C409 178 332 98 239 98 C162 98 117 154 117 225 L117 225 Z M322 550 C324 549 327 548 329 548 C334 548 338 551 343 556 L461 710 C466 717 466 725 457 728 L390 752 C388 753 386 753 384 753 C378 753 373 750 369 743 L274 591 C269 582 270 576 277 572 L322 550 L322 550 Z " />
<glyph glyph-name="ocircumflex" unicode="&#xf4;" horiz-adv-x="557" d="M6 215 C6 83 96 -10 221 -10 C385 -10 519 121 519 284 C519 415 432 510 304 510 C140 510 6 379 6 215 L6 215 Z M117 225 C117 321 194 402 287 402 C364 402 409 344 409 275 C409 178 332 98 239 98 C162 98 117 154 117 225 L117 225 Z M318 746 C306 746 296 739 287 731 L157 609 C149 602 148 595 155 587 L175 556 C178 552 182 550 186 550 C190 550 194 552 198 556 L333 664 L430 557 C434 553 438 551 442 551 C446 551 449 553 453 556 L483 587 C490 594 493 602 488 609 L395 731 C388 739 382 746 369 746 L318 746 L318 746 Z " />
<glyph glyph-name="otilde" unicode="&#xf5;" horiz-adv-x="557" d="M6 215 C6 83 96 -10 221 -10 C385 -10 519 121 519 284 C519 415 432 510 304 510 C140 510 6 379 6 215 L6 215 Z M117 225 C117 321 194 402 287 402 C364 402 409 344 409 275 C409 178 332 98 239 98 C162 98 117 154 117 225 L117 225 Z M405 678 C357 678 347 737 279 737 C244 737 198 713 161 682 C150 675 149 670 149 659 L145 606 C145 600 147 596 151 596 C153 596 156 598 160 601 C191 626 228 655 259 655 C306 655 320 596 384 596 C419 596 465 620 504 651 C513 658 514 663 515 674 L518 727 C518 733 516 736 512 736 C510 736 507 735 504 732 C473 707 434 678 405 678 L405 678 Z " />
<glyph glyph-name="odieresis" unicode="&#xf6;" horiz-adv-x="556" d="M6 215 C6 83 96 -10 221 -10 C385 -10 519 121 519 284 C519 415 432 510 304 510 C140 510 6 379 6 215 L6 215 Z M117 225 C117 321 194 402 287 402 C364 402 409 344 409 275 C409 178 332 98 239 98 C162 98 117 154 117 225 L117 225 Z M156 643 C156 607 185 578 221 578 C257 578 286 607 286 643 C286 679 257 708 221 708 C185 708 156 679 156 643 L156 643 Z M372 643 C372 607 399 578 436 578 C473 578 502 607 502 643 C502 679 473 708 436 708 C399 708 372 679 372 643 L372 643 Z " />
<glyph glyph-name="divide" unicode="&#xf7;" horiz-adv-x="480" d="M35 344 C25 344 19 339 17 329 L8 268 C6 258 10 253 20 253 L427 253 C437 253 443 258 445 268 L454 329 C456 339 452 344 442 344 L35 344 L35 344 Z M196 478 C196 443 223 415 258 415 C294 415 322 443 322 478 C322 514 294 542 258 542 C223 542 196 514 196 478 L196 478 Z M139 119 C139 84 166 56 201 56 C237 56 265 84 265 119 C265 155 237 183 201 183 C166 183 139 155 139 119 L139 119 Z " />
<glyph glyph-name="oslash" unicode="&#xf8;" horiz-adv-x="566" d="M521 523 C526 531 522 535 511 535 L485 535 C478 535 471 531 465 523 L428 478 C393 501 352 510 312 510 C149 510 15 379 15 215 C15 156 31 97 82 46 L21 -27 C14 -35 21 -39 29 -39 L59 -39 C65 -39 71 -35 76 -27 L116 20 C149 0 189 -10 230 -10 C398 -10 528 128 528 284 C528 343 512 401 463 452 L521 523 L521 523 Z M386 357 C409 332 417 304 417 275 C417 178 340 98 247 98 C226 98 207 103 190 113 L386 357 Z M156 139 C133 163 125 193 125 225 C125 321 202 402 295 402 C318 402 341 395 354 386 L156 139 Z " />
<glyph glyph-name="ugrave" unicode="&#xf9;" horiz-adv-x="585" d="M87 500 C77 500 71 495 70 485 L28 219 C7 82 58 -10 183 -10 C264 -10 326 40 363 88 C364 87 351 16 351 15 C350 5 354 0 364 0 L447 0 C457 0 463 5 464 15 L539 485 C540 495 536 500 526 500 L443 500 C433 500 427 495 426 485 L387 241 C376 172 311 98 238 98 C157 98 131 157 144 240 L183 485 C184 495 180 500 170 500 L87 500 L87 500 Z M347 572 C356 576 356 584 353 591 L281 743 C278 750 273 753 267 753 C265 753 263 753 261 752 L194 729 C185 726 183 718 188 711 L282 558 C285 553 289 550 294 550 C296 550 299 551 302 552 L347 572 L347 572 Z " />
<glyph glyph-name="uacute" unicode="&#xfa;" horiz-adv-x="585" d="M87 500 C77 500 71 495 70 485 L28 219 C7 82 58 -10 183 -10 C264 -10 326 40 363 88 C364 87 351 16 351 15 C350 5 354 0 364 0 L447 0 C457 0 463 5 464 15 L539 485 C540 495 536 500 526 500 L443 500 C433 500 427 495 426 485 L387 241 C376 172 311 98 238 98 C157 98 131 157 144 240 L183 485 C184 495 180 500 170 500 L87 500 L87 500 Z M320 550 C322 549 325 548 327 548 C332 548 336 551 341 556 L459 710 C464 717 464 725 455 728 L388 752 C386 753 384 753 382 753 C376 753 371 750 367 743 L272 591 C267 582 268 576 275 572 L320 550 L320 550 Z " />
<glyph glyph-name="ucircumflex" unicode="&#xfb;" horiz-adv-x="585" d="M87 500 C77 500 71 495 70 485 L28 219 C7 82 58 -10 183 -10 C264 -10 326 40 363 88 C364 87 351 16 351 15 C350 5 354 0 364 0 L447 0 C457 0 463 5 464 15 L539 485 C540 495 536 500 526 500 L443 500 C433 500 427 495 426 485 L387 241 C376 172 311 98 238 98 C157 98 131 157 144 240 L183 485 C184 495 180 500 170 500 L87 500 L87 500 Z M322 746 C310 746 300 739 291 731 L161 609 C153 602 152 595 159 587 L179 556 C182 552 186 550 190 550 C194 550 198 552 202 556 L337 664 L434 557 C438 553 442 551 446 551 C450 551 453 553 457 556 L487 587 C494 594 497 602 492 609 L399 731 C392 739 386 746 373 746 L322 746 L322 746 Z " />
<glyph glyph-name="udieresis" unicode="&#xfc;" horiz-adv-x="585" d="M87 494 C77 494 71 489 70 479 L28 213 C7 76 58 -16 183 -16 C264 -16 326 34 363 82 C364 81 351 10 351 9 C350 -1 354 -6 364 -6 L447 -6 C457 -6 463 -1 464 9 L539 479 C540 489 536 494 526 494 L443 494 C433 494 427 489 426 479 L387 235 C376 166 311 92 238 92 C157 92 131 151 144 234 L183 479 C184 489 180 494 170 494 L87 494 L87 494 Z M153 643 C153 607 182 578 218 578 C254 578 283 607 283 643 C283 679 254 708 218 708 C182 708 153 679 153 643 L153 643 Z M369 643 C369 607 396 578 433 578 C470 578 499 607 499 643 C499 679 470 708 433 708 C396 708 369 679 369 643 L369 643 Z " />
<glyph glyph-name="yacute" unicode="&#xfd;" horiz-adv-x="589" d="M543 485 C544 495 540 500 530 500 L447 500 C437 500 431 495 430 485 L391 244 C380 182 317 108 243 108 C163 108 136 166 149 250 L187 485 C188 495 184 500 174 500 L91 500 C81 500 75 495 74 485 L33 229 C12 92 61 0 188 0 C265 0 339 48 368 93 L354 10 C341 -73 285 -147 181 -147 C125 -147 82 -124 59 -88 C57 -86 54 -84 51 -84 C48 -84 45 -86 40 -90 L-13 -148 C-20 -155 -20 -161 -15 -168 C17 -217 89 -255 170 -255 C341 -255 445 -138 469 21 L543 485 L543 485 Z M322 550 C324 549 327 548 329 548 C334 548 338 551 343 556 L461 710 C466 717 466 725 457 728 L390 752 C388 753 386 753 384 753 C378 753 373 750 369 743 L274 591 C269 582 270 576 277 572 L322 550 L322 550 Z " />
<glyph glyph-name="thorn" unicode="&#xfe;" horiz-adv-x="609" d="M456 275 C456 178 379 98 287 98 C205 98 154 163 165 243 C176 334 249 402 334 402 C411 402 456 344 456 275 L456 275 Z M74 -250 C83 -250 89 -245 91 -235 L141 84 C168 32 219 -10 298 -10 C453 -10 569 128 569 284 C569 408 508 510 377 510 C301 510 238 474 194 418 L218 568 C229 643 242 724 244 735 C246 745 242 750 232 750 L148 750 C138 750 132 745 131 735 L-21 -235 C-23 -245 -19 -250 -10 -250 L74 -250 Z " />
<glyph glyph-name="ydieresis" unicode="&#xff;" horiz-adv-x="591" d="M545 485 C546 495 542 500 532 500 L449 500 C439 500 433 495 432 485 L393 244 C382 182 319 108 245 108 C165 108 138 166 151 250 L189 485 C190 495 186 500 176 500 L93 500 C83 500 77 495 76 485 L35 229 C14 92 63 0 190 0 C267 0 341 48 370 93 L356 10 C343 -73 287 -147 183 -147 C127 -147 84 -124 61 -88 C59 -86 56 -84 53 -84 C50 -84 47 -86 42 -90 L-11 -148 C-18 -155 -18 -161 -13 -168 C19 -217 91 -255 172 -255 C343 -255 447 -138 471 21 L545 485 L545 485 Z M158 643 C158 607 187 578 223 578 C259 578 288 607 288 643 C288 679 259 708 223 708 C187 708 158 679 158 643 L158 643 Z M374 643 C374 607 401 578 438 578 C475 578 504 607 504 643 C504 679 475 708 438 708 C401 708 374 679 374 643 L374 643 Z " />
<glyph glyph-name="Amacron" unicode="&#x100;" horiz-adv-x="638" d="M67 0 C78 0 86 5 90 15 L161 161 L415 161 L439 16 C442 3 447 0 459 0 L546 0 C557 0 561 5 559 16 L446 685 C444 695 439 700 430 700 L316 700 C307 700 300 695 296 685 L-30 15 C-35 5 -33 0 -22 0 L67 0 L67 0 Z M205 269 L353 567 L406 269 L205 269 Z M241 823 C239 813 243 808 253 808 L521 808 C531 808 537 813 539 823 L549 887 C550 897 545 902 536 902 L268 902 C257 902 252 897 251 887 L241 823 L241 823 Z " />
<glyph glyph-name="amacron" unicode="&#x101;" horiz-adv-x="602" d="M121 225 C121 321 198 402 291 402 C372 402 424 337 413 256 C402 167 328 98 244 98 C167 98 121 153 121 225 L121 225 Z M469 0 C478 0 484 5 486 15 L561 485 C562 495 557 500 548 500 L465 500 C454 500 449 495 448 485 C442 463 439 438 436 415 C408 471 356 510 280 510 C124 510 8 372 8 215 C8 92 76 -10 200 -10 C279 -10 343 32 384 84 L373 15 C371 5 375 0 386 0 L469 0 L469 0 Z M186 626 C184 616 188 611 198 611 L466 611 C476 611 482 616 484 626 L494 690 C495 700 490 705 481 705 L213 705 C202 705 197 700 196 690 L186 626 L186 626 Z " />
<glyph glyph-name="Abreve" unicode="&#x102;" horiz-adv-x="637" d="M67 0 C78 0 86 5 90 15 L161 161 L415 161 L439 16 C442 3 447 0 459 0 L546 0 C557 0 561 5 559 16 L446 685 C444 695 439 700 430 700 L316 700 C307 700 300 695 296 685 L-30 15 C-35 5 -33 0 -22 0 L67 0 L67 0 Z M205 269 L353 567 L406 269 L205 269 Z M562 904 C563 909 560 913 553 915 L501 925 C495 926 491 922 488 915 C479 874 446 842 390 842 C334 842 312 874 315 915 C316 921 314 925 308 925 C307 925 307 925 306 925 L251 915 C243 914 239 910 239 904 C230 811 288 760 377 760 C472 760 543 811 562 904 L562 904 Z " />
<glyph glyph-name="abreve" unicode="&#x103;" horiz-adv-x="601" d="M121 225 C121 321 198 402 291 402 C372 402 424 337 413 256 C402 167 328 98 244 98 C167 98 121 153 121 225 L121 225 Z M469 0 C478 0 484 5 486 15 L561 485 C562 495 557 500 548 500 L465 500 C454 500 449 495 448 485 C442 463 439 438 436 415 C408 471 356 510 280 510 C124 510 8 372 8 215 C8 92 76 -10 200 -10 C279 -10 343 32 384 84 L373 15 C371 5 375 0 386 0 L469 0 L469 0 Z M503 716 C504 721 501 725 494 727 L442 737 C436 738 432 734 429 727 C420 686 387 654 331 654 C275 654 253 686 256 727 C257 733 255 737 249 737 C248 737 248 737 247 737 L192 727 C184 726 180 722 180 716 C171 623 229 572 318 572 C413 572 484 623 503 716 L503 716 Z " />
<glyph glyph-name="Aogonek" unicode="&#x104;" horiz-adv-x="638" d="M546 0 C557 0 561 5 559 16 L446 685 C445 695 439 700 430 700 L316 700 C307 700 301 695 296 685 L-30 15 C-35 5 -32 0 -22 0 L66 0 C79 0 87 5 91 15 L161 161 L416 161 L440 16 C441 3 446 1 453 0 L478 0 C382 -74 402 -199 524 -199 C534 -199 545 -198 557 -196 C563 -195 567 -191 568 -184 L575 -129 C576 -123 574 -120 568 -120 C568 -120 567 -120 566 -120 C559 -121 552 -122 546 -122 C479 -122 486 -45 546 0 L546 0 Z M205 269 L353 567 L407 269 L205 269 Z " />
<glyph glyph-name="aogonek" unicode="&#x105;" horiz-adv-x="602" d="M121 225 C121 321 198 402 291 402 C373 402 424 338 413 256 C402 167 328 98 244 98 C168 98 121 153 121 225 L121 225 Z M374 23 C371 12 374 1 381 0 L405 0 C306 -76 328 -199 450 -199 C461 -199 472 -198 484 -196 C490 -195 494 -191 495 -184 L502 -129 C503 -123 501 -120 495 -120 C495 -120 494 -120 493 -120 C486 -121 479 -122 474 -122 C405 -122 414 -41 473 0 C480 0 485 5 486 15 L561 485 C563 495 559 500 549 500 L465 500 C455 500 449 495 447 485 C444 473 444 456 441 441 L437 415 C408 471 356 510 280 510 C124 510 8 372 8 215 C8 92 76 -10 200 -10 C279 -10 342 32 385 84 L374 23 L374 23 Z " />
<glyph glyph-name="Cacute" unicode="&#x106;" horiz-adv-x="628" d="M630 633 C637 642 636 649 627 655 C580 687 522 710 446 710 C229 710 30 527 30 294 C30 114 165 -10 331 -10 C403 -10 470 9 534 44 C543 50 546 58 542 67 L509 135 C506 140 502 143 498 143 C494 143 491 141 486 139 C443 112 392 101 349 101 C227 101 144 186 144 306 C144 465 283 598 428 598 C479 598 516 585 551 562 C555 560 558 559 561 559 C567 559 572 562 577 567 L630 633 Z M447 753 C449 752 452 751 454 751 C459 751 463 754 468 759 L586 913 C591 920 591 928 582 931 L515 955 C513 956 511 956 509 956 C503 956 498 953 494 946 L399 794 C394 785 395 779 402 775 L447 753 L447 753 Z " />
<glyph glyph-name="cacute" unicode="&#x107;" horiz-adv-x="475" d="M350 119 C348 123 345 125 341 125 C338 125 335 124 331 122 C303 107 272 98 239 98 C162 98 118 154 118 225 C118 321 196 402 287 402 C306 402 336 399 369 376 C372 374 375 373 378 373 C382 373 386 375 390 379 L445 442 C452 451 452 458 444 464 C413 487 368 510 305 510 C141 510 7 379 7 215 C7 83 94 -10 222 -10 C282 -10 337 10 377 34 C387 39 390 46 385 55 L350 119 L350 119 Z M314 550 C316 549 319 548 321 548 C326 548 330 551 335 556 L453 710 C458 717 458 725 449 728 L382 752 C380 753 378 753 376 753 C370 753 365 750 361 743 L266 591 C261 582 262 576 269 572 L314 550 L314 550 Z " />
<glyph glyph-name="Ccircumflex" unicode="&#x108;" horiz-adv-x="630" d="M630 633 C637 642 636 649 627 655 C580 687 522 710 446 710 C229 710 30 527 30 294 C30 114 165 -10 331 -10 C403 -10 470 9 534 44 C543 50 546 58 542 67 L509 135 C506 140 502 143 498 143 C494 143 491 141 486 139 C443 112 392 101 349 101 C227 101 144 186 144 306 C144 465 283 598 428 598 C479 598 516 585 551 562 C555 560 558 559 561 559 C567 559 572 562 577 567 L630 633 Z M448 941 C436 941 426 934 417 926 L287 804 C279 797 278 790 285 782 L305 751 C308 747 312 745 316 745 C320 745 324 747 328 751 L463 859 L560 752 C564 748 568 746 572 746 C576 746 579 748 583 751 L613 782 C620 789 623 797 618 804 L525 926 C518 934 512 941 499 941 L448 941 L448 941 Z " />
<glyph glyph-name="ccircumflex" unicode="&#x109;" horiz-adv-x="493" d="M350 119 C348 123 345 125 341 125 C338 125 335 124 331 122 C303 107 272 98 239 98 C162 98 118 154 118 225 C118 321 196 402 287 402 C306 402 336 399 369 376 C372 374 375 373 378 373 C382 373 386 375 390 379 L445 442 C452 451 452 458 444 464 C413 487 368 510 305 510 C141 510 7 379 7 215 C7 83 94 -10 222 -10 C282 -10 337 10 377 34 C387 39 390 46 385 55 L350 119 L350 119 Z M308 746 C296 746 286 739 277 731 L147 609 C139 602 138 595 145 587 L165 556 C168 552 172 550 176 550 C180 550 184 552 188 556 L323 664 L420 557 C424 553 428 551 432 551 C436 551 439 553 443 556 L473 587 C480 594 483 602 478 609 L385 731 C378 739 372 746 359 746 L308 746 L308 746 Z " />
<glyph glyph-name="Cdotaccent" unicode="&#x10a;" horiz-adv-x="628" d="M630 633 C637 642 636 649 627 655 C580 687 522 710 446 710 C229 710 30 527 30 294 C30 114 165 -10 331 -10 C403 -10 470 9 534 44 C543 50 546 58 542 67 L509 135 C506 140 502 143 498 143 C494 143 491 141 486 139 C443 112 392 101 349 101 C227 101 144 186 144 306 C144 465 283 598 428 598 C479 598 516 585 551 562 C555 560 558 559 561 559 C567 559 572 562 577 567 L630 633 Z M385 850 C385 813 413 785 450 785 C487 785 516 813 516 850 C516 887 487 916 450 916 C413 916 385 887 385 850 L385 850 Z " />
<glyph glyph-name="cdotaccent" unicode="&#x10b;" horiz-adv-x="463" d="M350 119 C348 123 345 125 341 125 C338 125 335 124 331 122 C303 107 272 98 239 98 C162 98 118 154 118 225 C118 321 196 402 287 402 C306 402 336 399 369 376 C372 374 375 373 378 373 C382 373 386 375 390 379 L445 442 C452 451 452 458 444 464 C413 487 368 510 305 510 C141 510 7 379 7 215 C7 83 94 -10 222 -10 C282 -10 337 10 377 34 C387 39 390 46 385 55 L350 119 L350 119 Z M255 658 C255 621 283 593 320 593 C357 593 386 621 386 658 C386 695 357 724 320 724 C283 724 255 695 255 658 L255 658 Z " />
<glyph glyph-name="Ccaron" unicode="&#x10c;" horiz-adv-x="637" d="M630 633 C637 642 636 649 627 655 C580 687 522 710 446 710 C229 710 30 527 30 294 C30 114 165 -10 331 -10 C403 -10 470 9 534 44 C543 50 546 58 542 67 L509 135 C506 140 502 143 498 143 C494 143 491 141 486 139 C443 112 392 101 349 101 C227 101 144 186 144 306 C144 465 283 598 428 598 C479 598 516 585 551 562 C555 560 558 559 561 559 C567 559 572 562 577 567 L630 633 Z M475 761 C488 761 497 768 506 776 L636 898 C643 905 644 913 638 920 L618 951 C615 955 611 956 608 956 C604 956 599 954 595 950 L461 842 L363 950 C359 954 355 956 351 956 C347 956 344 954 340 951 L310 920 C302 912 300 905 305 898 L398 776 C405 768 412 761 424 761 L475 761 L475 761 Z " />
<glyph glyph-name="ccaron" unicode="&#x10d;" horiz-adv-x="479" d="M350 119 C348 123 345 125 341 125 C338 125 335 124 331 122 C303 107 272 98 239 98 C162 98 118 154 118 225 C118 321 196 402 287 402 C306 402 336 399 369 376 C372 374 375 373 378 373 C382 373 386 375 390 379 L445 442 C452 451 452 458 444 464 C413 487 368 510 305 510 C141 510 7 379 7 215 C7 83 94 -10 222 -10 C282 -10 337 10 377 34 C387 39 390 46 385 55 L350 119 L350 119 Z M331 548 C344 548 353 555 362 563 L492 685 C499 692 500 700 494 707 L474 738 C471 742 467 743 464 743 C460 743 455 741 451 737 L317 629 L219 737 C215 741 211 743 207 743 C203 743 200 741 196 738 L166 707 C158 699 156 692 161 685 L254 563 C261 555 268 548 280 548 L331 548 L331 548 Z " />
<glyph glyph-name="Dcaron" unicode="&#x10e;" horiz-adv-x="716" d="M276 0 C503 0 684 171 684 406 C684 586 574 700 382 700 L144 700 C133 700 128 695 127 685 L20 15 C19 5 23 0 33 0 L276 0 L276 0 Z M226 588 L365 588 C498 588 570 514 570 393 C570 235 449 112 290 112 L151 112 L226 588 Z M408 760 C421 760 430 767 439 775 L569 897 C576 904 577 912 571 919 L551 950 C548 954 544 955 541 955 C537 955 532 953 528 949 L394 841 L296 949 C292 953 288 955 284 955 C280 955 277 953 273 950 L243 919 C235 911 233 904 238 897 L331 775 C338 767 345 760 357 760 L408 760 L408 760 Z " />
<glyph glyph-name="dcaron" unicode="&#x10f;" horiz-adv-x="726" d="M649 549 C648 540 651 536 660 536 L727 536 C736 536 742 540 744 548 L783 737 C784 746 781 750 773 750 L692 750 C683 750 678 746 677 737 L649 549 Z M123 225 C123 321 200 402 293 402 C375 402 425 337 414 256 C403 167 330 98 245 98 C169 98 123 153 123 225 L123 225 Z M470 0 C480 0 486 5 487 15 L601 735 C603 745 599 750 589 750 L506 750 C496 750 490 745 488 735 C485 722 473 644 462 566 L438 415 C409 471 357 510 281 510 C126 510 10 372 10 215 C10 92 77 -10 202 -10 C282 -10 345 32 386 84 L374 15 C373 5 377 0 387 0 L470 0 Z " />
<glyph glyph-name="Dcroat" unicode="&#x110;" horiz-adv-x="715" d="M19 15 C18 5 22 0 32 0 L275 0 C502 0 683 171 683 406 C683 586 586 700 386 700 L143 700 C132 700 127 695 126 685 L80 395 L26 395 C17 395 12 390 9 379 L1 323 C-1 313 3 308 12 308 L66 308 L19 15 Z M225 588 L364 588 C497 588 569 514 569 393 C569 235 448 112 289 112 L150 112 L180 308 L277 308 C288 308 294 313 295 323 L304 380 C306 390 302 395 291 395 L194 395 L225 588 Z " />
<glyph glyph-name="dcroat" unicode="&#x111;" horiz-adv-x="609" d="M630 549 C638 549 646 554 647 565 L656 616 C657 627 651 632 643 632 L585 632 L601 735 C603 745 599 750 589 750 L506 750 C496 750 490 745 488 735 C488 724 483 708 472 632 L376 632 C367 632 361 627 359 616 L351 565 C348 554 352 549 362 549 L459 549 L438 415 C411 471 357 510 281 510 C126 510 10 372 10 215 C10 92 77 -10 201 -10 C280 -10 343 31 386 84 L374 15 C373 5 377 0 387 0 L470 0 C480 0 486 5 487 15 L572 549 L630 549 Z M123 225 C123 321 200 402 292 402 C373 402 425 337 414 256 C403 167 329 98 245 98 C169 98 123 153 123 225 L123 225 Z " />
<glyph glyph-name="Emacron" unicode="&#x112;" horiz-adv-x="548" d="M142 700 C132 700 126 695 125 685 L18 15 C17 5 21 0 31 0 L429 0 C440 0 446 5 446 15 L460 97 C461 107 457 112 447 112 L148 112 L177 295 L440 295 C450 295 456 300 458 310 L470 389 C471 399 467 404 458 404 L195 404 L223 588 L521 588 C531 588 537 593 539 603 L552 685 C553 693 550 700 539 700 L142 700 L142 700 Z M209 823 C207 813 211 808 221 808 L489 808 C499 808 505 813 507 823 L517 887 C518 897 513 902 504 902 L236 902 C225 902 220 897 219 887 L209 823 L209 823 Z " />
<glyph glyph-name="emacron" unicode="&#x113;" horiz-adv-x="536" d="M240 86 C156 86 108 139 109 211 L475 211 C487 211 494 218 495 229 C514 392 442 510 293 510 C141 510 6 383 6 215 C6 83 96 -10 221 -10 C297 -10 361 10 416 41 C425 46 427 52 424 61 L395 114 C393 118 389 121 384 121 C381 121 378 120 374 118 C331 97 291 86 240 86 L240 86 Z M123 294 C142 363 202 421 279 421 C352 421 392 375 395 294 L123 294 Z M165 626 C163 616 167 611 177 611 L445 611 C455 611 461 616 463 626 L473 690 C474 700 469 705 460 705 L192 705 C181 705 176 700 175 690 L165 626 L165 626 Z " />
<glyph glyph-name="Ebreve" unicode="&#x114;" horiz-adv-x="559" d="M152 700 C142 700 136 695 135 685 L28 15 C27 5 31 0 41 0 L439 0 C450 0 456 5 456 15 L470 97 C471 107 467 112 457 112 L158 112 L187 295 L450 295 C460 295 466 300 468 310 L480 389 C481 399 477 404 468 404 L205 404 L233 588 L531 588 C541 588 547 593 549 603 L562 685 C563 693 560 700 549 700 L152 700 L152 700 Z M538 904 C539 909 536 913 529 915 L477 925 C471 926 467 922 464 915 C455 874 422 842 366 842 C310 842 288 874 291 915 C292 921 290 925 284 925 C283 925 283 925 282 925 L227 915 C219 914 215 910 215 904 C206 811 264 760 353 760 C448 760 519 811 538 904 L538 904 Z " />
<glyph glyph-name="ebreve" unicode="&#x115;" horiz-adv-x="540" d="M240 86 C156 86 108 139 109 211 L475 211 C487 211 494 218 495 229 C514 392 442 510 293 510 C141 510 6 383 6 215 C6 83 96 -10 221 -10 C297 -10 361 10 416 41 C425 46 427 52 424 61 L395 114 C393 118 389 121 384 121 C381 121 378 120 374 118 C331 97 291 86 240 86 L240 86 Z M123 294 C142 363 202 421 279 421 C352 421 392 375 395 294 L123 294 Z M487 716 C488 721 485 725 478 727 L426 737 C420 738 416 734 413 727 C404 686 371 654 315 654 C259 654 237 686 240 727 C241 733 239 737 233 737 C232 737 232 737 231 737 L176 727 C168 726 164 722 164 716 C155 623 213 572 302 572 C397 572 468 623 487 716 L487 716 Z " />
<glyph glyph-name="Edotaccent" unicode="&#x116;" horiz-adv-x="548" d="M142 700 C132 700 126 695 125 685 L18 15 C17 5 21 0 31 0 L429 0 C440 0 446 5 446 15 L460 97 C461 107 457 112 447 112 L148 112 L177 295 L440 295 C450 295 456 300 458 310 L470 389 C471 399 467 404 458 404 L195 404 L223 588 L521 588 C531 588 537 593 539 603 L552 685 C553 693 550 700 539 700 L142 700 L142 700 Z M291 856 C291 819 319 791 356 791 C393 791 422 819 422 856 C422 893 393 922 356 922 C319 922 291 893 291 856 L291 856 Z " />
<glyph glyph-name="edotaccent" unicode="&#x117;" horiz-adv-x="536" d="M240 86 C156 86 108 139 109 211 L475 211 C487 211 494 218 495 229 C514 392 442 510 293 510 C141 510 6 383 6 215 C6 83 96 -10 221 -10 C297 -10 361 10 416 41 C425 46 427 52 424 61 L395 114 C393 118 389 121 384 121 C381 121 378 120 374 118 C331 97 291 86 240 86 L240 86 Z M123 294 C142 363 202 421 279 421 C352 421 392 375 395 294 L123 294 Z M258 671 C258 634 286 606 323 606 C360 606 389 634 389 671 C389 708 360 737 323 737 C286 737 258 708 258 671 L258 671 Z " />
<glyph glyph-name="Eogonek" unicode="&#x118;" horiz-adv-x="548" d="M431 0 C440 7 446 7 447 15 L459 97 C461 107 457 112 447 112 L148 112 L177 295 L440 295 C450 295 456 300 457 310 L470 389 C471 399 466 404 457 404 L194 404 L223 588 L521 588 C531 588 537 593 539 603 L552 685 C553 693 550 700 539 700 L141 700 C132 700 126 695 124 685 L18 15 C17 5 21 0 30 0 L356 0 C267 -82 285 -200 403 -200 C414 -200 427 -198 440 -196 C448 -195 452 -191 452 -183 L460 -129 C460 -123 458 -119 454 -119 C453 -119 451 -120 450 -120 C442 -122 435 -123 429 -123 C367 -123 369 -45 431 0 L431 0 Z " />
<glyph glyph-name="eogonek" unicode="&#x119;" horiz-adv-x="537" d="M123 294 C142 363 202 421 279 421 C352 421 392 375 395 294 L123 294 Z M178 -5 C88 -87 120 -198 237 -198 C247 -198 257 -198 268 -196 C275 -195 278 -191 279 -183 L287 -129 C288 -123 286 -120 280 -120 C279 -120 278 -120 277 -120 C270 -121 263 -122 257 -122 C195 -122 198 -53 247 -9 C314 -5 365 12 416 41 C425 46 427 52 424 61 L394 114 C392 118 389 121 384 121 C381 121 378 120 373 118 C330 97 293 86 242 86 C158 86 108 139 109 211 L475 211 C487 211 492 218 495 229 C514 377 450 510 293 510 C138 510 6 380 6 215 C6 97 76 14 178 -5 L178 -5 Z " />
<glyph glyph-name="Ecaron" unicode="&#x11a;" horiz-adv-x="548" d="M142 700 C132 700 126 695 125 685 L18 15 C17 5 21 0 31 0 L429 0 C440 0 446 5 446 15 L460 97 C461 107 457 112 447 112 L148 112 L177 295 L440 295 C450 295 456 300 458 310 L470 389 C471 399 467 404 458 404 L195 404 L223 588 L521 588 C531 588 537 593 539 603 L552 685 C553 693 550 700 539 700 L142 700 L142 700 Z M371 760 C384 760 393 767 402 775 L532 897 C539 904 540 912 534 919 L514 950 C511 954 507 955 504 955 C500 955 495 953 491 949 L357 841 L259 949 C255 953 251 955 247 955 C243 955 240 953 236 950 L206 919 C198 911 196 904 201 897 L294 775 C301 767 308 760 320 760 L371 760 L371 760 Z " />
<glyph glyph-name="ecaron" unicode="&#x11b;" horiz-adv-x="541" d="M328 555 C341 555 350 562 359 570 L489 692 C496 699 497 707 491 714 L471 745 C468 749 464 750 461 750 C457 750 452 748 448 744 L314 636 L216 744 C212 748 208 750 204 750 C200 750 197 748 193 745 L163 714 C155 706 153 699 158 692 L251 570 C258 562 265 555 277 555 L328 555 L328 555 Z M240 86 C156 86 108 139 109 211 L475 211 C487 211 494 218 495 229 C514 392 442 510 293 510 C141 510 6 383 6 215 C6 83 96 -10 221 -10 C297 -10 361 10 416 41 C425 46 427 52 424 61 L395 114 C393 118 389 121 384 121 C381 121 378 120 374 118 C331 97 291 86 240 86 L240 86 Z M123 294 C142 363 202 421 279 421 C352 421 392 375 395 294 L123 294 Z " />
<glyph glyph-name="Gcircumflex" unicode="&#x11c;" horiz-adv-x="674" d="M477 131 C438 112 400 101 349 101 C227 101 144 186 144 306 C144 465 283 598 428 598 C477 598 517 586 557 557 C561 554 565 553 568 553 C574 553 579 557 584 562 L636 627 C643 635 644 643 633 650 C586 682 526 710 447 710 C228 710 30 527 30 294 C30 114 165 -10 331 -10 C412 -10 489 8 562 45 C572 50 577 56 578 65 L624 354 C625 364 621 369 611 369 L385 369 C375 369 369 364 368 354 L358 288 C356 278 360 273 370 273 L499 273 L477 131 L477 131 Z M450 941 C438 941 428 934 419 926 L289 804 C281 797 280 790 287 782 L307 751 C310 747 314 745 318 745 C322 745 326 747 330 751 L465 859 L562 752 C566 748 570 746 574 746 C578 746 581 748 585 751 L615 782 C622 789 625 797 620 804 L527 926 C520 934 514 941 501 941 L450 941 L450 941 Z " />
<glyph glyph-name="gcircumflex" unicode="&#x11d;" horiz-adv-x="612" d="M129 225 C129 321 206 402 298 402 C380 402 432 337 421 256 C410 167 336 103 252 103 C175 103 129 154 129 225 L129 225 Z M568 485 C570 495 566 500 555 500 L472 500 C463 500 457 495 455 485 C452 473 451 456 448 441 L444 415 C416 471 363 510 287 510 C132 510 17 368 17 211 C17 88 84 -5 209 -5 C290 -5 352 38 393 89 L380 8 C367 -75 299 -147 194 -147 C138 -147 93 -127 65 -96 C63 -93 60 -92 57 -92 C54 -92 49 -94 45 -98 L-7 -156 C-13 -163 -14 -169 -9 -176 C28 -221 99 -255 182 -255 C354 -255 468 -143 495 18 L568 485 L568 485 Z M338 746 C326 746 316 739 307 731 L177 609 C169 602 168 595 175 587 L195 556 C198 552 202 550 206 550 C210 550 214 552 218 556 L353 664 L450 557 C454 553 458 551 462 551 C466 551 469 553 473 556 L503 587 C510 594 513 602 508 609 L415 731 C408 739 402 746 389 746 L338 746 L338 746 Z " />
<glyph glyph-name="Gbreve" unicode="&#x11e;" horiz-adv-x="674" d="M477 131 C438 112 400 101 349 101 C227 101 144 186 144 306 C144 465 283 598 428 598 C477 598 517 586 557 557 C561 554 565 553 568 553 C574 553 579 557 584 562 L636 627 C643 635 644 643 633 650 C586 682 526 710 447 710 C228 710 30 527 30 294 C30 114 165 -10 331 -10 C412 -10 489 8 562 45 C572 50 577 56 578 65 L624 354 C625 364 621 369 611 369 L385 369 C375 369 369 364 368 354 L358 288 C356 278 360 273 370 273 L499 273 L477 131 L477 131 Z M612 904 C613 909 610 913 603 915 L551 925 C545 926 541 922 538 915 C529 874 496 842 440 842 C384 842 362 874 365 915 C366 921 364 925 358 925 C357 925 357 925 356 925 L301 915 C293 914 289 910 289 904 C280 811 338 760 427 760 C522 760 593 811 612 904 L612 904 Z " />
<glyph glyph-name="gbreve" unicode="&#x11f;" horiz-adv-x="612" d="M129 225 C129 321 206 402 298 402 C380 402 432 337 421 256 C410 167 336 103 252 103 C175 103 129 154 129 225 L129 225 Z M568 485 C570 495 566 500 555 500 L472 500 C463 500 457 495 455 485 C452 473 451 456 448 441 L444 415 C416 471 363 510 287 510 C132 510 17 368 17 211 C17 88 84 -5 209 -5 C290 -5 352 38 393 89 L380 8 C367 -75 299 -147 194 -147 C138 -147 93 -127 65 -96 C63 -93 60 -92 57 -92 C54 -92 49 -94 45 -98 L-7 -156 C-13 -163 -14 -169 -9 -176 C28 -221 99 -255 182 -255 C354 -255 468 -143 495 18 L568 485 L568 485 Z M517 716 C518 721 515 725 508 727 L456 737 C450 738 446 734 443 727 C434 686 401 654 345 654 C289 654 267 686 270 727 C271 733 269 737 263 737 C262 737 262 737 261 737 L206 727 C198 726 194 722 194 716 C185 623 243 572 332 572 C427 572 498 623 517 716 L517 716 Z " />
<glyph glyph-name="Gdotaccent" unicode="&#x120;" horiz-adv-x="674" d="M477 131 C438 112 400 101 349 101 C227 101 144 186 144 306 C144 465 283 598 428 598 C477 598 517 586 557 557 C561 554 565 553 568 553 C574 553 579 557 584 562 L636 627 C643 635 644 643 633 650 C586 682 526 710 447 710 C228 710 30 527 30 294 C30 114 165 -10 331 -10 C412 -10 489 8 562 45 C572 50 577 56 578 65 L624 354 C625 364 621 369 611 369 L385 369 C375 369 369 364 368 354 L358 288 C356 278 360 273 370 273 L499 273 L477 131 L477 131 Z M380 850 C380 813 408 785 445 785 C482 785 511 813 511 850 C511 887 482 916 445 916 C408 916 380 887 380 850 L380 850 Z " />
<glyph glyph-name="gdotaccent" unicode="&#x121;" horiz-adv-x="612" d="M129 225 C129 321 206 402 298 402 C380 402 432 337 421 256 C410 167 336 103 252 103 C175 103 129 154 129 225 L129 225 Z M568 485 C570 495 566 500 555 500 L472 500 C463 500 457 495 455 485 C452 473 451 456 448 441 L444 415 C416 471 363 510 287 510 C132 510 17 368 17 211 C17 88 84 -5 209 -5 C290 -5 352 38 393 89 L380 8 C367 -75 299 -147 194 -147 C138 -147 93 -127 65 -96 C63 -93 60 -92 57 -92 C54 -92 49 -94 45 -98 L-7 -156 C-13 -163 -14 -169 -9 -176 C28 -221 99 -255 182 -255 C354 -255 468 -143 495 18 L568 485 L568 485 Z M282 671 C282 634 310 606 347 606 C384 606 413 634 413 671 C413 708 384 737 347 737 C310 737 282 708 282 671 L282 671 Z " />
<glyph glyph-name="uni0122" unicode="&#x122;" horiz-adv-x="674" d="M221 -250 C218 -259 222 -263 231 -263 L297 -263 C307 -263 313 -259 316 -251 L385 -62 C388 -53 386 -49 377 -49 L296 -49 C288 -49 283 -53 280 -62 L221 -250 Z M477 131 C438 112 400 101 349 101 C227 101 144 186 144 306 C144 465 283 598 428 598 C477 598 517 586 557 557 C561 554 565 553 568 553 C574 553 579 557 584 562 L636 627 C643 635 644 643 633 650 C586 682 526 710 447 710 C228 710 30 527 30 294 C30 114 165 -10 331 -10 C412 -10 489 8 562 45 C572 50 577 56 578 65 L624 354 C625 364 621 369 611 369 L385 369 C375 369 369 364 368 354 L358 288 C356 278 360 273 370 273 L499 273 L477 131 Z " />
<glyph glyph-name="uni0123" unicode="&#x123;" horiz-adv-x="612" d="M440 772 C443 779 438 784 431 784 L364 784 C354 784 348 780 345 772 L276 583 C274 575 277 571 284 571 L365 571 C374 571 380 575 382 584 L440 772 L440 772 Z M129 225 C129 321 206 402 298 402 C380 402 432 337 421 256 C410 167 336 103 252 103 C175 103 129 154 129 225 L129 225 Z M568 485 C570 495 566 500 555 500 L472 500 C463 500 457 495 455 485 C452 473 451 456 448 441 L444 415 C416 471 363 510 287 510 C132 510 17 368 17 211 C17 88 84 -5 209 -5 C290 -5 352 38 393 89 L380 8 C367 -75 299 -147 194 -147 C138 -147 93 -127 65 -96 C63 -93 60 -92 57 -92 C54 -92 49 -94 45 -98 L-7 -156 C-13 -163 -14 -169 -9 -176 C28 -221 99 -255 182 -255 C354 -255 468 -143 495 18 L568 485 L568 485 Z " />
<glyph glyph-name="Hcircumflex" unicode="&#x124;" horiz-adv-x="689" d="M117 0 C127 0 133 5 134 15 L179 296 L492 296 L447 15 C446 5 450 0 460 0 L545 0 C555 0 561 5 562 15 L669 685 C670 695 665 700 656 700 L571 700 C560 700 555 695 554 685 L510 411 L197 411 L241 685 C242 695 237 700 228 700 L143 700 C132 700 127 695 126 685 L20 15 C19 5 23 0 33 0 L117 0 L117 0 Z M413 941 C401 941 391 934 382 926 L252 804 C244 797 243 790 250 782 L270 751 C273 747 277 745 281 745 C285 745 289 747 293 751 L428 859 L525 752 C529 748 533 746 537 746 C541 746 544 748 548 751 L578 782 C585 789 588 797 583 804 L490 926 C483 934 477 941 464 941 L413 941 L413 941 Z " />
<glyph glyph-name="hcircumflex" unicode="&#x125;" horiz-adv-x="598" d="M113 0 C123 0 129 5 130 15 L169 259 C180 327 245 402 318 402 C399 402 425 343 412 259 L373 15 C372 5 376 0 386 0 L469 0 C479 0 485 5 486 15 L528 280 C549 419 498 510 373 510 C294 510 229 462 194 417 L244 735 C246 745 242 750 232 750 L149 750 C139 750 133 745 131 735 L18 15 C16 5 20 0 30 0 L113 0 L113 0 Z M197 959 C185 959 175 952 166 944 L36 822 C28 815 27 808 34 800 L54 769 C57 765 61 763 65 763 C69 763 73 765 77 769 L212 877 L309 770 C313 766 317 764 321 764 C325 764 328 766 332 769 L362 800 C369 807 372 815 367 822 L274 944 C267 952 261 959 248 959 L197 959 L197 959 Z " />
<glyph glyph-name="Hbar" unicode="&#x126;" horiz-adv-x="685" d="M509 411 L195 411 L208 500 L522 500 L509 411 Z M709 500 C718 500 724 505 726 516 L731 549 C733 560 729 565 719 565 L647 565 L667 685 C668 695 664 700 653 700 L570 700 C559 700 553 695 552 685 L533 565 L219 565 L239 685 C239 693 236 700 225 700 L143 700 C132 700 125 695 124 685 L105 565 L32 565 C23 565 17 560 15 550 L10 515 C9 504 10 500 21 500 L94 500 L18 15 C16 5 20 0 31 0 L114 0 C124 0 130 5 132 15 L177 296 L490 296 L445 15 C444 5 448 0 459 0 L542 0 C553 0 559 5 560 15 L637 500 L709 500 Z " />
<glyph glyph-name="hbar" unicode="&#x127;" horiz-adv-x="594" d="M241 735 C242 745 237 750 228 750 L145 750 C134 750 129 745 128 735 L113 642 L56 642 C46 642 40 637 38 627 L30 575 C29 565 33 560 42 560 L100 560 L14 15 C13 5 17 0 26 0 L109 0 C119 0 125 5 127 15 L166 259 C177 327 242 402 315 402 C395 402 422 343 409 259 L370 15 C369 5 373 0 382 0 L465 0 C475 0 481 5 483 15 L525 280 C546 419 495 510 370 510 C290 510 226 462 191 417 L213 560 L310 560 C320 560 326 565 328 575 L336 627 C338 637 334 642 323 642 L226 642 L241 735 Z " />
<glyph glyph-name="Itilde" unicode="&#x128;" horiz-adv-x="259" d="M116 0 C126 0 132 5 133 15 L240 685 C241 695 236 700 227 700 L142 700 C131 700 126 695 125 685 L18 15 C17 5 21 0 31 0 L116 0 L116 0 Z M280 870 C232 870 222 929 154 929 C119 929 73 905 36 874 C25 867 24 862 24 851 L20 798 C20 792 22 788 26 788 C28 788 31 790 35 793 C66 818 103 847 134 847 C181 847 195 788 259 788 C294 788 340 812 379 843 C388 850 389 855 390 866 L393 919 C393 925 391 928 387 928 C385 928 382 927 379 924 C348 899 309 870 280 870 L280 870 Z " />
<glyph glyph-name="itilde" unicode="&#x129;" horiz-adv-x="243" d="M234 678 C186 678 176 737 108 737 C73 737 27 713 -10 682 C-21 675 -22 670 -22 659 L-26 606 C-26 600 -24 596 -20 596 C-18 596 -15 598 -11 601 C20 626 57 655 88 655 C135 655 149 596 213 596 C248 596 294 620 333 651 C342 658 343 663 344 674 L347 727 C347 733 345 736 341 736 C339 736 336 735 333 732 C302 707 263 678 234 678 L234 678 Z M102 0 C111 0 117 5 119 15 L194 485 C195 495 191 500 181 500 L98 500 C87 500 82 495 81 485 L6 15 C4 5 8 0 19 0 L102 0 L102 0 Z " />
<glyph glyph-name="Imacron" unicode="&#x12a;" horiz-adv-x="261" d="M118 0 C128 0 134 5 135 15 L242 685 C243 695 238 700 229 700 L144 700 C133 700 128 695 127 685 L20 15 C19 5 23 0 33 0 L118 0 L118 0 Z M57 836 C55 826 59 821 69 821 L337 821 C347 821 353 826 355 836 L365 900 C366 910 361 915 352 915 L84 915 C73 915 68 910 67 900 L57 836 L57 836 Z " />
<glyph glyph-name="imacron" unicode="&#x12b;" horiz-adv-x="247" d="M108 0 C117 0 123 5 125 15 L200 485 C201 495 197 500 187 500 L104 500 C93 500 88 495 87 485 L12 15 C10 5 14 0 25 0 L108 0 L108 0 Z M13 626 C11 616 15 611 25 611 L293 611 C303 611 309 616 311 626 L321 690 C322 700 317 705 308 705 L40 705 C29 705 24 700 23 690 L13 626 L13 626 Z " />
<glyph glyph-name="Iogonek" unicode="&#x12e;" horiz-adv-x="259" d="M118 0 C125 1 130 5 132 14 L238 685 C239 695 234 700 225 700 L140 700 C131 700 125 695 123 685 L16 11 C15 4 18 0 25 0 L32 0 C-67 -77 -45 -199 78 -199 C90 -199 103 -198 116 -196 C124 -195 128 -190 128 -183 L135 -129 C136 -123 134 -120 128 -120 C128 -120 127 -120 126 -120 C119 -121 113 -122 107 -122 C43 -122 50 -47 101 0 L118 0 L118 0 Z " />
<glyph glyph-name="iogonek" unicode="&#x12f;" horiz-adv-x="252" d="M109 0 C116 1 121 5 123 14 L197 485 C199 495 195 500 184 500 L101 500 C92 500 86 495 84 485 L9 11 C8 4 11 0 18 0 L26 0 C-73 -78 -52 -199 70 -199 C82 -199 95 -198 108 -196 C115 -195 119 -190 120 -183 L128 -129 C129 -123 127 -120 121 -120 C120 -120 119 -120 118 -120 C111 -121 105 -122 99 -122 C35 -122 39 -47 96 0 L109 0 Z M104 691 C104 652 132 624 171 624 C210 624 240 652 240 691 C240 730 210 760 171 760 C132 760 104 730 104 691 L104 691 Z " />
<glyph glyph-name="Idotaccent" unicode="&#x130;" horiz-adv-x="264" d="M118 0 C128 0 134 5 135 15 L242 685 C243 695 238 700 229 700 L144 700 C133 700 128 695 127 685 L20 15 C19 5 23 0 33 0 L118 0 L118 0 Z M145 856 C145 819 173 791 210 791 C247 791 276 819 276 856 C276 893 247 922 210 922 C173 922 145 893 145 856 L145 856 Z " />
<glyph glyph-name="dotlessi" unicode="&#x131;" horiz-adv-x="256" d="M111 0 C120 0 126 5 128 15 L203 485 C204 495 200 500 190 500 L107 500 C96 500 91 495 90 485 L15 15 C13 5 17 0 28 0 L111 0 L111 0 Z " />
<glyph glyph-name="IJ" unicode="&#x132;" horiz-adv-x="739" d="M118 0 C128 0 134 5 135 15 L241 685 C243 695 239 700 229 700 L145 700 C135 700 129 695 127 685 L21 15 C19 5 23 0 34 0 L118 0 L118 0 Z M735 685 C737 695 733 700 723 700 L639 700 C629 700 623 695 621 685 L547 219 C536 144 492 101 425 101 C385 101 355 113 327 132 C324 134 320 136 316 136 C313 136 309 134 305 130 L254 63 C247 52 250 47 255 42 C294 9 355 -10 419 -10 C556 -10 638 79 660 208 L735 685 L735 685 Z " />
<glyph glyph-name="ij" unicode="&#x133;" horiz-adv-x="539" d="M110 0 C120 0 126 5 128 15 L202 485 C204 495 200 500 189 500 L106 500 C97 500 91 495 89 485 L15 15 C14 5 18 0 27 0 L110 0 L110 0 Z M109 691 C109 652 139 624 176 624 C215 624 245 652 245 691 C245 730 215 760 176 760 C139 760 109 730 109 691 L109 691 Z M111 -209 C106 -218 108 -224 115 -229 C142 -244 175 -255 214 -255 C312 -255 377 -190 390 -103 L483 485 C485 495 481 500 470 500 L387 500 C376 500 373 493 370 485 L280 -82 C273 -125 251 -147 214 -147 C195 -147 183 -143 170 -136 C168 -135 166 -135 164 -135 C160 -135 157 -137 153 -142 L111 -209 L111 -209 Z M390 691 C390 652 420 624 457 624 C496 624 526 652 526 691 C526 730 496 760 457 760 C420 760 390 730 390 691 L390 691 Z " />
<glyph glyph-name="Jcircumflex" unicode="&#x134;" horiz-adv-x="480" d="M472 685 C474 695 470 700 460 700 L376 700 C366 700 360 695 358 685 L284 219 C273 144 229 101 162 101 C122 101 92 113 64 132 C61 134 57 136 53 136 C50 136 46 134 42 130 L-9 63 C-15 54 -15 47 -8 42 C35 7 92 -10 156 -10 C293 -10 375 79 397 208 L472 685 L472 685 Z M427 941 C415 941 405 934 396 926 L266 804 C258 797 257 790 264 782 L284 751 C287 747 291 745 295 745 C299 745 303 747 307 751 L442 859 L539 752 C543 748 547 746 551 746 C555 746 558 748 562 751 L592 782 C599 789 602 797 597 804 L504 926 C497 934 491 941 478 941 L427 941 L427 941 Z " />
<glyph glyph-name="jcircumflex" unicode="&#x135;" horiz-adv-x="247" d="M-169 -209 C-174 -218 -173 -224 -166 -229 C-138 -244 -104 -255 -67 -255 C33 -255 96 -190 109 -103 L203 485 C204 495 200 500 190 500 L107 500 C96 500 91 493 90 485 L0 -82 C-7 -125 -29 -147 -66 -147 C-86 -147 -98 -143 -110 -136 C-112 -135 -114 -135 -116 -135 C-121 -135 -125 -137 -128 -142 L-169 -209 L-169 -209 Z M162 746 C150 746 140 739 131 731 L1 609 C-7 602 -8 595 -1 587 L19 556 C22 552 26 550 30 550 C34 550 38 552 42 556 L177 664 L274 557 C278 553 282 551 286 551 C290 551 293 553 297 556 L327 587 C334 594 337 602 332 609 L239 731 C232 739 226 746 213 746 L162 746 L162 746 Z " />
<glyph glyph-name="uni0136" unicode="&#x136;" horiz-adv-x="654" d="M171 -250 C168 -259 171 -263 180 -263 L247 -263 C257 -263 263 -259 266 -251 L335 -62 C337 -53 334 -49 327 -49 L246 -49 C237 -49 232 -53 229 -62 L171 -250 Z M569 0 C581 0 584 5 579 15 L373 413 L664 685 C671 693 672 700 661 700 L550 700 C535 700 526 694 517 685 L195 391 L242 685 C243 695 238 700 229 700 L144 700 C133 700 128 695 127 685 L20 15 C19 5 23 0 33 0 L118 0 C128 0 134 5 135 15 L170 236 L280 335 L447 15 C454 4 458 0 473 0 L569 0 Z " />
<glyph glyph-name="uni0137" unicode="&#x137;" horiz-adv-x="531" d="M116 -250 C113 -259 117 -263 126 -263 L192 -263 C202 -263 208 -259 211 -251 L280 -62 C283 -53 281 -49 272 -49 L191 -49 C183 -49 178 -53 175 -62 L116 -250 Z M332 14 C337 5 346 0 359 0 L452 0 C463 0 466 7 459 16 L319 293 L517 485 C525 492 524 500 515 500 L412 500 C401 500 392 496 385 489 L173 298 L242 735 C244 745 240 750 230 750 L147 750 C137 750 131 745 129 735 L16 15 C14 5 18 0 28 0 L111 0 C121 0 127 5 128 15 L151 154 L223 219 L332 14 Z " />
<glyph glyph-name="kgreenlandic" unicode="&#x138;" horiz-adv-x="528" d="M329 14 C336 3 341 0 356 0 L450 0 C461 0 464 7 457 16 L317 293 L515 485 C522 492 522 500 513 500 L412 500 C401 500 392 496 384 489 L171 298 L201 485 C202 495 197 500 188 500 L105 500 C94 500 89 495 88 485 L13 15 C12 5 16 0 26 0 L109 0 C118 0 124 5 126 15 L148 154 L220 219 L329 14 L329 14 Z " />
<glyph glyph-name="Lacute" unicode="&#x139;" horiz-adv-x="491" d="M399 0 C409 0 415 5 416 15 L430 96 C431 106 426 111 417 111 L150 111 L242 685 C243 695 238 700 229 700 L144 700 C133 700 128 695 127 685 L20 15 C19 5 23 0 33 0 L399 0 L399 0 Z M212 753 C214 752 217 751 219 751 C224 751 228 754 233 759 L351 913 C356 920 356 928 347 931 L280 955 C278 956 276 956 274 956 C268 956 263 953 259 946 L164 794 C159 785 160 779 167 775 L212 753 L212 753 Z " />
<glyph glyph-name="lacute" unicode="&#x13a;" horiz-adv-x="247" d="M115 0 C125 0 131 5 132 15 L246 735 C248 745 244 750 234 750 L151 750 C141 750 135 745 133 735 L20 15 C18 5 22 0 32 0 L115 0 L115 0 Z M213 773 C215 772 218 771 220 771 C225 771 229 774 234 779 L352 933 C357 940 357 948 348 951 L281 975 C279 976 277 976 275 976 C269 976 264 973 260 966 L165 814 C160 805 161 799 168 795 L213 773 L213 773 Z " />
<glyph glyph-name="uni013B" unicode="&#x13b;" horiz-adv-x="491" d="M111 -250 C108 -259 111 -263 120 -263 L187 -263 C197 -263 203 -259 206 -251 L275 -62 C277 -53 274 -49 267 -49 L186 -49 C177 -49 172 -53 169 -62 L111 -250 Z M399 0 C409 0 415 5 416 15 L430 96 C431 106 426 111 417 111 L150 111 L242 685 C243 695 238 700 229 700 L144 700 C133 700 128 695 127 685 L20 15 C19 5 23 0 33 0 L399 0 Z " />
<glyph glyph-name="uni013C" unicode="&#x13c;" horiz-adv-x="258" d="M-52 -250 C-55 -259 -52 -263 -43 -263 L24 -263 C34 -263 40 -259 43 -251 L112 -62 C114 -53 111 -49 104 -49 L23 -49 C14 -49 9 -53 6 -62 L-52 -250 Z M110 0 C120 0 126 5 127 15 L241 735 C243 745 239 750 229 750 L146 750 C136 750 130 745 128 735 L15 15 C13 5 17 0 27 0 L110 0 Z " />
<glyph glyph-name="Lcaron" unicode="&#x13d;" horiz-adv-x="497" d="M364 499 C361 490 364 486 373 486 L440 486 C450 486 456 490 459 498 L528 687 C530 696 527 700 520 700 L439 700 C430 700 425 696 422 687 L364 499 Z M399 0 C409 0 415 5 416 15 L430 96 C431 106 426 111 417 111 L150 111 L242 685 C243 695 238 700 229 700 L144 700 C133 700 128 695 127 685 L20 15 C19 5 23 0 33 0 L399 0 Z " />
<glyph glyph-name="lcaron" unicode="&#x13e;" horiz-adv-x="381" d="M285 549 C282 540 285 536 294 536 L361 536 C371 536 377 540 380 548 L449 737 C452 746 450 750 441 750 L360 750 C352 750 347 746 344 737 L285 549 Z M111 0 C121 0 127 5 128 15 L242 735 C244 745 240 750 230 750 L147 750 C137 750 131 745 129 735 L16 15 C14 5 18 0 28 0 L111 0 Z " />
<glyph glyph-name="Ldot" unicode="&#x13f;" horiz-adv-x="496" d="M399 0 C409 0 415 5 416 15 L430 96 C431 106 426 111 417 111 L150 111 L242 685 C243 695 238 700 229 700 L144 700 C133 700 128 695 127 685 L20 15 C19 5 23 0 33 0 L399 0 L399 0 Z M357 404 C357 367 385 339 422 339 C459 339 488 367 488 404 C488 441 459 470 422 470 C385 470 357 441 357 404 L357 404 Z " />
<glyph glyph-name="ldot" unicode="&#x140;" horiz-adv-x="430" d="M111 0 C121 0 127 5 128 15 L242 735 C244 745 240 750 230 750 L147 750 C137 750 131 745 129 735 L16 15 C14 5 18 0 28 0 L111 0 L111 0 Z M284 381 C284 344 312 316 349 316 C386 316 415 344 415 381 C415 418 386 447 349 447 C312 447 284 418 284 381 L284 381 Z " />
<glyph glyph-name="Lslash" unicode="&#x141;" horiz-adv-x="506" d="M23 15 C22 5 26 0 36 0 L402 0 C412 0 418 5 419 15 L433 96 C434 106 429 111 420 111 L153 111 L188 332 L376 395 C385 399 390 405 389 414 L380 465 C379 471 375 474 370 474 C367 474 365 474 362 473 L202 420 L245 685 C246 695 241 700 232 700 L147 700 C136 700 131 695 130 685 L81 380 L0 353 C-9 350 -13 343 -12 334 L-2 284 C-1 276 3 272 9 272 C11 272 13 273 16 274 L67 292 L23 15 Z " />
<glyph glyph-name="lslash" unicode="&#x142;" horiz-adv-x="340" d="M50 15 C49 5 53 0 63 0 L146 0 C156 0 162 5 163 15 L216 353 L360 402 C363 403 373 409 372 421 L361 475 C359 483 354 485 350 485 C347 485 345 484 344 484 L231 446 L277 735 C279 745 275 750 265 750 L182 750 C172 750 166 745 164 735 L113 407 L-20 361 C-33 357 -32 345 -32 342 L-21 287 C-20 284 -18 276 -10 276 C-8 276 -6 276 -4 277 L97 312 L50 15 Z " />
<glyph glyph-name="Nacute" unicode="&#x143;" horiz-adv-x="729" d="M585 0 C595 0 601 5 602 15 L709 685 C710 695 705 700 696 700 L611 700 C600 700 595 695 594 685 L516 193 L253 685 C246 694 242 700 229 700 L144 700 C133 700 128 695 127 685 L20 15 C19 5 23 0 33 0 L117 0 C127 0 133 5 134 15 L213 507 L476 15 C481 4 486 0 499 0 L585 0 Z M423 753 C425 752 428 751 430 751 C435 751 439 754 444 759 L562 913 C567 920 567 928 558 931 L491 955 C489 956 487 956 485 956 C479 956 474 953 470 946 L375 794 C370 785 371 779 378 775 L423 753 L423 753 Z " />
<glyph glyph-name="nacute" unicode="&#x144;" horiz-adv-x="596" d="M467 0 C477 0 483 5 485 15 L527 280 C548 417 497 510 372 510 C292 510 227 459 192 414 C191 415 204 483 203 485 C205 495 201 500 190 500 L107 500 C98 500 92 495 90 485 L16 15 C14 5 18 0 28 0 L111 0 C121 0 127 5 129 15 L168 259 C179 327 244 402 317 402 C397 402 424 343 411 259 L372 15 C370 5 374 0 384 0 L467 0 L467 0 Z M333 550 C335 549 338 548 340 548 C345 548 349 551 354 556 L472 710 C477 717 477 725 468 728 L401 752 C399 753 397 753 395 753 C389 753 384 750 380 743 L285 591 C280 582 281 576 288 572 L333 550 L333 550 Z " />
<glyph glyph-name="uni0145" unicode="&#x145;" horiz-adv-x="729" d="M209 -250 C206 -259 209 -263 218 -263 L285 -263 C295 -263 301 -259 304 -251 L373 -62 C375 -53 372 -49 365 -49 L284 -49 C275 -49 270 -53 267 -62 L209 -250 Z M585 0 C595 0 601 5 602 15 L709 685 C710 695 705 700 696 700 L611 700 C600 700 595 695 594 685 L516 193 L253 685 C246 694 242 700 229 700 L144 700 C133 700 128 695 127 685 L20 15 C19 5 23 0 33 0 L117 0 C127 0 133 5 134 15 L213 507 L476 15 C481 4 486 0 499 0 L585 0 Z " />
<glyph glyph-name="uni0146" unicode="&#x146;" horiz-adv-x="596" d="M141 -250 C138 -259 141 -263 150 -263 L217 -263 C227 -263 233 -259 236 -251 L305 -62 C308 -53 306 -49 297 -49 L216 -49 C208 -49 203 -53 200 -62 L141 -250 Z M467 0 C477 0 483 5 485 15 L527 280 C548 417 497 510 372 510 C292 510 227 459 192 414 C191 415 204 483 203 485 C205 495 201 500 190 500 L107 500 C98 500 92 495 90 485 L16 15 C14 5 18 0 28 0 L111 0 C121 0 127 5 129 15 L168 259 C179 327 244 402 317 402 C397 402 424 343 411 259 L372 15 C370 5 374 0 384 0 L467 0 Z " />
<glyph glyph-name="Ncaron" unicode="&#x147;" horiz-adv-x="729" d="M585 0 C595 0 601 5 602 15 L709 685 C710 695 705 700 696 700 L611 700 C600 700 595 695 594 685 L516 193 L253 685 C246 694 242 700 229 700 L144 700 C133 700 128 695 127 685 L20 15 C19 5 23 0 33 0 L117 0 C127 0 133 5 134 15 L213 507 L476 15 C481 4 486 0 499 0 L585 0 Z M447 760 C460 760 469 767 478 775 L608 897 C615 904 616 912 610 919 L590 950 C587 954 583 955 580 955 C576 955 571 953 567 949 L433 841 L335 949 C331 953 327 955 323 955 C319 955 316 953 312 950 L282 919 C274 911 272 904 277 897 L370 775 C377 767 384 760 396 760 L447 760 L447 760 Z " />
<glyph glyph-name="ncaron" unicode="&#x148;" horiz-adv-x="597" d="M467 0 C477 0 483 5 485 15 L527 280 C548 417 497 510 372 510 C292 510 227 459 192 414 C191 415 204 483 203 485 C205 495 201 500 190 500 L107 500 C98 500 92 495 90 485 L16 15 C14 5 18 0 28 0 L111 0 C121 0 127 5 129 15 L168 259 C179 327 244 402 317 402 C397 402 424 343 411 259 L372 15 C370 5 374 0 384 0 L467 0 L467 0 Z M356 548 C369 548 378 555 387 563 L517 685 C524 692 525 700 519 707 L499 738 C496 742 492 743 489 743 C485 743 480 741 476 737 L342 629 L244 737 C240 741 236 743 232 743 C228 743 225 741 221 738 L191 707 C183 699 181 692 186 685 L279 563 C286 555 293 548 305 548 L356 548 L356 548 Z " />
<glyph glyph-name="napostrophe" unicode="&#x149;" horiz-adv-x="750" d="M66 549 C65 540 68 536 77 536 L144 536 C153 536 159 540 161 548 L200 737 C201 746 198 750 190 750 L109 750 C100 750 95 746 94 737 L66 549 Z M620 0 C630 0 636 5 638 15 L680 280 C701 417 650 510 525 510 C445 510 380 459 345 414 C344 415 357 483 356 485 C358 495 354 500 343 500 L260 500 C251 500 245 495 243 485 L169 15 C167 5 171 0 181 0 L264 0 C274 0 280 5 282 15 L321 259 C332 327 397 402 470 402 C550 402 577 343 564 259 L525 15 C523 5 527 0 537 0 L620 0 Z " />
<glyph glyph-name="Omacron" unicode="&#x14c;" horiz-adv-x="780" d="M446 710 C229 710 30 527 30 294 C30 114 165 -10 331 -10 C548 -10 748 171 748 406 C748 586 611 710 446 710 L446 710 Z M349 101 C227 101 144 186 144 306 C144 465 283 598 428 598 C552 598 633 513 633 393 C633 236 495 101 349 101 L349 101 Z M316 823 C314 813 318 808 328 808 L596 808 C606 808 612 813 614 823 L624 887 C625 897 620 902 611 902 L343 902 C332 902 327 897 326 887 L316 823 L316 823 Z " />
<glyph glyph-name="omacron" unicode="&#x14d;" horiz-adv-x="557" d="M6 215 C6 83 96 -10 221 -10 C385 -10 519 121 519 284 C519 415 432 510 304 510 C140 510 6 379 6 215 L6 215 Z M117 225 C117 321 194 402 287 402 C364 402 409 344 409 275 C409 178 332 98 239 98 C162 98 117 154 117 225 L117 225 Z M174 626 C172 616 176 611 186 611 L454 611 C464 611 470 616 472 626 L482 690 C483 700 478 705 469 705 L201 705 C190 705 185 700 184 690 L174 626 L174 626 Z " />
<glyph glyph-name="Obreve" unicode="&#x14e;" horiz-adv-x="780" d="M446 710 C229 710 30 527 30 294 C30 114 165 -10 331 -10 C548 -10 748 171 748 406 C748 586 611 710 446 710 L446 710 Z M349 101 C227 101 144 186 144 306 C144 465 283 598 428 598 C552 598 633 513 633 393 C633 236 495 101 349 101 L349 101 Z M632 904 C633 909 630 913 623 915 L571 925 C565 926 561 922 558 915 C549 874 516 842 460 842 C404 842 382 874 385 915 C386 921 384 925 378 925 C377 925 377 925 376 925 L321 915 C313 914 309 910 309 904 C300 811 358 760 447 760 C542 760 613 811 632 904 L632 904 Z " />
<glyph glyph-name="obreve" unicode="&#x14f;" horiz-adv-x="557" d="M6 215 C6 83 96 -10 221 -10 C385 -10 519 121 519 284 C519 415 432 510 304 510 C140 510 6 379 6 215 L6 215 Z M117 225 C117 321 194 402 287 402 C364 402 409 344 409 275 C409 178 332 98 239 98 C162 98 117 154 117 225 L117 225 Z M495 716 C496 721 493 725 486 727 L434 737 C428 738 424 734 421 727 C412 686 379 654 323 654 C267 654 245 686 248 727 C249 733 247 737 241 737 C240 737 240 737 239 737 L184 727 C176 726 172 722 172 716 C163 623 221 572 310 572 C405 572 476 623 495 716 L495 716 Z " />
<glyph glyph-name="Ohungarumlaut" unicode="&#x150;" horiz-adv-x="780" d="M446 710 C229 710 30 527 30 294 C30 114 165 -10 331 -10 C548 -10 748 171 748 406 C748 586 611 710 446 710 L446 710 Z M349 101 C227 101 144 186 144 306 C144 465 283 598 428 598 C552 598 633 513 633 393 C633 236 495 101 349 101 L349 101 Z M369 754 C372 753 374 753 376 753 C382 753 387 755 391 761 L481 913 C485 920 484 928 475 931 L409 954 C407 955 404 955 402 955 C396 955 391 952 389 945 L318 792 C315 785 317 776 326 772 L369 754 L369 754 Z M549 754 C552 753 554 753 556 753 C562 753 567 755 571 761 L665 912 C669 919 669 927 658 930 L589 954 C587 955 584 955 582 955 C576 955 571 952 569 945 L498 792 C495 785 497 776 506 772 L549 754 L549 754 Z " />
<glyph glyph-name="ohungarumlaut" unicode="&#x151;" horiz-adv-x="557" d="M6 215 C6 83 96 -10 221 -10 C385 -10 519 121 519 284 C519 415 432 510 304 510 C140 510 6 379 6 215 L6 215 Z M117 225 C117 321 194 402 287 402 C364 402 409 344 409 275 C409 178 332 98 239 98 C162 98 117 154 117 225 L117 225 Z M226 545 C229 544 231 544 233 544 C239 544 244 546 248 552 L338 704 C342 711 341 719 332 722 L266 745 C264 746 261 746 259 746 C253 746 248 743 246 736 L175 583 C172 576 174 567 183 563 L226 545 L226 545 Z M406 545 C409 544 411 544 413 544 C419 544 424 546 428 552 L522 703 C526 710 526 718 515 721 L446 745 C444 746 441 746 439 746 C433 746 428 743 426 736 L355 583 C352 576 354 567 363 563 L406 545 L406 545 Z " />
<glyph glyph-name="OE" unicode="&#x152;" horiz-adv-x="1142" d="M348 101 C227 101 145 186 145 306 C145 465 283 598 427 598 C552 598 632 513 632 393 C632 251 497 101 348 101 L348 101 Z M1017 -10 C1028 -10 1035 -5 1037 5 L1049 86 C1051 96 1046 101 1035 101 L580 101 C669 149 714 229 730 295 L1030 295 C1041 295 1048 300 1050 310 L1062 391 C1064 401 1059 406 1048 406 L747 406 C754 486 724 558 657 598 L1114 598 C1125 598 1132 603 1133 614 L1146 694 C1147 705 1143 710 1132 710 L446 710 C229 710 30 527 30 294 C30 114 166 -10 339 -10 L1017 -10 L1017 -10 Z " />
<glyph glyph-name="oe" unicode="&#x153;" horiz-adv-x="936" d="M407 256 C396 167 323 98 238 98 C162 98 117 154 117 225 C117 321 194 402 286 402 C369 402 418 336 407 256 L407 256 Z M437 97 C468 36 534 -10 622 -10 C698 -10 760 10 815 41 C824 46 826 52 823 61 L794 114 C792 118 788 121 783 121 C780 121 777 120 773 118 C730 97 692 86 641 86 C558 86 509 139 510 211 L876 211 C888 211 895 218 896 229 C915 378 850 510 692 510 C614 510 530 474 479 404 C447 471 387 510 303 510 C140 510 6 379 6 215 C6 83 96 -10 220 -10 C312 -10 384 26 437 97 L437 97 Z M522 294 C541 363 602 421 678 421 C751 421 791 375 794 294 L522 294 Z " />
<glyph glyph-name="Racute" unicode="&#x154;" horiz-adv-x="588" d="M331 595 C410 595 456 554 456 489 C456 408 385 345 294 345 L188 345 L203 440 C211 493 220 555 227 595 L331 595 L331 595 Z M381 258 C445 274 571 354 571 499 C571 613 484 700 364 700 L145 700 C135 700 129 695 128 685 L21 15 C19 5 23 0 34 0 L118 0 C128 0 134 5 135 15 L172 240 L261 240 L379 15 C384 5 392 0 403 0 L496 0 C509 0 512 5 507 16 L381 258 L381 258 Z M343 753 C345 752 348 751 350 751 C355 751 359 754 364 759 L482 913 C487 920 487 928 478 931 L411 955 C409 956 407 956 405 956 C399 956 394 953 390 946 L295 794 C290 785 291 779 298 775 L343 753 L343 753 Z " />
<glyph glyph-name="racute" unicode="&#x155;" horiz-adv-x="403" d="M107 500 C98 500 92 495 90 485 C63 318 43 182 16 15 C14 5 18 0 28 0 L111 0 C121 0 127 5 129 15 L164 235 C180 331 249 399 314 399 C329 399 344 397 358 392 C361 391 364 390 366 390 C371 390 376 393 379 398 L414 474 C419 485 419 493 412 496 C391 507 364 510 341 510 C278 510 218 457 191 406 L203 485 C206 493 201 500 190 500 L107 500 L107 500 Z M274 550 C276 549 279 548 281 548 C286 548 290 551 295 556 L413 710 C418 717 418 725 409 728 L342 752 C340 753 338 753 336 753 C330 753 325 750 321 743 L226 591 C221 582 222 576 229 572 L274 550 L274 550 Z " />
<glyph glyph-name="uni0156" unicode="&#x156;" horiz-adv-x="588" d="M143 -250 C140 -259 143 -263 152 -263 L219 -263 C229 -263 235 -259 238 -251 L307 -62 C309 -53 306 -49 299 -49 L218 -49 C209 -49 204 -53 201 -62 L143 -250 Z M331 595 C410 595 456 554 456 489 C456 408 385 345 294 345 L188 345 L203 440 C211 493 220 555 227 595 L331 595 Z M381 258 C445 274 571 354 571 499 C571 613 484 700 364 700 L145 700 C135 700 129 695 128 685 L21 15 C19 5 23 0 34 0 L118 0 C128 0 134 5 135 15 L172 240 L261 240 L379 15 C384 5 392 0 403 0 L496 0 C509 0 512 5 507 16 L381 258 Z " />
<glyph glyph-name="uni0157" unicode="&#x157;" horiz-adv-x="407" d="M-47 -250 C-50 -259 -47 -263 -38 -263 L29 -263 C39 -263 45 -259 48 -251 L117 -62 C120 -53 118 -49 109 -49 L28 -49 C20 -49 15 -53 12 -62 L-47 -250 Z M110 500 C101 500 95 495 93 485 C66 318 46 182 19 15 C17 5 21 0 31 0 L114 0 C124 0 130 5 132 15 L167 235 C183 331 252 399 317 399 C332 399 347 397 361 392 C364 391 367 390 369 390 C374 390 379 393 382 398 L417 474 C422 485 422 493 415 496 C394 507 367 510 344 510 C281 510 221 457 194 406 L206 485 C209 493 204 500 193 500 L110 500 Z " />
<glyph glyph-name="Rcaron" unicode="&#x158;" horiz-adv-x="589" d="M331 595 C410 595 456 554 456 489 C456 408 385 345 294 345 L188 345 L203 440 C211 493 220 555 227 595 L331 595 L331 595 Z M381 258 C445 274 571 354 571 499 C571 613 484 700 364 700 L145 700 C135 700 129 695 128 685 L21 15 C19 5 23 0 34 0 L118 0 C128 0 134 5 135 15 L172 240 L261 240 L379 15 C384 5 392 0 403 0 L496 0 C509 0 512 5 507 16 L381 258 L381 258 Z M383 760 C396 760 405 767 414 775 L544 897 C551 904 552 912 546 919 L526 950 C523 954 519 955 516 955 C512 955 507 953 503 949 L369 841 L271 949 C267 953 263 955 259 955 C255 955 252 953 248 950 L218 919 C210 911 208 904 213 897 L306 775 C313 767 320 760 332 760 L383 760 L383 760 Z " />
<glyph glyph-name="rcaron" unicode="&#x159;" horiz-adv-x="410" d="M107 500 C98 500 92 495 90 485 C63 318 43 182 16 15 C14 5 18 0 28 0 L111 0 C121 0 127 5 129 15 L164 235 C180 331 249 399 314 399 C329 399 344 397 358 392 C361 391 364 390 366 390 C371 390 376 393 379 398 L414 474 C419 485 419 493 412 496 C391 507 364 510 341 510 C278 510 218 457 191 406 L203 485 C206 493 201 500 190 500 L107 500 L107 500 Z M288 554 C301 554 310 561 319 569 L449 691 C456 698 457 706 451 713 L431 744 C428 748 424 749 421 749 C417 749 412 747 408 743 L274 635 L176 743 C172 747 168 749 164 749 C160 749 157 747 153 744 L123 713 C115 705 113 698 118 691 L211 569 C218 561 225 554 237 554 L288 554 L288 554 Z " />
<glyph glyph-name="Sacute" unicode="&#x15a;" horiz-adv-x="542" d="M517 631 C524 639 524 646 516 652 C456 692 396 710 324 710 C188 710 80 629 80 509 C80 293 364 339 364 203 C364 150 321 100 233 100 C177 100 119 122 76 161 C72 164 68 166 65 166 C60 166 56 163 52 158 L0 94 C-7 85 -6 78 1 72 C60 20 136 -10 224 -10 C389 -10 479 104 479 214 C479 438 195 392 195 515 C195 567 248 600 309 600 C360 600 391 586 438 559 C442 557 446 556 449 556 C454 556 458 558 461 563 L517 631 Z M347 753 C349 752 352 751 354 751 C359 751 363 754 368 759 L486 913 C491 920 491 928 482 931 L415 955 C413 956 411 956 409 956 C403 956 398 953 394 946 L299 794 C294 785 295 779 302 775 L347 753 L347 753 Z " />
<glyph glyph-name="sacute" unicode="&#x15b;" horiz-adv-x="425" d="M60 132 C56 136 52 137 48 137 C44 137 40 136 36 132 L-12 89 C-20 81 -24 72 -17 65 C22 17 91 -10 163 -10 C286 -10 366 65 366 159 C366 326 145 289 145 363 C145 398 180 412 219 412 C252 412 282 406 313 383 C317 380 320 378 324 378 C328 378 331 380 336 384 L388 431 C395 438 396 445 391 452 C362 483 300 510 232 510 C133 510 40 447 40 356 C40 194 260 232 260 144 C260 109 225 87 169 87 C125 87 92 101 60 132 L60 132 Z M260 550 C262 549 265 548 267 548 C272 548 276 551 281 556 L399 710 C404 717 404 725 395 728 L328 752 C326 753 324 753 322 753 C316 753 311 750 307 743 L212 591 C207 582 208 576 215 572 L260 550 L260 550 Z " />
<glyph glyph-name="Scircumflex" unicode="&#x15c;" horiz-adv-x="543" d="M517 631 C524 639 524 646 516 652 C456 692 396 710 324 710 C188 710 80 629 80 509 C80 293 364 339 364 203 C364 150 321 100 233 100 C177 100 119 122 76 161 C72 164 68 166 65 166 C60 166 56 163 52 158 L0 94 C-7 85 -6 78 1 72 C60 20 136 -10 224 -10 C389 -10 479 104 479 214 C479 438 195 392 195 515 C195 567 248 600 309 600 C360 600 391 586 438 559 C442 557 446 556 449 556 C454 556 458 558 461 563 L517 631 Z M347 941 C335 941 325 934 316 926 L186 804 C178 797 177 790 184 782 L204 751 C207 747 211 745 215 745 C219 745 223 747 227 751 L362 859 L459 752 C463 748 467 746 471 746 C475 746 478 748 482 751 L512 782 C519 789 522 797 517 804 L424 926 C417 934 411 941 398 941 L347 941 L347 941 Z " />
<glyph glyph-name="scircumflex" unicode="&#x15d;" horiz-adv-x="441" d="M60 132 C56 136 52 137 48 137 C44 137 40 136 36 132 L-12 89 C-20 81 -24 72 -17 65 C22 17 91 -10 163 -10 C286 -10 366 65 366 159 C366 326 145 289 145 363 C145 398 180 412 219 412 C252 412 282 406 313 383 C317 380 320 378 324 378 C328 378 331 380 336 384 L388 431 C395 438 396 445 391 452 C362 483 300 510 232 510 C133 510 40 447 40 356 C40 194 260 232 260 144 C260 109 225 87 169 87 C125 87 92 101 60 132 L60 132 Z M253 746 C241 746 231 739 222 731 L92 609 C84 602 83 595 90 587 L110 556 C113 552 117 550 121 550 C125 550 129 552 133 556 L268 664 L365 557 C369 553 373 551 377 551 C381 551 384 553 388 556 L418 587 C425 594 428 602 423 609 L330 731 C323 739 317 746 304 746 L253 746 L253 746 Z " />
<glyph glyph-name="Scedilla" unicode="&#x15e;" horiz-adv-x="542" d="M120 -163 C117 -170 121 -176 129 -176 L205 -176 C214 -176 221 -172 224 -164 L276 -5 C397 11 479 107 479 214 C479 438 195 392 195 515 C195 567 251 600 308 600 C364 600 402 580 437 559 C441 557 445 556 448 556 C453 556 457 558 461 563 L517 631 C524 639 524 646 516 652 C459 691 394 710 323 710 C187 710 80 629 80 509 C80 293 364 339 364 203 C364 152 325 100 229 100 C173 100 115 126 76 161 C72 164 68 166 65 166 C60 166 56 163 52 158 L0 94 C-8 85 -4 77 1 72 C48 31 104 0 188 -7 L120 -163 L120 -163 Z " />
<glyph glyph-name="scedilla" unicode="&#x15f;" horiz-adv-x="428" d="M217 -4 C301 12 366 75 366 159 C366 326 145 289 145 363 C145 398 180 412 219 412 C252 412 282 406 313 383 C317 381 321 379 325 379 C329 379 332 381 336 384 L388 431 C395 438 397 445 392 452 C361 483 300 510 232 510 C132 510 40 447 40 356 C40 194 260 232 260 144 C260 109 225 87 169 87 C125 87 92 101 60 132 C57 136 53 137 49 137 C45 137 41 136 36 132 L-12 89 C-21 80 -22 72 -17 65 C12 29 64 0 132 -7 L64 -163 C61 -170 65 -176 73 -176 L146 -176 C156 -176 162 -172 165 -164 L217 -4 L217 -4 Z " />
<glyph glyph-name="Scaron" unicode="&#x160;" horiz-adv-x="555" d="M517 631 C524 639 524 646 516 652 C456 692 396 710 324 710 C188 710 80 629 80 509 C80 293 364 339 364 203 C364 150 321 100 233 100 C177 100 119 122 76 161 C72 164 68 166 65 166 C60 166 56 163 52 158 L0 94 C-7 85 -6 78 1 72 C60 20 136 -10 224 -10 C389 -10 479 104 479 214 C479 438 195 392 195 515 C195 567 248 600 309 600 C360 600 391 586 438 559 C442 557 446 556 449 556 C454 556 458 558 461 563 L517 631 Z M367 760 C380 760 389 767 398 775 L528 897 C535 904 536 912 530 919 L510 950 C507 954 503 955 500 955 C496 955 491 953 487 949 L353 841 L255 949 C251 953 247 955 243 955 C239 955 236 953 232 950 L202 919 C194 911 192 904 197 897 L290 775 C297 767 304 760 316 760 L367 760 L367 760 Z " />
<glyph glyph-name="scaron" unicode="&#x161;" horiz-adv-x="431" d="M60 132 C56 136 52 137 48 137 C44 137 40 136 36 132 L-12 89 C-20 81 -24 72 -17 65 C22 17 91 -10 163 -10 C286 -10 366 65 366 159 C366 326 145 289 145 363 C145 398 180 412 219 412 C252 412 282 406 313 383 C317 380 320 378 324 378 C328 378 331 380 336 384 L388 431 C395 438 396 445 391 452 C362 483 300 510 232 510 C133 510 40 447 40 356 C40 194 260 232 260 144 C260 109 225 87 169 87 C125 87 92 101 60 132 L60 132 Z M279 554 C292 554 301 561 310 569 L440 691 C447 698 448 706 442 713 L422 744 C419 748 415 749 412 749 C408 749 403 747 399 743 L265 635 L167 743 C163 747 159 749 155 749 C151 749 148 747 144 744 L114 713 C106 705 104 698 109 691 L202 569 C209 561 216 554 228 554 L279 554 L279 554 Z " />
<glyph glyph-name="uni0162" unicode="&#x162;" horiz-adv-x="528" d="M86 -250 C83 -259 86 -263 95 -263 L162 -263 C172 -263 178 -259 181 -251 L250 -62 C253 -53 251 -49 242 -49 L161 -49 C153 -49 148 -53 145 -62 L86 -250 Z M250 0 C260 0 266 5 267 15 L358 588 L546 588 C556 588 562 593 564 603 L577 685 C579 695 575 700 564 700 L64 700 C53 700 48 695 47 685 L33 603 C32 593 36 588 46 588 L244 588 L153 15 C151 5 155 0 166 0 L250 0 Z " />
<glyph glyph-name="uni0163" unicode="&#x163;" horiz-adv-x="372" d="M35 -250 C32 -259 35 -263 44 -263 L111 -263 C121 -263 127 -259 130 -251 L199 -62 C201 -53 198 -49 191 -49 L110 -49 C101 -49 96 -53 93 -62 L35 -250 Z M282 108 C280 113 277 115 274 115 C272 115 269 114 267 113 C246 102 229 98 208 98 C176 98 154 113 161 150 L201 396 L322 396 C331 396 337 401 339 411 L351 485 C352 495 348 500 338 500 L217 500 L238 633 C239 641 237 648 226 648 L143 648 C132 648 126 643 125 633 L104 500 L54 500 C43 500 38 495 37 485 L25 411 C23 401 27 396 38 396 L88 396 L46 136 C31 48 83 -10 176 -10 C215 -10 254 0 293 20 C302 25 305 32 303 39 L282 108 Z " />
<glyph glyph-name="Tcaron" unicode="&#x164;" horiz-adv-x="528" d="M250 0 C260 0 266 5 267 15 L358 588 L546 588 C556 588 562 593 564 603 L577 685 C579 695 575 700 564 700 L64 700 C53 700 48 695 47 685 L33 603 C32 593 36 588 46 588 L244 588 L153 15 C151 5 155 0 166 0 L250 0 L250 0 Z M348 760 C361 760 370 767 379 775 L509 897 C516 904 517 912 511 919 L491 950 C488 954 484 955 481 955 C477 955 472 953 468 949 L334 841 L236 949 C232 953 228 955 224 955 C220 955 217 953 213 950 L183 919 C175 911 173 904 178 897 L271 775 C278 767 285 760 297 760 L348 760 L348 760 Z " />
<glyph glyph-name="tcaron" unicode="&#x165;" horiz-adv-x="426" d="M307 571 C306 564 311 559 318 559 L385 559 C394 559 400 563 402 571 L441 760 C443 768 440 772 431 772 L350 772 C342 772 337 768 336 759 L307 571 Z M282 108 C280 113 277 115 274 115 C272 115 269 114 267 113 C246 102 229 98 208 98 C176 98 154 113 161 150 L201 396 L322 396 C331 396 337 401 339 411 L351 485 C352 495 348 500 338 500 L217 500 L238 633 C239 641 237 648 226 648 L143 648 C132 648 126 643 125 633 L104 500 L54 500 C43 500 38 495 37 485 L25 411 C23 401 27 396 38 396 L88 396 L46 136 C31 48 83 -10 176 -10 C215 -10 254 0 293 20 C302 25 305 32 303 39 L282 108 Z " />
<glyph glyph-name="Tbar" unicode="&#x166;" horiz-adv-x="541" d="M165 15 C164 5 168 0 178 0 L263 0 C272 0 278 5 280 15 L321 271 L480 271 C490 271 496 276 497 286 L511 368 C512 378 507 383 498 383 L338 383 L371 588 L559 588 C569 588 575 593 576 603 L590 685 C591 695 586 700 577 700 L76 700 C67 700 61 695 59 685 L46 603 C44 593 48 588 58 588 L256 588 L224 383 L64 383 C53 383 48 378 47 368 L33 286 C32 276 36 271 46 271 L206 271 L165 15 Z " />
<glyph glyph-name="tbar" unicode="&#x167;" horiz-adv-x="378" d="M259 243 C268 243 274 250 275 258 L279 282 C281 292 277 297 267 297 L191 297 L207 396 L329 396 C338 396 344 401 345 411 L357 485 C359 495 355 500 344 500 L223 500 L244 633 C247 641 243 648 232 648 L149 648 C139 648 133 643 131 633 L110 500 L60 500 C51 500 45 495 43 485 L31 411 C30 400 36 396 44 396 L94 396 L78 297 L46 297 C36 297 30 292 28 282 L24 258 C23 247 29 243 37 243 L70 243 L53 136 C40 48 90 -10 182 -10 C222 -10 256 -1 300 20 C311 25 312 31 309 39 L288 108 C286 113 283 115 280 115 C278 115 275 114 273 113 C253 102 237 98 214 98 C183 98 161 113 168 150 L183 243 L259 243 Z " />
<glyph glyph-name="Utilde" unicode="&#x168;" horiz-adv-x="660" d="M124 700 C114 700 108 695 106 685 L41 269 C17 120 94 -10 278 -10 C446 -10 564 112 588 269 L653 685 C655 695 651 700 641 700 L557 700 C547 700 541 695 539 685 L476 289 C457 173 395 101 288 101 C183 101 139 173 158 289 L221 685 C223 695 219 700 209 700 L124 700 L124 700 Z M479 870 C431 870 421 929 353 929 C318 929 272 905 235 874 C224 867 223 862 223 851 L219 798 C219 792 221 788 225 788 C227 788 230 790 234 793 C265 818 302 847 333 847 C380 847 394 788 458 788 C493 788 539 812 578 843 C587 850 588 855 589 866 L592 919 C592 925 590 928 586 928 C584 928 581 927 578 924 C547 899 508 870 479 870 L479 870 Z " />
<glyph glyph-name="utilde" unicode="&#x169;" horiz-adv-x="587" d="M87 500 C77 500 71 495 70 485 L28 219 C7 82 58 -10 183 -10 C264 -10 326 40 363 88 C364 87 351 16 351 15 C350 5 354 0 364 0 L447 0 C457 0 463 5 464 15 L539 485 C540 495 536 500 526 500 L443 500 C433 500 427 495 426 485 L387 241 C376 172 311 98 238 98 C157 98 131 157 144 240 L183 485 C184 495 180 500 170 500 L87 500 L87 500 Z M404 678 C356 678 346 737 278 737 C243 737 197 713 160 682 C149 675 148 670 148 659 L144 606 C144 600 146 596 150 596 C152 596 155 598 159 601 C190 626 227 655 258 655 C305 655 319 596 383 596 C418 596 464 620 503 651 C512 658 513 663 514 674 L517 727 C517 733 515 736 511 736 C509 736 506 735 503 732 C472 707 433 678 404 678 L404 678 Z " />
<glyph glyph-name="Umacron" unicode="&#x16a;" horiz-adv-x="660" d="M124 700 C114 700 108 695 106 685 L41 269 C17 120 94 -10 278 -10 C446 -10 564 112 588 269 L653 685 C655 695 651 700 641 700 L557 700 C547 700 541 695 539 685 L476 289 C457 173 395 101 288 101 C183 101 139 173 158 289 L221 685 C223 695 219 700 209 700 L124 700 L124 700 Z M250 823 C248 813 252 808 262 808 L530 808 C540 808 546 813 548 823 L558 887 C559 897 554 902 545 902 L277 902 C266 902 261 897 260 887 L250 823 L250 823 Z " />
<glyph glyph-name="umacron" unicode="&#x16b;" horiz-adv-x="585" d="M87 500 C77 500 71 495 70 485 L28 219 C7 82 58 -10 183 -10 C264 -10 326 40 363 88 C364 87 351 16 351 15 C350 5 354 0 364 0 L447 0 C457 0 463 5 464 15 L539 485 C540 495 536 500 526 500 L443 500 C433 500 427 495 426 485 L387 241 C376 172 311 98 238 98 C157 98 131 157 144 240 L183 485 C184 495 180 500 170 500 L87 500 L87 500 Z M171 626 C169 616 173 611 183 611 L451 611 C461 611 467 616 469 626 L479 690 C480 700 475 705 466 705 L198 705 C187 705 182 700 181 690 L171 626 L171 626 Z " />
<glyph glyph-name="Ubreve" unicode="&#x16c;" horiz-adv-x="660" d="M124 700 C114 700 108 695 106 685 L41 269 C17 120 94 -10 278 -10 C446 -10 564 112 588 269 L653 685 C655 695 651 700 641 700 L557 700 C547 700 541 695 539 685 L476 289 C457 173 395 101 288 101 C183 101 139 173 158 289 L221 685 C223 695 219 700 209 700 L124 700 L124 700 Z M567 904 C568 909 565 913 558 915 L506 925 C500 926 496 922 493 915 C484 874 451 842 395 842 C339 842 317 874 320 915 C321 921 319 925 313 925 C312 925 312 925 311 925 L256 915 C248 914 244 910 244 904 C235 811 293 760 382 760 C477 760 548 811 567 904 L567 904 Z " />
<glyph glyph-name="ubreve" unicode="&#x16d;" horiz-adv-x="585" d="M87 500 C77 500 71 495 70 485 L28 219 C7 82 58 -10 183 -10 C264 -10 326 40 363 88 C364 87 351 16 351 15 C350 5 354 0 364 0 L447 0 C457 0 463 5 464 15 L539 485 C540 495 536 500 526 500 L443 500 C433 500 427 495 426 485 L387 241 C376 172 311 98 238 98 C157 98 131 157 144 240 L183 485 C184 495 180 500 170 500 L87 500 L87 500 Z M492 703 C493 708 490 712 483 714 L431 724 C425 725 421 721 418 714 C409 673 376 641 320 641 C264 641 242 673 245 714 C246 720 244 724 238 724 C237 724 237 724 236 724 L181 714 C173 713 169 709 169 703 C160 610 218 559 307 559 C402 559 473 610 492 703 L492 703 Z " />
<glyph glyph-name="Uring" unicode="&#x16e;" horiz-adv-x="660" d="M124 700 C114 700 108 695 106 685 L41 269 C17 120 94 -10 278 -10 C446 -10 564 112 588 269 L653 685 C655 695 651 700 641 700 L557 700 C547 700 541 695 539 685 L476 289 C457 173 395 101 288 101 C183 101 139 173 158 289 L221 685 C223 695 219 700 209 700 L124 700 L124 700 Z M272 861 C272 795 326 741 391 741 C457 741 510 795 510 861 C510 926 457 980 391 980 C326 980 272 926 272 861 L272 861 Z M343 861 C343 888 364 910 391 910 C418 910 440 888 440 861 C440 834 418 812 391 812 C364 812 343 834 343 861 L343 861 Z " />
<glyph glyph-name="uring" unicode="&#x16f;" horiz-adv-x="585" d="M87 500 C77 500 71 495 70 485 L28 219 C7 82 58 -10 183 -10 C264 -10 326 40 363 88 C364 87 351 16 351 15 C350 5 354 0 364 0 L447 0 C457 0 463 5 464 15 L539 485 C540 495 536 500 526 500 L443 500 C433 500 427 495 426 485 L387 241 C376 172 311 98 238 98 C157 98 131 157 144 240 L183 485 C184 495 180 500 170 500 L87 500 L87 500 Z M201 670 C201 604 255 550 320 550 C386 550 439 604 439 670 C439 735 386 789 320 789 C255 789 201 735 201 670 L201 670 Z M272 670 C272 697 293 719 320 719 C347 719 369 697 369 670 C369 643 347 621 320 621 C293 621 272 643 272 670 L272 670 Z " />
<glyph glyph-name="Uhungarumlaut" unicode="&#x170;" horiz-adv-x="660" d="M124 700 C114 700 108 695 106 685 L41 269 C17 120 94 -10 278 -10 C446 -10 564 112 588 269 L653 685 C655 695 651 700 641 700 L557 700 C547 700 541 695 539 685 L476 289 C457 173 395 101 288 101 C183 101 139 173 158 289 L221 685 C223 695 219 700 209 700 L124 700 L124 700 Z M299 754 C302 753 304 753 306 753 C312 753 317 755 321 761 L411 913 C415 920 414 928 405 931 L339 954 C337 955 334 955 332 955 C326 955 321 952 319 945 L248 792 C245 785 247 776 256 772 L299 754 L299 754 Z M479 754 C482 753 484 753 486 753 C492 753 497 755 501 761 L595 912 C599 919 599 927 588 930 L519 954 C517 955 514 955 512 955 C506 955 501 952 499 945 L428 792 C425 785 427 776 436 772 L479 754 L479 754 Z " />
<glyph glyph-name="uhungarumlaut" unicode="&#x171;" horiz-adv-x="585" d="M87 500 C77 500 71 495 70 485 L28 219 C7 82 58 -10 183 -10 C264 -10 326 40 363 88 C364 87 351 16 351 15 C350 5 354 0 364 0 L447 0 C457 0 463 5 464 15 L539 485 C540 495 536 500 526 500 L443 500 C433 500 427 495 426 485 L387 241 C376 172 311 98 238 98 C157 98 131 157 144 240 L183 485 C184 495 180 500 170 500 L87 500 L87 500 Z M223 535 C226 534 228 534 230 534 C236 534 241 536 245 542 L335 694 C339 701 338 709 329 712 L263 735 C261 736 258 736 256 736 C250 736 245 733 243 726 L172 573 C169 566 171 557 180 553 L223 535 L223 535 Z M403 535 C406 534 408 534 410 534 C416 534 421 536 425 542 L519 693 C523 700 523 708 512 711 L443 735 C441 736 438 736 436 736 C430 736 425 733 423 726 L352 573 C349 566 351 557 360 553 L403 535 L403 535 Z " />
<glyph glyph-name="Uogonek" unicode="&#x172;" horiz-adv-x="661" d="M236 -7 C150 -84 173 -200 289 -200 C301 -200 314 -198 327 -196 C334 -195 338 -190 339 -183 L346 -129 C347 -123 345 -120 339 -120 C339 -120 338 -120 337 -120 C330 -121 323 -122 317 -122 C250 -122 254 -47 307 -9 C478 7 567 136 588 269 L654 685 C656 695 652 700 641 700 L557 700 C546 700 541 695 540 685 L477 289 C458 170 392 101 288 101 C184 101 140 172 159 289 L222 685 C223 695 218 700 209 700 L124 700 C115 700 109 695 107 685 L41 269 C17 118 99 6 236 -7 L236 -7 Z " />
<glyph glyph-name="uogonek" unicode="&#x173;" horiz-adv-x="584" d="M352 23 C351 15 352 1 359 0 L380 0 C283 -73 303 -199 425 -199 C436 -199 448 -198 461 -196 C467 -195 471 -191 472 -184 L480 -129 C481 -123 479 -120 473 -120 C472 -120 471 -120 470 -120 C463 -121 456 -122 451 -122 C382 -122 391 -41 452 0 C460 0 461 6 464 15 L538 484 C540 495 536 500 525 500 L442 500 C433 500 427 495 425 485 L386 241 C375 171 310 98 237 98 C156 98 130 160 143 240 L182 485 C183 495 179 500 169 500 L86 500 C77 500 71 495 69 485 L27 219 C6 81 57 -10 182 -10 C262 -10 327 43 362 88 L352 23 L352 23 Z " />
<glyph glyph-name="Wcircumflex" unicode="&#x174;" horiz-adv-x="927" d="M668 0 C679 0 686 5 689 15 L962 684 C967 695 964 700 954 700 L860 700 C849 700 842 695 838 684 L637 184 L581 688 C579 696 574 700 566 700 L467 700 C458 700 451 696 448 688 L232 184 L190 684 C189 695 185 700 173 700 L79 700 C68 700 64 695 67 684 L128 15 C129 5 134 0 145 0 L250 0 C262 0 270 5 273 15 L489 524 L544 15 C545 5 551 0 563 0 L668 0 L668 0 Z M529 941 C517 941 507 934 498 926 L368 804 C360 797 359 790 366 782 L386 751 C389 747 393 745 397 745 C401 745 405 747 409 751 L544 859 L641 752 C645 748 649 746 653 746 C657 746 660 748 664 751 L694 782 C701 789 704 797 699 804 L606 926 C599 934 593 941 580 941 L529 941 L529 941 Z " />
<glyph glyph-name="wcircumflex" unicode="&#x175;" horiz-adv-x="702" d="M139 485 C138 495 133 500 124 500 L40 500 C31 500 28 495 29 485 L65 17 C66 6 72 0 82 0 L188 0 C200 0 207 8 211 17 L350 362 L380 17 C383 8 387 0 398 0 L503 0 C514 0 520 6 525 17 L710 485 C715 495 712 500 703 500 L619 500 C610 500 604 495 599 485 L467 149 L432 483 C431 494 425 500 416 500 L326 500 C317 500 310 494 305 483 L235 315 C201 229 165 149 165 149 L139 485 L139 485 Z M384 730 C372 730 362 723 353 715 L223 593 C215 586 214 579 221 571 L241 540 C244 536 248 534 252 534 C256 534 260 536 264 540 L399 648 L496 541 C500 537 504 535 508 535 C512 535 515 537 519 540 L549 571 C556 578 559 586 554 593 L461 715 C454 723 448 730 435 730 L384 730 L384 730 Z " />
<glyph glyph-name="Ycircumflex" unicode="&#x176;" horiz-adv-x="564" d="M176 691 C173 697 167 700 160 700 L63 700 C52 700 50 693 55 685 L221 341 L169 15 C168 5 172 0 182 0 L266 0 C276 0 282 5 283 15 L335 341 L610 685 C615 692 616 700 605 700 L504 700 C497 700 491 697 486 691 L290 446 L176 691 L176 691 Z M349 941 C337 941 327 934 318 926 L188 804 C180 797 179 790 186 782 L206 751 C209 747 213 745 217 745 C221 745 225 747 229 751 L364 859 L461 752 C465 748 469 746 473 746 C477 746 480 748 484 751 L514 782 C521 789 524 797 519 804 L426 926 C419 934 413 941 400 941 L349 941 L349 941 Z " />
<glyph glyph-name="ycircumflex" unicode="&#x177;" horiz-adv-x="589" d="M543 485 C544 495 540 500 530 500 L447 500 C437 500 431 495 430 485 L391 244 C380 182 317 108 243 108 C163 108 136 166 149 250 L187 485 C188 495 184 500 174 500 L91 500 C81 500 75 495 74 485 L33 229 C12 92 61 0 188 0 C265 0 339 48 368 93 L354 10 C341 -73 285 -147 181 -147 C125 -147 82 -124 59 -88 C57 -86 54 -84 51 -84 C48 -84 45 -86 40 -90 L-13 -148 C-20 -155 -20 -161 -15 -168 C17 -217 89 -255 170 -255 C341 -255 445 -138 469 21 L543 485 L543 485 Z M322 746 C310 746 300 739 291 731 L161 609 C153 602 152 595 159 587 L179 556 C182 552 186 550 190 550 C194 550 198 552 202 556 L337 664 L434 557 C438 553 442 551 446 551 C450 551 453 553 457 556 L487 587 C494 594 497 602 492 609 L399 731 C392 739 386 746 373 746 L322 746 L322 746 Z " />
<glyph glyph-name="Ydieresis" unicode="&#x178;" horiz-adv-x="564" d="M176 691 C173 697 167 700 160 700 L63 700 C52 700 50 693 55 685 L221 341 L169 15 C168 5 172 0 182 0 L266 0 C276 0 282 5 283 15 L335 341 L610 685 C615 692 616 700 605 700 L504 700 C497 700 491 697 486 691 L290 446 L176 691 L176 691 Z M179 838 C179 802 208 773 244 773 C280 773 309 802 309 838 C309 874 280 903 244 903 C208 903 179 874 179 838 L179 838 Z M395 838 C395 802 422 773 459 773 C496 773 525 802 525 838 C525 874 496 903 459 903 C422 903 395 874 395 838 L395 838 Z " />
<glyph glyph-name="Zacute" unicode="&#x179;" horiz-adv-x="599" d="M-15 15 C-16 5 -12 0 -3 0 L488 0 C498 0 504 5 505 15 L518 97 C520 107 516 112 506 112 L153 112 L581 593 C586 600 586 602 589 613 L601 685 C602 695 597 700 588 700 L122 700 C111 700 106 695 105 685 L91 603 C90 593 94 588 104 588 L434 589 L13 113 C4 102 -2 94 -5 79 L-15 15 L-15 15 Z M360 754 C362 753 365 752 367 752 C372 752 376 755 381 760 L499 914 C504 921 504 929 495 932 L428 956 C426 957 424 957 422 957 C416 957 411 954 407 947 L312 795 C307 786 308 780 315 776 L360 754 L360 754 Z " />
<glyph glyph-name="zacute" unicode="&#x17a;" horiz-adv-x="466" d="M-22 15 C-23 5 -19 0 -9 0 L359 0 C369 0 375 5 376 15 L388 87 C390 97 386 102 375 102 L141 102 L412 405 C423 416 428 426 431 443 L438 485 C439 495 434 500 425 500 L83 500 C74 500 68 495 66 485 L55 413 C53 403 57 398 67 398 L276 398 L4 93 C-7 82 -12 74 -15 59 L-22 15 L-22 15 Z M265 550 C267 549 270 548 272 548 C277 548 281 551 286 556 L404 710 C409 717 409 725 400 728 L333 752 C331 753 329 753 327 753 C321 753 316 750 312 743 L217 591 C212 582 213 576 220 572 L265 550 L265 550 Z " />
<glyph glyph-name="Zdotaccent" unicode="&#x17b;" horiz-adv-x="599" d="M-15 15 C-16 5 -12 0 -3 0 L488 0 C498 0 504 5 505 15 L518 97 C520 107 516 112 506 112 L153 112 L581 593 C586 600 586 602 589 613 L601 685 C602 695 597 700 588 700 L122 700 C111 700 106 695 105 685 L91 603 C90 593 94 588 104 588 L434 589 L13 113 C4 102 -2 94 -5 79 L-15 15 L-15 15 Z M301 878 C301 841 329 813 366 813 C403 813 432 841 432 878 C432 915 403 944 366 944 C329 944 301 915 301 878 L301 878 Z " />
<glyph glyph-name="zdotaccent" unicode="&#x17c;" horiz-adv-x="466" d="M-22 15 C-23 5 -19 0 -9 0 L359 0 C369 0 375 5 376 15 L388 87 C390 97 386 102 375 102 L141 102 L412 405 C423 416 428 426 431 443 L438 485 C439 495 434 500 425 500 L83 500 C74 500 68 495 66 485 L55 413 C53 403 57 398 67 398 L276 398 L4 93 C-7 82 -12 74 -15 59 L-22 15 L-22 15 Z M201 671 C201 634 229 606 266 606 C303 606 332 634 332 671 C332 708 303 737 266 737 C229 737 201 708 201 671 L201 671 Z " />
<glyph glyph-name="Zcaron" unicode="&#x17d;" horiz-adv-x="599" d="M-15 15 C-16 5 -12 0 -3 0 L488 0 C498 0 504 5 505 15 L518 97 C520 107 516 112 506 112 L153 112 L581 593 C586 600 586 602 589 613 L601 685 C602 695 597 700 588 700 L122 700 C111 700 106 695 105 685 L91 603 C90 593 94 588 104 588 L434 589 L13 113 C4 102 -2 94 -5 79 L-15 15 L-15 15 Z M386 760 C399 760 408 767 417 775 L547 897 C554 904 555 912 549 919 L529 950 C526 954 522 955 519 955 C515 955 510 953 506 949 L372 841 L274 949 C270 953 266 955 262 955 C258 955 255 953 251 950 L221 919 C213 911 211 904 216 897 L309 775 C316 767 323 760 335 760 L386 760 L386 760 Z " />
<glyph glyph-name="zcaron" unicode="&#x17e;" horiz-adv-x="473" d="M-22 15 C-23 5 -19 0 -9 0 L359 0 C369 0 375 5 376 15 L388 87 C390 97 386 102 375 102 L141 102 L412 405 C423 416 428 426 431 443 L438 485 C439 495 434 500 425 500 L83 500 C74 500 68 495 66 485 L55 413 C53 403 57 398 67 398 L276 398 L4 93 C-7 82 -12 74 -15 59 L-22 15 L-22 15 Z M285 548 C298 548 307 555 316 563 L446 685 C453 692 454 700 448 707 L428 738 C425 742 421 743 418 743 C414 743 409 741 405 737 L271 629 L173 737 C169 741 165 743 161 743 C157 743 154 741 150 738 L120 707 C112 699 110 692 115 685 L208 563 C215 555 222 548 234 548 L285 548 L285 548 Z " />
<glyph glyph-name="longs" unicode="&#x17f;" horiz-adv-x="356" d="M235 576 C246 636 277 651 308 651 C329 651 345 646 364 637 C366 636 368 635 369 635 C372 635 375 637 378 640 L423 702 C428 709 431 713 422 720 C386 746 345 759 299 759 C206 759 143 705 126 602 L111 500 L50 500 C40 500 34 495 32 485 L21 411 C19 401 23 396 33 396 L94 396 L34 15 C32 5 36 0 46 0 L129 0 C139 0 145 5 147 15 L235 576 L235 576 Z " />
<glyph glyph-name="florin" unicode="&#x192;" horiz-adv-x="466" d="M128 115 C113 62 97 19 35 19 C20 19 4 22 -14 27 C-16 28 -18 28 -20 28 C-26 28 -31 24 -33 17 L-44 -28 C-47 -37 -44 -43 -34 -46 C-3 -57 30 -63 60 -63 C150 -63 191 -7 212 77 L311 452 L439 452 C449 452 454 457 454 467 L454 511 C453 520 447 525 438 525 L329 525 L348 596 C362 647 380 693 440 693 C456 693 472 689 490 684 C492 683 495 683 496 683 C503 683 507 687 509 695 L520 739 C522 748 518 754 509 757 C482 768 449 774 418 774 C326 774 288 719 264 635 L236 525 L152 525 C142 525 137 519 137 508 L137 467 C137 457 142 452 153 452 L216 452 L128 115 Z " />
<glyph glyph-name="uni0218" unicode="&#x218;" horiz-adv-x="542" d="M115 -250 C112 -259 115 -263 124 -263 L191 -263 C201 -263 207 -259 210 -251 L279 -62 C281 -53 278 -49 271 -49 L190 -49 C181 -49 176 -53 173 -62 L115 -250 Z M517 631 C524 639 524 646 516 652 C456 692 396 710 324 710 C188 710 80 629 80 509 C80 293 364 339 364 203 C364 150 321 100 233 100 C177 100 119 122 76 161 C72 164 68 166 65 166 C60 166 56 163 52 158 L0 94 C-7 85 -6 78 1 72 C60 20 136 -10 224 -10 C389 -10 479 104 479 214 C479 438 195 392 195 515 C195 567 248 600 309 600 C360 600 391 586 438 559 C442 557 446 556 449 556 C454 556 458 558 461 563 L517 631 Z " />
<glyph glyph-name="uni0219" unicode="&#x219;" horiz-adv-x="426" d="M52 -250 C49 -259 52 -263 61 -263 L128 -263 C138 -263 144 -259 147 -251 L216 -62 C219 -53 217 -49 208 -49 L127 -49 C119 -49 114 -53 111 -62 L52 -250 Z M60 132 C56 136 52 137 48 137 C44 137 40 136 36 132 L-12 89 C-20 81 -24 72 -17 65 C22 17 91 -10 163 -10 C286 -10 366 65 366 159 C366 326 145 289 145 363 C145 398 180 412 219 412 C252 412 282 406 313 383 C317 380 320 378 324 378 C328 378 331 380 336 384 L388 431 C395 438 396 445 391 452 C362 483 300 510 232 510 C133 510 40 447 40 356 C40 194 260 232 260 144 C260 109 225 87 169 87 C125 87 92 101 60 132 L60 132 Z " />
<glyph glyph-name="uni021A" unicode="&#x21a;" horiz-adv-x="528" d="M87 -250 C84 -259 87 -263 96 -263 L163 -263 C173 -263 179 -259 182 -251 L251 -62 C254 -53 252 -49 243 -49 L162 -49 C154 -49 149 -53 146 -62 L87 -250 Z M250 0 C260 0 266 5 267 15 L358 588 L546 588 C556 588 562 593 564 603 L577 685 C579 695 575 700 564 700 L64 700 C53 700 48 695 47 685 L33 603 C32 593 36 588 46 588 L244 588 L153 15 C151 5 155 0 166 0 L250 0 Z " />
<glyph glyph-name="uni021B" unicode="&#x21b;" horiz-adv-x="372" d="M48 -250 C45 -259 48 -263 57 -263 L124 -263 C134 -263 140 -259 143 -251 L212 -62 C214 -53 211 -49 204 -49 L123 -49 C114 -49 109 -53 106 -62 L48 -250 Z M282 108 C280 113 277 115 274 115 C272 115 269 114 267 113 C246 102 229 98 208 98 C176 98 154 113 161 150 L201 396 L322 396 C331 396 337 401 339 411 L351 485 C352 495 348 500 338 500 L217 500 L238 633 C239 641 237 648 226 648 L143 648 C132 648 126 643 125 633 L104 500 L54 500 C43 500 38 495 37 485 L25 411 C23 401 27 396 38 396 L88 396 L46 136 C31 48 83 -10 176 -10 C215 -10 254 0 293 20 C302 25 305 32 303 39 L282 108 Z " />
<glyph glyph-name="circumflex" unicode="&#x2c6;" horiz-adv-x="318" d="M185 737 C173 737 163 730 154 722 L24 600 C16 593 15 586 22 578 L42 547 C45 543 49 541 53 541 C57 541 61 543 65 547 L200 655 L297 548 C301 544 305 542 309 542 C313 542 316 544 320 547 L350 578 C357 585 360 593 355 600 L262 722 C255 730 249 737 236 737 L185 737 L185 737 Z " />
<glyph glyph-name="caron" unicode="&#x2c7;" horiz-adv-x="313" d="M215 552 C228 552 237 559 246 567 L376 689 C383 696 384 704 378 711 L358 742 C355 746 351 747 348 747 C344 747 339 745 335 741 L201 633 L103 741 C99 745 95 747 91 747 C87 747 84 745 80 742 L50 711 C42 703 40 696 45 689 L138 567 C145 559 152 552 164 552 L215 552 L215 552 Z " />
<glyph glyph-name="uni02C9" unicode="&#x2c9;" horiz-adv-x="315" d="M41 611 C39 601 43 596 53 596 L321 596 C331 596 337 601 339 611 L349 675 C350 685 345 690 336 690 L68 690 C57 690 52 685 51 675 L41 611 L41 611 Z " />
<glyph glyph-name="breve" unicode="&#x2d8;" horiz-adv-x="310" d="M374 716 C375 721 372 725 365 727 L313 737 C307 738 303 734 300 727 C291 686 258 654 202 654 C146 654 124 686 127 727 C128 733 126 737 120 737 C119 737 119 737 118 737 L63 727 C55 726 51 722 51 716 C42 623 100 572 189 572 C284 572 355 623 374 716 L374 716 Z " />
<glyph glyph-name="dotaccent" unicode="&#x2d9;" horiz-adv-x="146" d="M50 647 C50 610 78 582 115 582 C152 582 181 610 181 647 C181 684 152 713 115 713 C78 713 50 684 50 647 L50 647 Z " />
<glyph glyph-name="ring" unicode="&#x2da;" horiz-adv-x="238" d="M40 639 C40 573 94 519 159 519 C225 519 278 573 278 639 C278 704 225 758 159 758 C94 758 40 704 40 639 L40 639 Z M111 639 C111 666 132 688 159 688 C186 688 208 666 208 639 C208 612 186 590 159 590 C132 590 111 612 111 639 L111 639 Z " />
<glyph glyph-name="ogonek" unicode="&#x2db;" horiz-adv-x="147" d="M23 4 C-77 -74 -73 -199 49 -199 C60 -199 73 -198 86 -196 C94 -195 98 -190 98 -183 L106 -129 C107 -123 105 -120 100 -120 C99 -120 99 -120 98 -120 C90 -122 83 -122 77 -122 C8 -122 31 -32 104 7 L23 4 L23 4 Z " />
<glyph glyph-name="tilde" unicode="&#x2dc;" horiz-adv-x="364" d="M300 647 C252 647 242 706 174 706 C139 706 93 682 56 651 C45 644 44 639 44 628 L40 575 C40 569 42 565 46 565 C48 565 51 567 55 570 C86 595 123 624 154 624 C201 624 215 565 279 565 C314 565 360 589 399 620 C408 627 409 632 410 643 L413 696 C413 702 411 705 407 705 C405 705 402 704 399 701 C368 676 329 647 300 647 L300 647 Z " />
<glyph glyph-name="hungarumlaut" unicode="&#x2dd;" horiz-adv-x="334" d="M85 538 C88 537 90 537 92 537 C98 537 103 539 107 545 L197 697 C201 704 200 712 191 715 L125 738 C123 739 120 739 118 739 C112 739 107 736 105 729 L34 576 C31 569 33 560 42 556 L85 538 L85 538 Z M265 538 C268 537 270 537 272 537 C278 537 283 539 287 545 L381 696 C385 703 385 711 374 714 L305 738 C303 739 300 739 298 739 C292 739 287 736 285 729 L214 576 C211 569 213 560 222 556 L265 538 L265 538 Z " />
<glyph glyph-name="uni0394" unicode="&#x394;" horiz-adv-x="632" d="M362 639 L365 639 L454 97 L104 97 L362 639 Z M-32 14 C-33 5 -28 0 -19 0 L539 0 C548 0 554 5 556 14 L559 34 L455 732 C452 744 445 750 435 750 L324 750 C312 750 306 743 299 732 L-28 34 L-32 14 L-32 14 Z " />
<glyph glyph-name="uni03A9" unicode="&#x3a9;" horiz-adv-x="768" d="M257 78 C152 138 116 226 125 333 C136 497 271 638 430 638 C569 638 658 534 647 389 C639 250 548 136 423 78 L411 0 L650 0 C659 0 665 5 666 14 L676 76 C678 86 674 91 664 91 L531 91 C650 149 736 278 741 406 C752 572 645 729 444 729 C234 729 49 547 36 347 C29 243 67 147 155 91 L22 91 C13 91 8 87 6 79 L-4 14 C-6 5 -2 0 8 0 L245 0 L257 78 Z " />
<glyph glyph-name="uni03BC" unicode="&#x3bc;" horiz-adv-x="602" d="M129 40 C146 14 175 -3 221 -3 C227 -3 233 -3 239 -2 C302 3 353 50 380 88 L368 15 C367 5 371 0 381 0 L464 0 C474 0 480 5 481 15 L556 485 C557 495 552 500 543 500 L460 500 C449 500 444 495 443 485 L404 241 C393 172 328 98 255 98 C172 98 148 160 161 240 L200 485 C201 495 197 500 187 500 L104 500 C93 500 88 495 87 485 L-27 -235 C-28 -245 -24 -250 -15 -250 L68 -250 C78 -250 84 -245 86 -235 L129 40 Z " />
<glyph glyph-name="pi" unicode="&#x3c0;" horiz-adv-x="614" d="M624 513 C634 513 640 518 642 528 L654 608 C656 618 652 623 642 623 L70 623 C61 623 55 618 53 608 L41 528 C39 518 43 513 52 513 L152 513 L73 14 C71 5 75 0 86 0 L164 0 C175 0 180 5 181 14 L260 513 L422 513 L343 14 C342 5 347 0 356 0 L435 0 C444 0 450 5 452 14 L531 513 L624 513 Z " />
<glyph glyph-name="Wgrave" unicode="&#x1e80;" horiz-adv-x="927" d="M668 0 C679 0 686 5 689 15 L962 684 C967 695 964 700 954 700 L860 700 C849 700 842 695 838 684 L637 184 L581 688 C579 696 574 700 566 700 L467 700 C458 700 451 696 448 688 L232 184 L190 684 C189 695 185 700 173 700 L79 700 C68 700 64 695 67 684 L128 15 C129 5 134 0 145 0 L250 0 C262 0 270 5 273 15 L489 524 L544 15 C545 5 551 0 563 0 L668 0 L668 0 Z M550 775 C559 779 559 787 556 794 L484 946 C481 953 476 956 470 956 C468 956 466 956 464 955 L397 932 C388 929 386 921 391 914 L485 761 C488 756 492 753 497 753 C499 753 502 754 505 755 L550 775 L550 775 Z " />
<glyph glyph-name="wgrave" unicode="&#x1e81;" horiz-adv-x="702" d="M139 485 C138 495 133 500 124 500 L40 500 C31 500 28 495 29 485 L65 17 C66 6 72 0 82 0 L188 0 C200 0 207 8 211 17 L350 362 L380 17 C383 8 387 0 398 0 L503 0 C514 0 520 6 525 17 L710 485 C715 495 712 500 703 500 L619 500 C610 500 604 495 599 485 L467 149 L432 483 C431 494 425 500 416 500 L326 500 C317 500 310 494 305 483 L235 315 C201 229 165 149 165 149 L139 485 L139 485 Z M404 572 C413 576 413 584 410 591 L338 743 C335 750 330 753 324 753 C322 753 320 753 318 752 L251 729 C242 726 240 718 245 711 L339 558 C342 553 346 550 351 550 C353 550 356 551 359 552 L404 572 L404 572 Z " />
<glyph glyph-name="Wacute" unicode="&#x1e82;" horiz-adv-x="927" d="M668 0 C679 0 686 5 689 15 L962 684 C967 695 964 700 954 700 L860 700 C849 700 842 695 838 684 L637 184 L581 688 C579 696 574 700 566 700 L467 700 C458 700 451 696 448 688 L232 184 L190 684 C189 695 185 700 173 700 L79 700 C68 700 64 695 67 684 L128 15 C129 5 134 0 145 0 L250 0 C262 0 270 5 273 15 L489 524 L544 15 C545 5 551 0 563 0 L668 0 L668 0 Z M545 768 C547 767 550 766 552 766 C557 766 561 769 566 774 L684 928 C689 935 689 943 680 946 L613 970 C611 971 609 971 607 971 C601 971 596 968 592 961 L497 809 C492 800 493 794 500 790 L545 768 L545 768 Z " />
<glyph glyph-name="wacute" unicode="&#x1e83;" horiz-adv-x="702" d="M139 485 C138 495 133 500 124 500 L40 500 C31 500 28 495 29 485 L65 17 C66 6 72 0 82 0 L188 0 C200 0 207 8 211 17 L350 362 L380 17 C383 8 387 0 398 0 L503 0 C514 0 520 6 525 17 L710 485 C715 495 712 500 703 500 L619 500 C610 500 604 495 599 485 L467 149 L432 483 C431 494 425 500 416 500 L326 500 C317 500 310 494 305 483 L235 315 C201 229 165 149 165 149 L139 485 L139 485 Z M390 550 C392 549 395 548 397 548 C402 548 406 551 411 556 L529 710 C534 717 534 725 525 728 L458 752 C456 753 454 753 452 753 C446 753 441 750 437 743 L342 591 C337 582 338 576 345 572 L390 550 L390 550 Z " />
<glyph glyph-name="Wdieresis" unicode="&#x1e84;" horiz-adv-x="927" d="M668 0 C679 0 686 5 689 15 L962 684 C967 695 964 700 954 700 L860 700 C849 700 842 695 838 684 L637 184 L581 688 C579 696 574 700 566 700 L467 700 C458 700 451 696 448 688 L232 184 L190 684 C189 695 185 700 173 700 L79 700 C68 700 64 695 67 684 L128 15 C129 5 134 0 145 0 L250 0 C262 0 270 5 273 15 L489 524 L544 15 C545 5 551 0 563 0 L668 0 L668 0 Z M363 838 C363 802 392 773 428 773 C464 773 493 802 493 838 C493 874 464 903 428 903 C392 903 363 874 363 838 L363 838 Z M579 838 C579 802 606 773 643 773 C680 773 709 802 709 838 C709 874 680 903 643 903 C606 903 579 874 579 838 L579 838 Z " />
<glyph glyph-name="wdieresis" unicode="&#x1e85;" horiz-adv-x="702" d="M139 485 C138 495 133 500 124 500 L40 500 C31 500 28 495 29 485 L65 17 C66 6 72 0 82 0 L188 0 C200 0 207 8 211 17 L350 362 L380 17 C383 8 387 0 398 0 L503 0 C514 0 520 6 525 17 L710 485 C715 495 712 500 703 500 L619 500 C610 500 604 495 599 485 L467 149 L432 483 C431 494 425 500 416 500 L326 500 C317 500 310 494 305 483 L235 315 C201 229 165 149 165 149 L139 485 L139 485 Z M222 643 C222 607 251 578 287 578 C323 578 352 607 352 643 C352 679 323 708 287 708 C251 708 222 679 222 643 L222 643 Z M438 643 C438 607 465 578 502 578 C539 578 568 607 568 643 C568 679 539 708 502 708 C465 708 438 679 438 643 L438 643 Z " />
<glyph glyph-name="endash" unicode="&#x2013;" horiz-adv-x="516" d="M43 329 C34 329 28 324 26 314 L13 231 C12 221 16 216 25 216 L450 216 C460 216 466 221 467 231 L480 314 C482 324 478 329 468 329 L43 329 L43 329 Z " />
<glyph glyph-name="emdash" unicode="&#x2014;" horiz-adv-x="1040" d="M43 329 C34 329 28 324 26 314 L13 231 C12 221 16 216 25 216 L974 216 C984 216 990 221 991 231 L1004 314 C1006 324 1002 329 992 329 L43 329 L43 329 Z " />
<glyph glyph-name="quoteleft" unicode="&#x2018;" horiz-adv-x="188" d="M210 687 C213 696 210 700 201 700 L134 700 C124 700 118 696 115 688 L47 499 C44 490 46 486 55 486 L135 486 C144 486 149 490 152 499 L210 687 Z " />
<glyph glyph-name="quoteright" unicode="&#x2019;" horiz-adv-x="188" d="M47 499 C44 490 48 486 57 486 L123 486 C133 486 139 490 142 498 L211 687 C213 696 210 700 203 700 L122 700 C114 700 109 696 106 687 L47 499 Z " />
<glyph glyph-name="quotesinglbase" unicode="&#x201a;" horiz-adv-x="191" d="M-44 -110 C-47 -117 -42 -122 -35 -122 L31 -122 C41 -122 47 -118 50 -110 L119 79 C122 87 120 91 111 91 L30 91 C21 91 16 87 14 78 L-44 -110 Z " />
<glyph glyph-name="quotedblleft" unicode="&#x201c;" horiz-adv-x="393" d="M210 687 C213 696 209 700 200 700 L134 700 C124 700 118 696 115 688 L46 499 C43 490 45 486 54 486 L135 486 C143 486 148 490 151 499 L210 687 Z M414 687 C417 696 413 700 404 700 L338 700 C328 700 322 696 319 688 L250 499 C247 490 249 486 258 486 L339 486 C347 486 352 490 355 499 L414 687 Z " />
<glyph glyph-name="quotedblright" unicode="&#x201d;" horiz-adv-x="393" d="M249 499 C246 490 249 486 258 486 L325 486 C335 486 341 490 344 498 L413 687 C415 696 412 700 405 700 L324 700 C315 700 310 696 307 687 L249 499 Z M45 499 C42 490 45 486 54 486 L121 486 C130 486 137 490 140 498 L209 687 C211 696 208 700 201 700 L120 700 C111 700 106 696 103 687 L45 499 Z " />
<glyph glyph-name="quotedblbase" unicode="&#x201e;" horiz-adv-x="395" d="M159 -110 C156 -117 161 -122 169 -122 L235 -122 C245 -122 251 -118 254 -110 L323 79 C326 87 324 91 315 91 L234 91 C225 91 220 87 218 78 L159 -110 Z M-44 -110 C-47 -119 -44 -123 -35 -123 L31 -123 C41 -123 47 -119 50 -111 L119 78 C121 87 118 91 111 91 L30 91 C22 91 17 87 14 78 L-44 -110 Z " />
<glyph glyph-name="dagger" unicode="&#x2020;" horiz-adv-x="362" d="M43 480 C34 480 28 475 26 465 L16 397 C14 387 18 382 28 382 L133 382 L46 -170 C44 -179 48 -184 59 -184 L127 -184 C136 -184 142 -179 144 -170 L231 382 L337 382 C346 382 352 387 354 397 L364 465 C366 475 362 480 352 480 L247 480 L283 705 C284 715 279 720 270 720 L202 720 C191 720 186 715 185 705 L149 480 L43 480 Z " />
<glyph glyph-name="daggerdbl" unicode="&#x2021;" horiz-adv-x="503" d="M20 170 C11 170 5 165 4 155 L-7 87 C-9 77 -5 72 4 72 L164 72 L125 -170 C124 -179 129 -184 138 -184 L206 -184 C217 -184 222 -179 223 -170 L262 72 L423 72 C432 72 438 77 440 87 L451 155 C452 165 448 170 439 170 L277 170 L308 365 L470 365 C479 365 485 370 486 380 L497 448 C499 458 495 463 485 463 L323 463 L362 705 C364 715 360 720 349 720 L281 720 C272 720 266 715 264 705 L225 463 L66 463 C57 463 51 458 49 448 L38 380 C37 370 41 365 51 365 L210 365 L179 170 L20 170 Z " />
<glyph glyph-name="bullet" unicode="&#x2022;" horiz-adv-x="214" d="M7 280 C7 233 45 196 93 196 C142 196 177 233 177 280 C177 327 142 364 93 364 C45 364 7 327 7 280 L7 280 Z " />
<glyph glyph-name="ellipsis" unicode="&#x2026;" horiz-adv-x="920" d="M25 57 C25 18 53 -10 92 -10 C131 -10 161 18 161 57 C161 96 131 126 92 126 C53 126 25 96 25 57 L25 57 Z M354 57 C354 18 383 -10 422 -10 C461 -10 491 18 491 57 C491 96 461 126 422 126 C383 126 354 96 354 57 L354 57 Z M689 57 C689 18 717 -10 756 -10 C795 -10 825 18 825 57 C825 96 795 126 756 126 C717 126 689 96 689 57 L689 57 Z " />
<glyph glyph-name="perthousand" unicode="&#x2030;" horiz-adv-x="1514" d="M1043 179 C1043 75 1112 -10 1230 -10 C1375 -10 1472 110 1472 230 C1472 340 1397 419 1288 419 C1147 419 1043 303 1043 179 L1043 179 Z M1135 186 C1135 254 1191 327 1276 327 C1344 327 1380 285 1380 222 C1380 154 1327 81 1241 81 C1177 81 1135 123 1135 186 L1135 186 Z M572 179 C572 75 641 -10 759 -10 C904 -10 1001 110 1001 230 C1001 340 926 419 817 419 C676 419 572 303 572 179 L572 179 Z M664 186 C664 254 720 327 805 327 C873 327 909 285 909 222 C909 154 856 81 770 81 C706 81 664 123 664 186 L664 186 Z M225 14 C218 5 223 0 234 0 L299 0 C310 0 314 6 321 14 L813 685 C820 694 816 700 805 700 L740 700 C729 700 724 694 717 685 L225 14 L225 14 Z M35 474 C35 370 104 284 221 284 C365 284 463 404 463 524 C463 634 388 713 280 713 C136 713 35 597 35 474 L35 474 Z M126 480 C126 548 182 621 267 621 C335 621 372 579 372 516 C372 448 320 375 232 375 C168 375 126 417 126 480 L126 480 Z " />
<glyph glyph-name="guilsinglleft" unicode="&#x2039;" horiz-adv-x="296" d="M278 438 C283 446 281 453 266 453 L186 453 C176 453 168 448 161 438 L-3 239 C-7 234 -8 229 -5 218 L94 18 C99 9 106 4 115 4 L187 4 C199 4 206 11 202 18 L102 224 L278 438 Z " />
<glyph glyph-name="guilsinglright" unicode="&#x203a;" horiz-adv-x="299" d="M-8 18 C-13 11 -10 4 3 4 L85 4 C94 4 102 9 110 18 L273 218 C276 221 281 230 276 239 L176 438 C173 448 166 453 155 453 L84 453 C72 453 65 446 68 438 L168 233 L-8 18 Z " />
<glyph glyph-name="fraction" unicode="&#x2044;" horiz-adv-x="549" d="M-12 14 C-18 5 -15 0 -4 0 L61 0 C72 0 76 6 83 14 L576 685 C583 695 580 700 567 700 L502 700 C491 700 487 694 480 685 L-12 14 L-12 14 Z " />
<glyph glyph-name="franc" unicode="&#x20a3;" horiz-adv-x="553" d="M290 111 C299 111 305 116 307 126 L312 159 C313 169 309 174 300 174 L174 174 L190 281 L479 281 C488 281 494 286 496 296 L508 375 C510 385 506 390 496 390 L208 390 L239 588 L571 588 C580 588 586 593 588 603 L601 685 C602 695 598 700 589 700 L163 700 C150 700 142 690 139 679 L59 174 L11 174 C1 174 -5 169 -7 159 L-12 126 C-13 116 -9 111 0 111 L49 111 L33 14 C32 5 37 0 46 0 L131 0 C140 0 146 5 148 14 L163 111 L290 111 Z " />
<glyph glyph-name="lira" unicode="&#x20a4;" horiz-adv-x="511" d="M13 354 C3 350 -1 344 1 335 L9 301 C10 294 14 290 19 290 C21 290 23 291 26 292 L83 311 L36 17 C35 6 37 0 50 0 L58 0 C306 0 458 142 509 351 C512 361 508 366 497 366 L436 366 C427 366 421 361 418 351 C391 220 288 113 141 102 L179 344 L352 402 C363 405 367 411 364 421 L359 455 C357 462 354 466 348 466 C347 466 345 466 343 465 L190 413 L199 471 L372 529 C382 532 386 538 384 548 L379 582 C377 589 374 593 368 593 C367 593 365 593 363 592 L210 540 L234 685 C235 695 230 700 221 700 L160 700 C149 700 144 695 143 685 L114 508 L33 481 C23 477 19 471 21 462 L28 427 C29 420 33 416 38 416 C40 416 42 417 45 418 L103 438 L94 381 L13 354 Z " />
<glyph glyph-name="Euro" unicode="&#x20ac;" horiz-adv-x="532" d="M453 107 C451 113 448 116 443 116 C440 116 436 115 432 112 C399 95 362 82 319 82 C203 82 161 158 158 257 L435 256 C446 256 448 262 449 271 L455 306 C456 315 453 320 445 320 L158 320 C159 343 163 363 167 384 L454 384 C463 384 468 389 469 398 L475 433 C476 443 472 448 465 448 L188 448 C225 549 296 617 404 617 C443 617 482 603 509 587 C512 585 515 584 518 584 C523 584 528 587 532 593 L568 649 C573 658 572 665 563 670 C526 693 474 710 419 710 C260 710 148 617 91 448 L27 448 C18 448 13 443 11 433 L6 398 C5 389 8 384 17 384 L73 384 C69 359 67 345 64 320 L7 320 C-2 320 -7 315 -9 306 L-14 271 C-16 261 -12 256 -3 256 L60 256 C60 101 136 -10 304 -10 C360 -10 415 5 459 28 C472 35 477 43 473 52 L453 107 Z " />
<glyph glyph-name="uni2113" unicode="&#x2113;" horiz-adv-x="373" d="M5 239 C9 233 13 230 18 230 C22 230 26 232 30 236 L76 276 L58 163 C42 66 74 -12 168 -12 C213 -12 260 9 295 36 C302 42 304 50 302 59 L297 100 C295 104 292 107 289 107 C286 107 283 105 279 102 C256 85 229 66 198 66 C143 66 141 121 152 183 L178 348 C267 432 365 513 378 617 C385 693 348 734 279 734 C195 734 139 669 120 558 L90 368 L0 288 C-9 280 -13 269 -8 261 L5 239 L5 239 Z M308 603 C297 545 242 492 194 447 L208 538 C216 594 229 656 277 656 C308 656 315 634 308 603 L308 603 Z " />
<glyph glyph-name="trademark" unicode="&#x2122;" horiz-adv-x="816" d="M172 285 C176 285 181 287 184 296 L236 628 L358 628 C365 628 369 632 370 639 L378 690 C379 697 376 700 369 700 L54 700 C48 700 44 697 43 690 L35 638 C34 631 37 628 43 628 L164 628 L111 296 C110 285 117 285 120 285 L172 285 L172 285 Z M576 338 C580 338 584 341 587 347 L716 542 L678 295 C675 288 680 285 687 285 L739 285 C746 285 750 288 751 295 L813 689 C814 694 811 700 803 700 L752 700 C747 700 742 697 737 690 L573 435 L490 690 C487 695 485 700 477 700 L426 700 C419 700 415 696 413 689 L351 296 C350 289 353 285 361 285 L412 285 C418 285 422 289 424 296 L462 542 L532 347 C533 341 536 338 540 338 L576 338 L576 338 Z " />
<glyph glyph-name="Omega" unicode="&#x2126;" horiz-adv-x="778" d="M262 78 C158 137 121 226 130 333 C141 497 276 638 435 638 C574 638 663 534 652 389 C644 245 550 136 428 78 L416 0 L655 0 C664 0 670 5 671 14 L681 76 C683 86 679 91 669 91 L536 91 C658 152 741 281 746 406 C757 572 650 729 449 729 C229 729 54 538 41 347 C34 243 72 146 160 91 L27 91 C18 91 13 87 11 79 L1 14 C-1 5 3 0 13 0 L250 0 L262 78 Z " />
<glyph glyph-name="estimated" unicode="&#x212e;" horiz-adv-x="536" d="M137 242 L496 242 C507 242 513 252 513 259 C518 400 419 547 259 547 C108 547 5 422 5 275 C5 135 119 5 259 5 C351 5 427 48 470 116 C475 124 475 133 466 138 L432 155 C429 156 426 157 424 157 C418 157 413 154 408 148 C373 103 323 74 259 74 C212 74 164 98 137 133 L137 242 Z M137 309 L137 427 C168 460 212 478 259 478 C306 478 351 462 379 427 L379 309 L137 309 Z " />
<glyph glyph-name="partialdiff" unicode="&#x2202;" horiz-adv-x="513" d="M308 710 C257 710 205 695 170 678 C160 674 157 668 162 659 L185 604 C188 599 192 596 197 596 C199 596 202 597 205 598 C230 609 263 619 291 619 C406 619 423 529 404 412 C373 459 307 488 251 488 C111 488 21 352 13 199 C8 67 88 -10 193 -10 C348 -10 426 140 463 285 C519 501 520 710 308 710 L308 710 Z M200 84 C131 84 102 141 105 211 C108 300 165 394 257 394 C313 394 364 362 378 306 C354 198 297 84 200 84 L200 84 Z " />
<glyph glyph-name="Delta" unicode="&#x2206;" horiz-adv-x="649" d="M369 639 L372 639 L461 97 L111 97 L369 639 Z M-25 14 C-27 5 -23 0 -12 0 L545 0 C556 0 561 5 562 14 L566 34 L461 732 C459 744 453 750 442 750 L330 750 C320 750 312 744 305 732 L-22 34 L-25 14 L-25 14 Z " />
<glyph glyph-name="product" unicode="&#x220f;" horiz-adv-x="673" d="M150 700 C139 700 134 695 133 685 L6 -114 C5 -123 10 -128 19 -128 L87 -128 C96 -128 102 -123 104 -114 L217 602 L540 602 L427 -114 C425 -123 429 -128 440 -128 L508 -128 C517 -128 523 -123 525 -114 L652 685 C653 695 648 700 639 700 L150 700 L150 700 Z " />
<glyph glyph-name="summation" unicode="&#x2211;" horiz-adv-x="667" d="M-40 -213 C-41 -217 -41 -230 -26 -230 L524 -230 C535 -230 541 -223 542 -215 L554 -145 C555 -137 550 -130 539 -130 L137 -130 L486 213 C505 230 501 243 494 251 L372 425 C341 468 311 512 288 545 L250 600 L655 600 C666 600 672 605 674 615 L685 684 C686 692 682 700 671 700 L121 700 C114 700 104 696 101 683 L95 649 C92 637 94 629 101 620 L371 234 L-21 -150 C-32 -161 -34 -175 -35 -178 L-40 -213 L-40 -213 Z " />
<glyph glyph-name="minus" unicode="&#x2212;" horiz-adv-x="505" d="M55 329 C45 329 39 324 38 314 L25 231 C23 221 27 216 37 216 L437 216 C446 216 452 221 454 231 L467 314 C468 324 464 329 455 329 L55 329 L55 329 Z " />
<glyph glyph-name="uni2215" unicode="&#x2215;" horiz-adv-x="448" d="M-12 14 C-19 5 -13 0 -2 0 L60 0 C69 0 74 6 79 14 L465 685 C472 694 466 700 455 700 L393 700 C386 700 379 695 374 685 L-12 14 L-12 14 Z " />
<glyph glyph-name="uni2219" unicode="&#x2219;" horiz-adv-x="201" d="M35 346 C35 311 62 283 97 283 C133 283 161 311 161 346 C161 382 133 410 97 410 C62 410 35 382 35 346 L35 346 Z " />
<glyph glyph-name="radical" unicode="&#x221a;" horiz-adv-x="489" d="M245 -12 C256 -12 259 -5 262 3 C310 127 484 587 532 710 C537 722 533 728 522 728 L452 728 C441 728 435 721 431 710 L219 157 L165 418 C164 426 160 430 154 430 C151 430 147 429 144 427 L11 357 C2 351 -1 343 1 334 L22 275 C24 269 27 266 31 266 C34 266 38 268 42 270 L82 292 L92 246 C99 219 105 183 113 147 L143 2 C145 -7 150 -12 158 -12 L245 -12 L245 -12 Z " />
<glyph glyph-name="infinity" unicode="&#x221e;" horiz-adv-x="696" d="M595 292 C584 236 547 197 487 197 C444 197 394 228 397 292 C414 341 458 385 517 385 C577 385 602 341 595 292 L595 292 Z M294 293 C278 241 230 197 174 197 C114 197 87 239 96 291 C104 335 138 385 205 385 C252 385 294 352 294 293 L294 293 Z M355 374 C338 429 291 475 210 475 C110 475 22 399 6 292 C-13 180 55 107 154 107 C223 107 288 150 336 211 L336 209 C355 149 410 107 482 107 C582 107 669 184 685 293 C701 400 634 475 537 475 C449 475 390 415 355 372 L355 374 L355 374 Z " />
<glyph glyph-name="integral" unicode="&#x222b;" horiz-adv-x="309" d="M25 -89 C19 -131 0 -152 -29 -152 C-42 -152 -56 -148 -73 -141 C-75 -140 -78 -139 -80 -139 C-85 -139 -89 -143 -93 -149 L-107 -176 C-112 -185 -110 -191 -102 -196 C-70 -215 -39 -224 -11 -224 C56 -224 109 -175 122 -90 L232 606 C239 648 258 669 288 669 C300 669 315 665 331 658 C333 657 336 656 338 656 C343 656 347 660 351 666 L366 693 C371 702 369 708 361 713 C328 733 296 742 267 742 C201 742 149 694 136 607 L25 -89 L25 -89 Z " />
<glyph glyph-name="approxequal" unicode="&#x2248;" horiz-adv-x="521" d="M70 199 C98 234 124 254 165 254 C229 254 288 188 358 188 C421 188 464 243 505 284 C512 291 512 298 505 304 L472 332 C469 335 466 336 462 336 C458 336 454 334 450 330 C429 307 408 279 376 279 C316 279 245 341 181 346 C107 346 58 301 15 245 C8 236 9 229 16 224 L49 196 C52 193 55 191 58 191 C62 191 66 194 70 199 L70 199 Z M70 404 C98 439 124 459 165 459 C229 459 288 393 358 393 C421 393 464 448 505 489 C512 496 512 503 505 509 L472 537 C469 540 466 541 462 541 C458 541 454 539 450 535 C429 512 408 484 376 484 C316 484 245 546 181 551 C107 551 58 506 15 450 C8 441 9 434 16 429 L49 401 C52 398 55 396 58 396 C62 396 66 399 70 404 L70 404 Z " />
<glyph glyph-name="notequal" unicode="&#x2260;" horiz-adv-x="511" d="M212 154 L446 154 C456 154 462 159 463 169 L473 230 C474 240 470 245 461 245 L268 245 L336 358 L478 358 C488 358 494 363 496 373 L505 434 C507 444 503 449 493 449 L393 449 L462 562 C469 572 466 577 453 577 L382 577 C375 577 368 572 361 562 L291 449 L60 449 C50 449 44 444 43 435 L33 373 C32 363 36 358 45 358 L235 358 L167 245 L27 245 C18 245 12 240 11 231 L0 169 C-1 159 3 154 13 154 L111 154 L42 41 C36 32 39 27 51 27 L122 27 C130 27 137 32 143 41 L212 154 Z " />
<glyph glyph-name="lessequal" unicode="&#x2264;" horiz-adv-x="433" d="M12 91 C3 91 -3 86 -4 76 L-14 15 C-15 5 -11 0 -2 0 L328 0 C337 0 343 5 344 15 L354 77 C355 86 351 91 342 91 L12 91 L12 91 Z M413 526 C424 531 429 534 430 545 L442 617 C443 625 440 630 435 630 C433 630 431 629 429 628 L76 487 C67 483 61 479 60 470 L47 389 C44 378 49 374 57 370 L366 228 C368 227 370 227 371 227 C377 227 380 232 382 240 L393 311 C395 320 391 327 382 330 L154 428 L413 526 Z " />
<glyph glyph-name="greaterequal" unicode="&#x2265;" horiz-adv-x="412" d="M12 91 C3 91 -3 86 -5 77 L-15 15 C-15 5 -11 0 -2 0 L327 0 C337 0 343 5 344 15 L354 76 C355 86 351 91 341 91 L12 91 Z M50 330 C39 327 34 320 33 311 L21 240 C20 233 22 227 28 227 C30 227 32 227 34 228 L387 370 C396 374 402 378 403 389 L416 470 C419 479 413 483 405 487 L97 628 C95 629 93 630 91 630 C86 630 82 625 81 617 L70 545 C67 534 70 531 81 526 L308 428 L50 330 Z " />
<glyph glyph-name="lozenge" unicode="&#x25ca;" horiz-adv-x="466" d="M271 597 L274 597 L352 350 L195 102 L192 102 L115 350 L271 597 Z M105 14 C108 6 110 0 121 0 L233 0 C244 0 248 5 253 14 L447 328 C458 344 458 355 453 371 L360 685 C357 696 355 700 344 700 L232 700 C221 700 217 696 212 685 L20 371 C9 354 8 345 13 329 L105 14 L105 14 Z " />
</font>
</svg>
