<?xml version="1.0" encoding="UTF-8"?>
<svg xmlns="http://www.w3.org/2000/svg" xmlns:xlink="http://www.w3.org/1999/xlink" version="1.2" >
<font id="Crossten Bold">
<font-face  font-family="Crossten" units-per-em="1000" ascent="750" descent="-250" font-style="normal" font-weight="700" font-stretch="normal" cap-height="700" x-height="500" underline-position="-75" underline-thickness="50" />
<missing-glyph  horiz-adv-x="315" d="" />
<glyph glyph-name="NULL" d="" />
<glyph glyph-name="&amp;#x0;" horiz-adv-x="315" d="" />
<glyph glyph-name="&amp;#xd;" unicode="&#xd;" horiz-adv-x="315" d="" />
<glyph glyph-name="space" unicode="&#x20;" horiz-adv-x="285" d="" />
<glyph glyph-name="exclam" unicode="&#x21;" horiz-adv-x="270" d="M184 218 C195 218 201 226 201 235 L210 683 C210 694 204 700 192 700 L78 700 C67 700 61 694 61 683 L69 235 C69 224 72 218 87 218 L184 218 L184 218 Z M51 73 C51 26 87 -10 134 -10 C182 -10 219 26 219 73 C219 121 182 158 134 158 C87 158 51 121 51 73 L51 73 Z " />
<glyph glyph-name="quotedbl" unicode="&#x22;" horiz-adv-x="395" d="M148 464 C159 464 165 472 165 481 L174 679 C174 690 168 696 157 696 L68 696 C57 696 51 690 51 679 L60 481 C60 470 66 464 77 464 L148 464 L148 464 Z M317 464 C328 464 335 472 335 481 L344 679 C344 690 338 696 326 696 L238 696 C227 696 221 690 221 679 L230 481 C230 470 232 464 247 464 L317 464 L317 464 Z " />
<glyph glyph-name="numbersign" unicode="&#x23;" horiz-adv-x="630" d="M183 0 C194 0 201 7 202 18 L226 188 L356 188 L332 18 C329 7 336 0 347 0 L424 0 C433 0 440 7 441 18 L465 188 L559 188 C571 188 577 195 577 206 L577 283 C577 294 571 300 559 300 L481 300 L493 398 L586 398 C597 398 604 405 604 416 L604 492 C604 504 598 510 586 510 L509 510 L533 677 C536 688 527 695 518 695 L443 695 C433 695 427 689 425 677 L401 510 L269 510 L292 677 C293 688 287 695 276 695 L202 695 C193 695 187 686 184 677 L160 510 L71 510 C59 510 53 504 53 493 L53 416 C53 405 60 398 71 398 L145 398 L131 300 L44 300 C32 300 26 294 26 283 L26 206 C26 194 32 188 44 188 L114 188 L90 18 C89 7 95 0 106 0 L183 0 L183 0 Z M371 300 L240 300 L254 398 L386 398 L371 300 Z " />
<glyph glyph-name="dollar" unicode="&#x24;" horiz-adv-x="538" d="M194 511 C194 546 229 568 272 568 C317 568 362 546 385 531 C390 529 394 527 398 527 C403 527 408 530 412 535 L473 629 C479 640 477 649 467 654 C414 686 387 695 328 706 L328 790 C328 801 322 807 311 807 L235 807 C224 807 218 801 218 790 L218 702 C107 678 44 602 44 510 C44 275 355 319 355 200 C355 163 326 132 265 132 C215 132 155 159 118 188 C114 191 109 192 106 192 C99 192 94 189 91 184 L33 96 C26 85 31 79 39 72 C96 29 147 4 218 -7 L218 -90 C218 -101 224 -107 235 -107 L311 -107 C322 -107 328 -101 328 -90 L328 -2 C428 14 504 100 504 202 C504 440 194 404 194 511 L194 511 Z " />
<glyph glyph-name="percent" unicode="&#x25;" horiz-adv-x="1071" d="M610 208 C610 87 707 -10 828 -10 C949 -10 1047 87 1047 208 C1047 329 949 426 828 426 C707 426 610 329 610 208 L610 208 Z M727 207 C727 264 773 309 828 309 C884 309 930 264 930 207 C930 153 884 107 828 107 C773 107 727 153 727 207 L727 207 Z M286 17 C279 6 286 0 298 0 L380 0 C391 0 397 6 402 17 L787 683 C794 694 787 700 775 700 L693 700 C682 700 677 694 670 683 L286 17 L286 17 Z M24 494 C24 373 121 276 242 276 C363 276 460 373 460 494 C460 615 363 712 242 712 C121 712 24 615 24 494 L24 494 Z M141 493 C141 550 187 595 241 595 C298 595 343 550 343 493 C343 439 298 393 241 393 C187 393 141 439 141 493 L141 493 Z " />
<glyph glyph-name="ampersand" unicode="&#x26;" horiz-adv-x="711" d="M323 450 C296 479 277 507 281 532 C284 560 305 578 333 578 C356 578 371 567 388 550 C392 546 396 544 400 544 C404 544 407 546 411 549 L480 606 C489 613 490 620 483 629 C443 680 385 710 321 710 C244 710 163 658 144 569 C133 513 154 452 197 397 C91 334 32 278 32 180 C32 72 116 -10 231 -10 C331 -10 393 27 481 89 L578 -18 C585 -24 591 -27 598 -27 C604 -27 610 -24 616 -19 L671 34 C683 47 684 56 672 68 L579 170 L651 235 C661 245 660 256 649 267 L590 334 C585 339 580 342 575 342 C570 342 564 339 559 335 L485 272 L323 450 L323 450 Z M248 131 C209 131 179 158 179 194 C179 245 216 263 285 303 L384 194 C340 155 300 131 248 131 L248 131 Z " />
<glyph glyph-name="quotesingle" unicode="&#x27;" horiz-adv-x="225" d="M147 464 C159 464 165 472 165 483 L174 677 C174 690 168 696 156 696 L69 696 C57 696 51 690 51 677 L60 483 C60 471 63 464 78 464 L147 464 L147 464 Z " />
<glyph glyph-name="parenleft" unicode="&#x28;" horiz-adv-x="385" d="M251 781 C-34 477 -34 152 241 -133 C246 -138 250 -141 254 -141 C258 -141 261 -139 266 -136 L332 -87 C341 -80 342 -71 335 -62 C103 213 100 425 348 716 C355 724 354 732 344 740 L278 787 C274 790 270 791 267 791 C261 791 256 788 251 781 L251 781 Z " />
<glyph glyph-name="parenright" unicode="&#x29;" horiz-adv-x="385" d="M135 781 C129 788 125 792 119 792 C115 792 112 790 107 787 L41 740 C32 733 30 725 37 716 C284 426 283 212 51 -62 C44 -71 44 -80 53 -87 L119 -136 C124 -139 127 -141 131 -141 C135 -141 139 -138 144 -133 C419 153 418 476 135 781 L135 781 Z " />
<glyph glyph-name="asterisk" unicode="&#x2a;" horiz-adv-x="383" d="M63 449 C54 440 55 432 65 425 L120 384 C124 380 128 378 132 378 C137 378 141 382 145 388 L191 465 L238 387 C241 381 245 378 250 378 C253 378 257 379 261 381 L314 419 C323 424 325 434 316 443 L257 514 L341 532 C353 534 358 541 355 553 L340 615 C338 623 334 626 328 626 C325 626 322 626 319 624 L238 602 L244 680 C245 691 243 698 228 698 L159 698 C144 698 142 693 142 680 L146 602 L66 628 C62 629 59 630 56 630 C50 630 46 627 44 619 L27 553 C24 541 29 534 40 532 L123 517 L63 449 Z " />
<glyph glyph-name="plus" unicode="&#x2b;" horiz-adv-x="516" d="M463 225 C474 225 480 231 480 242 L480 334 C480 345 474 351 463 351 L323 351 L323 491 C323 502 317 508 305 508 L213 508 C202 508 196 502 196 491 L196 351 L53 351 C42 351 36 345 36 334 L36 242 C36 231 42 225 53 225 L196 225 L196 82 C196 71 202 65 213 65 L305 65 C317 65 323 71 323 82 L323 225 L463 225 Z " />
<glyph glyph-name="comma" unicode="&#x2c;" horiz-adv-x="252" d="M34 -146 C33 -153 38 -160 47 -160 L137 -160 C148 -160 154 -156 156 -147 L215 143 C217 152 214 156 205 156 L94 156 C85 156 80 151 79 142 L34 -146 L34 -146 Z " />
<glyph glyph-name="hyphen" unicode="&#x2d;" horiz-adv-x="415" d="M72 347 C61 347 55 341 55 330 L55 219 C55 207 61 201 72 201 L343 201 C354 201 360 207 360 219 L360 330 C360 341 354 347 343 347 L72 347 L72 347 Z " />
<glyph glyph-name="period" unicode="&#x2e;" horiz-adv-x="217" d="M24 73 C24 26 60 -10 107 -10 C155 -10 193 26 193 73 C193 121 155 159 107 159 C60 159 24 121 24 73 L24 73 Z " />
<glyph glyph-name="slash" unicode="&#x2f;" horiz-adv-x="566" d="M32 17 C25 6 32 0 44 0 L126 0 C138 0 142 6 149 17 L533 683 C540 694 533 700 521 700 L439 700 C428 700 424 694 417 683 L32 17 L32 17 Z " />
<glyph glyph-name="zero" unicode="0" horiz-adv-x="571" d="M36 349 C36 160 109 -10 285 -10 C461 -10 535 160 535 349 C535 537 462 710 285 710 C109 710 36 537 36 349 L36 349 Z M185 349 C185 472 210 565 285 565 C359 565 386 472 386 349 C386 227 359 135 285 135 C210 135 185 227 185 349 L185 349 Z " />
<glyph glyph-name="one" unicode="1" horiz-adv-x="331" d="M12 664 C2 662 -3 656 -2 645 L13 529 C16 519 20 517 30 517 L115 535 L115 17 C115 6 121 0 133 0 L247 0 C259 0 265 6 265 17 L265 683 C265 694 259 700 247 700 L229 700 L12 664 L12 664 Z " />
<glyph glyph-name="two" unicode="2" horiz-adv-x="500" d="M83 531 C87 524 93 519 99 519 C103 519 107 521 112 525 C147 552 179 565 215 565 C275 565 301 519 301 476 C301 388 213 309 27 56 C22 51 20 44 20 36 L20 17 C20 6 26 0 37 0 L447 0 C458 0 464 6 464 17 L464 129 C464 140 458 146 447 146 L265 146 C409 331 449 398 449 499 C449 623 366 710 230 710 C154 710 94 687 34 643 C24 635 22 626 27 617 L83 531 L83 531 Z " />
<glyph glyph-name="three" unicode="3" horiz-adv-x="469" d="M174 297 C253 297 295 267 295 215 C295 167 260 135 200 135 C159 135 124 152 97 173 C92 176 88 178 84 178 C77 178 72 174 68 167 L13 83 C6 74 8 66 19 57 C78 17 130 -10 216 -10 C351 -10 443 73 443 200 C443 276 393 337 324 364 C384 393 428 447 428 527 C428 631 341 710 226 710 C157 710 97 692 29 643 C18 636 16 627 23 617 L77 534 C80 529 84 523 92 523 C95 523 100 524 106 528 C134 551 170 565 209 565 C250 565 280 539 280 499 C280 458 246 429 174 429 C167 429 160 427 160 416 L160 310 C160 301 165 297 174 297 L174 297 Z " />
<glyph glyph-name="four" unicode="4" horiz-adv-x="525" d="M296 17 C296 6 302 0 313 0 L417 0 C428 0 434 6 434 17 L434 132 L486 132 C498 132 504 138 504 150 L504 246 C504 258 498 264 486 264 L434 264 L434 370 C434 381 428 387 417 387 L316 387 C304 387 298 381 298 370 L298 274 L173 274 L352 681 C357 694 353 700 339 700 L239 700 C226 700 217 694 212 681 L14 231 L14 150 C14 138 20 132 32 132 L296 132 L296 17 Z " />
<glyph glyph-name="five" unicode="5" horiz-adv-x="504" d="M79 281 C114 296 175 310 226 310 C299 310 327 273 327 226 C327 180 296 135 220 135 C183 135 137 145 104 168 C98 171 93 173 89 173 C84 173 80 170 75 163 L19 77 C12 66 16 58 25 51 C92 8 165 -10 232 -10 C389 -10 475 99 475 232 C475 356 413 445 296 445 C261 445 223 437 198 428 L198 560 L419 560 C431 560 437 566 437 578 L437 682 C437 694 431 700 419 700 L72 700 C60 700 54 694 54 681 L54 298 L79 281 L79 281 Z " />
<glyph glyph-name="six" unicode="6" horiz-adv-x="523" d="M176 408 C181 501 211 569 291 569 C331 569 365 557 398 534 C403 531 407 530 411 530 C417 530 423 533 427 540 L479 620 C484 629 482 638 473 645 C409 693 340 710 279 710 C144 710 33 604 33 343 L33 314 C33 93 129 -10 266 -10 C402 -10 491 99 491 232 C491 376 408 448 313 448 C261 448 216 433 176 408 L176 408 Z M176 281 C203 305 237 318 266 318 C317 318 346 281 346 225 C346 169 314 124 263 124 C212 124 175 173 176 266 L176 281 Z " />
<glyph glyph-name="seven" unicode="7" horiz-adv-x="486" d="M460 683 C460 694 454 700 442 700 L52 700 C40 700 34 694 34 683 L34 572 C34 560 40 554 52 554 L298 554 L64 18 C59 6 64 0 79 0 L192 0 C207 0 213 7 218 18 L460 574 L460 683 Z " />
<glyph glyph-name="eight" unicode="8" horiz-adv-x="512" d="M44 527 C44 460 85 407 142 379 C58 342 26 271 26 200 C26 77 120 -10 256 -10 C391 -10 486 77 486 200 C486 271 453 342 369 379 C426 407 468 460 468 527 C468 625 386 710 256 710 C126 710 44 625 44 527 L44 527 Z M176 504 C176 551 208 583 256 583 C303 583 336 551 336 504 C336 453 299 424 256 424 C213 424 176 453 176 504 L176 504 Z M167 213 C167 265 205 300 256 300 C307 300 346 265 346 213 C346 160 307 124 256 124 C204 124 167 160 167 213 L167 213 Z " />
<glyph glyph-name="nine" unicode="9" horiz-adv-x="523" d="M51 55 C115 7 183 -10 244 -10 C380 -10 490 95 490 356 L490 396 C490 607 392 710 256 710 C120 710 32 609 32 477 C32 336 114 251 210 251 C265 251 308 267 347 292 C342 199 312 131 232 131 C193 131 158 143 125 166 C120 169 115 171 111 171 C106 171 102 168 97 160 L44 80 C38 71 40 62 51 55 L51 55 Z M347 417 C318 394 292 382 256 382 C205 382 177 421 177 477 C177 533 209 576 260 576 C311 576 347 528 347 433 L347 417 Z " />
<glyph glyph-name="colon" unicode="&#x3a;" horiz-adv-x="217" d="M24 73 C24 26 60 -10 107 -10 C155 -10 193 26 193 73 C193 121 155 159 107 159 C60 159 24 121 24 73 L24 73 Z M24 425 C24 378 60 341 107 341 C155 341 193 378 193 425 C193 472 155 510 107 510 C60 510 24 472 24 425 L24 425 Z " />
<glyph glyph-name="semicolon" unicode="&#x3b;" horiz-adv-x="248" d="M22 -146 C21 -153 26 -160 34 -160 L125 -160 C135 -160 141 -156 144 -147 L203 143 C204 152 201 156 192 156 L82 156 C73 156 68 151 67 142 L22 -146 L22 -146 Z M55 425 C55 378 92 341 139 341 C186 341 224 378 224 425 C224 472 186 510 139 510 C92 510 55 472 55 425 L55 425 Z " />
<glyph glyph-name="less" unicode="&#x3c;" horiz-adv-x="514" d="M454 415 C465 419 471 423 471 434 L471 522 C471 537 465 538 454 538 L47 382 C36 377 30 372 30 361 L30 230 C30 221 36 214 47 210 L454 53 C456 52 458 52 459 52 C467 52 471 60 471 69 L471 156 C471 167 465 171 454 175 L148 295 L454 415 Z " />
<glyph glyph-name="equal" unicode="&#x3d;" horiz-adv-x="584" d="M78 460 C67 460 61 454 61 443 L61 361 C61 350 67 344 78 344 L506 344 C517 344 523 350 523 361 L523 443 C523 454 517 460 506 460 L78 460 L78 460 Z M78 256 C67 256 61 250 61 239 L61 157 C61 146 67 140 78 140 L506 140 C517 140 523 146 523 157 L523 239 C523 250 517 256 506 256 L78 256 L78 256 Z " />
<glyph glyph-name="greater" unicode="&#x3e;" horiz-adv-x="514" d="M60 175 C49 171 43 167 43 156 L43 69 C43 60 47 52 55 52 C56 52 58 52 60 53 L467 210 C478 214 484 219 484 230 L484 361 C484 372 478 377 467 382 L60 538 C49 538 43 537 43 522 L43 434 C43 423 49 419 60 415 L366 295 L60 175 L60 175 Z " />
<glyph glyph-name="question" unicode="&#x3f;" horiz-adv-x="452" d="M89 531 C93 526 97 523 102 523 C105 523 109 524 113 527 C144 550 177 565 208 565 C244 565 266 544 266 513 C266 446 133 437 133 261 L133 240 C133 228 134 218 149 218 L259 218 C275 218 278 227 278 240 L278 261 C278 383 416 406 416 537 C416 641 335 710 219 710 C150 710 90 686 35 647 C26 640 25 632 30 623 L89 531 L89 531 Z M120 73 C120 26 157 -10 204 -10 C251 -10 288 26 288 73 C288 121 251 158 204 158 C157 158 120 121 120 73 L120 73 Z " />
<glyph glyph-name="at" unicode="&#x40;" horiz-adv-x="1002" d="M402 253 C402 301 437 345 490 345 C543 345 580 302 580 253 C580 202 543 161 490 161 C441 161 402 200 402 253 L402 253 Z M596 100 C609 25 685 -26 766 -26 C866 -26 972 52 972 258 C972 518 758 725 497 725 C236 725 29 514 29 253 C29 -8 222 -218 535 -218 L904 -218 C917 -218 923 -212 923 -200 L923 -143 C923 -133 917 -128 904 -128 L535 -128 C262 -128 119 57 119 254 C119 438 260 635 497 635 C723 635 882 458 882 256 C882 122 822 67 771 67 C735 67 703 96 703 144 L702 441 C702 444 701 455 688 455 L594 455 C591 455 579 455 579 440 L579 401 C540 450 492 463 456 463 C349 463 277 365 277 252 C277 144 345 43 457 43 C523 43 578 89 596 105 L596 100 L596 100 Z " />
<glyph glyph-name="A" unicode="A" horiz-adv-x="633" d="M142 0 C157 0 165 6 167 17 L203 141 L429 141 L465 18 C469 3 478 0 491 0 L611 0 C623 0 627 6 622 17 L413 683 C410 694 404 700 393 700 L240 700 C230 700 223 694 219 683 L11 17 C6 6 10 0 22 0 L142 0 L142 0 Z M237 279 L316 528 L396 279 L237 279 Z " />
<glyph glyph-name="B" unicode="B" horiz-adv-x="601" d="M350 0 C487 0 569 87 569 195 C569 284 523 347 444 370 C500 401 533 451 533 522 C533 621 455 700 327 700 L83 700 C72 700 66 694 66 683 L66 17 C66 6 72 0 83 0 L350 0 L350 0 Z M215 298 L311 298 C375 298 416 268 416 216 C416 169 379 136 315 136 L215 136 L215 298 Z M215 563 L293 563 C352 563 381 537 381 496 C381 455 351 429 300 429 L215 429 L215 563 Z " />
<glyph glyph-name="C" unicode="C" horiz-adv-x="633" d="M586 632 C591 642 589 650 579 657 C527 689 464 710 388 710 C180 710 29 552 29 349 C29 146 180 -10 388 -10 C461 -10 524 10 581 45 C592 51 594 60 586 71 L526 162 C522 168 517 171 511 171 C508 171 504 170 500 167 C465 143 419 135 388 135 C268 135 178 232 178 349 C178 467 268 565 388 565 C431 565 466 554 497 534 C501 531 505 530 508 530 C515 530 521 535 526 540 L586 632 Z " />
<glyph glyph-name="D" unicode="D" horiz-adv-x="715" d="M334 0 C534 0 686 157 686 349 C686 545 534 700 334 700 L83 700 C72 700 66 694 66 683 L66 17 C66 6 72 0 83 0 L334 0 L334 0 Z M215 554 L328 554 C442 554 538 471 538 349 C538 231 442 146 328 146 L215 146 L215 554 Z " />
<glyph glyph-name="E" unicode="E" horiz-adv-x="544" d="M83 700 C72 700 66 694 66 683 L66 17 C66 8 72 0 83 0 L486 0 C498 0 503 8 503 17 L503 128 C503 140 497 146 486 146 L215 146 L215 279 L450 279 C461 279 467 285 467 297 L467 403 C467 415 461 421 450 421 L215 421 L215 554 L485 554 C496 554 502 561 502 572 L502 683 C502 692 496 700 485 700 L83 700 L83 700 Z " />
<glyph glyph-name="F" unicode="F" horiz-adv-x="544" d="M198 0 C209 0 215 6 215 17 L215 259 L474 259 C485 259 492 266 492 277 L492 383 C492 394 485 401 474 401 L215 401 L215 554 L516 554 C528 554 533 561 533 572 L533 683 C533 694 527 700 516 700 L83 700 C72 700 66 694 66 683 L66 17 C66 6 72 0 83 0 L198 0 Z " />
<glyph glyph-name="G" unicode="G" horiz-adv-x="688" d="M483 155 C456 142 427 135 388 135 C269 135 178 232 178 349 C178 465 263 565 388 565 C429 565 467 556 508 529 C513 525 517 523 521 523 C527 523 533 528 537 534 L597 626 C604 634 604 644 589 651 C537 684 472 710 388 710 C180 710 29 556 29 349 C29 149 180 -10 388 -10 C467 -10 548 7 615 42 C624 47 628 54 628 64 L628 367 C628 376 623 384 611 384 L384 384 C372 384 366 378 366 367 L366 278 C366 267 372 260 384 260 L483 260 L483 155 L483 155 Z " />
<glyph glyph-name="H" unicode="H" horiz-adv-x="690" d="M198 0 C209 0 215 6 215 17 L215 279 L475 279 L475 17 C475 6 481 0 492 0 L606 0 C618 0 624 6 624 17 L624 683 C624 694 618 700 606 700 L492 700 C481 700 475 694 475 683 L475 428 L215 428 L215 683 C215 694 209 700 198 700 L83 700 C72 700 66 694 66 683 L66 17 C66 6 72 0 83 0 L198 0 L198 0 Z " />
<glyph glyph-name="I" unicode="I" horiz-adv-x="281" d="M198 0 C209 0 215 6 215 17 L215 683 C215 694 209 700 198 700 L83 700 C72 700 66 694 66 683 L66 17 C66 6 72 0 83 0 L198 0 L198 0 Z " />
<glyph glyph-name="J" unicode="J" horiz-adv-x="490" d="M424 683 C424 694 418 700 407 700 L293 700 C281 700 275 694 275 683 L275 237 C275 178 244 135 188 135 C153 135 130 145 103 161 C98 164 93 166 89 166 C84 166 81 164 78 158 L23 70 C16 58 21 52 28 45 C75 10 136 -10 201 -10 C341 -10 424 96 424 222 L424 683 L424 683 Z " />
<glyph glyph-name="K" unicode="K" horiz-adv-x="673" d="M648 0 C660 0 664 8 657 17 L398 406 L638 683 C646 692 644 700 633 700 L484 700 C469 700 460 694 449 683 L215 421 L215 683 C215 694 209 700 198 700 L83 700 C72 700 66 694 66 683 L66 17 C66 6 72 0 83 0 L198 0 C209 0 215 6 215 17 L215 219 L289 300 L477 17 C486 6 493 0 509 0 L648 0 Z " />
<glyph glyph-name="L" unicode="L" horiz-adv-x="490" d="M447 0 C459 0 465 6 465 17 L465 128 C465 139 459 145 447 145 L215 145 L215 683 C215 694 209 700 198 700 L83 700 C72 700 66 694 66 683 L66 17 C66 6 72 0 83 0 L447 0 L447 0 Z " />
<glyph glyph-name="M" unicode="M" horiz-adv-x="883" d="M474 94 C485 94 493 99 497 110 L668 465 L668 17 C668 6 674 0 685 0 L799 0 C811 0 817 6 817 17 L817 683 C817 694 811 700 799 700 L646 700 C635 700 627 698 620 683 L441 312 L263 683 C256 698 248 700 237 700 L83 700 C72 700 66 694 66 683 L66 17 C66 6 72 0 83 0 L198 0 C209 0 215 6 215 17 L215 465 L385 110 C390 99 397 94 408 94 L474 94 L474 94 Z " />
<glyph glyph-name="N" unicode="N" horiz-adv-x="746" d="M663 0 C674 0 680 6 680 17 L680 683 C680 694 674 700 663 700 L548 700 C537 700 531 694 531 683 L531 258 L229 683 C221 694 214 700 199 700 L83 700 C72 700 66 694 66 683 L66 17 C66 6 72 0 83 0 L198 0 C209 0 215 6 215 17 L215 442 L517 17 C525 6 532 0 547 0 L663 0 Z " />
<glyph glyph-name="O" unicode="O" horiz-adv-x="777" d="M388 710 C185 710 29 552 29 349 C29 146 185 -10 388 -10 C590 -10 748 149 748 349 C748 552 590 710 388 710 L388 710 Z M388 135 C268 135 178 232 178 349 C178 467 268 565 388 565 C509 565 599 467 599 349 C599 232 508 135 388 135 L388 135 Z " />
<glyph glyph-name="P" unicode="P" horiz-adv-x="585" d="M198 0 C209 0 215 6 215 17 L215 230 L334 230 C467 230 562 343 562 466 C562 595 474 700 334 700 L83 700 C72 700 66 694 66 683 L66 17 C66 6 72 0 83 0 L198 0 L198 0 Z M215 565 L298 565 C370 565 412 530 412 466 C412 402 370 365 298 365 L215 365 L215 565 Z " />
<glyph glyph-name="Q" unicode="Q" horiz-adv-x="777" d="M579 -149 C583 -154 588 -157 593 -157 C596 -157 600 -155 605 -153 L703 -100 C710 -96 712 -87 707 -78 L621 75 C705 146 748 242 748 349 C748 552 590 710 388 710 C185 710 29 552 29 349 C29 146 185 -10 388 -10 C429 -10 454 -4 491 7 L579 -149 L579 -149 Z M388 135 C268 135 178 232 178 349 C178 468 268 565 388 565 C509 565 599 467 599 349 C599 232 505 135 388 135 L388 135 Z " />
<glyph glyph-name="R" unicode="R" horiz-adv-x="598" d="M300 565 C376 565 415 525 415 466 C415 407 376 367 300 367 L215 367 L215 565 L300 565 L300 565 Z M425 256 C477 275 565 346 565 466 C565 595 476 700 336 700 L83 700 C72 700 66 694 66 683 L66 17 C66 6 72 0 83 0 L198 0 C209 0 215 6 215 17 L215 232 L272 232 L410 17 C417 6 427 0 440 0 L567 0 C580 0 583 6 576 18 L425 256 L425 256 Z " />
<glyph glyph-name="S" unicode="S" horiz-adv-x="538" d="M473 629 C479 639 477 647 467 654 C410 690 351 710 279 710 C148 710 44 630 44 510 C44 271 355 313 355 200 C355 163 326 132 265 132 C217 132 158 157 118 188 C114 191 109 192 106 192 C99 192 94 189 91 184 L33 96 C26 85 31 79 39 72 C103 23 174 -10 263 -10 C435 -10 504 109 504 202 C504 446 194 409 194 511 C194 546 229 568 272 568 C311 568 351 551 384 531 C388 528 392 527 396 527 C402 527 408 531 412 535 L473 629 L473 629 Z " />
<glyph glyph-name="T" unicode="T" horiz-adv-x="576" d="M345 0 C356 0 362 6 362 17 L362 554 L539 554 C551 554 557 560 557 572 L557 683 C557 694 551 700 539 700 L36 700 C25 700 19 694 19 683 L19 572 C19 560 25 554 36 554 L213 554 L213 17 C213 6 219 0 231 0 L345 0 L345 0 Z " />
<glyph glyph-name="U" unicode="U" horiz-adv-x="694" d="M79 700 C67 700 61 694 61 683 L61 274 C61 110 171 -10 347 -10 C521 -10 632 110 632 274 L632 683 C632 694 626 700 615 700 L500 700 C489 700 483 694 483 683 L483 301 C483 197 439 135 347 135 C255 135 211 197 211 301 L211 683 C211 694 205 700 193 700 L79 700 L79 700 Z " />
<glyph glyph-name="V" unicode="V" horiz-adv-x="629" d="M387 0 C400 0 409 6 413 19 L621 682 C625 691 620 700 609 700 L489 700 C475 700 467 694 464 682 L315 205 L166 682 C162 694 156 700 141 700 L21 700 C9 700 6 691 9 682 L217 19 C221 6 229 0 242 0 L387 0 L387 0 Z " />
<glyph glyph-name="W" unicode="W" horiz-adv-x="950" d="M758 0 C769 0 776 6 779 18 L940 682 C943 693 940 700 928 700 L801 700 C786 700 782 693 779 682 L678 237 L561 687 C558 696 552 700 543 700 L408 700 C399 700 394 696 391 687 L273 237 L173 682 C170 693 165 700 150 700 L22 700 C11 700 8 693 11 682 L172 18 C175 6 182 0 194 0 L335 0 C348 0 356 6 359 18 L476 470 L592 18 C595 6 603 0 617 0 L758 0 L758 0 Z " />
<glyph glyph-name="X" unicode="X" horiz-adv-x="652" d="M201 686 C194 695 188 700 172 700 L25 700 C14 700 13 691 18 683 L239 353 L10 17 C3 9 7 0 19 0 L164 0 C180 0 187 5 194 16 L326 225 L449 16 C456 5 466 0 479 0 L633 0 C644 0 649 8 642 17 L412 353 L633 683 C641 694 637 700 626 700 L478 700 C462 700 456 695 449 686 L326 483 L201 686 Z " />
<glyph glyph-name="Y" unicode="Y" horiz-adv-x="611" d="M170 690 C167 695 160 700 151 700 L18 700 C9 700 7 690 12 683 L232 339 L232 17 C232 6 238 0 249 0 L363 0 C375 0 381 6 381 17 L381 339 L600 683 C605 690 602 700 593 700 L462 700 C451 700 447 697 443 690 L306 467 L170 690 L170 690 Z " />
<glyph glyph-name="Z" unicode="Z" horiz-adv-x="598" d="M39 17 C39 6 45 0 57 0 L541 0 C552 0 558 6 558 17 L558 128 C558 140 552 146 541 146 L239 146 L543 564 C547 571 548 573 548 586 L548 683 C548 694 542 700 531 700 L71 700 C60 700 54 694 54 683 L54 572 C54 560 60 554 71 554 L353 554 L55 145 C46 133 39 120 39 103 L39 17 L39 17 Z " />
<glyph glyph-name="bracketleft" unicode="&#x5b;" horiz-adv-x="320" d="M268 -130 C279 -130 285 -124 285 -113 L285 -28 C285 -17 279 -11 268 -11 L183 -11 L183 631 L268 631 C279 631 285 637 285 648 L285 733 C285 744 279 750 268 750 L82 750 C70 750 61 742 61 729 L61 -109 C61 -122 70 -130 82 -130 L268 -130 L268 -130 Z " />
<glyph glyph-name="backslash" unicode="&#x5c;" horiz-adv-x="566" d="M149 683 C142 694 138 700 126 700 L44 700 C32 700 25 694 32 683 L417 17 C424 6 428 0 439 0 L521 0 C533 0 540 6 533 17 L149 683 L149 683 Z " />
<glyph glyph-name="bracketright" unicode="&#x5d;" horiz-adv-x="320" d="M238 -130 C250 -130 259 -122 259 -109 L259 729 C259 743 252 750 238 750 L52 750 C41 750 35 744 35 733 L35 648 C35 637 41 631 52 631 L137 631 L137 -11 L52 -11 C41 -11 35 -17 35 -28 L35 -113 C35 -124 41 -130 52 -130 L238 -130 L238 -130 Z " />
<glyph glyph-name="asciicircum" unicode="&#x5e;" horiz-adv-x="570" d="M411 319 C416 308 423 302 430 302 L523 302 C535 302 544 308 539 319 L364 683 C360 694 355 700 344 700 L227 700 C216 700 214 692 209 683 L31 319 C26 308 35 302 46 302 L140 302 C147 302 154 308 159 319 L285 581 L411 319 L411 319 Z " />
<glyph glyph-name="underscore" unicode="&#x5f;" horiz-adv-x="615" d="M72 -48 C61 -48 55 -54 55 -65 L55 -177 C55 -188 61 -194 72 -194 L543 -194 C554 -194 560 -188 560 -177 L560 -65 C560 -54 554 -48 543 -48 L72 -48 L72 -48 Z " />
<glyph glyph-name="grave" unicode="&#x60;" horiz-adv-x="255" d="M213 575 C224 580 223 589 220 597 L156 746 C153 754 148 758 141 758 C139 758 136 758 134 757 L44 726 C33 722 31 713 36 705 L131 555 C134 550 139 547 144 547 C147 547 150 548 153 549 L213 575 L213 575 Z " />
<glyph glyph-name="a" unicode="a" horiz-adv-x="605" d="M172 250 C172 318 221 370 286 370 C350 370 400 318 400 250 C400 182 350 130 286 130 C221 130 172 182 172 250 L172 250 Z M527 0 C538 0 544 6 544 17 L544 483 C544 494 538 500 527 500 L414 500 C403 500 397 494 397 483 L397 432 C362 475 316 510 245 510 C113 510 24 393 24 250 C24 107 113 -10 245 -10 C317 -10 364 27 397 67 L397 17 C397 6 403 0 414 0 L527 0 L527 0 Z " />
<glyph glyph-name="b" unicode="b" horiz-adv-x="605" d="M433 250 C433 182 384 130 319 130 C255 130 205 182 205 250 C205 318 255 370 319 370 C384 370 433 318 433 250 L433 250 Z M191 0 C202 0 208 6 208 17 L208 67 C241 23 293 -10 360 -10 C492 -10 581 107 581 250 C581 392 492 510 360 510 C295 510 240 479 208 432 L208 733 C208 744 202 750 191 750 L78 750 C67 750 61 744 61 733 L61 17 C61 6 67 0 78 0 L191 0 L191 0 Z " />
<glyph glyph-name="c" unicode="c" horiz-adv-x="475" d="M376 145 C373 149 369 152 364 152 C361 152 357 151 354 149 C332 136 308 130 282 130 C218 130 167 182 167 250 C167 318 218 370 282 370 C298 370 323 368 352 349 C356 347 360 345 363 345 C368 345 372 348 375 353 L437 439 C444 447 441 458 432 463 C397 486 346 510 282 510 C138 510 24 394 24 250 C24 106 138 -10 282 -10 C342 -10 394 10 433 35 C442 41 444 49 438 59 L376 145 L376 145 Z " />
<glyph glyph-name="d" unicode="d" horiz-adv-x="605" d="M172 250 C172 316 221 370 286 370 C350 370 400 317 400 250 C400 182 350 130 286 130 C221 130 172 182 172 250 L172 250 Z M527 0 C538 0 544 6 544 17 L544 733 C544 744 538 750 527 750 L414 750 C403 750 397 744 397 733 L397 432 C365 479 310 510 245 510 C113 510 24 392 24 250 C24 107 113 -10 245 -10 C312 -10 364 23 397 67 L397 17 C397 6 403 0 414 0 L527 0 L527 0 Z " />
<glyph glyph-name="e" unicode="e" horiz-adv-x="542" d="M286 114 C222 114 174 150 162 203 L499 203 C512 203 518 211 518 222 C518 375 425 510 269 510 C122 510 24 386 24 250 C24 108 141 -10 282 -10 C358 -10 419 10 470 41 C479 46 480 56 475 64 L425 135 C421 140 417 144 411 144 C408 144 405 143 400 140 C364 121 333 114 286 114 L286 114 Z M166 309 C177 362 218 397 269 397 C328 397 362 360 374 309 L166 309 Z " />
<glyph glyph-name="f" unicode="f" horiz-adv-x="404" d="M412 691 C416 699 420 704 409 712 C364 743 317 760 265 760 C164 760 98 697 98 594 L98 500 L45 500 C33 500 27 494 27 483 L27 383 C27 372 33 366 45 366 L98 366 L98 17 C98 6 104 0 116 0 L228 0 C239 0 245 6 245 17 L245 366 L337 366 C348 366 354 372 354 383 L354 483 C354 494 348 500 337 500 L245 500 L245 558 C245 607 270 620 297 620 C316 620 331 616 350 605 C353 604 355 603 357 603 C360 603 363 605 365 608 L412 691 Z " />
<glyph glyph-name="g" unicode="g" horiz-adv-x="605" d="M172 252 C172 319 221 370 286 370 C350 370 400 320 400 252 C400 184 350 137 286 137 C221 137 172 184 172 252 L172 252 Z M544 483 C544 494 538 500 527 500 L414 500 C403 500 397 494 397 483 L397 432 C362 475 316 510 244 510 C113 510 24 396 24 252 C24 108 113 -3 244 -3 C316 -3 364 34 397 74 L397 13 C397 -51 356 -115 259 -115 C211 -115 169 -98 141 -73 C138 -70 134 -68 131 -68 C127 -68 123 -71 119 -76 L61 -153 C55 -162 55 -169 62 -176 C106 -221 183 -255 263 -255 C428 -255 544 -136 544 28 L544 483 L544 483 Z " />
<glyph glyph-name="h" unicode="h" horiz-adv-x="603" d="M191 0 C202 0 208 6 208 17 L208 263 C208 314 253 370 309 370 C374 370 403 321 403 256 L403 17 C403 6 409 0 421 0 L533 0 C544 0 550 6 550 17 L550 285 C550 429 484 510 361 510 C289 510 239 472 208 432 L208 733 C208 744 202 750 191 750 L78 750 C67 750 61 744 61 733 L61 17 C61 6 67 0 78 0 L191 0 L191 0 Z " />
<glyph glyph-name="i" unicode="i" horiz-adv-x="280" d="M196 0 C207 0 213 6 213 17 L213 483 C213 494 207 500 196 500 L84 500 C72 500 66 494 66 483 L66 17 C66 6 72 0 84 0 L196 0 L196 0 Z M56 678 C56 631 92 595 139 595 C187 595 224 631 224 678 C224 726 187 763 139 763 C92 763 56 726 56 678 L56 678 Z " />
<glyph glyph-name="j" unicode="j" horiz-adv-x="290" d="M-80 -200 C-84 -210 -81 -217 -72 -222 C-37 -242 -3 -255 45 -255 C151 -255 220 -181 220 -84 L220 483 C220 494 214 500 203 500 L90 500 C79 500 73 492 73 483 L73 -55 C73 -98 52 -114 25 -114 C6 -114 -6 -111 -19 -104 C-22 -102 -25 -101 -27 -101 C-32 -101 -35 -104 -37 -110 L-80 -200 L-80 -200 Z M62 678 C62 631 98 595 145 595 C193 595 230 631 230 678 C230 725 193 763 145 763 C99 763 62 726 62 678 L62 678 Z " />
<glyph glyph-name="k" unicode="k" horiz-adv-x="552" d="M369 17 C376 6 388 0 403 0 L530 0 C541 0 542 7 534 18 L365 290 L522 483 C530 490 529 500 518 500 L382 500 C367 500 360 496 351 487 L208 326 L208 733 C208 744 202 750 191 750 L78 750 C67 750 61 744 61 733 L61 17 C61 6 67 0 78 0 L191 0 C202 0 208 6 208 17 L208 142 L254 193 L369 17 L369 17 Z " />
<glyph glyph-name="l" unicode="l" horiz-adv-x="269" d="M191 0 C202 0 208 6 208 17 L208 733 C208 744 202 750 191 750 L78 750 C67 750 61 744 61 733 L61 17 C61 6 67 0 78 0 L191 0 L191 0 Z " />
<glyph glyph-name="m" unicode="m" horiz-adv-x="922" d="M78 500 C67 500 61 494 61 483 L61 17 C61 6 67 0 78 0 L191 0 C202 0 208 6 208 17 L208 266 C208 318 252 370 305 370 C365 370 391 319 391 256 L391 17 C391 6 397 0 409 0 L521 0 C532 0 538 6 538 17 L538 266 C538 320 584 370 635 370 C695 370 722 319 722 256 L722 17 C722 6 728 0 739 0 L852 0 C863 0 869 6 869 17 L869 285 C869 430 803 510 688 510 C604 510 546 470 503 423 C470 479 422 510 358 510 C287 510 239 472 208 431 L208 483 C208 494 202 500 191 500 L78 500 Z " />
<glyph glyph-name="n" unicode="n" horiz-adv-x="603" d="M533 0 C544 0 550 6 550 17 L550 285 C550 429 484 510 361 510 C288 510 238 468 208 427 L208 483 C208 494 202 500 191 500 L78 500 C67 500 61 494 61 483 L61 17 C61 6 67 0 78 0 L191 0 C202 0 208 6 208 17 L208 266 C208 318 253 370 309 370 C374 370 403 321 403 256 L403 17 C403 6 409 0 421 0 L533 0 L533 0 Z " />
<glyph glyph-name="o" unicode="o" horiz-adv-x="563" d="M24 250 C24 106 138 -10 282 -10 C426 -10 539 106 539 250 C539 394 426 510 282 510 C138 510 24 394 24 250 L24 250 Z M167 250 C167 318 218 370 282 370 C346 370 396 318 396 250 C396 182 346 130 282 130 C218 130 167 182 167 250 L167 250 Z " />
<glyph glyph-name="p" unicode="p" horiz-adv-x="605" d="M433 250 C433 182 384 130 319 130 C255 130 205 182 205 250 C205 318 255 370 319 370 C384 370 433 318 433 250 L433 250 Z M78 500 C67 500 61 494 61 483 L61 -233 C61 -244 67 -250 78 -250 L191 -250 C202 -250 208 -244 208 -233 L208 67 C241 27 288 -10 360 -10 C492 -10 581 107 581 250 C581 393 492 510 360 510 C289 510 243 475 208 432 L208 483 C208 494 202 500 191 500 L78 500 L78 500 Z " />
<glyph glyph-name="q" unicode="q" horiz-adv-x="605" d="M172 250 C172 318 221 370 286 370 C350 370 400 317 400 250 C400 183 350 130 286 130 C221 130 172 182 172 250 L172 250 Z M414 500 C403 500 397 494 397 483 L397 432 C361 475 316 510 245 510 C113 510 24 393 24 250 C24 107 113 -10 245 -10 C317 -10 364 26 397 73 L397 -233 C397 -244 403 -250 414 -250 L527 -250 C538 -250 544 -244 544 -233 L544 483 C544 494 538 500 527 500 L414 500 L414 500 Z " />
<glyph glyph-name="r" unicode="r" horiz-adv-x="421" d="M78 500 C67 500 61 494 61 483 L61 17 C61 6 67 0 78 0 L191 0 C202 0 208 6 208 17 L208 229 C208 314 256 366 319 366 C335 366 349 364 364 357 C368 355 371 355 374 355 C380 355 384 358 386 365 L416 468 C420 480 422 488 411 493 C387 508 358 510 335 510 C275 510 228 462 209 420 L208 420 L208 483 C208 492 204 500 191 500 L78 500 L78 500 Z " />
<glyph glyph-name="s" unicode="s" horiz-adv-x="438" d="M117 158 C112 162 107 165 102 165 C97 165 93 162 88 157 L32 97 C24 89 21 78 29 69 C77 18 144 -10 217 -10 C337 -10 410 62 410 147 C410 320 174 311 174 363 C174 382 200 386 220 386 C247 386 279 373 298 361 C302 358 307 356 311 356 C315 356 320 358 324 362 L385 426 C393 434 393 442 386 450 C351 481 291 510 222 510 C119 510 39 448 39 361 C39 192 275 205 275 142 C275 122 247 114 220 114 C183 114 144 135 117 158 L117 158 Z " />
<glyph glyph-name="t" unicode="t" horiz-adv-x="426" d="M355 138 C352 143 349 146 345 146 C343 146 340 145 337 143 C320 135 306 130 286 130 C259 130 240 141 240 176 L240 366 L355 366 C366 366 372 372 372 383 L372 483 C372 494 366 500 354 500 L240 500 L240 631 C240 640 235 648 222 648 L110 648 C99 648 93 642 93 631 L93 500 L48 500 C37 500 31 494 31 483 L31 383 C31 372 37 366 48 366 L93 366 L93 156 C93 49 152 -10 259 -10 C303 -10 343 -2 390 25 C401 32 401 38 398 46 L355 138 L355 138 Z " />
<glyph glyph-name="u" unicode="u" horiz-adv-x="603" d="M70 500 C59 500 53 494 53 483 L53 215 C53 71 119 -10 242 -10 C315 -10 366 32 395 73 L395 17 C395 6 401 0 413 0 L525 0 C536 0 542 6 542 17 L542 483 C542 494 536 500 525 500 L413 500 C401 500 395 494 395 483 L395 233 C395 182 350 130 294 130 C229 130 200 179 200 244 L200 483 C200 494 194 500 183 500 L70 500 L70 500 Z " />
<glyph glyph-name="v" unicode="v" horiz-adv-x="517" d="M156 483 C152 492 147 500 136 500 L20 500 C8 500 5 492 9 483 L176 19 C183 2 194 0 197 0 L320 0 C323 0 334 2 341 19 L508 483 C513 492 509 500 498 500 L381 500 C372 500 366 494 361 483 L259 198 L156 483 Z " />
<glyph glyph-name="w" unicode="w" horiz-adv-x="738" d="M152 483 C149 494 142 500 132 500 L20 500 C9 500 6 494 9 483 L61 251 C87 134 113 20 113 19 C116 6 123 0 134 0 L278 0 C293 0 298 8 301 19 L369 325 L436 19 C439 8 447 0 459 0 L604 0 C615 0 621 8 625 19 L729 483 C732 494 729 500 718 500 L606 500 C596 500 589 494 586 483 L521 187 L450 482 C448 494 441 500 430 500 L307 500 C296 500 289 494 287 482 L251 334 C233 259 216 187 216 187 L152 483 L152 483 Z " />
<glyph glyph-name="x" unicode="x" horiz-adv-x="504" d="M334 14 C339 5 347 0 360 0 L482 0 C491 0 494 10 489 17 L341 251 L488 483 C493 490 491 500 480 500 L359 500 C344 500 339 497 332 486 L252 351 L172 486 C167 495 159 500 146 500 L24 500 C13 500 12 490 17 483 L163 251 L16 17 C9 9 12 0 23 0 L145 0 C157 0 166 5 171 14 L252 149 L334 14 Z " />
<glyph glyph-name="y" unicode="y" horiz-adv-x="604" d="M543 483 C543 494 537 500 526 500 L414 500 C402 500 396 494 396 483 L396 243 C396 189 357 140 295 140 C230 140 201 189 201 254 L201 483 C201 494 195 500 183 500 L71 500 C60 500 54 494 54 483 L54 225 C54 81 120 0 243 0 C310 0 375 38 396 75 L396 15 C396 -50 363 -115 266 -115 C218 -115 176 -96 151 -68 C148 -65 145 -64 142 -64 C137 -64 133 -66 129 -71 L71 -149 C66 -156 66 -164 72 -171 C113 -219 187 -255 270 -255 C435 -255 543 -135 543 29 L543 483 L543 483 Z " />
<glyph glyph-name="z" unicode="z" horiz-adv-x="463" d="M29 17 C29 6 35 0 46 0 L416 0 C428 0 434 6 434 17 L434 114 C434 126 428 132 416 132 L222 132 L406 380 C417 395 422 407 422 428 L422 483 C422 494 416 500 405 500 L59 500 C48 500 42 494 42 483 L42 386 C42 374 48 368 59 368 L232 368 L45 116 C34 103 29 93 29 74 L29 17 L29 17 Z " />
<glyph glyph-name="braceleft" unicode="&#x7b;" horiz-adv-x="341" d="M40 246 C85 246 99 199 99 143 L99 20 C99 -52 139 -95 215 -95 L289 -95 C300 -95 306 -89 306 -78 L306 -28 C306 -17 300 -11 289 -11 L264 -11 C239 -11 225 6 225 30 L225 143 C225 206 209 301 142 301 C203 301 225 388 225 453 L225 572 C225 597 236 616 264 616 L289 616 C300 616 306 622 306 633 L306 683 C306 694 300 700 289 700 L215 700 C147 700 99 670 99 599 L99 453 C99 401 85 356 40 356 C28 356 22 350 22 339 L22 264 C22 252 28 246 40 246 L40 246 Z " />
<glyph glyph-name="bar" unicode="&#x7c;" horiz-adv-x="268" d="M207 703 C207 714 201 720 190 720 L78 720 C67 720 61 714 61 703 L61 -167 C61 -178 67 -184 78 -184 L190 -184 C201 -184 207 -178 207 -167 L207 703 L207 703 Z " />
<glyph glyph-name="braceright" unicode="&#x7d;" horiz-adv-x="341" d="M302 246 C313 246 319 252 319 264 L319 339 C319 350 313 356 302 356 C255 356 242 401 242 453 L242 599 C242 670 194 700 126 700 L52 700 C41 700 35 694 35 683 L35 633 C35 622 41 616 52 616 L77 616 C105 616 116 597 116 572 L116 453 C116 388 138 301 199 301 C135 301 116 206 116 143 L116 30 C116 6 102 -11 77 -11 L52 -11 C41 -11 35 -17 35 -28 L35 -78 C35 -89 41 -95 52 -95 L126 -95 C202 -95 242 -52 242 20 L242 143 C242 199 255 246 302 246 L302 246 Z " />
<glyph glyph-name="asciitilde" unicode="&#x7e;" horiz-adv-x="599" d="M125 202 C145 233 166 250 205 250 C272 250 331 185 403 185 C474 185 514 248 551 293 C557 302 556 310 547 316 L497 353 C493 356 489 358 486 358 C481 358 477 355 473 350 C456 329 440 301 408 301 C346 301 270 363 206 368 C201 369 197 369 193 369 C127 369 79 314 47 260 C41 251 42 243 51 236 L101 198 C105 195 109 193 112 193 C117 193 121 196 125 202 L125 202 Z " />
<glyph glyph-name="exclamdown" unicode="&#xa1;" horiz-adv-x="270" d="M87 279 C72 279 69 272 69 261 L61 -186 C61 -197 67 -203 78 -203 L192 -203 C204 -203 210 -197 210 -186 L201 261 C201 272 195 279 184 279 L87 279 Z M51 424 C51 376 87 339 134 339 C182 339 219 376 219 424 C219 471 182 507 134 507 C87 507 51 471 51 424 L51 424 Z " />
<glyph glyph-name="cent" unicode="&#xa2;" horiz-adv-x="500" d="M337 -6 C382 0 419 14 450 35 C459 41 461 49 456 59 L394 145 C391 150 387 152 382 152 C379 152 376 151 372 149 C349 136 324 130 299 130 C235 130 185 182 185 250 C185 318 235 370 299 370 C316 370 339 368 370 349 C374 347 377 345 380 345 C385 345 389 348 393 353 L455 439 C462 447 458 458 450 463 C421 482 384 499 337 506 L337 686 C337 697 331 703 320 703 L271 703 C259 703 253 697 253 686 L253 506 C130 485 41 375 41 250 C41 122 130 18 253 -6 L253 -184 C253 -195 259 -201 271 -201 L320 -201 C331 -201 337 -195 337 -184 L337 -6 L337 -6 Z " />
<glyph glyph-name="sterling" unicode="&#xa3;" horiz-adv-x="523" d="M493 114 C493 120 491 123 487 123 C484 123 481 122 476 119 C451 103 424 98 394 98 C336 98 272 119 208 119 C202 119 195 119 188 118 L188 282 L351 282 C362 282 367 288 367 300 L367 357 C367 368 362 374 351 374 L188 374 C188 475 195 585 322 585 C364 585 409 572 444 557 C446 556 449 556 451 556 C461 556 465 566 465 567 L491 643 C492 644 495 656 480 663 C431 685 374 700 317 700 C266 700 216 688 174 656 C82 586 72 499 72 374 L28 374 C17 374 12 368 12 357 L12 300 C12 288 17 282 28 282 L72 282 L72 13 C72 6 74 0 81 0 C83 0 85 1 88 2 C109 10 131 13 155 13 C227 13 311 -13 385 -13 C419 -13 451 -8 479 7 C491 14 493 19 493 32 L493 114 L493 114 Z " />
<glyph glyph-name="currency" unicode="&#xa4;" horiz-adv-x="551" d="M184 320 C184 371 223 411 274 411 C322 411 365 371 365 320 C365 269 323 230 274 230 C223 230 184 269 184 320 L184 320 Z M439 84 C443 80 447 78 451 78 C455 78 459 80 463 84 L512 132 C520 140 520 148 512 156 L454 216 C474 248 484 288 484 320 C484 353 478 391 455 424 L515 484 C522 492 522 500 515 509 L465 558 C461 562 456 563 452 563 C448 563 444 562 440 558 L381 499 C345 522 308 529 275 529 C247 529 208 524 171 500 L110 560 C106 564 101 566 97 566 C93 566 89 564 85 560 L36 511 C27 502 27 494 35 487 L96 426 C81 399 66 367 66 320 C66 287 73 251 96 216 L36 156 C28 148 28 140 36 131 L86 83 C90 79 94 77 98 77 C102 77 106 79 110 82 L169 141 C200 118 244 111 275 111 C307 111 347 119 380 142 L439 84 L439 84 Z " />
<glyph glyph-name="yen" unicode="&#xa5;" horiz-adv-x="624" d="M238 17 C238 6 244 0 256 0 L370 0 C381 0 387 6 387 17 L387 143 L547 143 C558 143 564 149 564 160 L564 241 C564 253 558 259 547 259 L387 259 L387 339 L547 339 C558 339 564 345 564 356 L564 438 C564 449 558 455 547 455 L461 455 L606 683 C611 690 609 700 600 700 L468 700 C460 700 454 697 449 690 L312 467 L176 690 C173 695 168 700 157 700 L25 700 C16 700 13 690 18 683 L165 455 L77 455 C66 455 60 449 60 438 L60 356 C60 345 66 339 77 339 L238 339 L238 259 L77 259 C66 259 60 253 60 241 L60 160 C60 149 66 143 77 143 L238 143 L238 17 Z " />
<glyph glyph-name="brokenbar" unicode="&#xa6;" horiz-adv-x="268" d="M207 704 C207 715 201 721 190 721 L78 721 C67 721 61 715 61 704 L61 314 C61 303 67 297 78 297 L190 297 C201 297 207 303 207 314 L207 704 L207 704 Z M207 220 C207 231 201 237 190 237 L78 237 C67 237 61 231 61 220 L61 -170 C61 -181 67 -187 78 -187 L190 -187 C201 -187 207 -181 207 -170 L207 220 L207 220 Z " />
<glyph glyph-name="section" unicode="&#xa7;" horiz-adv-x="538" d="M459 74 C491 115 504 159 504 202 C504 440 194 404 194 511 C194 546 228 565 269 565 C310 565 347 554 384 531 C388 528 392 527 396 527 C402 527 408 531 412 535 L473 629 C479 639 477 647 467 654 C407 691 350 710 279 710 C148 710 44 630 44 510 C44 450 64 408 97 376 C62 338 44 295 44 247 C44 15 355 52 355 -63 C355 -100 326 -128 265 -128 C218 -128 161 -108 118 -75 C114 -72 109 -71 106 -71 C99 -71 94 -74 91 -79 L33 -167 C26 -178 31 -184 39 -191 C106 -242 175 -273 263 -273 C435 -273 504 -154 504 -61 C504 -1 486 42 459 74 L459 74 Z M332 154 C279 183 194 189 194 248 C193 271 217 286 237 294 C288 267 355 258 355 200 C355 181 347 166 332 154 L332 154 Z " />
<glyph glyph-name="dieresis" unicode="&#xa8;" horiz-adv-x="434" d="M24 570 C24 526 59 491 103 491 C148 491 184 526 184 570 C184 614 148 650 103 650 C59 650 24 614 24 570 L24 570 Z M250 570 C250 526 284 491 328 491 C375 491 410 526 410 570 C410 614 375 650 328 650 C284 650 250 614 250 570 L250 570 Z " />
<glyph glyph-name="copyright" unicode="&#xa9;" horiz-adv-x="829" d="M417 765 C200 765 29 588 29 372 C29 161 200 -17 417 -17 C637 -17 800 161 800 372 C800 588 629 765 417 765 L417 765 Z M417 31 C225 31 77 193 77 372 C77 569 238 717 417 717 C614 717 752 552 752 372 C752 160 586 31 417 31 L417 31 Z M525 209 C533 214 534 220 529 229 L506 261 C503 265 499 268 494 268 C492 268 488 267 485 265 C468 256 449 249 426 249 C354 249 303 306 303 371 C303 437 353 493 426 493 C441 493 465 490 484 479 C487 477 490 476 493 476 C498 476 502 479 505 484 L528 516 C533 523 531 530 524 535 C504 548 466 562 425 562 C320 562 235 477 235 371 C235 267 320 182 425 182 C468 182 500 194 525 209 L525 209 Z " />
<glyph glyph-name="guillemotleft" unicode="&#xab;" horiz-adv-x="561" d="M521 408 C528 417 523 425 512 425 L403 425 C392 425 386 417 379 408 L265 239 C262 235 261 230 262 225 L265 218 L379 51 C386 42 392 34 403 34 L511 34 C522 34 526 42 519 51 L399 229 L521 408 Z M283 408 C290 417 285 425 274 425 L165 425 C154 425 148 417 141 408 L27 239 C24 235 23 230 24 225 L27 218 L141 51 C148 42 154 34 165 34 L273 34 C284 34 288 42 281 51 L161 229 L283 408 Z " />
<glyph glyph-name="logicalnot" unicode="&#xac;" horiz-adv-x="595" d="M517 17 C528 17 534 23 534 34 L534 335 L65 335 C54 335 48 329 48 318 L48 226 C48 214 54 208 65 208 L408 208 L408 34 C408 23 414 17 425 17 L517 17 L517 17 Z " />
<glyph glyph-name="uni00AD" unicode="&#xad;" horiz-adv-x="417" d="M72 316 C61 316 55 310 55 299 L55 188 C55 176 61 170 72 170 L345 170 C356 170 362 176 362 188 L362 299 C362 310 356 316 345 316 L72 316 L72 316 Z " />
<glyph glyph-name="registered" unicode="&#xae;" horiz-adv-x="829" d="M417 765 C200 765 29 588 29 372 C29 161 200 -17 417 -17 C637 -17 800 161 800 372 C800 588 629 765 417 765 L417 765 Z M417 31 C225 31 77 193 77 372 C77 569 238 717 417 717 C614 717 752 552 752 372 C752 160 586 31 417 31 L417 31 Z M422 531 C465 531 494 499 494 463 C494 423 465 392 422 392 L339 392 L339 531 L422 531 L422 531 Z M466 333 C510 347 560 390 560 463 C560 538 499 598 422 598 L284 598 C277 598 273 594 273 586 L273 180 C273 172 277 168 284 168 L327 168 C334 168 338 172 338 180 L338 326 L394 326 L496 179 C501 172 507 168 514 168 L568 168 C575 168 574 174 571 179 L466 333 L466 333 Z " />
<glyph glyph-name="degree" unicode="&#xb0;" horiz-adv-x="400" d="M24 526 C24 430 104 350 200 350 C296 350 376 430 376 526 C376 622 296 702 200 702 C104 702 24 622 24 526 L24 526 Z M115 526 C115 575 151 612 200 612 C248 612 286 575 286 526 C286 477 248 441 200 441 C151 441 115 477 115 526 L115 526 Z " />
<glyph glyph-name="plusminus" unicode="&#xb1;" horiz-adv-x="536" d="M53 148 C42 148 36 142 36 130 L36 39 C36 28 42 22 53 22 L482 22 C493 22 499 28 499 39 L499 130 C499 142 493 148 482 148 L53 148 L53 148 Z M474 372 C485 372 491 378 491 389 L491 481 C491 493 485 499 474 499 L333 499 L333 638 C333 649 327 655 316 655 L224 655 C213 655 207 649 207 638 L207 499 L64 499 C53 499 47 493 47 481 L47 389 C47 378 53 372 64 372 L207 372 L207 229 C207 218 213 212 224 212 L316 212 C327 212 333 218 333 229 L333 372 L474 372 Z " />
<glyph glyph-name="twosuperior" unicode="&#xb2;" horiz-adv-x="283" d="M159 538 C188 570 221 613 221 666 C221 722 183 760 122 760 C90 760 65 752 38 733 C33 729 32 725 35 721 L65 674 C67 671 70 669 73 669 C75 669 77 670 79 671 C90 678 101 683 112 683 C131 683 140 670 140 651 C140 613 111 583 36 489 C34 485 33 481 33 478 L33 469 C33 463 36 460 41 460 L225 460 C231 460 234 463 234 469 L234 530 C234 535 231 538 225 538 L159 538 L159 538 Z " />
<glyph glyph-name="threesuperior" unicode="&#xb3;" horiz-adv-x="260" d="M97 584 C130 584 147 574 147 555 C147 538 137 529 116 529 C101 529 90 535 78 542 C76 544 73 544 71 544 C68 544 66 543 64 539 L34 492 C30 487 31 483 37 479 C61 464 84 453 119 453 C183 453 221 491 221 544 C221 579 201 602 169 613 C194 626 215 647 215 683 C215 727 179 760 126 760 C97 760 71 751 43 734 C38 731 36 726 39 721 L68 676 C70 674 72 671 76 671 C77 671 79 672 82 673 C91 678 104 684 117 684 C136 684 142 674 142 662 C142 645 127 637 97 637 C93 637 91 635 91 630 L91 590 C91 586 93 584 97 584 L97 584 Z " />
<glyph glyph-name="acute" unicode="&#xb4;" horiz-adv-x="255" d="M102 549 C105 548 108 547 111 547 C116 547 121 550 124 555 L219 705 C223 713 223 722 211 726 L121 757 C119 758 116 758 114 758 C107 758 102 754 99 746 L35 597 C31 586 33 579 42 575 L102 549 L102 549 Z " />
<glyph glyph-name="mu" unicode="&#xb5;" horiz-adv-x="603" d="M200 20 C219 6 244 -1 272 -1 C325 -1 366 23 395 68 L395 17 C395 6 401 0 413 0 L525 0 C536 0 542 6 542 17 L542 483 C542 494 536 500 525 500 L413 500 C401 500 395 494 395 483 L395 237 C395 186 350 130 294 130 C230 130 200 180 200 244 L200 483 C200 494 194 500 183 500 L70 500 C59 500 53 494 53 483 L53 -233 C53 -244 59 -250 70 -250 L183 -250 C194 -250 200 -244 200 -233 L200 20 L200 20 Z " />
<glyph glyph-name="paragraph" unicode="&#xb6;" horiz-adv-x="667" d="M442 -215 C442 -226 448 -232 460 -232 L541 -232 C552 -232 558 -226 558 -215 L558 566 L617 566 C628 566 634 572 634 583 L634 665 C634 676 628 682 617 682 L232 682 C121 682 30 591 30 480 C30 369 121 278 232 278 L232 -215 C232 -226 238 -232 249 -232 L331 -232 C342 -232 348 -226 348 -215 L348 566 L442 566 L442 -215 L442 -215 Z " />
<glyph glyph-name="periodcentered" unicode="&#xb7;" horiz-adv-x="217" d="M24 326 C24 279 60 243 107 243 C155 243 193 279 193 326 C193 374 155 411 107 411 C60 411 24 374 24 326 L24 326 Z " />
<glyph glyph-name="cedilla" unicode="&#xb8;" horiz-adv-x="210" d="M16 -161 C13 -168 20 -175 29 -175 L128 -175 C138 -175 144 -170 147 -161 L173 -1 C174 8 171 12 163 12 L84 12 C75 12 71 6 68 -1 L16 -161 L16 -161 Z " />
<glyph glyph-name="onesuperior" unicode="&#xb9;" horiz-adv-x="231" d="M40 739 C35 739 32 736 32 729 L40 667 C41 663 43 661 47 661 C47 661 48 661 49 661 L88 666 L88 469 C88 463 91 460 97 460 L161 460 C167 460 170 463 170 469 L170 746 C170 752 167 755 161 755 L152 755 L40 739 L40 739 Z " />
<glyph glyph-name="ordmasculine" unicode="&#xba;" horiz-adv-x="563" d="M24 250 C24 106 138 -10 282 -10 C426 -10 539 106 539 250 C539 394 426 510 282 510 C138 510 24 394 24 250 L24 250 Z M167 250 C167 318 218 370 282 370 C346 370 396 318 396 250 C396 182 346 130 282 130 C218 130 167 182 167 250 L167 250 Z " />
<glyph glyph-name="guillemotright" unicode="&#xbb;" horiz-adv-x="561" d="M41 51 C34 42 39 34 50 34 L157 34 C168 34 175 42 182 51 L296 218 L299 225 C300 229 299 234 296 239 L182 408 C175 417 168 425 157 425 L48 425 C37 425 33 417 40 408 L162 229 L41 51 L41 51 Z M280 51 C273 42 277 34 288 34 L395 34 C406 34 413 42 420 51 L534 218 L537 225 C538 229 537 234 534 239 L420 408 C413 417 406 425 395 425 L287 425 C275 425 271 417 278 408 L400 229 L280 51 L280 51 Z " />
<glyph glyph-name="onequarter" unicode="&#xbc;" horiz-adv-x="734" d="M121 17 C114 6 121 0 133 0 L215 0 C226 0 232 6 237 17 L622 683 C629 694 622 700 610 700 L528 700 C517 700 512 694 505 683 L121 17 L121 17 Z M598 9 C598 3 601 0 607 0 L657 0 C663 0 666 3 666 9 L666 56 L687 56 C692 56 695 59 695 65 L695 112 C695 118 692 121 687 121 L666 121 L666 154 C666 160 663 163 657 163 L609 163 C603 163 600 160 600 154 L600 121 L560 121 L620 285 C623 292 621 295 614 295 L562 295 C555 295 550 292 547 285 L479 102 L479 65 C479 59 482 56 488 56 L598 56 L598 9 Z M97 524 C130 524 147 514 147 495 C147 478 137 469 116 469 C101 469 90 475 78 482 C76 484 73 484 71 484 C68 484 66 483 64 479 L34 432 C30 427 31 423 37 419 C61 404 84 393 119 393 C183 393 221 431 221 484 C221 519 201 542 169 553 C194 566 215 587 215 623 C215 667 179 700 126 700 C97 700 71 691 43 674 C38 671 36 666 39 661 L68 616 C70 614 72 611 76 611 C77 611 79 612 82 613 C91 618 104 624 117 624 C136 624 142 614 142 602 C142 585 127 577 97 577 C93 577 91 575 91 570 L91 530 C91 526 93 524 97 524 L97 524 Z " />
<glyph glyph-name="onehalf" unicode="&#xbd;" horiz-adv-x="699" d="M40 685 C35 685 32 682 32 675 L40 613 C41 609 43 607 47 607 C47 607 48 607 49 607 L88 612 L88 415 C88 409 91 406 97 406 L161 406 C167 406 170 409 170 415 L170 692 C170 698 167 701 161 701 L152 701 L40 685 L40 685 Z M575 78 C604 110 637 153 637 206 C637 262 599 300 538 300 C506 300 481 292 454 273 C449 269 448 265 451 261 L481 214 C483 211 486 209 489 209 C491 209 493 210 495 211 C506 218 517 223 529 223 C548 223 556 210 556 191 C556 153 527 123 452 29 C450 25 449 21 449 18 L449 9 C449 3 452 0 457 0 L641 0 C647 0 650 3 650 9 L650 70 C650 75 647 78 641 78 L575 78 L575 78 Z M77 17 C70 6 77 0 89 0 L171 0 C183 0 187 6 194 17 L578 683 C585 694 578 700 566 700 L484 700 C473 700 469 694 462 683 L77 17 L77 17 Z " />
<glyph glyph-name="threequarters" unicode="&#xbe;" horiz-adv-x="688" d="M40 685 C35 685 32 682 32 675 L40 613 C41 609 43 607 47 607 C47 607 48 607 49 607 L88 612 L88 415 C88 409 91 406 97 406 L161 406 C167 406 170 409 170 415 L170 692 C170 698 167 701 161 701 L152 701 L40 685 L40 685 Z M77 17 C70 6 77 0 89 0 L171 0 C183 0 187 6 194 17 L578 683 C585 694 578 700 566 700 L484 700 C473 700 469 694 462 683 L77 17 L77 17 Z M552 9 C552 3 555 0 561 0 L612 0 C618 0 621 3 621 9 L621 56 L641 56 C646 56 649 59 649 65 L649 112 C649 118 646 121 641 121 L621 121 L621 154 C621 160 618 163 612 163 L563 163 C557 163 554 160 554 154 L554 121 L514 121 L575 285 C577 292 575 295 568 295 L516 295 C509 295 504 292 502 285 L434 102 L434 65 C434 59 437 56 443 56 L552 56 L552 9 Z " />
<glyph glyph-name="questiondown" unicode="&#xbf;" horiz-adv-x="452" d="M363 169 C359 174 355 177 350 177 C347 177 343 176 339 173 C308 150 275 135 244 135 C208 135 186 156 186 187 C186 254 319 263 319 439 L319 460 C319 472 318 482 303 482 L193 482 C177 482 174 473 174 460 L174 439 C174 317 36 294 36 163 C36 59 117 -10 233 -10 C302 -10 362 14 417 53 C426 60 427 68 422 77 L363 169 L363 169 Z M332 627 C332 674 295 710 248 710 C201 710 164 674 164 627 C164 579 201 542 248 542 C295 542 332 579 332 627 L332 627 Z " />
<glyph glyph-name="Agrave" unicode="&#xc0;" horiz-adv-x="633" d="M142 0 C157 0 165 6 167 17 L203 141 L429 141 L465 18 C469 3 478 0 491 0 L611 0 C623 0 627 6 622 17 L413 683 C410 694 404 700 393 700 L240 700 C230 700 223 694 219 683 L11 17 C6 6 10 0 22 0 L142 0 L142 0 Z M237 279 L316 528 L396 279 L237 279 Z M363 774 C374 779 373 788 370 796 L306 945 C303 953 298 957 291 957 C289 957 286 957 284 956 L194 925 C183 921 181 912 186 904 L281 754 C284 749 289 746 294 746 C297 746 300 747 303 748 L363 774 L363 774 Z " />
<glyph glyph-name="Aacute" unicode="&#xc1;" horiz-adv-x="633" d="M142 0 C157 0 165 6 167 17 L203 141 L429 141 L465 18 C469 3 478 0 491 0 L611 0 C623 0 627 6 622 17 L413 683 C410 694 404 700 393 700 L240 700 C230 700 223 694 219 683 L11 17 C6 6 10 0 22 0 L142 0 L142 0 Z M237 279 L316 528 L396 279 L237 279 Z M327 748 C330 747 333 746 336 746 C341 746 346 749 349 754 L444 904 C448 912 448 921 436 925 L346 956 C344 957 341 957 339 957 C332 957 327 953 324 945 L260 796 C256 785 258 778 267 774 L327 748 L327 748 Z " />
<glyph glyph-name="Acircumflex" unicode="&#xc2;" horiz-adv-x="633" d="M142 0 C157 0 165 6 167 17 L203 141 L429 141 L465 18 C469 3 478 0 491 0 L611 0 C623 0 627 6 622 17 L413 683 C410 694 404 700 393 700 L240 700 C230 700 223 694 219 683 L11 17 C6 6 10 0 22 0 L142 0 L142 0 Z M237 279 L316 528 L396 279 L237 279 Z M281 944 C268 944 257 936 249 927 L144 809 C136 801 139 791 146 784 L179 743 C182 740 185 738 189 738 C194 738 200 741 204 744 L315 841 L426 744 C430 740 436 738 441 738 C445 738 449 739 452 743 L485 784 C492 792 495 801 487 809 L382 927 C374 936 364 944 349 944 L281 944 L281 944 Z " />
<glyph glyph-name="Atilde" unicode="&#xc3;" horiz-adv-x="633" d="M142 0 C157 0 165 6 167 17 L203 141 L429 141 L465 18 C469 3 478 0 491 0 L611 0 C623 0 627 6 622 17 L413 683 C410 694 404 700 393 700 L240 700 C230 700 223 694 219 683 L11 17 C6 6 10 0 22 0 L142 0 L142 0 Z M237 279 L316 528 L396 279 L237 279 Z M385 879 C337 879 309 934 242 934 C207 934 168 910 139 882 C130 874 129 868 133 856 L150 787 C152 782 154 777 158 777 C161 777 163 778 167 781 C194 806 218 830 249 830 C297 830 324 776 392 776 C427 776 466 800 495 828 C502 834 504 843 501 854 L484 923 C482 929 479 933 475 933 C473 933 470 931 467 928 C440 904 414 879 385 879 L385 879 Z " />
<glyph glyph-name="Adieresis" unicode="&#xc4;" horiz-adv-x="633" d="M142 0 C157 0 165 6 167 17 L203 141 L429 141 L465 18 C469 3 478 0 491 0 L611 0 C623 0 627 6 622 17 L413 683 C410 694 404 700 393 700 L240 700 C230 700 223 694 219 683 L11 17 C6 6 10 0 22 0 L142 0 L142 0 Z M237 279 L316 528 L396 279 L237 279 Z M124 842 C124 798 159 763 203 763 C248 763 284 798 284 842 C284 886 248 922 203 922 C159 922 124 886 124 842 L124 842 Z M350 842 C350 798 384 763 428 763 C475 763 510 798 510 842 C510 886 475 922 428 922 C384 922 350 886 350 842 L350 842 Z " />
<glyph glyph-name="Aring" unicode="&#xc5;" horiz-adv-x="633" d="M142 0 C157 0 165 6 167 17 L203 141 L429 141 L465 18 C469 3 478 0 491 0 L611 0 C623 0 627 6 622 17 L413 683 C410 694 404 700 393 700 L240 700 C230 700 223 694 219 683 L11 17 C6 6 10 0 22 0 L142 0 L142 0 Z M237 279 L316 528 L396 279 L237 279 Z M189 861 C189 789 247 732 317 732 C388 732 445 789 445 861 C445 931 388 989 317 989 C247 989 189 931 189 861 L189 861 Z M278 861 C278 884 294 902 317 902 C340 902 358 884 358 861 C358 838 340 821 317 821 C294 821 278 838 278 861 L278 861 Z " />
<glyph glyph-name="AE" unicode="&#xc6;" horiz-adv-x="862" d="M287 279 L405 535 L406 535 L406 279 L287 279 Z M148 0 C159 0 163 9 168 17 L227 141 L406 141 L406 17 C406 16 407 0 424 0 L814 0 C825 0 832 6 832 17 L832 128 C832 137 826 146 814 146 L564 146 L564 279 L779 279 C791 279 797 285 797 297 L797 403 C797 414 790 421 779 421 L564 421 L564 554 L813 554 C825 554 831 560 831 572 L831 683 C831 692 825 700 813 700 L339 700 C328 700 323 694 319 687 L12 17 C6 6 10 0 25 0 L148 0 L148 0 Z " />
<glyph glyph-name="Ccedilla" unicode="&#xc7;" horiz-adv-x="633" d="M264 -161 C261 -168 268 -175 277 -175 L376 -175 C387 -175 393 -170 395 -161 L420 -9 C488 -1 531 15 582 45 C591 51 593 60 586 71 L526 162 C522 169 517 172 512 172 C508 172 505 171 502 168 C466 143 419 135 388 135 C268 135 178 232 178 349 C178 467 268 565 388 565 C431 565 466 553 498 534 C502 531 506 530 510 530 C516 530 521 534 526 539 L586 632 C591 640 591 649 579 656 C528 688 464 710 388 710 C180 710 29 552 29 349 C29 182 134 33 316 -2 L264 -161 L264 -161 Z " />
<glyph glyph-name="Egrave" unicode="&#xc8;" horiz-adv-x="533" d="M83 700 C72 700 66 694 66 683 L66 17 C66 8 72 0 83 0 L486 0 C498 0 503 8 503 17 L503 128 C503 140 497 146 486 146 L215 146 L215 279 L450 279 C461 279 467 285 467 297 L467 403 C467 415 461 421 450 421 L215 421 L215 554 L485 554 C496 554 502 561 502 572 L502 683 C502 692 496 700 485 700 L83 700 L83 700 Z M338 774 C349 779 348 788 345 796 L281 945 C278 953 273 957 266 957 C264 957 261 957 259 956 L169 925 C158 921 156 912 161 904 L256 754 C259 749 264 746 269 746 C272 746 275 747 278 748 L338 774 L338 774 Z " />
<glyph glyph-name="Eacute" unicode="&#xc9;" horiz-adv-x="533" d="M83 700 C72 700 66 694 66 683 L66 17 C66 8 72 0 83 0 L486 0 C498 0 503 8 503 17 L503 128 C503 140 497 146 486 146 L215 146 L215 279 L450 279 C461 279 467 285 467 297 L467 403 C467 415 461 421 450 421 L215 421 L215 554 L485 554 C496 554 502 561 502 572 L502 683 C502 692 496 700 485 700 L83 700 L83 700 Z M289 748 C292 747 295 746 298 746 C303 746 308 749 311 754 L406 904 C410 912 410 921 398 925 L308 956 C306 957 303 957 301 957 C294 957 289 953 286 945 L222 796 C218 785 220 778 229 774 L289 748 L289 748 Z " />
<glyph glyph-name="Ecircumflex" unicode="&#xca;" horiz-adv-x="533" d="M83 700 C72 700 66 694 66 683 L66 17 C66 8 72 0 83 0 L486 0 C498 0 503 8 503 17 L503 128 C503 140 497 146 486 146 L215 146 L215 279 L450 279 C461 279 467 285 467 297 L467 403 C467 415 461 421 450 421 L215 421 L215 554 L485 554 C496 554 502 561 502 572 L502 683 C502 692 496 700 485 700 L83 700 L83 700 Z M250 944 C237 944 226 936 218 927 L113 809 C105 801 108 791 115 784 L148 743 C151 740 154 738 158 738 C163 738 169 741 173 744 L284 841 L395 744 C399 740 405 738 410 738 C414 738 418 739 421 743 L454 784 C461 792 464 801 456 809 L351 927 C343 936 333 944 318 944 L250 944 L250 944 Z " />
<glyph glyph-name="Edieresis" unicode="&#xcb;" horiz-adv-x="535" d="M84 700 C73 700 67 694 67 683 L67 17 C67 8 73 0 84 0 L487 0 C499 0 504 8 504 17 L504 128 C504 140 498 146 487 146 L216 146 L216 279 L451 279 C462 279 468 285 468 297 L468 403 C468 415 462 421 451 421 L216 421 L216 554 L486 554 C497 554 503 561 503 572 L503 683 C503 692 497 700 486 700 L84 700 L84 700 Z M88 842 C88 798 123 763 167 763 C212 763 248 798 248 842 C248 886 212 922 167 922 C123 922 88 886 88 842 L88 842 Z M314 842 C314 798 348 763 392 763 C439 763 474 798 474 842 C474 886 439 922 392 922 C348 922 314 886 314 842 L314 842 Z " />
<glyph glyph-name="Igrave" unicode="&#xcc;" horiz-adv-x="281" d="M198 0 C209 0 215 6 215 17 L215 683 C215 694 209 700 198 700 L83 700 C72 700 66 694 66 683 L66 17 C66 6 72 0 83 0 L198 0 L198 0 Z M183 774 C194 779 193 788 190 796 L126 945 C123 953 118 957 111 957 C109 957 106 957 104 956 L14 925 C3 921 1 912 6 904 L101 754 C104 749 109 746 114 746 C117 746 120 747 123 748 L183 774 L183 774 Z " />
<glyph glyph-name="Iacute" unicode="&#xcd;" horiz-adv-x="294" d="M205 0 C216 0 222 6 222 17 L222 683 C222 694 216 700 205 700 L90 700 C79 700 73 694 73 683 L73 17 C73 6 79 0 90 0 L205 0 L205 0 Z M168 749 C171 748 174 747 177 747 C182 747 187 750 190 755 L285 905 C289 913 289 922 277 926 L187 957 C185 958 182 958 180 958 C173 958 168 954 165 946 L101 797 C97 786 99 779 108 775 L168 749 L168 749 Z " />
<glyph glyph-name="Icircumflex" unicode="&#xce;" horiz-adv-x="281" d="M198 0 C209 0 215 6 215 17 L215 683 C215 694 209 700 198 700 L83 700 C72 700 66 694 66 683 L66 17 C66 6 72 0 83 0 L198 0 L198 0 Z M106 944 C93 944 82 936 74 927 L-31 809 C-39 801 -36 791 -29 784 L4 743 C7 740 10 738 14 738 C19 738 25 741 29 744 L140 841 L251 744 C255 740 261 738 266 738 C270 738 274 739 277 743 L310 784 C317 792 320 801 312 809 L207 927 C199 936 189 944 174 944 L106 944 L106 944 Z " />
<glyph glyph-name="Idieresis" unicode="&#xcf;" horiz-adv-x="281" d="M198 0 C209 0 215 6 215 17 L215 683 C215 694 209 700 198 700 L83 700 C72 700 66 694 66 683 L66 17 C66 6 72 0 83 0 L198 0 L198 0 Z M-53 841 C-53 797 -18 762 26 762 C71 762 107 797 107 841 C107 885 71 921 26 921 C-18 921 -53 885 -53 841 L-53 841 Z M173 841 C173 797 207 762 251 762 C298 762 333 797 333 841 C333 885 298 921 251 921 C207 921 173 885 173 841 L173 841 Z " />
<glyph glyph-name="Eth" unicode="&#xd0;" horiz-adv-x="715" d="M66 17 C66 6 72 0 83 0 L334 0 C534 0 686 157 686 349 C686 545 534 700 334 700 L83 700 C72 700 66 694 66 683 L66 407 L23 407 C12 407 6 400 6 389 L6 314 C6 302 12 296 23 296 L66 296 L66 17 Z M215 554 L328 554 C442 554 538 471 538 349 C538 231 442 146 328 146 L215 146 L215 296 L298 296 C310 296 316 302 316 314 L316 389 C316 400 309 407 298 407 L215 407 L215 554 Z " />
<glyph glyph-name="Ntilde" unicode="&#xd1;" horiz-adv-x="746" d="M663 0 C674 0 680 6 680 17 L680 683 C680 694 674 700 663 700 L548 700 C537 700 531 694 531 683 L531 258 L229 683 C221 694 214 700 199 700 L83 700 C72 700 66 694 66 683 L66 17 C66 6 72 0 83 0 L198 0 C209 0 215 6 215 17 L215 442 L517 17 C525 6 532 0 547 0 L663 0 Z M436 879 C388 879 360 934 293 934 C258 934 219 910 190 882 C181 874 180 868 184 856 L201 787 C203 782 205 777 209 777 C212 777 214 778 218 781 C245 806 269 830 300 830 C348 830 375 776 443 776 C478 776 517 800 546 828 C553 834 555 843 552 854 L535 923 C533 929 530 933 526 933 C524 933 521 931 518 928 C491 904 465 879 436 879 L436 879 Z " />
<glyph glyph-name="Ograve" unicode="&#xd2;" horiz-adv-x="777" d="M388 710 C185 710 29 552 29 349 C29 146 185 -10 388 -10 C590 -10 748 149 748 349 C748 552 590 710 388 710 L388 710 Z M388 135 C268 135 178 232 178 349 C178 467 268 565 388 565 C509 565 599 467 599 349 C599 232 508 135 388 135 L388 135 Z M425 775 C436 780 435 789 432 797 L368 946 C365 954 360 958 353 958 C351 958 348 958 346 957 L256 926 C245 922 243 913 248 905 L343 755 C346 750 351 747 356 747 C359 747 362 748 365 749 L425 775 L425 775 Z " />
<glyph glyph-name="Oacute" unicode="&#xd3;" horiz-adv-x="777" d="M388 710 C185 710 29 552 29 349 C29 146 185 -10 388 -10 C590 -10 748 149 748 349 C748 552 590 710 388 710 L388 710 Z M388 135 C268 135 178 232 178 349 C178 467 268 565 388 565 C509 565 599 467 599 349 C599 232 508 135 388 135 L388 135 Z M413 749 C416 748 419 747 422 747 C427 747 432 750 435 755 L530 905 C534 913 534 922 522 926 L432 957 C430 958 427 958 425 958 C418 958 413 954 410 946 L346 797 C342 786 344 779 353 775 L413 749 L413 749 Z " />
<glyph glyph-name="Ocircumflex" unicode="&#xd4;" horiz-adv-x="777" d="M388 710 C185 710 29 552 29 349 C29 146 185 -10 388 -10 C590 -10 748 149 748 349 C748 552 590 710 388 710 L388 710 Z M388 135 C268 135 178 232 178 349 C178 467 268 565 388 565 C509 565 599 467 599 349 C599 232 508 135 388 135 L388 135 Z M354 945 C341 945 330 937 322 928 L217 810 C209 802 212 792 219 785 L252 744 C255 741 258 739 262 739 C267 739 273 742 277 745 L388 842 L499 745 C503 741 509 739 514 739 C518 739 522 740 525 744 L558 785 C565 793 568 802 560 810 L455 928 C447 937 437 945 422 945 L354 945 L354 945 Z " />
<glyph glyph-name="Otilde" unicode="&#xd5;" horiz-adv-x="777" d="M388 710 C185 710 29 552 29 349 C29 146 185 -10 388 -10 C590 -10 748 149 748 349 C748 552 590 710 388 710 L388 710 Z M388 135 C268 135 178 232 178 349 C178 467 268 565 388 565 C509 565 599 467 599 349 C599 232 508 135 388 135 L388 135 Z M457 879 C409 879 381 934 314 934 C279 934 240 910 211 882 C202 874 201 868 205 856 L222 787 C224 782 226 777 230 777 C233 777 235 778 239 781 C266 806 290 830 321 830 C369 830 396 776 464 776 C499 776 538 800 567 828 C574 834 576 843 573 854 L556 923 C554 929 551 933 547 933 C545 933 542 931 539 928 C512 904 486 879 457 879 L457 879 Z " />
<glyph glyph-name="Odieresis" unicode="&#xd6;" horiz-adv-x="777" d="M388 710 C185 710 29 552 29 349 C29 146 185 -10 388 -10 C590 -10 748 149 748 349 C748 552 590 710 388 710 L388 710 Z M388 135 C268 135 178 232 178 349 C178 467 268 565 388 565 C509 565 599 467 599 349 C599 232 508 135 388 135 L388 135 Z M196 842 C196 798 231 763 275 763 C320 763 356 798 356 842 C356 886 320 922 275 922 C231 922 196 886 196 842 L196 842 Z M422 842 C422 798 456 763 500 763 C547 763 582 798 582 842 C582 886 547 922 500 922 C456 922 422 886 422 842 L422 842 Z " />
<glyph glyph-name="multiply" unicode="&#xd7;" horiz-adv-x="452" d="M415 387 C423 395 423 403 415 412 L350 477 C346 481 342 483 338 483 C334 483 330 481 326 477 L226 378 L128 476 C124 480 119 482 115 482 C111 482 107 480 103 476 L38 411 C29 402 29 394 38 387 L137 288 L35 187 C27 179 27 171 36 163 L101 98 C106 94 110 91 114 91 C118 91 122 94 125 98 L226 198 L327 98 C331 94 335 91 339 91 C343 91 348 94 352 98 L416 163 C425 171 425 179 417 187 L316 288 L415 387 Z " />
<glyph glyph-name="Oslash" unicode="&#xd8;" horiz-adv-x="776" d="M252 186 C204 229 177 280 177 349 C177 468 271 565 387 565 C421 565 453 557 482 542 L252 186 Z M664 725 C669 732 663 737 651 737 L619 737 C611 737 605 733 600 725 L562 666 C511 693 451 710 387 710 C186 710 29 549 29 349 C29 236 73 141 170 61 L120 -18 C115 -26 122 -30 130 -30 L166 -30 C174 -30 178 -26 183 -18 L216 33 C267 6 323 -10 387 -10 C589 -10 747 151 747 349 C747 472 692 569 607 637 L664 725 L664 725 Z M525 511 C568 475 599 420 599 349 C599 233 505 135 387 135 C356 135 321 142 296 157 L525 511 Z " />
<glyph glyph-name="Ugrave" unicode="&#xd9;" horiz-adv-x="694" d="M79 700 C67 700 61 694 61 683 L61 274 C61 110 171 -10 347 -10 C521 -10 632 110 632 274 L632 683 C632 694 626 700 615 700 L500 700 C489 700 483 694 483 683 L483 301 C483 197 439 135 347 135 C255 135 211 197 211 301 L211 683 C211 694 205 700 193 700 L79 700 L79 700 Z M378 774 C389 779 388 788 385 796 L321 945 C318 953 313 957 306 957 C304 957 301 957 299 956 L209 925 C198 921 196 912 201 904 L296 754 C299 749 304 746 309 746 C312 746 315 747 318 748 L378 774 L378 774 Z " />
<glyph glyph-name="Uacute" unicode="&#xda;" horiz-adv-x="694" d="M79 700 C67 700 61 694 61 683 L61 274 C61 110 171 -10 347 -10 C521 -10 632 110 632 274 L632 683 C632 694 626 700 615 700 L500 700 C489 700 483 694 483 683 L483 301 C483 197 439 135 347 135 C255 135 211 197 211 301 L211 683 C211 694 205 700 193 700 L79 700 L79 700 Z M356 749 C359 748 362 747 365 747 C370 747 375 750 378 755 L473 905 C477 913 477 922 465 926 L375 957 C373 958 370 958 368 958 C361 958 356 954 353 946 L289 797 C285 786 287 779 296 775 L356 749 L356 749 Z " />
<glyph glyph-name="Ucircumflex" unicode="&#xdb;" horiz-adv-x="694" d="M79 700 C67 700 61 694 61 683 L61 274 C61 110 171 -10 347 -10 C521 -10 632 110 632 274 L632 683 C632 694 626 700 615 700 L500 700 C489 700 483 694 483 683 L483 301 C483 197 439 135 347 135 C255 135 211 197 211 301 L211 683 C211 694 205 700 193 700 L79 700 L79 700 Z M312 944 C299 944 288 936 280 927 L175 809 C167 801 170 791 177 784 L210 743 C213 740 216 738 220 738 C225 738 231 741 235 744 L346 841 L457 744 C461 740 467 738 472 738 C476 738 480 739 483 743 L516 784 C523 792 526 801 518 809 L413 927 C405 936 395 944 380 944 L312 944 L312 944 Z " />
<glyph glyph-name="Udieresis" unicode="&#xdc;" horiz-adv-x="694" d="M79 700 C67 700 61 694 61 683 L61 274 C61 110 171 -10 347 -10 C521 -10 632 110 632 274 L632 683 C632 694 626 700 615 700 L500 700 C489 700 483 694 483 683 L483 301 C483 197 439 135 347 135 C255 135 211 197 211 301 L211 683 C211 694 205 700 193 700 L79 700 L79 700 Z M154 842 C154 798 189 763 233 763 C278 763 314 798 314 842 C314 886 278 922 233 922 C189 922 154 886 154 842 L154 842 Z M380 842 C380 798 414 763 458 763 C505 763 540 798 540 842 C540 886 505 922 458 922 C414 922 380 886 380 842 L380 842 Z " />
<glyph glyph-name="Yacute" unicode="&#xdd;" horiz-adv-x="611" d="M170 690 C167 695 160 700 151 700 L18 700 C9 700 7 690 12 683 L232 339 L232 17 C232 6 238 0 249 0 L363 0 C375 0 381 6 381 17 L381 339 L600 683 C605 690 602 700 593 700 L462 700 C451 700 447 697 443 690 L306 467 L170 690 L170 690 Z M322 747 C325 746 328 745 331 745 C336 745 341 748 344 753 L439 903 C443 911 443 920 431 924 L341 955 C339 956 336 956 334 956 C327 956 322 952 319 944 L255 795 C251 784 253 777 262 773 L322 747 L322 747 Z " />
<glyph glyph-name="Thorn" unicode="&#xde;" horiz-adv-x="585" d="M215 468 L300 468 C372 468 414 434 414 370 C414 306 372 268 300 268 L215 268 L215 468 Z M66 17 C66 6 72 0 83 0 L198 0 C209 0 215 6 215 17 L215 133 L334 133 C467 133 562 248 562 370 C562 499 474 604 334 604 L215 604 L215 733 C215 744 209 750 198 750 L83 750 C72 750 66 744 66 733 L66 17 L66 17 Z " />
<glyph glyph-name="germandbls" unicode="&#xdf;" horiz-adv-x="597" d="M257 2 C276 -1 296 -2 314 -2 C451 -2 565 74 565 220 C565 308 510 379 426 411 C489 442 513 500 513 560 C513 677 412 750 301 750 C153 750 66 655 66 514 L66 15 C66 6 70 1 79 1 L202 1 C211 1 216 6 216 15 L216 514 C216 566 237 607 290 607 C335 607 364 581 364 545 C364 498 324 476 271 476 C261 476 256 472 256 464 L256 344 C256 333 260 328 268 327 C340 322 416 294 416 227 C416 169 367 145 310 145 C293 145 277 147 260 151 C250 151 245 148 245 137 L245 20 C245 9 249 3 257 2 L257 2 Z " />
<glyph glyph-name="agrave" unicode="&#xe0;" horiz-adv-x="605" d="M177 250 C177 318 226 370 291 370 C355 370 405 318 405 250 C405 182 355 130 291 130 C226 130 177 182 177 250 L177 250 Z M532 0 C543 0 549 6 549 17 L549 483 C549 494 543 500 532 500 L419 500 C408 500 402 494 402 483 L402 432 C367 475 321 510 250 510 C118 510 29 393 29 250 C29 107 118 -10 250 -10 C322 -10 369 27 402 67 L402 17 C402 6 408 0 419 0 L532 0 L532 0 Z M345 575 C356 580 355 589 352 597 L288 746 C285 754 280 758 273 758 C271 758 268 758 266 757 L176 726 C165 722 163 713 168 705 L263 555 C266 550 271 547 276 547 C279 547 282 548 285 549 L345 575 L345 575 Z " />
<glyph glyph-name="aacute" unicode="&#xe1;" horiz-adv-x="605" d="M177 250 C177 318 226 370 291 370 C355 370 405 318 405 250 C405 182 355 130 291 130 C226 130 177 182 177 250 L177 250 Z M532 0 C543 0 549 6 549 17 L549 483 C549 494 543 500 532 500 L419 500 C408 500 402 494 402 483 L402 432 C367 475 321 510 250 510 C118 510 29 393 29 250 C29 107 118 -10 250 -10 C322 -10 369 27 402 67 L402 17 C402 6 408 0 419 0 L532 0 L532 0 Z M305 549 C308 548 311 547 314 547 C319 547 324 550 327 555 L422 705 C426 713 426 722 414 726 L324 757 C322 758 319 758 317 758 C310 758 305 754 302 746 L238 597 C234 586 236 579 245 575 L305 549 L305 549 Z " />
<glyph glyph-name="acircumflex" unicode="&#xe2;" horiz-adv-x="605" d="M177 250 C177 318 226 370 291 370 C355 370 405 318 405 250 C405 182 355 130 291 130 C226 130 177 182 177 250 L177 250 Z M532 0 C543 0 549 6 549 17 L549 483 C549 494 543 500 532 500 L419 500 C408 500 402 494 402 483 L402 432 C367 475 321 510 250 510 C118 510 29 393 29 250 C29 107 118 -10 250 -10 C322 -10 369 27 402 67 L402 17 C402 6 408 0 419 0 L532 0 L532 0 Z M267 748 C254 748 243 740 235 731 L130 613 C122 605 125 595 132 588 L165 547 C168 544 171 542 175 542 C180 542 186 545 190 548 L301 645 L412 548 C416 544 422 542 427 542 C431 542 435 543 438 547 L471 588 C478 596 481 605 473 613 L368 731 C360 740 350 748 335 748 L267 748 L267 748 Z " />
<glyph glyph-name="atilde" unicode="&#xe3;" horiz-adv-x="605" d="M177 250 C177 318 226 370 291 370 C355 370 405 318 405 250 C405 182 355 130 291 130 C226 130 177 182 177 250 L177 250 Z M532 0 C543 0 549 6 549 17 L549 483 C549 494 543 500 532 500 L419 500 C408 500 402 494 402 483 L402 432 C367 475 321 510 250 510 C118 510 29 393 29 250 C29 107 118 -10 250 -10 C322 -10 369 27 402 67 L402 17 C402 6 408 0 419 0 L532 0 L532 0 Z M365 688 C317 688 289 743 222 743 C187 743 148 719 119 691 C110 683 109 677 113 665 L130 596 C132 591 134 586 138 586 C141 586 143 587 147 590 C174 615 198 639 229 639 C277 639 304 585 372 585 C407 585 446 609 475 637 C482 643 484 652 481 663 L464 732 C462 738 459 742 455 742 C453 742 450 740 447 737 C420 713 394 688 365 688 L365 688 Z " />
<glyph glyph-name="adieresis" unicode="&#xe4;" horiz-adv-x="605" d="M177 250 C177 318 226 370 291 370 C355 370 405 318 405 250 C405 182 355 130 291 130 C226 130 177 182 177 250 L177 250 Z M532 0 C543 0 549 6 549 17 L549 483 C549 494 543 500 532 500 L419 500 C408 500 402 494 402 483 L402 432 C367 475 321 510 250 510 C118 510 29 393 29 250 C29 107 118 -10 250 -10 C322 -10 369 27 402 67 L402 17 C402 6 408 0 419 0 L532 0 L532 0 Z M106 645 C106 601 141 566 185 566 C230 566 266 601 266 645 C266 689 230 725 185 725 C141 725 106 689 106 645 L106 645 Z M332 645 C332 601 366 566 410 566 C457 566 492 601 492 645 C492 689 457 725 410 725 C366 725 332 689 332 645 L332 645 Z " />
<glyph glyph-name="aring" unicode="&#xe5;" horiz-adv-x="605" d="M177 250 C177 318 226 370 291 370 C355 370 405 318 405 250 C405 182 355 130 291 130 C226 130 177 182 177 250 L177 250 Z M532 0 C543 0 549 6 549 17 L549 483 C549 494 543 500 532 500 L419 500 C408 500 402 494 402 483 L402 432 C367 475 321 510 250 510 C118 510 29 393 29 250 C29 107 118 -10 250 -10 C322 -10 369 27 402 67 L402 17 C402 6 408 0 419 0 L532 0 L532 0 Z M169 672 C169 600 227 543 297 543 C368 543 425 600 425 672 C425 742 368 800 297 800 C227 800 169 742 169 672 L169 672 Z M258 672 C258 695 274 713 297 713 C320 713 338 695 338 672 C338 649 320 632 297 632 C274 632 258 649 258 672 L258 672 Z " />
<glyph glyph-name="ae" unicode="&#xe6;" horiz-adv-x="922" d="M526 309 C537 362 578 397 629 397 C682 397 719 365 734 309 L526 309 Z M435 102 C472 46 546 -10 642 -10 C713 -10 766 5 830 41 C837 45 842 53 835 64 L784 135 C780 140 776 143 771 143 C768 143 764 142 760 140 C721 121 694 114 646 114 C592 114 538 143 522 203 L858 203 C873 203 878 211 878 222 C878 371 787 510 629 510 C538 510 475 463 435 402 C396 469 337 510 249 510 C181 510 131 497 71 470 C62 465 59 457 64 446 L91 380 C95 372 99 368 105 368 C108 368 111 369 114 370 C161 389 198 397 238 397 C310 397 346 350 357 298 C317 321 277 329 237 329 C114 329 35 269 38 165 C41 82 102 -9 235 -9 C336 -9 403 48 435 102 L435 102 Z M357 209 C346 154 312 113 249 113 C201 113 171 139 171 178 C171 219 206 241 257 241 C300 241 328 232 357 209 L357 209 Z " />
<glyph glyph-name="ccedilla" unicode="&#xe7;" horiz-adv-x="475" d="M173 -161 C170 -168 177 -175 186 -175 L285 -175 C296 -175 302 -170 304 -161 L330 -5 C373 2 404 16 433 35 C442 41 444 49 438 59 L376 145 C373 149 369 152 364 152 C361 152 357 151 354 149 C332 136 308 130 282 130 C218 130 167 182 167 250 C167 318 218 370 282 370 C298 370 323 368 352 349 C356 347 360 345 363 345 C368 345 372 348 375 353 L437 439 C444 447 441 458 432 463 C397 486 346 510 282 510 C138 510 24 394 24 250 C24 139 97 25 225 -2 L173 -161 L173 -161 Z " />
<glyph glyph-name="egrave" unicode="&#xe8;" horiz-adv-x="542" d="M316 575 C327 580 326 589 323 597 L259 746 C256 754 251 758 244 758 C242 758 239 758 237 757 L147 726 C136 722 134 713 139 705 L234 555 C237 550 242 547 247 547 C250 547 253 548 256 549 L316 575 L316 575 Z M286 114 C222 114 174 150 162 203 L499 203 C512 203 518 211 518 222 C518 375 425 510 269 510 C122 510 24 386 24 250 C24 108 141 -10 282 -10 C358 -10 419 10 470 41 C479 46 480 56 475 64 L425 135 C421 140 417 144 411 144 C408 144 405 143 400 140 C364 121 333 114 286 114 L286 114 Z M166 309 C177 362 218 397 269 397 C328 397 362 360 374 309 L166 309 Z " />
<glyph glyph-name="eacute" unicode="&#xe9;" horiz-adv-x="542" d="M286 114 C222 114 174 150 162 203 L499 203 C512 203 518 211 518 222 C518 375 425 510 269 510 C122 510 24 386 24 250 C24 108 141 -10 282 -10 C358 -10 419 10 470 41 C479 46 480 56 475 64 L425 135 C421 140 417 144 411 144 C408 144 405 143 400 140 C364 121 333 114 286 114 L286 114 Z M166 309 C177 362 218 397 269 397 C328 397 362 360 374 309 L166 309 Z M298 549 C301 548 304 547 307 547 C312 547 317 550 320 555 L415 705 C419 713 419 722 407 726 L317 757 C315 758 312 758 310 758 C303 758 298 754 295 746 L231 597 C227 586 229 579 238 575 L298 549 L298 549 Z " />
<glyph glyph-name="ecircumflex" unicode="&#xea;" horiz-adv-x="542" d="M242 748 C229 748 218 740 210 731 L105 613 C97 605 100 595 107 588 L140 547 C143 544 146 542 150 542 C155 542 161 545 165 548 L276 645 L387 548 C391 544 397 542 402 542 C406 542 410 543 413 547 L446 588 C453 596 456 605 448 613 L343 731 C335 740 325 748 310 748 L242 748 L242 748 Z M286 114 C222 114 174 150 162 203 L499 203 C512 203 518 211 518 222 C518 375 425 510 269 510 C122 510 24 386 24 250 C24 108 141 -10 282 -10 C358 -10 419 10 470 41 C479 46 480 56 475 64 L425 135 C421 140 417 144 411 144 C408 144 405 143 400 140 C364 121 333 114 286 114 L286 114 Z M166 309 C177 362 218 397 269 397 C328 397 362 360 374 309 L166 309 Z " />
<glyph glyph-name="edieresis" unicode="&#xeb;" horiz-adv-x="542" d="M79 644 C79 600 114 565 158 565 C203 565 239 600 239 644 C239 688 203 724 158 724 C114 724 79 688 79 644 L79 644 Z M305 644 C305 600 339 565 383 565 C430 565 465 600 465 644 C465 688 430 724 383 724 C339 724 305 688 305 644 L305 644 Z M286 114 C222 114 174 150 162 203 L499 203 C512 203 518 211 518 222 C518 375 425 510 269 510 C122 510 24 386 24 250 C24 108 141 -10 282 -10 C358 -10 419 10 470 41 C479 46 480 56 475 64 L425 135 C421 140 417 144 411 144 C408 144 405 143 400 140 C364 121 333 114 286 114 L286 114 Z M166 309 C177 362 218 397 269 397 C328 397 362 360 374 309 L166 309 Z " />
<glyph glyph-name="igrave" unicode="&#xec;" horiz-adv-x="280" d="M196 0 C207 0 213 6 213 17 L213 483 C213 494 207 500 196 500 L83 500 C72 500 66 494 66 483 L66 17 C66 6 72 0 83 0 L196 0 L196 0 Z M178 575 C189 580 188 589 185 597 L121 746 C118 754 113 758 106 758 C104 758 101 758 99 757 L9 726 C-2 722 -4 713 1 705 L96 555 C99 550 104 547 109 547 C112 547 115 548 118 549 L178 575 L178 575 Z " />
<glyph glyph-name="iacute" unicode="&#xed;" horiz-adv-x="281" d="M196 0 C207 0 213 6 213 17 L213 483 C213 494 207 500 196 500 L83 500 C72 500 66 494 66 483 L66 17 C66 6 72 0 83 0 L196 0 L196 0 Z M163 549 C166 548 169 547 172 547 C177 547 182 550 185 555 L280 705 C284 713 284 722 272 726 L182 757 C180 758 177 758 175 758 C168 758 163 754 160 746 L96 597 C92 586 94 579 103 575 L163 549 L163 549 Z " />
<glyph glyph-name="icircumflex" unicode="&#xee;" horiz-adv-x="279" d="M105 748 C92 748 81 740 73 731 L-32 613 C-40 605 -37 595 -30 588 L3 547 C6 544 9 542 13 542 C18 542 24 545 28 548 L139 645 L250 548 C254 544 260 542 265 542 C269 542 273 543 276 547 L309 588 C316 596 319 605 311 613 L206 731 C198 740 188 748 173 748 L105 748 L105 748 Z M196 0 C207 0 213 6 213 17 L213 483 C213 494 207 500 196 500 L83 500 C72 500 66 494 66 483 L66 17 C66 6 72 0 83 0 L196 0 L196 0 Z " />
<glyph glyph-name="idieresis" unicode="&#xef;" horiz-adv-x="279" d="M-53 644 C-53 600 -18 565 26 565 C71 565 107 600 107 644 C107 688 71 724 26 724 C-18 724 -53 688 -53 644 L-53 644 Z M173 644 C173 600 207 565 251 565 C298 565 333 600 333 644 C333 688 298 724 251 724 C207 724 173 688 173 644 L173 644 Z M196 0 C207 0 213 6 213 17 L213 483 C213 494 207 500 196 500 L83 500 C72 500 66 494 66 483 L66 17 C66 6 72 0 83 0 L196 0 L196 0 Z " />
<glyph glyph-name="eth" unicode="&#xf0;" horiz-adv-x="615" d="M313 504 C307 505 300 505 294 505 C155 505 50 387 50 250 C50 106 164 -10 308 -10 C452 -10 565 106 565 250 C565 287 557 322 544 354 L431 588 L554 611 C566 613 570 620 567 632 L557 686 C554 698 550 700 538 700 L390 673 L359 738 C354 749 346 750 334 750 L213 750 C202 750 196 745 201 734 L244 645 L124 623 C112 621 108 614 111 602 L121 548 C124 536 128 534 140 534 L285 561 L313 504 Z M412 299 C419 284 422 269 422 250 C422 182 372 130 308 130 C244 130 193 182 193 250 C193 318 244 370 308 370 C355 370 395 342 412 299 L412 299 Z " />
<glyph glyph-name="ntilde" unicode="&#xf1;" horiz-adv-x="603" d="M533 0 C544 0 550 6 550 17 L550 285 C550 429 484 510 361 510 C288 510 238 468 208 427 L208 483 C208 494 202 500 191 500 L78 500 C67 500 61 494 61 483 L61 17 C61 6 67 0 78 0 L191 0 C202 0 208 6 208 17 L208 266 C208 318 253 370 309 370 C374 370 403 321 403 256 L403 17 C403 6 409 0 421 0 L533 0 L533 0 Z M369 688 C321 688 293 743 226 743 C191 743 152 719 123 691 C114 683 113 677 117 665 L134 596 C136 591 138 586 142 586 C145 586 147 587 151 590 C178 615 202 639 233 639 C281 639 308 585 376 585 C411 585 450 609 479 637 C486 643 488 652 485 663 L468 732 C466 738 463 742 459 742 C457 742 454 740 451 737 C424 713 398 688 369 688 L369 688 Z " />
<glyph glyph-name="ograve" unicode="&#xf2;" horiz-adv-x="563" d="M24 250 C24 106 138 -10 282 -10 C426 -10 539 106 539 250 C539 394 426 510 282 510 C138 510 24 394 24 250 L24 250 Z M167 250 C167 318 218 370 282 370 C346 370 396 318 396 250 C396 182 346 130 282 130 C218 130 167 182 167 250 L167 250 Z M318 575 C329 580 328 589 325 597 L261 746 C258 754 253 758 246 758 C244 758 241 758 239 757 L149 726 C138 722 136 713 141 705 L236 555 C239 550 244 547 249 547 C252 547 255 548 258 549 L318 575 L318 575 Z " />
<glyph glyph-name="oacute" unicode="&#xf3;" horiz-adv-x="563" d="M24 250 C24 106 138 -10 282 -10 C426 -10 539 106 539 250 C539 394 426 510 282 510 C138 510 24 394 24 250 L24 250 Z M167 250 C167 318 218 370 282 370 C346 370 396 318 396 250 C396 182 346 130 282 130 C218 130 167 182 167 250 L167 250 Z M304 549 C307 548 310 547 313 547 C318 547 323 550 326 555 L421 705 C425 713 425 722 413 726 L323 757 C321 758 318 758 316 758 C309 758 304 754 301 746 L237 597 C233 586 235 579 244 575 L304 549 L304 549 Z " />
<glyph glyph-name="ocircumflex" unicode="&#xf4;" horiz-adv-x="563" d="M24 250 C24 106 138 -10 282 -10 C426 -10 539 106 539 250 C539 394 426 510 282 510 C138 510 24 394 24 250 L24 250 Z M167 250 C167 318 218 370 282 370 C346 370 396 318 396 250 C396 182 346 130 282 130 C218 130 167 182 167 250 L167 250 Z M247 748 C234 748 223 740 215 731 L110 613 C102 605 105 595 112 588 L145 547 C148 544 151 542 155 542 C160 542 166 545 170 548 L281 645 L392 548 C396 544 402 542 407 542 C411 542 415 543 418 547 L451 588 C458 596 461 605 453 613 L348 731 C340 740 330 748 315 748 L247 748 L247 748 Z " />
<glyph glyph-name="otilde" unicode="&#xf5;" horiz-adv-x="563" d="M24 250 C24 106 138 -10 282 -10 C426 -10 539 106 539 250 C539 394 426 510 282 510 C138 510 24 394 24 250 L24 250 Z M167 250 C167 318 218 370 282 370 C346 370 396 318 396 250 C396 182 346 130 282 130 C218 130 167 182 167 250 L167 250 Z M350 688 C302 688 274 743 207 743 C172 743 133 719 104 691 C95 683 94 677 98 665 L115 596 C117 591 119 586 123 586 C126 586 128 587 132 590 C159 615 183 639 214 639 C262 639 289 585 357 585 C392 585 431 609 460 637 C467 643 469 652 466 663 L449 732 C447 738 444 742 440 742 C438 742 435 740 432 737 C405 713 379 688 350 688 L350 688 Z " />
<glyph glyph-name="odieresis" unicode="&#xf6;" horiz-adv-x="563" d="M24 250 C24 106 138 -10 282 -10 C426 -10 539 106 539 250 C539 394 426 510 282 510 C138 510 24 394 24 250 L24 250 Z M167 250 C167 318 218 370 282 370 C346 370 396 318 396 250 C396 182 346 130 282 130 C218 130 167 182 167 250 L167 250 Z M89 644 C89 600 124 565 168 565 C213 565 249 600 249 644 C249 688 213 724 168 724 C124 724 89 688 89 644 L89 644 Z M315 644 C315 600 349 565 393 565 C440 565 475 600 475 644 C475 688 440 724 393 724 C349 724 315 688 315 644 L315 644 Z " />
<glyph glyph-name="divide" unicode="&#xf7;" horiz-adv-x="520" d="M53 357 C42 357 36 351 36 339 L36 258 C36 246 42 240 53 240 L467 240 C478 240 484 246 484 258 L484 339 C484 351 478 357 467 357 L53 357 L53 357 Z M184 488 C184 445 217 411 260 411 C304 411 338 445 338 488 C338 532 304 566 260 566 C217 566 184 532 184 488 L184 488 Z M184 110 C184 67 217 34 260 34 C304 34 338 67 338 110 C338 154 304 189 260 189 C217 189 184 154 184 110 L184 110 Z " />
<glyph glyph-name="oslash" unicode="&#xf8;" horiz-adv-x="563" d="M492 522 C496 531 492 535 479 535 L447 535 C440 535 434 531 428 522 L401 481 C362 501 319 510 282 510 C138 510 24 394 24 250 C24 171 55 101 120 46 L73 -26 C68 -34 75 -38 83 -38 L121 -38 C127 -38 132 -34 137 -26 L166 18 C202 -1 243 -10 282 -10 C426 -10 539 106 539 250 C539 326 506 400 446 451 L492 522 L492 522 Z M366 326 C386 307 396 279 396 250 C396 182 346 130 282 130 C267 130 255 133 244 139 L366 326 Z M199 168 C179 192 167 218 167 250 C167 318 218 370 282 370 C297 370 315 367 323 360 L199 168 Z " />
<glyph glyph-name="ugrave" unicode="&#xf9;" horiz-adv-x="603" d="M70 500 C59 500 53 494 53 483 L53 215 C53 71 119 -10 242 -10 C315 -10 366 32 395 73 L395 17 C395 6 401 0 413 0 L525 0 C536 0 542 6 542 17 L542 483 C542 494 536 500 525 500 L413 500 C401 500 395 494 395 483 L395 233 C395 182 350 130 294 130 C229 130 200 179 200 244 L200 483 C200 494 194 500 183 500 L70 500 L70 500 Z M343 575 C354 580 353 589 350 597 L286 746 C283 754 278 758 271 758 C269 758 266 758 264 757 L174 726 C163 722 161 713 166 705 L261 555 C264 550 269 547 274 547 C277 547 280 548 283 549 L343 575 L343 575 Z " />
<glyph glyph-name="uacute" unicode="&#xfa;" horiz-adv-x="603" d="M70 500 C59 500 53 494 53 483 L53 215 C53 71 119 -10 242 -10 C315 -10 366 32 395 73 L395 17 C395 6 401 0 413 0 L525 0 C536 0 542 6 542 17 L542 483 C542 494 536 500 525 500 L413 500 C401 500 395 494 395 483 L395 233 C395 182 350 130 294 130 C229 130 200 179 200 244 L200 483 C200 494 194 500 183 500 L70 500 L70 500 Z M313 549 C316 548 319 547 322 547 C327 547 332 550 335 555 L430 705 C434 713 434 722 422 726 L332 757 C330 758 327 758 325 758 C318 758 313 754 310 746 L246 597 C242 586 244 579 253 575 L313 549 L313 549 Z " />
<glyph glyph-name="ucircumflex" unicode="&#xfb;" horiz-adv-x="603" d="M70 500 C59 500 53 494 53 483 L53 215 C53 71 119 -10 242 -10 C315 -10 366 32 395 73 L395 17 C395 6 401 0 413 0 L525 0 C536 0 542 6 542 17 L542 483 C542 494 536 500 525 500 L413 500 C401 500 395 494 395 483 L395 233 C395 182 350 130 294 130 C229 130 200 179 200 244 L200 483 C200 494 194 500 183 500 L70 500 L70 500 Z M266 748 C253 748 242 740 234 731 L129 613 C121 605 124 595 131 588 L164 547 C167 544 170 542 174 542 C179 542 185 545 189 548 L300 645 L411 548 C415 544 421 542 426 542 C430 542 434 543 437 547 L470 588 C477 596 480 605 472 613 L367 731 C359 740 349 748 334 748 L266 748 L266 748 Z " />
<glyph glyph-name="udieresis" unicode="&#xfc;" horiz-adv-x="603" d="M70 495 C59 495 53 489 53 478 L53 210 C53 66 119 -15 242 -15 C315 -15 366 27 395 68 L395 12 C395 1 401 -5 413 -5 L525 -5 C536 -5 542 1 542 12 L542 478 C542 489 536 495 525 495 L413 495 C401 495 395 489 395 478 L395 228 C395 177 350 125 294 125 C229 125 200 174 200 239 L200 478 C200 489 194 495 183 495 L70 495 L70 495 Z M107 644 C107 600 142 565 186 565 C231 565 267 600 267 644 C267 688 231 724 186 724 C142 724 107 688 107 644 L107 644 Z M333 644 C333 600 367 565 411 565 C458 565 493 600 493 644 C493 688 458 724 411 724 C367 724 333 688 333 644 L333 644 Z " />
<glyph glyph-name="yacute" unicode="&#xfd;" horiz-adv-x="604" d="M543 483 C543 494 537 500 526 500 L414 500 C402 500 396 494 396 483 L396 243 C396 189 357 140 295 140 C230 140 201 189 201 254 L201 483 C201 494 195 500 183 500 L71 500 C60 500 54 494 54 483 L54 225 C54 81 120 0 243 0 C310 0 375 38 396 75 L396 15 C396 -50 363 -115 266 -115 C218 -115 176 -96 151 -68 C148 -65 145 -64 142 -64 C137 -64 133 -66 129 -71 L71 -149 C66 -156 66 -164 72 -171 C113 -219 187 -255 270 -255 C435 -255 543 -135 543 29 L543 483 L543 483 Z M315 549 C318 548 321 547 324 547 C329 547 334 550 337 555 L432 705 C436 713 436 722 424 726 L334 757 C332 758 329 758 327 758 C320 758 315 754 312 746 L248 597 C244 586 246 579 255 575 L315 549 L315 549 Z " />
<glyph glyph-name="thorn" unicode="&#xfe;" horiz-adv-x="605" d="M433 250 C433 182 384 130 319 130 C255 130 205 182 205 250 C205 317 255 370 319 370 C384 370 433 316 433 250 L433 250 Z M191 -250 C202 -250 208 -244 208 -233 L208 67 C241 23 293 -10 360 -10 C492 -10 581 107 581 250 C581 392 492 510 360 510 C295 510 240 479 208 432 L208 733 C208 744 202 750 191 750 L78 750 C67 750 61 744 61 733 L61 -233 C61 -244 67 -250 78 -250 L191 -250 L191 -250 Z " />
<glyph glyph-name="ydieresis" unicode="&#xff;" horiz-adv-x="604" d="M543 483 C543 494 537 500 526 500 L414 500 C402 500 396 494 396 483 L396 243 C396 189 357 140 295 140 C230 140 201 189 201 254 L201 483 C201 494 195 500 183 500 L71 500 C60 500 54 494 54 483 L54 225 C54 81 120 0 243 0 C310 0 375 38 396 75 L396 15 C396 -50 363 -115 266 -115 C218 -115 176 -96 151 -68 C148 -65 145 -64 142 -64 C137 -64 133 -66 129 -71 L71 -149 C66 -156 66 -164 72 -171 C113 -219 187 -255 270 -255 C435 -255 543 -135 543 29 L543 483 L543 483 Z M109 644 C109 600 144 565 188 565 C233 565 269 600 269 644 C269 688 233 724 188 724 C144 724 109 688 109 644 L109 644 Z M335 644 C335 600 369 565 413 565 C460 565 495 600 495 644 C495 688 460 724 413 724 C369 724 335 688 335 644 L335 644 Z " />
<glyph glyph-name="Amacron" unicode="&#x100;" horiz-adv-x="633" d="M142 0 C157 0 165 6 167 17 L203 141 L429 141 L465 18 C469 3 478 0 491 0 L611 0 C623 0 627 6 622 17 L413 683 C410 694 404 700 393 700 L240 700 C230 700 223 694 219 683 L11 17 C6 6 10 0 22 0 L142 0 L142 0 Z M237 279 L316 528 L396 279 L237 279 Z M166 808 C166 797 172 791 183 791 L450 791 C462 791 468 797 468 808 L468 893 C468 905 462 911 450 911 L183 911 C172 911 166 905 166 893 L166 808 L166 808 Z " />
<glyph glyph-name="amacron" unicode="&#x101;" horiz-adv-x="605" d="M177 250 C177 318 226 370 291 370 C355 370 405 318 405 250 C405 182 355 130 291 130 C226 130 177 182 177 250 L177 250 Z M532 0 C543 0 549 6 549 17 L549 483 C549 494 543 500 532 500 L419 500 C408 500 402 494 402 483 L402 432 C367 475 321 510 250 510 C118 510 29 393 29 250 C29 107 118 -10 250 -10 C322 -10 369 27 402 67 L402 17 C402 6 408 0 419 0 L532 0 L532 0 Z M150 612 C150 601 156 595 167 595 L434 595 C446 595 452 601 452 612 L452 697 C452 709 446 715 434 715 L167 715 C156 715 150 709 150 697 L150 612 L150 612 Z " />
<glyph glyph-name="Abreve" unicode="&#x102;" horiz-adv-x="633" d="M142 0 C157 0 165 6 167 17 L203 141 L429 141 L465 18 C469 3 478 0 491 0 L611 0 C623 0 627 6 622 17 L413 683 C410 694 404 700 393 700 L240 700 C230 700 223 694 219 683 L11 17 C6 6 10 0 22 0 L142 0 L142 0 Z M237 279 L316 528 L396 279 L237 279 Z M487 905 C487 910 483 914 474 916 L404 929 C396 929 393 926 392 918 C388 879 367 853 316 853 C267 853 245 879 241 918 C239 926 235 930 229 929 L159 916 C150 915 146 912 146 905 C151 804 217 750 316 750 C415 750 483 804 487 905 L487 905 Z " />
<glyph glyph-name="abreve" unicode="&#x103;" horiz-adv-x="605" d="M177 250 C177 318 226 370 291 370 C355 370 405 318 405 250 C405 182 355 130 291 130 C226 130 177 182 177 250 L177 250 Z M532 0 C543 0 549 6 549 17 L549 483 C549 494 543 500 532 500 L419 500 C408 500 402 494 402 483 L402 432 C367 475 321 510 250 510 C118 510 29 393 29 250 C29 107 118 -10 250 -10 C322 -10 369 27 402 67 L402 17 C402 6 408 0 419 0 L532 0 L532 0 Z M474 715 C474 720 470 724 461 726 L391 739 C383 739 380 736 379 728 C375 689 354 663 303 663 C254 663 232 689 228 728 C226 736 222 740 216 739 L146 726 C137 725 133 722 133 715 C138 614 204 560 303 560 C402 560 470 614 474 715 L474 715 Z " />
<glyph glyph-name="Aogonek" unicode="&#x104;" horiz-adv-x="632" d="M610 0 C621 0 625 6 622 17 L413 683 C410 694 404 700 393 700 L240 700 C230 700 223 694 219 683 L11 17 C6 6 10 0 22 0 L142 0 C157 0 165 6 167 17 L203 141 L429 141 L465 17 C468 6 476 0 488 0 L523 0 C437 -78 483 -204 612 -204 C623 -204 634 -203 646 -201 C653 -200 656 -195 655 -188 L654 -115 C654 -107 650 -106 643 -106 C637 -107 631 -108 626 -108 C566 -108 562 -39 610 0 L610 0 Z M237 279 L316 528 L396 279 L237 279 Z " />
<glyph glyph-name="aogonek" unicode="&#x105;" horiz-adv-x="605" d="M172 250 C172 318 221 370 286 370 C350 370 400 318 400 250 C400 182 350 130 286 130 C221 130 172 182 172 250 L172 250 Z M397 17 C397 6 403 0 414 0 L445 0 C359 -78 405 -204 534 -204 C545 -204 556 -203 568 -201 C575 -200 578 -196 577 -188 L576 -115 C576 -107 572 -106 565 -106 C559 -107 554 -107 549 -107 C488 -107 482 -39 533 0 C544 0 544 8 544 17 L544 483 C544 494 538 500 527 500 L414 500 C403 500 397 494 397 483 L397 432 C362 475 316 510 245 510 C113 510 24 393 24 250 C24 107 113 -10 245 -10 C317 -10 364 27 397 67 L397 17 L397 17 Z " />
<glyph glyph-name="Cacute" unicode="&#x106;" horiz-adv-x="633" d="M586 632 C591 642 589 650 579 657 C527 689 464 710 388 710 C180 710 29 552 29 349 C29 146 180 -10 388 -10 C461 -10 524 10 581 45 C592 51 594 60 586 71 L526 162 C522 168 517 171 511 171 C508 171 504 170 500 167 C465 143 419 135 388 135 C268 135 178 232 178 349 C178 467 268 565 388 565 C431 565 466 554 497 534 C501 531 505 530 508 530 C515 530 521 535 526 540 L586 632 Z M390 748 C393 747 396 746 399 746 C404 746 409 749 412 754 L507 904 C511 912 511 921 499 925 L409 956 C407 957 404 957 402 957 C395 957 390 953 387 945 L323 796 C319 785 321 778 330 774 L390 748 L390 748 Z " />
<glyph glyph-name="cacute" unicode="&#x107;" horiz-adv-x="475" d="M376 145 C373 149 369 152 364 152 C361 152 357 151 354 149 C332 136 308 130 282 130 C218 130 167 182 167 250 C167 318 218 370 282 370 C298 370 323 368 352 349 C356 347 360 345 363 345 C368 345 372 348 375 353 L437 439 C444 447 441 458 432 463 C397 486 346 510 282 510 C138 510 24 394 24 250 C24 106 138 -10 282 -10 C342 -10 394 10 433 35 C442 41 444 49 438 59 L376 145 L376 145 Z M289 549 C292 548 295 547 298 547 C303 547 308 550 311 555 L406 705 C410 713 410 722 398 726 L308 757 C306 758 303 758 301 758 C294 758 289 754 286 746 L222 597 C218 586 220 579 229 575 L289 549 L289 549 Z " />
<glyph glyph-name="Ccircumflex" unicode="&#x108;" horiz-adv-x="633" d="M586 632 C591 642 589 650 579 657 C527 689 464 710 388 710 C180 710 29 552 29 349 C29 146 180 -10 388 -10 C461 -10 524 10 581 45 C592 51 594 60 586 71 L526 162 C522 168 517 171 511 171 C508 171 504 170 500 167 C465 143 419 135 388 135 C268 135 178 232 178 349 C178 467 268 565 388 565 C431 565 466 554 497 534 C501 531 505 530 508 530 C515 530 521 535 526 540 L586 632 Z M339 944 C326 944 315 936 307 927 L202 809 C194 801 197 791 204 784 L237 743 C240 740 243 738 247 738 C252 738 258 741 262 744 L373 841 L484 744 C488 740 494 738 499 738 C503 738 507 739 510 743 L543 784 C550 792 553 801 545 809 L440 927 C432 936 422 944 407 944 L339 944 L339 944 Z " />
<glyph glyph-name="ccircumflex" unicode="&#x109;" horiz-adv-x="475" d="M376 145 C373 149 369 152 364 152 C361 152 357 151 354 149 C332 136 308 130 282 130 C218 130 167 182 167 250 C167 318 218 370 282 370 C298 370 323 368 352 349 C356 347 360 345 363 345 C368 345 372 348 375 353 L437 439 C444 447 441 458 432 463 C397 486 346 510 282 510 C138 510 24 394 24 250 C24 106 138 -10 282 -10 C342 -10 394 10 433 35 C442 41 444 49 438 59 L376 145 L376 145 Z M235 748 C222 748 211 740 203 731 L98 613 C90 605 93 595 100 588 L133 547 C136 544 139 542 143 542 C148 542 154 545 158 548 L269 645 L380 548 C384 544 390 542 395 542 C399 542 403 543 406 547 L439 588 C446 596 449 605 441 613 L336 731 C328 740 318 748 303 748 L235 748 L235 748 Z " />
<glyph glyph-name="Cdotaccent" unicode="&#x10a;" horiz-adv-x="633" d="M586 632 C591 642 589 650 579 657 C527 689 464 710 388 710 C180 710 29 552 29 349 C29 146 180 -10 388 -10 C461 -10 524 10 581 45 C592 51 594 60 586 71 L526 162 C522 168 517 171 511 171 C508 171 504 170 500 167 C465 143 419 135 388 135 C268 135 178 232 178 349 C178 467 268 565 388 565 C431 565 466 554 497 534 C501 531 505 530 508 530 C515 530 521 535 526 540 L586 632 Z M289 850 C289 805 324 770 369 770 C414 770 450 805 450 850 C450 895 414 931 369 931 C324 931 289 895 289 850 L289 850 Z " />
<glyph glyph-name="cdotaccent" unicode="&#x10b;" horiz-adv-x="475" d="M376 145 C373 149 369 152 364 152 C361 152 357 151 354 149 C332 136 308 130 282 130 C218 130 167 182 167 250 C167 318 218 370 282 370 C298 370 323 368 352 349 C356 347 360 345 363 345 C368 345 372 348 375 353 L437 439 C444 447 441 458 432 463 C397 486 346 510 282 510 C138 510 24 394 24 250 C24 106 138 -10 282 -10 C342 -10 394 10 433 35 C442 41 444 49 438 59 L376 145 L376 145 Z M187 661 C187 616 222 581 267 581 C312 581 348 616 348 661 C348 706 312 742 267 742 C222 742 187 706 187 661 L187 661 Z " />
<glyph glyph-name="Ccaron" unicode="&#x10c;" horiz-adv-x="633" d="M586 632 C591 642 589 650 579 657 C527 689 464 710 388 710 C180 710 29 552 29 349 C29 146 180 -10 388 -10 C461 -10 524 10 581 45 C592 51 594 60 586 71 L526 162 C522 168 517 171 511 171 C508 171 504 170 500 167 C465 143 419 135 388 135 C268 135 178 232 178 349 C178 467 268 565 388 565 C431 565 466 554 497 534 C501 531 505 530 508 530 C515 530 521 535 526 540 L586 632 Z M403 757 C418 757 428 765 436 774 L541 892 C549 901 546 909 539 917 L506 958 C503 962 499 963 495 963 C490 963 484 961 480 957 L369 860 L258 957 C254 961 249 963 244 963 C240 963 236 962 233 958 L200 917 C193 909 190 900 198 892 L303 774 C311 765 322 757 335 757 L403 757 L403 757 Z " />
<glyph glyph-name="ccaron" unicode="&#x10d;" horiz-adv-x="475" d="M376 145 C373 149 369 152 364 152 C361 152 357 151 354 149 C332 136 308 130 282 130 C218 130 167 182 167 250 C167 318 218 370 282 370 C298 370 323 368 352 349 C356 347 360 345 363 345 C368 345 372 348 375 353 L437 439 C444 447 441 458 432 463 C397 486 346 510 282 510 C138 510 24 394 24 250 C24 106 138 -10 282 -10 C342 -10 394 10 433 35 C442 41 444 49 438 59 L376 145 L376 145 Z M306 544 C321 544 331 552 339 561 L444 679 C452 688 449 696 442 704 L409 745 C406 749 402 750 398 750 C393 750 387 748 383 744 L272 647 L161 744 C157 748 152 750 147 750 C143 750 139 749 136 745 L103 704 C96 696 93 687 101 679 L206 561 C214 552 225 544 238 544 L306 544 L306 544 Z " />
<glyph glyph-name="Dcaron" unicode="&#x10e;" horiz-adv-x="715" d="M334 0 C534 0 686 157 686 349 C686 545 534 700 334 700 L83 700 C72 700 66 694 66 683 L66 17 C66 6 72 0 83 0 L334 0 L334 0 Z M215 554 L328 554 C442 554 538 471 538 349 C538 231 442 146 328 146 L215 146 L215 554 Z M359 756 C374 756 384 764 392 773 L497 891 C505 900 502 908 495 916 L462 957 C459 961 455 962 451 962 C446 962 440 960 436 956 L325 859 L214 956 C210 960 205 962 200 962 C196 962 192 961 189 957 L156 916 C149 908 146 899 154 891 L259 773 C267 764 278 756 291 756 L359 756 L359 756 Z " />
<glyph glyph-name="dcaron" unicode="&#x10f;" horiz-adv-x="758" d="M602 537 C601 530 606 523 614 523 L705 523 C715 523 721 527 724 536 L767 737 C769 746 766 750 757 750 L646 750 C637 750 632 745 631 736 L602 537 L602 537 Z M172 250 C172 316 221 370 286 370 C350 370 400 317 400 250 C400 182 350 130 286 130 C221 130 172 182 172 250 L172 250 Z M527 0 C538 0 544 6 544 17 L544 733 C544 744 538 750 527 750 L414 750 C403 750 397 744 397 733 L397 432 C365 479 310 510 245 510 C113 510 24 392 24 250 C24 107 113 -10 245 -10 C312 -10 364 23 397 67 L397 17 C397 6 403 0 414 0 L527 0 L527 0 Z " />
<glyph glyph-name="Dcroat" unicode="&#x110;" horiz-adv-x="715" d="M66 17 C66 6 72 0 83 0 L334 0 C534 0 686 157 686 349 C686 545 534 700 334 700 L83 700 C72 700 66 694 66 683 L66 407 L23 407 C12 407 6 400 6 389 L6 314 C6 302 12 296 23 296 L66 296 L66 17 Z M215 554 L328 554 C442 554 538 471 538 349 C538 231 442 146 328 146 L215 146 L215 296 L298 296 C310 296 316 302 316 314 L316 389 C316 400 309 407 298 407 L215 407 L215 554 Z " />
<glyph glyph-name="dcroat" unicode="&#x111;" horiz-adv-x="605" d="M591 540 C602 540 608 547 608 558 L608 627 C608 638 600 644 591 644 L544 644 L544 733 C544 744 538 750 527 750 L414 750 C403 750 397 744 397 733 L397 644 L314 644 C305 644 297 638 297 627 L297 558 C297 547 303 540 314 540 L397 540 L397 432 C365 479 310 510 245 510 C113 510 24 392 24 250 C24 107 113 -10 245 -10 C312 -10 364 23 397 67 L397 17 C397 6 403 0 414 0 L527 0 C538 0 544 6 544 17 L544 540 L591 540 Z M172 250 C172 316 221 370 286 370 C350 370 400 317 400 250 C400 182 350 130 286 130 C221 130 172 182 172 250 L172 250 Z " />
<glyph glyph-name="Emacron" unicode="&#x112;" horiz-adv-x="533" d="M83 700 C72 700 66 694 66 683 L66 17 C66 8 72 0 83 0 L486 0 C498 0 503 8 503 17 L503 128 C503 140 497 146 486 146 L215 146 L215 279 L450 279 C461 279 467 285 467 297 L467 403 C467 415 461 421 450 421 L215 421 L215 554 L485 554 C496 554 502 561 502 572 L502 683 C502 692 496 700 485 700 L83 700 L83 700 Z M132 808 C132 797 138 791 149 791 L416 791 C428 791 434 797 434 808 L434 893 C434 905 428 911 416 911 L149 911 C138 911 132 905 132 893 L132 808 L132 808 Z " />
<glyph glyph-name="emacron" unicode="&#x113;" horiz-adv-x="542" d="M286 114 C222 114 174 150 162 203 L499 203 C512 203 518 211 518 222 C518 375 425 510 269 510 C122 510 24 386 24 250 C24 108 141 -10 282 -10 C358 -10 419 10 470 41 C479 46 480 56 475 64 L425 135 C421 140 417 144 411 144 C408 144 405 143 400 140 C364 121 333 114 286 114 L286 114 Z M166 309 C177 362 218 397 269 397 C328 397 362 360 374 309 L166 309 Z M125 612 C125 601 131 595 142 595 L409 595 C421 595 427 601 427 612 L427 697 C427 709 421 715 409 715 L142 715 C131 715 125 709 125 697 L125 612 L125 612 Z " />
<glyph glyph-name="Ebreve" unicode="&#x114;" horiz-adv-x="533" d="M83 700 C72 700 66 694 66 683 L66 17 C66 8 72 0 83 0 L486 0 C498 0 503 8 503 17 L503 128 C503 140 497 146 486 146 L215 146 L215 279 L450 279 C461 279 467 285 467 297 L467 403 C467 415 461 421 450 421 L215 421 L215 554 L485 554 C496 554 502 561 502 572 L502 683 C502 692 496 700 485 700 L83 700 L83 700 Z M456 905 C456 910 452 914 443 916 L373 929 C365 929 362 926 361 918 C357 879 336 853 285 853 C236 853 214 879 210 918 C208 926 204 930 198 929 L128 916 C119 915 115 912 115 905 C120 804 186 750 285 750 C384 750 452 804 456 905 L456 905 Z " />
<glyph glyph-name="ebreve" unicode="&#x115;" horiz-adv-x="542" d="M286 114 C222 114 174 150 162 203 L499 203 C512 203 518 211 518 222 C518 375 425 510 269 510 C122 510 24 386 24 250 C24 108 141 -10 282 -10 C358 -10 419 10 470 41 C479 46 480 56 475 64 L425 135 C421 140 417 144 411 144 C408 144 405 143 400 140 C364 121 333 114 286 114 L286 114 Z M166 309 C177 362 218 397 269 397 C328 397 362 360 374 309 L166 309 Z M444 715 C444 720 440 724 431 726 L361 739 C353 739 350 736 349 728 C345 689 324 663 273 663 C224 663 202 689 198 728 C196 736 192 740 186 739 L116 726 C107 725 103 722 103 715 C108 614 174 560 273 560 C372 560 440 614 444 715 L444 715 Z " />
<glyph glyph-name="Edotaccent" unicode="&#x116;" horiz-adv-x="533" d="M83 700 C72 700 66 694 66 683 L66 17 C66 8 72 0 83 0 L486 0 C498 0 503 8 503 17 L503 128 C503 140 497 146 486 146 L215 146 L215 279 L450 279 C461 279 467 285 467 297 L467 403 C467 415 461 421 450 421 L215 421 L215 554 L485 554 C496 554 502 561 502 572 L502 683 C502 692 496 700 485 700 L83 700 L83 700 Z M201 854 C201 809 236 774 281 774 C326 774 362 809 362 854 C362 899 326 935 281 935 C236 935 201 899 201 854 L201 854 Z " />
<glyph glyph-name="edotaccent" unicode="&#x117;" horiz-adv-x="542" d="M286 114 C222 114 174 150 162 203 L499 203 C512 203 518 211 518 222 C518 375 425 510 269 510 C122 510 24 386 24 250 C24 108 141 -10 282 -10 C358 -10 419 10 470 41 C479 46 480 56 475 64 L425 135 C421 140 417 144 411 144 C408 144 405 143 400 140 C364 121 333 114 286 114 L286 114 Z M166 309 C177 362 218 397 269 397 C328 397 362 360 374 309 L166 309 Z M187 668 C187 623 222 588 267 588 C312 588 348 623 348 668 C348 713 312 749 267 749 C222 749 187 713 187 668 L187 668 Z " />
<glyph glyph-name="Eogonek" unicode="&#x118;" horiz-adv-x="533" d="M488 0 C495 7 503 10 503 17 L503 128 C503 140 497 146 486 146 L215 146 L215 279 L450 279 C461 279 467 285 467 297 L467 403 C467 415 461 421 450 421 L215 421 L215 554 L485 554 C496 554 502 561 502 572 L502 683 C502 692 496 700 485 700 L83 700 C72 700 66 694 66 683 L66 17 C66 8 72 0 83 0 L398 0 C318 -82 362 -204 489 -204 C500 -204 512 -203 524 -201 C531 -200 534 -195 533 -187 L533 -115 C532 -109 529 -105 525 -105 C524 -105 522 -106 521 -106 C514 -107 508 -108 503 -108 C445 -108 441 -37 488 0 L488 0 Z " />
<glyph glyph-name="eogonek" unicode="&#x119;" horiz-adv-x="542" d="M166 309 C178 365 220 397 269 397 C325 397 361 362 374 309 L166 309 Z M228 -3 C147 -86 199 -204 323 -204 C334 -204 346 -203 358 -201 C364 -200 367 -196 367 -187 L366 -115 C366 -107 362 -106 355 -106 C348 -107 342 -108 337 -108 C281 -108 276 -48 312 -9 C376 -4 423 13 470 41 C479 46 480 56 475 64 L425 135 C421 140 417 144 411 144 C408 144 405 143 400 140 C364 121 333 114 286 114 C222 114 174 150 162 203 L499 203 C512 203 518 211 518 222 C518 375 425 510 269 510 C122 510 24 386 24 250 C24 124 117 18 228 -3 L228 -3 Z " />
<glyph glyph-name="Ecaron" unicode="&#x11a;" horiz-adv-x="533" d="M83 700 C72 700 66 694 66 683 L66 17 C66 8 72 0 83 0 L486 0 C498 0 503 8 503 17 L503 128 C503 140 497 146 486 146 L215 146 L215 279 L450 279 C461 279 467 285 467 297 L467 403 C467 415 461 421 450 421 L215 421 L215 554 L485 554 C496 554 502 561 502 572 L502 683 C502 692 496 700 485 700 L83 700 L83 700 Z M319 755 C334 755 344 763 352 772 L457 890 C465 899 462 907 455 915 L422 956 C419 960 415 961 411 961 C406 961 400 959 396 955 L285 858 L174 955 C170 959 165 961 160 961 C156 961 152 960 149 956 L116 915 C109 907 106 898 114 890 L219 772 C227 763 238 755 251 755 L319 755 L319 755 Z " />
<glyph glyph-name="ecaron" unicode="&#x11b;" horiz-adv-x="542" d="M308 551 C323 551 333 559 341 568 L446 686 C454 695 451 703 444 711 L411 752 C408 756 404 757 400 757 C395 757 389 755 385 751 L274 654 L163 751 C159 755 154 757 149 757 C145 757 141 756 138 752 L105 711 C98 703 95 694 103 686 L208 568 C216 559 227 551 240 551 L308 551 L308 551 Z M286 114 C222 114 174 150 162 203 L499 203 C512 203 518 211 518 222 C518 375 425 510 269 510 C122 510 24 386 24 250 C24 108 141 -10 282 -10 C358 -10 419 10 470 41 C479 46 480 56 475 64 L425 135 C421 140 417 144 411 144 C408 144 405 143 400 140 C364 121 333 114 286 114 L286 114 Z M166 309 C177 362 218 397 269 397 C328 397 362 360 374 309 L166 309 Z " />
<glyph glyph-name="Gcircumflex" unicode="&#x11c;" horiz-adv-x="688" d="M483 155 C456 142 427 135 388 135 C269 135 178 232 178 349 C178 465 263 565 388 565 C429 565 467 556 508 529 C513 525 517 523 521 523 C527 523 533 528 537 534 L597 626 C604 634 604 644 589 651 C537 684 472 710 388 710 C180 710 29 556 29 349 C29 149 180 -10 388 -10 C467 -10 548 7 615 42 C624 47 628 54 628 64 L628 367 C628 376 623 384 611 384 L384 384 C372 384 366 378 366 367 L366 278 C366 267 372 260 384 260 L483 260 L483 155 L483 155 Z M349 944 C336 944 325 936 317 927 L212 809 C204 801 207 791 214 784 L247 743 C250 740 253 738 257 738 C262 738 268 741 272 744 L383 841 L494 744 C498 740 504 738 509 738 C513 738 517 739 520 743 L553 784 C560 792 563 801 555 809 L450 927 C442 936 432 944 417 944 L349 944 L349 944 Z " />
<glyph glyph-name="gcircumflex" unicode="&#x11d;" horiz-adv-x="605" d="M172 252 C172 319 221 370 286 370 C350 370 400 320 400 252 C400 184 350 137 286 137 C221 137 172 184 172 252 L172 252 Z M544 483 C544 494 538 500 527 500 L414 500 C403 500 397 494 397 483 L397 432 C362 475 316 510 244 510 C113 510 24 396 24 252 C24 108 113 -3 244 -3 C316 -3 364 34 397 74 L397 13 C397 -51 356 -115 259 -115 C211 -115 169 -98 141 -73 C138 -70 134 -68 131 -68 C127 -68 123 -71 119 -76 L61 -153 C55 -162 55 -169 62 -176 C106 -221 183 -255 263 -255 C428 -255 544 -136 544 28 L544 483 L544 483 Z M269 748 C256 748 245 740 237 731 L132 613 C124 605 127 595 134 588 L167 547 C170 544 173 542 177 542 C182 542 188 545 192 548 L303 645 L414 548 C418 544 424 542 429 542 C433 542 437 543 440 547 L473 588 C480 596 483 605 475 613 L370 731 C362 740 352 748 337 748 L269 748 L269 748 Z " />
<glyph glyph-name="Gbreve" unicode="&#x11e;" horiz-adv-x="688" d="M483 155 C456 142 427 135 388 135 C269 135 178 232 178 349 C178 465 263 565 388 565 C429 565 467 556 508 529 C513 525 517 523 521 523 C527 523 533 528 537 534 L597 626 C604 634 604 644 589 651 C537 684 472 710 388 710 C180 710 29 556 29 349 C29 149 180 -10 388 -10 C467 -10 548 7 615 42 C624 47 628 54 628 64 L628 367 C628 376 623 384 611 384 L384 384 C372 384 366 378 366 367 L366 278 C366 267 372 260 384 260 L483 260 L483 155 L483 155 Z M551 905 C551 910 547 914 538 916 L468 929 C460 929 457 926 456 918 C452 879 431 853 380 853 C331 853 309 879 305 918 C303 926 299 930 293 929 L223 916 C214 915 210 912 210 905 C215 804 281 750 380 750 C479 750 547 804 551 905 L551 905 Z " />
<glyph glyph-name="gbreve" unicode="&#x11f;" horiz-adv-x="605" d="M172 252 C172 319 221 370 286 370 C350 370 400 320 400 252 C400 184 350 137 286 137 C221 137 172 184 172 252 L172 252 Z M544 483 C544 494 538 500 527 500 L414 500 C403 500 397 494 397 483 L397 432 C362 475 316 510 244 510 C113 510 24 396 24 252 C24 108 113 -3 244 -3 C316 -3 364 34 397 74 L397 13 C397 -51 356 -115 259 -115 C211 -115 169 -98 141 -73 C138 -70 134 -68 131 -68 C127 -68 123 -71 119 -76 L61 -153 C55 -162 55 -169 62 -176 C106 -221 183 -255 263 -255 C428 -255 544 -136 544 28 L544 483 L544 483 Z M472 715 C472 720 468 724 459 726 L389 739 C381 739 378 736 377 728 C373 689 352 663 301 663 C252 663 230 689 226 728 C224 736 220 740 214 739 L144 726 C135 725 131 722 131 715 C136 614 202 560 301 560 C400 560 468 614 472 715 L472 715 Z " />
<glyph glyph-name="Gdotaccent" unicode="&#x120;" horiz-adv-x="688" d="M483 155 C456 142 427 135 388 135 C269 135 178 232 178 349 C178 465 263 565 388 565 C429 565 467 556 508 529 C513 525 517 523 521 523 C527 523 533 528 537 534 L597 626 C604 634 604 644 589 651 C537 684 472 710 388 710 C180 710 29 556 29 349 C29 149 180 -10 388 -10 C467 -10 548 7 615 42 C624 47 628 54 628 64 L628 367 C628 376 623 384 611 384 L384 384 C372 384 366 378 366 367 L366 278 C366 267 372 260 384 260 L483 260 L483 155 L483 155 Z M295 850 C295 805 330 770 375 770 C420 770 456 805 456 850 C456 895 420 931 375 931 C330 931 295 895 295 850 L295 850 Z " />
<glyph glyph-name="gdotaccent" unicode="&#x121;" horiz-adv-x="605" d="M172 252 C172 319 221 370 286 370 C350 370 400 320 400 252 C400 184 350 137 286 137 C221 137 172 184 172 252 L172 252 Z M544 483 C544 494 538 500 527 500 L414 500 C403 500 397 494 397 483 L397 432 C362 475 316 510 244 510 C113 510 24 396 24 252 C24 108 113 -3 244 -3 C316 -3 364 34 397 74 L397 13 C397 -51 356 -115 259 -115 C211 -115 169 -98 141 -73 C138 -70 134 -68 131 -68 C127 -68 123 -71 119 -76 L61 -153 C55 -162 55 -169 62 -176 C106 -221 183 -255 263 -255 C428 -255 544 -136 544 28 L544 483 L544 483 Z M215 668 C215 623 250 588 295 588 C340 588 376 623 376 668 C376 713 340 749 295 749 C250 749 215 713 215 668 L215 668 Z " />
<glyph glyph-name="uni0122" unicode="&#x122;" horiz-adv-x="688" d="M483 155 C456 142 427 135 388 135 C269 135 178 232 178 349 C178 465 263 565 388 565 C429 565 466 554 507 527 C512 524 516 523 520 523 C527 523 533 527 536 533 L597 626 C604 634 604 644 589 651 C537 684 472 710 388 710 C180 710 29 556 29 349 C29 149 180 -10 388 -10 C467 -10 548 7 615 42 C624 47 628 54 628 64 L628 367 C628 376 623 384 611 384 L384 384 C372 384 366 378 366 367 L366 278 C366 267 372 260 384 260 L483 260 L483 155 L483 155 Z M291 -262 C290 -269 295 -276 304 -276 L394 -276 C405 -276 411 -272 413 -263 L456 -62 C458 -53 455 -49 446 -49 L336 -49 C327 -49 321 -54 320 -63 L291 -262 L291 -262 Z " />
<glyph glyph-name="uni0123" unicode="&#x123;" horiz-adv-x="605" d="M172 252 C172 319 221 370 286 370 C350 370 400 320 400 252 C400 184 350 137 286 137 C221 137 172 184 172 252 L172 252 Z M544 483 C544 494 538 500 527 500 L414 500 C403 500 397 494 397 483 L397 432 C362 475 316 510 244 510 C113 510 24 396 24 252 C24 108 113 -3 244 -3 C316 -3 364 34 397 74 L397 13 C397 -51 356 -115 259 -115 C211 -115 169 -98 141 -73 C138 -70 134 -68 131 -68 C127 -68 123 -71 119 -76 L61 -153 C55 -162 55 -169 62 -176 C106 -221 183 -255 263 -255 C428 -255 544 -136 544 28 L544 483 L544 483 Z M387 778 C388 787 384 791 375 791 L284 791 C274 791 268 787 265 778 L222 578 C220 569 223 565 232 565 L343 565 C352 565 357 569 358 578 L387 778 L387 778 Z " />
<glyph glyph-name="Hcircumflex" unicode="&#x124;" horiz-adv-x="690" d="M198 0 C209 0 215 6 215 17 L215 279 L475 279 L475 17 C475 6 481 0 492 0 L606 0 C618 0 624 6 624 17 L624 683 C624 694 618 700 606 700 L492 700 C481 700 475 694 475 683 L475 428 L215 428 L215 683 C215 694 209 700 198 700 L83 700 C72 700 66 694 66 683 L66 17 C66 6 72 0 83 0 L198 0 L198 0 Z M310 944 C297 944 286 936 278 927 L173 809 C165 801 168 791 175 784 L208 743 C211 740 214 738 218 738 C223 738 229 741 233 744 L344 841 L455 744 C459 740 465 738 470 738 C474 738 478 739 481 743 L514 784 C521 792 524 801 516 809 L411 927 C403 936 393 944 378 944 L310 944 L310 944 Z " />
<glyph glyph-name="hcircumflex" unicode="&#x125;" horiz-adv-x="603" d="M191 0 C202 0 208 6 208 17 L208 263 C208 314 253 370 309 370 C374 370 403 321 403 256 L403 17 C403 6 409 0 421 0 L533 0 C544 0 550 6 550 17 L550 285 C550 429 484 510 361 510 C289 510 239 472 208 432 L208 733 C208 744 202 750 191 750 L78 750 C67 750 61 744 61 733 L61 17 C61 6 67 0 78 0 L191 0 L191 0 Z M99 969 C86 969 75 961 67 952 L-38 834 C-46 826 -43 816 -36 809 L-3 768 C0 765 3 763 7 763 C12 763 18 766 22 769 L133 866 L244 769 C248 765 254 763 259 763 C263 763 267 764 270 768 L303 809 C310 817 313 826 305 834 L200 952 C192 961 182 969 167 969 L99 969 L99 969 Z " />
<glyph glyph-name="Hbar" unicode="&#x126;" horiz-adv-x="690" d="M477 427 L217 427 L217 500 L477 500 L477 427 Z M688 500 C699 500 704 506 704 518 L704 562 C704 574 699 580 688 580 L624 580 L624 683 C624 694 618 700 606 700 L492 700 C481 700 475 694 475 683 L475 580 L215 580 L215 683 C215 692 210 700 197 700 L85 700 C72 700 66 694 66 683 L66 580 L4 580 C-9 580 -12 575 -12 562 L-12 518 C-12 506 -9 500 4 500 L66 500 L66 17 C66 5 69 0 84 0 L197 0 C209 0 215 6 215 17 L215 278 L475 278 L475 17 C475 6 481 0 492 0 L606 0 C618 0 624 6 624 17 L624 500 L688 500 Z " />
<glyph glyph-name="hbar" unicode="&#x127;" horiz-adv-x="603" d="M208 733 C208 744 202 750 191 750 L78 750 C67 750 61 744 61 733 L61 655 L14 655 C3 655 -3 649 -3 638 L-3 569 C-3 558 3 552 14 552 L61 552 L61 17 C61 6 67 0 78 0 L191 0 C202 0 208 6 208 17 L208 263 C208 314 253 370 309 370 C374 370 403 321 403 256 L403 17 C403 6 409 0 421 0 L533 0 C544 0 550 6 550 17 L550 285 C550 429 484 510 361 510 C289 510 239 472 208 432 L208 552 L292 552 C303 552 309 558 309 569 L309 638 C309 649 303 655 292 655 L208 655 L208 733 Z " />
<glyph glyph-name="Itilde" unicode="&#x128;" horiz-adv-x="271" d="M193 -2 C204 -2 210 4 210 15 L210 681 C210 692 204 698 193 698 L78 698 C67 698 61 692 61 681 L61 15 C61 4 67 -2 78 -2 L193 -2 L193 -2 Z M205 879 C157 879 129 934 62 934 C27 934 -12 910 -41 882 C-50 874 -51 868 -47 856 L-30 787 C-28 782 -26 777 -22 777 C-19 777 -17 778 -13 781 C14 806 38 830 69 830 C117 830 144 776 212 776 C247 776 286 800 315 828 C322 834 324 843 321 854 L304 923 C302 929 299 933 295 933 C293 933 290 931 287 928 C260 904 234 879 205 879 L205 879 Z " />
<glyph glyph-name="itilde" unicode="&#x129;" horiz-adv-x="269" d="M203 688 C155 688 127 743 60 743 C25 743 -14 719 -43 691 C-52 683 -53 677 -49 665 L-32 596 C-30 591 -28 586 -24 586 C-21 586 -19 587 -15 590 C12 615 36 639 67 639 C115 639 142 585 210 585 C245 585 284 609 313 637 C320 643 322 652 319 663 L302 732 C300 738 297 742 293 742 C291 742 288 740 285 737 C258 713 232 688 203 688 L203 688 Z M191 0 C202 0 208 6 208 17 L208 483 C208 494 202 500 191 500 L78 500 C67 500 61 494 61 483 L61 17 C61 6 67 0 78 0 L191 0 L191 0 Z " />
<glyph glyph-name="Imacron" unicode="&#x12a;" horiz-adv-x="271" d="M193 0 C204 0 210 6 210 17 L210 683 C210 694 204 700 193 700 L78 700 C67 700 61 694 61 683 L61 17 C61 6 67 0 78 0 L193 0 L193 0 Z M-15 827 C-15 816 -9 810 2 810 L269 810 C281 810 287 816 287 827 L287 912 C287 924 281 930 269 930 L2 930 C-9 930 -15 924 -15 912 L-15 827 L-15 827 Z " />
<glyph glyph-name="imacron" unicode="&#x12b;" horiz-adv-x="269" d="M191 0 C202 0 208 6 208 17 L208 483 C208 494 202 500 191 500 L78 500 C67 500 61 494 61 483 L61 17 C61 6 67 0 78 0 L191 0 L191 0 Z M-16 612 C-16 601 -10 595 1 595 L268 595 C280 595 286 601 286 612 L286 697 C286 709 280 715 268 715 L1 715 C-10 715 -16 709 -16 697 L-16 612 L-16 612 Z " />
<glyph glyph-name="Iogonek" unicode="&#x12e;" horiz-adv-x="271" d="M194 0 C204 0 209 5 209 16 L209 683 C209 694 203 700 192 700 L78 700 C67 700 61 694 61 683 L61 14 C61 5 66 0 76 0 L88 0 C3 -82 52 -204 179 -204 C190 -204 202 -203 214 -201 C222 -200 223 -195 223 -187 L223 -115 C223 -109 220 -105 215 -105 C214 -105 213 -106 211 -106 C205 -107 199 -108 194 -108 C135 -108 123 -31 194 0 L194 0 Z " />
<glyph glyph-name="iogonek" unicode="&#x12f;" horiz-adv-x="269" d="M193 0 C203 0 208 5 208 16 L208 483 C208 494 202 500 191 500 L78 500 C67 500 61 494 61 483 L61 14 C61 5 66 0 76 0 L88 0 C3 -82 52 -204 179 -204 C190 -204 202 -203 214 -201 C222 -200 223 -195 223 -187 L223 -115 C223 -109 220 -105 215 -105 C214 -105 213 -106 211 -106 C205 -107 199 -108 194 -108 C134 -108 122 -31 193 0 L193 0 Z M50 678 C50 631 86 595 133 595 C181 595 218 631 218 678 C218 726 181 763 133 763 C86 763 50 726 50 678 L50 678 Z " />
<glyph glyph-name="Idotaccent" unicode="&#x130;" horiz-adv-x="271" d="M193 0 C204 0 210 6 210 17 L210 683 C210 694 204 700 193 700 L78 700 C67 700 61 694 61 683 L61 17 C61 6 67 0 78 0 L193 0 L193 0 Z M55 854 C55 809 90 774 135 774 C180 774 216 809 216 854 C216 899 180 935 135 935 C90 935 55 899 55 854 L55 854 Z " />
<glyph glyph-name="dotlessi" unicode="&#x131;" horiz-adv-x="269" d="M191 0 C202 0 208 6 208 17 L208 483 C208 494 202 500 191 500 L78 500 C67 500 61 494 61 483 L61 17 C61 6 67 0 78 0 L191 0 L191 0 Z " />
<glyph glyph-name="IJ" unicode="&#x132;" horiz-adv-x="779" d="M198 0 C209 0 215 6 215 17 L215 683 C215 694 209 700 198 700 L83 700 C72 700 66 694 66 683 L66 17 C66 6 72 0 83 0 L198 0 L198 0 Z M713 683 C713 694 707 700 696 700 L581 700 C570 700 564 694 564 683 L564 237 C564 178 533 135 477 135 C442 135 419 145 392 161 C387 164 382 166 378 166 C374 166 370 164 366 158 L312 70 C305 58 310 52 317 45 C364 10 423 -10 490 -10 C630 -10 713 96 713 222 L713 683 L713 683 Z " />
<glyph glyph-name="ij" unicode="&#x133;" horiz-adv-x="597" d="M212 0 C224 0 230 6 230 17 L230 483 C230 494 224 500 212 500 L100 500 C89 500 83 494 83 483 L83 17 C83 6 89 0 100 0 L212 0 L212 0 Z M72 678 C72 631 108 595 155 595 C203 595 240 631 240 678 C240 726 203 763 155 763 C108 763 72 726 72 678 L72 678 Z M220 -200 C216 -210 219 -217 228 -222 C263 -242 297 -255 345 -255 C451 -255 520 -181 520 -84 L520 483 C520 494 514 500 503 500 L391 500 C379 500 373 492 373 483 L373 -55 C373 -98 352 -114 325 -114 C306 -114 294 -111 282 -104 C279 -103 276 -102 274 -102 C269 -102 266 -105 263 -110 L220 -200 L220 -200 Z M363 678 C363 631 398 595 445 595 C493 595 531 631 531 678 C531 725 493 763 445 763 C400 763 363 726 363 678 L363 678 Z " />
<glyph glyph-name="Jcircumflex" unicode="&#x134;" horiz-adv-x="494" d="M427 683 C427 694 421 700 410 700 L296 700 C284 700 278 694 278 683 L278 237 C278 178 247 135 191 135 C156 135 133 145 106 161 C101 164 96 166 92 166 C87 166 84 164 81 158 L26 70 C19 58 24 52 31 45 C78 10 139 -10 204 -10 C344 -10 427 96 427 222 L427 683 L427 683 Z M317 944 C304 944 293 936 285 927 L180 809 C172 801 175 791 182 784 L215 743 C218 740 221 738 225 738 C230 738 236 741 240 744 L351 841 L462 744 C466 740 472 738 477 738 C481 738 485 739 488 743 L521 784 C528 792 531 801 523 809 L418 927 C410 936 400 944 385 944 L317 944 L317 944 Z " />
<glyph glyph-name="jcircumflex" unicode="&#x135;" horiz-adv-x="303" d="M-67 -200 C-72 -210 -69 -217 -60 -222 C-24 -242 10 -255 58 -255 C164 -255 233 -181 233 -84 L233 483 C233 494 227 500 215 500 L103 500 C91 500 86 492 86 483 L86 -55 C86 -98 65 -114 38 -114 C19 -114 7 -111 -6 -104 C-9 -103 -12 -102 -14 -102 C-19 -102 -22 -105 -25 -110 L-67 -200 L-67 -200 Z M125 748 C112 748 101 740 93 731 L-12 613 C-20 605 -17 595 -10 588 L23 547 C26 544 29 542 33 542 C38 542 44 545 48 548 L159 645 L270 548 C274 544 280 542 285 542 C289 542 293 543 296 547 L329 588 C336 596 339 605 331 613 L226 731 C218 740 208 748 193 748 L125 748 L125 748 Z " />
<glyph glyph-name="uni0136" unicode="&#x136;" horiz-adv-x="673" d="M648 0 C660 0 664 8 657 17 L398 406 L638 683 C646 692 644 700 633 700 L484 700 C469 700 460 694 449 683 L215 421 L215 683 C215 694 209 700 198 700 L83 700 C72 700 66 694 66 683 L66 17 C66 6 72 0 83 0 L198 0 C209 0 215 6 215 17 L215 219 L289 300 L477 17 C486 6 493 0 509 0 L648 0 Z M245 -262 C244 -269 249 -276 258 -276 L348 -276 C359 -276 365 -272 367 -263 L411 -62 C412 -53 409 -49 400 -49 L290 -49 C281 -49 275 -54 274 -63 L245 -262 L245 -262 Z " />
<glyph glyph-name="uni0137" unicode="&#x137;" horiz-adv-x="552" d="M198 -262 C197 -269 202 -276 210 -276 L300 -276 C311 -276 317 -272 319 -263 L363 -62 C365 -53 361 -49 352 -49 L242 -49 C233 -49 228 -54 227 -63 L198 -262 L198 -262 Z M369 17 C376 6 388 0 403 0 L530 0 C541 0 542 7 534 18 L365 290 L522 483 C530 490 529 500 518 500 L382 500 C367 500 360 496 351 487 L208 326 L208 733 C208 744 202 750 191 750 L78 750 C67 750 61 744 61 733 L61 17 C61 6 67 0 78 0 L191 0 C202 0 208 6 208 17 L208 142 L254 193 L369 17 L369 17 Z " />
<glyph glyph-name="kgreenlandic" unicode="&#x138;" horiz-adv-x="552" d="M369 17 C376 6 388 0 403 0 L530 0 C541 0 542 7 534 18 L365 290 L522 483 C530 490 529 500 518 500 L382 500 C367 500 360 496 351 487 L208 326 L208 483 C208 494 202 500 191 500 L78 500 C67 500 61 494 61 483 L61 17 C61 6 67 0 78 0 L191 0 C202 0 208 6 208 17 L208 142 L254 193 L369 17 L369 17 Z " />
<glyph glyph-name="Lacute" unicode="&#x139;" horiz-adv-x="490" d="M447 0 C459 0 465 6 465 17 L465 128 C465 139 459 145 447 145 L215 145 L215 683 C215 694 209 700 198 700 L83 700 C72 700 66 694 66 683 L66 17 C66 6 72 0 83 0 L447 0 L447 0 Z M161 748 C164 747 167 746 170 746 C175 746 180 749 183 754 L278 904 C282 912 282 921 270 925 L180 956 C178 957 175 957 173 957 C166 957 161 953 158 945 L94 796 C90 785 92 778 101 774 L161 748 L161 748 Z " />
<glyph glyph-name="lacute" unicode="&#x13a;" horiz-adv-x="276" d="M198 0 C209 0 215 6 215 17 L215 733 C215 744 209 750 198 750 L85 750 C74 750 68 744 68 733 L68 17 C68 6 74 0 85 0 L198 0 L198 0 Z M164 776 C167 775 170 774 173 774 C178 774 183 777 186 782 L281 932 C285 940 285 949 273 953 L183 984 C181 985 178 985 176 985 C169 985 164 981 161 973 L97 824 C93 813 95 806 104 802 L164 776 L164 776 Z " />
<glyph glyph-name="uni013B" unicode="&#x13b;" horiz-adv-x="490" d="M447 0 C459 0 465 6 465 17 L465 128 C465 139 459 145 447 145 L215 145 L215 683 C215 694 209 700 198 700 L83 700 C72 700 66 694 66 683 L66 17 C66 6 72 0 83 0 L447 0 L447 0 Z M167 -262 C166 -269 171 -276 179 -276 L270 -276 C281 -276 287 -272 289 -263 L332 -62 C334 -53 331 -49 322 -49 L212 -49 C203 -49 197 -54 196 -63 L167 -262 L167 -262 Z " />
<glyph glyph-name="uni013C" unicode="&#x13c;" horiz-adv-x="269" d="M191 0 C202 0 208 6 208 17 L208 733 C208 744 202 750 191 750 L79 750 C67 750 61 744 61 733 L61 17 C61 6 67 0 79 0 L191 0 L191 0 Z M37 -262 C36 -269 40 -276 49 -276 L140 -276 C150 -276 156 -272 159 -263 L202 -62 C204 -53 201 -49 192 -49 L81 -49 C72 -49 67 -54 66 -63 L37 -262 L37 -262 Z " />
<glyph glyph-name="Lcaron" unicode="&#x13d;" horiz-adv-x="516" d="M447 0 C459 0 465 6 465 17 L465 128 C465 139 459 145 447 145 L215 145 L215 683 C215 694 209 700 198 700 L83 700 C72 700 66 694 66 683 L66 17 C66 6 72 0 83 0 L447 0 L447 0 Z M342 487 C341 480 346 473 354 473 L445 473 C456 473 462 477 464 486 L507 687 C509 696 506 700 497 700 L387 700 C378 700 372 695 371 686 L342 487 L342 487 Z " />
<glyph glyph-name="lcaron" unicode="&#x13e;" horiz-adv-x="411" d="M191 0 C202 0 208 6 208 17 L208 733 C208 744 202 750 191 750 L78 750 C67 750 61 744 61 733 L61 17 C61 6 67 0 78 0 L191 0 L191 0 Z M265 537 C264 530 269 523 277 523 L368 523 C378 523 384 527 387 536 L430 737 C432 746 429 750 420 750 L310 750 C301 750 295 745 294 736 L265 537 L265 537 Z " />
<glyph glyph-name="Ldot" unicode="&#x13f;" horiz-adv-x="515" d="M447 0 C459 0 465 6 465 17 L465 128 C465 139 459 145 447 145 L215 145 L215 683 C215 694 209 700 198 700 L83 700 C72 700 66 694 66 683 L66 17 C66 6 72 0 83 0 L447 0 L447 0 Z M334 428 C334 383 369 348 414 348 C459 348 495 383 495 428 C495 473 459 509 414 509 C369 509 334 473 334 428 L334 428 Z " />
<glyph glyph-name="ldot" unicode="&#x140;" horiz-adv-x="450" d="M198 0 C209 0 215 6 215 17 L215 733 C215 744 209 750 198 750 L85 750 C74 750 68 744 68 733 L68 17 C68 6 74 0 85 0 L198 0 L198 0 Z M302 378 C302 333 337 298 382 298 C427 298 463 333 463 378 C463 423 427 459 382 459 C337 459 302 423 302 378 L302 378 Z " />
<glyph glyph-name="Lslash" unicode="&#x141;" horiz-adv-x="490" d="M66 17 C66 6 72 0 83 0 L447 0 C459 0 465 6 465 17 L465 128 C465 139 459 145 447 145 L215 145 L215 329 L384 389 C395 394 399 401 395 411 L372 477 C369 485 365 489 358 489 C356 489 353 488 350 487 L215 440 L215 683 C215 694 209 700 198 700 L83 700 C72 700 66 694 66 683 L66 388 L-11 361 C-21 356 -25 349 -22 338 L2 272 C6 264 11 259 17 259 C19 259 21 260 24 261 L66 276 L66 17 Z " />
<glyph glyph-name="lslash" unicode="&#x142;" horiz-adv-x="413" d="M128 17 C128 6 134 0 146 0 L258 0 C269 0 275 6 275 17 L275 355 L412 404 C415 404 427 411 423 426 L400 492 C397 501 391 503 385 503 C382 503 379 502 378 502 L275 465 L275 733 C275 744 269 750 258 750 L146 750 C134 750 128 744 128 733 L128 415 L1 368 C-15 361 -10 348 -10 345 L14 279 C15 276 19 267 29 267 C31 267 33 267 36 268 L128 303 L128 17 Z " />
<glyph glyph-name="Nacute" unicode="&#x143;" horiz-adv-x="746" d="M663 0 C674 0 680 6 680 17 L680 683 C680 694 674 700 663 700 L548 700 C537 700 531 694 531 683 L531 258 L229 683 C221 694 214 700 199 700 L83 700 C72 700 66 694 66 683 L66 17 C66 6 72 0 83 0 L198 0 C209 0 215 6 215 17 L215 442 L517 17 C525 6 532 0 547 0 L663 0 Z M382 748 C385 747 388 746 391 746 C396 746 401 749 404 754 L499 904 C503 912 503 921 491 925 L401 956 C399 957 396 957 394 957 C387 957 382 953 379 945 L315 796 C311 785 313 778 322 774 L382 748 L382 748 Z " />
<glyph glyph-name="nacute" unicode="&#x144;" horiz-adv-x="603" d="M533 0 C544 0 550 6 550 17 L550 285 C550 429 484 510 361 510 C288 510 238 468 208 427 L208 483 C208 494 202 500 191 500 L78 500 C67 500 61 494 61 483 L61 17 C61 6 67 0 78 0 L191 0 C202 0 208 6 208 17 L208 266 C208 318 253 370 309 370 C374 370 403 321 403 256 L403 17 C403 6 409 0 421 0 L533 0 L533 0 Z M315 549 C318 548 321 547 324 547 C329 547 334 550 337 555 L432 705 C436 713 436 722 424 726 L334 757 C332 758 329 758 327 758 C320 758 315 754 312 746 L248 597 C244 586 246 579 255 575 L315 549 L315 549 Z " />
<glyph glyph-name="uni0145" unicode="&#x145;" horiz-adv-x="746" d="M663 0 C674 0 680 6 680 17 L680 683 C680 694 674 700 663 700 L548 700 C537 700 531 694 531 683 L531 258 L229 683 C221 694 214 700 199 700 L83 700 C72 700 66 694 66 683 L66 17 C66 6 72 0 83 0 L198 0 C209 0 215 6 215 17 L215 442 L517 17 C525 6 532 0 547 0 L663 0 Z M275 -262 C274 -269 279 -276 287 -276 L378 -276 C388 -276 394 -272 397 -263 L440 -62 C442 -53 439 -49 430 -49 L320 -49 C311 -49 305 -54 304 -63 L275 -262 L275 -262 Z " />
<glyph glyph-name="uni0146" unicode="&#x146;" horiz-adv-x="603" d="M533 0 C544 0 550 6 550 17 L550 285 C550 429 484 510 361 510 C288 510 238 468 208 427 L208 483 C208 494 202 500 191 500 L78 500 C67 500 61 494 61 483 L61 17 C61 6 67 0 78 0 L191 0 C202 0 208 6 208 17 L208 266 C208 318 253 370 309 370 C374 370 403 321 403 256 L403 17 C403 6 409 0 421 0 L533 0 L533 0 Z M208 -262 C207 -269 211 -276 220 -276 L310 -276 C321 -276 327 -272 329 -263 L373 -62 C375 -53 371 -49 362 -49 L252 -49 C243 -49 238 -54 237 -63 L208 -262 L208 -262 Z " />
<glyph glyph-name="Ncaron" unicode="&#x147;" horiz-adv-x="746" d="M663 0 C674 0 680 6 680 17 L680 683 C680 694 674 700 663 700 L548 700 C537 700 531 694 531 683 L531 258 L229 683 C221 694 214 700 199 700 L83 700 C72 700 66 694 66 683 L66 17 C66 6 72 0 83 0 L198 0 C209 0 215 6 215 17 L215 442 L517 17 C525 6 532 0 547 0 L663 0 Z M406 755 C421 755 431 763 439 772 L544 890 C552 899 549 907 542 915 L509 956 C506 960 502 961 498 961 C493 961 487 959 483 955 L372 858 L261 955 C257 959 252 961 247 961 C243 961 239 960 236 956 L203 915 C196 907 193 898 201 890 L306 772 C314 763 325 755 338 755 L406 755 L406 755 Z " />
<glyph glyph-name="ncaron" unicode="&#x148;" horiz-adv-x="603" d="M533 0 C544 0 550 6 550 17 L550 285 C550 429 484 510 361 510 C288 510 238 468 208 427 L208 483 C208 494 202 500 191 500 L78 500 C67 500 61 494 61 483 L61 17 C61 6 67 0 78 0 L191 0 C202 0 208 6 208 17 L208 266 C208 318 253 370 309 370 C374 370 403 321 403 256 L403 17 C403 6 409 0 421 0 L533 0 L533 0 Z M337 544 C352 544 362 552 370 561 L475 679 C483 688 480 696 473 704 L440 745 C437 749 433 750 429 750 C424 750 418 748 414 744 L303 647 L192 744 C188 748 183 750 178 750 C174 750 170 749 167 745 L134 704 C127 696 124 687 132 679 L237 561 C245 552 256 544 269 544 L337 544 L337 544 Z " />
<glyph glyph-name="napostrophe" unicode="&#x149;" horiz-adv-x="603" d="M533 0 C544 0 550 6 550 17 L550 285 C550 429 484 510 361 510 C288 510 238 468 208 427 L208 483 C208 494 202 500 191 500 L78 500 C67 500 61 494 61 483 L61 17 C61 6 67 0 78 0 L191 0 C202 0 208 6 208 17 L208 266 C208 318 253 370 309 370 C374 370 403 321 403 256 L403 17 C403 6 409 0 421 0 L533 0 L533 0 Z M33 565 C32 558 37 551 45 551 L136 551 C146 551 152 555 155 564 L193 737 C195 746 192 750 183 750 L73 750 C64 750 58 745 57 736 L33 565 L33 565 Z " />
<glyph glyph-name="Omacron" unicode="&#x14c;" horiz-adv-x="777" d="M388 710 C185 710 29 552 29 349 C29 146 185 -10 388 -10 C590 -10 748 149 748 349 C748 552 590 710 388 710 L388 710 Z M388 135 C268 135 178 232 178 349 C178 467 268 565 388 565 C509 565 599 467 599 349 C599 232 508 135 388 135 L388 135 Z M238 808 C238 797 244 791 255 791 L522 791 C534 791 540 797 540 808 L540 893 C540 905 534 911 522 911 L255 911 C244 911 238 905 238 893 L238 808 L238 808 Z " />
<glyph glyph-name="omacron" unicode="&#x14d;" horiz-adv-x="563" d="M24 250 C24 106 138 -10 282 -10 C426 -10 539 106 539 250 C539 394 426 510 282 510 C138 510 24 394 24 250 L24 250 Z M167 250 C167 318 218 370 282 370 C346 370 396 318 396 250 C396 182 346 130 282 130 C218 130 167 182 167 250 L167 250 Z M132 612 C132 601 138 595 149 595 L416 595 C428 595 434 601 434 612 L434 697 C434 709 428 715 416 715 L149 715 C138 715 132 709 132 697 L132 612 L132 612 Z " />
<glyph glyph-name="Obreve" unicode="&#x14e;" horiz-adv-x="777" d="M388 710 C185 710 29 552 29 349 C29 146 185 -10 388 -10 C590 -10 748 149 748 349 C748 552 590 710 388 710 L388 710 Z M388 135 C268 135 178 232 178 349 C178 467 268 565 388 565 C509 565 599 467 599 349 C599 232 508 135 388 135 L388 135 Z M559 905 C559 910 555 914 546 916 L476 929 C468 929 465 926 464 918 C460 879 439 853 388 853 C339 853 317 879 313 918 C311 926 307 930 301 929 L231 916 C222 915 218 912 218 905 C223 804 289 750 388 750 C487 750 555 804 559 905 L559 905 Z " />
<glyph glyph-name="obreve" unicode="&#x14f;" horiz-adv-x="563" d="M24 250 C24 106 138 -10 282 -10 C426 -10 539 106 539 250 C539 394 426 510 282 510 C138 510 24 394 24 250 L24 250 Z M167 250 C167 318 218 370 282 370 C346 370 396 318 396 250 C396 182 346 130 282 130 C218 130 167 182 167 250 L167 250 Z M452 715 C452 720 448 724 439 726 L369 739 C361 739 358 736 357 728 C353 689 332 663 281 663 C232 663 210 689 206 728 C204 736 200 740 194 739 L124 726 C115 725 111 722 111 715 C116 614 182 560 281 560 C380 560 448 614 452 715 L452 715 Z " />
<glyph glyph-name="Ohungarumlaut" unicode="&#x150;" horiz-adv-x="777" d="M388 710 C185 710 29 552 29 349 C29 146 185 -10 388 -10 C590 -10 748 149 748 349 C748 552 590 710 388 710 L388 710 Z M388 135 C268 135 178 232 178 349 C178 467 268 565 388 565 C509 565 599 467 599 349 C599 232 508 135 388 135 L388 135 Z M317 747 C320 746 323 745 325 745 C331 745 337 749 341 755 L431 904 C435 912 435 921 423 924 L335 955 C332 956 329 957 326 957 C319 957 314 953 312 945 L249 794 C246 786 248 776 259 771 L317 747 L317 747 Z M507 747 C510 746 513 745 516 745 C523 745 528 749 532 755 L627 903 C631 910 630 920 619 923 L526 955 C523 956 520 957 517 957 C510 957 505 953 503 945 L440 794 C437 786 439 776 450 771 L507 747 L507 747 Z " />
<glyph glyph-name="ohungarumlaut" unicode="&#x151;" horiz-adv-x="563" d="M24 250 C24 106 138 -10 282 -10 C426 -10 539 106 539 250 C539 394 426 510 282 510 C138 510 24 394 24 250 L24 250 Z M167 250 C167 318 218 370 282 370 C346 370 396 318 396 250 C396 182 346 130 282 130 C218 130 167 182 167 250 L167 250 Z M213 539 C216 538 219 537 221 537 C227 537 233 541 237 547 L327 696 C331 704 331 713 319 716 L231 747 C228 748 225 749 222 749 C215 749 210 745 208 737 L145 586 C142 578 144 568 155 563 L213 539 L213 539 Z M403 539 C406 538 409 537 412 537 C419 537 424 541 428 547 L523 695 C527 702 526 712 515 715 L422 747 C419 748 416 749 413 749 C406 749 401 745 399 737 L336 586 C333 578 335 568 346 563 L403 539 L403 539 Z " />
<glyph glyph-name="OE" unicode="&#x152;" horiz-adv-x="1124" d="M387 135 C269 135 178 233 178 349 C178 465 269 565 387 565 C506 565 599 465 599 349 C599 233 506 135 387 135 L387 135 Z M1076 -10 C1088 -10 1094 -4 1094 8 L1094 117 C1094 129 1088 135 1076 135 L656 135 C712 176 732 228 739 279 L1041 279 C1053 279 1059 285 1059 296 L1059 406 C1059 417 1053 423 1041 423 L739 423 C731 479 703 532 656 565 L1076 565 C1088 565 1094 571 1094 583 L1094 692 C1094 704 1088 710 1076 710 L389 710 C185 710 29 552 29 349 C29 151 187 -10 399 -10 L1076 -10 L1076 -10 Z " />
<glyph glyph-name="oe" unicode="&#x153;" horiz-adv-x="913" d="M396 250 C396 182 346 130 282 130 C218 130 167 182 167 250 C167 318 218 370 282 370 C346 370 396 318 396 250 L396 250 Z M471 85 C510 29 575 -10 654 -10 C730 -10 791 10 842 41 C851 46 852 56 847 64 L796 135 C793 140 789 143 784 143 C780 143 776 142 772 140 C735 121 705 114 658 114 C593 114 545 150 534 203 L870 203 C885 203 890 211 890 222 C890 375 797 510 641 510 C569 510 510 476 467 419 C423 478 354 510 282 510 C138 510 24 394 24 250 C24 106 138 -10 282 -10 C362 -10 427 28 471 85 L471 85 Z M538 309 C549 360 588 397 641 397 C697 397 733 364 746 309 L538 309 Z " />
<glyph glyph-name="Racute" unicode="&#x154;" horiz-adv-x="598" d="M300 565 C376 565 415 525 415 466 C415 407 376 367 300 367 L215 367 L215 565 L300 565 L300 565 Z M425 256 C477 275 565 346 565 466 C565 595 476 700 336 700 L83 700 C72 700 66 694 66 683 L66 17 C66 6 72 0 83 0 L198 0 C209 0 215 6 215 17 L215 232 L272 232 L410 17 C417 6 427 0 440 0 L567 0 C580 0 583 6 576 18 L425 256 L425 256 Z M301 748 C304 747 307 746 310 746 C315 746 320 749 323 754 L418 904 C422 912 422 921 410 925 L320 956 C318 957 315 957 313 957 C306 957 301 953 298 945 L234 796 C230 785 232 778 241 774 L301 748 L301 748 Z " />
<glyph glyph-name="racute" unicode="&#x155;" horiz-adv-x="421" d="M78 500 C67 500 61 494 61 483 L61 17 C61 6 67 0 78 0 L191 0 C202 0 208 6 208 17 L208 229 C208 314 256 366 319 366 C335 366 349 364 364 357 C368 355 371 355 374 355 C380 355 384 358 386 365 L416 468 C420 480 422 488 411 493 C387 508 358 510 335 510 C275 510 228 462 209 420 L208 420 L208 483 C208 492 204 500 191 500 L78 500 L78 500 Z M261 549 C264 548 267 547 270 547 C275 547 280 550 283 555 L378 705 C382 713 382 722 370 726 L280 757 C278 758 275 758 273 758 C266 758 261 754 258 746 L194 597 C190 586 192 579 201 575 L261 549 L261 549 Z " />
<glyph glyph-name="uni0156" unicode="&#x156;" horiz-adv-x="598" d="M226 -262 C225 -269 229 -276 238 -276 L329 -276 C339 -276 345 -272 348 -263 L391 -62 C393 -53 390 -49 381 -49 L270 -49 C261 -49 256 -54 255 -63 L226 -262 L226 -262 Z M301 565 C377 565 416 525 416 466 C416 407 377 367 301 367 L215 367 L215 565 L301 565 L301 565 Z M425 256 C477 275 565 346 565 466 C565 595 476 700 336 700 L83 700 C72 700 66 694 66 683 L66 17 C66 6 72 0 83 0 L198 0 C209 0 215 6 215 17 L215 232 L272 232 L410 17 C417 6 427 0 440 0 L567 0 C580 0 583 6 576 18 L425 256 L425 256 Z " />
<glyph glyph-name="uni0157" unicode="&#x157;" horiz-adv-x="421" d="M36 -262 C35 -269 40 -276 49 -276 L139 -276 C150 -276 156 -272 158 -263 L202 -62 C203 -53 200 -49 191 -49 L81 -49 C72 -49 67 -54 66 -63 L36 -262 L36 -262 Z M78 500 C67 500 61 494 61 483 L61 17 C61 6 67 0 78 0 L191 0 C202 0 208 6 208 17 L208 229 C208 314 256 366 319 366 C335 366 349 364 364 357 C368 355 371 355 374 355 C380 355 384 358 386 365 L416 468 C420 480 422 488 411 493 C387 508 358 510 335 510 C275 510 228 462 209 420 L208 420 L208 483 C208 492 204 500 191 500 L78 500 L78 500 Z " />
<glyph glyph-name="Rcaron" unicode="&#x158;" horiz-adv-x="598" d="M300 565 C376 565 415 525 415 466 C415 407 376 367 300 367 L215 367 L215 565 L300 565 L300 565 Z M425 256 C477 275 565 346 565 466 C565 595 476 700 336 700 L83 700 C72 700 66 694 66 683 L66 17 C66 6 72 0 83 0 L198 0 C209 0 215 6 215 17 L215 232 L272 232 L410 17 C417 6 427 0 440 0 L567 0 C580 0 583 6 576 18 L425 256 L425 256 Z M323 755 C338 755 348 763 356 772 L461 890 C469 899 466 907 459 915 L426 956 C423 960 419 961 415 961 C410 961 404 959 400 955 L289 858 L178 955 C174 959 169 961 164 961 C160 961 156 960 153 956 L120 915 C113 907 110 898 118 890 L223 772 C231 763 242 755 255 755 L323 755 L323 755 Z " />
<glyph glyph-name="rcaron" unicode="&#x159;" horiz-adv-x="421" d="M78 500 C67 500 61 494 61 483 L61 17 C61 6 67 0 78 0 L191 0 C202 0 208 6 208 17 L208 229 C208 314 256 366 319 366 C335 366 349 364 364 357 C368 355 371 355 374 355 C380 355 384 358 386 365 L416 468 C420 480 422 488 411 493 C387 508 358 510 335 510 C275 510 228 462 209 420 L208 420 L208 483 C208 492 204 500 191 500 L78 500 L78 500 Z M279 547 C294 547 304 555 312 564 L417 682 C425 691 422 699 415 707 L382 748 C379 752 375 753 371 753 C366 753 360 751 356 747 L245 650 L134 747 C130 751 125 753 120 753 C116 753 112 752 109 748 L76 707 C69 699 66 690 74 682 L179 564 C187 555 198 547 211 547 L279 547 L279 547 Z " />
<glyph glyph-name="Sacute" unicode="&#x15a;" horiz-adv-x="538" d="M473 629 C479 639 477 647 467 654 C410 690 351 710 279 710 C148 710 44 630 44 510 C44 271 355 313 355 200 C355 163 326 132 265 132 C217 132 158 157 118 188 C114 191 109 192 106 192 C99 192 94 189 91 184 L33 96 C26 85 31 79 39 72 C103 23 174 -10 263 -10 C435 -10 504 109 504 202 C504 446 194 409 194 511 C194 546 229 568 272 568 C311 568 351 551 384 531 C388 528 392 527 396 527 C402 527 408 531 412 535 L473 629 L473 629 Z M292 748 C295 747 298 746 301 746 C306 746 311 749 314 754 L409 904 C413 912 413 921 401 925 L311 956 C309 957 306 957 304 957 C297 957 292 953 289 945 L225 796 C221 785 223 778 232 774 L292 748 L292 748 Z " />
<glyph glyph-name="sacute" unicode="&#x15b;" horiz-adv-x="438" d="M117 158 C112 162 107 165 102 165 C97 165 93 162 88 157 L32 97 C24 89 21 78 29 69 C77 18 144 -10 217 -10 C337 -10 410 62 410 147 C410 320 174 311 174 363 C174 382 200 386 220 386 C247 386 279 373 298 361 C302 358 307 356 311 356 C315 356 320 358 324 362 L385 426 C393 434 393 442 386 450 C351 481 291 510 222 510 C119 510 39 448 39 361 C39 192 275 205 275 142 C275 122 247 114 220 114 C183 114 144 135 117 158 L117 158 Z M243 549 C246 548 249 547 252 547 C257 547 262 550 265 555 L360 705 C364 713 364 722 352 726 L262 757 C260 758 257 758 255 758 C248 758 243 754 240 746 L176 597 C172 586 174 579 183 575 L243 549 L243 549 Z " />
<glyph glyph-name="Scircumflex" unicode="&#x15c;" horiz-adv-x="538" d="M473 629 C479 639 477 647 467 654 C410 690 351 710 279 710 C148 710 44 630 44 510 C44 271 355 313 355 200 C355 163 326 132 265 132 C217 132 158 157 118 188 C114 191 109 192 106 192 C99 192 94 189 91 184 L33 96 C26 85 31 79 39 72 C103 23 174 -10 263 -10 C435 -10 504 109 504 202 C504 446 194 409 194 511 C194 546 229 568 272 568 C311 568 351 551 384 531 C388 528 392 527 396 527 C402 527 408 531 412 535 L473 629 L473 629 Z M236 944 C223 944 212 936 204 927 L99 809 C91 801 94 791 101 784 L134 743 C137 740 140 738 144 738 C149 738 155 741 159 744 L270 841 L381 744 C385 740 391 738 396 738 C400 738 404 739 407 743 L440 784 C447 792 450 801 442 809 L337 927 C329 936 319 944 304 944 L236 944 L236 944 Z " />
<glyph glyph-name="scircumflex" unicode="&#x15d;" horiz-adv-x="438" d="M117 158 C112 162 107 165 102 165 C97 165 93 162 88 157 L32 97 C24 89 21 78 29 69 C77 18 144 -10 217 -10 C337 -10 410 62 410 147 C410 320 174 311 174 363 C174 382 200 386 220 386 C247 386 279 373 298 361 C302 358 307 356 311 356 C315 356 320 358 324 362 L385 426 C393 434 393 442 386 450 C351 481 291 510 222 510 C119 510 39 448 39 361 C39 192 275 205 275 142 C275 122 247 114 220 114 C183 114 144 135 117 158 L117 158 Z M187 748 C174 748 163 740 155 731 L50 613 C42 605 45 595 52 588 L85 547 C88 544 91 542 95 542 C100 542 106 545 110 548 L221 645 L332 548 C336 544 342 542 347 542 C351 542 355 543 358 547 L391 588 C398 596 401 605 393 613 L288 731 C280 740 270 748 255 748 L187 748 L187 748 Z " />
<glyph glyph-name="Scedilla" unicode="&#x15e;" horiz-adv-x="539" d="M175 -161 C172 -168 179 -175 188 -175 L287 -175 C298 -175 304 -170 306 -161 L334 -1 C438 20 504 107 504 202 C504 447 194 408 194 511 C194 546 229 568 272 568 C311 568 352 550 384 531 C388 528 392 527 396 527 C402 527 408 531 412 535 L473 629 C479 639 477 647 467 654 C410 690 351 710 279 710 C148 710 44 630 44 510 C44 270 355 313 355 200 C355 163 326 132 265 132 C217 132 158 157 118 188 C114 191 109 192 106 192 C99 192 94 189 91 184 L33 96 C26 85 31 79 39 72 C92 32 148 1 227 -8 L175 -161 L175 -161 Z " />
<glyph glyph-name="scedilla" unicode="&#x15f;" horiz-adv-x="438" d="M282 -1 C363 19 410 79 410 147 C410 322 174 311 174 363 C174 379 195 386 220 386 C244 386 279 374 298 361 C304 357 308 355 312 355 C316 355 320 358 324 362 L385 426 C393 434 393 442 386 450 C351 481 291 510 222 510 C119 510 39 448 39 361 C39 191 275 206 275 142 C275 123 251 114 220 114 C185 114 152 131 117 158 C112 162 107 164 103 164 C97 164 93 162 88 157 L32 97 C24 89 21 78 29 69 C62 34 109 3 176 -6 L123 -161 C120 -168 127 -175 136 -175 L235 -175 C247 -175 253 -170 254 -161 L282 -1 L282 -1 Z " />
<glyph glyph-name="Scaron" unicode="&#x160;" horiz-adv-x="538" d="M473 629 C479 639 477 647 467 654 C410 690 351 710 279 710 C148 710 44 630 44 510 C44 271 355 313 355 200 C355 163 326 132 265 132 C217 132 158 157 118 188 C114 191 109 192 106 192 C99 192 94 189 91 184 L33 96 C26 85 31 79 39 72 C103 23 174 -10 263 -10 C435 -10 504 109 504 202 C504 446 194 409 194 511 C194 546 229 568 272 568 C311 568 351 551 384 531 C388 528 392 527 396 527 C402 527 408 531 412 535 L473 629 L473 629 Z M305 755 C320 755 330 763 338 772 L443 890 C451 899 448 907 441 915 L408 956 C405 960 401 961 397 961 C392 961 386 959 382 955 L271 858 L160 955 C156 959 151 961 146 961 C142 961 138 960 135 956 L102 915 C95 907 92 898 100 890 L205 772 C213 763 224 755 237 755 L305 755 L305 755 Z " />
<glyph glyph-name="scaron" unicode="&#x161;" horiz-adv-x="438" d="M117 158 C112 162 107 165 102 165 C97 165 93 162 88 157 L32 97 C24 89 21 78 29 69 C77 18 144 -10 217 -10 C337 -10 410 62 410 147 C410 320 174 311 174 363 C174 382 200 386 220 386 C247 386 279 373 298 361 C302 358 307 356 311 356 C315 356 320 358 324 362 L385 426 C393 434 393 442 386 450 C351 481 291 510 222 510 C119 510 39 448 39 361 C39 192 275 205 275 142 C275 122 247 114 220 114 C183 114 144 135 117 158 L117 158 Z M255 550 C270 550 280 558 288 567 L393 685 C401 694 398 702 391 710 L358 751 C355 755 351 756 347 756 C342 756 336 754 332 750 L221 653 L110 750 C106 754 101 756 96 756 C92 756 88 755 85 751 L52 710 C45 702 42 693 50 685 L155 567 C163 558 174 550 187 550 L255 550 L255 550 Z " />
<glyph glyph-name="uni0162" unicode="&#x162;" horiz-adv-x="576" d="M345 0 C356 0 362 6 362 17 L362 554 L539 554 C551 554 557 560 557 572 L557 683 C557 694 551 700 539 700 L36 700 C25 700 19 694 19 683 L19 572 C19 560 25 554 36 554 L213 554 L213 17 C213 6 219 0 231 0 L345 0 L345 0 Z M190 -262 C189 -269 193 -276 202 -276 L292 -276 C303 -276 309 -272 311 -263 L355 -62 C356 -53 353 -49 344 -49 L234 -49 C225 -49 220 -54 219 -63 L190 -262 L190 -262 Z " />
<glyph glyph-name="uni0163" unicode="&#x163;" horiz-adv-x="426" d="M355 138 C352 143 349 146 345 146 C343 146 340 145 337 143 C320 135 306 130 286 130 C259 130 240 141 240 176 L240 366 L355 366 C366 366 372 372 372 383 L372 483 C372 494 366 500 354 500 L240 500 L240 631 C240 640 235 648 222 648 L110 648 C99 648 93 642 93 631 L93 500 L48 500 C37 500 31 494 31 483 L31 383 C31 372 37 366 48 366 L93 366 L93 156 C93 49 152 -10 259 -10 C303 -10 343 -2 390 25 C401 32 401 38 398 46 L355 138 L355 138 Z M118 -262 C117 -269 122 -276 131 -276 L221 -276 C232 -276 238 -272 240 -263 L284 -62 C285 -53 282 -49 273 -49 L163 -49 C154 -49 148 -54 147 -63 L118 -262 L118 -262 Z " />
<glyph glyph-name="Tcaron" unicode="&#x164;" horiz-adv-x="576" d="M345 0 C356 0 362 6 362 17 L362 554 L539 554 C551 554 557 560 557 572 L557 683 C557 694 551 700 539 700 L36 700 C25 700 19 694 19 683 L19 572 C19 560 25 554 36 554 L213 554 L213 17 C213 6 219 0 231 0 L345 0 L345 0 Z M321 755 C336 755 346 763 354 772 L459 890 C467 899 464 907 457 915 L424 956 C421 960 417 961 413 961 C408 961 402 959 398 955 L287 858 L176 955 C172 959 167 961 162 961 C158 961 154 960 151 956 L118 915 C111 907 108 898 116 890 L221 772 C229 763 240 755 253 755 L321 755 L321 755 Z " />
<glyph glyph-name="tcaron" unicode="&#x165;" horiz-adv-x="480" d="M299 568 C298 559 302 555 311 555 L402 555 C413 555 419 559 421 568 L464 768 C466 777 463 781 454 781 L344 781 C335 781 329 777 328 768 L299 568 L299 568 Z M355 138 C352 143 349 146 345 146 C343 146 340 145 337 143 C320 135 306 130 286 130 C259 130 240 141 240 176 L240 366 L355 366 C366 366 372 372 372 383 L372 483 C372 494 366 500 354 500 L240 500 L240 631 C240 640 235 648 222 648 L110 648 C99 648 93 642 93 631 L93 500 L48 500 C37 500 31 494 31 483 L31 383 C31 372 37 366 48 366 L93 366 L93 156 C93 49 152 -10 259 -10 C303 -10 343 -2 390 25 C401 32 401 38 398 46 L355 138 L355 138 Z " />
<glyph glyph-name="Tbar" unicode="&#x166;" horiz-adv-x="576" d="M213 17 C213 6 219 0 231 0 L345 0 C356 0 362 6 362 17 L362 248 L509 248 C521 248 527 254 527 266 L527 376 C527 388 521 394 509 394 L362 394 L362 554 L539 554 C551 554 557 560 557 572 L557 683 C557 694 551 700 539 700 L36 700 C25 700 19 694 19 683 L19 572 C19 560 25 554 36 554 L213 554 L213 394 L66 394 C55 394 49 388 49 376 L49 266 C49 254 55 248 66 248 L213 248 L213 17 Z " />
<glyph glyph-name="tbar" unicode="&#x167;" horiz-adv-x="426" d="M306 232 C317 232 323 240 323 249 L323 278 C323 290 317 296 306 296 L240 296 L240 366 L355 366 C366 366 372 372 372 383 L372 483 C372 494 366 500 354 500 L240 500 L240 631 C240 640 235 648 222 648 L110 648 C99 648 93 642 93 631 L93 500 L48 500 C37 500 31 494 31 483 L31 383 C31 372 37 366 48 366 L93 366 L93 296 L64 296 C55 296 47 291 47 278 L47 249 C47 238 55 232 64 232 L93 232 L93 156 C93 49 152 -10 259 -10 C303 -10 343 -2 390 25 C401 32 401 38 398 46 L355 138 C352 143 349 146 345 146 C343 146 340 145 337 143 C320 135 306 130 286 130 C259 130 240 141 240 176 L240 232 L306 232 Z " />
<glyph glyph-name="Utilde" unicode="&#x168;" horiz-adv-x="694" d="M79 700 C67 700 61 694 61 683 L61 274 C61 110 171 -10 347 -10 C521 -10 632 110 632 274 L632 683 C632 694 626 700 615 700 L500 700 C489 700 483 694 483 683 L483 301 C483 197 439 135 347 135 C255 135 211 197 211 301 L211 683 C211 694 205 700 193 700 L79 700 L79 700 Z M415 879 C367 879 339 934 272 934 C237 934 198 910 169 882 C160 874 159 868 163 856 L180 787 C182 782 184 777 188 777 C191 777 193 778 197 781 C224 806 248 830 279 830 C327 830 354 776 422 776 C457 776 496 800 525 828 C532 834 534 843 531 854 L514 923 C512 929 509 933 505 933 C503 933 500 931 497 928 C470 904 444 879 415 879 L415 879 Z " />
<glyph glyph-name="utilde" unicode="&#x169;" horiz-adv-x="603" d="M70 500 C59 500 53 494 53 483 L53 215 C53 71 119 -10 242 -10 C315 -10 366 32 395 73 L395 17 C395 6 401 0 413 0 L525 0 C536 0 542 6 542 17 L542 483 C542 494 536 500 525 500 L413 500 C401 500 395 494 395 483 L395 233 C395 182 350 130 294 130 C229 130 200 179 200 244 L200 483 C200 494 194 500 183 500 L70 500 L70 500 Z M365 688 C317 688 289 743 222 743 C187 743 148 719 119 691 C110 683 109 677 113 665 L130 596 C132 591 134 586 138 586 C141 586 143 587 147 590 C174 615 198 639 229 639 C277 639 304 585 372 585 C407 585 446 609 475 637 C482 643 484 652 481 663 L464 732 C462 738 459 742 455 742 C453 742 450 740 447 737 C420 713 394 688 365 688 L365 688 Z " />
<glyph glyph-name="Umacron" unicode="&#x16a;" horiz-adv-x="694" d="M79 700 C67 700 61 694 61 683 L61 274 C61 110 171 -10 347 -10 C521 -10 632 110 632 274 L632 683 C632 694 626 700 615 700 L500 700 C489 700 483 694 483 683 L483 301 C483 197 439 135 347 135 C255 135 211 197 211 301 L211 683 C211 694 205 700 193 700 L79 700 L79 700 Z M196 808 C196 797 202 791 213 791 L480 791 C492 791 498 797 498 808 L498 893 C498 905 492 911 480 911 L213 911 C202 911 196 905 196 893 L196 808 L196 808 Z " />
<glyph glyph-name="umacron" unicode="&#x16b;" horiz-adv-x="603" d="M70 500 C59 500 53 494 53 483 L53 215 C53 71 119 -10 242 -10 C315 -10 366 32 395 73 L395 17 C395 6 401 0 413 0 L525 0 C536 0 542 6 542 17 L542 483 C542 494 536 500 525 500 L413 500 C401 500 395 494 395 483 L395 233 C395 182 350 130 294 130 C229 130 200 179 200 244 L200 483 C200 494 194 500 183 500 L70 500 L70 500 Z M145 612 C145 601 151 595 162 595 L429 595 C441 595 447 601 447 612 L447 697 C447 709 441 715 429 715 L162 715 C151 715 145 709 145 697 L145 612 L145 612 Z " />
<glyph glyph-name="Ubreve" unicode="&#x16c;" horiz-adv-x="694" d="M79 700 C67 700 61 694 61 683 L61 274 C61 110 171 -10 347 -10 C521 -10 632 110 632 274 L632 683 C632 694 626 700 615 700 L500 700 C489 700 483 694 483 683 L483 301 C483 197 439 135 347 135 C255 135 211 197 211 301 L211 683 C211 694 205 700 193 700 L79 700 L79 700 Z M517 905 C517 910 513 914 504 916 L434 929 C426 929 423 926 422 918 C418 879 397 853 346 853 C297 853 275 879 271 918 C269 926 265 930 259 929 L189 916 C180 915 176 912 176 905 C181 804 247 750 346 750 C445 750 513 804 517 905 L517 905 Z " />
<glyph glyph-name="ubreve" unicode="&#x16d;" horiz-adv-x="603" d="M70 500 C59 500 53 494 53 483 L53 215 C53 71 119 -10 242 -10 C315 -10 366 32 395 73 L395 17 C395 6 401 0 413 0 L525 0 C536 0 542 6 542 17 L542 483 C542 494 536 500 525 500 L413 500 C401 500 395 494 395 483 L395 233 C395 182 350 130 294 130 C229 130 200 179 200 244 L200 483 C200 494 194 500 183 500 L70 500 L70 500 Z M472 702 C472 707 468 711 459 713 L389 726 C381 726 378 723 377 715 C373 676 352 650 301 650 C252 650 230 676 226 715 C224 723 220 727 214 726 L144 713 C135 712 131 709 131 702 C136 601 202 547 301 547 C400 547 468 601 472 702 L472 702 Z " />
<glyph glyph-name="Uring" unicode="&#x16e;" horiz-adv-x="694" d="M79 700 C67 700 61 694 61 683 L61 274 C61 110 171 -10 347 -10 C521 -10 632 110 632 274 L632 683 C632 694 626 700 615 700 L500 700 C489 700 483 694 483 683 L483 301 C483 197 439 135 347 135 C255 135 211 197 211 301 L211 683 C211 694 205 700 193 700 L79 700 L79 700 Z M219 861 C219 789 277 732 347 732 C418 732 475 789 475 861 C475 931 418 989 347 989 C277 989 219 931 219 861 L219 861 Z M308 861 C308 884 324 902 347 902 C370 902 388 884 388 861 C388 838 370 821 347 821 C324 821 308 838 308 861 L308 861 Z " />
<glyph glyph-name="uring" unicode="&#x16f;" horiz-adv-x="603" d="M70 500 C59 500 53 494 53 483 L53 215 C53 71 119 -10 242 -10 C315 -10 366 32 395 73 L395 17 C395 6 401 0 413 0 L525 0 C536 0 542 6 542 17 L542 483 C542 494 536 500 525 500 L413 500 C401 500 395 494 395 483 L395 233 C395 182 350 130 294 130 C229 130 200 179 200 244 L200 483 C200 494 194 500 183 500 L70 500 L70 500 Z M167 672 C167 600 225 543 295 543 C366 543 423 600 423 672 C423 742 366 800 295 800 C225 800 167 742 167 672 L167 672 Z M256 672 C256 695 272 713 295 713 C318 713 336 695 336 672 C336 649 318 632 295 632 C272 632 256 649 256 672 L256 672 Z " />
<glyph glyph-name="Uhungarumlaut" unicode="&#x170;" horiz-adv-x="694" d="M79 700 C67 700 61 694 61 683 L61 274 C61 110 171 -10 347 -10 C521 -10 632 110 632 274 L632 683 C632 694 626 700 615 700 L500 700 C489 700 483 694 483 683 L483 301 C483 197 439 135 347 135 C255 135 211 197 211 301 L211 683 C211 694 205 700 193 700 L79 700 L79 700 Z M263 747 C266 746 269 745 271 745 C277 745 283 749 287 755 L377 904 C381 912 381 921 369 924 L281 955 C278 956 275 957 272 957 C265 957 260 953 258 945 L195 794 C192 786 194 776 205 771 L263 747 L263 747 Z M453 747 C456 746 459 745 462 745 C469 745 474 749 478 755 L573 903 C577 910 576 920 565 923 L472 955 C469 956 466 957 463 957 C456 957 451 953 449 945 L386 794 C383 786 385 776 396 771 L453 747 L453 747 Z " />
<glyph glyph-name="uhungarumlaut" unicode="&#x171;" horiz-adv-x="603" d="M70 500 C59 500 53 494 53 483 L53 215 C53 71 119 -10 242 -10 C315 -10 366 32 395 73 L395 17 C395 6 401 0 413 0 L525 0 C536 0 542 6 542 17 L542 483 C542 494 536 500 525 500 L413 500 C401 500 395 494 395 483 L395 233 C395 182 350 130 294 130 C229 130 200 179 200 244 L200 483 C200 494 194 500 183 500 L70 500 L70 500 Z M213 531 C216 530 219 529 221 529 C227 529 233 533 237 539 L327 688 C331 696 331 705 319 708 L231 739 C228 740 225 741 222 741 C215 741 210 737 208 729 L145 578 C142 570 144 560 155 555 L213 531 L213 531 Z M403 531 C406 530 409 529 412 529 C419 529 424 533 428 539 L523 687 C527 694 526 704 515 707 L422 739 C419 740 416 741 413 741 C406 741 401 737 399 729 L336 578 C333 570 335 560 346 555 L403 531 L403 531 Z " />
<glyph glyph-name="Uogonek" unicode="&#x172;" horiz-adv-x="694" d="M304 -7 C221 -87 274 -204 400 -204 C412 -204 424 -203 436 -201 C442 -200 445 -196 445 -187 L445 -115 C445 -107 440 -106 433 -106 C425 -107 418 -108 412 -108 C349 -108 336 -42 393 -7 C565 17 632 150 632 274 L632 683 C632 694 626 700 615 700 L500 700 C489 700 483 694 483 683 L483 301 C483 197 439 135 347 135 C255 135 211 197 211 301 L211 683 C211 694 205 700 193 700 L79 700 C67 700 61 694 61 683 L61 274 C61 130 144 12 304 -7 L304 -7 Z " />
<glyph glyph-name="uogonek" unicode="&#x173;" horiz-adv-x="603" d="M395 17 C395 6 401 0 413 0 L444 0 C356 -78 404 -204 532 -204 C543 -204 554 -203 566 -201 C574 -200 575 -195 575 -188 L575 -115 C575 -107 570 -106 563 -106 C557 -107 552 -107 547 -107 C487 -107 483 -39 531 0 C542 0 542 8 542 17 L542 482 C542 494 536 500 525 500 L413 500 C401 500 395 494 395 483 L395 233 C395 182 350 130 294 130 C229 130 200 179 200 244 L200 483 C200 494 194 500 183 500 L70 500 C59 500 53 494 53 483 L53 215 C53 71 119 -10 242 -10 C315 -10 366 32 395 73 L395 17 L395 17 Z " />
<glyph glyph-name="Wcircumflex" unicode="&#x174;" horiz-adv-x="950" d="M758 0 C769 0 776 6 779 18 L940 682 C943 693 940 700 928 700 L801 700 C786 700 782 693 779 682 L678 237 L561 687 C558 696 552 700 543 700 L408 700 C399 700 394 696 391 687 L273 237 L173 682 C170 693 165 700 150 700 L22 700 C11 700 8 693 11 682 L172 18 C175 6 182 0 194 0 L335 0 C348 0 356 6 359 18 L476 470 L592 18 C595 6 603 0 617 0 L758 0 L758 0 Z M441 944 C428 944 417 936 409 927 L304 809 C296 801 299 791 306 784 L339 743 C342 740 345 738 349 738 C354 738 360 741 364 744 L475 841 L586 744 C590 740 596 738 601 738 C605 738 609 739 612 743 L645 784 C652 792 655 801 647 809 L542 927 C534 936 524 944 509 944 L441 944 L441 944 Z " />
<glyph glyph-name="wcircumflex" unicode="&#x175;" horiz-adv-x="738" d="M152 483 C149 494 142 500 132 500 L20 500 C9 500 6 494 9 483 L61 251 C87 134 113 20 113 19 C116 6 123 0 134 0 L278 0 C293 0 298 8 301 19 L369 325 L436 19 C439 8 447 0 459 0 L604 0 C615 0 621 8 625 19 L729 483 C732 494 729 500 718 500 L606 500 C596 500 589 494 586 483 L521 187 L450 482 C448 494 441 500 430 500 L307 500 C296 500 289 494 287 482 L251 334 C233 259 216 187 216 187 L152 483 L152 483 Z M334 733 C321 733 310 725 302 716 L197 598 C189 590 192 580 199 573 L232 532 C235 529 238 527 242 527 C247 527 253 530 257 533 L368 630 L479 533 C483 529 489 527 494 527 C498 527 502 528 505 532 L538 573 C545 581 548 590 540 598 L435 716 C427 725 417 733 402 733 L334 733 L334 733 Z " />
<glyph glyph-name="Ycircumflex" unicode="&#x176;" horiz-adv-x="611" d="M170 690 C167 695 160 700 151 700 L18 700 C9 700 7 690 12 683 L232 339 L232 17 C232 6 238 0 249 0 L363 0 C375 0 381 6 381 17 L381 339 L600 683 C605 690 602 700 593 700 L462 700 C451 700 447 697 443 690 L306 467 L170 690 L170 690 Z M271 944 C258 944 247 936 239 927 L134 809 C126 801 129 791 136 784 L169 743 C172 740 175 738 179 738 C184 738 190 741 194 744 L305 841 L416 744 C420 740 426 738 431 738 C435 738 439 739 442 743 L475 784 C482 792 485 801 477 809 L372 927 C364 936 354 944 339 944 L271 944 L271 944 Z " />
<glyph glyph-name="ycircumflex" unicode="&#x177;" horiz-adv-x="604" d="M543 483 C543 494 537 500 526 500 L414 500 C402 500 396 494 396 483 L396 243 C396 189 357 140 295 140 C230 140 201 189 201 254 L201 483 C201 494 195 500 183 500 L71 500 C60 500 54 494 54 483 L54 225 C54 81 120 0 243 0 C310 0 375 38 396 75 L396 15 C396 -50 363 -115 266 -115 C218 -115 176 -96 151 -68 C148 -65 145 -64 142 -64 C137 -64 133 -66 129 -71 L71 -149 C66 -156 66 -164 72 -171 C113 -219 187 -255 270 -255 C435 -255 543 -135 543 29 L543 483 L543 483 Z M264 748 C251 748 240 740 232 731 L127 613 C119 605 122 595 129 588 L162 547 C165 544 168 542 172 542 C177 542 183 545 187 548 L298 645 L409 548 C413 544 419 542 424 542 C428 542 432 543 435 547 L468 588 C475 596 478 605 470 613 L365 731 C357 740 347 748 332 748 L264 748 L264 748 Z " />
<glyph glyph-name="Ydieresis" unicode="&#x178;" horiz-adv-x="611" d="M170 690 C167 695 160 700 151 700 L18 700 C9 700 7 690 12 683 L232 339 L232 17 C232 6 238 0 249 0 L363 0 C375 0 381 6 381 17 L381 339 L600 683 C605 690 602 700 593 700 L462 700 C451 700 447 697 443 690 L306 467 L170 690 L170 690 Z M113 842 C113 798 148 763 192 763 C237 763 273 798 273 842 C273 886 237 922 192 922 C148 922 113 886 113 842 L113 842 Z M339 842 C339 798 373 763 417 763 C464 763 499 798 499 842 C499 886 464 922 417 922 C373 922 339 886 339 842 L339 842 Z " />
<glyph glyph-name="Zacute" unicode="&#x179;" horiz-adv-x="598" d="M39 17 C39 6 45 0 57 0 L541 0 C552 0 558 6 558 17 L558 128 C558 140 552 146 541 146 L239 146 L543 564 C547 571 548 573 548 586 L548 683 C548 694 542 700 531 700 L71 700 C60 700 54 694 54 683 L54 572 C54 560 60 554 71 554 L353 554 L55 145 C46 133 39 120 39 103 L39 17 L39 17 Z M311 749 C314 748 317 747 320 747 C325 747 330 750 333 755 L428 905 C432 913 432 922 420 926 L330 957 C328 958 325 958 323 958 C316 958 311 954 308 946 L244 797 C240 786 242 779 251 775 L311 749 L311 749 Z " />
<glyph glyph-name="zacute" unicode="&#x17a;" horiz-adv-x="463" d="M29 17 C29 6 35 0 46 0 L416 0 C428 0 434 6 434 17 L434 114 C434 126 428 132 416 132 L222 132 L406 380 C417 395 422 407 422 428 L422 483 C422 494 416 500 405 500 L59 500 C48 500 42 494 42 483 L42 386 C42 374 48 368 59 368 L232 368 L45 116 C34 103 29 93 29 74 L29 17 L29 17 Z M248 549 C251 548 254 547 257 547 C262 547 267 550 270 555 L365 705 C369 713 369 722 357 726 L267 757 C265 758 262 758 260 758 C253 758 248 754 245 746 L181 597 C177 586 179 579 188 575 L248 549 L248 549 Z " />
<glyph glyph-name="Zdotaccent" unicode="&#x17b;" horiz-adv-x="598" d="M39 17 C39 6 45 0 57 0 L541 0 C552 0 558 6 558 17 L558 128 C558 140 552 146 541 146 L239 146 L543 564 C547 571 548 573 548 586 L548 683 C548 694 542 700 531 700 L71 700 C60 700 54 694 54 683 L54 572 C54 560 60 554 71 554 L353 554 L55 145 C46 133 39 120 39 103 L39 17 L39 17 Z M221 867 C221 822 256 787 301 787 C346 787 382 822 382 867 C382 912 346 948 301 948 C256 948 221 912 221 867 L221 867 Z " />
<glyph glyph-name="zdotaccent" unicode="&#x17c;" horiz-adv-x="463" d="M29 17 C29 6 35 0 46 0 L416 0 C428 0 434 6 434 17 L434 114 C434 126 428 132 416 132 L222 132 L406 380 C417 395 422 407 422 428 L422 483 C422 494 416 500 405 500 L59 500 C48 500 42 494 42 483 L42 386 C42 374 48 368 59 368 L232 368 L45 116 C34 103 29 93 29 74 L29 17 L29 17 Z M149 668 C149 623 184 588 229 588 C274 588 310 623 310 668 C310 713 274 749 229 749 C184 749 149 713 149 668 L149 668 Z " />
<glyph glyph-name="Zcaron" unicode="&#x17d;" horiz-adv-x="598" d="M39 17 C39 6 45 0 57 0 L541 0 C552 0 558 6 558 17 L558 128 C558 140 552 146 541 146 L239 146 L543 564 C547 571 548 573 548 586 L548 683 C548 694 542 700 531 700 L71 700 C60 700 54 694 54 683 L54 572 C54 560 60 554 71 554 L353 554 L55 145 C46 133 39 120 39 103 L39 17 L39 17 Z M338 755 C353 755 363 763 371 772 L476 890 C484 899 481 907 474 915 L441 956 C438 960 434 961 430 961 C425 961 419 959 415 955 L304 858 L193 955 C189 959 184 961 179 961 C175 961 171 960 168 956 L135 915 C128 907 125 898 133 890 L238 772 C246 763 257 755 270 755 L338 755 L338 755 Z " />
<glyph glyph-name="zcaron" unicode="&#x17e;" horiz-adv-x="463" d="M29 17 C29 6 35 0 46 0 L416 0 C428 0 434 6 434 17 L434 114 C434 126 428 132 416 132 L222 132 L406 380 C417 395 422 407 422 428 L422 483 C422 494 416 500 405 500 L59 500 C48 500 42 494 42 483 L42 386 C42 374 48 368 59 368 L232 368 L45 116 C34 103 29 93 29 74 L29 17 L29 17 Z M268 544 C283 544 293 552 301 561 L406 679 C414 688 411 696 404 704 L371 745 C368 749 364 750 360 750 C355 750 349 748 345 744 L234 647 L123 744 C119 748 114 750 109 750 C105 750 101 749 98 745 L65 704 C58 696 55 687 63 679 L168 561 C176 552 187 544 200 544 L268 544 L268 544 Z " />
<glyph glyph-name="longs" unicode="&#x17f;" horiz-adv-x="403" d="M245 558 C245 607 270 620 297 620 C316 620 331 616 350 605 C353 604 355 603 357 603 C360 603 363 605 365 608 L412 691 C416 699 420 704 409 712 C364 743 317 760 265 760 C164 760 98 697 98 594 L98 500 L45 500 C33 500 27 494 27 483 L27 383 C27 372 33 366 45 366 L98 366 L98 17 C98 6 104 0 116 0 L228 0 C239 0 245 6 245 17 L245 558 L245 558 Z " />
<glyph glyph-name="florin" unicode="&#x192;" horiz-adv-x="637" d="M197 122 C183 74 163 38 109 38 C94 38 79 41 60 46 C58 47 55 47 53 47 C46 47 41 43 39 34 L24 -25 C21 -35 25 -42 36 -46 C70 -59 108 -66 142 -66 C236 -66 283 -11 306 77 L400 434 L533 434 C543 434 548 440 548 452 L548 509 C548 520 542 525 531 525 L423 525 L440 588 C453 638 474 672 529 672 C545 672 560 668 577 664 C580 663 582 663 584 663 C592 663 596 669 598 676 L613 734 C615 745 611 752 601 756 C571 768 533 775 497 775 C404 775 355 725 332 635 L304 525 L220 525 C209 525 204 519 204 506 L204 451 C204 440 210 434 221 434 L279 434 L197 122 L197 122 Z " />
<glyph glyph-name="uni0218" unicode="&#x218;" horiz-adv-x="538" d="M169 -262 C168 -269 173 -276 181 -276 L272 -276 C282 -276 288 -272 291 -263 L334 -62 C336 -53 333 -49 324 -49 L214 -49 C205 -49 199 -54 198 -63 L169 -262 L169 -262 Z M473 629 C479 639 477 647 467 654 C410 690 351 710 279 710 C148 710 44 630 44 510 C44 271 355 313 355 200 C355 163 326 132 265 132 C217 132 158 157 118 188 C114 191 109 192 106 192 C99 192 94 189 91 184 L33 96 C26 85 31 79 39 72 C103 23 174 -10 263 -10 C435 -10 504 109 504 202 C504 446 194 409 194 511 C194 546 229 568 272 568 C311 568 351 551 384 531 C388 528 392 527 396 527 C402 527 408 531 412 535 L473 629 L473 629 Z " />
<glyph glyph-name="uni0219" unicode="&#x219;" horiz-adv-x="438" d="M122 -262 C121 -269 126 -276 134 -276 L225 -276 C235 -276 241 -272 244 -263 L287 -62 C289 -53 286 -49 277 -49 L166 -49 C157 -49 152 -54 151 -63 L122 -262 L122 -262 Z M117 158 C112 162 107 165 102 165 C97 165 93 162 88 157 L32 97 C24 89 21 78 29 69 C77 18 144 -10 217 -10 C337 -10 410 62 410 147 C410 320 174 311 174 363 C174 382 200 386 220 386 C247 386 279 373 298 361 C302 358 307 356 311 356 C315 356 320 358 324 362 L385 426 C393 434 393 442 386 450 C351 481 291 510 222 510 C119 510 39 448 39 361 C39 192 275 205 275 142 C275 122 247 114 220 114 C183 114 144 135 117 158 L117 158 Z " />
<glyph glyph-name="uni021A" unicode="&#x21a;" horiz-adv-x="576" d="M345 0 C356 0 362 6 362 17 L362 554 L539 554 C551 554 557 560 557 572 L557 683 C557 694 551 700 539 700 L36 700 C25 700 19 694 19 683 L19 572 C19 560 25 554 36 554 L213 554 L213 17 C213 6 219 0 231 0 L345 0 L345 0 Z M190 -262 C189 -269 193 -276 202 -276 L292 -276 C303 -276 309 -272 311 -263 L355 -62 C356 -53 353 -49 344 -49 L234 -49 C225 -49 220 -54 219 -63 L190 -262 L190 -262 Z " />
<glyph glyph-name="uni021B" unicode="&#x21b;" horiz-adv-x="426" d="M355 138 C352 143 349 146 345 146 C343 146 340 145 337 143 C320 135 306 130 286 130 C259 130 240 141 240 176 L240 366 L355 366 C366 366 372 372 372 383 L372 483 C372 494 366 500 354 500 L240 500 L240 631 C240 640 235 648 222 648 L110 648 C99 648 93 642 93 631 L93 500 L48 500 C37 500 31 494 31 483 L31 383 C31 372 37 366 48 366 L93 366 L93 156 C93 49 152 -10 259 -10 C303 -10 343 -2 390 25 C401 32 401 38 398 46 L355 138 L355 138 Z M118 -262 C117 -269 122 -276 131 -276 L221 -276 C232 -276 238 -272 240 -263 L284 -62 C285 -53 282 -49 273 -49 L163 -49 C154 -49 148 -54 147 -63 L118 -262 L118 -262 Z " />
<glyph glyph-name="circumflex" unicode="&#x2c6;" horiz-adv-x="371" d="M151 737 C138 737 127 729 119 720 L14 602 C6 594 9 584 16 577 L49 536 C52 533 55 531 59 531 C64 531 70 534 74 537 L185 634 L296 537 C300 533 306 531 311 531 C315 531 319 532 322 536 L355 577 C362 585 365 594 357 602 L252 720 C244 729 234 737 219 737 L151 737 L151 737 Z " />
<glyph glyph-name="caron" unicode="&#x2c7;" horiz-adv-x="371" d="M219 545 C234 545 244 553 252 562 L357 680 C365 689 362 697 355 705 L322 746 C319 750 315 751 311 751 C306 751 300 749 296 745 L185 648 L74 745 C70 749 65 751 60 751 C56 751 52 750 49 746 L16 705 C9 697 6 688 14 680 L119 562 C127 553 138 545 151 545 L219 545 L219 545 Z " />
<glyph glyph-name="uni02C9" unicode="&#x2c9;" horiz-adv-x="412" d="M55 603 C55 592 61 586 72 586 L339 586 C351 586 357 592 357 603 L357 688 C357 700 351 706 339 706 L72 706 C61 706 55 700 55 688 L55 603 L55 603 Z " />
<glyph glyph-name="breve" unicode="&#x2d8;" horiz-adv-x="359" d="M350 715 C350 720 346 724 337 726 L267 739 C259 739 256 736 255 728 C251 689 230 663 179 663 C130 663 108 689 104 728 C102 736 98 740 92 739 L22 726 C13 725 9 722 9 715 C14 614 80 560 179 560 C278 560 346 614 350 715 L350 715 Z " />
<glyph glyph-name="dotaccent" unicode="&#x2d9;" horiz-adv-x="209" d="M24 648 C24 603 59 568 104 568 C149 568 185 603 185 648 C185 693 149 729 104 729 C59 729 24 693 24 648 L24 648 Z " />
<glyph glyph-name="ring" unicode="&#x2da;" horiz-adv-x="282" d="M13 639 C13 567 71 510 141 510 C212 510 269 567 269 639 C269 709 212 767 141 767 C71 767 13 709 13 639 L13 639 Z M102 639 C102 662 118 680 141 680 C164 680 182 662 182 639 C182 616 164 599 141 599 C118 599 102 616 102 639 L102 639 Z " />
<glyph glyph-name="ogonek" unicode="&#x2db;" horiz-adv-x="187" d="M53 3 C-32 -79 13 -204 143 -204 C154 -204 165 -203 177 -201 C183 -200 186 -196 186 -187 L185 -115 C185 -107 181 -106 174 -106 C168 -107 162 -108 157 -108 C94 -108 93 -28 154 9 L53 3 L53 3 Z " />
<glyph glyph-name="tilde" unicode="&#x2dc;" horiz-adv-x="412" d="M274 660 C226 660 198 715 131 715 C96 715 57 691 28 663 C19 655 18 649 22 637 L39 568 C41 563 43 558 47 558 C50 558 52 559 56 562 C83 587 107 611 138 611 C186 611 213 557 281 557 C316 557 355 581 384 609 C391 615 393 624 390 635 L373 704 C371 710 368 714 364 714 C362 714 359 712 356 709 C329 685 303 660 274 660 L274 660 Z " />
<glyph glyph-name="hungarumlaut" unicode="&#x2dd;" horiz-adv-x="448" d="M102 535 C105 534 108 533 110 533 C116 533 122 537 126 543 L216 692 C220 700 220 709 208 712 L120 743 C117 744 114 745 111 745 C104 745 99 741 97 733 L34 582 C31 574 33 564 44 559 L102 535 L102 535 Z M292 535 C295 534 298 533 301 533 C308 533 313 537 317 543 L412 691 C416 698 415 708 404 711 L311 743 C308 744 305 745 302 745 C295 745 290 741 288 733 L225 582 C222 574 224 564 235 559 L292 535 L292 535 Z " />
<glyph glyph-name="uni0394" unicode="&#x394;" horiz-adv-x="617" d="M308 620 L311 620 L458 125 L162 125 L308 620 Z M9 17 C9 6 15 0 26 0 L591 0 C602 0 608 6 608 17 L608 39 L411 731 C406 744 398 750 386 750 L233 750 C222 750 213 744 208 731 L9 39 L9 17 L9 17 Z " />
<glyph glyph-name="uni03A9" unicode="&#x3a9;" horiz-adv-x="762" d="M297 90 C197 159 145 238 145 362 C145 502 242 613 381 613 C521 613 616 501 616 359 C616 237 560 161 463 90 L463 1 L703 1 C714 1 719 6 719 16 L719 99 C719 111 714 117 703 117 L596 117 C687 181 732 282 732 382 C732 553 601 730 381 730 C163 730 29 552 29 382 C29 273 76 177 163 117 L58 117 C47 117 42 113 42 104 L42 16 C42 6 47 1 58 1 L297 1 L297 90 Z " />
<glyph glyph-name="uni03BC" unicode="&#x3bc;" horiz-adv-x="603" d="M200 20 C219 6 244 -1 272 -1 C325 -1 366 23 395 68 L395 17 C395 6 401 0 413 0 L525 0 C536 0 542 6 542 17 L542 483 C542 494 536 500 525 500 L413 500 C401 500 395 494 395 483 L395 237 C395 186 350 130 294 130 C230 130 200 180 200 244 L200 483 C200 494 194 500 183 500 L70 500 C59 500 53 494 53 483 L53 -233 C53 -244 59 -250 70 -250 L183 -250 C194 -250 200 -244 200 -233 L200 20 L200 20 Z " />
<glyph glyph-name="pi" unicode="&#x3c0;" horiz-adv-x="645" d="M609 480 C620 480 626 486 626 498 L626 606 C626 618 620 624 609 624 L36 624 C25 624 19 618 19 606 L19 498 C19 486 25 480 36 480 L120 480 L120 17 C120 6 126 0 137 0 L243 0 C255 0 261 6 261 17 L261 480 L385 480 L385 17 C385 6 391 0 402 0 L508 0 C519 0 525 6 525 17 L525 480 L609 480 Z " />
<glyph glyph-name="Wgrave" unicode="&#x1e80;" horiz-adv-x="950" d="M758 0 C769 0 776 6 779 18 L940 682 C943 693 940 700 928 700 L801 700 C786 700 782 693 779 682 L678 237 L561 687 C558 696 552 700 543 700 L408 700 C399 700 394 696 391 687 L273 237 L173 682 C170 693 165 700 150 700 L22 700 C11 700 8 693 11 682 L172 18 C175 6 182 0 194 0 L335 0 C348 0 356 6 359 18 L476 470 L592 18 C595 6 603 0 617 0 L758 0 L758 0 Z M509 774 C520 779 519 788 516 796 L452 945 C449 953 444 957 437 957 C435 957 432 957 430 956 L340 925 C329 921 327 912 332 904 L427 754 C430 749 435 746 440 746 C443 746 446 747 449 748 L509 774 L509 774 Z " />
<glyph glyph-name="wgrave" unicode="&#x1e81;" horiz-adv-x="738" d="M152 483 C149 494 142 500 132 500 L20 500 C9 500 6 494 9 483 L61 251 C87 134 113 20 113 19 C116 6 123 0 134 0 L278 0 C293 0 298 8 301 19 L369 325 L436 19 C439 8 447 0 459 0 L604 0 C615 0 621 8 625 19 L729 483 C732 494 729 500 718 500 L606 500 C596 500 589 494 586 483 L521 187 L450 482 C448 494 441 500 430 500 L307 500 C296 500 289 494 287 482 L251 334 C233 259 216 187 216 187 L152 483 L152 483 Z M399 575 C410 580 409 589 406 597 L342 746 C339 754 334 758 327 758 C325 758 322 758 320 757 L230 726 C219 722 217 713 222 705 L317 555 C320 550 325 547 330 547 C333 547 336 548 339 549 L399 575 L399 575 Z " />
<glyph glyph-name="Wacute" unicode="&#x1e82;" horiz-adv-x="950" d="M758 0 C769 0 776 6 779 18 L940 682 C943 693 940 700 928 700 L801 700 C786 700 782 693 779 682 L678 237 L561 687 C558 696 552 700 543 700 L408 700 C399 700 394 696 391 687 L273 237 L173 682 C170 693 165 700 150 700 L22 700 C11 700 8 693 11 682 L172 18 C175 6 182 0 194 0 L335 0 C348 0 356 6 359 18 L476 470 L592 18 C595 6 603 0 617 0 L758 0 L758 0 Z M498 769 C501 768 504 767 507 767 C512 767 517 770 520 775 L615 925 C619 933 619 942 607 946 L517 977 C515 978 512 978 510 978 C503 978 498 974 495 966 L431 817 C427 806 429 799 438 795 L498 769 L498 769 Z " />
<glyph glyph-name="wacute" unicode="&#x1e83;" horiz-adv-x="738" d="M152 483 C149 494 142 500 132 500 L20 500 C9 500 6 494 9 483 L61 251 C87 134 113 20 113 19 C116 6 123 0 134 0 L278 0 C293 0 298 8 301 19 L369 325 L436 19 C439 8 447 0 459 0 L604 0 C615 0 621 8 625 19 L729 483 C732 494 729 500 718 500 L606 500 C596 500 589 494 586 483 L521 187 L450 482 C448 494 441 500 430 500 L307 500 C296 500 289 494 287 482 L251 334 C233 259 216 187 216 187 L152 483 L152 483 Z M395 549 C398 548 401 547 404 547 C409 547 414 550 417 555 L512 705 C516 713 516 722 504 726 L414 757 C412 758 409 758 407 758 C400 758 395 754 392 746 L328 597 C324 586 326 579 335 575 L395 549 L395 549 Z " />
<glyph glyph-name="Wdieresis" unicode="&#x1e84;" horiz-adv-x="950" d="M758 0 C769 0 776 6 779 18 L940 682 C943 693 940 700 928 700 L801 700 C786 700 782 693 779 682 L678 237 L561 687 C558 696 552 700 543 700 L408 700 C399 700 394 696 391 687 L273 237 L173 682 C170 693 165 700 150 700 L22 700 C11 700 8 693 11 682 L172 18 C175 6 182 0 194 0 L335 0 C348 0 356 6 359 18 L476 470 L592 18 C595 6 603 0 617 0 L758 0 L758 0 Z M283 842 C283 798 318 763 362 763 C407 763 443 798 443 842 C443 886 407 922 362 922 C318 922 283 886 283 842 L283 842 Z M509 842 C509 798 543 763 587 763 C634 763 669 798 669 842 C669 886 634 922 587 922 C543 922 509 886 509 842 L509 842 Z " />
<glyph glyph-name="wdieresis" unicode="&#x1e85;" horiz-adv-x="738" d="M152 483 C149 494 142 500 132 500 L20 500 C9 500 6 494 9 483 L61 251 C87 134 113 20 113 19 C116 6 123 0 134 0 L278 0 C293 0 298 8 301 19 L369 325 L436 19 C439 8 447 0 459 0 L604 0 C615 0 621 8 625 19 L729 483 C732 494 729 500 718 500 L606 500 C596 500 589 494 586 483 L521 187 L450 482 C448 494 441 500 430 500 L307 500 C296 500 289 494 287 482 L251 334 C233 259 216 187 216 187 L152 483 L152 483 Z M176 644 C176 600 211 565 255 565 C300 565 336 600 336 644 C336 688 300 724 255 724 C211 724 176 688 176 644 L176 644 Z M402 644 C402 600 436 565 480 565 C527 565 562 600 562 644 C562 688 527 724 480 724 C436 724 402 688 402 644 L402 644 Z " />
<glyph glyph-name="endash" unicode="&#x2013;" horiz-adv-x="564" d="M72 346 C61 346 55 340 55 329 L55 217 C55 206 61 200 72 200 L492 200 C503 200 509 206 509 217 L509 329 C509 340 503 346 492 346 L72 346 L72 346 Z " />
<glyph glyph-name="emdash" unicode="&#x2014;" horiz-adv-x="1088" d="M72 346 C61 346 55 340 55 329 L55 217 C55 206 61 200 72 200 L1016 200 C1027 200 1033 206 1033 217 L1033 329 C1033 340 1027 346 1016 346 L72 346 L72 346 Z " />
<glyph glyph-name="quoteleft" unicode="&#x2018;" horiz-adv-x="225" d="M186 696 C187 703 182 710 174 710 L83 710 C73 710 67 706 64 697 L21 496 C19 487 22 483 31 483 L141 483 C150 483 156 488 157 497 L186 696 L186 696 Z " />
<glyph glyph-name="quoteright" unicode="&#x2019;" horiz-adv-x="225" d="M22 497 C21 490 26 483 34 483 L125 483 C135 483 141 487 144 496 L187 697 C189 706 186 710 177 710 L66 710 C57 710 52 705 51 696 L22 497 L22 497 Z " />
<glyph glyph-name="quotesinglbase" unicode="&#x201a;" horiz-adv-x="225" d="M23 -106 C22 -113 27 -119 35 -119 L126 -119 C136 -119 142 -115 145 -106 L188 95 C191 104 187 108 178 108 L68 108 C59 108 53 103 52 94 L23 -106 L23 -106 Z " />
<glyph glyph-name="quotedblleft" unicode="&#x201c;" horiz-adv-x="443" d="M188 696 C189 703 184 710 176 710 L85 710 C75 710 69 706 66 697 L23 496 C21 487 24 483 33 483 L144 483 C153 483 158 488 159 497 L188 696 L188 696 Z M406 697 C407 704 402 711 394 711 L303 711 C293 711 287 706 284 697 L241 497 C239 488 242 484 251 484 L361 484 C370 484 376 489 377 498 L406 697 L406 697 Z " />
<glyph glyph-name="quotedblright" unicode="&#x201d;" horiz-adv-x="447" d="M244 497 C243 490 248 483 257 483 L347 483 C358 483 364 487 366 496 L410 697 C411 706 408 710 399 710 L289 710 C280 710 274 705 273 696 L244 497 L244 497 Z M26 497 C25 490 31 483 39 483 L129 483 C140 483 146 487 148 496 L192 697 C193 706 190 710 181 710 L71 710 C62 710 57 705 56 696 L26 497 L26 497 Z " />
<glyph glyph-name="quotedblbase" unicode="&#x201e;" horiz-adv-x="443" d="M241 -106 C240 -113 245 -119 253 -119 L344 -119 C354 -119 360 -115 363 -106 L406 95 C409 104 405 108 396 108 L285 108 C276 108 271 103 270 94 L241 -106 L241 -106 Z M23 -106 C22 -113 27 -120 35 -120 L126 -120 C136 -120 142 -116 145 -107 L188 94 C190 103 187 107 178 107 L68 107 C59 107 53 102 52 93 L23 -106 L23 -106 Z " />
<glyph glyph-name="dagger" unicode="&#x2020;" horiz-adv-x="398" d="M40 494 C29 494 23 488 23 476 L23 385 C23 374 29 368 40 368 L136 368 L136 -167 C136 -178 142 -184 153 -184 L244 -184 C256 -184 262 -178 262 -167 L262 368 L357 368 C369 368 375 374 375 385 L375 476 C375 488 369 494 357 494 L262 494 L262 703 C262 714 256 720 244 720 L153 720 C142 720 136 714 136 703 L136 494 L40 494 Z " />
<glyph glyph-name="daggerdbl" unicode="&#x2021;" horiz-adv-x="488" d="M40 178 C29 178 23 172 23 160 L23 69 C23 58 29 52 40 52 L179 52 L179 -167 C179 -178 185 -184 197 -184 L288 -184 C299 -184 305 -178 305 -167 L305 52 L448 52 C459 52 465 58 465 69 L465 160 C465 172 459 178 448 178 L305 178 L305 357 L448 357 C459 357 465 363 465 374 L465 466 C465 477 459 483 448 483 L305 483 L305 703 C305 714 299 720 288 720 L197 720 C185 720 179 714 179 703 L179 483 L40 483 C29 483 23 477 23 466 L23 374 C23 363 29 357 40 357 L179 357 L179 178 L40 178 Z " />
<glyph glyph-name="bullet" unicode="&#x2022;" horiz-adv-x="262" d="M23 280 C23 221 71 174 132 174 C195 174 239 220 239 280 C239 340 195 386 132 386 C71 386 23 339 23 280 L23 280 Z " />
<glyph glyph-name="ellipsis" unicode="&#x2026;" horiz-adv-x="881" d="M24 73 C24 26 60 -10 107 -10 C155 -10 193 26 193 73 C193 121 155 159 107 159 C60 159 24 121 24 73 L24 73 Z M354 73 C354 26 390 -10 437 -10 C484 -10 522 26 522 73 C522 121 484 159 437 159 C390 159 354 121 354 73 L354 73 Z M688 73 C688 26 724 -10 771 -10 C819 -10 857 26 857 73 C857 121 819 159 771 159 C724 159 688 121 688 73 L688 73 Z " />
<glyph glyph-name="perthousand" unicode="&#x2030;" horiz-adv-x="1123" d="M24 553 C24 468 96 397 181 397 C266 397 337 468 337 553 C337 638 266 710 181 710 C96 710 24 638 24 553 L24 553 Z M123 553 C123 586 147 611 180 611 C213 611 238 586 238 553 C238 520 213 497 180 497 C147 497 123 520 123 553 L123 553 Z M434 147 C434 62 506 -10 591 -10 C676 -10 748 62 748 147 C748 233 676 305 591 305 C506 305 434 233 434 147 L434 147 Z M534 147 C534 180 558 205 590 205 C623 205 649 180 649 147 C649 114 623 90 590 90 C558 90 534 114 534 147 L534 147 Z M784 147 C784 62 856 -10 941 -10 C1027 -10 1099 62 1099 147 C1099 233 1027 305 941 305 C856 305 784 233 784 147 L784 147 Z M884 147 C884 180 908 205 941 205 C973 205 999 180 999 147 C999 114 973 90 941 90 C908 90 884 114 884 147 L884 147 Z M143 17 C136 6 143 0 155 0 L237 0 C249 0 253 6 260 17 L644 683 C651 694 644 700 632 700 L550 700 C539 700 535 694 528 683 L143 17 L143 17 Z " />
<glyph glyph-name="guilsinglleft" unicode="&#x2039;" horiz-adv-x="333" d="M294 436 C299 445 291 453 278 453 L184 453 C172 453 163 447 156 436 L27 239 C24 235 23 230 24 225 L27 218 L157 21 C162 10 171 4 184 4 L278 4 C293 4 300 12 295 21 L160 229 L294 436 Z " />
<glyph glyph-name="guilsinglright" unicode="&#x203a;" horiz-adv-x="333" d="M38 21 C33 12 41 4 54 4 L148 4 C160 4 169 10 176 21 L306 218 L309 225 C310 229 309 234 306 239 L176 436 C169 447 160 453 148 453 L55 453 C40 453 33 445 38 436 L173 229 L38 21 L38 21 Z " />
<glyph glyph-name="fraction" unicode="&#x2044;" horiz-adv-x="566" d="M32 17 C25 6 32 0 44 0 L126 0 C138 0 142 6 149 17 L533 683 C540 694 533 700 521 700 L439 700 C428 700 424 694 417 683 L32 17 L32 17 Z " />
<glyph glyph-name="franc" unicode="&#x20a3;" horiz-adv-x="545" d="M335 94 C346 94 352 100 352 112 L352 154 C352 165 346 171 335 171 L216 171 L216 259 L475 259 C486 259 492 265 492 277 L492 383 C492 395 486 401 475 401 L216 401 L216 554 L517 554 C528 554 534 560 534 572 L534 683 C534 694 528 700 517 700 L88 700 C75 700 67 691 67 679 L67 171 L22 171 C11 171 5 165 5 154 L5 112 C5 100 11 94 22 94 L67 94 L67 17 C67 6 73 0 84 0 L198 0 C210 0 216 6 216 17 L216 94 L335 94 Z " />
<glyph glyph-name="lira" unicode="&#x20a4;" horiz-adv-x="547" d="M25 359 C14 355 11 348 15 338 L32 294 C35 286 40 282 46 282 C48 282 51 282 53 283 L102 301 L102 19 C102 7 105 0 120 0 L125 0 C328 0 515 134 539 350 C540 362 534 368 521 368 L440 368 C430 368 424 362 422 350 C414 245 334 151 218 132 L218 342 L368 395 C379 399 383 406 378 417 L363 462 C361 470 356 474 349 474 C348 474 345 474 343 473 L218 428 L218 475 L368 527 C379 531 383 539 378 550 L363 594 C361 602 356 606 349 606 C348 606 345 606 343 605 L218 560 L218 683 C218 694 212 700 201 700 L120 700 C108 700 102 694 102 683 L102 518 L25 491 C14 487 11 480 15 470 L31 425 C34 417 38 412 44 412 C46 412 49 413 52 414 L102 432 L102 386 L25 359 L25 359 Z " />
<glyph glyph-name="Euro" unicode="&#x20ac;" horiz-adv-x="538" d="M483 129 C479 136 475 140 469 140 C466 140 462 138 457 135 C430 120 397 108 360 108 C265 108 216 166 197 249 L446 249 C455 249 460 254 460 265 L460 311 C460 322 455 327 446 327 L185 327 C183 344 183 361 185 378 L446 378 C455 378 460 383 460 394 L460 440 C460 451 455 456 446 456 L198 456 C221 537 272 592 360 592 C396 592 434 578 461 563 C465 560 469 559 472 559 C478 559 482 564 487 571 L523 645 C528 654 524 662 513 669 C473 692 416 710 360 710 C202 710 108 611 76 456 L12 456 C2 456 -3 451 -3 440 L-3 394 C-3 383 2 378 12 378 L66 378 L66 327 L12 327 C2 327 -3 322 -3 311 L-3 265 C-3 254 2 249 12 249 L74 249 C101 97 196 -10 360 -10 C416 -10 468 6 508 29 C522 36 526 45 520 56 L483 129 L483 129 Z " />
<glyph glyph-name="uni2113" unicode="&#x2113;" horiz-adv-x="396" d="M27 215 C33 208 39 205 45 205 C50 205 54 207 58 211 L95 247 L95 155 C95 60 152 -13 249 -13 C296 -13 345 11 377 42 C384 49 386 58 382 68 L367 122 C365 127 362 129 358 129 C355 129 351 128 347 124 C328 105 304 85 273 85 C222 85 212 129 212 183 L212 336 C292 421 368 501 371 606 C374 685 314 734 239 734 C154 734 95 661 95 551 L95 359 L13 276 C3 265 1 254 8 243 L27 215 L27 215 Z M288 594 C285 545 251 498 212 458 L212 534 C212 583 211 637 254 637 C279 637 289 618 288 594 L288 594 Z " />
<glyph glyph-name="trademark" unicode="&#x2122;" horiz-adv-x="866" d="M219 285 C222 285 230 285 230 296 L230 610 L343 610 C350 610 354 614 354 621 L354 689 C354 696 350 700 343 700 L30 700 C23 700 19 696 19 689 L19 621 C19 614 23 610 30 610 L139 610 L139 296 C139 285 148 285 151 285 L219 285 L219 285 Z M620 337 C625 337 629 340 631 347 L708 504 L708 296 C708 289 712 285 719 285 L788 285 C796 285 800 289 800 296 L800 689 C800 694 796 700 788 700 L719 700 C713 700 708 696 705 689 L596 454 L486 689 C483 696 479 700 472 700 L403 700 C396 700 392 696 392 689 L392 296 C392 289 396 285 403 285 L471 285 C478 285 482 289 482 296 L482 504 L560 347 C562 340 566 337 572 337 L620 337 L620 337 Z " />
<glyph glyph-name="Omega" unicode="&#x2126;" horiz-adv-x="762" d="M297 90 C197 159 145 238 145 362 C145 502 242 613 381 613 C521 613 616 501 616 359 C616 237 560 161 463 90 L463 1 L703 1 C714 1 719 6 719 16 L719 99 C719 111 714 117 703 117 L596 117 C687 181 732 282 732 382 C732 553 601 730 381 730 C163 730 29 552 29 382 C29 273 76 177 163 117 L58 117 C47 117 42 113 42 104 L42 16 C42 6 47 1 58 1 L297 1 L297 90 Z " />
<glyph glyph-name="estimated" unicode="&#x212e;" horiz-adv-x="557" d="M513 235 C528 235 532 250 532 254 C540 400 438 547 278 547 C125 547 24 420 24 276 C24 136 138 6 278 6 C371 6 446 51 489 116 C496 127 494 135 483 140 L439 161 C436 163 433 164 430 164 C424 164 418 161 412 154 C381 117 337 90 278 90 C238 90 193 112 169 143 L169 235 L513 235 Z M169 418 C196 446 237 463 278 463 C319 463 360 447 385 418 L385 318 L169 318 L169 418 Z " />
<glyph glyph-name="partialdiff" unicode="&#x2202;" horiz-adv-x="545" d="M334 710 C279 710 224 694 187 675 C176 670 173 662 177 653 L208 580 C211 574 216 571 221 571 C225 571 228 572 232 574 C255 585 283 595 310 595 C399 595 420 521 402 426 C377 455 326 481 283 485 C278 485 272 486 267 486 C127 486 37 346 34 191 C29 69 110 -10 213 -10 C374 -7 445 137 482 286 C535 498 540 710 334 710 L334 710 Z M224 111 C173 111 149 154 152 210 C155 288 198 365 274 365 C279 365 284 365 289 364 C328 359 359 334 370 298 C351 210 306 111 224 111 L224 111 Z " />
<glyph glyph-name="Delta" unicode="&#x2206;" horiz-adv-x="617" d="M308 620 L311 620 L458 125 L162 125 L308 620 Z M9 17 C9 6 15 0 26 0 L591 0 C602 0 608 6 608 17 L608 39 L411 731 C406 744 398 750 386 750 L233 750 C222 750 213 744 208 731 L9 39 L9 17 L9 17 Z " />
<glyph glyph-name="product" unicode="&#x220f;" horiz-adv-x="651" d="M83 700 C72 700 66 694 66 683 L66 -111 C66 -122 72 -128 83 -128 L175 -128 C186 -128 192 -122 192 -111 L192 574 L459 574 L459 -111 C459 -122 465 -128 477 -128 L568 -128 C579 -128 585 -122 585 -111 L585 683 C585 694 579 700 568 700 L83 700 L83 700 Z " />
<glyph glyph-name="summation" unicode="&#x2211;" horiz-adv-x="659" d="M39 -211 C39 -214 41 -230 58 -230 L601 -230 C612 -230 619 -221 619 -212 L619 -118 C619 -109 612 -101 601 -101 L252 -101 L529 216 C545 235 534 248 530 253 L252 571 L601 571 C613 571 619 577 619 589 L619 682 C619 691 612 700 601 700 L58 700 C50 700 39 694 39 681 L39 636 C39 621 40 613 51 602 L372 235 L51 -132 C40 -143 39 -163 39 -166 L39 -211 L39 -211 Z " />
<glyph glyph-name="minus" unicode="&#x2212;" horiz-adv-x="539" d="M72 346 C61 346 55 340 55 329 L55 217 C55 206 61 200 72 200 L467 200 C478 200 484 206 484 217 L484 329 C484 340 478 346 467 346 L72 346 L72 346 Z " />
<glyph glyph-name="uni2215" unicode="&#x2215;" horiz-adv-x="566" d="M32 17 C25 6 32 0 44 0 L126 0 C138 0 142 6 149 17 L533 683 C540 694 533 700 521 700 L439 700 C428 700 424 694 417 683 L32 17 L32 17 Z " />
<glyph glyph-name="uni2219" unicode="&#x2219;" horiz-adv-x="203" d="M24 358 C24 315 57 282 100 282 C144 282 179 315 179 358 C179 402 144 437 100 437 C57 437 24 402 24 358 L24 358 Z " />
<glyph glyph-name="radical" unicode="&#x221a;" horiz-adv-x="530" d="M338 -12 C349 -12 353 -5 356 6 L510 709 C513 722 509 728 496 728 L400 728 C391 728 384 722 381 709 L269 201 L186 438 C183 446 178 450 172 450 C169 450 165 449 162 447 L15 363 C6 357 4 349 9 338 L49 258 C53 251 58 248 62 248 C65 248 69 249 72 252 L107 272 L200 5 C205 -6 211 -12 220 -12 L338 -12 L338 -12 Z " />
<glyph glyph-name="infinity" unicode="&#x221e;" horiz-adv-x="736" d="M596 292 C596 248 570 214 522 214 C485 214 444 241 432 292 C445 333 475 368 522 368 C570 368 596 332 596 292 L596 292 Z M303 293 C294 250 259 214 214 214 C167 214 140 248 140 291 C140 330 163 368 215 368 C254 368 292 338 303 293 L303 293 Z M364 385 C337 437 284 483 204 483 C104 483 24 406 24 292 C24 174 104 99 206 99 C275 99 329 140 372 199 C403 139 462 99 534 99 C633 99 712 177 712 293 C712 408 629 483 531 483 C446 483 396 427 364 385 L364 385 Z " />
<glyph glyph-name="integral" unicode="&#x222b;" horiz-adv-x="332" d="M67 -76 C67 -119 52 -140 22 -140 C10 -140 -4 -137 -21 -130 C-24 -129 -27 -128 -30 -128 C-36 -128 -41 -132 -44 -140 L-57 -175 C-61 -184 -58 -192 -47 -197 C-8 -219 29 -230 62 -230 C139 -230 192 -172 192 -71 L192 596 C192 638 207 660 237 660 C249 660 263 656 280 650 C283 648 286 648 289 648 C295 648 300 651 303 659 L316 694 C320 704 317 712 306 717 C267 739 231 750 198 750 C121 750 67 691 67 590 L67 -76 L67 -76 Z " />
<glyph glyph-name="approxequal" unicode="&#x2248;" horiz-adv-x="552" d="M101 186 C121 217 142 234 181 234 C248 234 307 169 379 169 C450 169 490 232 527 277 C533 286 532 294 523 300 L473 337 C469 340 465 342 462 342 C457 342 453 339 449 334 C432 313 416 285 384 285 C322 285 246 347 182 352 C177 353 173 353 169 353 C103 353 55 298 23 244 C17 235 18 227 27 220 L77 182 C81 179 85 177 88 177 C93 177 97 180 101 186 L101 186 Z M101 397 C121 428 142 445 181 445 C248 445 307 380 379 380 C450 380 490 443 527 488 C533 497 532 505 523 511 L473 548 C469 551 465 553 462 553 C457 553 453 550 449 545 C432 524 416 496 384 496 C322 496 246 558 182 563 C177 564 173 564 169 564 C103 564 55 509 23 455 C17 446 18 438 27 431 L77 393 C81 390 85 388 88 388 C93 388 97 391 101 397 L101 397 Z " />
<glyph glyph-name="notequal" unicode="&#x2260;" horiz-adv-x="535" d="M482 142 C493 142 499 148 499 159 L499 240 C499 252 493 258 482 258 L311 258 L350 346 L482 346 C493 346 499 352 499 363 L499 445 C499 456 493 462 482 462 L403 462 L447 560 C452 571 448 577 435 577 L343 577 C333 577 325 571 320 560 L276 462 L53 462 C42 462 36 457 36 446 L36 363 C36 352 42 346 53 346 L224 346 L184 258 L53 258 C42 258 36 253 36 242 L36 159 C36 148 42 142 53 142 L132 142 L88 44 C83 33 87 27 100 27 L192 27 C203 27 208 33 215 44 L259 142 L482 142 Z " />
<glyph glyph-name="lessequal" unicode="&#x2264;" horiz-adv-x="436" d="M53 116 C42 116 36 110 36 99 L36 17 C36 6 42 0 53 0 L377 0 C388 0 394 6 394 17 L394 100 C394 111 388 116 377 116 L53 116 L53 116 Z M377 505 C389 512 394 515 394 526 L394 622 C394 631 391 637 384 637 C382 637 380 636 377 635 L52 500 C41 495 36 492 36 480 L36 371 C36 358 41 355 52 350 L377 214 C379 213 382 212 384 212 C390 212 394 218 394 227 L394 323 C394 334 388 341 377 344 L160 425 L377 505 L377 505 Z " />
<glyph glyph-name="greaterequal" unicode="&#x2265;" horiz-adv-x="436" d="M59 116 C48 116 42 111 42 100 L42 17 C42 6 48 0 59 0 L383 0 C394 0 400 6 400 17 L400 99 C400 110 394 116 383 116 L59 116 L59 116 Z M59 344 C48 341 42 334 42 323 L42 227 C42 218 46 212 52 212 C54 212 57 213 59 214 L385 350 C396 355 400 358 400 371 L400 480 C400 492 395 495 384 500 L59 635 C56 636 54 637 52 637 C45 637 42 631 42 622 L42 526 C42 515 47 512 59 505 L276 425 L59 344 Z " />
<glyph glyph-name="lozenge" unicode="&#x25ca;" horiz-adv-x="515" d="M256 570 L259 570 L358 350 L259 130 L256 130 L157 350 L256 570 Z M161 17 C166 6 170 0 182 0 L332 0 C344 0 348 6 353 17 L488 328 C493 343 493 357 488 371 L353 683 C348 694 344 700 332 700 L182 700 C170 700 166 694 161 683 L28 371 C20 354 20 346 27 329 L161 17 L161 17 Z " />
</font>
</svg>
