<?xml version="1.0" encoding="UTF-8"?>
<svg xmlns="http://www.w3.org/2000/svg" xmlns:xlink="http://www.w3.org/1999/xlink" version="1.2" >
<font id="Crossten ExtraLight">
<font-face  font-family="Crossten" units-per-em="1000" ascent="750" descent="-250" font-style="normal" font-weight="100" font-stretch="normal" cap-height="700" x-height="500" underline-position="-75" underline-thickness="50" />
<missing-glyph  horiz-adv-x="345" d="" />
<glyph glyph-name="NULL" d="" />
<glyph glyph-name="&amp;#x0;" horiz-adv-x="345" d="" />
<glyph glyph-name="&amp;#xd;" unicode="&#xd;" horiz-adv-x="345" d="" />
<glyph glyph-name="space" unicode="&#x20;" horiz-adv-x="255" d="" />
<glyph glyph-name="exclam" unicode="&#x21;" horiz-adv-x="258" d="M140 152 C147 152 150 155 150 162 L152 690 C152 697 148 700 141 700 L117 700 C110 700 106 697 106 690 L108 162 C108 155 111 152 118 152 L140 152 L140 152 Z M93 26 C93 5 108 -10 129 -10 C149 -10 165 5 165 26 C165 46 149 62 129 62 C108 62 93 46 93 26 L93 26 Z " />
<glyph glyph-name="quotedbl" unicode="&#x22;" horiz-adv-x="356" d="M123 491 C130 491 133 495 133 502 L135 686 C135 693 131 696 124 696 L103 696 C96 696 93 693 93 686 L94 502 C94 495 98 491 105 491 L123 491 L123 491 Z M252 491 C259 491 262 495 262 502 L263 686 C263 693 260 696 253 696 L232 696 C225 696 222 693 222 686 L223 502 C223 495 226 491 233 491 L252 491 L252 491 Z " />
<glyph glyph-name="numbersign" unicode="&#x23;" horiz-adv-x="609" d="M140 0 C148 0 153 4 154 11 L185 227 L382 227 L352 11 C351 4 354 0 362 0 L381 0 C389 0 391 4 392 11 L422 227 L532 227 C539 227 544 230 544 239 L544 256 C544 264 539 267 532 267 L428 267 L449 431 L559 431 C566 431 571 434 571 442 L571 459 C571 468 566 471 559 471 L455 471 L488 684 C489 691 486 695 478 695 L460 695 C453 695 449 691 448 684 L416 471 L218 471 L247 684 C248 691 245 695 237 695 L220 695 C212 695 209 689 208 684 L178 471 L76 471 C69 471 65 467 65 460 L65 442 C65 435 69 431 76 431 L172 431 L149 267 L49 267 C42 267 38 263 38 256 L38 239 C38 231 42 227 49 227 L143 227 L113 11 C112 4 115 0 123 0 L140 0 L140 0 Z M387 267 L189 267 L213 431 L411 431 L387 267 Z " />
<glyph glyph-name="dollar" unicode="&#x24;" horiz-adv-x="550" d="M111 538 C111 615 188 666 279 666 C339 666 396 647 440 616 C443 614 445 614 447 614 C450 614 453 615 455 618 L468 638 C471 645 470 650 465 653 C416 682 372 701 301 709 L301 808 C301 815 298 818 291 818 L272 818 C265 818 262 815 262 808 L262 709 C154 701 65 636 65 538 C65 299 452 387 452 179 C452 95 389 35 274 35 C206 35 135 64 79 109 C77 111 74 112 72 112 C69 112 67 111 64 108 L50 87 C46 82 47 77 52 74 C109 27 190 -7 262 -10 L262 -108 C262 -115 265 -118 272 -118 L291 -118 C298 -118 301 -115 301 -108 L301 -8 C425 0 498 79 498 180 C498 427 111 337 111 538 L111 538 Z " />
<glyph glyph-name="percent" unicode="&#x25;" horiz-adv-x="1060" d="M603 197 C603 81 694 -10 810 -10 C925 -10 1018 81 1018 197 C1018 312 925 405 810 405 C694 405 603 312 603 197 L603 197 Z M644 196 C644 289 718 364 809 364 C902 364 977 289 977 196 C977 105 902 31 809 31 C718 31 644 105 644 196 L644 196 Z M316 9 C312 3 315 0 324 0 L344 0 C349 0 354 3 357 9 L747 691 C750 697 747 700 739 700 L719 700 C714 700 710 697 705 691 L316 9 L316 9 Z M42 505 C42 389 133 298 249 298 C364 298 457 389 457 505 C457 620 364 713 249 713 C133 713 42 620 42 505 L42 505 Z M83 504 C83 597 157 672 248 672 C341 672 416 597 416 504 C416 413 341 339 248 339 C157 339 83 413 83 504 L83 504 Z " />
<glyph glyph-name="ampersand" unicode="&#x26;" horiz-adv-x="706" d="M292 412 C240 469 214 518 215 559 C215 622 264 667 328 667 C375 667 405 649 436 617 C438 615 441 613 443 613 C445 613 447 614 449 615 L469 631 C474 634 475 639 470 644 C430 688 382 710 326 710 C244 710 174 649 171 565 C170 509 196 455 252 392 C140 325 56 281 56 162 C56 65 135 -10 234 -10 C348 -10 427 51 501 115 L621 -19 C624 -22 627 -24 630 -24 C633 -24 636 -22 639 -20 L654 -6 C659 -1 659 5 653 11 L533 144 L636 242 C641 247 643 253 636 260 L623 274 C620 277 618 278 615 278 C612 278 608 276 605 272 L589 257 C578 248 566 237 554 225 L503 177 L292 412 L292 412 Z M236 34 C164 34 101 88 101 163 C101 270 173 297 281 360 L471 148 C410 92 332 34 236 34 L236 34 Z " />
<glyph glyph-name="quotesingle" unicode="&#x27;" horiz-adv-x="228" d="M121 491 C130 491 133 498 133 506 L135 681 C135 691 131 696 123 696 L105 696 C94 696 93 689 93 681 L94 506 C94 498 95 491 106 491 L121 491 L121 491 Z " />
<glyph glyph-name="parenleft" unicode="&#x28;" horiz-adv-x="342" d="M270 776 C-24 480 -26 162 265 -132 C268 -135 271 -137 274 -137 C277 -137 279 -136 281 -134 L295 -124 C301 -119 301 -114 296 -109 C17 171 16 464 300 753 C304 757 304 761 299 766 L284 777 C281 779 279 780 276 780 C274 780 272 779 270 776 L270 776 Z " />
<glyph glyph-name="parenright" unicode="&#x29;" horiz-adv-x="342" d="M72 776 C70 779 68 780 66 780 C63 780 61 779 58 777 L44 766 C39 761 38 757 42 753 C326 464 325 171 46 -109 C41 -114 41 -119 47 -124 L61 -134 C63 -136 66 -138 68 -138 C71 -138 74 -136 77 -132 C368 162 366 480 72 776 L72 776 Z " />
<glyph glyph-name="asterisk" unicode="&#x2a;" horiz-adv-x="388" d="M90 426 C84 419 84 413 90 409 L102 399 C105 397 107 396 109 396 C113 396 117 399 120 404 L194 504 L267 402 C270 399 273 394 278 394 C279 394 282 395 284 397 L297 406 C304 410 302 416 297 423 L216 535 L338 565 C347 567 351 572 349 580 L345 594 C343 600 340 603 336 603 C334 603 332 602 329 601 L213 573 L214 685 C214 693 214 698 203 698 L186 698 C175 698 175 694 175 685 L176 573 L59 602 C56 603 54 603 52 603 C47 603 44 601 43 596 L39 580 C36 569 40 568 49 565 L173 536 L90 426 Z " />
<glyph glyph-name="plus" unicode="&#x2b;" horiz-adv-x="557" d="M500 274 C506 274 509 277 509 284 L509 306 C509 313 506 316 500 316 L300 316 L300 515 C300 521 297 524 290 524 L268 524 C261 524 258 521 258 515 L258 316 L57 316 C51 316 48 313 48 306 L48 284 C48 277 51 274 57 274 L258 274 L258 73 C258 67 261 64 268 64 L290 64 C297 64 300 67 300 73 L300 274 L500 274 Z " />
<glyph glyph-name="comma" unicode="&#x2c;" horiz-adv-x="171" d="M41 -185 C40 -192 45 -195 50 -195 L69 -195 C77 -195 81 -192 82 -186 L123 44 C124 51 121 55 114 55 L91 55 C84 55 80 51 79 43 L41 -185 L41 -185 Z " />
<glyph glyph-name="hyphen" unicode="&#x2d;" horiz-adv-x="475" d="M94 314 C88 314 85 311 85 304 L85 280 C85 273 88 270 94 270 L381 270 C387 270 390 273 390 280 L390 304 C390 311 387 314 381 314 L94 314 L94 314 Z " />
<glyph glyph-name="period" unicode="&#x2e;" horiz-adv-x="156" d="M42 26 C42 5 58 -10 78 -10 C98 -10 114 5 114 26 C114 46 98 62 78 62 C58 62 42 46 42 26 L42 26 Z " />
<glyph glyph-name="slash" unicode="&#x2f;" horiz-adv-x="529" d="M49 9 C46 3 48 0 57 0 L77 0 C82 0 86 3 91 9 L480 691 C483 697 480 700 472 700 L452 700 C447 700 443 697 438 691 L49 9 L49 9 Z " />
<glyph glyph-name="zero" unicode="0" horiz-adv-x="565" d="M48 348 C48 183 103 -10 282 -10 C458 -10 517 183 517 348 C517 512 458 710 282 710 C103 710 48 512 48 348 L48 348 Z M94 348 C94 492 136 665 282 665 C428 665 471 493 471 348 C471 204 428 35 282 35 C136 35 94 204 94 348 L94 348 Z " />
<glyph glyph-name="one" unicode="1" horiz-adv-x="284" d="M15 660 C10 659 8 655 9 649 L13 622 C14 618 16 616 19 616 C20 616 21 616 22 617 L130 653 L130 10 C130 3 134 0 141 0 L166 0 C173 0 176 3 176 10 L176 690 C176 697 173 700 166 700 L150 700 L15 660 L15 660 Z " />
<glyph glyph-name="two" unicode="2" horiz-adv-x="501" d="M64 610 C67 606 71 603 75 603 C77 603 79 604 82 606 C135 646 182 665 238 665 C337 665 384 590 384 515 C384 403 276 309 42 37 C37 30 37 28 37 21 L37 10 C37 3 40 0 47 0 L443 0 C450 0 453 3 453 10 L453 36 C453 43 450 46 443 46 L106 46 C340 312 430 397 430 518 C430 621 363 710 240 710 C173 710 114 687 57 644 C50 639 49 633 53 627 L64 610 L64 610 Z " />
<glyph glyph-name="three" unicode="3" horiz-adv-x="476" d="M203 342 C307 342 392 285 392 190 C392 95 322 35 215 35 C159 35 104 56 60 95 C57 97 54 98 52 98 C48 98 45 96 42 92 L30 73 C27 66 28 61 35 56 C94 12 150 -10 218 -10 C342 -10 438 66 438 188 C438 289 363 344 286 365 C355 384 415 454 415 530 C415 631 337 710 229 710 C163 710 102 688 46 644 C40 639 39 633 42 627 L54 609 C57 605 59 601 64 601 C66 601 69 602 72 605 C116 644 171 665 227 665 C307 665 370 610 370 528 C370 451 299 384 203 384 C196 384 193 381 193 375 L193 351 C193 345 196 342 203 342 L203 342 Z " />
<glyph glyph-name="four" unicode="4" horiz-adv-x="492" d="M324 10 C324 3 327 0 334 0 L358 0 C365 0 368 3 368 10 L368 151 L457 151 C464 151 467 154 467 161 L467 184 C467 191 464 194 457 194 L368 194 L368 377 C368 384 365 387 358 387 L335 387 C328 387 325 384 325 377 L325 195 L73 195 L305 690 C307 697 305 700 298 700 L272 700 C265 700 261 695 258 690 L23 189 L23 161 C23 154 27 151 34 151 L324 151 L324 10 Z " />
<glyph glyph-name="five" unicode="5" horiz-adv-x="518" d="M100 346 C147 373 208 391 259 391 C374 391 425 318 425 219 C425 121 363 35 246 35 C194 35 128 50 77 93 C74 95 71 97 68 97 C65 97 63 95 60 91 L48 72 C45 65 46 60 53 55 C113 10 184 -10 247 -10 C386 -10 471 93 471 220 C471 345 401 435 269 435 C218 435 159 418 122 397 L122 657 L424 657 C431 657 434 660 434 667 L434 690 C434 697 431 700 424 700 L87 700 C80 700 77 697 77 690 L77 360 L100 346 L100 346 Z " />
<glyph glyph-name="six" unicode="6" horiz-adv-x="552" d="M105 368 C116 534 161 666 300 666 C347 666 401 649 449 609 C452 607 454 606 457 606 C460 606 463 608 466 613 L478 631 C481 638 483 640 474 648 C414 693 353 710 298 710 C155 710 60 591 60 329 L60 294 C60 105 154 -10 282 -10 C410 -10 496 99 496 227 C496 359 419 445 296 445 C221 445 156 415 105 368 L105 368 Z M105 314 C161 377 228 403 289 403 C390 403 451 330 451 226 C451 122 384 33 282 33 C181 33 105 134 105 275 L105 314 Z " />
<glyph glyph-name="seven" unicode="7" horiz-adv-x="489" d="M451 690 C451 697 448 700 441 700 L54 700 C47 700 43 697 43 690 L43 665 C43 658 47 655 54 655 L401 655 L102 12 C99 4 101 0 110 0 L134 0 C142 0 148 4 151 12 L451 658 L451 690 Z " />
<glyph glyph-name="eight" unicode="8" horiz-adv-x="525" d="M62 530 C62 454 114 396 177 372 C88 341 38 276 38 188 C38 72 130 -10 261 -10 C392 -10 487 72 487 188 C487 276 434 341 345 372 C408 396 463 454 463 530 C463 631 376 710 261 710 C145 710 62 631 62 530 L62 530 Z M105 527 C105 605 166 668 261 668 C356 668 420 605 420 527 C420 442 338 390 261 390 C184 390 105 442 105 527 L105 527 Z M82 190 C82 283 158 348 261 348 C364 348 443 283 443 190 C443 97 366 33 261 33 C156 33 82 97 82 190 L82 190 Z " />
<glyph glyph-name="nine" unicode="9" horiz-adv-x="552" d="M78 52 C138 7 199 -10 254 -10 C397 -10 492 109 492 371 L492 407 C492 595 397 710 270 710 C142 710 56 602 56 474 C56 343 130 254 253 254 C333 254 396 285 447 332 C436 166 390 34 253 34 C206 34 151 51 104 91 C101 93 99 94 96 94 C92 94 89 92 86 87 L74 69 C71 62 70 59 78 52 L78 52 Z M447 380 C389 327 340 297 259 297 C154 297 101 370 101 474 C101 578 168 667 270 667 C374 667 447 565 447 424 L447 380 Z " />
<glyph glyph-name="colon" unicode="&#x3a;" horiz-adv-x="156" d="M42 26 C42 5 58 -10 78 -10 C99 -10 114 5 114 26 C114 46 99 62 78 62 C58 62 42 46 42 26 L42 26 Z M42 474 C42 453 58 438 78 438 C98 438 114 453 114 474 C114 494 98 510 78 510 C58 510 42 494 42 474 L42 474 Z " />
<glyph glyph-name="semicolon" unicode="&#x3b;" horiz-adv-x="179" d="M34 -185 C33 -192 38 -195 43 -195 L62 -195 C70 -195 74 -192 75 -186 L116 44 C117 51 114 55 107 55 L85 55 C77 55 73 51 72 43 L34 -185 L34 -185 Z M64 474 C64 453 80 438 100 438 C121 438 137 453 137 474 C137 494 121 510 100 510 C80 510 64 494 64 474 L64 474 Z " />
<glyph glyph-name="less" unicode="&#x3c;" horiz-adv-x="520" d="M462 470 C468 472 471 476 471 481 L471 503 C471 509 469 512 466 512 C465 512 464 512 462 511 L39 323 C33 321 30 317 30 311 L30 281 C30 275 33 271 39 269 L463 78 C464 78 465 77 466 77 C469 77 471 80 471 86 L471 108 C471 115 469 116 462 119 L77 296 L462 470 Z " />
<glyph glyph-name="equal" unicode="&#x3d;" horiz-adv-x="668" d="M112 419 C106 419 103 416 103 409 L103 388 C103 381 106 378 112 378 L556 378 C562 378 565 381 565 388 L565 409 C565 416 562 419 556 419 L112 419 L112 419 Z M112 214 C106 214 103 211 103 204 L103 184 C103 177 106 173 112 173 L556 173 C562 173 565 177 565 184 L565 204 C565 211 562 214 556 214 L112 214 L112 214 Z " />
<glyph glyph-name="greater" unicode="&#x3e;" horiz-adv-x="520" d="M58 119 C51 116 49 115 49 108 L49 86 C49 80 51 77 54 77 C55 77 56 78 57 78 L481 269 C487 272 490 276 490 281 L490 311 C490 316 487 320 481 323 L58 511 C56 512 55 512 54 512 C51 512 49 509 49 503 L49 481 C49 476 52 472 58 470 L443 296 L58 119 L58 119 Z " />
<glyph glyph-name="question" unicode="&#x3f;" horiz-adv-x="435" d="M54 614 C56 610 59 607 63 607 C65 607 67 608 69 610 C112 643 162 665 209 665 C284 665 341 618 341 546 C341 411 168 400 168 216 L168 163 C168 156 171 152 178 152 L203 152 C210 152 213 156 213 163 L213 216 C213 379 387 392 387 550 C387 635 325 710 210 710 C143 710 86 681 45 650 C39 645 38 640 41 634 L54 614 L54 614 Z M153 26 C153 5 169 -10 189 -10 C210 -10 225 5 225 26 C225 46 210 62 189 62 C169 62 153 46 153 26 L153 26 Z " />
<glyph glyph-name="at" unicode="&#x40;" horiz-adv-x="1038" d="M344 250 C344 337 411 408 499 408 C587 408 655 337 655 250 C655 163 587 95 499 95 C412 95 344 163 344 250 L344 250 Z M662 137 C664 64 726 20 795 20 C886 20 990 95 990 279 C990 526 779 725 518 725 C257 725 47 514 47 253 C47 -8 240 -218 553 -218 L928 -218 C937 -218 941 -214 941 -207 L941 -192 C941 -185 937 -181 928 -181 L553 -181 C224 -181 84 56 84 253 C84 489 274 688 518 688 C760 688 953 502 953 278 C953 118 870 55 799 55 C746 55 700 90 700 145 L699 431 C699 438 696 442 689 442 L670 442 C663 442 660 438 660 431 L660 348 C607 443 516 447 493 447 C386 447 302 358 302 249 C302 142 386 54 494 54 C607 54 659 149 662 152 L662 137 L662 137 Z " />
<glyph glyph-name="A" unicode="A" horiz-adv-x="602" d="M63 0 C74 0 75 3 78 10 L146 203 L456 203 L524 13 C527 2 529 0 540 0 L566 0 C577 0 578 3 575 10 L332 690 C330 697 326 700 320 700 L283 700 C277 700 273 697 270 690 L28 10 C26 3 29 0 37 0 L63 0 L63 0 Z M161 248 L301 640 L442 248 L161 248 Z " />
<glyph glyph-name="B" unicode="B" horiz-adv-x="618" d="M348 0 C474 0 562 85 562 192 C562 287 498 356 411 374 C479 403 516 460 516 528 C516 627 439 700 315 700 L118 700 C111 700 108 697 108 690 L108 10 C108 3 111 0 118 0 L348 0 L348 0 Z M153 350 L330 350 C438 350 515 288 515 195 C515 115 449 43 342 43 L153 43 L153 350 Z M153 657 L310 657 C414 657 470 600 470 524 C470 449 409 393 329 393 L153 393 L153 657 Z " />
<glyph glyph-name="C" unicode="C" horiz-adv-x="672" d="M600 641 C604 649 601 652 594 656 C545 688 478 710 403 710 C200 710 47 551 47 348 C47 145 200 -10 403 -10 C474 -10 539 9 596 44 C604 49 606 54 601 61 L589 81 C586 84 583 86 580 86 C577 86 574 84 571 82 C526 53 467 35 403 35 C225 35 93 170 93 348 C93 526 225 665 403 665 C467 665 518 650 570 619 C573 617 575 616 578 616 C582 616 585 619 588 622 L600 641 Z " />
<glyph glyph-name="D" unicode="D" horiz-adv-x="745" d="M346 0 C546 0 698 156 698 348 C698 544 546 700 346 700 L118 700 C111 700 108 697 108 690 L108 10 C108 3 111 0 118 0 L346 0 L346 0 Z M153 655 L344 655 C517 655 653 522 653 347 C653 184 517 45 344 45 L153 45 L153 655 Z " />
<glyph glyph-name="E" unicode="E" horiz-adv-x="580" d="M118 700 C111 700 108 697 108 690 L108 10 C108 3 111 0 118 0 L508 0 C515 0 518 3 518 10 L518 35 C518 42 515 45 508 45 L153 45 L153 328 L473 328 C480 328 483 331 483 338 L483 362 C483 369 480 372 473 372 L153 372 L153 655 L508 655 C515 655 518 658 518 665 L518 690 C518 697 515 700 508 700 L118 700 L118 700 Z " />
<glyph glyph-name="F" unicode="F" horiz-adv-x="571" d="M143 0 C150 0 153 3 153 10 L153 326 L499 326 C506 326 509 329 509 336 L509 360 C509 367 506 370 499 370 L153 370 L153 655 L547 655 C554 655 557 658 557 665 L557 690 C557 697 554 700 547 700 L118 700 C111 700 108 697 108 690 L108 10 C108 3 111 0 118 0 L143 0 Z " />
<glyph glyph-name="G" unicode="G" horiz-adv-x="715" d="M581 76 C529 47 478 35 403 35 C226 35 93 170 93 348 C93 526 224 665 403 665 C467 665 518 650 571 618 C575 616 578 615 580 615 C585 615 587 618 589 621 L600 639 C605 646 603 651 596 655 C545 687 480 710 404 710 C200 710 47 552 47 348 C47 145 200 -10 403 -10 C484 -10 544 3 614 41 C621 46 625 51 625 57 L625 330 C625 337 622 340 615 340 L392 340 C385 340 381 337 381 330 L381 309 C381 302 385 299 392 299 L581 299 L581 76 L581 76 Z " />
<glyph glyph-name="H" unicode="H" horiz-adv-x="728" d="M143 0 C150 0 153 3 153 10 L153 331 L574 331 L574 10 C574 3 578 0 585 0 L609 0 C616 0 620 3 620 10 L620 690 C620 697 616 700 609 700 L585 700 C578 700 574 697 574 690 L574 377 L153 377 L153 690 C153 697 150 700 143 700 L118 700 C111 700 108 697 108 690 L108 10 C108 3 111 0 118 0 L143 0 L143 0 Z " />
<glyph glyph-name="I" unicode="I" horiz-adv-x="261" d="M143 0 C150 0 153 3 153 10 L153 690 C153 697 150 700 143 700 L118 700 C111 700 108 697 108 690 L108 10 C108 3 111 0 118 0 L143 0 L143 0 Z " />
<glyph glyph-name="J" unicode="J" horiz-adv-x="495" d="M387 690 C387 697 384 700 377 700 L352 700 C345 700 342 697 342 690 L342 183 C342 90 285 35 197 35 C141 35 107 50 68 74 C65 76 62 77 60 77 C57 77 55 76 53 73 L39 51 C36 46 37 41 41 38 C84 9 140 -10 199 -10 C308 -10 387 62 387 181 L387 690 L387 690 Z " />
<glyph glyph-name="K" unicode="K" horiz-adv-x="642" d="M597 0 C606 0 607 5 603 10 L311 427 L573 690 C578 695 577 700 569 700 L535 700 C524 700 521 698 514 691 L153 331 L153 690 C153 697 150 700 143 700 L118 700 C111 700 108 697 108 690 L108 10 C108 3 111 0 118 0 L143 0 C150 0 153 3 153 10 L153 270 L279 394 L546 10 C553 3 555 0 566 0 L597 0 Z " />
<glyph glyph-name="L" unicode="L" horiz-adv-x="545" d="M488 0 C495 0 498 3 498 10 L498 34 C498 41 495 44 488 44 L153 44 L153 690 C153 697 150 700 143 700 L118 700 C111 700 108 697 108 690 L108 10 C108 3 111 0 118 0 L488 0 L488 0 Z " />
<glyph glyph-name="M" unicode="M" horiz-adv-x="868" d="M443 94 C448 94 452 96 454 101 L715 621 L715 10 C715 3 718 0 725 0 L750 0 C757 0 760 3 760 10 L760 690 C760 697 757 700 750 700 L712 700 C707 700 703 697 700 692 L434 159 L169 692 C166 697 162 700 157 700 L118 700 C111 700 108 697 108 690 L108 10 C108 3 111 0 118 0 L143 0 C150 0 153 3 153 10 L153 621 L414 101 C417 96 418 94 425 94 L443 94 L443 94 Z " />
<glyph glyph-name="N" unicode="N" horiz-adv-x="734" d="M616 0 C623 0 626 3 626 10 L626 690 C626 697 623 700 616 700 L591 700 C584 700 581 697 581 690 L581 83 L160 690 C156 697 150 700 143 700 L118 700 C111 700 108 697 108 690 L108 10 C108 3 111 0 118 0 L143 0 C150 0 153 3 153 10 L153 617 L574 10 C578 3 584 0 591 0 L616 0 Z " />
<glyph glyph-name="O" unicode="O" horiz-adv-x="807" d="M403 710 C200 710 47 551 47 348 C47 145 200 -10 403 -10 C607 -10 760 149 760 348 C760 551 607 710 403 710 L403 710 Z M403 35 C225 35 93 170 93 348 C93 526 225 665 403 665 C582 665 714 526 714 348 C714 170 578 35 403 35 L403 35 Z " />
<glyph glyph-name="P" unicode="P" horiz-adv-x="564" d="M143 0 C150 0 153 3 153 10 L153 251 L308 251 C440 251 535 351 535 479 C535 608 440 700 308 700 L118 700 C111 700 108 697 108 690 L108 10 C108 3 111 0 118 0 L143 0 L143 0 Z M153 657 L303 657 C410 657 489 588 489 479 C489 370 410 295 303 295 L153 295 L153 657 Z " />
<glyph glyph-name="Q" unicode="Q" horiz-adv-x="807" d="M640 -128 C642 -131 644 -132 646 -132 C648 -132 651 -131 654 -130 L676 -117 C680 -115 681 -111 679 -105 L594 44 C701 112 760 219 760 348 C760 551 607 710 403 710 C200 710 47 551 47 348 C47 145 200 -10 403 -10 C459 -10 506 0 554 23 L640 -128 L640 -128 Z M403 35 C225 35 93 170 93 348 C93 526 225 665 403 665 C582 665 714 526 714 348 C714 170 575 35 403 35 L403 35 Z " />
<glyph glyph-name="R" unicode="R" horiz-adv-x="602" d="M308 657 C425 657 497 571 497 479 C497 385 427 301 308 301 L153 301 L153 657 L308 657 L308 657 Z M354 263 C415 268 543 330 543 479 C543 608 444 700 313 700 L118 700 C111 700 108 697 108 690 L108 10 C108 3 111 0 118 0 L143 0 C150 0 153 3 153 10 L153 258 L303 258 L490 10 C497 2 501 0 509 0 L538 0 C548 0 550 4 543 12 L354 263 L354 263 Z " />
<glyph glyph-name="S" unicode="S" horiz-adv-x="550" d="M468 638 C471 645 470 650 465 653 C410 688 344 710 280 710 C168 710 65 644 65 538 C65 297 452 385 452 179 C452 95 389 35 274 35 C202 35 131 66 79 109 C77 111 74 112 72 112 C69 112 67 111 64 108 L50 87 C46 82 47 77 52 74 C109 26 190 -10 274 -10 C423 -10 498 81 498 180 C498 426 111 340 111 538 C111 618 190 665 279 665 C338 665 395 644 439 615 C441 613 444 613 446 613 C449 613 452 614 455 618 L468 638 L468 638 Z " />
<glyph glyph-name="T" unicode="T" horiz-adv-x="590" d="M307 0 C314 0 317 3 317 10 L317 655 L542 655 C549 655 553 658 553 665 L553 690 C553 697 549 700 542 700 L47 700 C40 700 37 697 37 690 L37 665 C37 658 40 655 47 655 L272 655 L272 10 C272 3 275 0 282 0 L307 0 L307 0 Z " />
<glyph glyph-name="U" unicode="U" horiz-adv-x="689" d="M105 700 C98 700 94 697 94 690 L94 261 C94 117 176 -10 344 -10 C510 -10 594 117 594 261 L594 690 C594 697 591 700 584 700 L559 700 C552 700 549 697 549 690 L549 265 C549 128 472 35 344 35 C216 35 140 128 140 265 L140 690 C140 697 137 700 130 700 L105 700 L105 700 Z " />
<glyph glyph-name="V" unicode="V" horiz-adv-x="592" d="M312 0 C321 0 327 5 330 15 L570 689 C573 694 571 700 562 700 L535 700 C528 700 523 696 521 689 L297 64 L73 689 C71 696 66 700 59 700 L32 700 C23 700 21 694 24 689 L264 15 C267 5 273 0 281 0 L312 0 L312 0 Z " />
<glyph glyph-name="W" unicode="W" horiz-adv-x="893" d="M671 0 C682 0 683 3 686 11 L865 689 C867 696 864 700 857 700 L829 700 C822 700 818 696 816 689 L652 69 L478 690 C476 697 471 700 464 700 L429 700 C422 700 418 697 416 690 L242 69 L78 689 C76 696 71 700 64 700 L37 700 C29 700 26 696 28 689 L208 11 C210 4 215 0 223 0 L259 0 C266 0 271 4 273 11 L447 632 L620 11 C622 4 627 0 636 0 L671 0 L671 0 Z " />
<glyph glyph-name="X" unicode="X" horiz-adv-x="594" d="M91 693 C88 698 84 700 77 700 L40 700 C33 700 32 694 35 690 L268 360 L20 10 C16 3 19 0 26 0 L62 0 C67 0 72 2 77 7 L297 320 L516 7 C520 2 525 0 530 0 L568 0 C575 0 577 5 573 10 L325 360 L558 690 C562 695 561 700 553 700 L517 700 C509 700 506 698 502 693 L297 400 L91 693 Z " />
<glyph glyph-name="Y" unicode="Y" horiz-adv-x="566" d="M87 693 C84 698 80 700 74 700 L43 700 C36 700 34 694 38 690 L261 345 L261 10 C261 3 264 0 271 0 L296 0 C303 0 306 3 306 10 L306 345 L529 690 C532 694 531 700 524 700 L493 700 C488 700 483 698 480 693 L284 388 L87 693 L87 693 Z " />
<glyph glyph-name="Z" unicode="Z" horiz-adv-x="621" d="M48 10 C48 3 52 0 59 0 L562 0 C569 0 573 3 573 10 L573 35 C573 42 569 45 562 45 L107 45 L555 653 C558 658 559 660 559 668 L559 690 C559 697 556 700 549 700 L70 700 C63 700 60 697 60 690 L60 665 C60 658 63 655 70 655 L500 655 L54 49 C50 44 48 37 48 30 L48 10 L48 10 Z " />
<glyph glyph-name="bracketleft" unicode="&#x5b;" horiz-adv-x="327" d="M253 -130 C259 -130 262 -127 262 -120 L262 -99 C262 -92 259 -89 253 -89 L144 -89 L144 709 L253 709 C259 709 262 712 262 719 L262 740 C262 747 259 750 253 750 L124 750 C111 750 103 741 103 729 L103 -109 C103 -122 112 -130 124 -130 L253 -130 L253 -130 Z " />
<glyph glyph-name="backslash" unicode="&#x5c;" horiz-adv-x="529" d="M91 691 C86 697 82 700 77 700 L57 700 C48 700 46 697 49 691 L438 9 C443 3 447 0 452 0 L472 0 C480 0 483 3 480 9 L91 691 L91 691 Z " />
<glyph glyph-name="bracketright" unicode="&#x5d;" horiz-adv-x="327" d="M203 -130 C215 -130 224 -122 224 -109 L224 729 C224 741 216 750 203 750 L74 750 C68 750 65 747 65 740 L65 719 C65 712 68 709 74 709 L182 709 L182 -89 L74 -89 C68 -89 65 -92 65 -99 L65 -120 C65 -127 68 -130 74 -130 L203 -130 L203 -130 Z " />
<glyph glyph-name="asciicircum" unicode="&#x5e;" horiz-adv-x="482" d="M391 311 C394 305 398 302 403 302 L424 302 C431 302 437 304 434 311 L267 691 C264 697 261 700 256 700 L227 700 C222 700 219 697 216 691 L48 311 C45 304 50 302 57 302 L79 302 C84 302 88 305 91 311 L241 650 L391 311 L391 311 Z " />
<glyph glyph-name="underscore" unicode="&#x5f;" horiz-adv-x="676" d="M94 -66 C88 -66 85 -69 85 -76 L85 -101 C85 -108 88 -111 94 -111 L582 -111 C588 -111 591 -108 591 -101 L591 -76 C591 -69 588 -66 582 -66 L94 -66 L94 -66 Z " />
<glyph glyph-name="grave" unicode="&#x60;" horiz-adv-x="210" d="M165 566 C171 569 172 574 169 581 L81 737 C79 742 75 745 71 745 C69 745 68 744 66 744 L46 737 C39 734 37 730 41 724 L134 565 C137 561 139 558 144 558 C145 558 147 559 150 560 L165 566 L165 566 Z " />
<glyph glyph-name="a" unicode="a" horiz-adv-x="651" d="M87 250 C87 370 176 466 295 466 C415 466 504 370 504 250 C504 131 415 34 295 34 C176 34 87 131 87 250 L87 250 Z M538 0 C545 0 548 3 548 10 L548 490 C548 497 545 500 538 500 L513 500 C506 500 503 497 503 490 L503 381 C460 456 390 510 290 510 C146 510 42 394 42 250 C42 106 146 -10 290 -10 C392 -10 466 52 503 118 L503 10 C503 3 506 0 513 0 L538 0 L538 0 Z " />
<glyph glyph-name="b" unicode="b" horiz-adv-x="651" d="M564 250 C564 131 475 34 356 34 C236 34 148 131 148 250 C148 370 236 466 356 466 C475 466 564 370 564 250 L564 250 Z M138 0 C145 0 148 3 148 10 L148 118 C182 49 261 -10 362 -10 C504 -10 609 106 609 250 C609 394 504 510 362 510 C262 510 189 457 148 381 L148 740 C148 747 145 750 138 750 L113 750 C106 750 103 747 103 740 L103 10 C103 3 106 0 113 0 L138 0 L138 0 Z " />
<glyph glyph-name="c" unicode="c" horiz-adv-x="500" d="M428 66 C426 69 423 71 420 71 C418 71 415 70 412 68 C380 48 342 34 295 34 C176 34 86 131 86 250 C86 370 176 466 295 466 C314 466 361 464 410 432 C413 430 416 430 418 430 C421 430 424 431 426 434 L440 452 C444 458 442 463 435 468 C400 491 355 510 295 510 C151 510 42 394 42 250 C42 106 151 -10 295 -10 C354 -10 404 9 436 32 C443 37 445 40 441 48 L428 66 L428 66 Z " />
<glyph glyph-name="d" unicode="d" horiz-adv-x="651" d="M87 250 C87 365 176 466 295 466 C415 466 504 370 504 250 C504 131 415 34 295 34 C176 34 87 131 87 250 L87 250 Z M538 0 C545 0 548 3 548 10 L548 740 C548 747 545 750 538 750 L513 750 C506 750 503 747 503 740 L503 381 C462 457 389 510 290 510 C146 510 42 394 42 250 C42 106 146 -10 290 -10 C392 -10 466 50 503 118 L503 10 C503 3 506 0 513 0 L538 0 L538 0 Z " />
<glyph glyph-name="e" unicode="e" horiz-adv-x="565" d="M295 34 C178 34 98 120 87 227 L508 227 C519 227 523 235 523 242 C523 383 437 510 283 510 C131 510 42 389 42 250 C42 106 151 -10 295 -10 C367 -10 426 10 473 41 C478 44 479 49 476 55 L464 72 C460 77 457 79 453 79 C452 79 450 79 449 78 C405 50 359 34 295 34 L295 34 Z M87 270 C98 381 168 466 283 466 C402 466 467 377 478 270 L87 270 Z " />
<glyph glyph-name="f" unicode="f" horiz-adv-x="339" d="M343 724 C346 731 345 733 338 737 C308 752 278 759 248 759 C179 759 127 720 127 619 L127 500 L52 500 C45 500 42 497 42 490 L42 467 C42 460 45 457 52 457 L127 457 L127 10 C127 3 130 0 137 0 L162 0 C169 0 172 3 172 10 L172 457 L289 457 C295 457 298 460 298 467 L298 490 C298 497 295 500 289 500 L172 500 L172 614 C172 696 209 715 252 715 C279 715 295 711 318 700 C320 699 322 698 324 698 C327 698 329 700 331 703 L343 724 Z " />
<glyph glyph-name="g" unicode="g" horiz-adv-x="651" d="M87 250 C87 365 176 466 295 466 C415 466 505 371 505 250 C505 131 415 35 295 35 C176 35 87 131 87 250 L87 250 Z M548 490 C548 497 545 500 538 500 L513 500 C506 500 503 497 503 490 L503 381 C460 456 389 510 289 510 C147 510 42 394 42 250 C42 106 147 -9 289 -9 C393 -9 466 52 503 119 L503 -2 C503 -121 420 -211 296 -211 C225 -211 165 -185 122 -142 C120 -140 117 -138 115 -138 C113 -138 111 -140 108 -142 L93 -160 C88 -165 89 -169 94 -174 C138 -219 209 -255 296 -255 C444 -255 548 -148 548 0 L548 490 L548 490 Z " />
<glyph glyph-name="h" unicode="h" horiz-adv-x="620" d="M138 0 C145 0 148 3 148 10 L148 252 C148 354 222 466 327 466 C438 466 486 387 486 267 L486 10 C486 3 489 0 496 0 L521 0 C528 0 531 3 531 10 L531 271 C531 412 474 510 334 510 C237 510 172 438 148 381 L148 740 C148 747 145 750 138 750 L113 750 C106 750 103 747 103 740 L103 10 C103 3 106 0 113 0 L138 0 L138 0 Z " />
<glyph glyph-name="i" unicode="i" horiz-adv-x="268" d="M146 0 C153 0 156 3 156 10 L156 490 C156 497 153 500 146 500 L122 500 C115 500 112 497 112 490 L112 10 C112 3 115 0 122 0 L146 0 L146 0 Z M98 717 C98 697 113 682 134 682 C154 682 170 697 170 717 C170 738 154 754 134 754 C113 754 98 738 98 717 L98 717 Z " />
<glyph glyph-name="j" unicode="j" horiz-adv-x="266" d="M-35 -227 C-39 -234 -36 -238 -29 -241 C-6 -250 12 -255 40 -255 C111 -255 154 -208 154 -140 L154 490 C154 497 151 500 144 500 L119 500 C112 500 109 497 109 490 L109 -136 C109 -180 78 -211 37 -211 C16 -211 2 -208 -14 -201 C-15 -200 -17 -200 -18 -200 C-21 -200 -24 -202 -26 -206 L-35 -227 L-35 -227 Z M95 717 C95 697 111 682 131 682 C152 682 167 697 167 717 C167 738 152 754 131 754 C111 754 95 738 95 717 L95 717 Z " />
<glyph glyph-name="k" unicode="k" horiz-adv-x="529" d="M437 8 C441 3 444 0 455 0 L484 0 C492 0 496 5 489 12 L274 301 L463 490 C467 494 466 500 459 500 L426 500 C419 500 413 498 408 494 L148 239 L148 740 C148 747 145 750 138 750 L113 750 C106 750 103 747 103 740 L103 10 C103 3 106 0 113 0 L138 0 C145 0 148 3 148 10 L148 180 L240 270 L437 8 L437 8 Z " />
<glyph glyph-name="l" unicode="l" horiz-adv-x="251" d="M138 0 C145 0 148 3 148 10 L148 740 C148 747 145 750 138 750 L113 750 C106 750 103 747 103 740 L103 10 C103 3 106 0 113 0 L138 0 L138 0 Z " />
<glyph glyph-name="m" unicode="m" horiz-adv-x="931" d="M113 500 C106 500 103 497 103 490 L103 10 C103 3 106 0 113 0 L138 0 C145 0 148 3 148 10 L148 263 C148 367 223 466 315 466 C411 466 450 382 450 267 L450 10 C450 3 453 0 460 0 L485 0 C492 0 495 3 495 10 L495 263 C495 372 575 466 663 466 C758 466 797 382 797 267 L797 10 C797 3 801 0 808 0 L832 0 C839 0 842 3 842 10 L842 271 C842 418 785 510 670 510 C572 510 512 438 483 366 C467 442 418 510 323 510 C225 510 172 438 148 380 L148 490 C148 497 145 500 138 500 L113 500 Z " />
<glyph glyph-name="n" unicode="n" horiz-adv-x="620" d="M521 0 C528 0 531 3 531 10 L531 271 C531 412 474 510 334 510 C237 510 172 436 148 380 L148 490 C148 497 145 500 138 500 L113 500 C106 500 103 497 103 490 L103 10 C103 3 106 0 113 0 L138 0 C145 0 148 3 148 10 L148 263 C148 367 222 466 327 466 C438 466 486 387 486 267 L486 10 C486 3 489 0 496 0 L521 0 L521 0 Z " />
<glyph glyph-name="o" unicode="o" horiz-adv-x="590" d="M42 250 C42 106 151 -10 295 -10 C439 -10 548 106 548 250 C548 394 439 510 295 510 C151 510 42 394 42 250 L42 250 Z M86 250 C86 370 176 466 295 466 C415 466 503 370 503 250 C503 131 415 34 295 34 C176 34 86 131 86 250 L86 250 Z " />
<glyph glyph-name="p" unicode="p" horiz-adv-x="651" d="M564 250 C564 131 475 34 356 34 C236 34 148 131 148 250 C148 370 236 466 356 466 C475 466 564 370 564 250 L564 250 Z M113 500 C106 500 103 497 103 490 L103 -240 C103 -247 106 -250 113 -250 L138 -250 C145 -250 148 -247 148 -240 L148 118 C183 51 260 -10 362 -10 C504 -10 609 106 609 250 C609 394 504 510 362 510 C262 510 191 456 148 381 L148 490 C148 497 145 500 138 500 L113 500 L113 500 Z " />
<glyph glyph-name="q" unicode="q" horiz-adv-x="651" d="M87 250 C87 370 176 466 295 466 C415 466 504 368 504 250 C504 132 415 34 295 34 C176 34 87 131 87 250 L87 250 Z M513 500 C506 500 503 497 503 490 L503 381 C460 456 390 510 290 510 C146 510 42 394 42 250 C42 106 146 -10 290 -10 C392 -10 466 51 503 119 L503 -240 C503 -247 506 -250 513 -250 L538 -250 C545 -250 548 -247 548 -240 L548 490 C548 497 545 500 538 500 L513 500 L513 500 Z " />
<glyph glyph-name="r" unicode="r" horiz-adv-x="383" d="M113 500 C106 500 103 497 103 490 L103 10 C103 3 106 0 113 0 L138 0 C145 0 148 3 148 10 L148 247 C148 357 213 465 298 465 C317 465 327 463 346 456 C349 455 351 455 352 455 C356 455 357 457 359 462 L367 485 C370 493 369 495 362 498 C347 506 321 510 300 510 C223 510 169 444 148 380 L148 490 C148 497 145 500 138 500 L113 500 L113 500 Z " />
<glyph glyph-name="s" unicode="s" horiz-adv-x="438" d="M74 85 C71 88 69 90 67 90 C65 90 62 88 59 85 L47 72 C42 67 41 62 46 57 C89 14 150 -10 218 -10 C322 -10 395 50 395 134 C395 312 99 260 99 380 C99 439 160 470 221 470 C265 470 305 459 348 428 C351 426 353 425 356 425 C359 425 362 426 365 429 L378 442 C382 447 381 452 376 457 C339 486 284 510 220 510 C124 510 56 453 56 380 C56 217 352 268 352 133 C352 72 293 30 218 30 C159 30 107 54 74 85 L74 85 Z " />
<glyph glyph-name="t" unicode="t" horiz-adv-x="376" d="M316 50 C315 52 313 54 311 54 C310 54 308 53 306 52 C282 40 265 34 238 34 C195 34 167 55 167 98 L167 457 L302 457 C308 457 311 460 311 467 L311 490 C311 497 308 500 301 500 L167 500 L167 638 C167 645 164 648 157 648 L132 648 C125 648 122 645 122 638 L122 500 L62 500 C55 500 51 497 51 490 L51 467 C51 460 55 457 62 457 L122 457 L122 95 C122 27 163 -10 234 -10 C269 -10 294 -1 321 12 C328 16 331 18 328 25 L316 50 L316 50 Z " />
<glyph glyph-name="u" unicode="u" horiz-adv-x="620" d="M99 500 C92 500 89 497 89 490 L89 229 C89 88 146 -10 286 -10 C383 -10 448 61 472 120 L472 10 C472 3 475 0 482 0 L507 0 C514 0 517 3 517 10 L517 490 C517 497 514 500 507 500 L482 500 C475 500 472 497 472 490 L472 236 C472 134 398 34 293 34 C182 34 134 113 134 233 L134 490 C134 497 131 500 124 500 L99 500 L99 500 Z " />
<glyph glyph-name="v" unicode="v" horiz-adv-x="472" d="M81 490 C78 497 77 500 68 500 L39 500 C32 500 30 497 32 490 L205 15 C209 5 215 0 222 0 L251 0 C258 0 263 5 266 15 L439 490 C442 495 440 500 433 500 L403 500 C396 500 392 497 390 490 L236 63 L81 490 Z " />
<glyph glyph-name="w" unicode="w" horiz-adv-x="685" d="M79 490 C77 497 73 500 66 500 L40 500 C34 500 32 497 34 490 L157 15 C159 5 164 0 173 0 L205 0 C216 0 218 6 221 15 L342 440 L463 15 C466 6 469 0 480 0 L511 0 C522 0 525 7 528 15 L651 490 C653 497 651 500 644 500 L619 500 C610 500 609 497 606 490 L494 62 L371 487 C368 495 367 500 356 500 L328 500 C321 500 316 496 314 487 L252 274 C220 166 191 62 190 62 L79 490 L79 490 Z " />
<glyph glyph-name="x" unicode="x" horiz-adv-x="489" d="M399 8 C402 3 408 0 416 0 L445 0 C453 0 455 5 450 10 L275 252 L448 490 C451 494 450 500 442 500 L412 500 C401 500 400 498 396 491 L244 284 L94 491 C90 497 84 500 77 500 L47 500 C40 500 38 494 42 490 L215 252 L39 10 C35 5 37 0 44 0 L74 0 C81 0 87 3 90 8 L245 219 L399 8 Z " />
<glyph glyph-name="y" unicode="y" horiz-adv-x="623" d="M520 490 C520 497 517 500 510 500 L485 500 C478 500 475 497 475 490 L475 246 C475 144 403 44 296 44 C185 44 137 123 137 243 L137 490 C137 497 133 500 126 500 L102 500 C95 500 92 497 92 490 L92 239 C92 98 149 0 288 0 C383 0 454 70 475 129 L475 2 C475 -117 416 -211 292 -211 C220 -211 162 -179 127 -128 C125 -126 123 -125 121 -125 C119 -125 117 -126 114 -128 L98 -146 C94 -149 94 -154 99 -160 C135 -215 204 -255 292 -255 C439 -255 520 -143 520 4 L520 490 L520 490 Z " />
<glyph glyph-name="z" unicode="z" horiz-adv-x="480" d="M47 10 C47 3 50 0 57 0 L423 0 C430 0 433 3 433 10 L433 33 C433 40 430 43 423 43 L105 43 L409 455 C413 462 416 465 416 474 L416 490 C416 497 413 500 406 500 L72 500 C65 500 62 497 62 490 L62 467 C62 460 65 457 72 457 L355 457 L54 47 C50 42 47 38 47 30 L47 10 L47 10 Z " />
<glyph glyph-name="braceleft" unicode="&#x7b;" horiz-adv-x="303" d="M47 281 C105 281 114 220 114 143 L114 -20 C114 -63 139 -95 188 -95 L228 -95 C234 -95 237 -92 237 -85 L237 -69 C237 -62 234 -59 228 -59 L195 -59 C169 -59 156 -46 156 -19 L156 143 C156 211 150 301 82 301 C140 301 156 385 156 453 L156 620 C156 648 167 664 195 664 L228 664 C234 664 237 667 237 674 L237 690 C237 697 234 700 228 700 L188 700 C144 700 114 677 114 624 L114 453 C114 392 105 321 47 321 C40 321 37 318 37 311 L37 291 C37 284 40 281 47 281 L47 281 Z " />
<glyph glyph-name="bar" unicode="&#x7c;" horiz-adv-x="251" d="M148 711 C148 717 145 720 138 720 L113 720 C106 720 103 717 103 711 L103 -175 C103 -181 106 -184 113 -184 L138 -184 C145 -184 148 -181 148 -175 L148 711 L148 711 Z " />
<glyph glyph-name="braceright" unicode="&#x7d;" horiz-adv-x="303" d="M256 281 C262 281 265 284 265 291 L265 311 C265 318 262 321 256 321 C198 321 188 392 188 453 L188 624 C188 677 159 700 114 700 L74 700 C68 700 65 697 65 690 L65 674 C65 667 68 664 74 664 L107 664 C135 664 146 648 146 620 L146 453 C146 385 163 301 220 301 C154 301 146 211 146 143 L146 -19 C146 -46 133 -59 107 -59 L74 -59 C68 -59 65 -62 65 -69 L65 -85 C65 -92 68 -95 74 -95 L114 -95 C163 -95 188 -63 188 -20 L188 143 C188 220 198 281 256 281 L256 281 Z " />
<glyph glyph-name="asciitilde" unicode="&#x7e;" horiz-adv-x="548" d="M84 251 C111 294 137 319 184 319 C243 319 331 251 395 251 C444 251 469 292 496 324 C500 328 499 333 494 338 L480 348 C478 349 475 350 473 350 C471 350 468 349 466 347 C448 324 429 292 396 292 C337 292 249 359 185 359 C123 359 84 321 52 272 C49 267 50 262 55 258 L70 249 C73 248 75 247 77 247 C80 247 82 248 84 251 L84 251 Z " />
<glyph glyph-name="exclamdown" unicode="&#xa1;" horiz-adv-x="258" d="M118 347 C111 347 108 343 108 336 L106 -191 C106 -198 110 -201 117 -201 L141 -201 C148 -201 152 -198 152 -191 L150 336 C150 343 147 347 140 347 L118 347 Z M93 473 C93 452 108 437 129 437 C149 437 165 452 165 473 C165 493 149 509 129 509 C108 509 93 493 93 473 L93 473 Z " />
<glyph glyph-name="cent" unicode="&#xa2;" horiz-adv-x="486" d="M298 -9 C355 -9 402 7 439 32 C446 37 447 40 443 48 L430 66 C428 70 426 72 423 72 C420 72 417 70 414 68 C383 48 344 34 297 34 C178 34 89 131 89 250 C89 370 178 466 297 466 C317 466 362 464 413 432 C416 430 419 430 421 430 C424 430 427 431 429 434 L442 452 C446 459 444 464 437 468 C400 493 357 508 298 509 L298 694 C298 700 294 703 287 703 L272 703 C265 703 262 700 262 694 L262 508 C130 489 44 375 44 250 C44 121 130 13 262 -8 L262 -192 C262 -198 265 -201 272 -201 L287 -201 C294 -201 298 -198 298 -192 L298 -9 L298 -9 Z " />
<glyph glyph-name="sterling" unicode="&#xa3;" horiz-adv-x="562" d="M514 45 C514 50 512 52 509 52 C507 52 505 51 503 50 C476 33 445 28 411 28 C339 28 257 53 187 53 C170 53 155 51 140 48 L140 303 L360 303 C367 303 370 307 370 314 L370 330 C370 337 367 341 360 341 L140 341 C140 448 133 558 232 627 C265 649 306 658 347 658 C398 658 450 644 489 625 C491 624 492 624 493 624 C496 624 498 626 500 630 L508 650 C511 655 509 658 503 661 C458 683 400 698 344 698 C294 698 245 687 208 659 C104 584 99 479 99 341 L47 341 C40 341 36 337 36 330 L36 314 C36 307 40 303 47 303 L99 303 L99 10 C99 3 101 0 105 0 C107 0 108 0 110 1 C131 9 155 12 180 12 C255 12 345 -13 418 -13 C438 -13 514 -8 514 22 L514 45 L514 45 Z " />
<glyph glyph-name="currency" unicode="&#xa4;" horiz-adv-x="542" d="M103 320 C103 412 177 489 270 489 C362 489 439 412 439 320 C439 227 362 153 270 153 C177 153 103 227 103 320 L103 320 Z M464 101 C467 99 469 97 471 97 C473 97 476 99 478 101 L491 115 C496 119 496 124 491 129 L433 188 C466 229 480 287 480 320 C480 353 471 409 432 452 L491 513 C495 518 495 523 490 528 L477 541 C475 543 472 543 470 543 C468 543 466 543 463 541 L404 482 C355 521 304 529 271 529 C253 529 195 528 139 483 L78 542 C76 545 74 546 71 546 C69 546 67 545 64 542 L51 529 C47 524 47 519 50 514 L112 455 C95 432 62 391 62 320 C62 287 70 238 110 187 L51 126 C47 121 47 117 51 112 L65 98 C68 96 70 95 72 95 C75 95 77 96 79 98 L137 159 C180 119 251 111 271 111 C303 111 360 120 404 161 L464 101 L464 101 Z " />
<glyph glyph-name="yen" unicode="&#xa5;" horiz-adv-x="585" d="M271 10 C271 3 274 0 281 0 L306 0 C313 0 316 3 316 10 L316 180 L517 180 C523 180 526 183 526 190 L526 210 C526 217 523 220 517 220 L316 220 L316 345 L517 345 C523 345 526 348 526 355 L526 375 C526 382 523 386 517 386 L342 386 L538 690 C542 694 540 700 533 700 L502 700 C497 700 492 698 489 693 L293 388 L96 693 C93 698 89 700 83 700 L52 700 C45 700 44 694 47 690 L245 386 L68 386 C61 386 58 382 58 375 L58 355 C58 348 61 345 68 345 L271 345 L271 220 L68 220 C61 220 58 217 58 210 L58 190 C58 183 61 180 68 180 L271 180 L271 10 Z " />
<glyph glyph-name="brokenbar" unicode="&#xa6;" horiz-adv-x="251" d="M148 712 C148 718 145 721 138 721 L113 721 C106 721 103 718 103 712 L103 306 C103 300 106 297 113 297 L138 297 C145 297 148 300 148 306 L148 712 L148 712 Z M148 228 C148 234 145 237 138 237 L113 237 C106 237 103 234 103 228 L103 -178 C103 -184 106 -187 113 -187 L138 -187 C145 -187 148 -184 148 -178 L148 228 L148 228 Z " />
<glyph glyph-name="section" unicode="&#xa7;" horiz-adv-x="550" d="M445 51 C488 96 498 141 498 180 C498 426 111 339 111 538 C111 618 193 664 278 664 C335 664 391 646 439 615 C441 613 444 613 446 613 C449 613 452 614 455 618 L468 638 C471 645 470 650 465 653 C405 692 336 710 280 710 C169 710 65 644 65 538 C65 478 90 435 131 406 C88 375 65 332 65 281 C65 42 452 127 452 -78 C452 -162 389 -221 274 -221 C209 -221 135 -195 79 -148 C77 -146 74 -145 72 -145 C69 -145 67 -146 64 -149 L50 -170 C46 -175 47 -180 52 -183 C116 -235 194 -267 274 -267 C423 -267 498 -176 498 -77 C498 -17 480 20 445 51 L445 51 Z M407 77 C300 148 111 140 111 281 C111 324 137 358 174 381 C283 320 452 318 452 179 C452 139 438 104 407 77 L407 77 Z " />
<glyph glyph-name="dieresis" unicode="&#xa8;" horiz-adv-x="349" d="M42 561 C42 541 57 526 77 526 C97 526 113 541 113 561 C113 581 97 597 77 597 C57 597 42 581 42 561 L42 561 Z M236 561 C236 541 251 526 271 526 C292 526 307 541 307 561 C307 581 292 597 271 597 C251 597 236 581 236 561 L236 561 Z " />
<glyph glyph-name="copyright" unicode="&#xa9;" horiz-adv-x="865" d="M435 765 C218 765 47 588 47 372 C47 160 218 -17 435 -17 C648 -17 818 160 818 372 C818 588 647 765 435 765 L435 765 Z M435 14 C240 14 78 180 78 372 C78 566 238 734 435 734 C635 734 787 564 787 372 C787 173 627 14 435 14 L435 14 Z M538 222 C544 226 545 231 541 238 L535 247 C532 251 529 252 526 252 C523 252 521 252 518 250 C499 238 476 229 445 229 C353 229 302 306 302 370 C302 444 360 512 445 512 C456 512 484 511 515 492 C518 490 521 489 523 489 C527 489 530 491 532 494 L540 505 C543 510 542 515 537 519 C518 534 480 547 444 547 C348 547 268 468 268 370 C268 273 348 195 444 195 C483 195 515 207 538 222 L538 222 Z " />
<glyph glyph-name="guillemotleft" unicode="&#xab;" horiz-adv-x="456" d="M406 416 C410 420 406 425 399 425 L372 425 C365 425 360 422 357 416 L239 239 C236 234 235 229 236 224 L239 218 L357 43 C360 37 365 34 372 34 L399 34 C406 34 409 39 406 43 L281 229 L406 416 Z M200 416 C203 420 200 425 193 425 L166 425 C160 425 155 422 150 416 L33 239 C30 234 29 229 30 224 L33 218 L150 43 C155 37 160 34 166 34 L192 34 C200 34 203 39 200 43 L74 229 L200 416 Z " />
<glyph glyph-name="logicalnot" unicode="&#xac;" horiz-adv-x="654" d="M541 57 C548 57 551 60 551 67 L551 335 L93 335 C87 335 84 332 84 325 L84 303 C84 296 87 293 93 293 L509 293 L509 67 C509 60 512 57 519 57 L541 57 L541 57 Z " />
<glyph glyph-name="uni00AD" unicode="&#xad;" horiz-adv-x="477" d="M94 283 C88 283 85 280 85 273 L85 249 C85 242 88 239 94 239 L383 239 C389 239 392 242 392 249 L392 273 C392 280 389 283 383 283 L94 283 L94 283 Z " />
<glyph glyph-name="registered" unicode="&#xae;" horiz-adv-x="865" d="M435 765 C218 765 47 588 47 372 C47 160 218 -17 435 -17 C648 -17 818 160 818 372 C818 588 647 765 435 765 L435 765 Z M435 14 C240 14 78 180 78 372 C78 566 238 734 435 734 C635 734 787 564 787 372 C787 173 627 14 435 14 L435 14 Z M428 564 C498 564 537 513 537 461 C537 401 499 355 428 355 L336 355 L336 564 L428 564 L428 564 Z M453 324 C478 327 569 354 569 461 C569 540 506 595 428 595 L313 595 C307 595 304 592 304 586 L304 177 C304 169 307 165 313 165 L327 165 C332 165 335 169 335 177 L335 323 L415 323 L530 174 C533 170 538 165 545 165 L566 165 C571 165 571 171 568 174 L453 324 L453 324 Z " />
<glyph glyph-name="degree" unicode="&#xb0;" horiz-adv-x="436" d="M42 526 C42 430 122 350 218 350 C314 350 394 430 394 526 C394 622 314 702 218 702 C122 702 42 622 42 526 L42 526 Z M81 525 C81 604 137 665 217 665 C294 665 357 604 357 525 C357 445 294 389 217 389 C137 389 81 445 81 525 L81 525 Z " />
<glyph glyph-name="plusminus" unicode="&#xb1;" horiz-adv-x="561" d="M57 107 C51 107 48 104 48 97 L48 75 C48 68 51 65 57 65 L502 65 C508 65 511 68 511 75 L511 97 C511 104 508 107 502 107 L57 107 L57 107 Z M502 422 C509 422 512 425 512 432 L512 454 C512 461 509 464 502 464 L302 464 L302 663 C302 669 299 672 292 672 L270 672 C263 672 260 669 260 663 L260 464 L60 464 C53 464 50 461 50 454 L50 432 C50 425 53 422 60 422 L260 422 L260 221 C260 215 263 212 270 212 L292 212 C299 212 302 215 302 221 L302 422 L502 422 Z " />
<glyph glyph-name="twosuperior" unicode="&#xb2;" horiz-adv-x="313" d="M117 495 C176 549 230 594 230 666 C230 723 194 760 141 760 C114 760 89 752 64 737 C59 734 58 730 61 724 L69 711 C71 708 74 706 77 706 C79 706 81 707 83 708 C102 719 120 725 139 725 C176 725 195 699 195 664 C195 609 151 568 60 488 C57 486 56 483 56 478 L56 469 C56 463 59 460 65 460 L237 460 C243 460 246 463 246 469 L246 487 C246 492 243 495 237 495 L117 495 L117 495 Z " />
<glyph glyph-name="threesuperior" unicode="&#xb3;" horiz-adv-x="287" d="M120 598 C163 598 196 579 196 540 C196 505 176 488 137 488 C118 488 104 492 81 505 C79 507 76 507 74 507 C71 507 69 506 67 502 L58 489 C54 484 55 480 61 476 C86 461 108 453 137 453 C200 453 230 488 230 539 C230 582 202 603 170 614 C199 625 224 645 224 684 C224 728 192 760 144 760 C117 760 93 752 70 737 C65 734 64 730 67 724 L76 711 C78 709 80 706 84 706 C86 706 88 707 90 708 C102 715 119 725 143 725 C174 725 190 708 190 681 C190 642 159 629 120 629 C116 629 114 627 114 622 L114 604 C114 600 116 598 120 598 L120 598 Z " />
<glyph glyph-name="acute" unicode="&#xb4;" horiz-adv-x="210" d="M59 560 C62 559 64 558 66 558 C70 558 73 561 75 565 L168 724 C173 730 171 734 164 737 L143 744 C141 744 140 745 138 745 C134 745 130 742 128 737 L41 581 C38 574 39 569 45 566 L59 560 L59 560 Z " />
<glyph glyph-name="mu" unicode="&#xb5;" horiz-adv-x="620" d="M134 80 C168 22 217 -8 290 -8 C370 -8 443 44 472 119 L472 10 C472 3 475 0 482 0 L507 0 C514 0 517 3 517 10 L517 490 C517 497 514 500 507 500 L482 500 C475 500 472 497 472 490 L472 248 C472 146 398 34 293 34 C186 34 134 117 134 233 L134 490 C134 497 131 500 124 500 L99 500 C92 500 89 497 89 490 L89 -240 C89 -247 92 -250 99 -250 L124 -250 C131 -250 134 -247 134 -240 L134 80 L134 80 Z " />
<glyph glyph-name="paragraph" unicode="&#xb6;" horiz-adv-x="599" d="M425 -223 C425 -229 428 -232 435 -232 L455 -232 C462 -232 465 -229 465 -223 L465 641 L550 641 C556 641 559 645 559 652 L559 672 C559 679 556 682 550 682 L232 682 C121 682 30 591 30 480 C30 369 121 278 232 278 L232 -223 C232 -229 235 -232 242 -232 L262 -232 C269 -232 273 -229 273 -223 L273 641 L425 641 L425 -223 L425 -223 Z " />
<glyph glyph-name="periodcentered" unicode="&#xb7;" horiz-adv-x="156" d="M42 330 C42 310 58 294 78 294 C98 294 114 310 114 330 C114 351 98 366 78 366 C58 366 42 351 42 330 L42 330 Z " />
<glyph glyph-name="cedilla" unicode="&#xb8;" horiz-adv-x="166" d="M46 -167 C45 -174 48 -178 55 -178 L76 -178 C83 -178 87 -175 89 -168 L116 -8 C117 -1 114 3 107 3 L89 3 C80 3 78 -1 77 -8 L46 -167 L46 -167 Z " />
<glyph glyph-name="onesuperior" unicode="&#xb9;" horiz-adv-x="258" d="M72 744 C67 743 64 740 65 734 L67 716 C68 711 71 708 76 709 L120 716 L120 469 C120 463 123 460 129 460 L146 460 C152 460 155 463 155 469 L155 746 C155 752 152 755 146 755 L137 755 L72 744 L72 744 Z " />
<glyph glyph-name="ordmasculine" unicode="&#xba;" horiz-adv-x="590" d="M42 250 C42 106 151 -10 295 -10 C439 -10 548 106 548 250 C548 394 439 510 295 510 C151 510 42 394 42 250 L42 250 Z M86 250 C86 370 176 466 295 466 C415 466 503 370 503 250 C503 131 415 34 295 34 C176 34 86 131 86 250 L86 250 Z " />
<glyph glyph-name="guillemotright" unicode="&#xbb;" horiz-adv-x="456" d="M51 43 C47 39 50 34 58 34 L84 34 C90 34 95 37 100 43 L217 218 L220 224 C221 228 220 233 217 239 L100 416 C95 422 90 425 84 425 L57 425 C50 425 47 420 50 416 L176 229 L51 43 L51 43 Z M257 43 C253 39 256 34 264 34 L290 34 C297 34 303 37 306 43 L423 218 L426 224 C427 228 426 233 423 239 L306 416 C303 422 297 425 290 425 L264 425 C256 425 253 420 257 416 L382 229 L257 43 L257 43 Z " />
<glyph glyph-name="onequarter" unicode="&#xbc;" horiz-adv-x="738" d="M169 9 C165 3 168 0 177 0 L197 0 C202 0 207 3 210 9 L600 691 C603 697 600 700 592 700 L572 700 C567 700 563 697 558 691 L169 9 L169 9 Z M607 9 C607 3 610 0 615 0 L632 0 C638 0 641 3 641 9 L641 65 L672 65 C678 65 681 68 681 74 L681 91 C681 97 678 100 672 100 L641 100 L641 154 C641 160 638 163 632 163 L616 163 C610 163 607 160 607 154 L607 100 L524 100 L597 285 C599 292 597 295 591 295 L573 295 C566 295 561 292 558 285 L484 93 L484 74 C484 68 487 65 493 65 L607 65 L607 9 Z M120 538 C163 538 196 519 196 480 C196 445 176 428 137 428 C118 428 104 432 81 445 C79 447 76 447 74 447 C71 447 69 446 67 442 L58 429 C54 424 55 420 61 416 C86 401 108 393 137 393 C200 393 230 428 230 479 C230 522 202 543 170 554 C199 565 224 585 224 624 C224 668 192 700 144 700 C117 700 93 692 70 677 C65 674 64 670 67 664 L76 651 C78 649 80 646 84 646 C86 646 88 647 90 648 C102 655 119 665 143 665 C174 665 190 648 190 621 C190 582 159 569 120 569 C116 569 114 567 114 562 L114 544 C114 540 116 538 120 538 L120 538 Z " />
<glyph glyph-name="onehalf" unicode="&#xbd;" horiz-adv-x="685" d="M72 690 C67 689 64 686 65 680 L67 662 C68 657 71 654 76 655 L120 662 L120 415 C120 409 123 406 129 406 L146 406 C152 406 155 409 155 415 L155 692 C155 698 152 701 146 701 L137 701 L72 690 L72 690 Z M489 35 C548 89 603 134 603 206 C603 263 566 300 513 300 C486 300 461 292 436 277 C431 274 430 270 433 264 L442 251 C444 247 446 246 449 246 C451 246 453 246 456 248 C475 259 492 265 512 265 C549 265 567 239 567 204 C567 149 523 109 432 28 C429 26 428 23 428 18 L428 9 C428 3 431 0 437 0 L609 0 C615 0 618 3 618 9 L618 27 C618 32 615 35 609 35 L489 35 L489 35 Z M100 9 C97 3 99 0 108 0 L128 0 C133 0 137 3 142 9 L531 691 C534 697 531 700 523 700 L503 700 C498 700 494 697 489 691 L100 9 L100 9 Z " />
<glyph glyph-name="threequarters" unicode="&#xbe;" horiz-adv-x="669" d="M72 690 C67 689 64 686 65 680 L67 662 C68 657 71 654 76 655 L120 662 L120 415 C120 409 123 406 129 406 L146 406 C152 406 155 409 155 415 L155 692 C155 698 152 701 146 701 L137 701 L72 690 L72 690 Z M100 9 C97 3 99 0 108 0 L128 0 C133 0 137 3 142 9 L531 691 C534 697 531 700 523 700 L503 700 C498 700 494 697 489 691 L100 9 L100 9 Z M537 9 C537 3 540 0 546 0 L563 0 C569 0 572 3 572 9 L572 65 L603 65 C609 65 612 68 612 74 L612 91 C612 97 609 100 603 100 L572 100 L572 154 C572 160 569 163 563 163 L547 163 C541 163 538 160 538 154 L538 100 L455 100 L528 285 C530 292 528 295 522 295 L504 295 C497 295 492 292 489 285 L415 93 L415 74 C415 68 418 65 424 65 L537 65 L537 9 Z " />
<glyph glyph-name="questiondown" unicode="&#xbf;" horiz-adv-x="435" d="M381 86 C379 90 376 93 372 93 C370 93 368 92 366 90 C323 57 273 35 226 35 C151 35 94 82 94 154 C94 289 267 300 267 484 L267 537 C267 544 264 548 257 548 L232 548 C225 548 222 544 222 537 L222 484 C222 321 48 308 48 150 C48 65 110 -10 225 -10 C292 -10 349 19 390 50 C396 55 397 60 394 66 L381 86 L381 86 Z M282 674 C282 695 266 710 246 710 C225 710 210 695 210 674 C210 654 225 638 246 638 C266 638 282 654 282 674 L282 674 Z " />
<glyph glyph-name="Agrave" unicode="&#xc0;" horiz-adv-x="603" d="M63 0 C74 0 75 3 78 10 L146 203 L456 203 L524 13 C527 2 529 0 540 0 L566 0 C577 0 578 3 575 10 L332 690 C330 697 326 700 320 700 L283 700 C277 700 273 697 270 690 L28 10 C26 3 29 0 37 0 L63 0 L63 0 Z M161 248 L301 640 L442 248 L161 248 Z M322 776 C328 779 329 784 326 791 L238 947 C236 952 232 955 228 955 C226 955 225 954 223 954 L203 947 C196 944 194 940 198 934 L291 775 C294 771 296 768 301 768 C302 768 304 769 307 770 L322 776 L322 776 Z " />
<glyph glyph-name="Aacute" unicode="&#xc1;" horiz-adv-x="603" d="M63 0 C74 0 75 3 78 10 L146 203 L456 203 L524 13 C527 2 529 0 540 0 L566 0 C577 0 578 3 575 10 L332 690 C330 697 326 700 320 700 L283 700 C277 700 273 697 270 690 L28 10 C26 3 29 0 37 0 L63 0 L63 0 Z M161 248 L301 640 L442 248 L161 248 Z M302 770 C305 769 307 768 309 768 C313 768 316 771 318 775 L411 934 C416 940 414 944 407 947 L386 954 C384 954 383 955 381 955 C377 955 373 952 371 947 L284 791 C281 784 282 779 288 776 L302 770 L302 770 Z " />
<glyph glyph-name="Acircumflex" unicode="&#xc2;" horiz-adv-x="603" d="M63 0 C74 0 75 3 78 10 L146 203 L456 203 L524 13 C527 2 529 0 540 0 L566 0 C577 0 578 3 575 10 L332 690 C330 697 326 700 320 700 L283 700 C277 700 273 697 270 690 L28 10 C26 3 29 0 37 0 L63 0 L63 0 Z M161 248 L301 640 L442 248 L161 248 Z M293 936 C285 936 278 933 273 926 L148 795 C143 790 143 784 148 779 L157 768 C160 765 162 764 164 764 C168 764 171 767 174 769 L301 902 L428 769 C432 766 435 765 438 765 C440 765 443 766 445 768 L454 779 C459 784 459 790 454 795 L330 926 C323 931 321 936 310 936 L293 936 L293 936 Z " />
<glyph glyph-name="Atilde" unicode="&#xc3;" horiz-adv-x="603" d="M63 0 C74 0 75 3 78 10 L146 203 L456 203 L524 13 C527 2 529 0 540 0 L566 0 C577 0 578 3 575 10 L332 690 C330 697 326 700 320 700 L283 700 C277 700 273 697 270 690 L28 10 C26 3 29 0 37 0 L63 0 L63 0 Z M161 248 L301 640 L442 248 L161 248 Z M374 849 C327 849 291 920 229 920 C196 920 155 893 130 858 C125 853 124 847 127 841 L133 822 C135 817 137 814 139 814 C141 814 143 816 145 819 C164 846 201 882 230 882 C278 882 314 811 375 811 C408 811 449 838 473 873 C478 878 479 884 477 890 L471 909 C469 914 467 917 464 917 C462 917 460 915 458 912 C439 885 403 849 374 849 L374 849 Z " />
<glyph glyph-name="Adieresis" unicode="&#xc4;" horiz-adv-x="603" d="M63 0 C74 0 75 3 78 10 L146 203 L456 203 L524 13 C527 2 529 0 540 0 L566 0 C577 0 578 3 575 10 L332 690 C330 697 326 700 320 700 L283 700 C277 700 273 697 270 690 L28 10 C26 3 29 0 37 0 L63 0 L63 0 Z M161 248 L301 640 L442 248 L161 248 Z M169 831 C169 811 184 796 204 796 C224 796 240 811 240 831 C240 851 224 867 204 867 C184 867 169 851 169 831 L169 831 Z M363 831 C363 811 378 796 398 796 C419 796 434 811 434 831 C434 851 419 867 398 867 C378 867 363 851 363 831 L363 831 Z " />
<glyph glyph-name="Aring" unicode="&#xc5;" horiz-adv-x="603" d="M63 0 C74 0 75 3 78 10 L146 203 L456 203 L524 13 C527 2 529 0 540 0 L566 0 C577 0 578 3 575 10 L332 690 C330 697 326 700 320 700 L283 700 C277 700 273 697 270 690 L28 10 C26 3 29 0 37 0 L63 0 L63 0 Z M161 248 L301 640 L442 248 L161 248 Z M200 861 C200 805 246 759 301 759 C357 759 403 805 403 861 C403 917 357 962 301 962 C246 962 200 917 200 861 L200 861 Z M236 861 C236 898 265 927 301 927 C338 927 367 898 367 861 C367 824 338 795 301 795 C265 795 236 824 236 861 L236 861 Z " />
<glyph glyph-name="AE" unicode="&#xc6;" horiz-adv-x="827" d="M200 246 L389 608 L389 246 L200 246 Z M65 0 C73 0 76 3 79 10 L179 203 L389 203 L389 10 C389 3 392 0 399 0 L757 0 C764 0 767 3 767 10 L767 35 C767 42 764 45 757 45 L435 45 L435 328 L722 328 C729 328 732 331 732 338 L732 362 C732 369 729 372 722 372 L435 372 L435 655 L757 655 C764 655 767 658 767 665 L767 690 C767 697 764 700 757 700 L399 700 C389 700 382 696 378 687 L29 10 C26 3 29 0 38 0 L65 0 L65 0 Z " />
<glyph glyph-name="Ccedilla" unicode="&#xc7;" horiz-adv-x="672" d="M349 -167 C348 -174 351 -178 358 -178 L379 -178 C386 -178 390 -175 392 -168 L419 -10 C492 -5 541 12 598 45 C604 48 605 53 601 60 L589 80 C587 84 584 85 581 85 C579 85 577 85 575 83 C530 52 467 35 403 35 C225 35 93 170 93 348 C93 526 225 665 403 665 C467 665 519 649 572 618 C575 616 577 616 579 616 C582 616 585 617 587 620 L600 641 C603 647 602 652 596 655 C547 687 478 710 403 710 C200 710 47 551 47 348 C47 166 175 4 379 -9 L349 -167 L349 -167 Z " />
<glyph glyph-name="Egrave" unicode="&#xc8;" horiz-adv-x="578" d="M118 700 C111 700 108 697 108 690 L108 10 C108 3 111 0 118 0 L508 0 C515 0 518 3 518 10 L518 35 C518 42 515 45 508 45 L153 45 L153 328 L473 328 C480 328 483 331 483 338 L483 362 C483 369 480 372 473 372 L153 372 L153 655 L508 655 C515 655 518 658 518 665 L518 690 C518 697 515 700 508 700 L118 700 L118 700 Z M343 777 C349 780 350 785 347 792 L259 948 C257 953 253 956 249 956 C247 956 246 955 244 955 L224 948 C217 945 215 941 219 935 L312 776 C315 772 317 769 322 769 C323 769 325 770 328 771 L343 777 L343 777 Z " />
<glyph glyph-name="Eacute" unicode="&#xc9;" horiz-adv-x="578" d="M118 700 C111 700 108 697 108 690 L108 10 C108 3 111 0 118 0 L508 0 C515 0 518 3 518 10 L518 35 C518 42 515 45 508 45 L153 45 L153 328 L473 328 C480 328 483 331 483 338 L483 362 C483 369 480 372 473 372 L153 372 L153 655 L508 655 C515 655 518 658 518 665 L518 690 C518 697 515 700 508 700 L118 700 L118 700 Z M298 772 C301 771 303 770 305 770 C309 770 312 773 314 777 L407 936 C412 942 410 946 403 949 L382 956 C380 956 379 957 377 957 C373 957 369 954 367 949 L280 793 C277 786 278 781 284 778 L298 772 L298 772 Z " />
<glyph glyph-name="Ecircumflex" unicode="&#xca;" horiz-adv-x="578" d="M118 700 C111 700 108 697 108 690 L108 10 C108 3 111 0 118 0 L508 0 C515 0 518 3 518 10 L518 35 C518 42 515 45 508 45 L153 45 L153 328 L473 328 C480 328 483 331 483 338 L483 362 C483 369 480 372 473 372 L153 372 L153 655 L508 655 C515 655 518 658 518 665 L518 690 C518 697 515 700 508 700 L118 700 L118 700 Z M303 937 C295 937 288 934 283 927 L158 796 C153 791 153 785 158 780 L167 769 C170 766 172 765 174 765 C178 765 181 768 184 770 L311 903 L438 770 C442 767 445 766 448 766 C450 766 453 767 455 769 L464 780 C469 785 469 791 464 796 L340 927 C333 932 331 937 320 937 L303 937 L303 937 Z " />
<glyph glyph-name="Edieresis" unicode="&#xcb;" horiz-adv-x="579" d="M118 700 C111 700 108 697 108 690 L108 10 C108 3 111 0 118 0 L508 0 C515 0 518 3 518 10 L518 35 C518 42 515 45 508 45 L153 45 L153 328 L473 328 C480 328 483 331 483 338 L483 362 C483 369 480 372 473 372 L153 372 L153 655 L508 655 C515 655 518 658 518 665 L518 690 C518 697 515 700 508 700 L118 700 L118 700 Z M175 831 C175 811 190 796 210 796 C230 796 246 811 246 831 C246 851 230 867 210 867 C190 867 175 851 175 831 L175 831 Z M369 831 C369 811 384 796 404 796 C425 796 440 811 440 831 C440 851 425 867 404 867 C384 867 369 851 369 831 L369 831 Z " />
<glyph glyph-name="Igrave" unicode="&#xcc;" horiz-adv-x="261" d="M143 0 C150 0 153 3 153 10 L153 690 C153 697 150 700 143 700 L118 700 C111 700 108 697 108 690 L108 10 C108 3 111 0 118 0 L143 0 L143 0 Z M141 777 C147 780 148 785 145 792 L57 948 C55 953 51 956 47 956 C45 956 44 955 42 955 L22 948 C15 945 13 941 17 935 L110 776 C113 772 115 769 120 769 C121 769 123 770 126 771 L141 777 L141 777 Z " />
<glyph glyph-name="Iacute" unicode="&#xcd;" horiz-adv-x="261" d="M144 0 C151 0 154 3 154 10 L154 690 C154 697 151 700 144 700 L119 700 C112 700 109 697 109 690 L109 10 C109 3 112 0 119 0 L144 0 L144 0 Z M134 772 C137 771 139 770 141 770 C145 770 148 773 150 777 L243 936 C248 942 246 946 239 949 L218 956 C216 956 215 957 213 957 C209 957 205 954 203 949 L116 793 C113 786 114 781 120 778 L134 772 L134 772 Z " />
<glyph glyph-name="Icircumflex" unicode="&#xce;" horiz-adv-x="261" d="M143 0 C150 0 153 3 153 10 L153 690 C153 697 150 700 143 700 L118 700 C111 700 108 697 108 690 L108 10 C108 3 111 0 118 0 L143 0 L143 0 Z M122 937 C114 937 107 934 102 927 L-23 796 C-28 791 -28 785 -23 780 L-14 769 C-11 766 -9 765 -7 765 C-3 765 0 768 3 770 L130 903 L257 770 C261 767 264 766 267 766 C269 766 272 767 274 769 L283 780 C288 785 288 791 283 796 L159 927 C152 932 150 937 139 937 L122 937 L122 937 Z " />
<glyph glyph-name="Idieresis" unicode="&#xcf;" horiz-adv-x="261" d="M143 0 C150 0 153 3 153 10 L153 690 C153 697 150 700 143 700 L118 700 C111 700 108 697 108 690 L108 10 C108 3 111 0 118 0 L143 0 L143 0 Z M-2 831 C-2 811 13 796 33 796 C53 796 69 811 69 831 C69 851 53 867 33 867 C13 867 -2 851 -2 831 L-2 831 Z M192 831 C192 811 207 796 227 796 C248 796 263 811 263 831 C263 851 248 867 227 867 C207 867 192 851 192 831 L192 831 Z " />
<glyph glyph-name="Eth" unicode="&#xd0;" horiz-adv-x="745" d="M108 10 C108 3 111 0 117 0 L346 0 C546 0 698 156 698 348 C698 544 546 700 346 700 L117 700 C111 700 108 697 108 690 L108 372 L32 372 C26 372 23 368 23 361 L23 342 C23 335 26 331 32 331 L108 331 L108 10 Z M153 655 L344 655 C517 655 653 522 653 347 C653 184 517 45 344 45 L153 45 L153 331 L277 331 C284 331 288 334 288 341 L288 362 C288 369 284 372 277 372 L153 372 L153 655 Z " />
<glyph glyph-name="Ntilde" unicode="&#xd1;" horiz-adv-x="734" d="M616 0 C623 0 626 3 626 10 L626 690 C626 697 623 700 616 700 L591 700 C584 700 581 697 581 690 L581 83 L160 690 C156 697 150 700 143 700 L118 700 C111 700 108 697 108 690 L108 10 C108 3 111 0 118 0 L143 0 C150 0 153 3 153 10 L153 617 L574 10 C578 3 584 0 591 0 L616 0 Z M438 849 C391 849 355 920 293 920 C260 920 219 893 194 858 C189 853 188 847 191 841 L197 822 C199 817 201 814 203 814 C205 814 207 816 209 819 C228 846 265 882 294 882 C342 882 378 811 439 811 C472 811 513 838 537 873 C542 878 543 884 541 890 L535 909 C533 914 531 917 528 917 C526 917 524 915 522 912 C503 885 467 849 438 849 L438 849 Z " />
<glyph glyph-name="Ograve" unicode="&#xd2;" horiz-adv-x="807" d="M403 710 C200 710 47 551 47 348 C47 145 200 -10 403 -10 C607 -10 760 149 760 348 C760 551 607 710 403 710 L403 710 Z M403 35 C225 35 93 170 93 348 C93 526 225 665 403 665 C582 665 714 526 714 348 C714 170 578 35 403 35 L403 35 Z M418 777 C424 780 425 785 422 792 L334 948 C332 953 328 956 324 956 C322 956 321 955 319 955 L299 948 C292 945 290 941 294 935 L387 776 C390 772 392 769 397 769 C398 769 400 770 403 771 L418 777 L418 777 Z " />
<glyph glyph-name="Oacute" unicode="&#xd3;" horiz-adv-x="807" d="M403 710 C200 710 47 551 47 348 C47 145 200 -10 403 -10 C607 -10 760 149 760 348 C760 551 607 710 403 710 L403 710 Z M403 35 C225 35 93 170 93 348 C93 526 225 665 403 665 C582 665 714 526 714 348 C714 170 578 35 403 35 L403 35 Z M409 771 C412 770 414 769 416 769 C420 769 423 772 425 776 L518 935 C523 941 521 945 514 948 L493 955 C491 955 490 956 488 956 C484 956 480 953 478 948 L391 792 C388 785 389 780 395 777 L409 771 L409 771 Z " />
<glyph glyph-name="Ocircumflex" unicode="&#xd4;" horiz-adv-x="807" d="M403 710 C200 710 47 551 47 348 C47 145 200 -10 403 -10 C607 -10 760 149 760 348 C760 551 607 710 403 710 L403 710 Z M403 35 C225 35 93 170 93 348 C93 526 225 665 403 665 C582 665 714 526 714 348 C714 170 578 35 403 35 L403 35 Z M395 938 C387 938 380 935 375 928 L250 797 C245 792 245 786 250 781 L259 770 C262 767 264 766 266 766 C270 766 273 769 276 771 L403 904 L530 771 C534 768 537 767 540 767 C542 767 545 768 547 770 L556 781 C561 786 561 792 556 797 L432 928 C425 933 423 938 412 938 L395 938 L395 938 Z " />
<glyph glyph-name="Otilde" unicode="&#xd5;" horiz-adv-x="807" d="M403 710 C200 710 47 551 47 348 C47 145 200 -10 403 -10 C607 -10 760 149 760 348 C760 551 607 710 403 710 L403 710 Z M403 35 C225 35 93 170 93 348 C93 526 225 665 403 665 C582 665 714 526 714 348 C714 170 578 35 403 35 L403 35 Z M476 849 C429 849 393 920 331 920 C298 920 257 893 232 858 C227 853 226 847 229 841 L235 822 C237 817 239 814 241 814 C243 814 245 816 247 819 C266 846 303 882 332 882 C380 882 416 811 477 811 C510 811 551 838 575 873 C580 878 581 884 579 890 L573 909 C571 914 569 917 566 917 C564 917 562 915 560 912 C541 885 505 849 476 849 L476 849 Z " />
<glyph glyph-name="Odieresis" unicode="&#xd6;" horiz-adv-x="807" d="M403 710 C200 710 47 551 47 348 C47 145 200 -10 403 -10 C607 -10 760 149 760 348 C760 551 607 710 403 710 L403 710 Z M403 35 C225 35 93 170 93 348 C93 526 225 665 403 665 C582 665 714 526 714 348 C714 170 578 35 403 35 L403 35 Z M271 831 C271 811 286 796 306 796 C326 796 342 811 342 831 C342 851 326 867 306 867 C286 867 271 851 271 831 L271 831 Z M465 831 C465 811 480 796 500 796 C521 796 536 811 536 831 C536 851 521 867 500 867 C480 867 465 851 465 831 L465 831 Z " />
<glyph glyph-name="multiply" unicode="&#xd7;" horiz-adv-x="444" d="M394 436 C398 440 396 446 393 450 L377 465 C375 468 373 469 370 469 C368 469 366 468 364 466 L222 325 L82 465 C80 467 77 468 75 468 C72 468 70 467 67 465 L52 450 C47 444 47 439 52 435 L192 295 L50 153 C46 148 46 144 51 139 L67 124 C69 122 71 120 74 120 C76 120 78 121 80 123 L222 265 L364 123 C365 121 367 120 369 120 C372 120 375 121 378 124 L393 139 C398 144 398 148 394 153 L252 295 L394 436 Z " />
<glyph glyph-name="Oslash" unicode="&#xd8;" horiz-adv-x="805" d="M218 96 C137 156 92 239 92 348 C92 527 237 665 402 665 C454 665 513 650 557 623 L218 96 Z M665 729 C668 734 665 737 656 737 L641 737 C634 737 630 734 627 729 L583 661 C528 692 467 710 402 710 C206 710 47 544 47 348 C47 229 96 132 193 58 L141 -22 C138 -27 142 -30 151 -30 L167 -30 C172 -30 177 -27 180 -22 L219 41 C270 9 338 -10 402 -10 C605 -10 758 158 758 348 C758 471 707 568 610 644 L665 729 L665 729 Z M584 604 C668 545 713 452 713 348 C713 176 574 35 402 35 C347 35 291 49 244 78 L584 604 Z " />
<glyph glyph-name="Ugrave" unicode="&#xd9;" horiz-adv-x="689" d="M105 700 C98 700 94 697 94 690 L94 261 C94 117 176 -10 344 -10 C510 -10 594 117 594 261 L594 690 C594 697 591 700 584 700 L559 700 C552 700 549 697 549 690 L549 265 C549 128 472 35 344 35 C216 35 140 128 140 265 L140 690 C140 697 137 700 130 700 L105 700 L105 700 Z M354 777 C360 780 361 785 358 792 L270 948 C268 953 264 956 260 956 C258 956 257 955 255 955 L235 948 C228 945 226 941 230 935 L323 776 C326 772 328 769 333 769 C334 769 336 770 339 771 L354 777 L354 777 Z " />
<glyph glyph-name="Uacute" unicode="&#xda;" horiz-adv-x="689" d="M105 700 C98 700 94 697 94 690 L94 261 C94 117 176 -10 344 -10 C510 -10 594 117 594 261 L594 690 C594 697 591 700 584 700 L559 700 C552 700 549 697 549 690 L549 265 C549 128 472 35 344 35 C216 35 140 128 140 265 L140 690 C140 697 137 700 130 700 L105 700 L105 700 Z M338 771 C341 770 343 769 345 769 C349 769 352 772 354 776 L447 935 C452 941 450 945 443 948 L422 955 C420 955 419 956 417 956 C413 956 409 953 407 948 L320 792 C317 785 318 780 324 777 L338 771 L338 771 Z " />
<glyph glyph-name="Ucircumflex" unicode="&#xdb;" horiz-adv-x="689" d="M105 700 C98 700 94 697 94 690 L94 261 C94 117 176 -10 344 -10 C510 -10 594 117 594 261 L594 690 C594 697 591 700 584 700 L559 700 C552 700 549 697 549 690 L549 265 C549 128 472 35 344 35 C216 35 140 128 140 265 L140 690 C140 697 137 700 130 700 L105 700 L105 700 Z M336 937 C328 937 321 934 316 927 L191 796 C186 791 186 785 191 780 L200 769 C203 766 205 765 207 765 C211 765 214 768 217 770 L344 903 L471 770 C475 767 478 766 481 766 C483 766 486 767 488 769 L497 780 C502 785 502 791 497 796 L373 927 C366 932 364 937 353 937 L336 937 L336 937 Z " />
<glyph glyph-name="Udieresis" unicode="&#xdc;" horiz-adv-x="689" d="M105 700 C98 700 94 697 94 690 L94 261 C94 117 176 -10 344 -10 C510 -10 594 117 594 261 L594 690 C594 697 591 700 584 700 L559 700 C552 700 549 697 549 690 L549 265 C549 128 472 35 344 35 C216 35 140 128 140 265 L140 690 C140 697 137 700 130 700 L105 700 L105 700 Z M212 831 C212 811 227 796 247 796 C267 796 283 811 283 831 C283 851 267 867 247 867 C227 867 212 851 212 831 L212 831 Z M406 831 C406 811 421 796 441 796 C462 796 477 811 477 831 C477 851 462 867 441 867 C421 867 406 851 406 831 L406 831 Z " />
<glyph glyph-name="Yacute" unicode="&#xdd;" horiz-adv-x="566" d="M87 693 C84 698 80 700 74 700 L43 700 C36 700 34 694 38 690 L261 345 L261 10 C261 3 264 0 271 0 L296 0 C303 0 306 3 306 10 L306 345 L529 690 C532 694 531 700 524 700 L493 700 C488 700 483 698 480 693 L284 388 L87 693 L87 693 Z M281 771 C284 770 286 769 288 769 C292 769 295 772 297 776 L390 935 C395 941 393 945 386 948 L365 955 C363 955 362 956 360 956 C356 956 352 953 350 948 L263 792 C260 785 261 780 267 777 L281 771 L281 771 Z " />
<glyph glyph-name="Thorn" unicode="&#xde;" horiz-adv-x="564" d="M153 555 L303 555 C410 555 489 486 489 378 C489 269 410 193 303 193 L153 193 L153 555 Z M108 10 C108 3 111 0 117 0 L144 0 C150 0 153 3 153 10 L153 150 L308 150 C440 150 535 250 535 378 C535 507 440 599 308 599 L153 599 L153 740 C153 747 150 750 144 750 L117 750 C111 750 108 747 108 740 L108 10 L108 10 Z " />
<glyph glyph-name="germandbls" unicode="&#xdf;" horiz-adv-x="581" d="M212 2 C239 -3 265 -5 290 -5 C424 -5 525 67 525 209 C525 304 451 384 359 408 C449 434 481 506 481 575 C481 681 396 749 289 749 C177 749 108 660 108 563 L108 10 C108 3 112 0 119 0 L145 0 C152 0 156 3 156 10 L156 563 C156 632 202 703 287 703 C380 703 433 644 433 573 C433 477 360 431 248 431 C241 431 237 427 237 419 L237 395 C237 388 240 384 247 384 C361 384 477 316 477 210 C477 96 391 42 286 42 C262 42 238 45 213 50 C205 50 202 48 202 40 L202 15 C202 7 205 3 212 2 L212 2 Z " />
<glyph glyph-name="agrave" unicode="&#xe0;" horiz-adv-x="651" d="M100 250 C100 370 189 466 308 466 C428 466 517 370 517 250 C517 131 428 34 308 34 C189 34 100 131 100 250 L100 250 Z M551 0 C558 0 561 3 561 10 L561 490 C561 497 558 500 551 500 L526 500 C519 500 516 497 516 490 L516 381 C473 456 403 510 303 510 C159 510 55 394 55 250 C55 106 159 -10 303 -10 C405 -10 479 52 516 118 L516 10 C516 3 519 0 526 0 L551 0 L551 0 Z M340 566 C346 569 347 574 344 581 L256 737 C254 742 250 745 246 745 C244 745 243 744 241 744 L221 737 C214 734 212 730 216 724 L309 565 C312 561 314 558 319 558 C320 558 322 559 325 560 L340 566 L340 566 Z " />
<glyph glyph-name="aacute" unicode="&#xe1;" horiz-adv-x="651" d="M100 250 C100 370 189 466 308 466 C428 466 517 370 517 250 C517 131 428 34 308 34 C189 34 100 131 100 250 L100 250 Z M551 0 C558 0 561 3 561 10 L561 490 C561 497 558 500 551 500 L526 500 C519 500 516 497 516 490 L516 381 C473 456 403 510 303 510 C159 510 55 394 55 250 C55 106 159 -10 303 -10 C405 -10 479 52 516 118 L516 10 C516 3 519 0 526 0 L551 0 L551 0 Z M298 560 C301 559 303 558 305 558 C309 558 312 561 314 565 L407 724 C412 730 410 734 403 737 L382 744 C380 744 379 745 377 745 C373 745 369 742 367 737 L280 581 C277 574 278 569 284 566 L298 560 L298 560 Z " />
<glyph glyph-name="acircumflex" unicode="&#xe2;" horiz-adv-x="651" d="M100 250 C100 370 189 466 308 466 C428 466 517 370 517 250 C517 131 428 34 308 34 C189 34 100 131 100 250 L100 250 Z M551 0 C558 0 561 3 561 10 L561 490 C561 497 558 500 551 500 L526 500 C519 500 516 497 516 490 L516 381 C473 456 403 510 303 510 C159 510 55 394 55 250 C55 106 159 -10 303 -10 C405 -10 479 52 516 118 L516 10 C516 3 519 0 526 0 L551 0 L551 0 Z M297 744 C289 744 282 741 277 734 L152 603 C147 598 147 592 152 587 L161 576 C164 573 166 572 168 572 C172 572 175 575 178 577 L305 710 L432 577 C436 574 439 573 442 573 C444 573 447 574 449 576 L458 587 C463 592 463 598 458 603 L334 734 C327 739 325 744 314 744 L297 744 L297 744 Z " />
<glyph glyph-name="atilde" unicode="&#xe3;" horiz-adv-x="651" d="M100 250 C100 370 189 466 308 466 C428 466 517 370 517 250 C517 131 428 34 308 34 C189 34 100 131 100 250 L100 250 Z M551 0 C558 0 561 3 561 10 L561 490 C561 497 558 500 551 500 L526 500 C519 500 516 497 516 490 L516 381 C473 456 403 510 303 510 C159 510 55 394 55 250 C55 106 159 -10 303 -10 C405 -10 479 52 516 118 L516 10 C516 3 519 0 526 0 L551 0 L551 0 Z M377 657 C330 657 294 728 232 728 C199 728 158 701 133 666 C128 661 127 655 130 649 L136 630 C138 625 140 622 142 622 C144 622 146 624 148 627 C167 654 204 690 233 690 C281 690 317 619 378 619 C411 619 452 646 476 681 C481 686 482 692 480 698 L474 717 C472 722 470 725 467 725 C465 725 463 723 461 720 C442 693 406 657 377 657 L377 657 Z " />
<glyph glyph-name="adieresis" unicode="&#xe4;" horiz-adv-x="651" d="M100 250 C100 370 189 466 308 466 C428 466 517 370 517 250 C517 131 428 34 308 34 C189 34 100 131 100 250 L100 250 Z M551 0 C558 0 561 3 561 10 L561 490 C561 497 558 500 551 500 L526 500 C519 500 516 497 516 490 L516 381 C473 456 403 510 303 510 C159 510 55 394 55 250 C55 106 159 -10 303 -10 C405 -10 479 52 516 118 L516 10 C516 3 519 0 526 0 L551 0 L551 0 Z M177 642 C177 622 192 607 212 607 C232 607 248 622 248 642 C248 662 232 678 212 678 C192 678 177 662 177 642 L177 642 Z M371 642 C371 622 386 607 406 607 C427 607 442 622 442 642 C442 662 427 678 406 678 C386 678 371 662 371 642 L371 642 Z " />
<glyph glyph-name="aring" unicode="&#xe5;" horiz-adv-x="651" d="M100 250 C100 370 189 466 308 466 C428 466 517 370 517 250 C517 131 428 34 308 34 C189 34 100 131 100 250 L100 250 Z M551 0 C558 0 561 3 561 10 L561 490 C561 497 558 500 551 500 L526 500 C519 500 516 497 516 490 L516 381 C473 456 403 510 303 510 C159 510 55 394 55 250 C55 106 159 -10 303 -10 C405 -10 479 52 516 118 L516 10 C516 3 519 0 526 0 L551 0 L551 0 Z M206 667 C206 611 252 565 307 565 C363 565 409 611 409 667 C409 723 363 768 307 768 C252 768 206 723 206 667 L206 667 Z M242 667 C242 704 271 733 307 733 C344 733 373 704 373 667 C373 630 344 601 307 601 C271 601 242 630 242 667 L242 667 Z " />
<glyph glyph-name="ae" unicode="&#xe6;" horiz-adv-x="1015" d="M506 270 C517 382 587 466 702 466 C817 466 886 381 897 270 L506 270 Z M480 153 C514 61 600 -10 714 -10 C774 -10 828 2 892 41 C895 44 899 48 895 55 L882 74 C880 78 877 79 874 79 C871 79 869 79 866 77 C809 42 766 34 714 34 C606 34 517 112 506 227 L927 227 C938 227 942 235 942 242 C942 374 859 510 702 510 C588 510 512 442 480 349 C445 445 376 509 267 509 C199 509 150 498 87 471 C80 468 77 462 80 455 L87 441 C89 435 93 433 97 433 C99 433 101 433 103 434 C154 457 205 470 265 470 C378 470 445 374 458 269 C401 310 336 329 264 329 C142 329 53 270 53 167 C53 70 134 -6 254 -6 C374 -6 448 60 480 153 L480 153 Z M458 230 C445 121 379 36 256 36 C160 36 96 92 96 169 C96 253 171 293 267 293 C340 293 395 278 458 230 L458 230 Z " />
<glyph glyph-name="ccedilla" unicode="&#xe7;" horiz-adv-x="500" d="M243 -167 C242 -174 245 -178 253 -178 L273 -178 C281 -178 285 -175 286 -168 L314 -9 C365 -5 405 12 436 32 C443 37 445 40 441 48 L428 66 C426 69 423 71 420 71 C418 71 415 70 412 68 C380 48 342 34 295 34 C176 34 86 131 86 250 C86 370 176 466 295 466 C314 466 361 464 410 432 C413 430 416 430 418 430 C421 430 424 431 426 434 L440 452 C444 458 442 463 435 468 C400 491 355 510 295 510 C151 510 42 394 42 250 C42 125 126 7 274 -9 L243 -167 L243 -167 Z " />
<glyph glyph-name="egrave" unicode="&#xe8;" horiz-adv-x="565" d="M313 566 C319 569 320 574 317 581 L229 737 C227 742 223 745 219 745 C217 745 216 744 214 744 L194 737 C187 734 185 730 189 724 L282 565 C285 561 287 558 292 558 C293 558 295 559 298 560 L313 566 L313 566 Z M295 34 C178 34 98 120 87 227 L508 227 C519 227 523 235 523 242 C523 383 437 510 283 510 C131 510 42 389 42 250 C42 106 151 -10 295 -10 C367 -10 426 10 473 41 C478 44 479 49 476 55 L464 72 C460 77 457 79 453 79 C452 79 450 79 449 78 C405 50 359 34 295 34 L295 34 Z M87 270 C98 381 168 466 283 466 C402 466 467 377 478 270 L87 270 Z " />
<glyph glyph-name="eacute" unicode="&#xe9;" horiz-adv-x="565" d="M295 34 C178 34 98 120 87 227 L508 227 C519 227 523 235 523 242 C523 383 437 510 283 510 C131 510 42 389 42 250 C42 106 151 -10 295 -10 C367 -10 426 10 473 41 C478 44 479 49 476 55 L464 72 C460 77 457 79 453 79 C452 79 450 79 449 78 C405 50 359 34 295 34 L295 34 Z M87 270 C98 381 168 466 283 466 C402 466 467 377 478 270 L87 270 Z M275 560 C278 559 280 558 282 558 C286 558 289 561 291 565 L384 724 C389 730 387 734 380 737 L359 744 C357 744 356 745 354 745 C350 745 346 742 344 737 L257 581 C254 574 255 569 261 566 L275 560 L275 560 Z " />
<glyph glyph-name="ecircumflex" unicode="&#xea;" horiz-adv-x="565" d="M279 744 C271 744 264 741 259 734 L134 603 C129 598 129 592 134 587 L143 576 C146 573 148 572 150 572 C154 572 157 575 160 577 L287 710 L414 577 C418 574 421 573 424 573 C426 573 429 574 431 576 L440 587 C445 592 445 598 440 603 L316 734 C309 739 307 744 296 744 L279 744 L279 744 Z M295 34 C178 34 98 120 87 227 L508 227 C519 227 523 235 523 242 C523 383 437 510 283 510 C131 510 42 389 42 250 C42 106 151 -10 295 -10 C367 -10 426 10 473 41 C478 44 479 49 476 55 L464 72 C460 77 457 79 453 79 C452 79 450 79 449 78 C405 50 359 34 295 34 L295 34 Z M87 270 C98 381 168 466 283 466 C402 466 467 377 478 270 L87 270 Z " />
<glyph glyph-name="edieresis" unicode="&#xeb;" horiz-adv-x="565" d="M150 642 C150 622 165 607 185 607 C205 607 221 622 221 642 C221 662 205 678 185 678 C165 678 150 662 150 642 L150 642 Z M344 642 C344 622 359 607 379 607 C400 607 415 622 415 642 C415 662 400 678 379 678 C359 678 344 662 344 642 L344 642 Z M295 34 C178 34 98 120 87 227 L508 227 C519 227 523 235 523 242 C523 383 437 510 283 510 C131 510 42 389 42 250 C42 106 151 -10 295 -10 C367 -10 426 10 473 41 C478 44 479 49 476 55 L464 72 C460 77 457 79 453 79 C452 79 450 79 449 78 C405 50 359 34 295 34 L295 34 Z M87 270 C98 381 168 466 283 466 C402 466 467 377 478 270 L87 270 Z " />
<glyph glyph-name="igrave" unicode="&#xec;" horiz-adv-x="263" d="M143 0 C150 0 153 3 153 10 L153 490 C153 497 150 500 143 500 L118 500 C111 500 108 497 108 490 L108 10 C108 3 111 0 118 0 L143 0 L143 0 Z M145 566 C151 569 152 574 149 581 L61 737 C59 742 55 745 51 745 C49 745 48 744 46 744 L26 737 C19 734 17 730 21 724 L114 565 C117 561 119 558 124 558 C125 558 127 559 130 560 L145 566 L145 566 Z " />
<glyph glyph-name="iacute" unicode="&#xed;" horiz-adv-x="264" d="M143 0 C150 0 153 3 153 10 L153 490 C153 497 150 500 143 500 L118 500 C111 500 108 497 108 490 L108 10 C108 3 111 0 118 0 L143 0 L143 0 Z M133 560 C136 559 138 558 140 558 C144 558 147 561 149 565 L242 724 C247 730 245 734 238 737 L217 744 C215 744 214 745 212 745 C208 745 204 742 202 737 L115 581 C112 574 113 569 119 566 L133 560 L133 560 Z " />
<glyph glyph-name="icircumflex" unicode="&#xee;" horiz-adv-x="261" d="M122 744 C114 744 107 741 102 734 L-23 603 C-28 598 -28 592 -23 587 L-14 576 C-11 573 -9 572 -7 572 C-3 572 0 575 3 577 L130 710 L257 577 C261 574 264 573 267 573 C269 573 272 574 274 576 L283 587 C288 592 288 598 283 603 L159 734 C152 739 150 744 139 744 L122 744 L122 744 Z M143 0 C150 0 153 3 153 10 L153 490 C153 497 150 500 143 500 L118 500 C111 500 108 497 108 490 L108 10 C108 3 111 0 118 0 L143 0 L143 0 Z " />
<glyph glyph-name="idieresis" unicode="&#xef;" horiz-adv-x="261" d="M-2 642 C-2 622 13 607 33 607 C53 607 69 622 69 642 C69 662 53 678 33 678 C13 678 -2 662 -2 642 L-2 642 Z M192 642 C192 622 207 607 227 607 C248 607 263 622 263 642 C263 662 248 678 227 678 C207 678 192 662 192 642 L192 642 Z M143 0 C150 0 153 3 153 10 L153 490 C153 497 150 500 143 500 L118 500 C111 500 108 497 108 490 L108 10 C108 3 111 0 118 0 L143 0 L143 0 Z " />
<glyph glyph-name="eth" unicode="&#xf0;" horiz-adv-x="606" d="M427 475 C387 500 343 508 302 508 C157 508 50 393 50 250 C50 106 159 -10 303 -10 C447 -10 556 106 556 250 C556 287 548 322 535 354 L413 606 L593 639 C600 640 603 645 600 652 L597 667 C596 674 592 677 587 676 L395 642 L346 743 C343 750 340 750 332 750 L306 750 C297 750 295 747 298 741 L350 633 L173 601 C166 600 165 595 166 588 L169 573 C170 566 174 563 179 564 L367 598 L427 475 Z M303 466 C425 466 511 367 511 250 C511 131 423 34 303 34 C184 34 94 131 94 250 C94 370 184 466 303 466 L303 466 Z " />
<glyph glyph-name="ntilde" unicode="&#xf1;" horiz-adv-x="620" d="M521 0 C528 0 531 3 531 10 L531 271 C531 412 474 510 334 510 C237 510 172 436 148 380 L148 490 C148 497 145 500 138 500 L113 500 C106 500 103 497 103 490 L103 10 C103 3 106 0 113 0 L138 0 C145 0 148 3 148 10 L148 263 C148 367 222 466 327 466 C438 466 486 387 486 267 L486 10 C486 3 489 0 496 0 L521 0 L521 0 Z M385 657 C338 657 302 728 240 728 C207 728 166 701 141 666 C136 661 135 655 138 649 L144 630 C146 625 148 622 150 622 C152 622 154 624 156 627 C175 654 212 690 241 690 C289 690 325 619 386 619 C419 619 460 646 484 681 C489 686 490 692 488 698 L482 717 C480 722 478 725 475 725 C473 725 471 723 469 720 C450 693 414 657 385 657 L385 657 Z " />
<glyph glyph-name="ograve" unicode="&#xf2;" horiz-adv-x="590" d="M42 250 C42 106 151 -10 295 -10 C439 -10 548 106 548 250 C548 394 439 510 295 510 C151 510 42 394 42 250 L42 250 Z M86 250 C86 370 176 466 295 466 C415 466 503 370 503 250 C503 131 415 34 295 34 C176 34 86 131 86 250 L86 250 Z M307 566 C313 569 314 574 311 581 L223 737 C221 742 217 745 213 745 C211 745 210 744 208 744 L188 737 C181 734 179 730 183 724 L276 565 C279 561 281 558 286 558 C287 558 289 559 292 560 L307 566 L307 566 Z " />
<glyph glyph-name="oacute" unicode="&#xf3;" horiz-adv-x="590" d="M42 250 C42 106 151 -10 295 -10 C439 -10 548 106 548 250 C548 394 439 510 295 510 C151 510 42 394 42 250 L42 250 Z M86 250 C86 370 176 466 295 466 C415 466 503 370 503 250 C503 131 415 34 295 34 C176 34 86 131 86 250 L86 250 Z M295 560 C298 559 300 558 302 558 C306 558 309 561 311 565 L404 724 C409 730 407 734 400 737 L379 744 C377 744 376 745 374 745 C370 745 366 742 364 737 L277 581 C274 574 275 569 281 566 L295 560 L295 560 Z " />
<glyph glyph-name="ocircumflex" unicode="&#xf4;" horiz-adv-x="590" d="M42 250 C42 106 151 -10 295 -10 C439 -10 548 106 548 250 C548 394 439 510 295 510 C151 510 42 394 42 250 L42 250 Z M86 250 C86 370 176 466 295 466 C415 466 503 370 503 250 C503 131 415 34 295 34 C176 34 86 131 86 250 L86 250 Z M287 744 C279 744 272 741 267 734 L142 603 C137 598 137 592 142 587 L151 576 C154 573 156 572 158 572 C162 572 165 575 168 577 L295 710 L422 577 C426 574 429 573 432 573 C434 573 437 574 439 576 L448 587 C453 592 453 598 448 603 L324 734 C317 739 315 744 304 744 L287 744 L287 744 Z " />
<glyph glyph-name="otilde" unicode="&#xf5;" horiz-adv-x="590" d="M42 250 C42 106 151 -10 295 -10 C439 -10 548 106 548 250 C548 394 439 510 295 510 C151 510 42 394 42 250 L42 250 Z M86 250 C86 370 176 466 295 466 C415 466 503 370 503 250 C503 131 415 34 295 34 C176 34 86 131 86 250 L86 250 Z M368 657 C321 657 285 728 223 728 C190 728 149 701 124 666 C119 661 118 655 121 649 L127 630 C129 625 131 622 133 622 C135 622 137 624 139 627 C158 654 195 690 224 690 C272 690 308 619 369 619 C402 619 443 646 467 681 C472 686 473 692 471 698 L465 717 C463 722 461 725 458 725 C456 725 454 723 452 720 C433 693 397 657 368 657 L368 657 Z " />
<glyph glyph-name="odieresis" unicode="&#xf6;" horiz-adv-x="590" d="M42 250 C42 106 151 -10 295 -10 C439 -10 548 106 548 250 C548 394 439 510 295 510 C151 510 42 394 42 250 L42 250 Z M86 250 C86 370 176 466 295 466 C415 466 503 370 503 250 C503 131 415 34 295 34 C176 34 86 131 86 250 L86 250 Z M163 642 C163 622 178 607 198 607 C218 607 234 622 234 642 C234 662 218 678 198 678 C178 678 163 662 163 642 L163 642 Z M357 642 C357 622 372 607 392 607 C413 607 428 622 428 642 C428 662 413 678 392 678 C372 678 357 662 357 642 L357 642 Z " />
<glyph glyph-name="divide" unicode="&#xf7;" horiz-adv-x="509" d="M57 320 C51 320 48 317 48 310 L48 290 C48 283 51 280 57 280 L452 280 C458 280 461 283 461 290 L461 310 C461 317 458 320 452 320 L57 320 L57 320 Z M219 455 C219 436 234 420 254 420 C274 420 289 436 289 455 C289 475 274 491 254 491 C234 491 219 475 219 455 L219 455 Z M219 145 C219 125 234 110 254 110 C274 110 289 125 289 145 C289 165 274 180 254 180 C234 180 219 165 219 145 L219 145 Z " />
<glyph glyph-name="oslash" unicode="&#xf8;" horiz-adv-x="590" d="M494 525 C497 532 494 535 485 535 L471 535 C464 535 459 532 455 525 L422 476 C385 499 338 510 295 510 C151 510 42 394 42 250 C42 169 75 92 142 41 L95 -29 C91 -36 96 -39 104 -39 L120 -39 C125 -39 129 -36 134 -29 L169 23 C205 2 248 -10 295 -10 C439 -10 548 106 548 250 C548 329 516 406 449 457 L494 525 L494 525 Z M425 419 C477 378 503 314 503 250 C503 131 415 34 295 34 C256 34 226 42 193 61 L425 419 Z M167 79 C116 119 86 181 86 250 C86 370 176 466 295 466 C330 466 374 455 398 438 L167 79 Z " />
<glyph glyph-name="ugrave" unicode="&#xf9;" horiz-adv-x="620" d="M99 500 C92 500 89 497 89 490 L89 229 C89 88 146 -10 286 -10 C383 -10 448 61 472 120 L472 10 C472 3 475 0 482 0 L507 0 C514 0 517 3 517 10 L517 490 C517 497 514 500 507 500 L482 500 C475 500 472 497 472 490 L472 236 C472 134 398 34 293 34 C182 34 134 113 134 233 L134 490 C134 497 131 500 124 500 L99 500 L99 500 Z M324 566 C330 569 331 574 328 581 L240 737 C238 742 234 745 230 745 C228 745 227 744 225 744 L205 737 C198 734 196 730 200 724 L293 565 C296 561 298 558 303 558 C304 558 306 559 309 560 L324 566 L324 566 Z " />
<glyph glyph-name="uacute" unicode="&#xfa;" horiz-adv-x="620" d="M99 500 C92 500 89 497 89 490 L89 229 C89 88 146 -10 286 -10 C383 -10 448 61 472 120 L472 10 C472 3 475 0 482 0 L507 0 C514 0 517 3 517 10 L517 490 C517 497 514 500 507 500 L482 500 C475 500 472 497 472 490 L472 236 C472 134 398 34 293 34 C182 34 134 113 134 233 L134 490 C134 497 131 500 124 500 L99 500 L99 500 Z M296 560 C299 559 301 558 303 558 C307 558 310 561 312 565 L405 724 C410 730 408 734 401 737 L380 744 C378 744 377 745 375 745 C371 745 367 742 365 737 L278 581 C275 574 276 569 282 566 L296 560 L296 560 Z " />
<glyph glyph-name="ucircumflex" unicode="&#xfb;" horiz-adv-x="620" d="M99 500 C92 500 89 497 89 490 L89 229 C89 88 146 -10 286 -10 C383 -10 448 61 472 120 L472 10 C472 3 475 0 482 0 L507 0 C514 0 517 3 517 10 L517 490 C517 497 514 500 507 500 L482 500 C475 500 472 497 472 490 L472 236 C472 134 398 34 293 34 C182 34 134 113 134 233 L134 490 C134 497 131 500 124 500 L99 500 L99 500 Z M295 744 C287 744 280 741 275 734 L150 603 C145 598 145 592 150 587 L159 576 C162 573 164 572 166 572 C170 572 173 575 176 577 L303 710 L430 577 C434 574 437 573 440 573 C442 573 445 574 447 576 L456 587 C461 592 461 598 456 603 L332 734 C325 739 323 744 312 744 L295 744 L295 744 Z " />
<glyph glyph-name="udieresis" unicode="&#xfc;" horiz-adv-x="620" d="M99 494 C92 494 89 491 89 484 L89 223 C89 82 146 -16 286 -16 C383 -16 448 55 472 114 L472 4 C472 -3 475 -6 482 -6 L507 -6 C514 -6 517 -3 517 4 L517 484 C517 491 514 494 507 494 L482 494 C475 494 472 491 472 484 L472 230 C472 128 398 28 293 28 C182 28 134 107 134 227 L134 484 C134 491 131 494 124 494 L99 494 L99 494 Z M175 642 C175 622 190 607 210 607 C230 607 246 622 246 642 C246 662 230 678 210 678 C190 678 175 662 175 642 L175 642 Z M369 642 C369 622 384 607 404 607 C425 607 440 622 440 642 C440 662 425 678 404 678 C384 678 369 662 369 642 L369 642 Z " />
<glyph glyph-name="yacute" unicode="&#xfd;" horiz-adv-x="623" d="M520 490 C520 497 517 500 510 500 L485 500 C478 500 475 497 475 490 L475 246 C475 144 403 44 296 44 C185 44 137 123 137 243 L137 490 C137 497 133 500 126 500 L102 500 C95 500 92 497 92 490 L92 239 C92 98 149 0 288 0 C383 0 454 70 475 129 L475 2 C475 -117 416 -211 292 -211 C220 -211 162 -179 127 -128 C125 -126 123 -125 121 -125 C119 -125 117 -126 114 -128 L98 -146 C94 -149 94 -154 99 -160 C135 -215 204 -255 292 -255 C439 -255 520 -143 520 4 L520 490 L520 490 Z M297 560 C300 559 302 558 304 558 C308 558 311 561 313 565 L406 724 C411 730 409 734 402 737 L381 744 C379 744 378 745 376 745 C372 745 368 742 366 737 L279 581 C276 574 277 569 283 566 L297 560 L297 560 Z " />
<glyph glyph-name="thorn" unicode="&#xfe;" horiz-adv-x="651" d="M564 250 C564 131 475 34 356 34 C236 34 148 131 148 250 C148 370 236 466 356 466 C475 466 564 365 564 250 L564 250 Z M139 -250 C145 -250 148 -247 148 -240 L148 118 C182 49 261 -10 362 -10 C504 -10 609 106 609 250 C609 394 504 510 362 510 C262 510 189 457 148 381 L148 740 C148 747 145 750 139 750 L112 750 C106 750 103 747 103 740 L103 -240 C103 -247 106 -250 112 -250 L139 -250 L139 -250 Z " />
<glyph glyph-name="ydieresis" unicode="&#xff;" horiz-adv-x="623" d="M520 490 C520 497 517 500 510 500 L485 500 C478 500 475 497 475 490 L475 246 C475 144 403 44 296 44 C185 44 137 123 137 243 L137 490 C137 497 133 500 126 500 L102 500 C95 500 92 497 92 490 L92 239 C92 98 149 0 288 0 C383 0 454 70 475 129 L475 2 C475 -117 416 -211 292 -211 C220 -211 162 -179 127 -128 C125 -126 123 -125 121 -125 C119 -125 117 -126 114 -128 L98 -146 C94 -149 94 -154 99 -160 C135 -215 204 -255 292 -255 C439 -255 520 -143 520 4 L520 490 L520 490 Z M176 642 C176 622 191 607 211 607 C231 607 247 622 247 642 C247 662 231 678 211 678 C191 678 176 662 176 642 L176 642 Z M370 642 C370 622 385 607 405 607 C426 607 441 622 441 642 C441 662 426 678 405 678 C385 678 370 662 370 642 L370 642 Z " />
<glyph glyph-name="Amacron" unicode="&#x100;" horiz-adv-x="603" d="M63 0 C74 0 75 3 78 10 L146 203 L456 203 L524 13 C527 2 529 0 540 0 L566 0 C577 0 578 3 575 10 L332 690 C330 697 326 700 320 700 L283 700 C277 700 273 697 270 690 L28 10 C26 3 29 0 37 0 L63 0 L63 0 Z M161 248 L301 640 L442 248 L161 248 Z M157 854 C157 847 160 844 167 844 L438 844 C445 844 448 847 448 854 L448 875 C448 882 445 885 438 885 L167 885 C160 885 157 882 157 875 L157 854 L157 854 Z " />
<glyph glyph-name="amacron" unicode="&#x101;" horiz-adv-x="651" d="M100 250 C100 370 189 466 308 466 C428 466 517 370 517 250 C517 131 428 34 308 34 C189 34 100 131 100 250 L100 250 Z M551 0 C558 0 561 3 561 10 L561 490 C561 497 558 500 551 500 L526 500 C519 500 516 497 516 490 L516 381 C473 456 403 510 303 510 C159 510 55 394 55 250 C55 106 159 -10 303 -10 C405 -10 479 52 516 118 L516 10 C516 3 519 0 526 0 L551 0 L551 0 Z M164 655 C164 648 167 645 174 645 L445 645 C452 645 455 648 455 655 L455 676 C455 683 452 686 445 686 L174 686 C167 686 164 683 164 676 L164 655 L164 655 Z " />
<glyph glyph-name="Abreve" unicode="&#x102;" horiz-adv-x="603" d="M63 0 C74 0 75 3 78 10 L146 203 L456 203 L524 13 C527 2 529 0 540 0 L566 0 C577 0 578 3 575 10 L332 690 C330 697 326 700 320 700 L283 700 C277 700 273 697 270 690 L28 10 C26 3 29 0 37 0 L63 0 L63 0 Z M161 248 L301 640 L442 248 L161 248 Z M446 904 C446 909 444 912 439 913 L419 918 C418 918 416 919 415 919 C412 919 410 916 410 911 C410 864 371 820 301 820 C232 820 193 864 193 911 C193 916 191 919 187 919 C186 919 185 918 183 918 L164 913 C159 912 156 909 156 904 C159 826 224 782 301 782 C380 782 441 826 446 904 L446 904 Z " />
<glyph glyph-name="abreve" unicode="&#x103;" horiz-adv-x="651" d="M100 250 C100 370 189 466 308 466 C428 466 517 370 517 250 C517 131 428 34 308 34 C189 34 100 131 100 250 L100 250 Z M551 0 C558 0 561 3 561 10 L561 490 C561 497 558 500 551 500 L526 500 C519 500 516 497 516 490 L516 381 C473 456 403 510 303 510 C159 510 55 394 55 250 C55 106 159 -10 303 -10 C405 -10 479 52 516 118 L516 10 C516 3 519 0 526 0 L551 0 L551 0 Z M458 720 C458 725 456 728 451 729 L431 734 C430 734 428 735 427 735 C424 735 422 732 422 727 C422 680 383 636 313 636 C244 636 205 680 205 727 C205 732 203 735 199 735 C198 735 197 734 195 734 L176 729 C171 728 168 725 168 720 C171 642 236 598 313 598 C392 598 453 642 458 720 L458 720 Z " />
<glyph glyph-name="Aogonek" unicode="&#x104;" horiz-adv-x="602" d="M571 0 C576 0 577 3 575 10 L332 690 C330 697 326 700 320 700 L283 700 C277 700 273 697 270 690 L28 10 C26 3 29 0 37 0 L63 0 C74 0 75 3 78 10 L146 203 L456 203 L524 13 C527 6 530 0 534 0 L536 0 C450 -61 480 -189 591 -189 C600 -189 610 -188 620 -186 C626 -185 629 -182 628 -175 L627 -155 C626 -149 621 -148 616 -148 C608 -150 600 -150 593 -150 C509 -150 500 -46 571 0 L571 0 Z M161 248 L301 640 L442 248 L161 248 Z " />
<glyph glyph-name="aogonek" unicode="&#x105;" horiz-adv-x="651" d="M87 250 C87 370 176 466 295 466 C415 466 504 370 504 250 C504 131 415 34 295 34 C176 34 87 131 87 250 L87 250 Z M503 10 C503 3 504 0 507 0 L510 0 C427 -61 455 -189 566 -189 C575 -189 585 -188 595 -186 C602 -185 604 -183 603 -175 L601 -155 C600 -150 596 -147 591 -148 C582 -150 575 -150 567 -150 C483 -150 475 -47 546 0 C547 0 548 3 548 10 L548 490 C548 497 545 500 538 500 L513 500 C506 500 503 497 503 490 L503 381 C460 456 390 510 290 510 C146 510 42 394 42 250 C42 106 146 -10 290 -10 C392 -10 466 52 503 118 L503 10 L503 10 Z " />
<glyph glyph-name="Cacute" unicode="&#x106;" horiz-adv-x="672" d="M600 641 C604 649 601 652 594 656 C545 688 478 710 403 710 C200 710 47 551 47 348 C47 145 200 -10 403 -10 C474 -10 539 9 596 44 C604 49 606 54 601 61 L589 81 C586 84 583 86 580 86 C577 86 574 84 571 82 C526 53 467 35 403 35 C225 35 93 170 93 348 C93 526 225 665 403 665 C467 665 518 650 570 619 C573 617 575 616 578 616 C582 616 585 619 588 622 L600 641 Z M387 772 C390 771 392 770 394 770 C398 770 401 773 403 777 L496 936 C501 942 499 946 492 949 L471 956 C469 956 468 957 466 957 C462 957 458 954 456 949 L369 793 C366 786 367 781 373 778 L387 772 L387 772 Z " />
<glyph glyph-name="cacute" unicode="&#x107;" horiz-adv-x="500" d="M428 66 C426 69 423 71 420 71 C418 71 415 70 412 68 C380 48 342 34 295 34 C176 34 86 131 86 250 C86 370 176 466 295 466 C314 466 361 464 410 432 C413 430 416 430 418 430 C421 430 424 431 426 434 L440 452 C444 458 442 463 435 468 C400 491 355 510 295 510 C151 510 42 394 42 250 C42 106 151 -10 295 -10 C354 -10 404 9 436 32 C443 37 445 40 441 48 L428 66 L428 66 Z M271 560 C274 559 276 558 278 558 C282 558 285 561 287 565 L380 724 C385 730 383 734 376 737 L355 744 C353 744 352 745 350 745 C346 745 342 742 340 737 L253 581 C250 574 251 569 257 566 L271 560 L271 560 Z " />
<glyph glyph-name="Ccircumflex" unicode="&#x108;" horiz-adv-x="672" d="M600 641 C604 649 601 652 594 656 C545 688 478 710 403 710 C200 710 47 551 47 348 C47 145 200 -10 403 -10 C474 -10 539 9 596 44 C604 49 606 54 601 61 L589 81 C586 84 583 86 580 86 C577 86 574 84 571 82 C526 53 467 35 403 35 C225 35 93 170 93 348 C93 526 225 665 403 665 C467 665 518 650 570 619 C573 617 575 616 578 616 C582 616 585 619 588 622 L600 641 Z M377 936 C369 936 362 933 357 926 L232 795 C227 790 227 784 232 779 L241 768 C244 765 246 764 248 764 C252 764 255 767 258 769 L385 902 L512 769 C516 766 519 765 522 765 C524 765 527 766 529 768 L538 779 C543 784 543 790 538 795 L414 926 C407 931 405 936 394 936 L377 936 L377 936 Z " />
<glyph glyph-name="ccircumflex" unicode="&#x109;" horiz-adv-x="500" d="M428 66 C426 69 423 71 420 71 C418 71 415 70 412 68 C380 48 342 34 295 34 C176 34 86 131 86 250 C86 370 176 466 295 466 C314 466 361 464 410 432 C413 430 416 430 418 430 C421 430 424 431 426 434 L440 452 C444 458 442 463 435 468 C400 491 355 510 295 510 C151 510 42 394 42 250 C42 106 151 -10 295 -10 C354 -10 404 9 436 32 C443 37 445 40 441 48 L428 66 L428 66 Z M273 744 C265 744 258 741 253 734 L128 603 C123 598 123 592 128 587 L137 576 C140 573 142 572 144 572 C148 572 151 575 154 577 L281 710 L408 577 C412 574 415 573 418 573 C420 573 423 574 425 576 L434 587 C439 592 439 598 434 603 L310 734 C303 739 301 744 290 744 L273 744 L273 744 Z " />
<glyph glyph-name="Cdotaccent" unicode="&#x10a;" horiz-adv-x="672" d="M600 641 C604 649 601 652 594 656 C545 688 478 710 403 710 C200 710 47 551 47 348 C47 145 200 -10 403 -10 C474 -10 539 9 596 44 C604 49 606 54 601 61 L589 81 C586 84 583 86 580 86 C577 86 574 84 571 82 C526 53 467 35 403 35 C225 35 93 170 93 348 C93 526 225 665 403 665 C467 665 518 650 570 619 C573 617 575 616 578 616 C582 616 585 619 588 622 L600 641 Z M352 851 C352 831 367 816 387 816 C408 816 423 831 423 851 C423 872 408 887 387 887 C367 887 352 872 352 851 L352 851 Z " />
<glyph glyph-name="cdotaccent" unicode="&#x10b;" horiz-adv-x="500" d="M428 66 C426 69 423 71 420 71 C418 71 415 70 412 68 C380 48 342 34 295 34 C176 34 86 131 86 250 C86 370 176 466 295 466 C314 466 361 464 410 432 C413 430 416 430 418 430 C421 430 424 431 426 434 L440 452 C444 458 442 463 435 468 C400 491 355 510 295 510 C151 510 42 394 42 250 C42 106 151 -10 295 -10 C354 -10 404 9 436 32 C443 37 445 40 441 48 L428 66 L428 66 Z M245 654 C245 634 260 619 280 619 C301 619 316 634 316 654 C316 675 301 690 280 690 C260 690 245 675 245 654 L245 654 Z " />
<glyph glyph-name="Ccaron" unicode="&#x10c;" horiz-adv-x="672" d="M600 641 C604 649 601 652 594 656 C545 688 478 710 403 710 C200 710 47 551 47 348 C47 145 200 -10 403 -10 C474 -10 539 9 596 44 C604 49 606 54 601 61 L589 81 C586 84 583 86 580 86 C577 86 574 84 571 82 C526 53 467 35 403 35 C225 35 93 170 93 348 C93 526 225 665 403 665 C467 665 518 650 570 619 C573 617 575 616 578 616 C582 616 585 619 588 622 L600 641 Z M398 770 C409 770 411 775 418 780 L542 911 C547 917 547 923 542 928 L533 938 C531 940 528 941 526 941 C523 941 520 940 516 937 L389 805 L262 937 C259 940 256 941 253 941 C250 941 248 940 245 938 L236 928 C229 921 232 918 236 911 L361 780 C368 773 372 770 381 770 L398 770 L398 770 Z " />
<glyph glyph-name="ccaron" unicode="&#x10d;" horiz-adv-x="500" d="M428 66 C426 69 423 71 420 71 C418 71 415 70 412 68 C380 48 342 34 295 34 C176 34 86 131 86 250 C86 370 176 466 295 466 C314 466 361 464 410 432 C413 430 416 430 418 430 C421 430 424 431 426 434 L440 452 C444 458 442 463 435 468 C400 491 355 510 295 510 C151 510 42 394 42 250 C42 106 151 -10 295 -10 C354 -10 404 9 436 32 C443 37 445 40 441 48 L428 66 L428 66 Z M307 558 C318 558 320 563 327 568 L451 699 C456 705 456 711 451 716 L442 726 C440 728 437 729 435 729 C432 729 429 728 425 725 L298 593 L171 725 C168 728 165 729 162 729 C159 729 157 728 154 726 L145 716 C138 709 141 706 145 699 L270 568 C277 561 281 558 290 558 L307 558 L307 558 Z " />
<glyph glyph-name="Dcaron" unicode="&#x10e;" horiz-adv-x="745" d="M346 0 C546 0 698 156 698 348 C698 544 546 700 346 700 L118 700 C111 700 108 697 108 690 L108 10 C108 3 111 0 118 0 L346 0 L346 0 Z M153 655 L344 655 C517 655 653 522 653 347 C653 184 517 45 344 45 L153 45 L153 655 Z M353 769 C364 769 366 774 373 779 L497 910 C502 916 502 922 497 927 L488 937 C486 939 483 940 481 940 C478 940 475 939 471 936 L344 804 L217 936 C214 939 211 940 208 940 C205 940 203 939 200 937 L191 927 C184 920 187 917 191 910 L316 779 C323 772 327 769 336 769 L353 769 L353 769 Z " />
<glyph glyph-name="dcaron" unicode="&#x10f;" horiz-adv-x="677" d="M635 574 C634 567 638 563 645 563 L664 563 C672 563 676 566 677 573 L707 739 C708 746 705 750 698 750 L675 750 C666 750 664 746 663 739 L635 574 L635 574 Z M87 250 C87 365 176 466 295 466 C415 466 504 370 504 250 C504 131 415 34 295 34 C176 34 87 131 87 250 L87 250 Z M538 0 C545 0 548 3 548 10 L548 740 C548 747 545 750 538 750 L513 750 C506 750 503 747 503 740 L503 381 C462 457 389 510 290 510 C146 510 42 394 42 250 C42 106 146 -10 290 -10 C392 -10 466 50 503 118 L503 10 C503 3 506 0 513 0 L538 0 L538 0 Z " />
<glyph glyph-name="Dcroat" unicode="&#x110;" horiz-adv-x="745" d="M108 10 C108 3 111 0 117 0 L346 0 C546 0 698 156 698 348 C698 544 546 700 346 700 L117 700 C111 700 108 697 108 690 L108 372 L32 372 C26 372 23 368 23 361 L23 342 C23 335 26 331 32 331 L108 331 L108 10 Z M153 655 L344 655 C517 655 653 522 653 347 C653 184 517 45 344 45 L153 45 L153 331 L277 331 C284 331 288 334 288 341 L288 362 C288 369 284 372 277 372 L153 372 L153 655 Z " />
<glyph glyph-name="dcroat" unicode="&#x111;" horiz-adv-x="651" d="M629 568 C635 568 638 572 638 579 L638 596 C638 603 635 607 629 607 L548 607 L548 740 C548 747 545 750 538 750 L513 750 C506 750 503 747 503 740 L503 607 L379 607 C373 607 370 603 370 596 L370 579 C370 572 371 568 379 568 L503 568 L503 381 C462 457 389 510 290 510 C146 510 42 394 42 250 C42 106 146 -10 290 -10 C392 -10 466 50 503 118 L503 10 C503 3 506 0 513 0 L538 0 C545 0 548 3 548 10 L548 568 L629 568 Z M87 250 C87 365 176 466 295 466 C415 466 504 370 504 250 C504 131 415 34 295 34 C176 34 87 131 87 250 L87 250 Z " />
<glyph glyph-name="Emacron" unicode="&#x112;" horiz-adv-x="578" d="M118 700 C111 700 108 697 108 690 L108 10 C108 3 111 0 118 0 L508 0 C515 0 518 3 518 10 L518 35 C518 42 515 45 508 45 L153 45 L153 328 L473 328 C480 328 483 331 483 338 L483 362 C483 369 480 372 473 372 L153 372 L153 655 L508 655 C515 655 518 658 518 665 L518 690 C518 697 515 700 508 700 L118 700 L118 700 Z M167 854 C167 847 170 844 177 844 L448 844 C455 844 458 847 458 854 L458 875 C458 882 455 885 448 885 L177 885 C170 885 167 882 167 875 L167 854 L167 854 Z " />
<glyph glyph-name="emacron" unicode="&#x113;" horiz-adv-x="565" d="M295 34 C178 34 98 120 87 227 L508 227 C519 227 523 235 523 242 C523 383 437 510 283 510 C131 510 42 389 42 250 C42 106 151 -10 295 -10 C367 -10 426 10 473 41 C478 44 479 49 476 55 L464 72 C460 77 457 79 453 79 C452 79 450 79 449 78 C405 50 359 34 295 34 L295 34 Z M87 270 C98 381 168 466 283 466 C402 466 467 377 478 270 L87 270 Z M142 655 C142 648 145 645 152 645 L423 645 C430 645 433 648 433 655 L433 676 C433 683 430 686 423 686 L152 686 C145 686 142 683 142 676 L142 655 L142 655 Z " />
<glyph glyph-name="Ebreve" unicode="&#x114;" horiz-adv-x="578" d="M118 700 C111 700 108 697 108 690 L108 10 C108 3 111 0 118 0 L508 0 C515 0 518 3 518 10 L518 35 C518 42 515 45 508 45 L153 45 L153 328 L473 328 C480 328 483 331 483 338 L483 362 C483 369 480 372 473 372 L153 372 L153 655 L508 655 C515 655 518 658 518 665 L518 690 C518 697 515 700 508 700 L118 700 L118 700 Z M460 905 C460 910 458 913 453 914 L433 919 C432 919 430 920 429 920 C426 920 424 917 424 912 C424 865 385 821 315 821 C246 821 207 865 207 912 C207 917 205 920 201 920 C200 920 199 919 197 919 L178 914 C173 913 170 910 170 905 C173 827 238 783 315 783 C394 783 455 827 460 905 L460 905 Z " />
<glyph glyph-name="ebreve" unicode="&#x115;" horiz-adv-x="565" d="M295 34 C178 34 98 120 87 227 L508 227 C519 227 523 235 523 242 C523 383 437 510 283 510 C131 510 42 389 42 250 C42 106 151 -10 295 -10 C367 -10 426 10 473 41 C478 44 479 49 476 55 L464 72 C460 77 457 79 453 79 C452 79 450 79 449 78 C405 50 359 34 295 34 L295 34 Z M87 270 C98 381 168 466 283 466 C402 466 467 377 478 270 L87 270 Z M432 720 C432 725 430 728 425 729 L405 734 C404 734 402 735 401 735 C398 735 396 732 396 727 C396 680 357 636 287 636 C218 636 179 680 179 727 C179 732 177 735 173 735 C172 735 171 734 169 734 L150 729 C145 728 142 725 142 720 C145 642 210 598 287 598 C366 598 427 642 432 720 L432 720 Z " />
<glyph glyph-name="Edotaccent" unicode="&#x116;" horiz-adv-x="578" d="M118 700 C111 700 108 697 108 690 L108 10 C108 3 111 0 118 0 L508 0 C515 0 518 3 518 10 L518 35 C518 42 515 45 508 45 L153 45 L153 328 L473 328 C480 328 483 331 483 338 L483 362 C483 369 480 372 473 372 L153 372 L153 655 L508 655 C515 655 518 658 518 665 L518 690 C518 697 515 700 508 700 L118 700 L118 700 Z M272 862 C272 842 287 827 307 827 C328 827 343 842 343 862 C343 883 328 898 307 898 C287 898 272 883 272 862 L272 862 Z " />
<glyph glyph-name="edotaccent" unicode="&#x117;" horiz-adv-x="565" d="M295 34 C178 34 98 120 87 227 L508 227 C519 227 523 235 523 242 C523 383 437 510 283 510 C131 510 42 389 42 250 C42 106 151 -10 295 -10 C367 -10 426 10 473 41 C478 44 479 49 476 55 L464 72 C460 77 457 79 453 79 C452 79 450 79 449 78 C405 50 359 34 295 34 L295 34 Z M87 270 C98 381 168 466 283 466 C402 466 467 377 478 270 L87 270 Z M244 676 C244 656 259 641 279 641 C300 641 315 656 315 676 C315 697 300 712 279 712 C259 712 244 697 244 676 L244 676 Z " />
<glyph glyph-name="Eogonek" unicode="&#x118;" horiz-adv-x="578" d="M510 0 C515 4 518 5 518 10 L518 35 C518 42 515 45 508 45 L153 45 L153 328 L473 328 C480 328 483 331 483 338 L483 362 C483 369 480 372 473 372 L153 372 L153 655 L508 655 C515 655 518 658 518 665 L518 690 C518 697 515 700 508 700 L118 700 C111 700 108 697 108 690 L108 10 C108 3 111 0 118 0 L467 0 C395 -75 425 -188 532 -188 C541 -188 550 -188 560 -186 C567 -185 571 -181 570 -174 L568 -155 C567 -150 563 -147 558 -148 C549 -150 541 -151 534 -151 C452 -151 443 -52 510 0 L510 0 Z " />
<glyph glyph-name="eogonek" unicode="&#x119;" horiz-adv-x="565" d="M87 270 C98 382 168 466 283 466 C400 466 465 380 478 270 L87 270 Z M264 -8 C201 -85 236 -189 337 -189 C346 -189 355 -188 365 -186 C372 -185 376 -181 375 -174 L373 -155 C372 -150 368 -147 363 -148 C354 -150 346 -151 338 -151 C262 -151 250 -64 304 -10 C376 -7 426 10 473 41 C478 44 479 49 476 55 L464 72 C460 77 457 79 453 79 C452 79 450 79 449 78 C405 50 359 34 295 34 C178 34 98 120 87 227 L508 227 C519 227 523 235 523 242 C523 379 437 510 283 510 C131 510 42 389 42 250 C42 107 148 3 264 -8 L264 -8 Z " />
<glyph glyph-name="Ecaron" unicode="&#x11a;" horiz-adv-x="578" d="M118 700 C111 700 108 697 108 690 L108 10 C108 3 111 0 118 0 L508 0 C515 0 518 3 518 10 L518 35 C518 42 515 45 508 45 L153 45 L153 328 L473 328 C480 328 483 331 483 338 L483 362 C483 369 480 372 473 372 L153 372 L153 655 L508 655 C515 655 518 658 518 665 L518 690 C518 697 515 700 508 700 L118 700 L118 700 Z M325 770 C336 770 338 775 345 780 L469 911 C474 917 474 923 469 928 L460 938 C458 940 455 941 453 941 C450 941 447 940 443 937 L316 805 L189 937 C186 940 183 941 180 941 C177 941 175 940 172 938 L163 928 C156 921 159 918 163 911 L288 780 C295 773 299 770 308 770 L325 770 L325 770 Z " />
<glyph glyph-name="ecaron" unicode="&#x11b;" horiz-adv-x="565" d="M293 564 C304 564 306 569 313 574 L437 705 C442 711 442 717 437 722 L428 732 C426 734 423 735 421 735 C418 735 415 734 411 731 L284 599 L157 731 C154 734 151 735 148 735 C145 735 143 734 140 732 L131 722 C124 715 127 712 131 705 L256 574 C263 567 267 564 276 564 L293 564 L293 564 Z M295 34 C178 34 98 120 87 227 L508 227 C519 227 523 235 523 242 C523 383 437 510 283 510 C131 510 42 389 42 250 C42 106 151 -10 295 -10 C367 -10 426 10 473 41 C478 44 479 49 476 55 L464 72 C460 77 457 79 453 79 C452 79 450 79 449 78 C405 50 359 34 295 34 L295 34 Z M87 270 C98 381 168 466 283 466 C402 466 467 377 478 270 L87 270 Z " />
<glyph glyph-name="Gcircumflex" unicode="&#x11c;" horiz-adv-x="715" d="M581 76 C529 47 478 35 403 35 C226 35 93 170 93 348 C93 526 224 665 403 665 C467 665 518 650 571 618 C575 616 578 615 580 615 C585 615 587 618 589 621 L600 639 C605 646 603 651 596 655 C545 687 480 710 404 710 C200 710 47 552 47 348 C47 145 200 -10 403 -10 C484 -10 544 3 614 41 C621 46 625 51 625 57 L625 330 C625 337 622 340 615 340 L392 340 C385 340 381 337 381 330 L381 309 C381 302 385 299 392 299 L581 299 L581 76 L581 76 Z M391 936 C383 936 376 933 371 926 L246 795 C241 790 241 784 246 779 L255 768 C258 765 260 764 262 764 C266 764 269 767 272 769 L399 902 L526 769 C530 766 533 765 536 765 C538 765 541 766 543 768 L552 779 C557 784 557 790 552 795 L428 926 C421 931 419 936 408 936 L391 936 L391 936 Z " />
<glyph glyph-name="gcircumflex" unicode="&#x11d;" horiz-adv-x="651" d="M87 250 C87 365 176 466 295 466 C415 466 505 371 505 250 C505 131 415 35 295 35 C176 35 87 131 87 250 L87 250 Z M548 490 C548 497 545 500 538 500 L513 500 C506 500 503 497 503 490 L503 381 C460 456 389 510 289 510 C147 510 42 394 42 250 C42 106 147 -9 289 -9 C393 -9 466 52 503 119 L503 -2 C503 -121 420 -211 296 -211 C225 -211 165 -185 122 -142 C120 -140 117 -138 115 -138 C113 -138 111 -140 108 -142 L93 -160 C88 -165 89 -169 94 -174 C138 -219 209 -255 296 -255 C444 -255 548 -148 548 0 L548 490 L548 490 Z M303 744 C295 744 288 741 283 734 L158 603 C153 598 153 592 158 587 L167 576 C170 573 172 572 174 572 C178 572 181 575 184 577 L311 710 L438 577 C442 574 445 573 448 573 C450 573 453 574 455 576 L464 587 C469 592 469 598 464 603 L340 734 C333 739 331 744 320 744 L303 744 L303 744 Z " />
<glyph glyph-name="Gbreve" unicode="&#x11e;" horiz-adv-x="715" d="M581 76 C529 47 478 35 403 35 C226 35 93 170 93 348 C93 526 224 665 403 665 C467 665 518 650 571 618 C575 616 578 615 580 615 C585 615 587 618 589 621 L600 639 C605 646 603 651 596 655 C545 687 480 710 404 710 C200 710 47 552 47 348 C47 145 200 -10 403 -10 C484 -10 544 3 614 41 C621 46 625 51 625 57 L625 330 C625 337 622 340 615 340 L392 340 C385 340 381 337 381 330 L381 309 C381 302 385 299 392 299 L581 299 L581 76 L581 76 Z M543 905 C543 910 541 913 536 914 L516 919 C515 919 513 920 512 920 C509 920 507 917 507 912 C507 865 468 821 398 821 C329 821 290 865 290 912 C290 917 288 920 284 920 C283 920 282 919 280 919 L261 914 C256 913 253 910 253 905 C256 827 321 783 398 783 C477 783 538 827 543 905 L543 905 Z " />
<glyph glyph-name="gbreve" unicode="&#x11f;" horiz-adv-x="651" d="M87 250 C87 365 176 466 295 466 C415 466 505 371 505 250 C505 131 415 35 295 35 C176 35 87 131 87 250 L87 250 Z M548 490 C548 497 545 500 538 500 L513 500 C506 500 503 497 503 490 L503 381 C460 456 389 510 289 510 C147 510 42 394 42 250 C42 106 147 -9 289 -9 C393 -9 466 52 503 119 L503 -2 C503 -121 420 -211 296 -211 C225 -211 165 -185 122 -142 C120 -140 117 -138 115 -138 C113 -138 111 -140 108 -142 L93 -160 C88 -165 89 -169 94 -174 C138 -219 209 -255 296 -255 C444 -255 548 -148 548 0 L548 490 L548 490 Z M454 720 C454 725 452 728 447 729 L427 734 C426 734 424 735 423 735 C420 735 418 732 418 727 C418 680 379 636 309 636 C240 636 201 680 201 727 C201 732 199 735 195 735 C194 735 193 734 191 734 L172 729 C167 728 164 725 164 720 C167 642 232 598 309 598 C388 598 449 642 454 720 L454 720 Z " />
<glyph glyph-name="Gdotaccent" unicode="&#x120;" horiz-adv-x="715" d="M581 76 C529 47 478 35 403 35 C226 35 93 170 93 348 C93 526 224 665 403 665 C467 665 518 650 571 618 C575 616 578 615 580 615 C585 615 587 618 589 621 L600 639 C605 646 603 651 596 655 C545 687 480 710 404 710 C200 710 47 552 47 348 C47 145 200 -10 403 -10 C484 -10 544 3 614 41 C621 46 625 51 625 57 L625 330 C625 337 622 340 615 340 L392 340 C385 340 381 337 381 330 L381 309 C381 302 385 299 392 299 L581 299 L581 76 L581 76 Z M352 851 C352 831 367 816 387 816 C408 816 423 831 423 851 C423 872 408 887 387 887 C367 887 352 872 352 851 L352 851 Z " />
<glyph glyph-name="gdotaccent" unicode="&#x121;" horiz-adv-x="651" d="M87 250 C87 365 176 466 295 466 C415 466 505 371 505 250 C505 131 415 35 295 35 C176 35 87 131 87 250 L87 250 Z M548 490 C548 497 545 500 538 500 L513 500 C506 500 503 497 503 490 L503 381 C460 456 389 510 289 510 C147 510 42 394 42 250 C42 106 147 -9 289 -9 C393 -9 466 52 503 119 L503 -2 C503 -121 420 -211 296 -211 C225 -211 165 -185 122 -142 C120 -140 117 -138 115 -138 C113 -138 111 -140 108 -142 L93 -160 C88 -165 89 -169 94 -174 C138 -219 209 -255 296 -255 C444 -255 548 -148 548 0 L548 490 L548 490 Z M272 676 C272 656 287 641 307 641 C328 641 343 656 343 676 C343 697 328 712 307 712 C287 712 272 697 272 676 L272 676 Z " />
<glyph glyph-name="uni0122" unicode="&#x122;" horiz-adv-x="715" d="M581 76 C529 47 478 35 403 35 C226 35 93 170 93 348 C93 526 224 665 403 665 C467 665 517 647 570 614 C573 612 576 611 578 611 C582 611 585 614 587 618 L600 639 C605 646 603 651 596 655 C545 687 480 710 404 710 C200 710 47 552 47 348 C47 145 200 -10 403 -10 C483 -10 546 2 614 41 C621 46 625 51 625 57 L625 330 C625 337 622 340 615 340 L392 340 C385 340 381 337 381 330 L381 309 C381 302 385 299 392 299 L581 299 L581 76 L581 76 Z M364 -225 C363 -232 368 -236 373 -236 L392 -236 C400 -236 404 -233 405 -226 L435 -60 C437 -53 434 -49 426 -49 L404 -49 C397 -49 392 -53 391 -60 L364 -225 L364 -225 Z " />
<glyph glyph-name="uni0123" unicode="&#x123;" horiz-adv-x="651" d="M87 250 C87 365 176 466 295 466 C415 466 505 371 505 250 C505 131 415 35 295 35 C176 35 87 131 87 250 L87 250 Z M548 490 C548 497 545 500 538 500 L513 500 C506 500 503 497 503 490 L503 381 C460 456 389 510 289 510 C147 510 42 394 42 250 C42 106 147 -9 289 -9 C393 -9 466 52 503 119 L503 -2 C503 -121 420 -211 296 -211 C225 -211 165 -185 122 -142 C120 -140 117 -138 115 -138 C113 -138 111 -140 108 -142 L93 -160 C88 -165 89 -169 94 -174 C138 -219 209 -255 296 -255 C444 -255 548 -148 548 0 L548 490 L548 490 Z M348 760 C349 767 345 771 338 771 L319 771 C311 771 307 768 306 761 L276 595 C275 588 278 584 285 584 L308 584 C317 584 319 588 320 595 L348 760 L348 760 Z " />
<glyph glyph-name="Hcircumflex" unicode="&#x124;" horiz-adv-x="728" d="M143 0 C150 0 153 3 153 10 L153 331 L574 331 L574 10 C574 3 578 0 585 0 L609 0 C616 0 620 3 620 10 L620 690 C620 697 616 700 609 700 L585 700 C578 700 574 697 574 690 L574 377 L153 377 L153 690 C153 697 150 700 143 700 L118 700 C111 700 108 697 108 690 L108 10 C108 3 111 0 118 0 L143 0 L143 0 Z M356 936 C348 936 341 933 336 926 L211 795 C206 790 206 784 211 779 L220 768 C223 765 225 764 227 764 C231 764 234 767 237 769 L364 902 L491 769 C495 766 498 765 501 765 C503 765 506 766 508 768 L517 779 C522 784 522 790 517 795 L393 926 C386 931 384 936 373 936 L356 936 L356 936 Z " />
<glyph glyph-name="hcircumflex" unicode="&#x125;" horiz-adv-x="620" d="M138 0 C145 0 148 3 148 10 L148 252 C148 354 222 466 327 466 C438 466 486 387 486 267 L486 10 C486 3 489 0 496 0 L521 0 C528 0 531 3 531 10 L531 271 C531 412 474 510 334 510 C237 510 172 438 148 381 L148 740 C148 747 145 750 138 750 L113 750 C106 750 103 747 103 740 L103 10 C103 3 106 0 113 0 L138 0 L138 0 Z M117 940 C109 940 102 937 97 930 L-28 799 C-33 794 -33 788 -28 783 L-19 772 C-16 769 -14 768 -12 768 C-8 768 -5 771 -2 773 L125 906 L252 773 C256 770 259 769 262 769 C264 769 267 770 269 772 L278 783 C283 788 283 794 278 799 L154 930 C147 935 145 940 134 940 L117 940 L117 940 Z " />
<glyph glyph-name="Hbar" unicode="&#x126;" horiz-adv-x="728" d="M575 373 L154 373 L154 500 L575 500 L575 373 Z M711 500 C722 500 722 504 722 512 L722 524 C722 531 718 535 711 535 L620 535 L620 690 C620 697 616 700 609 700 L585 700 C578 700 574 697 574 690 L574 535 L153 535 L153 690 C153 697 149 700 142 700 L119 700 C112 700 108 697 108 690 L108 535 L17 535 C10 535 6 532 6 525 L6 511 C6 504 10 500 17 500 L108 500 L108 10 C108 3 112 0 119 0 L142 0 C149 0 153 3 153 10 L153 328 L574 328 L574 10 C574 3 578 0 585 0 L609 0 C616 0 620 3 620 10 L620 500 L711 500 Z " />
<glyph glyph-name="hbar" unicode="&#x127;" horiz-adv-x="620" d="M148 740 C148 747 145 750 138 750 L113 750 C106 750 103 747 103 740 L103 616 L23 616 C16 616 13 612 13 605 L13 588 C13 581 16 577 23 577 L103 577 L103 10 C103 3 106 0 113 0 L138 0 C145 0 148 3 148 10 L148 252 C148 354 222 466 327 466 C438 466 486 387 486 267 L486 10 C486 3 489 0 496 0 L521 0 C528 0 531 3 531 10 L531 271 C531 412 474 510 334 510 C237 510 172 438 148 381 L148 577 L271 577 C278 577 282 581 282 588 L282 605 C282 612 278 616 271 616 L148 616 L148 740 Z " />
<glyph glyph-name="Itilde" unicode="&#x128;" horiz-adv-x="251" d="M138 -5 C145 -5 148 -2 148 5 L148 685 C148 692 145 695 138 695 L113 695 C106 695 103 692 103 685 L103 5 C103 -2 106 -5 113 -5 L138 -5 L138 -5 Z M202 849 C155 849 119 920 57 920 C24 920 -17 893 -42 858 C-47 853 -48 847 -45 841 L-39 822 C-37 817 -35 814 -33 814 C-31 814 -29 816 -27 819 C-8 846 29 882 58 882 C106 882 142 811 203 811 C236 811 277 838 301 873 C306 878 307 884 305 890 L299 909 C297 914 295 917 292 917 C290 917 288 915 286 912 C267 885 231 849 202 849 L202 849 Z " />
<glyph glyph-name="itilde" unicode="&#x129;" horiz-adv-x="251" d="M198 657 C151 657 115 728 53 728 C20 728 -21 701 -46 666 C-51 661 -52 655 -49 649 L-43 630 C-41 625 -39 622 -37 622 C-35 622 -33 624 -31 627 C-12 654 25 690 54 690 C102 690 138 619 199 619 C232 619 273 646 297 681 C302 686 303 692 301 698 L295 717 C293 722 291 725 288 725 C286 725 284 723 282 720 C263 693 227 657 198 657 L198 657 Z M138 0 C145 0 148 3 148 10 L148 490 C148 497 145 500 138 500 L113 500 C106 500 103 497 103 490 L103 10 C103 3 106 0 113 0 L138 0 L138 0 Z " />
<glyph glyph-name="Imacron" unicode="&#x12a;" horiz-adv-x="251" d="M138 0 C145 0 148 3 148 10 L148 690 C148 697 145 700 138 700 L113 700 C106 700 103 697 103 690 L103 10 C103 3 106 0 113 0 L138 0 L138 0 Z M-19 856 C-19 849 -16 846 -9 846 L262 846 C269 846 272 849 272 856 L272 877 C272 884 269 887 262 887 L-9 887 C-16 887 -19 884 -19 877 L-19 856 L-19 856 Z " />
<glyph glyph-name="imacron" unicode="&#x12b;" horiz-adv-x="251" d="M138 0 C145 0 148 3 148 10 L148 490 C148 497 145 500 138 500 L113 500 C106 500 103 497 103 490 L103 10 C103 3 106 0 113 0 L138 0 L138 0 Z M-19 655 C-19 648 -16 645 -9 645 L262 645 C269 645 272 648 272 655 L272 676 C272 683 269 686 262 686 L-9 686 C-16 686 -19 683 -19 676 L-19 655 L-19 655 Z " />
<glyph glyph-name="Iogonek" unicode="&#x12e;" horiz-adv-x="251" d="M103 5 C22 -62 45 -189 162 -189 C172 -189 182 -188 193 -186 C199 -185 202 -181 202 -174 L201 -155 C201 -150 199 -147 195 -147 C193 -147 192 -148 190 -148 C180 -150 171 -151 163 -151 C77 -151 71 -44 144 0 C147 0 148 3 148 10 L148 690 C148 697 145 700 138 700 L113 700 C106 700 103 697 103 690 L103 5 L103 5 Z " />
<glyph glyph-name="iogonek" unicode="&#x12f;" horiz-adv-x="251" d="M103 5 C22 -62 45 -189 162 -189 C172 -189 182 -188 193 -186 C199 -185 202 -181 202 -174 L201 -155 C201 -150 199 -147 195 -147 C193 -147 192 -148 190 -148 C180 -150 171 -151 163 -151 C77 -151 71 -44 144 0 C147 0 148 3 148 10 L148 490 C148 497 145 500 138 500 L113 500 C106 500 103 497 103 490 L103 5 L103 5 Z M89 717 C89 697 105 682 125 682 C146 682 161 697 161 717 C161 738 146 754 125 754 C105 754 89 738 89 717 L89 717 Z " />
<glyph glyph-name="Idotaccent" unicode="&#x130;" horiz-adv-x="251" d="M138 0 C145 0 148 3 148 10 L148 690 C148 697 145 700 138 700 L113 700 C106 700 103 697 103 690 L103 10 C103 3 106 0 113 0 L138 0 L138 0 Z M90 862 C90 842 105 827 125 827 C146 827 161 842 161 862 C161 883 146 898 125 898 C105 898 90 883 90 862 L90 862 Z " />
<glyph glyph-name="dotlessi" unicode="&#x131;" horiz-adv-x="251" d="M138 0 C145 0 148 3 148 10 L148 490 C148 497 145 500 138 500 L113 500 C106 500 103 497 103 490 L103 10 C103 3 106 0 113 0 L138 0 L138 0 Z " />
<glyph glyph-name="IJ" unicode="&#x132;" horiz-adv-x="747" d="M143 0 C150 0 153 3 153 10 L153 690 C153 697 150 700 143 700 L118 700 C111 700 108 697 108 690 L108 10 C108 3 111 0 118 0 L143 0 L143 0 Z M639 690 C639 697 636 700 629 700 L604 700 C597 700 594 697 594 690 L594 183 C594 90 537 35 450 35 C394 35 359 50 320 74 C317 76 314 77 312 77 C309 77 307 76 305 73 L291 51 C288 46 289 41 293 38 C336 9 392 -10 451 -10 C560 -10 639 62 639 181 L639 690 L639 690 Z " />
<glyph glyph-name="ij" unicode="&#x133;" horiz-adv-x="534" d="M149 0 C156 0 159 3 159 10 L159 490 C159 497 156 500 149 500 L124 500 C117 500 114 497 114 490 L114 10 C114 3 117 0 124 0 L149 0 L149 0 Z M100 717 C100 697 116 682 136 682 C157 682 172 697 172 717 C172 738 157 754 136 754 C116 754 100 738 100 717 L100 717 Z M231 -227 C228 -234 230 -238 237 -241 C260 -250 279 -255 306 -255 C377 -255 421 -208 421 -140 L421 490 C421 497 417 500 410 500 L386 500 C379 500 376 497 376 490 L376 -136 C376 -180 345 -211 304 -211 C283 -211 268 -208 253 -201 C252 -200 250 -200 249 -200 C246 -200 243 -202 241 -206 L231 -227 L231 -227 Z M362 717 C362 697 378 682 398 682 C418 682 434 697 434 717 C434 738 418 754 398 754 C378 754 362 738 362 717 L362 717 Z " />
<glyph glyph-name="Jcircumflex" unicode="&#x134;" horiz-adv-x="496" d="M387 690 C387 697 384 700 377 700 L352 700 C345 700 342 697 342 690 L342 183 C342 90 285 35 197 35 C141 35 107 50 68 74 C65 76 62 77 60 77 C57 77 55 76 53 73 L39 51 C36 46 37 41 41 38 C84 9 140 -10 199 -10 C308 -10 387 62 387 181 L387 690 L387 690 Z M357 936 C349 936 342 933 337 926 L212 795 C207 790 207 784 212 779 L221 768 C224 765 226 764 228 764 C232 764 235 767 238 769 L365 902 L492 769 C496 766 499 765 502 765 C504 765 507 766 509 768 L518 779 C523 784 523 790 518 795 L394 926 C387 931 385 936 374 936 L357 936 L357 936 Z " />
<glyph glyph-name="jcircumflex" unicode="&#x135;" horiz-adv-x="304" d="M2 -227 C-1 -234 2 -238 9 -241 C32 -250 53 -255 78 -255 C149 -255 192 -208 192 -140 L192 490 C192 497 189 500 182 500 L157 500 C150 500 147 497 147 490 L147 -136 C147 -180 116 -211 75 -211 C54 -211 39 -208 24 -201 C23 -200 21 -200 20 -200 C17 -200 14 -202 12 -206 L2 -227 L2 -227 Z M161 744 C153 744 146 741 141 734 L16 603 C11 598 11 592 16 587 L25 576 C28 573 30 572 32 572 C36 572 39 575 42 577 L169 710 L296 577 C300 574 303 573 306 573 C308 573 311 574 313 576 L322 587 C327 592 327 598 322 603 L198 734 C191 739 189 744 178 744 L161 744 L161 744 Z " />
<glyph glyph-name="uni0136" unicode="&#x136;" horiz-adv-x="642" d="M597 0 C606 0 607 5 603 10 L311 427 L573 690 C578 695 577 700 569 700 L535 700 C524 700 521 698 514 691 L153 331 L153 690 C153 697 150 700 143 700 L118 700 C111 700 108 697 108 690 L108 10 C108 3 111 0 118 0 L143 0 C150 0 153 3 153 10 L153 270 L279 394 L546 10 C553 3 555 0 566 0 L597 0 Z M292 -225 C291 -232 295 -236 302 -236 L321 -236 C328 -236 332 -233 334 -226 L364 -60 C365 -53 362 -49 355 -49 L332 -49 C325 -49 320 -53 319 -60 L292 -225 L292 -225 Z " />
<glyph glyph-name="uni0137" unicode="&#x137;" horiz-adv-x="529" d="M251 -225 C250 -232 254 -236 261 -236 L279 -236 C287 -236 291 -233 292 -226 L323 -60 C324 -53 321 -49 313 -49 L291 -49 C284 -49 279 -53 278 -60 L251 -225 L251 -225 Z M437 8 C441 3 444 0 455 0 L484 0 C492 0 496 5 489 12 L274 301 L463 490 C467 494 466 500 459 500 L426 500 C419 500 413 498 408 494 L148 239 L148 740 C148 747 145 750 138 750 L113 750 C106 750 103 747 103 740 L103 10 C103 3 106 0 113 0 L138 0 C145 0 148 3 148 10 L148 180 L240 270 L437 8 L437 8 Z " />
<glyph glyph-name="kgreenlandic" unicode="&#x138;" horiz-adv-x="529" d="M437 8 C441 3 444 0 455 0 L484 0 C492 0 496 5 489 12 L274 301 L463 490 C467 494 466 500 459 500 L426 500 C419 500 413 498 408 494 L148 239 L148 490 C148 497 145 500 138 500 L113 500 C106 500 103 497 103 490 L103 10 C103 3 106 0 113 0 L138 0 C145 0 148 3 148 10 L148 180 L240 270 L437 8 L437 8 Z " />
<glyph glyph-name="Lacute" unicode="&#x139;" horiz-adv-x="545" d="M488 0 C495 0 498 3 498 10 L498 34 C498 41 495 44 488 44 L153 44 L153 690 C153 697 150 700 143 700 L118 700 C111 700 108 697 108 690 L108 10 C108 3 111 0 118 0 L488 0 L488 0 Z M133 772 C136 771 138 770 140 770 C144 770 147 773 149 777 L242 936 C247 942 245 946 238 949 L217 956 C215 956 214 957 212 957 C208 957 204 954 202 949 L115 793 C112 786 113 781 119 778 L133 772 L133 772 Z " />
<glyph glyph-name="lacute" unicode="&#x13a;" horiz-adv-x="253" d="M139 0 C146 0 149 3 149 10 L149 740 C149 747 146 750 139 750 L114 750 C107 750 104 747 104 740 L104 10 C104 3 107 0 114 0 L139 0 L139 0 Z M128 776 C131 775 133 774 135 774 C139 774 142 777 144 781 L237 940 C242 946 240 950 233 953 L212 960 C210 960 209 961 207 961 C203 961 199 958 197 953 L110 797 C107 790 108 785 114 782 L128 776 L128 776 Z " />
<glyph glyph-name="uni013B" unicode="&#x13b;" horiz-adv-x="545" d="M488 0 C495 0 498 3 498 10 L498 34 C498 41 495 44 488 44 L153 44 L153 690 C153 697 150 700 143 700 L118 700 C111 700 108 697 108 690 L108 10 C108 3 111 0 118 0 L488 0 L488 0 Z M254 -225 C253 -232 255 -236 262 -236 L282 -236 C290 -236 294 -233 295 -226 L325 -60 C326 -53 323 -49 316 -49 L293 -49 C284 -49 282 -53 281 -60 L254 -225 L254 -225 Z " />
<glyph glyph-name="uni013C" unicode="&#x13c;" horiz-adv-x="251" d="M139 0 C146 0 149 3 149 10 L149 740 C149 747 146 750 139 750 L114 750 C107 750 104 747 104 740 L104 10 C104 3 107 0 114 0 L139 0 L139 0 Z M76 -225 C75 -232 78 -236 85 -236 L105 -236 C113 -236 117 -233 118 -226 L148 -60 C149 -53 146 -49 139 -49 L116 -49 C107 -49 105 -53 104 -60 L76 -225 L76 -225 Z " />
<glyph glyph-name="Lcaron" unicode="&#x13d;" horiz-adv-x="549" d="M488 0 C495 0 498 3 498 10 L498 34 C498 41 495 44 488 44 L153 44 L153 690 C153 697 150 700 143 700 L118 700 C111 700 108 697 108 690 L108 10 C108 3 111 0 118 0 L488 0 L488 0 Z M433 524 C432 517 435 513 442 513 L461 513 C469 513 473 516 474 523 L504 689 C506 696 503 700 495 700 L473 700 C466 700 461 696 460 689 L433 524 L433 524 Z " />
<glyph glyph-name="lcaron" unicode="&#x13e;" horiz-adv-x="266" d="M138 0 C145 0 148 3 148 10 L148 740 C148 747 145 750 138 750 L113 750 C106 750 103 747 103 740 L103 10 C103 3 106 0 113 0 L138 0 L138 0 Z M235 574 C234 567 237 563 244 563 L263 563 C271 563 275 566 276 573 L307 739 C308 746 305 750 297 750 L275 750 C268 750 263 746 262 739 L235 574 L235 574 Z " />
<glyph glyph-name="Ldot" unicode="&#x13f;" horiz-adv-x="548" d="M488 0 C495 0 498 3 498 10 L498 34 C498 41 495 44 488 44 L153 44 L153 690 C153 697 150 700 143 700 L118 700 C111 700 108 697 108 690 L108 10 C108 3 111 0 118 0 L488 0 L488 0 Z M415 384 C415 364 430 349 450 349 C471 349 486 364 486 384 C486 405 471 420 450 420 C430 420 415 405 415 384 L415 384 Z " />
<glyph glyph-name="ldot" unicode="&#x140;" horiz-adv-x="367" d="M158 0 C165 0 168 3 168 10 L168 740 C168 747 165 750 158 750 L133 750 C126 750 123 747 123 740 L123 10 C123 3 126 0 133 0 L158 0 L158 0 Z M323 388 C323 368 338 353 358 353 C379 353 394 368 394 388 C394 409 379 424 358 424 C338 424 323 409 323 388 L323 388 Z " />
<glyph glyph-name="Lslash" unicode="&#x141;" horiz-adv-x="545" d="M108 10 C108 3 111 0 118 0 L488 0 C495 0 498 3 498 10 L498 34 C498 41 495 44 488 44 L153 44 L153 339 L349 409 C355 412 357 417 356 422 L350 440 C348 445 345 447 341 447 C339 447 338 447 336 446 L153 381 L153 690 C153 697 150 700 143 700 L118 700 C111 700 108 697 108 690 L108 365 L31 338 C25 335 23 331 25 325 L32 307 C34 302 37 299 41 299 C42 299 43 299 45 300 L108 323 L108 10 Z " />
<glyph glyph-name="lslash" unicode="&#x142;" horiz-adv-x="276" d="M113 10 C113 3 116 0 123 0 L147 0 C154 0 158 3 158 10 L158 366 L285 412 C289 413 292 418 289 425 L283 442 C281 448 278 450 275 450 C273 450 272 450 271 449 L158 408 L158 740 C158 747 154 750 147 750 L123 750 C116 750 113 747 113 740 L113 393 L-8 349 C-14 347 -16 343 -13 336 L-7 318 C-5 313 -1 310 2 310 C3 310 5 310 6 311 L113 350 L113 10 Z " />
<glyph glyph-name="Nacute" unicode="&#x143;" horiz-adv-x="734" d="M616 0 C623 0 626 3 626 10 L626 690 C626 697 623 700 616 700 L591 700 C584 700 581 697 581 690 L581 83 L160 690 C156 697 150 700 143 700 L118 700 C111 700 108 697 108 690 L108 10 C108 3 111 0 118 0 L143 0 C150 0 153 3 153 10 L153 617 L574 10 C578 3 584 0 591 0 L616 0 Z M361 772 C364 771 366 770 368 770 C372 770 375 773 377 777 L470 936 C475 942 473 946 466 949 L445 956 C443 956 442 957 440 957 C436 957 432 954 430 949 L343 793 C340 786 341 781 347 778 L361 772 L361 772 Z " />
<glyph glyph-name="nacute" unicode="&#x144;" horiz-adv-x="620" d="M521 0 C528 0 531 3 531 10 L531 271 C531 412 474 510 334 510 C237 510 172 436 148 380 L148 490 C148 497 145 500 138 500 L113 500 C106 500 103 497 103 490 L103 10 C103 3 106 0 113 0 L138 0 C145 0 148 3 148 10 L148 263 C148 367 222 466 327 466 C438 466 486 387 486 267 L486 10 C486 3 489 0 496 0 L521 0 L521 0 Z M304 560 C307 559 309 558 311 558 C315 558 318 561 320 565 L413 724 C418 730 416 734 409 737 L388 744 C386 744 385 745 383 745 C379 745 375 742 373 737 L286 581 C283 574 284 569 290 566 L304 560 L304 560 Z " />
<glyph glyph-name="uni0145" unicode="&#x145;" horiz-adv-x="734" d="M616 0 C623 0 626 3 626 10 L626 690 C626 697 623 700 616 700 L591 700 C584 700 581 697 581 690 L581 83 L160 690 C156 697 150 700 143 700 L118 700 C111 700 108 697 108 690 L108 10 C108 3 111 0 118 0 L143 0 C150 0 153 3 153 10 L153 617 L574 10 C578 3 584 0 591 0 L616 0 Z M317 -225 C316 -232 319 -236 326 -236 L345 -236 C353 -236 357 -233 358 -226 L389 -60 C390 -53 387 -49 379 -49 L357 -49 C350 -49 345 -53 344 -60 L317 -225 L317 -225 Z " />
<glyph glyph-name="uni0146" unicode="&#x146;" horiz-adv-x="620" d="M521 0 C528 0 531 3 531 10 L531 271 C531 412 474 510 334 510 C237 510 172 436 148 380 L148 490 C148 497 145 500 138 500 L113 500 C106 500 103 497 103 490 L103 10 C103 3 106 0 113 0 L138 0 C145 0 148 3 148 10 L148 263 C148 367 222 466 327 466 C438 466 486 387 486 267 L486 10 C486 3 489 0 496 0 L521 0 L521 0 Z M267 -225 C266 -232 269 -236 276 -236 L295 -236 C303 -236 307 -233 308 -226 L339 -60 C340 -53 337 -49 329 -49 L307 -49 C300 -49 295 -53 294 -60 L267 -225 L267 -225 Z " />
<glyph glyph-name="Ncaron" unicode="&#x147;" horiz-adv-x="734" d="M616 0 C623 0 626 3 626 10 L626 690 C626 697 623 700 616 700 L591 700 C584 700 581 697 581 690 L581 83 L160 690 C156 697 150 700 143 700 L118 700 C111 700 108 697 108 690 L108 10 C108 3 111 0 118 0 L143 0 C150 0 153 3 153 10 L153 617 L574 10 C578 3 584 0 591 0 L616 0 Z M379 770 C390 770 392 775 399 780 L523 911 C528 917 528 923 523 928 L514 938 C512 940 509 941 507 941 C504 941 501 940 497 937 L370 805 L243 937 C240 940 237 941 234 941 C231 941 229 940 226 938 L217 928 C210 921 213 918 217 911 L342 780 C349 773 353 770 362 770 L379 770 L379 770 Z " />
<glyph glyph-name="ncaron" unicode="&#x148;" horiz-adv-x="620" d="M521 0 C528 0 531 3 531 10 L531 271 C531 412 474 510 334 510 C237 510 172 436 148 380 L148 490 C148 497 145 500 138 500 L113 500 C106 500 103 497 103 490 L103 10 C103 3 106 0 113 0 L138 0 C145 0 148 3 148 10 L148 263 C148 367 222 466 327 466 C438 466 486 387 486 267 L486 10 C486 3 489 0 496 0 L521 0 L521 0 Z M325 558 C336 558 338 563 345 568 L469 699 C474 705 474 711 469 716 L460 726 C458 728 455 729 453 729 C450 729 447 728 443 725 L316 593 L189 725 C186 728 183 729 180 729 C177 729 175 728 172 726 L163 716 C156 709 159 706 163 699 L288 568 C295 561 299 558 308 558 L325 558 L325 558 Z " />
<glyph glyph-name="napostrophe" unicode="&#x149;" horiz-adv-x="620" d="M521 0 C528 0 531 3 531 10 L531 271 C531 412 474 510 334 510 C237 510 172 436 148 380 L148 490 C148 497 145 500 138 500 L113 500 C106 500 103 497 103 490 L103 10 C103 3 106 0 113 0 L138 0 C145 0 148 3 148 10 L148 263 C148 367 222 466 327 466 C438 466 486 387 486 267 L486 10 C486 3 489 0 496 0 L521 0 L521 0 Z M81 578 C80 571 83 567 90 567 L109 567 C117 567 121 570 122 577 L152 739 C153 746 150 750 143 750 L120 750 C111 750 109 746 108 739 L81 578 L81 578 Z " />
<glyph glyph-name="Omacron" unicode="&#x14c;" horiz-adv-x="807" d="M403 710 C200 710 47 551 47 348 C47 145 200 -10 403 -10 C607 -10 760 149 760 348 C760 551 607 710 403 710 L403 710 Z M403 35 C225 35 93 170 93 348 C93 526 225 665 403 665 C582 665 714 526 714 348 C714 170 578 35 403 35 L403 35 Z M259 854 C259 847 262 844 269 844 L540 844 C547 844 550 847 550 854 L550 875 C550 882 547 885 540 885 L269 885 C262 885 259 882 259 875 L259 854 L259 854 Z " />
<glyph glyph-name="omacron" unicode="&#x14d;" horiz-adv-x="590" d="M42 250 C42 106 151 -10 295 -10 C439 -10 548 106 548 250 C548 394 439 510 295 510 C151 510 42 394 42 250 L42 250 Z M86 250 C86 370 176 466 295 466 C415 466 503 370 503 250 C503 131 415 34 295 34 C176 34 86 131 86 250 L86 250 Z M151 655 C151 648 154 645 161 645 L432 645 C439 645 442 648 442 655 L442 676 C442 683 439 686 432 686 L161 686 C154 686 151 683 151 676 L151 655 L151 655 Z " />
<glyph glyph-name="Obreve" unicode="&#x14e;" horiz-adv-x="807" d="M403 710 C200 710 47 551 47 348 C47 145 200 -10 403 -10 C607 -10 760 149 760 348 C760 551 607 710 403 710 L403 710 Z M403 35 C225 35 93 170 93 348 C93 526 225 665 403 665 C582 665 714 526 714 348 C714 170 578 35 403 35 L403 35 Z M548 904 C548 909 546 912 541 913 L521 918 C520 918 518 919 517 919 C514 919 512 916 512 911 C512 864 473 820 403 820 C334 820 295 864 295 911 C295 916 293 919 289 919 C288 919 287 918 285 918 L266 913 C261 912 258 909 258 904 C261 826 326 782 403 782 C482 782 543 826 548 904 L548 904 Z " />
<glyph glyph-name="obreve" unicode="&#x14f;" horiz-adv-x="590" d="M42 250 C42 106 151 -10 295 -10 C439 -10 548 106 548 250 C548 394 439 510 295 510 C151 510 42 394 42 250 L42 250 Z M86 250 C86 370 176 466 295 466 C415 466 503 370 503 250 C503 131 415 34 295 34 C176 34 86 131 86 250 L86 250 Z M440 720 C440 725 438 728 433 729 L413 734 C412 734 410 735 409 735 C406 735 404 732 404 727 C404 680 365 636 295 636 C226 636 187 680 187 727 C187 732 185 735 181 735 C180 735 179 734 177 734 L158 729 C153 728 150 725 150 720 C153 642 218 598 295 598 C374 598 435 642 440 720 L440 720 Z " />
<glyph glyph-name="Ohungarumlaut" unicode="&#x150;" horiz-adv-x="807" d="M403 710 C200 710 47 551 47 348 C47 145 200 -10 403 -10 C607 -10 760 149 760 348 C760 551 607 710 403 710 L403 710 Z M403 35 C225 35 93 170 93 348 C93 526 225 665 403 665 C582 665 714 526 714 348 C714 170 578 35 403 35 L403 35 Z M337 770 C339 769 341 769 343 769 C347 769 351 771 353 776 L446 934 C449 941 448 945 441 947 L421 954 C419 955 417 955 415 955 C411 955 408 953 406 948 L319 791 C316 784 317 779 323 776 L337 770 L337 770 Z M495 770 C498 769 501 768 503 768 C508 768 510 771 512 776 L605 934 C609 940 608 944 601 947 L580 954 C578 955 576 955 574 955 C570 955 566 953 564 948 L477 791 C474 785 475 780 481 776 L495 770 L495 770 Z " />
<glyph glyph-name="ohungarumlaut" unicode="&#x151;" horiz-adv-x="590" d="M42 250 C42 106 151 -10 295 -10 C439 -10 548 106 548 250 C548 394 439 510 295 510 C151 510 42 394 42 250 L42 250 Z M86 250 C86 370 176 466 295 466 C415 466 503 370 503 250 C503 131 415 34 295 34 C176 34 86 131 86 250 L86 250 Z M221 559 C223 558 225 558 227 558 C231 558 235 560 237 565 L330 723 C333 730 332 734 325 736 L305 743 C303 744 301 744 299 744 C295 744 292 742 290 737 L203 580 C200 573 201 568 207 565 L221 559 L221 559 Z M379 559 C382 558 385 557 387 557 C392 557 394 560 396 565 L489 723 C493 729 492 733 485 736 L464 743 C462 744 460 744 458 744 C454 744 450 742 448 737 L361 580 C358 574 359 569 365 565 L379 559 L379 559 Z " />
<glyph glyph-name="OE" unicode="&#x152;" horiz-adv-x="1161" d="M402 35 C230 35 93 176 93 348 C93 520 230 665 402 665 C575 665 714 520 714 348 C714 176 575 35 402 35 L402 35 Z M1088 -10 C1097 -10 1101 -6 1101 1 L1101 24 C1101 31 1097 35 1088 35 L562 35 C703 99 756 230 759 328 L1052 328 C1061 328 1065 332 1065 339 L1065 361 C1065 368 1061 372 1052 372 L759 372 C754 486 682 609 562 665 L1088 665 C1097 665 1101 669 1101 676 L1101 699 C1101 706 1097 710 1088 710 L404 710 C200 710 47 551 47 348 C47 149 202 -10 406 -10 L1088 -10 L1088 -10 Z " />
<glyph glyph-name="oe" unicode="&#x153;" horiz-adv-x="1026" d="M503 250 C503 131 415 34 295 34 C176 34 86 131 86 250 C86 370 176 466 295 466 C415 466 503 370 503 250 L503 250 Z M526 152 C560 57 647 -10 756 -10 C829 -10 887 10 934 41 C938 44 941 50 937 55 L925 72 C922 77 918 79 914 79 C913 79 912 79 910 78 C866 50 819 34 756 34 C639 34 556 119 548 227 L969 227 C980 227 984 235 984 242 C984 383 898 510 744 510 C633 510 555 443 524 350 C489 443 402 510 295 510 C151 510 42 394 42 250 C42 106 151 -10 295 -10 C405 -10 491 58 526 152 L526 152 Z M548 270 C559 377 626 466 744 466 C865 466 928 374 939 270 L548 270 Z " />
<glyph glyph-name="Racute" unicode="&#x154;" horiz-adv-x="602" d="M308 657 C425 657 497 571 497 479 C497 385 427 301 308 301 L153 301 L153 657 L308 657 L308 657 Z M354 263 C415 268 543 330 543 479 C543 608 444 700 313 700 L118 700 C111 700 108 697 108 690 L108 10 C108 3 111 0 118 0 L143 0 C150 0 153 3 153 10 L153 258 L303 258 L490 10 C497 2 501 0 509 0 L538 0 C548 0 550 4 543 12 L354 263 L354 263 Z M297 772 C300 771 302 770 304 770 C308 770 311 773 313 777 L406 936 C411 942 409 946 402 949 L381 956 C379 956 378 957 376 957 C372 957 368 954 366 949 L279 793 C276 786 277 781 283 778 L297 772 L297 772 Z " />
<glyph glyph-name="racute" unicode="&#x155;" horiz-adv-x="383" d="M113 500 C106 500 103 497 103 490 L103 10 C103 3 106 0 113 0 L138 0 C145 0 148 3 148 10 L148 247 C148 357 213 465 298 465 C317 465 327 463 346 456 C349 455 351 455 352 455 C356 455 357 457 359 462 L367 485 C370 493 369 495 362 498 C347 506 321 510 300 510 C223 510 169 444 148 380 L148 490 C148 497 145 500 138 500 L113 500 L113 500 Z M221 560 C224 559 226 558 228 558 C232 558 235 561 237 565 L330 724 C335 730 333 734 326 737 L305 744 C303 744 302 745 300 745 C296 745 292 742 290 737 L203 581 C200 574 201 569 207 566 L221 560 L221 560 Z " />
<glyph glyph-name="uni0156" unicode="&#x156;" horiz-adv-x="602" d="M277 -225 C276 -232 279 -236 286 -236 L306 -236 C314 -236 318 -233 319 -226 L349 -60 C350 -53 347 -49 340 -49 L317 -49 C308 -49 306 -53 305 -60 L277 -225 L277 -225 Z M308 657 C426 657 498 571 498 479 C498 385 428 301 308 301 L153 301 L153 657 L308 657 L308 657 Z M354 263 C415 268 543 330 543 479 C543 608 444 700 313 700 L118 700 C111 700 108 697 108 690 L108 10 C108 3 111 0 118 0 L143 0 C150 0 153 3 153 10 L153 258 L303 258 L490 10 C497 2 501 0 509 0 L538 0 C548 0 550 4 543 12 L354 263 L354 263 Z " />
<glyph glyph-name="uni0157" unicode="&#x157;" horiz-adv-x="384" d="M75 -225 C74 -232 79 -236 84 -236 L104 -236 C112 -236 116 -233 117 -226 L147 -60 C148 -53 145 -49 138 -49 L115 -49 C106 -49 104 -53 103 -60 L75 -225 L75 -225 Z M113 500 C106 500 103 497 103 490 L103 10 C103 3 106 0 113 0 L138 0 C145 0 148 3 148 10 L148 247 C148 357 213 465 298 465 C317 465 327 463 346 456 C349 455 351 455 352 455 C356 455 357 457 359 462 L367 485 C370 493 369 495 362 498 C347 506 321 510 300 510 C223 510 169 444 148 380 L148 490 C148 497 145 500 138 500 L113 500 L113 500 Z " />
<glyph glyph-name="Rcaron" unicode="&#x158;" horiz-adv-x="602" d="M308 657 C425 657 497 571 497 479 C497 385 427 301 308 301 L153 301 L153 657 L308 657 L308 657 Z M354 263 C415 268 543 330 543 479 C543 608 444 700 313 700 L118 700 C111 700 108 697 108 690 L108 10 C108 3 111 0 118 0 L143 0 C150 0 153 3 153 10 L153 258 L303 258 L490 10 C497 2 501 0 509 0 L538 0 C548 0 550 4 543 12 L354 263 L354 263 Z M319 770 C330 770 332 775 339 780 L463 911 C468 917 468 923 463 928 L454 938 C452 940 449 941 447 941 C444 941 441 940 437 937 L310 805 L183 937 C180 940 177 941 174 941 C171 941 169 940 166 938 L157 928 C150 921 153 918 157 911 L282 780 C289 773 293 770 302 770 L319 770 L319 770 Z " />
<glyph glyph-name="rcaron" unicode="&#x159;" horiz-adv-x="384" d="M113 500 C106 500 103 497 103 490 L103 10 C103 3 106 0 113 0 L138 0 C145 0 148 3 148 10 L148 247 C148 357 213 465 298 465 C317 465 327 463 346 456 C349 455 351 455 352 455 C356 455 357 457 359 462 L367 485 C370 493 369 495 362 498 C347 506 321 510 300 510 C223 510 169 444 148 380 L148 490 C148 497 145 500 138 500 L113 500 L113 500 Z M245 568 C256 568 258 573 265 578 L389 709 C394 715 394 721 389 726 L380 736 C378 738 375 739 373 739 C370 739 367 738 363 735 L236 603 L109 735 C106 738 103 739 100 739 C97 739 95 738 92 736 L83 726 C76 719 79 716 83 709 L208 578 C215 571 219 568 228 568 L245 568 L245 568 Z " />
<glyph glyph-name="Sacute" unicode="&#x15a;" horiz-adv-x="550" d="M468 638 C471 645 470 650 465 653 C410 688 344 710 280 710 C168 710 65 644 65 538 C65 297 452 385 452 179 C452 95 389 35 274 35 C202 35 131 66 79 109 C77 111 74 112 72 112 C69 112 67 111 64 108 L50 87 C46 82 47 77 52 74 C109 26 190 -10 274 -10 C423 -10 498 81 498 180 C498 426 111 340 111 538 C111 618 190 665 279 665 C338 665 395 644 439 615 C441 613 444 613 446 613 C449 613 452 614 455 618 L468 638 L468 638 Z M279 772 C282 771 284 770 286 770 C290 770 293 773 295 777 L388 936 C393 942 391 946 384 949 L363 956 C361 956 360 957 358 957 C354 957 350 954 348 949 L261 793 C258 786 259 781 265 778 L279 772 L279 772 Z " />
<glyph glyph-name="sacute" unicode="&#x15b;" horiz-adv-x="438" d="M74 85 C71 88 69 90 67 90 C65 90 62 88 59 85 L47 72 C42 67 41 62 46 57 C89 14 150 -10 218 -10 C322 -10 395 50 395 134 C395 312 99 260 99 380 C99 439 160 470 221 470 C265 470 305 459 348 428 C351 426 353 425 356 425 C359 425 362 426 365 429 L378 442 C382 447 381 452 376 457 C339 486 284 510 220 510 C124 510 56 453 56 380 C56 217 352 268 352 133 C352 72 293 30 218 30 C159 30 107 54 74 85 L74 85 Z M223 560 C226 559 228 558 230 558 C234 558 237 561 239 565 L332 724 C337 730 335 734 328 737 L307 744 C305 744 304 745 302 745 C298 745 294 742 292 737 L205 581 C202 574 203 569 209 566 L223 560 L223 560 Z " />
<glyph glyph-name="Scircumflex" unicode="&#x15c;" horiz-adv-x="550" d="M468 638 C471 645 470 650 465 653 C410 688 344 710 280 710 C168 710 65 644 65 538 C65 297 452 385 452 179 C452 95 389 35 274 35 C202 35 131 66 79 109 C77 111 74 112 72 112 C69 112 67 111 64 108 L50 87 C46 82 47 77 52 74 C109 26 190 -10 274 -10 C423 -10 498 81 498 180 C498 426 111 340 111 538 C111 618 190 665 279 665 C338 665 395 644 439 615 C441 613 444 613 446 613 C449 613 452 614 455 618 L468 638 L468 638 Z M265 936 C257 936 250 933 245 926 L120 795 C115 790 115 784 120 779 L129 768 C132 765 134 764 136 764 C140 764 143 767 146 769 L273 902 L400 769 C404 766 407 765 410 765 C412 765 415 766 417 768 L426 779 C431 784 431 790 426 795 L302 926 C295 931 293 936 282 936 L265 936 L265 936 Z " />
<glyph glyph-name="scircumflex" unicode="&#x15d;" horiz-adv-x="438" d="M74 85 C71 88 69 90 67 90 C65 90 62 88 59 85 L47 72 C42 67 41 62 46 57 C89 14 150 -10 218 -10 C322 -10 395 50 395 134 C395 312 99 260 99 380 C99 439 160 470 221 470 C265 470 305 459 348 428 C351 426 353 425 356 425 C359 425 362 426 365 429 L378 442 C382 447 381 452 376 457 C339 486 284 510 220 510 C124 510 56 453 56 380 C56 217 352 268 352 133 C352 72 293 30 218 30 C159 30 107 54 74 85 L74 85 Z M214 744 C206 744 199 741 194 734 L69 603 C64 598 64 592 69 587 L78 576 C81 573 83 572 85 572 C89 572 92 575 95 577 L222 710 L349 577 C353 574 356 573 359 573 C361 573 364 574 366 576 L375 587 C380 592 380 598 375 603 L251 734 C244 739 242 744 231 744 L214 744 L214 744 Z " />
<glyph glyph-name="Scedilla" unicode="&#x15e;" horiz-adv-x="550" d="M232 -167 C229 -174 234 -178 241 -178 L261 -178 C269 -178 273 -175 274 -168 L307 -8 C424 3 498 79 498 180 C498 426 111 340 111 538 C111 618 191 665 279 665 C339 665 395 643 439 615 C441 613 444 613 446 613 C449 613 452 614 455 618 L468 638 C471 645 470 650 465 653 C410 688 344 710 280 710 C168 710 65 644 65 538 C65 297 452 385 452 179 C452 95 389 35 274 35 C202 35 131 66 79 109 C77 111 74 112 72 112 C69 112 67 111 64 108 L50 87 C46 82 47 77 52 74 C105 31 178 -7 266 -10 L232 -167 L232 -167 Z " />
<glyph glyph-name="scedilla" unicode="&#x15f;" horiz-adv-x="438" d="M249 -8 C348 5 395 69 395 134 C395 312 99 260 99 380 C99 439 160 470 221 470 C265 470 305 459 348 428 C351 426 353 425 356 425 C359 425 362 426 365 429 L378 442 C382 447 381 452 376 457 C339 486 284 510 220 510 C124 510 56 453 56 380 C56 218 352 268 352 133 C352 72 293 30 218 30 C159 30 107 54 74 85 C71 88 69 90 67 90 C65 90 62 88 59 85 L47 72 C42 67 41 62 46 57 C85 20 134 -6 209 -9 L175 -167 C172 -174 177 -178 184 -178 L204 -178 C212 -178 216 -175 217 -168 L249 -8 L249 -8 Z " />
<glyph glyph-name="Scaron" unicode="&#x160;" horiz-adv-x="550" d="M468 638 C471 645 470 650 465 653 C410 688 344 710 280 710 C168 710 65 644 65 538 C65 297 452 385 452 179 C452 95 389 35 274 35 C202 35 131 66 79 109 C77 111 74 112 72 112 C69 112 67 111 64 108 L50 87 C46 82 47 77 52 74 C109 26 190 -10 274 -10 C423 -10 498 81 498 180 C498 426 111 340 111 538 C111 618 190 665 279 665 C338 665 395 644 439 615 C441 613 444 613 446 613 C449 613 452 614 455 618 L468 638 L468 638 Z M289 770 C300 770 302 775 309 780 L433 911 C438 917 438 923 433 928 L424 938 C422 940 419 941 417 941 C414 941 411 940 407 937 L280 805 L153 937 C150 940 147 941 144 941 C141 941 139 940 136 938 L127 928 C120 921 123 918 127 911 L252 780 C259 773 263 770 272 770 L289 770 L289 770 Z " />
<glyph glyph-name="scaron" unicode="&#x161;" horiz-adv-x="438" d="M74 85 C71 88 69 90 67 90 C65 90 62 88 59 85 L47 72 C42 67 41 62 46 57 C89 14 150 -10 218 -10 C322 -10 395 50 395 134 C395 312 99 260 99 380 C99 439 160 470 221 470 C265 470 305 459 348 428 C351 426 353 425 356 425 C359 425 362 426 365 429 L378 442 C382 447 381 452 376 457 C339 486 284 510 220 510 C124 510 56 453 56 380 C56 217 352 268 352 133 C352 72 293 30 218 30 C159 30 107 54 74 85 L74 85 Z M236 563 C247 563 249 568 256 573 L380 704 C385 710 385 716 380 721 L371 731 C369 733 366 734 364 734 C361 734 358 733 354 730 L227 598 L100 730 C97 733 94 734 91 734 C88 734 86 733 83 731 L74 721 C67 714 70 711 74 704 L199 573 C206 566 210 563 219 563 L236 563 L236 563 Z " />
<glyph glyph-name="uni0162" unicode="&#x162;" horiz-adv-x="590" d="M307 0 C314 0 317 3 317 10 L317 655 L542 655 C549 655 553 658 553 665 L553 690 C553 697 549 700 542 700 L47 700 C40 700 37 697 37 690 L37 665 C37 658 40 655 47 655 L272 655 L272 10 C272 3 275 0 282 0 L307 0 L307 0 Z M245 -225 C244 -232 246 -236 253 -236 L273 -236 C281 -236 285 -233 286 -226 L316 -60 C318 -53 315 -49 307 -49 L285 -49 C278 -49 273 -53 272 -60 L245 -225 L245 -225 Z " />
<glyph glyph-name="uni0163" unicode="&#x163;" horiz-adv-x="376" d="M316 50 C315 52 313 54 311 54 C310 54 308 53 306 52 C282 40 265 34 238 34 C195 34 167 55 167 98 L167 457 L302 457 C308 457 311 460 311 467 L311 490 C311 497 308 500 301 500 L167 500 L167 638 C167 645 164 648 157 648 L132 648 C125 648 122 645 122 638 L122 500 L62 500 C55 500 51 497 51 490 L51 467 C51 460 55 457 62 457 L122 457 L122 95 C122 27 163 -10 234 -10 C269 -10 294 -1 321 12 C328 16 331 18 328 25 L316 50 L316 50 Z M141 -225 C140 -232 143 -236 150 -236 L170 -236 C177 -236 181 -233 183 -226 L213 -60 C214 -53 211 -49 204 -49 L181 -49 C172 -49 171 -53 168 -60 L141 -225 L141 -225 Z " />
<glyph glyph-name="Tcaron" unicode="&#x164;" horiz-adv-x="590" d="M307 0 C314 0 317 3 317 10 L317 655 L542 655 C549 655 553 658 553 665 L553 690 C553 697 549 700 542 700 L47 700 C40 700 37 697 37 690 L37 665 C37 658 40 655 47 655 L272 655 L272 10 C272 3 275 0 282 0 L307 0 L307 0 Z M304 770 C315 770 317 775 324 780 L448 911 C453 917 453 923 448 928 L439 938 C437 940 434 941 432 941 C429 941 426 940 422 937 L295 805 L168 937 C165 940 162 941 159 941 C156 941 154 940 151 938 L142 928 C135 921 138 918 142 911 L267 780 C274 773 278 770 287 770 L304 770 L304 770 Z " />
<glyph glyph-name="tcaron" unicode="&#x165;" horiz-adv-x="384" d="M248 578 C247 571 249 568 256 568 L276 568 C284 568 288 571 289 577 L319 743 C320 750 317 754 310 754 L287 754 C278 754 276 750 275 743 L248 578 L248 578 Z M316 50 C315 52 313 54 311 54 C310 54 308 53 306 52 C282 40 265 34 238 34 C195 34 167 55 167 98 L167 457 L302 457 C308 457 311 460 311 467 L311 490 C311 497 308 500 301 500 L167 500 L167 638 C167 645 164 648 157 648 L132 648 C125 648 122 645 122 638 L122 500 L62 500 C55 500 51 497 51 490 L51 467 C51 460 55 457 62 457 L122 457 L122 95 C122 27 163 -10 234 -10 C269 -10 294 -1 321 12 C328 16 331 18 328 25 L316 50 L316 50 Z " />
<glyph glyph-name="Tbar" unicode="&#x166;" horiz-adv-x="590" d="M272 10 C272 3 275 0 282 0 L307 0 C314 0 317 3 317 10 L317 317 L512 317 C519 317 523 320 523 327 L523 351 C523 358 519 361 512 361 L317 361 L317 655 L542 655 C549 655 553 658 553 665 L553 690 C553 697 549 700 542 700 L47 700 C40 700 37 697 37 690 L37 665 C37 658 40 655 47 655 L272 655 L272 361 L76 361 C69 361 66 358 66 351 L66 327 C66 320 69 317 76 317 L272 317 L272 10 Z " />
<glyph glyph-name="tbar" unicode="&#x167;" horiz-adv-x="376" d="M262 266 C269 266 272 269 272 276 L272 289 C272 296 268 299 261 299 L167 299 L167 457 L302 457 C308 457 311 460 311 467 L311 490 C311 497 308 500 301 500 L167 500 L167 638 C167 645 164 648 157 648 L132 648 C125 648 122 645 122 638 L122 500 L62 500 C55 500 51 497 51 490 L51 467 C51 460 55 457 62 457 L122 457 L122 299 L81 299 C74 299 71 296 71 289 L71 276 C71 269 74 266 81 266 L122 266 L122 95 C122 27 163 -10 234 -10 C269 -10 294 -1 321 12 C328 16 331 18 328 25 L316 50 C315 52 313 54 311 54 C310 54 308 53 306 52 C282 40 265 34 238 34 C195 34 167 55 167 98 L167 266 L262 266 Z " />
<glyph glyph-name="Utilde" unicode="&#x168;" horiz-adv-x="689" d="M105 700 C98 700 94 697 94 690 L94 261 C94 117 176 -10 344 -10 C510 -10 594 117 594 261 L594 690 C594 697 591 700 584 700 L559 700 C552 700 549 697 549 690 L549 265 C549 128 472 35 344 35 C216 35 140 128 140 265 L140 690 C140 697 137 700 130 700 L105 700 L105 700 Z M417 849 C370 849 334 920 272 920 C239 920 198 893 173 858 C168 853 167 847 170 841 L176 822 C178 817 180 814 182 814 C184 814 186 816 188 819 C207 846 244 882 273 882 C321 882 357 811 418 811 C451 811 492 838 516 873 C521 878 522 884 520 890 L514 909 C512 914 510 917 507 917 C505 917 503 915 501 912 C482 885 446 849 417 849 L417 849 Z " />
<glyph glyph-name="utilde" unicode="&#x169;" horiz-adv-x="620" d="M99 500 C92 500 89 497 89 490 L89 229 C89 88 146 -10 286 -10 C383 -10 448 61 472 120 L472 10 C472 3 475 0 482 0 L507 0 C514 0 517 3 517 10 L517 490 C517 497 514 500 507 500 L482 500 C475 500 472 497 472 490 L472 236 C472 134 398 34 293 34 C182 34 134 113 134 233 L134 490 C134 497 131 500 124 500 L99 500 L99 500 Z M377 657 C330 657 294 728 232 728 C199 728 158 701 133 666 C128 661 127 655 130 649 L136 630 C138 625 140 622 142 622 C144 622 146 624 148 627 C167 654 204 690 233 690 C281 690 317 619 378 619 C411 619 452 646 476 681 C481 686 482 692 480 698 L474 717 C472 722 470 725 467 725 C465 725 463 723 461 720 C442 693 406 657 377 657 L377 657 Z " />
<glyph glyph-name="Umacron" unicode="&#x16a;" horiz-adv-x="689" d="M105 700 C98 700 94 697 94 690 L94 261 C94 117 176 -10 344 -10 C510 -10 594 117 594 261 L594 690 C594 697 591 700 584 700 L559 700 C552 700 549 697 549 690 L549 265 C549 128 472 35 344 35 C216 35 140 128 140 265 L140 690 C140 697 137 700 130 700 L105 700 L105 700 Z M199 854 C199 847 202 844 209 844 L480 844 C487 844 490 847 490 854 L490 875 C490 882 487 885 480 885 L209 885 C202 885 199 882 199 875 L199 854 L199 854 Z " />
<glyph glyph-name="umacron" unicode="&#x16b;" horiz-adv-x="620" d="M99 500 C92 500 89 497 89 490 L89 229 C89 88 146 -10 286 -10 C383 -10 448 61 472 120 L472 10 C472 3 475 0 482 0 L507 0 C514 0 517 3 517 10 L517 490 C517 497 514 500 507 500 L482 500 C475 500 472 497 472 490 L472 236 C472 134 398 34 293 34 C182 34 134 113 134 233 L134 490 C134 497 131 500 124 500 L99 500 L99 500 Z M158 655 C158 648 161 645 168 645 L439 645 C446 645 449 648 449 655 L449 676 C449 683 446 686 439 686 L168 686 C161 686 158 683 158 676 L158 655 L158 655 Z " />
<glyph glyph-name="Ubreve" unicode="&#x16c;" horiz-adv-x="689" d="M105 700 C98 700 94 697 94 690 L94 261 C94 117 176 -10 344 -10 C510 -10 594 117 594 261 L594 690 C594 697 591 700 584 700 L559 700 C552 700 549 697 549 690 L549 265 C549 128 472 35 344 35 C216 35 140 128 140 265 L140 690 C140 697 137 700 130 700 L105 700 L105 700 Z M489 904 C489 909 487 912 482 913 L462 918 C461 918 459 919 458 919 C455 919 453 916 453 911 C453 864 414 820 344 820 C275 820 236 864 236 911 C236 916 234 919 230 919 C229 919 228 918 226 918 L207 913 C202 912 199 909 199 904 C202 826 267 782 344 782 C423 782 484 826 489 904 L489 904 Z " />
<glyph glyph-name="ubreve" unicode="&#x16d;" horiz-adv-x="620" d="M99 500 C92 500 89 497 89 490 L89 229 C89 88 146 -10 286 -10 C383 -10 448 61 472 120 L472 10 C472 3 475 0 482 0 L507 0 C514 0 517 3 517 10 L517 490 C517 497 514 500 507 500 L482 500 C475 500 472 497 472 490 L472 236 C472 134 398 34 293 34 C182 34 134 113 134 233 L134 490 C134 497 131 500 124 500 L99 500 L99 500 Z M451 707 C451 712 449 715 444 716 L424 721 C423 721 421 722 420 722 C417 722 415 719 415 714 C415 667 376 623 306 623 C237 623 198 667 198 714 C198 719 196 722 192 722 C191 722 190 721 188 721 L169 716 C164 715 161 712 161 707 C164 629 229 585 306 585 C385 585 446 629 451 707 L451 707 Z " />
<glyph glyph-name="Uring" unicode="&#x16e;" horiz-adv-x="689" d="M105 700 C98 700 94 697 94 690 L94 261 C94 117 176 -10 344 -10 C510 -10 594 117 594 261 L594 690 C594 697 591 700 584 700 L559 700 C552 700 549 697 549 690 L549 265 C549 128 472 35 344 35 C216 35 140 128 140 265 L140 690 C140 697 137 700 130 700 L105 700 L105 700 Z M243 861 C243 805 289 759 344 759 C400 759 446 805 446 861 C446 917 400 962 344 962 C289 962 243 917 243 861 L243 861 Z M279 861 C279 898 308 927 344 927 C381 927 410 898 410 861 C410 824 381 795 344 795 C308 795 279 824 279 861 L279 861 Z " />
<glyph glyph-name="uring" unicode="&#x16f;" horiz-adv-x="620" d="M99 500 C92 500 89 497 89 490 L89 229 C89 88 146 -10 286 -10 C383 -10 448 61 472 120 L472 10 C472 3 475 0 482 0 L507 0 C514 0 517 3 517 10 L517 490 C517 497 514 500 507 500 L482 500 C475 500 472 497 472 490 L472 236 C472 134 398 34 293 34 C182 34 134 113 134 233 L134 490 C134 497 131 500 124 500 L99 500 L99 500 Z M200 667 C200 611 246 565 301 565 C357 565 403 611 403 667 C403 723 357 768 301 768 C246 768 200 723 200 667 L200 667 Z M236 667 C236 704 265 733 301 733 C338 733 367 704 367 667 C367 630 338 601 301 601 C265 601 236 630 236 667 L236 667 Z " />
<glyph glyph-name="Uhungarumlaut" unicode="&#x170;" horiz-adv-x="689" d="M105 700 C98 700 94 697 94 690 L94 261 C94 117 176 -10 344 -10 C510 -10 594 117 594 261 L594 690 C594 697 591 700 584 700 L559 700 C552 700 549 697 549 690 L549 265 C549 128 472 35 344 35 C216 35 140 128 140 265 L140 690 C140 697 137 700 130 700 L105 700 L105 700 Z M253 770 C255 769 257 769 259 769 C263 769 267 771 269 776 L362 934 C365 941 364 945 357 947 L337 954 C335 955 333 955 331 955 C327 955 324 953 322 948 L235 791 C232 784 233 779 239 776 L253 770 L253 770 Z M411 770 C414 769 417 768 419 768 C424 768 426 771 428 776 L521 934 C525 940 524 944 517 947 L496 954 C494 955 492 955 490 955 C486 955 482 953 480 948 L393 791 C390 785 391 780 397 776 L411 770 L411 770 Z " />
<glyph glyph-name="uhungarumlaut" unicode="&#x171;" horiz-adv-x="620" d="M99 500 C92 500 89 497 89 490 L89 229 C89 88 146 -10 286 -10 C383 -10 448 61 472 120 L472 10 C472 3 475 0 482 0 L507 0 C514 0 517 3 517 10 L517 490 C517 497 514 500 507 500 L482 500 C475 500 472 497 472 490 L472 236 C472 134 398 34 293 34 C182 34 134 113 134 233 L134 490 C134 497 131 500 124 500 L99 500 L99 500 Z M221 543 C223 542 225 542 227 542 C231 542 235 544 237 549 L330 707 C333 714 332 718 325 720 L305 727 C303 728 301 728 299 728 C295 728 292 726 290 721 L203 564 C200 557 201 552 207 549 L221 543 L221 543 Z M379 543 C382 542 385 541 387 541 C392 541 394 544 396 549 L489 707 C493 713 492 717 485 720 L464 727 C462 728 460 728 458 728 C454 728 450 726 448 721 L361 564 C358 558 359 553 365 549 L379 543 L379 543 Z " />
<glyph glyph-name="Uogonek" unicode="&#x172;" horiz-adv-x="689" d="M323 -10 C253 -76 289 -188 396 -188 C405 -188 414 -188 424 -186 C431 -185 435 -181 434 -174 L432 -155 C431 -150 427 -147 422 -148 C412 -150 402 -151 394 -151 C311 -151 303 -54 364 -10 C524 1 594 133 594 261 L594 690 C594 697 591 700 584 700 L559 700 C552 700 549 697 549 690 L549 265 C549 128 472 35 344 35 C216 35 140 128 140 265 L140 690 C140 697 137 700 130 700 L105 700 C98 700 94 697 94 690 L94 261 C94 109 182 -2 323 -10 L323 -10 Z " />
<glyph glyph-name="uogonek" unicode="&#x173;" horiz-adv-x="620" d="M472 10 C472 3 474 0 477 0 L479 0 C396 -61 423 -189 534 -189 C543 -189 553 -188 563 -186 C570 -185 573 -182 572 -175 L570 -155 C569 -150 565 -147 560 -148 C551 -150 544 -150 536 -150 C452 -150 444 -47 515 0 C516 0 517 3 517 10 L517 489 C517 496 514 500 507 500 L482 500 C475 500 472 497 472 490 L472 236 C472 134 398 34 293 34 C182 34 134 113 134 233 L134 490 C134 497 131 500 124 500 L99 500 C92 500 89 497 89 490 L89 229 C89 88 146 -10 286 -10 C383 -10 448 61 472 120 L472 10 L472 10 Z " />
<glyph glyph-name="Wcircumflex" unicode="&#x174;" horiz-adv-x="893" d="M671 0 C682 0 683 3 686 11 L865 689 C867 696 864 700 857 700 L829 700 C822 700 818 696 816 689 L652 69 L478 690 C476 697 471 700 464 700 L429 700 C422 700 418 697 416 690 L242 69 L78 689 C76 696 71 700 64 700 L37 700 C29 700 26 696 28 689 L208 11 C210 4 215 0 223 0 L259 0 C266 0 271 4 273 11 L447 632 L620 11 C622 4 627 0 636 0 L671 0 L671 0 Z M439 936 C431 936 424 933 419 926 L294 795 C289 790 289 784 294 779 L303 768 C306 765 308 764 310 764 C314 764 317 767 320 769 L447 902 L574 769 C578 766 581 765 584 765 C586 765 589 766 591 768 L600 779 C605 784 605 790 600 795 L476 926 C469 931 467 936 456 936 L439 936 L439 936 Z " />
<glyph glyph-name="wcircumflex" unicode="&#x175;" horiz-adv-x="685" d="M79 490 C77 497 73 500 66 500 L40 500 C34 500 32 497 34 490 L157 15 C159 5 164 0 173 0 L205 0 C216 0 218 6 221 15 L342 440 L463 15 C466 6 469 0 480 0 L511 0 C522 0 525 7 528 15 L651 490 C653 497 651 500 644 500 L619 500 C610 500 609 497 606 490 L494 62 L371 487 C368 495 367 500 356 500 L328 500 C321 500 316 496 314 487 L252 274 C220 166 191 62 190 62 L79 490 L79 490 Z M334 725 C326 725 319 722 314 715 L189 584 C184 579 184 573 189 568 L198 557 C201 554 203 553 205 553 C209 553 212 556 215 558 L342 691 L469 558 C473 555 476 554 479 554 C481 554 484 555 486 557 L495 568 C500 573 500 579 495 584 L371 715 C364 720 362 725 351 725 L334 725 L334 725 Z " />
<glyph glyph-name="Ycircumflex" unicode="&#x176;" horiz-adv-x="566" d="M87 693 C84 698 80 700 74 700 L43 700 C36 700 34 694 38 690 L261 345 L261 10 C261 3 264 0 271 0 L296 0 C303 0 306 3 306 10 L306 345 L529 690 C532 694 531 700 524 700 L493 700 C488 700 483 698 480 693 L284 388 L87 693 L87 693 Z M275 936 C267 936 260 933 255 926 L130 795 C125 790 125 784 130 779 L139 768 C142 765 144 764 146 764 C150 764 153 767 156 769 L283 902 L410 769 C414 766 417 765 420 765 C422 765 425 766 427 768 L436 779 C441 784 441 790 436 795 L312 926 C305 931 303 936 292 936 L275 936 L275 936 Z " />
<glyph glyph-name="ycircumflex" unicode="&#x177;" horiz-adv-x="623" d="M520 490 C520 497 517 500 510 500 L485 500 C478 500 475 497 475 490 L475 246 C475 144 403 44 296 44 C185 44 137 123 137 243 L137 490 C137 497 133 500 126 500 L102 500 C95 500 92 497 92 490 L92 239 C92 98 149 0 288 0 C383 0 454 70 475 129 L475 2 C475 -117 416 -211 292 -211 C220 -211 162 -179 127 -128 C125 -126 123 -125 121 -125 C119 -125 117 -126 114 -128 L98 -146 C94 -149 94 -154 99 -160 C135 -215 204 -255 292 -255 C439 -255 520 -143 520 4 L520 490 L520 490 Z M298 744 C290 744 283 741 278 734 L153 603 C148 598 148 592 153 587 L162 576 C165 573 167 572 169 572 C173 572 176 575 179 577 L306 710 L433 577 C437 574 440 573 443 573 C445 573 448 574 450 576 L459 587 C464 592 464 598 459 603 L335 734 C328 739 326 744 315 744 L298 744 L298 744 Z " />
<glyph glyph-name="Ydieresis" unicode="&#x178;" horiz-adv-x="566" d="M87 693 C84 698 80 700 74 700 L43 700 C36 700 34 694 38 690 L261 345 L261 10 C261 3 264 0 271 0 L296 0 C303 0 306 3 306 10 L306 345 L529 690 C532 694 531 700 524 700 L493 700 C488 700 483 698 480 693 L284 388 L87 693 L87 693 Z M151 831 C151 811 166 796 186 796 C206 796 222 811 222 831 C222 851 206 867 186 867 C166 867 151 851 151 831 L151 831 Z M345 831 C345 811 360 796 380 796 C401 796 416 811 416 831 C416 851 401 867 380 867 C360 867 345 851 345 831 L345 831 Z " />
<glyph glyph-name="Zacute" unicode="&#x179;" horiz-adv-x="621" d="M48 10 C48 3 52 0 59 0 L562 0 C569 0 573 3 573 10 L573 35 C573 42 569 45 562 45 L107 45 L555 653 C558 658 559 660 559 668 L559 690 C559 697 556 700 549 700 L70 700 C63 700 60 697 60 690 L60 665 C60 658 63 655 70 655 L500 655 L54 49 C50 44 48 37 48 30 L48 10 L48 10 Z M295 772 C298 771 300 770 302 770 C306 770 309 773 311 777 L404 936 C409 942 407 946 400 949 L379 956 C377 956 376 957 374 957 C370 957 366 954 364 949 L277 793 C274 786 275 781 281 778 L295 772 L295 772 Z " />
<glyph glyph-name="zacute" unicode="&#x17a;" horiz-adv-x="480" d="M47 10 C47 3 50 0 57 0 L423 0 C430 0 433 3 433 10 L433 33 C433 40 430 43 423 43 L105 43 L409 455 C413 462 416 465 416 474 L416 490 C416 497 413 500 406 500 L72 500 C65 500 62 497 62 490 L62 467 C62 460 65 457 72 457 L355 457 L54 47 C50 42 47 38 47 30 L47 10 L47 10 Z M232 560 C235 559 237 558 239 558 C243 558 246 561 248 565 L341 724 C346 730 344 734 337 737 L316 744 C314 744 313 745 311 745 C307 745 303 742 301 737 L214 581 C211 574 212 569 218 566 L232 560 L232 560 Z " />
<glyph glyph-name="Zdotaccent" unicode="&#x17b;" horiz-adv-x="621" d="M48 10 C48 3 52 0 59 0 L562 0 C569 0 573 3 573 10 L573 35 C573 42 569 45 562 45 L107 45 L555 653 C558 658 559 660 559 668 L559 690 C559 697 556 700 549 700 L70 700 C63 700 60 697 60 690 L60 665 C60 658 63 655 70 655 L500 655 L54 49 C50 44 48 37 48 30 L48 10 L48 10 Z M272 901 C272 881 287 866 307 866 C328 866 343 881 343 901 C343 922 328 937 307 937 C287 937 272 922 272 901 L272 901 Z " />
<glyph glyph-name="zdotaccent" unicode="&#x17c;" horiz-adv-x="480" d="M47 10 C47 3 50 0 57 0 L423 0 C430 0 433 3 433 10 L433 33 C433 40 430 43 423 43 L105 43 L409 455 C413 462 416 465 416 474 L416 490 C416 497 413 500 406 500 L72 500 C65 500 62 497 62 490 L62 467 C62 460 65 457 72 457 L355 457 L54 47 C50 42 47 38 47 30 L47 10 L47 10 Z M198 676 C198 656 213 641 233 641 C254 641 269 656 269 676 C269 697 254 712 233 712 C213 712 198 697 198 676 L198 676 Z " />
<glyph glyph-name="Zcaron" unicode="&#x17d;" horiz-adv-x="621" d="M48 10 C48 3 52 0 59 0 L562 0 C569 0 573 3 573 10 L573 35 C573 42 569 45 562 45 L107 45 L555 653 C558 658 559 660 559 668 L559 690 C559 697 556 700 549 700 L70 700 C63 700 60 697 60 690 L60 665 C60 658 63 655 70 655 L500 655 L54 49 C50 44 48 37 48 30 L48 10 L48 10 Z M320 770 C331 770 333 775 340 780 L464 911 C469 917 469 923 464 928 L455 938 C453 940 450 941 448 941 C445 941 442 940 438 937 L311 805 L184 937 C181 940 178 941 175 941 C172 941 170 940 167 938 L158 928 C151 921 154 918 158 911 L283 780 C290 773 294 770 303 770 L320 770 L320 770 Z " />
<glyph glyph-name="zcaron" unicode="&#x17e;" horiz-adv-x="480" d="M47 10 C47 3 50 0 57 0 L423 0 C430 0 433 3 433 10 L433 33 C433 40 430 43 423 43 L105 43 L409 455 C413 462 416 465 416 474 L416 490 C416 497 413 500 406 500 L72 500 C65 500 62 497 62 490 L62 467 C62 460 65 457 72 457 L355 457 L54 47 C50 42 47 38 47 30 L47 10 L47 10 Z M253 558 C264 558 266 563 273 568 L397 699 C402 705 402 711 397 716 L388 726 C386 728 383 729 381 729 C378 729 375 728 371 725 L244 593 L117 725 C114 728 111 729 108 729 C105 729 103 728 100 726 L91 716 C84 709 87 706 91 699 L216 568 C223 561 227 558 236 558 L253 558 L253 558 Z " />
<glyph glyph-name="longs" unicode="&#x17f;" horiz-adv-x="334" d="M172 614 C172 696 209 715 252 715 C279 715 295 711 318 700 C320 699 322 698 324 698 C327 698 329 700 331 703 L343 724 C346 731 345 733 338 737 C308 752 278 759 248 759 C179 759 127 720 127 619 L127 500 L52 500 C45 500 42 497 42 490 L42 467 C42 460 45 457 52 457 L127 457 L127 10 C127 3 130 0 137 0 L162 0 C169 0 172 3 172 10 L172 614 L172 614 Z " />
<glyph glyph-name="florin" unicode="&#x192;" horiz-adv-x="574" d="M200 101 C185 49 172 1 131 -14 C120 -18 110 -20 99 -20 C83 -20 67 -16 48 -11 C46 -11 45 -10 43 -10 C39 -10 37 -13 35 -17 L30 -34 C28 -41 31 -45 38 -47 C60 -54 82 -59 104 -59 C121 -59 138 -56 153 -48 C198 -28 217 7 236 79 L343 488 L463 488 C471 488 475 492 475 499 L475 514 C475 521 471 525 462 525 L352 525 L376 613 C390 669 406 735 476 735 C493 735 509 731 527 726 C529 725 531 725 532 725 C536 725 540 728 541 733 L544 749 C546 755 544 759 537 761 C516 768 493 773 470 773 C387 773 358 707 340 636 L311 525 L227 525 C218 525 214 521 214 514 L214 499 C214 492 218 488 227 488 L300 488 L200 101 L200 101 Z " />
<glyph glyph-name="uni0218" unicode="&#x218;" horiz-adv-x="550" d="M229 -225 C228 -232 231 -236 238 -236 L257 -236 C265 -236 269 -233 270 -226 L301 -60 C302 -53 299 -49 291 -49 L269 -49 C262 -49 257 -53 256 -60 L229 -225 L229 -225 Z M468 638 C471 645 470 650 465 653 C410 688 344 710 280 710 C168 710 65 644 65 538 C65 297 452 385 452 179 C452 95 389 35 274 35 C202 35 131 66 79 109 C77 111 74 112 72 112 C69 112 67 111 64 108 L50 87 C46 82 47 77 52 74 C109 26 190 -10 274 -10 C423 -10 498 81 498 180 C498 426 111 340 111 538 C111 618 190 665 279 665 C338 665 395 644 439 615 C441 613 444 613 446 613 C449 613 452 614 455 618 L468 638 L468 638 Z " />
<glyph glyph-name="uni0219" unicode="&#x219;" horiz-adv-x="438" d="M172 -225 C171 -232 173 -236 180 -236 L200 -236 C208 -236 212 -233 213 -226 L243 -60 C244 -53 241 -49 234 -49 L211 -49 C202 -49 200 -53 199 -60 L172 -225 L172 -225 Z M74 85 C71 88 69 90 67 90 C65 90 62 88 59 85 L47 72 C42 67 41 62 46 57 C89 14 150 -10 218 -10 C322 -10 395 50 395 134 C395 312 99 260 99 380 C99 439 160 470 221 470 C265 470 305 459 348 428 C351 426 353 425 356 425 C359 425 362 426 365 429 L378 442 C382 447 381 452 376 457 C339 486 284 510 220 510 C124 510 56 453 56 380 C56 217 352 268 352 133 C352 72 293 30 218 30 C159 30 107 54 74 85 L74 85 Z " />
<glyph glyph-name="uni021A" unicode="&#x21a;" horiz-adv-x="590" d="M307 0 C314 0 317 3 317 10 L317 655 L542 655 C549 655 553 658 553 665 L553 690 C553 697 549 700 542 700 L47 700 C40 700 37 697 37 690 L37 665 C37 658 40 655 47 655 L272 655 L272 10 C272 3 275 0 282 0 L307 0 L307 0 Z M245 -225 C244 -232 246 -236 253 -236 L273 -236 C281 -236 285 -233 286 -226 L316 -60 C318 -53 315 -49 307 -49 L285 -49 C278 -49 273 -53 272 -60 L245 -225 L245 -225 Z " />
<glyph glyph-name="uni021B" unicode="&#x21b;" horiz-adv-x="376" d="M316 50 C315 52 313 54 311 54 C310 54 308 53 306 52 C282 40 265 34 238 34 C195 34 167 55 167 98 L167 457 L302 457 C308 457 311 460 311 467 L311 490 C311 497 308 500 301 500 L167 500 L167 638 C167 645 164 648 157 648 L132 648 C125 648 122 645 122 638 L122 500 L62 500 C55 500 51 497 51 490 L51 467 C51 460 55 457 62 457 L122 457 L122 95 C122 27 163 -10 234 -10 C269 -10 294 -1 321 12 C328 16 331 18 328 25 L316 50 L316 50 Z M141 -225 C140 -232 143 -236 150 -236 L170 -236 C177 -236 181 -233 183 -226 L213 -60 C214 -53 211 -49 204 -49 L181 -49 C172 -49 171 -53 168 -60 L141 -225 L141 -225 Z " />
<glyph glyph-name="circumflex" unicode="&#x2c6;" horiz-adv-x="368" d="M176 737 C168 737 161 734 156 727 L31 596 C26 591 26 585 31 580 L40 569 C43 566 45 565 47 565 C51 565 54 568 57 570 L184 703 L311 570 C315 567 318 566 321 566 C323 566 326 567 328 569 L337 580 C342 585 342 591 337 596 L213 727 C206 732 204 737 193 737 L176 737 L176 737 Z " />
<glyph glyph-name="caron" unicode="&#x2c7;" horiz-adv-x="368" d="M193 567 C204 567 206 572 213 577 L337 708 C342 714 342 720 337 725 L328 735 C326 737 323 738 321 738 C318 738 315 737 311 734 L184 602 L57 734 C54 737 51 738 48 738 C45 738 43 737 40 735 L31 725 C24 718 27 715 31 708 L156 577 C163 570 167 567 176 567 L193 567 L193 567 Z " />
<glyph glyph-name="uni02C9" unicode="&#x2c9;" horiz-adv-x="461" d="M85 628 C85 621 88 618 95 618 L366 618 C373 618 376 621 376 628 L376 649 C376 656 373 659 366 659 L95 659 C88 659 85 656 85 649 L85 628 L85 628 Z " />
<glyph glyph-name="breve" unicode="&#x2d8;" horiz-adv-x="344" d="M317 720 C317 725 315 728 310 729 L290 734 C289 734 287 735 286 735 C283 735 281 732 281 727 C281 680 242 636 172 636 C103 636 64 680 64 727 C64 732 62 735 58 735 C57 735 56 734 54 734 L35 729 C30 728 27 725 27 720 C30 642 95 598 172 598 C251 598 312 642 317 720 L317 720 Z " />
<glyph glyph-name="dotaccent" unicode="&#x2d9;" horiz-adv-x="155" d="M42 645 C42 625 57 610 77 610 C98 610 113 625 113 645 C113 666 98 681 77 681 C57 681 42 666 42 645 L42 645 Z " />
<glyph glyph-name="ring" unicode="&#x2da;" horiz-adv-x="241" d="M19 639 C19 583 65 537 120 537 C176 537 222 583 222 639 C222 695 176 740 120 740 C65 740 19 695 19 639 L19 639 Z M55 639 C55 676 84 705 120 705 C157 705 186 676 186 639 C186 602 157 573 120 573 C84 573 55 602 55 639 L55 639 Z " />
<glyph glyph-name="ogonek" unicode="&#x2db;" horiz-adv-x="171" d="M74 8 C-7 -66 21 -189 130 -189 C140 -189 150 -188 160 -186 C167 -185 171 -181 170 -174 L168 -155 C167 -150 163 -147 158 -148 C149 -150 140 -151 132 -151 C48 -151 46 -42 116 4 L74 8 L74 8 Z " />
<glyph glyph-name="tilde" unicode="&#x2dc;" horiz-adv-x="410" d="M277 619 C230 619 194 690 132 690 C99 690 58 663 33 628 C28 623 27 617 30 611 L36 592 C38 587 40 584 42 584 C44 584 46 586 48 589 C67 616 104 652 133 652 C181 652 217 581 278 581 C311 581 352 608 376 643 C381 648 382 654 380 660 L374 679 C372 684 370 687 367 687 C365 687 363 685 361 682 C342 655 306 619 277 619 L277 619 Z " />
<glyph glyph-name="hungarumlaut" unicode="&#x2dd;" horiz-adv-x="368" d="M59 544 C61 543 63 543 65 543 C69 543 73 545 75 550 L168 708 C171 715 170 719 163 721 L143 728 C141 729 139 729 137 729 C133 729 130 727 128 722 L41 565 C38 558 39 553 45 550 L59 544 L59 544 Z M217 544 C220 543 223 542 225 542 C230 542 232 545 234 550 L327 708 C331 714 330 718 323 721 L302 728 C300 729 298 729 296 729 C292 729 288 727 286 722 L199 565 C196 559 197 554 203 550 L217 544 L217 544 Z " />
<glyph glyph-name="uni0394" unicode="&#x394;" horiz-adv-x="621" d="M309 692 L313 692 L549 42 L75 42 L309 692 Z M27 9 C27 3 30 0 37 0 L584 0 C591 0 594 3 594 9 L594 26 L342 735 C339 745 333 750 326 750 L296 750 C288 750 282 745 279 735 L27 26 L27 9 L27 9 Z " />
<glyph glyph-name="uni03A9" unicode="&#x3a9;" horiz-adv-x="807" d="M318 54 C170 121 86 223 89 375 C89 546 219 688 402 688 C584 688 720 545 717 374 C714 221 633 122 484 54 L484 0 L720 0 C727 0 730 3 730 10 L730 30 C730 37 727 41 720 41 L521 41 C672 108 756 227 759 378 C759 565 610 729 402 729 C195 729 47 565 47 378 C47 219 135 108 280 41 L83 41 C76 41 73 38 73 31 L73 10 C73 3 76 0 83 0 L318 0 L318 54 Z " />
<glyph glyph-name="uni03BC" unicode="&#x3bc;" horiz-adv-x="620" d="M134 80 C168 22 217 -8 290 -8 C370 -8 443 44 472 119 L472 10 C472 3 475 0 482 0 L507 0 C514 0 517 3 517 10 L517 490 C517 497 514 500 507 500 L482 500 C475 500 472 497 472 490 L472 248 C472 146 398 34 293 34 C186 34 134 117 134 233 L134 490 C134 497 131 500 124 500 L99 500 C92 500 89 497 89 490 L89 -240 C89 -247 92 -250 99 -250 L124 -250 C131 -250 134 -247 134 -240 L134 80 L134 80 Z " />
<glyph glyph-name="pi" unicode="&#x3c0;" horiz-adv-x="662" d="M616 579 C622 579 625 582 625 589 L625 613 C625 620 622 623 616 623 L46 623 C40 623 37 620 37 613 L37 589 C37 582 40 579 46 579 L168 579 L168 9 C168 3 171 0 178 0 L202 0 C209 0 212 3 212 9 L212 579 L450 579 L450 9 C450 3 453 0 460 0 L484 0 C491 0 494 3 494 9 L494 579 L616 579 Z " />
<glyph glyph-name="Wgrave" unicode="&#x1e80;" horiz-adv-x="893" d="M671 0 C682 0 683 3 686 11 L865 689 C867 696 864 700 857 700 L829 700 C822 700 818 696 816 689 L652 69 L478 690 C476 697 471 700 464 700 L429 700 C422 700 418 697 416 690 L242 69 L78 689 C76 696 71 700 64 700 L37 700 C29 700 26 696 28 689 L208 11 C210 4 215 0 223 0 L259 0 C266 0 271 4 273 11 L447 632 L620 11 C622 4 627 0 636 0 L671 0 L671 0 Z M457 778 C463 781 464 786 461 793 L373 949 C371 954 367 957 363 957 C361 957 360 956 358 956 L338 949 C331 946 329 942 333 936 L426 777 C429 773 431 770 436 770 C437 770 439 771 442 772 L457 778 L457 778 Z " />
<glyph glyph-name="wgrave" unicode="&#x1e81;" horiz-adv-x="685" d="M79 490 C77 497 73 500 66 500 L40 500 C34 500 32 497 34 490 L157 15 C159 5 164 0 173 0 L205 0 C216 0 218 6 221 15 L342 440 L463 15 C466 6 469 0 480 0 L511 0 C522 0 525 7 528 15 L651 490 C653 497 651 500 644 500 L619 500 C610 500 609 497 606 490 L494 62 L371 487 C368 495 367 500 356 500 L328 500 C321 500 316 496 314 487 L252 274 C220 166 191 62 190 62 L79 490 L79 490 Z M352 566 C358 569 359 574 356 581 L268 737 C266 742 262 745 258 745 C256 745 255 744 253 744 L233 737 C226 734 224 730 228 724 L321 565 C324 561 326 558 331 558 C332 558 334 559 337 560 L352 566 L352 566 Z " />
<glyph glyph-name="Wacute" unicode="&#x1e82;" horiz-adv-x="893" d="M671 0 C682 0 683 3 686 11 L865 689 C867 696 864 700 857 700 L829 700 C822 700 818 696 816 689 L652 69 L478 690 C476 697 471 700 464 700 L429 700 C422 700 418 697 416 690 L242 69 L78 689 C76 696 71 700 64 700 L37 700 C29 700 26 696 28 689 L208 11 C210 4 215 0 223 0 L259 0 C266 0 271 4 273 11 L447 632 L620 11 C622 4 627 0 636 0 L671 0 L671 0 Z M450 775 C453 774 455 773 457 773 C461 773 464 776 466 780 L559 939 C564 945 562 949 555 952 L534 959 C532 959 531 960 529 960 C525 960 521 957 519 952 L432 796 C429 789 430 784 436 781 L450 775 L450 775 Z " />
<glyph glyph-name="wacute" unicode="&#x1e83;" horiz-adv-x="685" d="M79 490 C77 497 73 500 66 500 L40 500 C34 500 32 497 34 490 L157 15 C159 5 164 0 173 0 L205 0 C216 0 218 6 221 15 L342 440 L463 15 C466 6 469 0 480 0 L511 0 C522 0 525 7 528 15 L651 490 C653 497 651 500 644 500 L619 500 C610 500 609 497 606 490 L494 62 L371 487 C368 495 367 500 356 500 L328 500 C321 500 316 496 314 487 L252 274 C220 166 191 62 190 62 L79 490 L79 490 Z M349 560 C352 559 354 558 356 558 C360 558 363 561 365 565 L458 724 C463 730 461 734 454 737 L433 744 C431 744 430 745 428 745 C424 745 420 742 418 737 L331 581 C328 574 329 569 335 566 L349 560 L349 560 Z " />
<glyph glyph-name="Wdieresis" unicode="&#x1e84;" horiz-adv-x="893" d="M671 0 C682 0 683 3 686 11 L865 689 C867 696 864 700 857 700 L829 700 C822 700 818 696 816 689 L652 69 L478 690 C476 697 471 700 464 700 L429 700 C422 700 418 697 416 690 L242 69 L78 689 C76 696 71 700 64 700 L37 700 C29 700 26 696 28 689 L208 11 C210 4 215 0 223 0 L259 0 C266 0 271 4 273 11 L447 632 L620 11 C622 4 627 0 636 0 L671 0 L671 0 Z M315 831 C315 811 330 796 350 796 C370 796 386 811 386 831 C386 851 370 867 350 867 C330 867 315 851 315 831 L315 831 Z M509 831 C509 811 524 796 544 796 C565 796 580 811 580 831 C580 851 565 867 544 867 C524 867 509 851 509 831 L509 831 Z " />
<glyph glyph-name="wdieresis" unicode="&#x1e85;" horiz-adv-x="685" d="M79 490 C77 497 73 500 66 500 L40 500 C34 500 32 497 34 490 L157 15 C159 5 164 0 173 0 L205 0 C216 0 218 6 221 15 L342 440 L463 15 C466 6 469 0 480 0 L511 0 C522 0 525 7 528 15 L651 490 C653 497 651 500 644 500 L619 500 C610 500 609 497 606 490 L494 62 L371 487 C368 495 367 500 356 500 L328 500 C321 500 316 496 314 487 L252 274 C220 166 191 62 190 62 L79 490 L79 490 Z M210 642 C210 622 225 607 245 607 C265 607 281 622 281 642 C281 662 265 678 245 678 C225 678 210 662 210 642 L210 642 Z M404 642 C404 622 419 607 439 607 C460 607 475 622 475 642 C475 662 460 678 439 678 C419 678 404 662 404 642 L404 642 Z " />
<glyph glyph-name="endash" unicode="&#x2013;" horiz-adv-x="624" d="M94 295 C88 295 85 291 85 284 L85 260 C85 253 88 250 94 250 L530 250 C536 250 539 253 539 260 L539 284 C539 291 536 295 530 295 L94 295 L94 295 Z " />
<glyph glyph-name="emdash" unicode="&#x2014;" horiz-adv-x="1147" d="M94 295 C88 295 85 291 85 284 L85 260 C85 253 88 250 94 250 L1053 250 C1059 250 1062 253 1062 260 L1062 284 C1062 291 1059 295 1053 295 L94 295 L94 295 Z " />
<glyph glyph-name="quoteleft" unicode="&#x2018;" horiz-adv-x="168" d="M124 699 C125 706 120 710 115 710 L96 710 C88 710 84 707 83 700 L53 535 C52 527 55 523 62 523 L84 523 C95 523 96 528 97 535 L124 699 L124 699 Z " />
<glyph glyph-name="quoteright" unicode="&#x2019;" horiz-adv-x="168" d="M54 534 C53 527 58 523 63 523 L82 523 C90 523 94 526 95 533 L125 699 C126 706 123 710 116 710 L93 710 C86 710 82 706 81 699 L54 534 L54 534 Z " />
<glyph glyph-name="quotesinglbase" unicode="&#x201a;" horiz-adv-x="168" d="M47 -117 C46 -124 51 -128 56 -128 L75 -128 C83 -128 87 -125 88 -118 L119 48 C120 55 117 59 109 59 L87 59 C80 59 75 55 74 48 L47 -117 L47 -117 Z " />
<glyph glyph-name="quotedblleft" unicode="&#x201c;" horiz-adv-x="345" d="M119 699 C120 706 116 710 109 710 L90 710 C82 710 78 707 77 700 L47 535 C46 527 49 523 56 523 L79 523 C88 523 90 528 91 535 L119 699 L119 699 Z M296 700 C297 707 292 710 287 710 L268 710 C260 710 256 707 255 700 L225 535 C224 527 227 523 234 523 L256 523 C263 523 268 527 269 535 L296 700 L296 700 Z " />
<glyph glyph-name="quotedblright" unicode="&#x201d;" horiz-adv-x="346" d="M225 534 C224 527 228 523 235 523 L254 523 C261 523 265 526 267 533 L297 699 C298 706 295 710 288 710 L265 710 C258 710 253 706 252 699 L225 534 L225 534 Z M47 534 C46 527 50 523 57 523 L76 523 C84 523 88 526 89 533 L119 699 C120 706 117 710 110 710 L87 710 C78 710 76 706 75 699 L47 534 L47 534 Z " />
<glyph glyph-name="quotedblbase" unicode="&#x201e;" horiz-adv-x="345" d="M225 -117 C224 -124 229 -128 234 -128 L253 -128 C261 -128 265 -125 266 -118 L296 48 C297 55 294 59 287 59 L264 59 C255 59 253 55 252 48 L225 -117 L225 -117 Z M47 -117 C46 -124 51 -128 56 -128 L75 -128 C83 -128 87 -125 88 -118 L119 48 C120 55 117 59 109 59 L87 59 C80 59 75 55 74 48 L47 -117 L47 -117 Z " />
<glyph glyph-name="dagger" unicode="&#x2020;" horiz-adv-x="369" d="M38 454 C32 454 29 450 29 443 L29 422 C29 415 32 412 38 412 L163 412 L163 -175 C163 -181 167 -184 174 -184 L195 -184 C202 -184 205 -181 205 -175 L205 412 L331 412 C337 412 340 415 340 422 L340 443 C340 450 337 454 331 454 L205 454 L205 711 C205 717 202 720 195 720 L174 720 C167 720 163 717 163 711 L163 454 L38 454 Z " />
<glyph glyph-name="daggerdbl" unicode="&#x2021;" horiz-adv-x="517" d="M38 155 C32 155 29 152 29 145 L29 123 C29 116 32 113 38 113 L234 113 L234 -175 C234 -181 237 -184 244 -184 L266 -184 C273 -184 276 -181 276 -175 L276 113 L479 113 C485 113 488 116 488 123 L488 145 C488 152 485 155 479 155 L276 155 L276 381 L479 381 C485 381 488 384 488 391 L488 413 C488 420 485 423 479 423 L276 423 L276 711 C276 717 273 720 266 720 L244 720 C237 720 234 717 234 711 L234 423 L38 423 C32 423 29 420 29 413 L29 391 C29 384 32 381 38 381 L234 381 L234 155 L38 155 Z " />
<glyph glyph-name="bullet" unicode="&#x2022;" horiz-adv-x="157" d="M39 280 C39 257 56 241 79 241 C102 241 118 257 118 280 C118 303 102 319 79 319 C56 319 39 303 39 280 L39 280 Z " />
<glyph glyph-name="ellipsis" unicode="&#x2026;" horiz-adv-x="820" d="M42 26 C42 5 58 -10 78 -10 C98 -10 114 5 114 26 C114 46 98 62 78 62 C58 62 42 46 42 26 L42 26 Z M371 26 C371 5 387 -10 407 -10 C427 -10 443 5 443 26 C443 46 427 62 407 62 C387 62 371 46 371 26 L371 26 Z M706 26 C706 5 721 -10 742 -10 C762 -10 778 5 778 26 C778 46 762 62 742 62 C721 62 706 46 706 26 L706 26 Z " />
<glyph glyph-name="perthousand" unicode="&#x2030;" horiz-adv-x="1110" d="M42 564 C42 484 108 418 188 418 C268 418 334 484 334 564 C334 644 268 710 188 710 C108 710 42 644 42 564 L42 564 Z M78 563 C78 626 123 674 186 674 C248 674 297 625 297 563 C297 500 249 456 186 456 C123 456 78 500 78 563 L78 563 Z M433 136 C433 56 499 -10 579 -10 C659 -10 725 56 725 136 C725 216 659 282 579 282 C499 282 433 216 433 136 L433 136 Z M470 135 C470 198 514 246 577 246 C639 246 688 197 688 135 C688 72 640 27 577 27 C514 27 470 72 470 135 L470 135 Z M776 136 C776 56 842 -10 922 -10 C1002 -10 1068 56 1068 136 C1068 216 1002 282 922 282 C842 282 776 216 776 136 L776 136 Z M813 135 C813 198 857 246 920 246 C981 246 1032 197 1032 135 C1032 73 981 27 920 27 C857 27 813 72 813 135 L813 135 Z M171 9 C168 3 170 0 179 0 L199 0 C204 0 208 3 213 9 L602 691 C605 697 602 700 594 700 L574 700 C569 700 565 697 560 691 L171 9 L171 9 Z " />
<glyph glyph-name="guilsinglleft" unicode="&#x2039;" horiz-adv-x="266" d="M215 444 C218 448 216 453 207 453 L181 453 C176 453 172 450 167 444 L32 239 C28 232 29 228 30 224 L33 218 L168 13 C172 8 174 4 181 4 L209 4 C217 4 219 9 216 13 L74 229 L215 444 Z " />
<glyph glyph-name="guilsinglright" unicode="&#x203a;" horiz-adv-x="266" d="M50 13 C47 9 49 4 57 4 L85 4 C90 4 95 7 98 13 L233 218 L236 224 C237 229 237 234 234 239 L99 444 C94 450 90 453 85 453 L59 453 C51 453 48 448 51 444 L192 229 L50 13 L50 13 Z " />
<glyph glyph-name="fraction" unicode="&#x2044;" horiz-adv-x="529" d="M49 9 C46 3 48 0 57 0 L77 0 C82 0 86 3 91 9 L480 691 C483 697 480 700 472 700 L452 700 C447 700 443 697 438 691 L49 9 L49 9 Z " />
<glyph glyph-name="franc" unicode="&#x20a3;" horiz-adv-x="572" d="M294 145 C300 145 303 149 303 156 L303 170 C303 177 300 180 294 180 L153 180 L153 326 L500 326 C506 326 509 329 509 336 L509 360 C509 367 506 370 500 370 L153 370 L153 655 L548 655 C554 655 557 658 557 665 L557 690 C557 697 554 700 548 700 L129 700 C114 700 108 690 108 679 L108 180 L53 180 C46 180 43 177 43 170 L43 156 C43 149 46 145 53 145 L108 145 L108 9 C108 3 111 0 118 0 L143 0 C150 0 153 3 153 9 L153 145 L294 145 Z " />
<glyph glyph-name="lira" unicode="&#x20a4;" horiz-adv-x="504" d="M26 344 C20 341 18 337 20 330 L26 315 C28 310 30 308 33 308 C35 308 37 309 39 310 L103 333 L103 15 C103 6 104 0 115 0 L130 0 C326 0 487 160 490 353 C490 360 487 363 480 363 L460 363 C453 363 450 360 449 353 C449 191 314 46 143 43 L143 347 L337 416 C343 417 345 421 343 428 L338 443 C336 448 334 451 330 451 C329 451 327 450 326 450 L143 385 L143 464 L337 532 C342 533 344 538 343 545 L338 560 C337 565 334 567 331 567 C329 567 328 567 326 566 L143 502 L143 691 C143 697 140 700 133 700 L113 700 C106 700 103 697 103 691 L103 487 L26 460 C20 458 18 454 20 447 L26 432 C28 428 30 425 34 425 C36 425 37 426 39 426 L103 449 L103 371 L26 344 L26 344 Z " />
<glyph glyph-name="Euro" unicode="&#x20ac;" horiz-adv-x="535" d="M509 64 C506 67 503 69 500 69 C498 69 495 68 492 66 C456 46 416 32 363 32 C205 32 137 141 118 272 L455 271 C464 271 465 275 465 282 L465 296 C465 303 462 306 455 306 L114 306 C111 337 111 368 114 397 L455 397 C462 397 465 401 465 408 L465 421 C465 428 462 432 455 432 L118 432 C137 563 215 668 363 668 C410 668 456 654 491 635 C494 633 496 633 498 633 C502 633 505 635 507 639 L516 658 C519 664 517 669 510 672 C467 695 418 710 363 710 C204 710 104 614 75 433 L10 432 C3 432 0 428 0 421 L0 408 C0 401 3 397 10 397 L71 397 C68 360 68 343 71 306 L10 306 C3 306 0 303 0 296 L0 282 C0 275 3 271 10 271 L75 271 C99 108 189 -10 363 -10 C419 -10 471 5 511 28 C520 33 523 39 518 46 L509 64 L509 64 Z " />
<glyph glyph-name="uni2113" unicode="&#x2113;" horiz-adv-x="321" d="M34 287 C37 284 40 283 43 283 C45 283 47 284 49 286 L94 334 L94 178 C94 78 110 -10 202 -10 C241 -10 275 5 302 26 C307 31 307 36 304 42 L298 58 C296 61 293 63 290 63 C288 63 286 62 283 60 C261 40 236 29 206 29 C141 29 135 104 135 183 L135 373 C202 451 280 527 288 627 C293 690 256 734 199 734 C120 734 94 654 94 564 L94 387 L26 312 C21 307 20 301 25 296 L34 287 L34 287 Z M251 617 C243 544 180 482 135 427 L135 546 C135 617 139 696 201 696 C244 696 256 661 251 617 L251 617 Z " />
<glyph glyph-name="trademark" unicode="&#x2122;" horiz-adv-x="895" d="M212 285 C218 285 221 288 221 295 L221 664 L363 664 C369 664 372 667 372 674 L372 692 C372 698 369 701 363 701 L45 701 C40 701 37 698 37 692 L37 673 C37 667 40 664 45 664 L184 664 L184 295 C184 288 187 285 194 285 L212 285 L212 285 Z M601 342 C604 342 607 344 608 348 L750 617 L750 294 C750 286 754 285 759 285 L778 285 C784 285 787 288 787 294 L787 690 C787 697 784 700 777 700 L760 700 C753 700 749 697 747 692 L595 399 L443 692 C441 697 436 700 429 700 L412 700 C406 700 403 697 403 690 L403 295 C403 288 406 285 412 285 L431 285 C439 285 440 288 440 295 L440 617 L583 348 C585 344 587 342 590 342 L601 342 L601 342 Z " />
<glyph glyph-name="Omega" unicode="&#x2126;" horiz-adv-x="807" d="M318 54 C170 121 86 223 89 375 C89 546 219 688 402 688 C584 688 720 545 717 374 C714 221 633 122 484 54 L484 0 L720 0 C727 0 730 3 730 10 L730 30 C730 37 727 41 720 41 L521 41 C672 108 756 227 759 378 C759 565 610 729 402 729 C195 729 47 565 47 378 C47 219 135 108 280 41 L83 41 C76 41 73 38 73 31 L73 10 C73 3 76 0 83 0 L318 0 L318 54 Z " />
<glyph glyph-name="estimated" unicode="&#x212e;" horiz-adv-x="593" d="M536 256 C539 256 551 258 551 270 C551 401 457 547 296 547 C149 547 42 424 42 275 C42 135 156 5 296 5 C384 5 461 45 508 117 C512 124 514 131 506 135 L492 142 C490 143 488 143 487 143 C482 143 479 141 475 136 C434 76 373 43 296 43 C239 43 181 72 148 113 L148 256 L536 256 Z M148 446 C187 489 237 508 296 508 C352 508 408 489 443 446 L443 293 L148 293 L148 446 Z " />
<glyph glyph-name="partialdiff" unicode="&#x2202;" horiz-adv-x="560" d="M325 710 C282 710 234 699 203 684 C196 681 195 677 198 670 L205 653 C207 648 210 646 214 646 C216 646 218 646 220 647 C248 659 290 669 321 669 C486 669 501 548 477 384 C445 455 365 494 290 494 C151 494 51 362 41 216 C28 64 114 -10 220 -10 C368 -10 455 143 493 285 C551 505 550 710 325 710 L325 710 Z M220 31 C117 31 73 113 81 213 C88 324 165 452 290 452 C371 452 443 405 462 323 C430 179 344 31 220 31 L220 31 Z " />
<glyph glyph-name="Delta" unicode="&#x2206;" horiz-adv-x="621" d="M309 692 L313 692 L549 42 L75 42 L309 692 Z M27 9 C27 3 30 0 37 0 L584 0 C591 0 594 3 594 9 L594 26 L342 735 C339 745 333 750 326 750 L296 750 C288 750 282 745 279 735 L27 26 L27 9 L27 9 Z " />
<glyph glyph-name="product" unicode="&#x220f;" horiz-adv-x="734" d="M118 700 C111 700 108 697 108 691 L108 -119 C108 -125 111 -128 118 -128 L140 -128 C147 -128 150 -125 150 -119 L150 658 L584 658 L584 -119 C584 -125 587 -128 594 -128 L616 -128 C623 -128 626 -125 626 -119 L626 691 C626 697 623 700 616 700 L118 700 L118 700 Z " />
<glyph glyph-name="summation" unicode="&#x2211;" horiz-adv-x="689" d="M48 -215 C48 -223 54 -230 63 -230 L628 -230 C636 -230 640 -226 640 -219 L640 -199 C640 -192 636 -188 628 -188 L111 -188 L446 214 C461 230 462 240 449 255 L111 658 L628 658 C636 658 640 662 640 669 L640 689 C640 696 636 700 628 700 L63 700 C62 700 48 701 48 686 L48 675 C48 667 51 663 55 656 L408 234 L55 -186 C50 -191 48 -197 48 -203 L48 -215 L48 -215 Z " />
<glyph glyph-name="minus" unicode="&#x2212;" horiz-adv-x="599" d="M94 295 C88 295 85 291 85 284 L85 260 C85 253 88 250 94 250 L505 250 C511 250 514 253 514 260 L514 284 C514 291 511 295 505 295 L94 295 L94 295 Z " />
<glyph glyph-name="uni2215" unicode="&#x2215;" horiz-adv-x="529" d="M49 9 C46 3 48 0 57 0 L77 0 C82 0 86 3 91 9 L480 691 C483 697 480 700 472 700 L452 700 C447 700 443 697 438 691 L49 9 L49 9 Z " />
<glyph glyph-name="uni2219" unicode="&#x2219;" horiz-adv-x="154" d="M42 321 C42 301 57 286 77 286 C97 286 112 301 112 321 C112 341 97 356 77 356 C57 356 42 341 42 321 L42 321 Z " />
<glyph glyph-name="radical" unicode="&#x221a;" horiz-adv-x="469" d="M257 -12 C265 -12 267 -8 268 -1 C316 221 383 491 431 713 C434 721 432 728 421 728 L403 728 C392 728 390 722 387 713 L240 69 L119 379 C117 386 111 390 106 390 C103 390 101 389 99 388 L25 344 C18 340 17 334 20 327 L28 310 C32 306 35 304 39 304 C41 304 44 305 47 307 L88 332 L109 280 C122 249 138 208 155 165 L221 -3 C224 -9 229 -12 234 -12 L257 -12 L257 -12 Z " />
<glyph glyph-name="infinity" unicode="&#x221e;" horiz-adv-x="747" d="M665 293 C665 213 617 163 537 163 C478 163 402 205 399 293 C402 356 454 419 537 419 C619 419 665 359 665 293 L665 293 Z M349 294 C349 223 287 163 211 163 C127 163 82 220 82 293 C82 352 120 419 213 419 C279 419 344 377 349 294 L349 294 Z M370 353 C349 413 294 458 210 458 C112 458 42 387 42 293 C42 191 112 124 212 124 C281 124 345 170 378 231 C399 171 468 124 540 124 C643 124 705 198 705 293 C705 390 628 458 537 458 C444 458 394 393 370 353 L370 353 Z " />
<glyph glyph-name="integral" unicode="&#x222b;" horiz-adv-x="251" d="M95 -113 C95 -154 79 -175 49 -175 C36 -175 20 -171 2 -163 C0 -162 -2 -161 -4 -161 C-7 -161 -9 -163 -11 -167 L-16 -178 C-18 -185 -16 -189 -10 -192 C14 -203 36 -208 55 -208 C106 -208 137 -172 137 -112 L137 626 C137 667 153 688 183 688 C196 688 212 684 230 676 C232 675 234 675 235 675 C239 675 242 677 244 680 L248 691 C251 697 250 702 243 705 C218 716 196 722 177 722 C126 722 95 685 95 625 L95 -113 L95 -113 Z " />
<glyph glyph-name="approxequal" unicode="&#x2248;" horiz-adv-x="507" d="M63 226 C90 269 116 294 163 294 C222 294 310 226 374 226 C423 226 448 267 475 299 C479 303 478 308 473 313 L459 323 C457 324 454 325 452 325 C450 325 447 324 445 322 C427 299 408 267 375 267 C316 267 228 334 164 334 C102 334 63 296 31 247 C28 242 29 237 34 233 L49 224 C52 223 54 222 56 222 C59 222 61 223 63 226 L63 226 Z M63 420 C90 463 116 488 163 488 C222 488 310 420 374 420 C423 420 448 461 475 493 C479 497 478 502 473 507 L459 517 C457 518 454 519 452 519 C450 519 447 518 445 516 C427 493 408 461 375 461 C316 461 228 528 164 528 C102 528 63 490 31 441 C28 436 29 431 34 427 L49 418 C52 417 54 416 56 416 C59 416 61 417 63 420 L63 420 Z " />
<glyph glyph-name="notequal" unicode="&#x2260;" horiz-adv-x="558" d="M501 179 C507 179 510 182 510 189 L510 209 C510 216 507 219 501 219 L263 219 L337 384 L501 384 C507 384 510 387 510 394 L510 414 C510 421 507 424 501 424 L356 424 L422 568 C425 574 423 577 414 577 L393 577 C386 577 382 574 379 568 L314 424 L57 424 C51 424 48 421 48 414 L48 394 C48 387 51 384 57 384 L295 384 L221 219 L57 219 C51 219 48 216 48 209 L48 189 C48 182 51 179 57 179 L202 179 L137 36 C134 30 136 27 145 27 L166 27 C171 27 176 30 180 36 L244 179 L501 179 Z " />
<glyph glyph-name="lessequal" unicode="&#x2264;" horiz-adv-x="473" d="M57 41 C51 41 48 37 48 30 L48 10 C48 3 51 0 57 0 L398 0 C404 0 407 3 407 10 L407 31 C407 38 404 41 398 41 L57 41 L57 41 Z M398 569 C404 572 407 577 407 583 L407 607 C407 612 406 616 402 616 C401 616 400 616 398 615 L57 461 C51 458 48 454 48 449 L48 424 C48 418 51 414 57 411 L398 257 C399 257 400 256 401 256 C406 256 407 262 407 266 L407 289 C407 295 404 299 398 302 L103 436 L398 569 L398 569 Z " />
<glyph glyph-name="greaterequal" unicode="&#x2265;" horiz-adv-x="473" d="M75 41 C69 41 66 38 66 31 L66 10 C66 3 69 0 75 0 L416 0 C422 0 425 3 425 10 L425 30 C425 37 422 41 416 41 L75 41 L75 41 Z M74 302 C67 299 66 296 66 289 L66 266 C66 262 67 256 71 256 C72 256 73 257 74 257 L416 411 C422 414 425 418 425 424 L425 449 C425 454 422 458 416 461 L74 615 C73 616 72 616 71 616 C68 616 66 612 66 607 L66 583 C66 577 69 572 74 569 L369 436 L74 302 Z " />
<glyph glyph-name="lozenge" unicode="&#x25ca;" horiz-adv-x="442" d="M219 653 L221 653 L375 350 L221 46 L219 46 L67 350 L219 653 Z M189 9 C192 4 194 0 202 0 L239 0 C244 0 249 3 252 9 L412 329 C419 345 419 354 411 371 L252 691 C249 697 244 700 239 700 L202 700 C194 700 192 698 189 691 L31 371 C23 355 23 345 31 329 L189 9 L189 9 Z " />
</font>
</svg>
